G04 #@! TF.GenerationSoftware,KiCad,Pcbnew,7.0.7*
G04 #@! TF.CreationDate,2023-10-06T21:03:47+01:00*
G04 #@! TF.ProjectId,stencil,7374656e-6369-46c2-9e6b-696361645f70,C*
G04 #@! TF.SameCoordinates,PX8044ea0PY76ec560*
G04 #@! TF.FileFunction,Paste,Top*
G04 #@! TF.FilePolarity,Positive*
%FSLAX46Y46*%
G04 Gerber Fmt 4.6, Leading zero omitted, Abs format (unit mm)*
G04 Created by KiCad (PCBNEW 7.0.7) date 2023-10-06 21:03:47*
%MOMM*%
%LPD*%
G01*
G04 APERTURE LIST*
G04 Aperture macros list*
%AMRoundRect*
0 Rectangle with rounded corners*
0 $1 Rounding radius*
0 $2 $3 $4 $5 $6 $7 $8 $9 X,Y pos of 4 corners*
0 Add a 4 corners polygon primitive as box body*
4,1,4,$2,$3,$4,$5,$6,$7,$8,$9,$2,$3,0*
0 Add four circle primitives for the rounded corners*
1,1,$1+$1,$2,$3*
1,1,$1+$1,$4,$5*
1,1,$1+$1,$6,$7*
1,1,$1+$1,$8,$9*
0 Add four rect primitives between the rounded corners*
20,1,$1+$1,$2,$3,$4,$5,0*
20,1,$1+$1,$4,$5,$6,$7,0*
20,1,$1+$1,$6,$7,$8,$9,0*
20,1,$1+$1,$8,$9,$2,$3,0*%
G04 Aperture macros list end*
%ADD10C,1.000000*%
%ADD11C,0.500000*%
%ADD12C,1.050000*%
%ADD13R,0.630000X0.820000*%
%ADD14R,0.350000X0.650000*%
%ADD15RoundRect,0.200000X-0.275000X0.200000X-0.275000X-0.200000X0.275000X-0.200000X0.275000X0.200000X0*%
%ADD16RoundRect,0.225000X0.225000X0.250000X-0.225000X0.250000X-0.225000X-0.250000X0.225000X-0.250000X0*%
%ADD17RoundRect,0.225000X-0.225000X-0.250000X0.225000X-0.250000X0.225000X0.250000X-0.225000X0.250000X0*%
%ADD18RoundRect,0.150000X0.150000X0.200000X-0.150000X0.200000X-0.150000X-0.200000X0.150000X-0.200000X0*%
%ADD19RoundRect,0.218750X-0.256250X0.218750X-0.256250X-0.218750X0.256250X-0.218750X0.256250X0.218750X0*%
%ADD20RoundRect,0.200000X-0.200000X-0.275000X0.200000X-0.275000X0.200000X0.275000X-0.200000X0.275000X0*%
%ADD21RoundRect,0.200000X0.275000X-0.200000X0.275000X0.200000X-0.275000X0.200000X-0.275000X-0.200000X0*%
%ADD22R,0.800000X0.400000*%
%ADD23R,0.400000X0.800000*%
%ADD24R,1.450000X1.450000*%
%ADD25R,0.700000X0.700000*%
%ADD26RoundRect,0.225000X-0.250000X0.225000X-0.250000X-0.225000X0.250000X-0.225000X0.250000X0.225000X0*%
%ADD27RoundRect,0.150000X-0.150000X-0.200000X0.150000X-0.200000X0.150000X0.200000X-0.150000X0.200000X0*%
%ADD28RoundRect,0.200000X0.200000X0.275000X-0.200000X0.275000X-0.200000X-0.275000X0.200000X-0.275000X0*%
%ADD29RoundRect,0.225000X0.250000X-0.225000X0.250000X0.225000X-0.250000X0.225000X-0.250000X-0.225000X0*%
%ADD30R,0.280000X1.130000*%
%ADD31R,0.230000X1.130000*%
%ADD32RoundRect,0.250000X1.500000X-0.250000X1.500000X0.250000X-1.500000X0.250000X-1.500000X-0.250000X0*%
%ADD33RoundRect,0.250001X1.449999X-0.499999X1.449999X0.499999X-1.449999X0.499999X-1.449999X-0.499999X0*%
%ADD34RoundRect,0.150000X0.150000X-0.512500X0.150000X0.512500X-0.150000X0.512500X-0.150000X-0.512500X0*%
%ADD35R,0.820000X0.630000*%
%ADD36R,0.650000X0.350000*%
G04 APERTURE END LIST*
D10*
X17599819Y89550000D02*
G75*
G03*
X17599819Y89550000I-500000J0D01*
G01*
D11*
X79099819Y-7400000D02*
X79099819Y-17800000D01*
X77099800Y-30200000D02*
G75*
G03*
X78099819Y-31200000I1000000J0D01*
G01*
X-8700181Y-31200019D02*
G75*
G03*
X-8200181Y-30700000I-19J500019D01*
G01*
X79099819Y29800000D02*
X79099819Y19400000D01*
X-44900200Y44200000D02*
G75*
G03*
X-44400181Y43700000I500000J0D01*
G01*
X41399800Y92300000D02*
G75*
G03*
X40899819Y92800000I-500000J0D01*
G01*
X17599800Y-30700000D02*
G75*
G03*
X18099819Y-31200000I500000J0D01*
G01*
X79099800Y-7400000D02*
G75*
G03*
X78599819Y-6900000I-500000J0D01*
G01*
X40899819Y-31200019D02*
G75*
G03*
X41399819Y-30700000I-19J500019D01*
G01*
X28999800Y92300000D02*
G75*
G03*
X28499819Y92800000I-500000J0D01*
G01*
X5699819Y-31200000D02*
X16099819Y-31200000D01*
D12*
X76374819Y-27950000D02*
G75*
G03*
X76374819Y-27950000I-525000J0D01*
G01*
D11*
X-44900200Y31800000D02*
G75*
G03*
X-44400181Y31300000I500000J0D01*
G01*
X79099819Y17400000D02*
X79099819Y7000000D01*
X-44900200Y-5400000D02*
G75*
G03*
X-44400181Y-5900000I500000J0D01*
G01*
X54799800Y-30700000D02*
G75*
G03*
X55299819Y-31200000I500000J0D01*
G01*
X-33500181Y-31200019D02*
G75*
G03*
X-33000181Y-30700000I-19J500019D01*
G01*
X-44900200Y56600000D02*
G75*
G03*
X-44400181Y56100000I500000J0D01*
G01*
D10*
X-41150181Y30800000D02*
G75*
G03*
X-41150181Y30800000I-500000J0D01*
G01*
D11*
X-44400181Y67499981D02*
G75*
G03*
X-44900181Y67000000I-19J-499981D01*
G01*
X-19100181Y92800000D02*
X-8700181Y92800000D01*
X-44900200Y7000000D02*
G75*
G03*
X-44400181Y6500000I500000J0D01*
G01*
X78599819Y43699981D02*
G75*
G03*
X79099819Y44200000I-19J500019D01*
G01*
X78599819Y18899981D02*
G75*
G03*
X79099819Y19400000I-19J500019D01*
G01*
X30499819Y92800000D02*
X40899819Y92800000D01*
X-43900181Y-31200000D02*
X-33500181Y-31200000D01*
X-6700181Y92800000D02*
X3699819Y92800000D01*
X-44900181Y54600000D02*
X-44900181Y44200000D01*
X-44900181Y5000000D02*
X-44900181Y-5400000D01*
X-44400181Y42699981D02*
G75*
G03*
X-44900181Y42200000I-19J-499981D01*
G01*
X53799800Y92300000D02*
G75*
G03*
X53299819Y92800000I-500000J0D01*
G01*
D12*
X-41125181Y89550000D02*
G75*
G03*
X-41125181Y89550000I-525000J0D01*
G01*
D11*
X-44400181Y79899981D02*
G75*
G03*
X-44900181Y79400000I-19J-499981D01*
G01*
X79099800Y29800000D02*
G75*
G03*
X78599819Y30300000I-500000J0D01*
G01*
X78599819Y6499981D02*
G75*
G03*
X79099819Y7000000I-19J500019D01*
G01*
D10*
X-11775181Y89550000D02*
G75*
G03*
X-11775181Y89550000I-500000J0D01*
G01*
X46974819Y89550000D02*
G75*
G03*
X46974819Y89550000I-500000J0D01*
G01*
D11*
X79099819Y5000000D02*
X79099819Y-5400000D01*
X18099819Y92799981D02*
G75*
G03*
X17599819Y92300000I-19J-499981D01*
G01*
D12*
X76374819Y89550000D02*
G75*
G03*
X76374819Y89550000I-525000J0D01*
G01*
D11*
X78599819Y80899981D02*
G75*
G03*
X79099819Y81400000I-19J500019D01*
G01*
X-20600200Y92300000D02*
G75*
G03*
X-21100181Y92800000I-500000J0D01*
G01*
X18099819Y-31200000D02*
X28499819Y-31200000D01*
X30499819Y-31200000D02*
X40899819Y-31200000D01*
X79099819Y-19800000D02*
X79099819Y-30200000D01*
X5199800Y-30700000D02*
G75*
G03*
X5699819Y-31200000I500000J0D01*
G01*
X-19100181Y-31200000D02*
X-8700181Y-31200000D01*
X-44900181Y42200000D02*
X-44900181Y31800000D01*
X-44900200Y-17800000D02*
G75*
G03*
X-44400181Y-18300000I500000J0D01*
G01*
X42899819Y-31200000D02*
X53299819Y-31200000D01*
X79099819Y54600000D02*
X79099819Y44200000D01*
X67199800Y-30700000D02*
G75*
G03*
X67699819Y-31200000I500000J0D01*
G01*
X65699819Y-31200019D02*
G75*
G03*
X66199819Y-30700000I-19J500019D01*
G01*
X-43900181Y92800000D02*
X-33500181Y92800000D01*
X-44400181Y17899981D02*
G75*
G03*
X-44900181Y17400000I-19J-499981D01*
G01*
D10*
X76349819Y30800000D02*
G75*
G03*
X76349819Y30800000I-500000J0D01*
G01*
D11*
X79099819Y91800000D02*
X79099819Y81400000D01*
X79099819Y79400000D02*
X79099819Y69000000D01*
X79099800Y-19800000D02*
G75*
G03*
X78599819Y-19300000I-500000J0D01*
G01*
X3699819Y-31200019D02*
G75*
G03*
X4199819Y-30700000I-19J500019D01*
G01*
D10*
X-41150181Y60175000D02*
G75*
G03*
X-41150181Y60175000I-500000J0D01*
G01*
D11*
X-42900200Y91800000D02*
G75*
G03*
X-43900181Y92800000I-1000000J0D01*
G01*
X-44900200Y81400000D02*
G75*
G03*
X-44400181Y80900000I500000J0D01*
G01*
X42899819Y92800000D02*
X53299819Y92800000D01*
X16099819Y-31200019D02*
G75*
G03*
X16599819Y-30700000I-19J500019D01*
G01*
X78599819Y-5900019D02*
G75*
G03*
X79099819Y-5400000I-19J500019D01*
G01*
X79099800Y17400000D02*
G75*
G03*
X78599819Y17900000I-500000J0D01*
G01*
X-44400181Y55099981D02*
G75*
G03*
X-44900181Y54600000I-19J-499981D01*
G01*
X-32000200Y-30700000D02*
G75*
G03*
X-31500181Y-31200000I500000J0D01*
G01*
D12*
X-41125181Y-27950000D02*
G75*
G03*
X-41125181Y-27950000I-525000J0D01*
G01*
D11*
X-33000200Y92300000D02*
G75*
G03*
X-33500181Y92800000I-500000J0D01*
G01*
X79099819Y42200000D02*
X79099819Y31800000D01*
X67699819Y92799981D02*
G75*
G03*
X67199819Y92300000I-19J-499981D01*
G01*
X79099800Y79400000D02*
G75*
G03*
X78599819Y79900000I-500000J0D01*
G01*
X4199800Y92300000D02*
G75*
G03*
X3699819Y92800000I-500000J0D01*
G01*
D10*
X76349819Y60175000D02*
G75*
G03*
X76349819Y60175000I-500000J0D01*
G01*
D11*
X-44900181Y-19800000D02*
X-44900181Y-30200000D01*
X-44900181Y-7400000D02*
X-44900181Y-17800000D01*
X-44900181Y17400000D02*
X-44900181Y7000000D01*
X78599819Y31299981D02*
G75*
G03*
X79099819Y31800000I-19J500019D01*
G01*
X16599800Y92300000D02*
G75*
G03*
X16099819Y92800000I-500000J0D01*
G01*
X18099819Y92800000D02*
X28499819Y92800000D01*
X55299819Y-31200000D02*
X65699819Y-31200000D01*
D10*
X-11775181Y-27950000D02*
G75*
G03*
X-11775181Y-27950000I-500000J0D01*
G01*
D11*
X66199800Y92300000D02*
G75*
G03*
X65699819Y92800000I-500000J0D01*
G01*
X-44400181Y-6900019D02*
G75*
G03*
X-44900181Y-7400000I-19J-499981D01*
G01*
X-44400181Y30299981D02*
G75*
G03*
X-44900181Y29800000I-19J-499981D01*
G01*
X-44900200Y19400000D02*
G75*
G03*
X-44400181Y18900000I500000J0D01*
G01*
X-43900181Y-29200019D02*
G75*
G03*
X-44900181Y-30200000I-19J-999981D01*
G01*
X5699819Y92800000D02*
X16099819Y92800000D01*
X30499819Y92799981D02*
G75*
G03*
X29999819Y92300000I-19J-499981D01*
G01*
X78599819Y-18300019D02*
G75*
G03*
X79099819Y-17800000I-19J500019D01*
G01*
X-44900181Y67000000D02*
X-44900181Y56600000D01*
X79099800Y42200000D02*
G75*
G03*
X78599819Y42700000I-500000J0D01*
G01*
X55299819Y92800000D02*
X65699819Y92800000D01*
X5699819Y92799981D02*
G75*
G03*
X5199819Y92300000I-19J-499981D01*
G01*
X79099819Y67000000D02*
X79099819Y56600000D01*
X78599819Y56099981D02*
G75*
G03*
X79099819Y56600000I-19J500019D01*
G01*
D10*
X-41150181Y1425000D02*
G75*
G03*
X-41150181Y1425000I-500000J0D01*
G01*
D11*
X-44400181Y-19300019D02*
G75*
G03*
X-44900181Y-19800000I-19J-499981D01*
G01*
X79099800Y5000000D02*
G75*
G03*
X78599819Y5500000I-500000J0D01*
G01*
X-6700181Y-31200000D02*
X3699819Y-31200000D01*
X78099819Y90799981D02*
G75*
G03*
X79099819Y91800000I-19J1000019D01*
G01*
X67699819Y-31200000D02*
X78099819Y-31200000D01*
X-19100181Y92799981D02*
G75*
G03*
X-19600181Y92300000I-19J-499981D01*
G01*
X67699819Y92800000D02*
X78099819Y92800000D01*
X-21100181Y-31200019D02*
G75*
G03*
X-20600181Y-30700000I-19J500019D01*
G01*
X-31500181Y92800000D02*
X-21100181Y92800000D01*
X-19600200Y-30700000D02*
G75*
G03*
X-19100181Y-31200000I500000J0D01*
G01*
X55299819Y92799981D02*
G75*
G03*
X54799819Y92300000I-19J-499981D01*
G01*
X-7200200Y-30700000D02*
G75*
G03*
X-6700181Y-31200000I500000J0D01*
G01*
X-44900181Y29800000D02*
X-44900181Y19400000D01*
X-31500181Y-31200000D02*
X-21100181Y-31200000D01*
X42899819Y92799981D02*
G75*
G03*
X42399819Y92300000I-19J-499981D01*
G01*
X78599819Y68499981D02*
G75*
G03*
X79099819Y69000000I-19J500019D01*
G01*
X79099800Y67000000D02*
G75*
G03*
X78599819Y67500000I-500000J0D01*
G01*
X29999800Y-30700000D02*
G75*
G03*
X30499819Y-31200000I500000J0D01*
G01*
X-31500181Y92799981D02*
G75*
G03*
X-32000181Y92300000I-19J-499981D01*
G01*
X-6700181Y92799981D02*
G75*
G03*
X-7200181Y92300000I-19J-499981D01*
G01*
X-44900181Y91800000D02*
X-44900181Y81400000D01*
D10*
X76349819Y1425000D02*
G75*
G03*
X76349819Y1425000I-500000J0D01*
G01*
X46974819Y-27950000D02*
G75*
G03*
X46974819Y-27950000I-500000J0D01*
G01*
D11*
X-44900200Y69000000D02*
G75*
G03*
X-44400181Y68500000I500000J0D01*
G01*
X79099800Y54600000D02*
G75*
G03*
X78599819Y55100000I-500000J0D01*
G01*
X-44900181Y79400000D02*
X-44900181Y69000000D01*
X-8200200Y92300000D02*
G75*
G03*
X-8700181Y92800000I-500000J0D01*
G01*
X53299819Y-31200019D02*
G75*
G03*
X53799819Y-30700000I-19J500019D01*
G01*
X28499819Y-31200019D02*
G75*
G03*
X28999819Y-30700000I-19J500019D01*
G01*
X42399800Y-30700000D02*
G75*
G03*
X42899819Y-31200000I500000J0D01*
G01*
D10*
X17599819Y-27950000D02*
G75*
G03*
X17599819Y-27950000I-500000J0D01*
G01*
D11*
X-44400181Y5499981D02*
G75*
G03*
X-44900181Y5000000I-19J-499981D01*
G01*
D13*
G04 #@! TO.C,U4*
X4700000Y22100000D03*
X3900000Y22100000D03*
D14*
X4950000Y23150000D03*
X4300000Y23150000D03*
X3650000Y23150000D03*
X3650000Y21050000D03*
X4300000Y21050000D03*
X4950000Y21050000D03*
G04 #@! TD*
D15*
G04 #@! TO.C,R7*
X16122000Y40562000D03*
X16122000Y38912000D03*
G04 #@! TD*
D16*
G04 #@! TO.C,C4*
X7475000Y8800000D03*
X5925000Y8800000D03*
G04 #@! TD*
D17*
G04 #@! TO.C,C1*
X15150000Y14625000D03*
X16700000Y14625000D03*
G04 #@! TD*
D18*
G04 #@! TO.C,D1*
X12800000Y42000000D03*
X14200000Y42000000D03*
G04 #@! TD*
D17*
G04 #@! TO.C,C5*
X4225000Y10300000D03*
X5775000Y10300000D03*
G04 #@! TD*
D19*
G04 #@! TO.C,D5*
X3150000Y6787500D03*
X3150000Y5212500D03*
G04 #@! TD*
D17*
G04 #@! TO.C,C2*
X15325000Y20325000D03*
X16875000Y20325000D03*
G04 #@! TD*
D20*
G04 #@! TO.C,R4*
X19105000Y10004000D03*
X20755000Y10004000D03*
G04 #@! TD*
D21*
G04 #@! TO.C,R10*
X15487000Y31927000D03*
X15487000Y33577000D03*
G04 #@! TD*
D15*
G04 #@! TO.C,R1*
X7850000Y23075000D03*
X7850000Y21425000D03*
G04 #@! TD*
D22*
G04 #@! TO.C,U2*
X11200000Y54500000D03*
X11200000Y53700000D03*
X11200000Y52900000D03*
X11200000Y52100000D03*
X11200000Y51300000D03*
X11200000Y50500000D03*
X11200000Y49700000D03*
X11200000Y48900000D03*
X11200000Y48100000D03*
X11200000Y47300000D03*
X11200000Y46500000D03*
D23*
X12300000Y45600000D03*
X13100000Y45600000D03*
X13900000Y45600000D03*
X14700000Y45600000D03*
X15500000Y45600000D03*
X16300000Y45600000D03*
X17100000Y45600000D03*
X17900000Y45600000D03*
X18700000Y45600000D03*
X19500000Y45600000D03*
X20300000Y45600000D03*
X21100000Y45600000D03*
X21900000Y45600000D03*
D22*
X23000000Y46500000D03*
X23000000Y47300000D03*
X23000000Y48100000D03*
X23000000Y48900000D03*
X23000000Y49700000D03*
X23000000Y50500000D03*
X23000000Y51300000D03*
X23000000Y52100000D03*
X23000000Y52900000D03*
X23000000Y53700000D03*
X23000000Y54500000D03*
D23*
X21900000Y55400000D03*
X21100000Y55400000D03*
X20300000Y55400000D03*
X19500000Y55400000D03*
X18700000Y55400000D03*
X17900000Y55400000D03*
X17100000Y55400000D03*
X16300000Y55400000D03*
X15500000Y55400000D03*
X14700000Y55400000D03*
X13900000Y55400000D03*
X13100000Y55400000D03*
X12300000Y55400000D03*
D24*
X15125000Y52475000D03*
X15125000Y50500000D03*
X15125000Y48525000D03*
X17100000Y52475000D03*
X17100000Y50500000D03*
X17100000Y48525000D03*
X19075000Y52475000D03*
X19075000Y50500000D03*
X19075000Y48525000D03*
D25*
X23050000Y55450000D03*
X23050000Y45550000D03*
X11150000Y45550000D03*
X11150000Y55450000D03*
G04 #@! TD*
D20*
G04 #@! TO.C,R13*
X21275000Y43900000D03*
X22925000Y43900000D03*
G04 #@! TD*
D15*
G04 #@! TO.C,R14*
X15487000Y24433000D03*
X15487000Y22783000D03*
G04 #@! TD*
D26*
G04 #@! TO.C,C7*
X15487000Y30479000D03*
X15487000Y28929000D03*
G04 #@! TD*
D27*
G04 #@! TO.C,D4*
X11500000Y42000000D03*
X10100000Y42000000D03*
G04 #@! TD*
D26*
G04 #@! TO.C,C6*
X14598000Y40499000D03*
X14598000Y38949000D03*
G04 #@! TD*
D15*
G04 #@! TO.C,R3*
X6650000Y4825000D03*
X6650000Y3175000D03*
G04 #@! TD*
D21*
G04 #@! TO.C,R6*
X15614000Y41960000D03*
X15614000Y43610000D03*
G04 #@! TD*
G04 #@! TO.C,R15*
X17011000Y25831000D03*
X17011000Y27481000D03*
G04 #@! TD*
D28*
G04 #@! TO.C,R8*
X12756000Y36943000D03*
X11106000Y36943000D03*
G04 #@! TD*
D15*
G04 #@! TO.C,R12*
X9600000Y51325000D03*
X9600000Y49675000D03*
G04 #@! TD*
D29*
G04 #@! TO.C,C8*
X15487000Y25881000D03*
X15487000Y27431000D03*
G04 #@! TD*
D18*
G04 #@! TO.C,D2*
X12800000Y30847000D03*
X14200000Y30847000D03*
G04 #@! TD*
D21*
G04 #@! TO.C,R9*
X6600000Y49675000D03*
X6600000Y51325000D03*
G04 #@! TD*
D30*
G04 #@! TO.C,USB-C1*
X13775000Y8332000D03*
X14575000Y8332000D03*
D31*
X15850000Y8332000D03*
X16850000Y8332000D03*
X17350000Y8332000D03*
X18350000Y8332000D03*
D30*
X19625000Y8332000D03*
X20425000Y8332000D03*
X20175000Y8332000D03*
X19375000Y8332000D03*
D31*
X18850000Y8332000D03*
X17850000Y8332000D03*
X16350000Y8332000D03*
X15350000Y8332000D03*
D30*
X14825000Y8332000D03*
X14025000Y8332000D03*
G04 #@! TD*
D18*
G04 #@! TO.C,D3*
X12755000Y25132000D03*
X14155000Y25132000D03*
G04 #@! TD*
D26*
G04 #@! TO.C,C3*
X6350000Y23025000D03*
X6350000Y21475000D03*
G04 #@! TD*
D28*
G04 #@! TO.C,R5*
X15421000Y9897000D03*
X13771000Y9897000D03*
G04 #@! TD*
D32*
G04 #@! TO.C,J1*
X4550000Y14750000D03*
X4550000Y16750000D03*
D33*
X10300000Y12400000D03*
X10300000Y19100000D03*
G04 #@! TD*
D15*
G04 #@! TO.C,R11*
X17011000Y30529000D03*
X17011000Y28879000D03*
G04 #@! TD*
D29*
G04 #@! TO.C,C9*
X8100000Y49725000D03*
X8100000Y51275000D03*
G04 #@! TD*
D34*
G04 #@! TO.C,U1*
X15200000Y16350000D03*
X16150000Y16350000D03*
X17100000Y16350000D03*
X17100000Y18625000D03*
X15200000Y18625000D03*
G04 #@! TD*
D21*
G04 #@! TO.C,R2*
X8250000Y3975000D03*
X8250000Y5625000D03*
G04 #@! TD*
D35*
G04 #@! TO.C,U3*
X5650000Y6400000D03*
X5650000Y7200000D03*
D36*
X6700000Y6150000D03*
X6700000Y6800000D03*
X6700000Y7450000D03*
X4600000Y7450000D03*
X4600000Y6800000D03*
X4600000Y6150000D03*
G04 #@! TD*
M02*
