%TF.GenerationSoftware,KiCad,Pcbnew,7.0.7*%
%TF.CreationDate,2023-09-25T17:24:59+01:00*%
%TF.ProjectId,Rapid Remote,52617069-6420-4526-956d-6f74652e6b69,C*%
%TF.SameCoordinates,PX8044ea0PY76ec560*%
%TF.FileFunction,Paste,Top*%
%TF.FilePolarity,Positive*%
%FSLAX46Y46*%
G04 Gerber Fmt 4.6, Leading zero omitted, Abs format (unit mm)*
G04 Created by KiCad (PCBNEW 7.0.7) date 2023-09-25 17:24:59*
%MOMM*%
%LPD*%
G01*
G04 APERTURE LIST*
G04 Aperture macros list*
%AMRoundRect*
0 Rectangle with rounded corners*
0 $1 Rounding radius*
0 $2 $3 $4 $5 $6 $7 $8 $9 X,Y pos of 4 corners*
0 Add a 4 corners polygon primitive as box body*
4,1,4,$2,$3,$4,$5,$6,$7,$8,$9,$2,$3,0*
0 Add four circle primitives for the rounded corners*
1,1,$1+$1,$2,$3*
1,1,$1+$1,$4,$5*
1,1,$1+$1,$6,$7*
1,1,$1+$1,$8,$9*
0 Add four rect primitives between the rounded corners*
20,1,$1+$1,$2,$3,$4,$5,0*
20,1,$1+$1,$4,$5,$6,$7,0*
20,1,$1+$1,$6,$7,$8,$9,0*
20,1,$1+$1,$8,$9,$2,$3,0*%
G04 Aperture macros list end*
%ADD10R,0.630000X0.820000*%
%ADD11R,0.350000X0.650000*%
%ADD12RoundRect,0.200000X-0.275000X0.200000X-0.275000X-0.200000X0.275000X-0.200000X0.275000X0.200000X0*%
%ADD13RoundRect,0.225000X0.225000X0.250000X-0.225000X0.250000X-0.225000X-0.250000X0.225000X-0.250000X0*%
%ADD14RoundRect,0.225000X-0.225000X-0.250000X0.225000X-0.250000X0.225000X0.250000X-0.225000X0.250000X0*%
%ADD15RoundRect,0.150000X0.150000X0.200000X-0.150000X0.200000X-0.150000X-0.200000X0.150000X-0.200000X0*%
%ADD16RoundRect,0.218750X-0.256250X0.218750X-0.256250X-0.218750X0.256250X-0.218750X0.256250X0.218750X0*%
%ADD17RoundRect,0.200000X-0.200000X-0.275000X0.200000X-0.275000X0.200000X0.275000X-0.200000X0.275000X0*%
%ADD18RoundRect,0.200000X0.275000X-0.200000X0.275000X0.200000X-0.275000X0.200000X-0.275000X-0.200000X0*%
%ADD19R,0.800000X0.400000*%
%ADD20R,0.400000X0.800000*%
%ADD21R,1.450000X1.450000*%
%ADD22R,0.700000X0.700000*%
%ADD23RoundRect,0.225000X-0.250000X0.225000X-0.250000X-0.225000X0.250000X-0.225000X0.250000X0.225000X0*%
%ADD24RoundRect,0.150000X-0.150000X-0.200000X0.150000X-0.200000X0.150000X0.200000X-0.150000X0.200000X0*%
%ADD25RoundRect,0.200000X0.200000X0.275000X-0.200000X0.275000X-0.200000X-0.275000X0.200000X-0.275000X0*%
%ADD26RoundRect,0.225000X0.250000X-0.225000X0.250000X0.225000X-0.250000X0.225000X-0.250000X-0.225000X0*%
%ADD27R,0.280000X1.130000*%
%ADD28R,0.230000X1.130000*%
%ADD29RoundRect,0.250000X1.500000X-0.250000X1.500000X0.250000X-1.500000X0.250000X-1.500000X-0.250000X0*%
%ADD30RoundRect,0.250001X1.449999X-0.499999X1.449999X0.499999X-1.449999X0.499999X-1.449999X-0.499999X0*%
%ADD31RoundRect,0.150000X0.150000X-0.512500X0.150000X0.512500X-0.150000X0.512500X-0.150000X-0.512500X0*%
%ADD32R,0.820000X0.630000*%
%ADD33R,0.650000X0.350000*%
G04 APERTURE END LIST*
D10*
%TO.C,U4*%
X4700000Y22100000D03*
X3900000Y22100000D03*
D11*
X4950000Y23150000D03*
X4300000Y23150000D03*
X3650000Y23150000D03*
X3650000Y21050000D03*
X4300000Y21050000D03*
X4950000Y21050000D03*
%TD*%
D12*
%TO.C,R7*%
X16122000Y40562000D03*
X16122000Y38912000D03*
%TD*%
D13*
%TO.C,C4*%
X7475000Y8800000D03*
X5925000Y8800000D03*
%TD*%
D14*
%TO.C,C1*%
X15150000Y14625000D03*
X16700000Y14625000D03*
%TD*%
D15*
%TO.C,D1*%
X12800000Y42000000D03*
X14200000Y42000000D03*
%TD*%
D14*
%TO.C,C5*%
X4225000Y10300000D03*
X5775000Y10300000D03*
%TD*%
D16*
%TO.C,D5*%
X3150000Y6787500D03*
X3150000Y5212500D03*
%TD*%
D14*
%TO.C,C2*%
X15325000Y20325000D03*
X16875000Y20325000D03*
%TD*%
D17*
%TO.C,R4*%
X19105000Y10004000D03*
X20755000Y10004000D03*
%TD*%
D18*
%TO.C,R10*%
X15487000Y31927000D03*
X15487000Y33577000D03*
%TD*%
D12*
%TO.C,R1*%
X7850000Y23075000D03*
X7850000Y21425000D03*
%TD*%
D19*
%TO.C,U2*%
X11200000Y54500000D03*
X11200000Y53700000D03*
X11200000Y52900000D03*
X11200000Y52100000D03*
X11200000Y51300000D03*
X11200000Y50500000D03*
X11200000Y49700000D03*
X11200000Y48900000D03*
X11200000Y48100000D03*
X11200000Y47300000D03*
X11200000Y46500000D03*
D20*
X12300000Y45600000D03*
X13100000Y45600000D03*
X13900000Y45600000D03*
X14700000Y45600000D03*
X15500000Y45600000D03*
X16300000Y45600000D03*
X17100000Y45600000D03*
X17900000Y45600000D03*
X18700000Y45600000D03*
X19500000Y45600000D03*
X20300000Y45600000D03*
X21100000Y45600000D03*
X21900000Y45600000D03*
D19*
X23000000Y46500000D03*
X23000000Y47300000D03*
X23000000Y48100000D03*
X23000000Y48900000D03*
X23000000Y49700000D03*
X23000000Y50500000D03*
X23000000Y51300000D03*
X23000000Y52100000D03*
X23000000Y52900000D03*
X23000000Y53700000D03*
X23000000Y54500000D03*
D20*
X21900000Y55400000D03*
X21100000Y55400000D03*
X20300000Y55400000D03*
X19500000Y55400000D03*
X18700000Y55400000D03*
X17900000Y55400000D03*
X17100000Y55400000D03*
X16300000Y55400000D03*
X15500000Y55400000D03*
X14700000Y55400000D03*
X13900000Y55400000D03*
X13100000Y55400000D03*
X12300000Y55400000D03*
D21*
X15125000Y52475000D03*
X15125000Y50500000D03*
X15125000Y48525000D03*
X17100000Y52475000D03*
X17100000Y50500000D03*
X17100000Y48525000D03*
X19075000Y52475000D03*
X19075000Y50500000D03*
X19075000Y48525000D03*
D22*
X23050000Y55450000D03*
X23050000Y45550000D03*
X11150000Y45550000D03*
X11150000Y55450000D03*
%TD*%
D17*
%TO.C,R13*%
X21275000Y43900000D03*
X22925000Y43900000D03*
%TD*%
D12*
%TO.C,R14*%
X15487000Y24433000D03*
X15487000Y22783000D03*
%TD*%
D23*
%TO.C,C7*%
X15487000Y30479000D03*
X15487000Y28929000D03*
%TD*%
D24*
%TO.C,D4*%
X11500000Y42000000D03*
X10100000Y42000000D03*
%TD*%
D23*
%TO.C,C6*%
X14598000Y40499000D03*
X14598000Y38949000D03*
%TD*%
D12*
%TO.C,R3*%
X6650000Y4825000D03*
X6650000Y3175000D03*
%TD*%
D18*
%TO.C,R6*%
X15614000Y41960000D03*
X15614000Y43610000D03*
%TD*%
%TO.C,R15*%
X17011000Y25831000D03*
X17011000Y27481000D03*
%TD*%
D25*
%TO.C,R8*%
X12756000Y36943000D03*
X11106000Y36943000D03*
%TD*%
D12*
%TO.C,R12*%
X9600000Y51325000D03*
X9600000Y49675000D03*
%TD*%
D26*
%TO.C,C8*%
X15487000Y25881000D03*
X15487000Y27431000D03*
%TD*%
D15*
%TO.C,D2*%
X12800000Y30847000D03*
X14200000Y30847000D03*
%TD*%
D18*
%TO.C,R9*%
X6600000Y49675000D03*
X6600000Y51325000D03*
%TD*%
D27*
%TO.C,USB-C1*%
X13775000Y8332000D03*
X14575000Y8332000D03*
D28*
X15850000Y8332000D03*
X16850000Y8332000D03*
X17350000Y8332000D03*
X18350000Y8332000D03*
D27*
X19625000Y8332000D03*
X20425000Y8332000D03*
X20175000Y8332000D03*
X19375000Y8332000D03*
D28*
X18850000Y8332000D03*
X17850000Y8332000D03*
X16350000Y8332000D03*
X15350000Y8332000D03*
D27*
X14825000Y8332000D03*
X14025000Y8332000D03*
%TD*%
D15*
%TO.C,D3*%
X12755000Y25132000D03*
X14155000Y25132000D03*
%TD*%
D23*
%TO.C,C3*%
X6350000Y23025000D03*
X6350000Y21475000D03*
%TD*%
D25*
%TO.C,R5*%
X15421000Y9897000D03*
X13771000Y9897000D03*
%TD*%
D29*
%TO.C,J1*%
X4550000Y14750000D03*
X4550000Y16750000D03*
D30*
X10300000Y12400000D03*
X10300000Y19100000D03*
%TD*%
D12*
%TO.C,R11*%
X17011000Y30529000D03*
X17011000Y28879000D03*
%TD*%
D26*
%TO.C,C9*%
X8100000Y49725000D03*
X8100000Y51275000D03*
%TD*%
D31*
%TO.C,U1*%
X15200000Y16350000D03*
X16150000Y16350000D03*
X17100000Y16350000D03*
X17100000Y18625000D03*
X15200000Y18625000D03*
%TD*%
D18*
%TO.C,R2*%
X8250000Y3975000D03*
X8250000Y5625000D03*
%TD*%
D32*
%TO.C,U3*%
X5650000Y6400000D03*
X5650000Y7200000D03*
D33*
X6700000Y6150000D03*
X6700000Y6800000D03*
X6700000Y7450000D03*
X4600000Y7450000D03*
X4600000Y6800000D03*
X4600000Y6150000D03*
%TD*%
M02*
