%TF.GenerationSoftware,KiCad,Pcbnew,7.0.6*%
%TF.CreationDate,2023-07-26T13:56:52+01:00*%
%TF.ProjectId,Rapid Remote,52617069-6420-4526-956d-6f74652e6b69,rev?*%
%TF.SameCoordinates,PX8044ea0PY76ec560*%
%TF.FileFunction,Copper,L1,Top*%
%TF.FilePolarity,Positive*%
%FSLAX46Y46*%
G04 Gerber Fmt 4.6, Leading zero omitted, Abs format (unit mm)*
G04 Created by KiCad (PCBNEW 7.0.6) date 2023-07-26 13:56:52*
%MOMM*%
%LPD*%
G01*
G04 APERTURE LIST*
G04 Aperture macros list*
%AMRoundRect*
0 Rectangle with rounded corners*
0 $1 Rounding radius*
0 $2 $3 $4 $5 $6 $7 $8 $9 X,Y pos of 4 corners*
0 Add a 4 corners polygon primitive as box body*
4,1,4,$2,$3,$4,$5,$6,$7,$8,$9,$2,$3,0*
0 Add four circle primitives for the rounded corners*
1,1,$1+$1,$2,$3*
1,1,$1+$1,$4,$5*
1,1,$1+$1,$6,$7*
1,1,$1+$1,$8,$9*
0 Add four rect primitives between the rounded corners*
20,1,$1+$1,$2,$3,$4,$5,0*
20,1,$1+$1,$4,$5,$6,$7,0*
20,1,$1+$1,$6,$7,$8,$9,0*
20,1,$1+$1,$8,$9,$2,$3,0*%
G04 Aperture macros list end*
%TA.AperFunction,SMDPad,CuDef*%
%ADD10RoundRect,0.135000X-0.185000X0.135000X-0.185000X-0.135000X0.185000X-0.135000X0.185000X0.135000X0*%
%TD*%
%TA.AperFunction,SMDPad,CuDef*%
%ADD11RoundRect,0.225000X-0.225000X-0.250000X0.225000X-0.250000X0.225000X0.250000X-0.225000X0.250000X0*%
%TD*%
%TA.AperFunction,SMDPad,CuDef*%
%ADD12RoundRect,0.150000X0.150000X0.200000X-0.150000X0.200000X-0.150000X-0.200000X0.150000X-0.200000X0*%
%TD*%
%TA.AperFunction,SMDPad,CuDef*%
%ADD13RoundRect,0.225000X0.250000X-0.225000X0.250000X0.225000X-0.250000X0.225000X-0.250000X-0.225000X0*%
%TD*%
%TA.AperFunction,SMDPad,CuDef*%
%ADD14RoundRect,0.135000X0.185000X-0.135000X0.185000X0.135000X-0.185000X0.135000X-0.185000X-0.135000X0*%
%TD*%
%TA.AperFunction,SMDPad,CuDef*%
%ADD15R,0.800000X0.400000*%
%TD*%
%TA.AperFunction,SMDPad,CuDef*%
%ADD16R,0.400000X0.800000*%
%TD*%
%TA.AperFunction,SMDPad,CuDef*%
%ADD17R,1.450000X1.450000*%
%TD*%
%TA.AperFunction,SMDPad,CuDef*%
%ADD18R,0.700000X0.700000*%
%TD*%
%TA.AperFunction,SMDPad,CuDef*%
%ADD19RoundRect,0.140000X-0.170000X0.140000X-0.170000X-0.140000X0.170000X-0.140000X0.170000X0.140000X0*%
%TD*%
%TA.AperFunction,SMDPad,CuDef*%
%ADD20RoundRect,0.150000X-0.150000X-0.200000X0.150000X-0.200000X0.150000X0.200000X-0.150000X0.200000X0*%
%TD*%
%TA.AperFunction,SMDPad,CuDef*%
%ADD21RoundRect,0.135000X0.135000X0.185000X-0.135000X0.185000X-0.135000X-0.185000X0.135000X-0.185000X0*%
%TD*%
%TA.AperFunction,SMDPad,CuDef*%
%ADD22RoundRect,0.218750X-0.218750X-0.256250X0.218750X-0.256250X0.218750X0.256250X-0.218750X0.256250X0*%
%TD*%
%TA.AperFunction,SMDPad,CuDef*%
%ADD23RoundRect,0.140000X0.170000X-0.140000X0.170000X0.140000X-0.170000X0.140000X-0.170000X-0.140000X0*%
%TD*%
%TA.AperFunction,ConnectorPad*%
%ADD24R,2.200000X1.100000*%
%TD*%
%TA.AperFunction,ComponentPad*%
%ADD25O,2.200000X1.200000*%
%TD*%
%TA.AperFunction,ConnectorPad*%
%ADD26R,2.000000X1.100000*%
%TD*%
%TA.AperFunction,ComponentPad*%
%ADD27O,2.000000X1.300000*%
%TD*%
%TA.AperFunction,SMDPad,CuDef*%
%ADD28R,1.150000X0.300000*%
%TD*%
%TA.AperFunction,SMDPad,CuDef*%
%ADD29R,1.150000X0.250000*%
%TD*%
%TA.AperFunction,SMDPad,CuDef*%
%ADD30RoundRect,0.150000X0.512500X0.150000X-0.512500X0.150000X-0.512500X-0.150000X0.512500X-0.150000X0*%
%TD*%
%TA.AperFunction,SMDPad,CuDef*%
%ADD31R,5.700000X6.100000*%
%TD*%
%TA.AperFunction,ConnectorPad*%
%ADD32C,17.800000*%
%TD*%
%TA.AperFunction,ViaPad*%
%ADD33C,0.800000*%
%TD*%
%TA.AperFunction,Conductor*%
%ADD34C,0.508000*%
%TD*%
%TA.AperFunction,Conductor*%
%ADD35C,0.250000*%
%TD*%
%TA.AperFunction,Conductor*%
%ADD36C,0.254000*%
%TD*%
%TA.AperFunction,Conductor*%
%ADD37C,0.600000*%
%TD*%
%TA.AperFunction,Conductor*%
%ADD38C,0.200000*%
%TD*%
%TA.AperFunction,Conductor*%
%ADD39C,1.000000*%
%TD*%
G04 APERTURE END LIST*
D10*
%TO.P,R7,1,1*%
%TO.N,8S*%
X16400000Y41720000D03*
%TO.P,R7,2,2*%
%TO.N,GND*%
X16400000Y40700000D03*
%TD*%
D11*
%TO.P,C1,1*%
%TO.N,+3V0*%
X3155000Y15400000D03*
%TO.P,C1,2*%
%TO.N,GND*%
X4705000Y15400000D03*
%TD*%
D12*
%TO.P,D1,1,K*%
%TO.N,EN_LDO*%
X12800000Y42000000D03*
%TO.P,D1,2,A*%
%TO.N,8S*%
X14200000Y42000000D03*
%TD*%
D13*
%TO.P,C2,1*%
%TO.N,+3V3*%
X1100000Y20825000D03*
%TO.P,C2,2*%
%TO.N,GND*%
X1100000Y22375000D03*
%TD*%
D14*
%TO.P,R4,1*%
%TO.N,Net-(USB-C1-CC2)*%
X23722000Y33542200D03*
%TO.P,R4,2*%
%TO.N,GND*%
X23722000Y34562200D03*
%TD*%
%TO.P,R10,1,1*%
%TO.N,6S*%
X15300000Y32590000D03*
%TO.P,R10,2,2*%
%TO.N,Net-(s6-1)*%
X15300000Y33610000D03*
%TD*%
D15*
%TO.P,U2,1,GND*%
%TO.N,GND*%
X11200000Y54500000D03*
%TO.P,U2,2,GND*%
X11200000Y53700000D03*
%TO.P,U2,3,3V3*%
%TO.N,+3V3*%
X11200000Y52900000D03*
%TO.P,U2,4,NC*%
%TO.N,unconnected-(U2-NC-Pad4)*%
X11200000Y52100000D03*
%TO.P,U2,5,IO2/GPIO2/ADC1_CH2/FSPIQ*%
%TO.N,unconnected-(U2-IO2{slash}GPIO2{slash}ADC1_CH2{slash}FSPIQ-Pad5)*%
X11200000Y51300000D03*
%TO.P,U2,6,IO3/GPIO3/ADC1_CH3*%
%TO.N,LATCH*%
X11200000Y50500000D03*
%TO.P,U2,7,NC*%
%TO.N,unconnected-(U2-NC-Pad7)*%
X11200000Y49700000D03*
%TO.P,U2,8,EN*%
%TO.N,+3V3*%
X11200000Y48900000D03*
%TO.P,U2,9,NC*%
%TO.N,unconnected-(U2-NC-Pad9)*%
X11200000Y48100000D03*
%TO.P,U2,10,NC*%
%TO.N,unconnected-(U2-NC-Pad10)*%
X11200000Y47300000D03*
%TO.P,U2,11,GND*%
%TO.N,GND*%
X11200000Y46500000D03*
D16*
%TO.P,U2,12,IO0/GPIO0/ADC1_CH0/XTAL_32K_P*%
%TO.N,unconnected-(U2-IO0{slash}GPIO0{slash}ADC1_CH0{slash}XTAL_32K_P-Pad12)*%
X12300000Y45600000D03*
%TO.P,U2,13,IO1/GPIO1/ADC1_CH1/XTAL_32K_N*%
%TO.N,unconnected-(U2-IO1{slash}GPIO1{slash}ADC1_CH1{slash}XTAL_32K_N-Pad13)*%
X13100000Y45600000D03*
%TO.P,U2,14,GND*%
%TO.N,GND*%
X13900000Y45600000D03*
%TO.P,U2,15,NC*%
%TO.N,unconnected-(U2-NC-Pad15)*%
X14700000Y45600000D03*
%TO.P,U2,16,IO10/GPIO10/FSPICS0*%
%TO.N,unconnected-(U2-IO10{slash}GPIO10{slash}FSPICS0-Pad16)*%
X15500000Y45600000D03*
%TO.P,U2,17,NC*%
%TO.N,unconnected-(U2-NC-Pad17)*%
X16300000Y45600000D03*
%TO.P,U2,18,IO4/GPIO4/ADC1_CH4/FSPIHD/MTMS*%
%TO.N,unconnected-(U2-IO4{slash}GPIO4{slash}ADC1_CH4{slash}FSPIHD{slash}MTMS-Pad18)*%
X17100000Y45600000D03*
%TO.P,U2,19,IO5/GPIO5/ADC2_CH0/FSPIWP/MTDI*%
%TO.N,unconnected-(U2-IO5{slash}GPIO5{slash}ADC2_CH0{slash}FSPIWP{slash}MTDI-Pad19)*%
X17900000Y45600000D03*
%TO.P,U2,20,IO6/GPIO6/FSPICLK/MTCK*%
%TO.N,8S*%
X18700000Y45600000D03*
%TO.P,U2,21,IO7/GPIO7/FSPID/MTDO*%
%TO.N,6S*%
X19500000Y45600000D03*
%TO.P,U2,22,IO8/GPIO8*%
%TO.N,4S*%
X20300000Y45600000D03*
%TO.P,U2,23,IO9/GPIO9*%
%TO.N,unconnected-(U2-IO9{slash}GPIO9-Pad23)*%
X21100000Y45600000D03*
%TO.P,U2,24,NC*%
%TO.N,unconnected-(U2-NC-Pad24)*%
X21900000Y45600000D03*
D15*
%TO.P,U2,25,NC*%
%TO.N,unconnected-(U2-NC-Pad25)*%
X23000000Y46500000D03*
%TO.P,U2,26,IO18/GPIO18/USB_D-*%
%TO.N,USB_D-*%
X23000000Y47300000D03*
%TO.P,U2,27,IO19/GPIO19/USB_D+*%
%TO.N,USB_D+*%
X23000000Y48100000D03*
%TO.P,U2,28,NC*%
%TO.N,unconnected-(U2-NC-Pad28)*%
X23000000Y48900000D03*
%TO.P,U2,29,NC*%
%TO.N,unconnected-(U2-NC-Pad29)*%
X23000000Y49700000D03*
%TO.P,U2,30,RXD0/GPIO20/U0RXD*%
%TO.N,unconnected-(U2-RXD0{slash}GPIO20{slash}U0RXD-Pad30)*%
X23000000Y50500000D03*
%TO.P,U2,31,TXD0/GPIO21/U0TXD*%
%TO.N,unconnected-(U2-TXD0{slash}GPIO21{slash}U0TXD-Pad31)*%
X23000000Y51300000D03*
%TO.P,U2,32,NC*%
%TO.N,unconnected-(U2-NC-Pad32)*%
X23000000Y52100000D03*
%TO.P,U2,33,NC*%
%TO.N,unconnected-(U2-NC-Pad33)*%
X23000000Y52900000D03*
%TO.P,U2,34,NC*%
%TO.N,unconnected-(U2-NC-Pad34)*%
X23000000Y53700000D03*
%TO.P,U2,35,NC*%
%TO.N,unconnected-(U2-NC-Pad35)*%
X23000000Y54500000D03*
D16*
%TO.P,U2,36,GND*%
%TO.N,GND*%
X21900000Y55400000D03*
%TO.P,U2,37,GND*%
X21100000Y55400000D03*
%TO.P,U2,38,GND*%
X20300000Y55400000D03*
%TO.P,U2,39,GND*%
X19500000Y55400000D03*
%TO.P,U2,40,GND*%
X18700000Y55400000D03*
%TO.P,U2,41,GND*%
X17900000Y55400000D03*
%TO.P,U2,42,GND*%
X17100000Y55400000D03*
%TO.P,U2,43,GND*%
X16300000Y55400000D03*
%TO.P,U2,44,GND*%
X15500000Y55400000D03*
%TO.P,U2,45,GND*%
X14700000Y55400000D03*
%TO.P,U2,46,GND*%
X13900000Y55400000D03*
%TO.P,U2,47,GND*%
X13100000Y55400000D03*
%TO.P,U2,48,GND*%
X12300000Y55400000D03*
D17*
%TO.P,U2,49,GND*%
X15125000Y52475000D03*
X15125000Y50500000D03*
X15125000Y48525000D03*
X17100000Y52475000D03*
X17100000Y50500000D03*
X17100000Y48525000D03*
X19075000Y52475000D03*
X19075000Y50500000D03*
X19075000Y48525000D03*
D18*
%TO.P,U2,50,GND*%
X23050000Y55450000D03*
%TO.P,U2,51,GND*%
X23050000Y45550000D03*
%TO.P,U2,52,GND*%
X11150000Y45550000D03*
%TO.P,U2,53,GND*%
X11150000Y55450000D03*
%TD*%
D10*
%TO.P,R14,1,1*%
%TO.N,4S*%
X15300000Y24610000D03*
%TO.P,R14,2,2*%
%TO.N,Net-(s4-1)*%
X15300000Y23590000D03*
%TD*%
D19*
%TO.P,C7,1*%
%TO.N,6S*%
X15300000Y31680000D03*
%TO.P,C7,2*%
%TO.N,GND*%
X15300000Y30720000D03*
%TD*%
D20*
%TO.P,D4,1,K*%
%TO.N,EN_LDO*%
X11500000Y42000000D03*
%TO.P,D4,2,A*%
%TO.N,LATCH*%
X10100000Y42000000D03*
%TD*%
D19*
%TO.P,C6,1*%
%TO.N,8S*%
X15300000Y41660000D03*
%TO.P,C6,2*%
%TO.N,GND*%
X15300000Y40700000D03*
%TD*%
D14*
%TO.P,R6,1,1*%
%TO.N,8S*%
X15300000Y42590000D03*
%TO.P,R6,2,2*%
%TO.N,Net-(s8-1)*%
X15300000Y43610000D03*
%TD*%
%TO.P,R15,1,1*%
%TO.N,4S*%
X16300000Y25490000D03*
%TO.P,R15,2,2*%
%TO.N,GND*%
X16300000Y26510000D03*
%TD*%
D21*
%TO.P,R8,1,1*%
%TO.N,EN_LDO*%
X12810000Y39100000D03*
%TO.P,R8,2,2*%
%TO.N,GND*%
X11790000Y39100000D03*
%TD*%
D22*
%TO.P,L1,1,1*%
%TO.N,+3V0*%
X3142500Y17000000D03*
%TO.P,L1,2,2*%
%TO.N,Net-(U1-SW)*%
X4717500Y17000000D03*
%TD*%
D23*
%TO.P,C8,1*%
%TO.N,4S*%
X15300000Y25520000D03*
%TO.P,C8,2*%
%TO.N,GND*%
X15300000Y26480000D03*
%TD*%
D12*
%TO.P,D2,1,K*%
%TO.N,EN_LDO*%
X12800000Y32500000D03*
%TO.P,D2,2,A*%
%TO.N,6S*%
X14200000Y32500000D03*
%TD*%
D14*
%TO.P,R9,1,1*%
%TO.N,LATCH*%
X9800000Y50490000D03*
%TO.P,R9,2,2*%
%TO.N,GND*%
X9800000Y51510000D03*
%TD*%
D24*
%TO.P,USB-C1,0,SHELL*%
%TO.N,GND*%
X26570000Y36627600D03*
D25*
X26570000Y36020000D03*
X26570000Y27380000D03*
D24*
X26570000Y26772400D03*
D26*
X30750000Y36627600D03*
D27*
X30750000Y36020000D03*
X30750000Y27380000D03*
D26*
X30750000Y26772400D03*
D28*
%TO.P,USB-C1,A1,GND*%
X25668000Y28375000D03*
%TO.P,USB-C1,A4,VBUS*%
%TO.N,+5V*%
X25668000Y29175000D03*
D29*
%TO.P,USB-C1,A5,CC1*%
%TO.N,Net-(USB-C1-CC1)*%
X25668000Y30450000D03*
%TO.P,USB-C1,A6,DP1*%
%TO.N,USB_D+*%
X25668000Y31450000D03*
%TO.P,USB-C1,A7,DN1*%
%TO.N,USB_D-*%
X25668000Y31950000D03*
%TO.P,USB-C1,A8,SBU1*%
%TO.N,unconnected-(USB-C1-SBU1-PadA8)*%
X25668000Y32950000D03*
D28*
%TO.P,USB-C1,A9,VBUS*%
%TO.N,+5V*%
X25668000Y34225000D03*
%TO.P,USB-C1,A12,GND*%
%TO.N,GND*%
X25668000Y35025000D03*
%TO.P,USB-C1,B1,GND*%
X25668000Y34775000D03*
%TO.P,USB-C1,B4,VBUS*%
%TO.N,+5V*%
X25668000Y33975000D03*
D29*
%TO.P,USB-C1,B5,CC2*%
%TO.N,Net-(USB-C1-CC2)*%
X25668000Y33450000D03*
%TO.P,USB-C1,B6,DP2*%
%TO.N,USB_D+*%
X25668000Y32450000D03*
%TO.P,USB-C1,B7,DN2*%
%TO.N,USB_D-*%
X25668000Y30950000D03*
%TO.P,USB-C1,B8,SBU2*%
%TO.N,unconnected-(USB-C1-SBU2-PadB8)*%
X25668000Y29950000D03*
D28*
%TO.P,USB-C1,B9,VBUS*%
%TO.N,+5V*%
X25668000Y29425000D03*
%TO.P,USB-C1,B12,GND*%
%TO.N,GND*%
X25668000Y28625000D03*
%TD*%
D12*
%TO.P,D3,1,K*%
%TO.N,EN_LDO*%
X12800000Y25500000D03*
%TO.P,D3,2,A*%
%TO.N,4S*%
X14200000Y25500000D03*
%TD*%
D10*
%TO.P,R5,1*%
%TO.N,Net-(USB-C1-CC1)*%
X24103000Y29837800D03*
%TO.P,R5,2*%
%TO.N,GND*%
X24103000Y28817800D03*
%TD*%
%TO.P,R11,1,1*%
%TO.N,6S*%
X16400000Y31710000D03*
%TO.P,R11,2,2*%
%TO.N,GND*%
X16400000Y30690000D03*
%TD*%
D30*
%TO.P,U1,1,SW*%
%TO.N,Net-(U1-SW)*%
X5075000Y18600000D03*
%TO.P,U1,2,GND*%
%TO.N,GND*%
X5075000Y19550000D03*
%TO.P,U1,3,EN*%
%TO.N,EN_LDO*%
X5075000Y20500000D03*
%TO.P,U1,4,NC*%
%TO.N,unconnected-(U1-NC-Pad4)*%
X2800000Y20500000D03*
%TO.P,U1,5,VOUT*%
%TO.N,+3V3*%
X2800000Y19550000D03*
%TO.P,U1,6,VCC*%
%TO.N,+3V0*%
X2800000Y18600000D03*
%TD*%
D31*
%TO.P,BT1,1,+*%
%TO.N,+3V0*%
X4200000Y10200000D03*
X30000000Y10200000D03*
D32*
%TO.P,BT1,2,-*%
%TO.N,GND*%
X17100000Y10200000D03*
%TD*%
D33*
%TO.N,+3V3*%
X10100000Y48900000D03*
X9900000Y52900000D03*
X1300000Y19600000D03*
%TO.N,Net-(s8-1)*%
X16700000Y43600000D03*
%TO.N,Net-(s6-1)*%
X17000000Y33600000D03*
%TO.N,Net-(s4-1)*%
X17100000Y23600000D03*
%TO.N,USB_D-*%
X24052200Y32198000D03*
X23987860Y46817572D03*
%TO.N,USB_D+*%
X24500000Y47700000D03*
X24091385Y31199266D03*
%TO.N,+3V0*%
X29700000Y13700000D03*
X1800000Y6700000D03*
X33300000Y7600000D03*
X30600000Y6700000D03*
X31500000Y6700000D03*
X32400000Y13700000D03*
X1800000Y13700000D03*
X33300000Y6700000D03*
X900000Y8500000D03*
X28800000Y6700000D03*
X900000Y9400000D03*
X27900000Y13700000D03*
X32400000Y6700000D03*
X900000Y11900000D03*
X3600000Y13700000D03*
X4500000Y6700000D03*
X28800000Y13700000D03*
X5400000Y6700000D03*
X29700000Y6700000D03*
X27900000Y6700000D03*
X2700000Y13700000D03*
X900000Y11000000D03*
X33300000Y11000000D03*
X33300000Y9400000D03*
X31500000Y13700000D03*
X900000Y13700000D03*
X5400000Y13700000D03*
X900000Y7600000D03*
X3600000Y6700000D03*
X30600000Y13700000D03*
X33300000Y8500000D03*
X900000Y6700000D03*
X4500000Y13700000D03*
X6300000Y6700000D03*
X6300000Y13700000D03*
X33300000Y12800000D03*
X900000Y12800000D03*
X33300000Y13700000D03*
X2700000Y6700000D03*
X33300000Y11900000D03*
%TD*%
D34*
%TO.N,+5V*%
X27314000Y30239500D02*
X27314000Y33224000D01*
D35*
X25668000Y29425000D02*
X25668000Y29175000D01*
D36*
X25668000Y34225000D02*
X26313000Y34225000D01*
D34*
X27314000Y30176000D02*
X26425000Y29287000D01*
X26425000Y29287000D02*
X26044000Y29287000D01*
X27314000Y33224000D02*
X26425000Y34113000D01*
D36*
X25668000Y33975000D02*
X26287000Y33975000D01*
D35*
%TO.N,EN_LDO*%
X10050000Y21650000D02*
X12800000Y24400000D01*
X12800000Y42000000D02*
X11500000Y42000000D01*
X5075000Y20500000D02*
X8900000Y20500000D01*
X12800000Y25500000D02*
X12800000Y32500000D01*
X8900000Y20500000D02*
X10050000Y21650000D01*
X12800000Y42000000D02*
X12800000Y32500000D01*
X12800000Y24400000D02*
X12800000Y25500000D01*
%TO.N,8S*%
X17520000Y41720000D02*
X18700000Y42900000D01*
X18700000Y42900000D02*
X18700000Y45600000D01*
X16400000Y41720000D02*
X17520000Y41720000D01*
%TO.N,6S*%
X17410000Y31710000D02*
X19500000Y33800000D01*
X19500000Y33800000D02*
X19500000Y45600000D01*
X16400000Y31710000D02*
X17410000Y31710000D01*
%TO.N,4S*%
X20300000Y26600000D02*
X20300000Y45600000D01*
X16300000Y25490000D02*
X19190000Y25490000D01*
X19190000Y25490000D02*
X20300000Y26600000D01*
%TO.N,LATCH*%
X9375000Y50065000D02*
X9375000Y42425000D01*
X9800000Y50490000D02*
X9375000Y50065000D01*
X9800000Y42000000D02*
X10100000Y42000000D01*
X9375000Y42425000D02*
X9800000Y42000000D01*
X11200000Y50500000D02*
X9810000Y50500000D01*
X9810000Y50500000D02*
X9800000Y50490000D01*
%TO.N,Net-(USB-C1-CC2)*%
X23810200Y33454000D02*
X23722000Y33542200D01*
X25675800Y33454000D02*
X23810200Y33454000D01*
%TO.N,Net-(USB-C1-CC1)*%
X25675800Y30454000D02*
X24719200Y30454000D01*
X24719200Y30454000D02*
X24103000Y29837800D01*
%TO.N,+3V3*%
X11200000Y48900000D02*
X10100000Y48900000D01*
X1350000Y19550000D02*
X1300000Y19600000D01*
D37*
X2800000Y19550000D02*
X1350000Y19550000D01*
X1300000Y19600000D02*
X1300000Y20507500D01*
D35*
X11200000Y52900000D02*
X9900000Y52900000D01*
%TO.N,Net-(s8-1)*%
X15300000Y43610000D02*
X16690000Y43610000D01*
X16690000Y43610000D02*
X16700000Y43600000D01*
%TO.N,Net-(s6-1)*%
X15300000Y33610000D02*
X16990000Y33610000D01*
X16990000Y33610000D02*
X17000000Y33600000D01*
%TO.N,Net-(s4-1)*%
X17090000Y23610000D02*
X17100000Y23600000D01*
X15300000Y23610000D02*
X17090000Y23610000D01*
D38*
%TO.N,USB_D-*%
X26566800Y31045000D02*
X26566800Y31863000D01*
X25675800Y30954000D02*
X26475800Y30954000D01*
X24052200Y32198000D02*
X24296200Y31954000D01*
X23505432Y47300000D02*
X23000000Y47300000D01*
X26475800Y31954000D02*
X25675800Y31954000D01*
X26566800Y31863000D02*
X26475800Y31954000D01*
X26475800Y30954000D02*
X26566800Y31045000D01*
X23987860Y46817572D02*
X23505432Y47300000D01*
X24296200Y31954000D02*
X25675800Y31954000D01*
%TO.N,USB_D+*%
X23762250Y32898000D02*
X23352200Y32487950D01*
X23352200Y32487950D02*
X23352200Y31908050D01*
X24060984Y31199266D02*
X24091385Y31199266D01*
X24342150Y32898000D02*
X23762250Y32898000D01*
X24100000Y48100000D02*
X23000000Y48100000D01*
X24346119Y31454000D02*
X24091385Y31199266D01*
X24500000Y47700000D02*
X24100000Y48100000D01*
X25675800Y32454000D02*
X24786150Y32454000D01*
X24786150Y32454000D02*
X24342150Y32898000D01*
X23352200Y31908050D02*
X24060984Y31199266D01*
X25675800Y31454000D02*
X24346119Y31454000D01*
D39*
%TO.N,Net-(U1-SW)*%
X5025000Y18550000D02*
X5075000Y18550000D01*
X4725000Y18250000D02*
X5025000Y18550000D01*
X4725000Y17000000D02*
X4725000Y18250000D01*
%TD*%
%TA.AperFunction,Conductor*%
%TO.N,6S*%
G36*
X16643039Y32880315D02*
G01*
X16688794Y32827511D01*
X16700000Y32776000D01*
X16700000Y31524000D01*
X16680315Y31456961D01*
X16627511Y31411206D01*
X16576000Y31400000D01*
X14024000Y31400000D01*
X13956961Y31419685D01*
X13911206Y31472489D01*
X13900000Y31524000D01*
X13900000Y32776000D01*
X13919685Y32843039D01*
X13972489Y32888794D01*
X14024000Y32900000D01*
X16576000Y32900000D01*
X16643039Y32880315D01*
G37*
%TD.AperFunction*%
%TD*%
%TA.AperFunction,Conductor*%
%TO.N,4S*%
G36*
X16543039Y25880315D02*
G01*
X16588794Y25827511D01*
X16600000Y25776000D01*
X16600000Y24424000D01*
X16580315Y24356961D01*
X16527511Y24311206D01*
X16476000Y24300000D01*
X14024000Y24300000D01*
X13956961Y24319685D01*
X13911206Y24372489D01*
X13900000Y24424000D01*
X13900000Y25776000D01*
X13919685Y25843039D01*
X13972489Y25888794D01*
X14024000Y25900000D01*
X16476000Y25900000D01*
X16543039Y25880315D01*
G37*
%TD.AperFunction*%
%TD*%
%TA.AperFunction,Conductor*%
%TO.N,+3V0*%
G36*
X3543039Y18880315D02*
G01*
X3588794Y18827511D01*
X3600000Y18776001D01*
X3600000Y12900000D01*
X2100000Y12900000D01*
X2100000Y18776001D01*
X2119685Y18843039D01*
X2172489Y18888794D01*
X2224000Y18900000D01*
X3476000Y18900000D01*
X3543039Y18880315D01*
G37*
%TD.AperFunction*%
%TD*%
%TA.AperFunction,Conductor*%
%TO.N,+3V0*%
G36*
X2100000Y12900000D02*
G01*
X3600000Y12900000D01*
X3600000Y14100000D01*
X6976000Y14100000D01*
X7043039Y14080315D01*
X7088794Y14027511D01*
X7100000Y13976000D01*
X7100000Y6424000D01*
X7080315Y6356961D01*
X7027511Y6311206D01*
X6976000Y6300000D01*
X624000Y6300000D01*
X556961Y6319685D01*
X511206Y6372489D01*
X500000Y6424000D01*
X500000Y13976000D01*
X519685Y14043039D01*
X572489Y14088794D01*
X624000Y14100000D01*
X2100000Y14100000D01*
X2100000Y12900000D01*
G37*
%TD.AperFunction*%
%TD*%
%TA.AperFunction,Conductor*%
%TO.N,GND*%
G36*
X33842539Y55779815D02*
G01*
X33888294Y55727011D01*
X33899500Y55675500D01*
X33899500Y14697498D01*
X33879815Y14630459D01*
X33827011Y14584704D01*
X33757853Y14574760D01*
X33740564Y14578521D01*
X33718425Y14585022D01*
X33718419Y14585024D01*
X33632966Y14597310D01*
X33576000Y14605500D01*
X27224000Y14605500D01*
X27223991Y14605500D01*
X27223990Y14605499D01*
X27116549Y14593948D01*
X27116537Y14593946D01*
X27065027Y14582740D01*
X26962502Y14548617D01*
X26962496Y14548614D01*
X26841462Y14470829D01*
X26841451Y14470821D01*
X26788659Y14425077D01*
X26694433Y14316336D01*
X26694430Y14316332D01*
X26634664Y14185466D01*
X26614978Y14118425D01*
X26614976Y14118420D01*
X26598595Y14004484D01*
X26594500Y13976000D01*
X26594500Y6424000D01*
X26594501Y6423991D01*
X26606052Y6316550D01*
X26606054Y6316538D01*
X26617260Y6265028D01*
X26651383Y6162503D01*
X26651386Y6162497D01*
X26729171Y6041463D01*
X26729179Y6041452D01*
X26774923Y5988660D01*
X26774926Y5988657D01*
X26774930Y5988653D01*
X26883664Y5894433D01*
X26883667Y5894432D01*
X26883668Y5894431D01*
X26977925Y5851384D01*
X27014541Y5834662D01*
X27059357Y5821503D01*
X27081575Y5814978D01*
X27081580Y5814977D01*
X27081584Y5814976D01*
X27224000Y5794500D01*
X27224003Y5794500D01*
X33575990Y5794500D01*
X33576000Y5794500D01*
X33683456Y5806053D01*
X33734967Y5817259D01*
X33734976Y5817263D01*
X33736335Y5817714D01*
X33736671Y5817727D01*
X33738173Y5818138D01*
X33738270Y5817784D01*
X33806160Y5820212D01*
X33866250Y5784563D01*
X33897529Y5722085D01*
X33899500Y5700062D01*
X33899500Y424500D01*
X33879815Y357461D01*
X33827011Y311706D01*
X33775500Y300500D01*
X424500Y300500D01*
X357461Y320185D01*
X311706Y372989D01*
X300500Y424500D01*
X300500Y5702503D01*
X320185Y5769542D01*
X372989Y5815297D01*
X442147Y5825241D01*
X459427Y5821482D01*
X481580Y5814977D01*
X481584Y5814976D01*
X624000Y5794500D01*
X624003Y5794500D01*
X6975990Y5794500D01*
X6976000Y5794500D01*
X7083456Y5806053D01*
X7134967Y5817259D01*
X7169197Y5828653D01*
X7237497Y5851384D01*
X7237501Y5851387D01*
X7237504Y5851387D01*
X7358543Y5929175D01*
X7411347Y5974930D01*
X7505567Y6083664D01*
X7565338Y6214541D01*
X7585023Y6281580D01*
X7585024Y6281584D01*
X7605500Y6424000D01*
X7605500Y13976000D01*
X7593947Y14083456D01*
X7582741Y14134967D01*
X7582637Y14135278D01*
X7548616Y14237498D01*
X7548613Y14237504D01*
X7470828Y14358538D01*
X7470825Y14358543D01*
X7470820Y14358549D01*
X7425076Y14411341D01*
X7425072Y14411344D01*
X7425070Y14411347D01*
X7316336Y14505567D01*
X7316333Y14505569D01*
X7316331Y14505570D01*
X7185465Y14565336D01*
X7185460Y14565338D01*
X7185459Y14565338D01*
X7153372Y14574760D01*
X7118425Y14585022D01*
X7118419Y14585024D01*
X7032966Y14597310D01*
X6976000Y14605500D01*
X6975998Y14605500D01*
X3979500Y14605500D01*
X3912461Y14625185D01*
X3866706Y14677989D01*
X3855500Y14729500D01*
X3855500Y16447445D01*
X3875185Y16514484D01*
X3927989Y16560239D01*
X3997147Y16570183D01*
X4060703Y16541158D01*
X4078767Y16521756D01*
X4082663Y16516551D01*
X4082664Y16516550D01*
X4163528Y16408528D01*
X4271549Y16327665D01*
X4271552Y16327663D01*
X4397975Y16280510D01*
X4397978Y16280509D01*
X4427318Y16277355D01*
X4453855Y16274501D01*
X4453870Y16274500D01*
X4513401Y16274500D01*
X4548964Y16269291D01*
X4593790Y16255870D01*
X4768935Y16245669D01*
X4921754Y16272616D01*
X4943288Y16274500D01*
X4981130Y16274500D01*
X4981144Y16274501D01*
X5003023Y16276854D01*
X5037022Y16280509D01*
X5163450Y16327664D01*
X5271472Y16408528D01*
X5352336Y16516550D01*
X5399491Y16642978D01*
X5400893Y16656025D01*
X5413372Y16698424D01*
X5435040Y16741567D01*
X5475500Y16912279D01*
X5475500Y17848277D01*
X5495185Y17915315D01*
X5531362Y17951877D01*
X5560696Y17971170D01*
X5608309Y18021638D01*
X5668633Y18056892D01*
X5679100Y18059017D01*
X5712804Y18064354D01*
X5825842Y18121950D01*
X5915550Y18211658D01*
X5973146Y18324696D01*
X5973146Y18324698D01*
X5973147Y18324699D01*
X5987999Y18418476D01*
X5988000Y18418481D01*
X5987999Y18781518D01*
X5973146Y18875304D01*
X5915550Y18988342D01*
X5915546Y18988346D01*
X5915545Y18988348D01*
X5825847Y19078046D01*
X5825844Y19078048D01*
X5825842Y19078050D01*
X5749017Y19117195D01*
X5712801Y19135648D01*
X5619024Y19150500D01*
X5619019Y19150500D01*
X5572055Y19150500D01*
X5505016Y19170185D01*
X5492345Y19179514D01*
X5490214Y19181302D01*
X5490212Y19181303D01*
X5333437Y19260039D01*
X5333433Y19260040D01*
X5162721Y19300500D01*
X5162718Y19300500D01*
X5088705Y19300500D01*
X5070735Y19301809D01*
X5046972Y19305290D01*
X5001533Y19301314D01*
X4994931Y19300736D01*
X4989530Y19300500D01*
X4981289Y19300500D01*
X4959579Y19297963D01*
X4948724Y19296694D01*
X4934814Y19295477D01*
X4872199Y19289999D01*
X4865132Y19288540D01*
X4865120Y19288596D01*
X4857763Y19286965D01*
X4857777Y19286908D01*
X4850743Y19285241D01*
X4778575Y19258975D01*
X4705665Y19234815D01*
X4699126Y19231765D01*
X4699101Y19231817D01*
X4692308Y19228529D01*
X4692334Y19228478D01*
X4685885Y19225239D01*
X4643104Y19197103D01*
X4621716Y19183035D01*
X4616008Y19179514D01*
X4598894Y19168959D01*
X4535831Y19151072D01*
X4535846Y19150882D01*
X4534901Y19150808D01*
X4533817Y19150500D01*
X4530991Y19150500D01*
X4530984Y19150500D01*
X4530982Y19150499D01*
X4437196Y19135646D01*
X4324158Y19078050D01*
X4324156Y19078049D01*
X4324157Y19078049D01*
X4324152Y19078046D01*
X4234454Y18988348D01*
X4234451Y18988343D01*
X4234450Y18988342D01*
X4215251Y18950663D01*
X4176852Y18875302D01*
X4161237Y18776707D01*
X4159929Y18776915D01*
X4137187Y18717269D01*
X4133455Y18712596D01*
X4093694Y18665210D01*
X4089729Y18659181D01*
X4089682Y18659212D01*
X4085605Y18652814D01*
X4085655Y18652783D01*
X4085018Y18651751D01*
X4084809Y18651564D01*
X4080904Y18645433D01*
X4077427Y18641033D01*
X4075121Y18642856D01*
X4033055Y18605043D01*
X3964089Y18593843D01*
X3900016Y18621707D01*
X3861178Y18679788D01*
X3855500Y18716882D01*
X3855500Y18775993D01*
X3855499Y18776002D01*
X3849660Y18830315D01*
X3838454Y18881825D01*
X3838453Y18881830D01*
X3838453Y18881831D01*
X3831219Y18908198D01*
X3831219Y18908199D01*
X3781891Y18994823D01*
X3781888Y18994828D01*
X3736136Y19047629D01*
X3736133Y19047632D01*
X3719041Y19064124D01*
X3699159Y19083311D01*
X3664586Y19144027D01*
X3668327Y19213797D01*
X3674775Y19228830D01*
X3698146Y19274696D01*
X3698146Y19274698D01*
X3698147Y19274699D01*
X3712999Y19368476D01*
X3713000Y19368481D01*
X3712999Y19731518D01*
X3698146Y19825304D01*
X3640550Y19938342D01*
X3640545Y19938347D01*
X3634811Y19946241D01*
X3636165Y19947226D01*
X3608090Y19998632D01*
X3613069Y20068324D01*
X3635513Y20103249D01*
X3634811Y20103759D01*
X3640542Y20111651D01*
X3640550Y20111658D01*
X3698146Y20224696D01*
X3698146Y20224698D01*
X3698147Y20224699D01*
X3712999Y20318476D01*
X3713000Y20318481D01*
X3713000Y20318483D01*
X4162000Y20318483D01*
X4171213Y20260313D01*
X4176854Y20224696D01*
X4234450Y20111658D01*
X4234452Y20111656D01*
X4234454Y20111653D01*
X4324152Y20021955D01*
X4324154Y20021954D01*
X4324158Y20021950D01*
X4437194Y19964355D01*
X4437198Y19964353D01*
X4530975Y19949501D01*
X4530981Y19949500D01*
X5619018Y19949501D01*
X5712804Y19964354D01*
X5825842Y20021950D01*
X5892074Y20088183D01*
X5953395Y20121666D01*
X5979754Y20124500D01*
X8848196Y20124500D01*
X8873641Y20121861D01*
X8877440Y20121065D01*
X8884268Y20119633D01*
X8905225Y20122246D01*
X8919492Y20124023D01*
X8927168Y20124500D01*
X8931112Y20124500D01*
X8931114Y20124500D01*
X8931116Y20124501D01*
X8931122Y20124501D01*
X8946487Y20127066D01*
X8954140Y20128343D01*
X9008626Y20135134D01*
X9008627Y20135135D01*
X9008629Y20135135D01*
X9016141Y20137372D01*
X9023606Y20139934D01*
X9023606Y20139935D01*
X9023610Y20139935D01*
X9071877Y20166056D01*
X9121211Y20190174D01*
X9121213Y20190177D01*
X9127594Y20194732D01*
X9133819Y20199578D01*
X9133826Y20199581D01*
X9171008Y20239972D01*
X10337520Y21406483D01*
X10396079Y21465042D01*
X10396092Y21465057D01*
X13028889Y24097854D01*
X13048746Y24113978D01*
X13057836Y24119916D01*
X13079638Y24147929D01*
X13084733Y24153697D01*
X13087519Y24156482D01*
X13087528Y24156494D01*
X13101086Y24175484D01*
X13134807Y24218808D01*
X13138547Y24225722D01*
X13142006Y24232797D01*
X13142010Y24232801D01*
X13149196Y24256939D01*
X13157672Y24285407D01*
X13175500Y24337339D01*
X13176791Y24345076D01*
X13177768Y24352914D01*
X13175500Y24407756D01*
X13175500Y24423998D01*
X13644500Y24423998D01*
X13650338Y24369688D01*
X13657376Y24337339D01*
X13661545Y24318176D01*
X13665212Y24304809D01*
X13668779Y24291807D01*
X13668783Y24291797D01*
X13718105Y24205182D01*
X13718111Y24205173D01*
X13760291Y24156494D01*
X13763867Y24152368D01*
X13796641Y24120743D01*
X13884976Y24074535D01*
X13884977Y24074535D01*
X13884977Y24074534D01*
X13935105Y24059816D01*
X13952015Y24054850D01*
X13952019Y24054850D01*
X13952021Y24054849D01*
X13963652Y24053177D01*
X14024000Y24044500D01*
X14643450Y24044500D01*
X14710489Y24024815D01*
X14756244Y23972011D01*
X14766188Y23902853D01*
X14754850Y23866039D01*
X14740418Y23836521D01*
X14740418Y23836518D01*
X14729500Y23761582D01*
X14729500Y23418418D01*
X14740418Y23343482D01*
X14740418Y23343481D01*
X14740419Y23343479D01*
X14796921Y23227901D01*
X14796923Y23227898D01*
X14887897Y23136924D01*
X14887900Y23136922D01*
X14998656Y23082778D01*
X15003482Y23080418D01*
X15078418Y23069500D01*
X15078423Y23069500D01*
X15521577Y23069500D01*
X15521582Y23069500D01*
X15596518Y23080418D01*
X15654310Y23108672D01*
X15712099Y23136922D01*
X15712100Y23136924D01*
X15712102Y23136924D01*
X15773360Y23198183D01*
X15834681Y23231666D01*
X15861040Y23234500D01*
X16496789Y23234500D01*
X16563828Y23214815D01*
X16598838Y23180941D01*
X16609517Y23165470D01*
X16727760Y23060717D01*
X16727762Y23060716D01*
X16867634Y22987304D01*
X17021014Y22949500D01*
X17021015Y22949500D01*
X17178985Y22949500D01*
X17332365Y22987304D01*
X17332364Y22987304D01*
X17472240Y23060717D01*
X17590483Y23165470D01*
X17680220Y23295477D01*
X17736237Y23443182D01*
X17755278Y23600000D01*
X17736237Y23756818D01*
X17734432Y23761577D01*
X17680853Y23902853D01*
X17680220Y23904523D01*
X17590483Y24034530D01*
X17472240Y24139283D01*
X17472238Y24139284D01*
X17472237Y24139285D01*
X17332365Y24212697D01*
X17178986Y24250500D01*
X17178985Y24250500D01*
X17021015Y24250500D01*
X17021014Y24250500D01*
X17002142Y24245849D01*
X16932340Y24248920D01*
X16875279Y24289242D01*
X16849076Y24354012D01*
X16849732Y24383890D01*
X16855500Y24424000D01*
X16855500Y24990500D01*
X16875185Y25057539D01*
X16927989Y25103294D01*
X16979500Y25114500D01*
X19138196Y25114500D01*
X19163641Y25111861D01*
X19167440Y25111065D01*
X19174268Y25109633D01*
X19195225Y25112246D01*
X19209492Y25114023D01*
X19217168Y25114500D01*
X19221112Y25114500D01*
X19221114Y25114500D01*
X19221116Y25114501D01*
X19221122Y25114501D01*
X19236487Y25117066D01*
X19244140Y25118343D01*
X19298626Y25125134D01*
X19298627Y25125135D01*
X19298629Y25125135D01*
X19306141Y25127372D01*
X19313606Y25129934D01*
X19313606Y25129935D01*
X19313610Y25129935D01*
X19361877Y25156056D01*
X19411211Y25180174D01*
X19411213Y25180177D01*
X19417594Y25184732D01*
X19423819Y25189578D01*
X19423826Y25189581D01*
X19461008Y25229972D01*
X20528889Y26297854D01*
X20548746Y26313978D01*
X20557836Y26319916D01*
X20579638Y26347929D01*
X20584733Y26353697D01*
X20587519Y26356482D01*
X20587528Y26356494D01*
X20601086Y26375484D01*
X20634807Y26418808D01*
X20638547Y26425720D01*
X20642003Y26432793D01*
X20642010Y26432801D01*
X20657670Y26485404D01*
X20675500Y26537340D01*
X20675500Y26537345D01*
X20676790Y26545076D01*
X20677768Y26552915D01*
X20675500Y26607756D01*
X20675500Y31922733D01*
X22997157Y31922733D01*
X23001223Y31890113D01*
X23001700Y31882436D01*
X23001700Y31879012D01*
X23005287Y31857509D01*
X23011627Y31806657D01*
X23013720Y31799624D01*
X23016108Y31792669D01*
X23040495Y31747606D01*
X23063001Y31701567D01*
X23067265Y31695595D01*
X23071780Y31689794D01*
X23109475Y31655092D01*
X23407402Y31357165D01*
X23440887Y31295842D01*
X23442817Y31254540D01*
X23436106Y31199269D01*
X23436107Y31199266D01*
X23455147Y31042448D01*
X23511164Y30894743D01*
X23511165Y30894743D01*
X23600902Y30764736D01*
X23719145Y30659983D01*
X23719147Y30659982D01*
X23865661Y30583084D01*
X23864177Y30580258D01*
X23908346Y30546878D01*
X23932464Y30481303D01*
X23917301Y30413098D01*
X23867671Y30363919D01*
X23826622Y30350317D01*
X23806481Y30347383D01*
X23806479Y30347382D01*
X23690900Y30290879D01*
X23690897Y30290877D01*
X23599923Y30199903D01*
X23599921Y30199900D01*
X23543419Y30084322D01*
X23543418Y30084320D01*
X23543418Y30084318D01*
X23532500Y30009382D01*
X23532500Y29666218D01*
X23543418Y29591282D01*
X23543418Y29591281D01*
X23543419Y29591279D01*
X23599921Y29475701D01*
X23599923Y29475698D01*
X23690897Y29384724D01*
X23690900Y29384722D01*
X23762593Y29349674D01*
X23806482Y29328218D01*
X23881418Y29317300D01*
X23881423Y29317300D01*
X24324577Y29317300D01*
X24324582Y29317300D01*
X24399518Y29328218D01*
X24457310Y29356471D01*
X24515099Y29384722D01*
X24515102Y29384724D01*
X24606075Y29475697D01*
X24606075Y29475698D01*
X24606076Y29475698D01*
X24607097Y29477788D01*
X24609254Y29480149D01*
X24612048Y29484061D01*
X24612520Y29483724D01*
X24654224Y29529372D01*
X24721757Y29547288D01*
X24788257Y29525849D01*
X24832609Y29471862D01*
X24842500Y29423331D01*
X24842499Y29000324D01*
X24842500Y29000322D01*
X24857032Y28927265D01*
X24857033Y28927261D01*
X24857034Y28927260D01*
X24912399Y28844399D01*
X24995260Y28789034D01*
X24995264Y28789033D01*
X25068321Y28774501D01*
X25068324Y28774500D01*
X25068326Y28774500D01*
X26267675Y28774500D01*
X26295912Y28780117D01*
X26320105Y28782500D01*
X26357433Y28782500D01*
X26383789Y28779667D01*
X26388640Y28778611D01*
X26404235Y28779727D01*
X26472505Y28764877D01*
X26521912Y28715474D01*
X26534488Y28681272D01*
X26546406Y28623921D01*
X26546407Y28623918D01*
X26546408Y28623915D01*
X26616029Y28489553D01*
X26616031Y28489551D01*
X26616032Y28489549D01*
X26719318Y28378957D01*
X26719320Y28378956D01*
X26848618Y28300328D01*
X26994335Y28259500D01*
X26994336Y28259500D01*
X27107659Y28259500D01*
X27135723Y28263358D01*
X27219920Y28274930D01*
X27329854Y28322682D01*
X27358716Y28335218D01*
X27358716Y28335219D01*
X27358720Y28335220D01*
X27476108Y28430722D01*
X27563377Y28554353D01*
X27570255Y28573707D01*
X27614053Y28696940D01*
X27614053Y28696942D01*
X27614054Y28696944D01*
X27624381Y28847921D01*
X27607893Y28927265D01*
X27593594Y28996079D01*
X27593592Y28996082D01*
X27593592Y28996085D01*
X27523971Y29130447D01*
X27523967Y29130451D01*
X27523967Y29130452D01*
X27420682Y29241042D01*
X27420681Y29241043D01*
X27420680Y29241044D01*
X27351476Y29283128D01*
X27304425Y29334779D01*
X27292768Y29403669D01*
X27320206Y29467926D01*
X27328202Y29476733D01*
X27696250Y29844779D01*
X27761343Y29931733D01*
X27812040Y30067658D01*
X27822389Y30212360D01*
X27821332Y30217217D01*
X27818500Y30243568D01*
X27818500Y33156432D01*
X27821334Y33182790D01*
X27822389Y33187640D01*
X27822389Y33187644D01*
X27818658Y33239807D01*
X27818500Y33244231D01*
X27818500Y33260080D01*
X27818500Y33260083D01*
X27816239Y33275805D01*
X27815772Y33280155D01*
X27812040Y33332342D01*
X27810305Y33336992D01*
X27803749Y33362683D01*
X27803043Y33367593D01*
X27803042Y33367596D01*
X27781298Y33415208D01*
X27779631Y33419234D01*
X27761343Y33468267D01*
X27758364Y33472246D01*
X27744839Y33495042D01*
X27742777Y33499558D01*
X27708521Y33539091D01*
X27705750Y33542530D01*
X27696251Y33555219D01*
X27696250Y33555221D01*
X27685033Y33566438D01*
X27682029Y33569665D01*
X27655743Y33600000D01*
X27647775Y33609196D01*
X27643593Y33611884D01*
X27622955Y33628516D01*
X27331993Y33919478D01*
X27298508Y33980801D01*
X27303492Y34050493D01*
X27345364Y34106426D01*
X27355243Y34113105D01*
X27358712Y34115215D01*
X27358716Y34115219D01*
X27358720Y34115220D01*
X27476108Y34210722D01*
X27563377Y34334353D01*
X27586594Y34399679D01*
X27614053Y34476940D01*
X27614053Y34476942D01*
X27614054Y34476944D01*
X27624381Y34627921D01*
X27620593Y34646149D01*
X27593594Y34776079D01*
X27593592Y34776082D01*
X27593592Y34776085D01*
X27523971Y34910447D01*
X27523967Y34910451D01*
X27523967Y34910452D01*
X27420681Y35021044D01*
X27342052Y35068859D01*
X27291382Y35099672D01*
X27145665Y35140500D01*
X27032342Y35140500D01*
X27032341Y35140500D01*
X26920082Y35125071D01*
X26920079Y35125070D01*
X26781283Y35064783D01*
X26663889Y34969276D01*
X26576623Y34845648D01*
X26576621Y34845645D01*
X26525828Y34702726D01*
X26484830Y34646149D01*
X26419752Y34620719D01*
X26400144Y34620567D01*
X26388639Y34621390D01*
X26388634Y34621390D01*
X26365952Y34616456D01*
X26315410Y34616005D01*
X26291710Y34620719D01*
X26267674Y34625500D01*
X25068326Y34625500D01*
X25068323Y34625500D01*
X24995264Y34610968D01*
X24995260Y34610967D01*
X24912399Y34555601D01*
X24857033Y34472740D01*
X24857032Y34472736D01*
X24842500Y34399679D01*
X24842500Y33953500D01*
X24822815Y33886461D01*
X24770011Y33840706D01*
X24718500Y33829500D01*
X24339049Y33829500D01*
X24272010Y33849185D01*
X24227649Y33899038D01*
X24225076Y33904302D01*
X24225074Y33904304D01*
X24225074Y33904305D01*
X24134102Y33995277D01*
X24134099Y33995279D01*
X24018521Y34051781D01*
X24018519Y34051782D01*
X24018518Y34051782D01*
X23943582Y34062700D01*
X23500418Y34062700D01*
X23425482Y34051782D01*
X23425480Y34051782D01*
X23425478Y34051781D01*
X23309900Y33995279D01*
X23309897Y33995277D01*
X23218923Y33904303D01*
X23218921Y33904300D01*
X23162419Y33788722D01*
X23162418Y33788720D01*
X23162418Y33788718D01*
X23151500Y33713782D01*
X23151500Y33370618D01*
X23162418Y33295682D01*
X23162418Y33295681D01*
X23162419Y33295679D01*
X23218921Y33180101D01*
X23218923Y33180098D01*
X23296113Y33102908D01*
X23329598Y33041585D01*
X23324614Y32971893D01*
X23296114Y32927548D01*
X23216558Y32847991D01*
X23139155Y32770588D01*
X23119306Y32754468D01*
X23111531Y32749388D01*
X23091343Y32723452D01*
X23086267Y32717702D01*
X23083834Y32715269D01*
X23083823Y32715256D01*
X23071154Y32697512D01*
X23039683Y32657078D01*
X23036175Y32650597D01*
X23032960Y32644018D01*
X23018338Y32594905D01*
X23001698Y32546434D01*
X23000494Y32539217D01*
X22999582Y32531904D01*
X23001700Y32480720D01*
X23001700Y31957262D01*
X22999061Y31931818D01*
X22997157Y31922739D01*
X22997157Y31922733D01*
X20675500Y31922733D01*
X20675500Y44838154D01*
X20695185Y44905193D01*
X20747989Y44950948D01*
X20817147Y44960892D01*
X20823679Y44959774D01*
X20854996Y44953544D01*
X20875325Y44949500D01*
X20875326Y44949500D01*
X21324676Y44949500D01*
X21324677Y44949501D01*
X21397735Y44964033D01*
X21397737Y44964033D01*
X21397737Y44964034D01*
X21397740Y44964034D01*
X21431112Y44986333D01*
X21497786Y45007209D01*
X21565166Y44988725D01*
X21568829Y44986372D01*
X21602260Y44964034D01*
X21602262Y44964034D01*
X21602263Y44964033D01*
X21675321Y44949501D01*
X21675324Y44949500D01*
X21675326Y44949500D01*
X22124676Y44949500D01*
X22124677Y44949501D01*
X22197740Y44964034D01*
X22280601Y45019399D01*
X22335966Y45102260D01*
X22350500Y45175326D01*
X22350500Y45943127D01*
X22370185Y46010166D01*
X22422989Y46055921D01*
X22492147Y46065865D01*
X22498693Y46064744D01*
X22502259Y46064035D01*
X22502260Y46064034D01*
X22543046Y46055921D01*
X22575325Y46049500D01*
X22575326Y46049500D01*
X23424676Y46049500D01*
X23424677Y46049501D01*
X23497740Y46064034D01*
X23580601Y46119399D01*
X23606711Y46158477D01*
X23660319Y46203279D01*
X23729644Y46211988D01*
X23753790Y46205523D01*
X23755491Y46204878D01*
X23755495Y46204876D01*
X23755498Y46204876D01*
X23755499Y46204875D01*
X23908874Y46167072D01*
X23908875Y46167072D01*
X24066845Y46167072D01*
X24220225Y46204876D01*
X24236978Y46213669D01*
X24360100Y46278289D01*
X24478343Y46383042D01*
X24568080Y46513049D01*
X24624097Y46660754D01*
X24643138Y46817572D01*
X24627172Y46949062D01*
X24638632Y47017982D01*
X24685536Y47069769D01*
X24720595Y47084403D01*
X24721628Y47084658D01*
X24732365Y47087304D01*
X24872240Y47160717D01*
X24990483Y47265470D01*
X25080220Y47395477D01*
X25136237Y47543182D01*
X25155278Y47700000D01*
X25155010Y47702212D01*
X25136237Y47856819D01*
X25114992Y47912836D01*
X25080220Y48004523D01*
X24990483Y48134530D01*
X24872240Y48239283D01*
X24872238Y48239284D01*
X24872237Y48239285D01*
X24732365Y48312697D01*
X24578986Y48350500D01*
X24578985Y48350500D01*
X24421015Y48350500D01*
X24421014Y48350500D01*
X24413568Y48349596D01*
X24413265Y48352085D01*
X24355487Y48354633D01*
X24323581Y48371035D01*
X24309562Y48381044D01*
X24309561Y48381045D01*
X24269126Y48412517D01*
X24269124Y48412518D01*
X24262648Y48416023D01*
X24256069Y48419240D01*
X24206954Y48433862D01*
X24158486Y48450502D01*
X24151269Y48451706D01*
X24143953Y48452618D01*
X24094725Y48450581D01*
X24092769Y48450500D01*
X23756874Y48450500D01*
X23689835Y48470185D01*
X23644080Y48522989D01*
X23634136Y48592147D01*
X23635257Y48598691D01*
X23650499Y48675322D01*
X23650500Y48675324D01*
X23650500Y49124677D01*
X23650499Y49124679D01*
X23635967Y49197736D01*
X23635967Y49197738D01*
X23635966Y49197740D01*
X23613667Y49231113D01*
X23592791Y49297786D01*
X23611275Y49365166D01*
X23613628Y49368830D01*
X23635966Y49402260D01*
X23650500Y49475326D01*
X23650500Y49924674D01*
X23650500Y49924677D01*
X23650499Y49924679D01*
X23635967Y49997736D01*
X23635967Y49997738D01*
X23635966Y49997740D01*
X23613667Y50031113D01*
X23592791Y50097786D01*
X23611275Y50165166D01*
X23613628Y50168830D01*
X23635966Y50202260D01*
X23650500Y50275326D01*
X23650500Y50724674D01*
X23650500Y50724675D01*
X23650500Y50724677D01*
X23650499Y50724679D01*
X23635967Y50797736D01*
X23635967Y50797738D01*
X23635966Y50797740D01*
X23613667Y50831113D01*
X23592791Y50897786D01*
X23611275Y50965166D01*
X23613628Y50968830D01*
X23635966Y51002260D01*
X23650500Y51075326D01*
X23650500Y51524674D01*
X23650500Y51524677D01*
X23650499Y51524679D01*
X23635967Y51597736D01*
X23635967Y51597738D01*
X23635964Y51597743D01*
X23613667Y51631113D01*
X23592791Y51697786D01*
X23611275Y51765166D01*
X23613628Y51768830D01*
X23635966Y51802260D01*
X23650500Y51875326D01*
X23650500Y52324674D01*
X23650500Y52324675D01*
X23650500Y52324677D01*
X23650499Y52324679D01*
X23635967Y52397736D01*
X23635967Y52397738D01*
X23635111Y52399019D01*
X23613667Y52431113D01*
X23592791Y52497786D01*
X23611275Y52565166D01*
X23613628Y52568830D01*
X23635966Y52602260D01*
X23650500Y52675326D01*
X23650500Y53124674D01*
X23650500Y53124677D01*
X23650499Y53124679D01*
X23635967Y53197736D01*
X23635967Y53197738D01*
X23635966Y53197740D01*
X23613667Y53231113D01*
X23592791Y53297786D01*
X23611275Y53365166D01*
X23613628Y53368830D01*
X23635966Y53402260D01*
X23650500Y53475326D01*
X23650500Y53924674D01*
X23650500Y53924675D01*
X23650500Y53924677D01*
X23650499Y53924679D01*
X23635967Y53997736D01*
X23635967Y53997738D01*
X23635966Y53997740D01*
X23613667Y54031113D01*
X23592791Y54097786D01*
X23611275Y54165166D01*
X23613628Y54168830D01*
X23635966Y54202260D01*
X23650500Y54275326D01*
X23650500Y54724674D01*
X23650500Y54724677D01*
X23650499Y54724679D01*
X23635967Y54797736D01*
X23635966Y54797740D01*
X23635965Y54797741D01*
X23580601Y54880601D01*
X23497740Y54935966D01*
X23497739Y54935967D01*
X23497735Y54935968D01*
X23424677Y54950500D01*
X23424674Y54950500D01*
X22575326Y54950500D01*
X22575323Y54950500D01*
X22502264Y54935968D01*
X22502260Y54935967D01*
X22419399Y54880601D01*
X22364033Y54797740D01*
X22364032Y54797736D01*
X22349500Y54724679D01*
X22349500Y54275322D01*
X22364032Y54202265D01*
X22364033Y54202261D01*
X22364034Y54202260D01*
X22386329Y54168892D01*
X22386331Y54168890D01*
X22407208Y54102212D01*
X22388723Y54034832D01*
X22386337Y54031121D01*
X22381708Y54024193D01*
X22364033Y53997740D01*
X22364032Y53997736D01*
X22349500Y53924679D01*
X22349500Y53475322D01*
X22364032Y53402265D01*
X22364033Y53402261D01*
X22364034Y53402260D01*
X22386329Y53368892D01*
X22386331Y53368890D01*
X22407208Y53302212D01*
X22388723Y53234832D01*
X22386337Y53231121D01*
X22381708Y53224193D01*
X22364033Y53197740D01*
X22364032Y53197736D01*
X22349500Y53124679D01*
X22349500Y52675322D01*
X22364032Y52602265D01*
X22364033Y52602261D01*
X22364034Y52602260D01*
X22386329Y52568892D01*
X22386331Y52568890D01*
X22407208Y52502212D01*
X22388723Y52434832D01*
X22386337Y52431121D01*
X22381708Y52424193D01*
X22364033Y52397740D01*
X22364032Y52397736D01*
X22349500Y52324679D01*
X22349500Y51875322D01*
X22364032Y51802265D01*
X22364033Y51802261D01*
X22364034Y51802260D01*
X22386329Y51768892D01*
X22386331Y51768890D01*
X22407208Y51702212D01*
X22388723Y51634832D01*
X22386337Y51631121D01*
X22381708Y51624193D01*
X22364033Y51597740D01*
X22364032Y51597736D01*
X22349500Y51524679D01*
X22349500Y51075322D01*
X22364032Y51002265D01*
X22364033Y51002261D01*
X22364034Y51002260D01*
X22386329Y50968892D01*
X22386331Y50968890D01*
X22407208Y50902212D01*
X22388723Y50834832D01*
X22386337Y50831121D01*
X22381708Y50824193D01*
X22364033Y50797740D01*
X22364032Y50797736D01*
X22349500Y50724679D01*
X22349500Y50275322D01*
X22364032Y50202265D01*
X22364033Y50202261D01*
X22364034Y50202260D01*
X22386329Y50168892D01*
X22386331Y50168890D01*
X22407208Y50102212D01*
X22388723Y50034832D01*
X22386337Y50031121D01*
X22381708Y50024193D01*
X22364033Y49997740D01*
X22364032Y49997736D01*
X22349500Y49924679D01*
X22349500Y49475322D01*
X22364032Y49402265D01*
X22364033Y49402261D01*
X22364034Y49402260D01*
X22386329Y49368892D01*
X22386331Y49368890D01*
X22407208Y49302212D01*
X22388723Y49234832D01*
X22386337Y49231121D01*
X22381708Y49224193D01*
X22364033Y49197740D01*
X22364032Y49197736D01*
X22349500Y49124679D01*
X22349500Y48675322D01*
X22364032Y48602265D01*
X22364033Y48602261D01*
X22370791Y48592147D01*
X22386329Y48568892D01*
X22386331Y48568890D01*
X22407208Y48502212D01*
X22388723Y48434832D01*
X22386337Y48431121D01*
X22381708Y48424193D01*
X22364033Y48397740D01*
X22364032Y48397736D01*
X22349500Y48324679D01*
X22349500Y47875322D01*
X22364032Y47802265D01*
X22364033Y47802261D01*
X22364034Y47802260D01*
X22386329Y47768892D01*
X22386331Y47768890D01*
X22407208Y47702212D01*
X22388723Y47634832D01*
X22386337Y47631121D01*
X22381708Y47624193D01*
X22364033Y47597740D01*
X22364032Y47597736D01*
X22349500Y47524679D01*
X22349500Y47075322D01*
X22364032Y47002265D01*
X22364033Y47002261D01*
X22386331Y46968890D01*
X22407208Y46902212D01*
X22388723Y46834832D01*
X22386331Y46831110D01*
X22364033Y46797740D01*
X22364032Y46797736D01*
X22349500Y46724679D01*
X22349500Y46356874D01*
X22329815Y46289835D01*
X22277011Y46244080D01*
X22207853Y46234136D01*
X22201309Y46235257D01*
X22124677Y46250500D01*
X22124674Y46250500D01*
X21675326Y46250500D01*
X21675323Y46250500D01*
X21602264Y46235968D01*
X21602260Y46235967D01*
X21568890Y46213669D01*
X21502212Y46192792D01*
X21434832Y46211277D01*
X21431110Y46213669D01*
X21397739Y46235967D01*
X21397735Y46235968D01*
X21324677Y46250500D01*
X21324674Y46250500D01*
X20875326Y46250500D01*
X20875323Y46250500D01*
X20802264Y46235968D01*
X20802260Y46235967D01*
X20768890Y46213669D01*
X20702212Y46192792D01*
X20634832Y46211277D01*
X20631110Y46213669D01*
X20597739Y46235967D01*
X20597735Y46235968D01*
X20524677Y46250500D01*
X20524674Y46250500D01*
X20075326Y46250500D01*
X20075323Y46250500D01*
X20002264Y46235968D01*
X20002260Y46235967D01*
X19968890Y46213669D01*
X19902212Y46192792D01*
X19834832Y46211277D01*
X19831110Y46213669D01*
X19797739Y46235967D01*
X19797735Y46235968D01*
X19724677Y46250500D01*
X19724674Y46250500D01*
X19275326Y46250500D01*
X19275323Y46250500D01*
X19202264Y46235968D01*
X19202260Y46235967D01*
X19168890Y46213669D01*
X19102212Y46192792D01*
X19034832Y46211277D01*
X19031110Y46213669D01*
X18997739Y46235967D01*
X18997735Y46235968D01*
X18924677Y46250500D01*
X18924674Y46250500D01*
X18475326Y46250500D01*
X18475323Y46250500D01*
X18402264Y46235968D01*
X18402260Y46235967D01*
X18368890Y46213669D01*
X18302212Y46192792D01*
X18234832Y46211277D01*
X18231110Y46213669D01*
X18197739Y46235967D01*
X18197735Y46235968D01*
X18124677Y46250500D01*
X18124674Y46250500D01*
X17675326Y46250500D01*
X17675323Y46250500D01*
X17602264Y46235968D01*
X17602260Y46235967D01*
X17568890Y46213669D01*
X17502212Y46192792D01*
X17434832Y46211277D01*
X17431110Y46213669D01*
X17397739Y46235967D01*
X17397735Y46235968D01*
X17324677Y46250500D01*
X17324674Y46250500D01*
X16875326Y46250500D01*
X16875323Y46250500D01*
X16802264Y46235968D01*
X16802260Y46235967D01*
X16768890Y46213669D01*
X16702212Y46192792D01*
X16634832Y46211277D01*
X16631110Y46213669D01*
X16597739Y46235967D01*
X16597735Y46235968D01*
X16524677Y46250500D01*
X16524674Y46250500D01*
X16075326Y46250500D01*
X16075323Y46250500D01*
X16002264Y46235968D01*
X16002260Y46235967D01*
X15968890Y46213669D01*
X15902212Y46192792D01*
X15834832Y46211277D01*
X15831110Y46213669D01*
X15797739Y46235967D01*
X15797735Y46235968D01*
X15724677Y46250500D01*
X15724674Y46250500D01*
X15275326Y46250500D01*
X15275323Y46250500D01*
X15202264Y46235968D01*
X15202260Y46235967D01*
X15168890Y46213669D01*
X15102212Y46192792D01*
X15034832Y46211277D01*
X15031110Y46213669D01*
X14997739Y46235967D01*
X14997735Y46235968D01*
X14924677Y46250500D01*
X14924674Y46250500D01*
X14475326Y46250500D01*
X14475323Y46250500D01*
X14402264Y46235968D01*
X14402260Y46235967D01*
X14319399Y46180601D01*
X14264033Y46097740D01*
X14264032Y46097736D01*
X14249500Y46024679D01*
X14249500Y45175322D01*
X14264032Y45102265D01*
X14264033Y45102261D01*
X14264034Y45102260D01*
X14319399Y45019399D01*
X14365307Y44988725D01*
X14402260Y44964034D01*
X14402264Y44964033D01*
X14475321Y44949501D01*
X14475324Y44949500D01*
X14475326Y44949500D01*
X14924676Y44949500D01*
X14924677Y44949501D01*
X14997735Y44964033D01*
X14997737Y44964033D01*
X14997737Y44964034D01*
X14997740Y44964034D01*
X15031112Y44986333D01*
X15097786Y45007209D01*
X15165166Y44988725D01*
X15168829Y44986372D01*
X15202260Y44964034D01*
X15202262Y44964034D01*
X15202263Y44964033D01*
X15275321Y44949501D01*
X15275324Y44949500D01*
X15275326Y44949500D01*
X15724676Y44949500D01*
X15724677Y44949501D01*
X15797735Y44964033D01*
X15797737Y44964033D01*
X15797737Y44964034D01*
X15797740Y44964034D01*
X15831112Y44986333D01*
X15897786Y45007209D01*
X15965166Y44988725D01*
X15968829Y44986372D01*
X16002260Y44964034D01*
X16002262Y44964034D01*
X16002263Y44964033D01*
X16075321Y44949501D01*
X16075324Y44949500D01*
X16075326Y44949500D01*
X16524676Y44949500D01*
X16524677Y44949501D01*
X16597735Y44964033D01*
X16597737Y44964033D01*
X16597737Y44964034D01*
X16597740Y44964034D01*
X16631112Y44986333D01*
X16697786Y45007209D01*
X16765166Y44988725D01*
X16768829Y44986372D01*
X16802260Y44964034D01*
X16802262Y44964034D01*
X16802263Y44964033D01*
X16875321Y44949501D01*
X16875324Y44949500D01*
X16875326Y44949500D01*
X17324676Y44949500D01*
X17324677Y44949501D01*
X17397735Y44964033D01*
X17397737Y44964033D01*
X17397737Y44964034D01*
X17397740Y44964034D01*
X17431112Y44986333D01*
X17497786Y45007209D01*
X17565166Y44988725D01*
X17568829Y44986372D01*
X17602260Y44964034D01*
X17602262Y44964034D01*
X17602263Y44964033D01*
X17675321Y44949501D01*
X17675324Y44949500D01*
X17675326Y44949500D01*
X18124675Y44949500D01*
X18145004Y44953544D01*
X18176308Y44959771D01*
X18245899Y44953544D01*
X18301077Y44910682D01*
X18324322Y44844793D01*
X18324500Y44838154D01*
X18324500Y43106900D01*
X18304815Y43039861D01*
X18288181Y43019219D01*
X17400781Y42131819D01*
X17339458Y42098334D01*
X17313100Y42095500D01*
X17179500Y42095500D01*
X17112461Y42115185D01*
X17066706Y42167989D01*
X17055500Y42219500D01*
X17055500Y42676000D01*
X17049661Y42730313D01*
X17038455Y42781824D01*
X17031219Y42808198D01*
X16993453Y42874519D01*
X16977385Y42942516D01*
X17000629Y43008406D01*
X17043581Y43045675D01*
X17062372Y43055538D01*
X17072240Y43060717D01*
X17190483Y43165470D01*
X17280220Y43295477D01*
X17336237Y43443182D01*
X17355278Y43600000D01*
X17336237Y43756818D01*
X17280220Y43904523D01*
X17190483Y44034530D01*
X17072240Y44139283D01*
X17072238Y44139284D01*
X17072237Y44139285D01*
X16932365Y44212697D01*
X16778986Y44250500D01*
X16778985Y44250500D01*
X16621015Y44250500D01*
X16621014Y44250500D01*
X16467634Y44212697D01*
X16327762Y44139285D01*
X16209512Y44034526D01*
X16204543Y44028916D01*
X16202432Y44030786D01*
X16158365Y43995071D01*
X16110594Y43985500D01*
X15841040Y43985500D01*
X15774001Y44005185D01*
X15753358Y44021820D01*
X15712102Y44063077D01*
X15712099Y44063079D01*
X15596521Y44119581D01*
X15596519Y44119582D01*
X15596518Y44119582D01*
X15521582Y44130500D01*
X15078418Y44130500D01*
X15003482Y44119582D01*
X15003480Y44119582D01*
X15003478Y44119581D01*
X14887900Y44063079D01*
X14887897Y44063077D01*
X14796923Y43972103D01*
X14796921Y43972100D01*
X14740419Y43856522D01*
X14740418Y43856520D01*
X14740418Y43856518D01*
X14729500Y43781582D01*
X14729500Y43438418D01*
X14740418Y43363482D01*
X14740418Y43363481D01*
X14740419Y43363479D01*
X14801436Y43238666D01*
X14799175Y43237561D01*
X14817248Y43185555D01*
X14800861Y43117634D01*
X14750354Y43069356D01*
X14693396Y43055500D01*
X14023997Y43055500D01*
X13969687Y43049662D01*
X13918183Y43038457D01*
X13918182Y43038457D01*
X13918176Y43038455D01*
X13907177Y43035438D01*
X13891806Y43031221D01*
X13891796Y43031217D01*
X13805181Y42981895D01*
X13805172Y42981889D01*
X13752371Y42936136D01*
X13720743Y42903360D01*
X13674534Y42815023D01*
X13674533Y42815023D01*
X13654851Y42747991D01*
X13654848Y42747979D01*
X13644500Y42676002D01*
X13644500Y41523998D01*
X13650338Y41469688D01*
X13661239Y41419581D01*
X13661545Y41418176D01*
X13664407Y41407746D01*
X13668779Y41391807D01*
X13668783Y41391797D01*
X13718105Y41305182D01*
X13718111Y41305173D01*
X13753905Y41263864D01*
X13763867Y41252368D01*
X13796641Y41220743D01*
X13884976Y41174535D01*
X13884977Y41174535D01*
X13884977Y41174534D01*
X13929218Y41161544D01*
X13952015Y41154850D01*
X13952019Y41154850D01*
X13952021Y41154849D01*
X13963652Y41153177D01*
X14024000Y41144500D01*
X14994804Y41144500D01*
X15014201Y41142974D01*
X15099265Y41129500D01*
X15500734Y41129501D01*
X15585804Y41142975D01*
X15605201Y41144500D01*
X16676000Y41144500D01*
X16730313Y41150339D01*
X16746440Y41153848D01*
X16781817Y41161543D01*
X16781817Y41161544D01*
X16781824Y41161545D01*
X16808198Y41168781D01*
X16837074Y41185225D01*
X16894818Y41218106D01*
X16894821Y41218109D01*
X16894828Y41218112D01*
X16930938Y41249403D01*
X16947629Y41263864D01*
X16985416Y41303024D01*
X16987247Y41301257D01*
X17031816Y41335885D01*
X17077228Y41344500D01*
X17468196Y41344500D01*
X17493641Y41341861D01*
X17497440Y41341065D01*
X17504268Y41339633D01*
X17525225Y41342246D01*
X17539492Y41344023D01*
X17547168Y41344500D01*
X17551112Y41344500D01*
X17551114Y41344500D01*
X17551116Y41344501D01*
X17551122Y41344501D01*
X17566487Y41347066D01*
X17574140Y41348343D01*
X17628626Y41355134D01*
X17628627Y41355135D01*
X17628629Y41355135D01*
X17636141Y41357372D01*
X17643606Y41359934D01*
X17643606Y41359935D01*
X17643610Y41359935D01*
X17691877Y41386056D01*
X17741211Y41410174D01*
X17741213Y41410177D01*
X17747594Y41414732D01*
X17753819Y41419578D01*
X17753826Y41419581D01*
X17791007Y41459971D01*
X18912821Y42581785D01*
X18974142Y42615268D01*
X19043834Y42610284D01*
X19099767Y42568412D01*
X19124184Y42502948D01*
X19124500Y42494102D01*
X19124500Y34006901D01*
X19104815Y33939862D01*
X19088181Y33919220D01*
X17290781Y32121819D01*
X17229458Y32088334D01*
X17203100Y32085500D01*
X17079500Y32085500D01*
X17012461Y32105185D01*
X16966706Y32157989D01*
X16955500Y32209500D01*
X16955500Y32776000D01*
X16955499Y32776017D01*
X16951604Y32812244D01*
X16964009Y32881004D01*
X17011619Y32932141D01*
X17071541Y32948581D01*
X17071540Y32948596D01*
X17071643Y32948609D01*
X17074893Y32949500D01*
X17078985Y32949500D01*
X17232365Y32987304D01*
X17265270Y33004574D01*
X17372240Y33060717D01*
X17490483Y33165470D01*
X17580220Y33295477D01*
X17636237Y33443182D01*
X17655278Y33600000D01*
X17654162Y33609196D01*
X17636237Y33756819D01*
X17608672Y33829500D01*
X17580220Y33904523D01*
X17490483Y34034530D01*
X17372240Y34139283D01*
X17372238Y34139284D01*
X17372237Y34139285D01*
X17232365Y34212697D01*
X17078986Y34250500D01*
X17078985Y34250500D01*
X16921015Y34250500D01*
X16921014Y34250500D01*
X16767634Y34212697D01*
X16627762Y34139285D01*
X16509512Y34034526D01*
X16504543Y34028916D01*
X16502432Y34030786D01*
X16458365Y33995071D01*
X16410594Y33985500D01*
X15841040Y33985500D01*
X15774001Y34005185D01*
X15753358Y34021820D01*
X15712102Y34063077D01*
X15712099Y34063079D01*
X15596521Y34119581D01*
X15596519Y34119582D01*
X15596518Y34119582D01*
X15521582Y34130500D01*
X15078418Y34130500D01*
X15003482Y34119582D01*
X15003480Y34119582D01*
X15003478Y34119581D01*
X14887900Y34063079D01*
X14887897Y34063077D01*
X14796923Y33972103D01*
X14796921Y33972100D01*
X14740419Y33856522D01*
X14740418Y33856520D01*
X14740418Y33856518D01*
X14729500Y33781582D01*
X14729500Y33438418D01*
X14734668Y33402948D01*
X14740418Y33363480D01*
X14754850Y33333961D01*
X14766610Y33265088D01*
X14739267Y33200791D01*
X14681503Y33161483D01*
X14643450Y33155500D01*
X14023997Y33155500D01*
X13969687Y33149662D01*
X13918183Y33138457D01*
X13918182Y33138457D01*
X13918176Y33138455D01*
X13907177Y33135438D01*
X13891806Y33131221D01*
X13891796Y33131217D01*
X13805181Y33081895D01*
X13805172Y33081889D01*
X13752371Y33036136D01*
X13720743Y33003360D01*
X13674534Y32915023D01*
X13674533Y32915023D01*
X13654851Y32847991D01*
X13654848Y32847979D01*
X13644500Y32776002D01*
X13644500Y31523998D01*
X13650338Y31469688D01*
X13661543Y31418183D01*
X13661545Y31418176D01*
X13663903Y31409581D01*
X13668779Y31391807D01*
X13668783Y31391797D01*
X13718105Y31305182D01*
X13718111Y31305173D01*
X13753905Y31263864D01*
X13763867Y31252368D01*
X13796641Y31220743D01*
X13884976Y31174535D01*
X13884977Y31174535D01*
X13884977Y31174534D01*
X13929218Y31161544D01*
X13952015Y31154850D01*
X13952019Y31154850D01*
X13952021Y31154849D01*
X13963652Y31153177D01*
X14024000Y31144500D01*
X14024001Y31144500D01*
X16576000Y31144500D01*
X16630313Y31150339D01*
X16646440Y31153848D01*
X16681817Y31161543D01*
X16681817Y31161544D01*
X16681824Y31161545D01*
X16708198Y31168781D01*
X16761738Y31199269D01*
X16794818Y31218106D01*
X16794821Y31218109D01*
X16794828Y31218112D01*
X16830938Y31249403D01*
X16847629Y31263864D01*
X16879221Y31296604D01*
X16939937Y31331177D01*
X16968452Y31334500D01*
X17358196Y31334500D01*
X17383641Y31331861D01*
X17387440Y31331065D01*
X17394268Y31329633D01*
X17415225Y31332246D01*
X17429492Y31334023D01*
X17437168Y31334500D01*
X17441112Y31334500D01*
X17441114Y31334500D01*
X17441116Y31334501D01*
X17441122Y31334501D01*
X17456487Y31337066D01*
X17464140Y31338343D01*
X17518626Y31345134D01*
X17518627Y31345135D01*
X17518629Y31345135D01*
X17526141Y31347372D01*
X17533606Y31349934D01*
X17533606Y31349935D01*
X17533610Y31349935D01*
X17581877Y31376056D01*
X17631211Y31400174D01*
X17631213Y31400177D01*
X17637594Y31404732D01*
X17643819Y31409578D01*
X17643826Y31409581D01*
X17681008Y31449972D01*
X19712819Y33481783D01*
X19774142Y33515268D01*
X19843834Y33510284D01*
X19899767Y33468412D01*
X19924184Y33402948D01*
X19924500Y33394102D01*
X19924500Y26806900D01*
X19904815Y26739861D01*
X19888181Y26719219D01*
X19070781Y25901819D01*
X19009458Y25868334D01*
X18983100Y25865500D01*
X16927617Y25865500D01*
X16860578Y25885185D01*
X16819863Y25928140D01*
X16781888Y25994828D01*
X16746097Y26036133D01*
X16736136Y26047629D01*
X16703359Y26079257D01*
X16615022Y26125466D01*
X16615022Y26125467D01*
X16547990Y26145149D01*
X16547978Y26145152D01*
X16476001Y26155500D01*
X16476000Y26155500D01*
X14024000Y26155500D01*
X14023997Y26155500D01*
X13969687Y26149662D01*
X13918183Y26138457D01*
X13918182Y26138457D01*
X13918176Y26138455D01*
X13907177Y26135438D01*
X13891806Y26131221D01*
X13891796Y26131217D01*
X13805181Y26081895D01*
X13805172Y26081889D01*
X13752371Y26036136D01*
X13720743Y26003360D01*
X13674534Y25915023D01*
X13674533Y25915023D01*
X13654851Y25847991D01*
X13654848Y25847979D01*
X13644500Y25776002D01*
X13644500Y24423998D01*
X13175500Y24423998D01*
X13175500Y24907746D01*
X13195185Y24974785D01*
X13211814Y24995423D01*
X13278050Y25061658D01*
X13335646Y25174696D01*
X13335646Y25174698D01*
X13335647Y25174699D01*
X13350499Y25268476D01*
X13350500Y25268481D01*
X13350499Y25731518D01*
X13335646Y25825304D01*
X13278050Y25938342D01*
X13278046Y25938346D01*
X13278045Y25938348D01*
X13211819Y26004574D01*
X13178334Y26065897D01*
X13175500Y26092255D01*
X13175500Y31907746D01*
X13195185Y31974785D01*
X13211814Y31995423D01*
X13278050Y32061658D01*
X13335646Y32174696D01*
X13335646Y32174698D01*
X13335647Y32174699D01*
X13350499Y32268476D01*
X13350500Y32268481D01*
X13350499Y32731518D01*
X13335646Y32825304D01*
X13278050Y32938342D01*
X13278046Y32938346D01*
X13278045Y32938348D01*
X13211819Y33004574D01*
X13178334Y33065897D01*
X13175500Y33092255D01*
X13175500Y38548960D01*
X13195185Y38615999D01*
X13211820Y38636642D01*
X13263076Y38687898D01*
X13263078Y38687901D01*
X13291329Y38745690D01*
X13319582Y38803482D01*
X13330500Y38878418D01*
X13330500Y39321582D01*
X13319582Y39396518D01*
X13317222Y39401344D01*
X13263078Y39512100D01*
X13263076Y39512103D01*
X13211819Y39563360D01*
X13178334Y39624683D01*
X13175500Y39651041D01*
X13175500Y41407746D01*
X13195185Y41474785D01*
X13211814Y41495423D01*
X13278050Y41561658D01*
X13335646Y41674696D01*
X13335646Y41674698D01*
X13335647Y41674699D01*
X13350499Y41768476D01*
X13350500Y41768481D01*
X13350499Y42231518D01*
X13335646Y42325304D01*
X13278050Y42438342D01*
X13278046Y42438346D01*
X13278045Y42438348D01*
X13188347Y42528046D01*
X13188344Y42528048D01*
X13188342Y42528050D01*
X13111517Y42567195D01*
X13075301Y42585648D01*
X12981524Y42600500D01*
X12618482Y42600500D01*
X12537519Y42587677D01*
X12524696Y42585646D01*
X12411658Y42528050D01*
X12411657Y42528050D01*
X12411657Y42528049D01*
X12411652Y42528046D01*
X12321949Y42438344D01*
X12316214Y42430448D01*
X12313940Y42432101D01*
X12276454Y42392409D01*
X12213943Y42375500D01*
X12086057Y42375500D01*
X12019018Y42395185D01*
X11985793Y42431907D01*
X11983786Y42430448D01*
X11978050Y42438343D01*
X11888347Y42528046D01*
X11888344Y42528048D01*
X11888342Y42528050D01*
X11811517Y42567195D01*
X11775301Y42585648D01*
X11681524Y42600500D01*
X11318482Y42600500D01*
X11237519Y42587677D01*
X11224696Y42585646D01*
X11111658Y42528050D01*
X11111657Y42528049D01*
X11111652Y42528046D01*
X11021954Y42438348D01*
X11021952Y42438344D01*
X11021950Y42438342D01*
X11017928Y42430448D01*
X10964352Y42325302D01*
X10949500Y42231525D01*
X10949500Y41768483D01*
X10957496Y41718000D01*
X10964354Y41674696D01*
X11021950Y41561658D01*
X11021952Y41561656D01*
X11021954Y41561653D01*
X11111652Y41471955D01*
X11111654Y41471954D01*
X11111658Y41471950D01*
X11217181Y41418183D01*
X11224698Y41414353D01*
X11318475Y41399501D01*
X11318481Y41399500D01*
X11681518Y41399501D01*
X11775304Y41414354D01*
X11888342Y41471950D01*
X11911820Y41495428D01*
X11978050Y41561657D01*
X11983786Y41569552D01*
X11986059Y41567900D01*
X12023546Y41607591D01*
X12086057Y41624500D01*
X12213943Y41624500D01*
X12280982Y41604815D01*
X12314206Y41568094D01*
X12316214Y41569552D01*
X12321947Y41561662D01*
X12321948Y41561661D01*
X12321950Y41561658D01*
X12388182Y41495426D01*
X12421666Y41434105D01*
X12424500Y41407746D01*
X12424500Y39631041D01*
X12404815Y39564002D01*
X12388181Y39543360D01*
X12356923Y39512103D01*
X12356921Y39512100D01*
X12300419Y39396522D01*
X12300418Y39396520D01*
X12300418Y39396518D01*
X12289500Y39321582D01*
X12289500Y38878418D01*
X12300418Y38803482D01*
X12300418Y38803481D01*
X12300419Y38803479D01*
X12356921Y38687901D01*
X12356923Y38687898D01*
X12388180Y38656642D01*
X12421666Y38595320D01*
X12424500Y38568960D01*
X12424500Y33092255D01*
X12404815Y33025216D01*
X12388181Y33004574D01*
X12321954Y32938348D01*
X12321951Y32938343D01*
X12321950Y32938342D01*
X12306591Y32908198D01*
X12264352Y32825302D01*
X12249500Y32731525D01*
X12249500Y32268483D01*
X12258842Y32209500D01*
X12264354Y32174696D01*
X12321950Y32061658D01*
X12388182Y31995426D01*
X12421666Y31934105D01*
X12424500Y31907746D01*
X12424500Y26092255D01*
X12404815Y26025216D01*
X12388181Y26004574D01*
X12321954Y25938348D01*
X12321951Y25938343D01*
X12321950Y25938342D01*
X12306591Y25908198D01*
X12264352Y25825302D01*
X12249500Y25731525D01*
X12249500Y25268483D01*
X12255600Y25229972D01*
X12264354Y25174696D01*
X12321950Y25061658D01*
X12388182Y24995426D01*
X12421666Y24934105D01*
X12424500Y24907746D01*
X12424500Y24606901D01*
X12404815Y24539862D01*
X12388181Y24519220D01*
X9762480Y21893518D01*
X8780781Y20911819D01*
X8719458Y20878334D01*
X8693100Y20875500D01*
X5979754Y20875500D01*
X5912715Y20895185D01*
X5892077Y20911815D01*
X5825842Y20978050D01*
X5768202Y21007420D01*
X5712801Y21035648D01*
X5619024Y21050500D01*
X4530982Y21050500D01*
X4450019Y21037677D01*
X4437196Y21035646D01*
X4324158Y20978050D01*
X4324156Y20978049D01*
X4324157Y20978049D01*
X4324152Y20978046D01*
X4234454Y20888348D01*
X4234451Y20888343D01*
X4176852Y20775302D01*
X4162000Y20681525D01*
X4162000Y20318483D01*
X3713000Y20318483D01*
X3712999Y20681518D01*
X3698146Y20775304D01*
X3640550Y20888342D01*
X3640546Y20888346D01*
X3640545Y20888348D01*
X3550847Y20978046D01*
X3550844Y20978048D01*
X3550842Y20978050D01*
X3474017Y21017195D01*
X3437801Y21035648D01*
X3344024Y21050500D01*
X2255982Y21050500D01*
X2175019Y21037677D01*
X2162196Y21035646D01*
X2049158Y20978050D01*
X2049157Y20978050D01*
X2049157Y20978049D01*
X2049152Y20978046D01*
X2037180Y20966073D01*
X1975857Y20932588D01*
X1906165Y20937572D01*
X1850232Y20979444D01*
X1825815Y21044908D01*
X1825499Y21053754D01*
X1825499Y21095482D01*
X1825498Y21095491D01*
X1819412Y21152115D01*
X1801588Y21199900D01*
X1771628Y21280226D01*
X1689687Y21389687D01*
X1589024Y21465042D01*
X1580228Y21471627D01*
X1580226Y21471628D01*
X1452114Y21519412D01*
X1452112Y21519413D01*
X1452110Y21519413D01*
X1395493Y21525500D01*
X804518Y21525500D01*
X804509Y21525499D01*
X747885Y21519413D01*
X619773Y21471628D01*
X562921Y21429069D01*
X510313Y21389687D01*
X510311Y21389686D01*
X503214Y21384372D01*
X501999Y21385994D01*
X450844Y21358068D01*
X381153Y21363060D01*
X325224Y21404938D01*
X300815Y21470405D01*
X300500Y21479237D01*
X300500Y42440729D01*
X8994633Y42440729D01*
X8999023Y42405509D01*
X8999500Y42397833D01*
X8999500Y42393884D01*
X9003342Y42370859D01*
X9010134Y42316373D01*
X9012373Y42308853D01*
X9014934Y42301392D01*
X9014935Y42301390D01*
X9041055Y42253124D01*
X9041055Y42253123D01*
X9065174Y42203789D01*
X9069751Y42197379D01*
X9074579Y42191176D01*
X9114969Y42153993D01*
X9497850Y41771112D01*
X9513975Y41751256D01*
X9519913Y41742168D01*
X9519917Y41742163D01*
X9520033Y41742073D01*
X9520150Y41741911D01*
X9526876Y41734604D01*
X9525993Y41733792D01*
X9560849Y41685365D01*
X9561806Y41682536D01*
X9564352Y41674701D01*
X9564353Y41674698D01*
X9564354Y41674696D01*
X9621950Y41561658D01*
X9621952Y41561656D01*
X9621954Y41561653D01*
X9711652Y41471955D01*
X9711654Y41471954D01*
X9711658Y41471950D01*
X9817181Y41418183D01*
X9824698Y41414353D01*
X9918475Y41399501D01*
X9918481Y41399500D01*
X10281518Y41399501D01*
X10375304Y41414354D01*
X10488342Y41471950D01*
X10578050Y41561658D01*
X10635646Y41674696D01*
X10635646Y41674698D01*
X10635647Y41674699D01*
X10650499Y41768476D01*
X10650500Y41768481D01*
X10650499Y42231518D01*
X10635646Y42325304D01*
X10578050Y42438342D01*
X10578046Y42438346D01*
X10578045Y42438348D01*
X10488347Y42528046D01*
X10488344Y42528048D01*
X10488342Y42528050D01*
X10411517Y42567195D01*
X10375301Y42585648D01*
X10281524Y42600500D01*
X9918478Y42600500D01*
X9893894Y42596606D01*
X9824601Y42605563D01*
X9771150Y42650561D01*
X9750513Y42717314D01*
X9750500Y42719080D01*
X9750500Y45175322D01*
X11849500Y45175322D01*
X11864032Y45102265D01*
X11864033Y45102261D01*
X11864034Y45102260D01*
X11919399Y45019399D01*
X11965307Y44988725D01*
X12002260Y44964034D01*
X12002264Y44964033D01*
X12075321Y44949501D01*
X12075324Y44949500D01*
X12075326Y44949500D01*
X12524676Y44949500D01*
X12524677Y44949501D01*
X12597735Y44964033D01*
X12597737Y44964033D01*
X12597737Y44964034D01*
X12597740Y44964034D01*
X12631112Y44986333D01*
X12697786Y45007209D01*
X12765166Y44988725D01*
X12768829Y44986372D01*
X12802260Y44964034D01*
X12802262Y44964034D01*
X12802263Y44964033D01*
X12875321Y44949501D01*
X12875324Y44949500D01*
X12875326Y44949500D01*
X13324676Y44949500D01*
X13324677Y44949501D01*
X13397740Y44964034D01*
X13480601Y45019399D01*
X13535966Y45102260D01*
X13550500Y45175326D01*
X13550500Y46024674D01*
X13550500Y46024677D01*
X13550499Y46024679D01*
X13535967Y46097736D01*
X13535966Y46097740D01*
X13521494Y46119399D01*
X13480601Y46180601D01*
X13400479Y46234136D01*
X13397739Y46235967D01*
X13397735Y46235968D01*
X13324677Y46250500D01*
X13324674Y46250500D01*
X12875326Y46250500D01*
X12875323Y46250500D01*
X12802264Y46235968D01*
X12802260Y46235967D01*
X12768890Y46213669D01*
X12702212Y46192792D01*
X12634832Y46211277D01*
X12631110Y46213669D01*
X12597739Y46235967D01*
X12597735Y46235968D01*
X12524677Y46250500D01*
X12524674Y46250500D01*
X12075326Y46250500D01*
X12075323Y46250500D01*
X12002264Y46235968D01*
X12002260Y46235967D01*
X11919399Y46180601D01*
X11864033Y46097740D01*
X11864032Y46097736D01*
X11849500Y46024679D01*
X11849500Y45175322D01*
X9750500Y45175322D01*
X9750500Y48157901D01*
X9770185Y48224940D01*
X9822989Y48270695D01*
X9892147Y48280639D01*
X9904172Y48278299D01*
X10021015Y48249500D01*
X10178985Y48249500D01*
X10332361Y48287303D01*
X10332361Y48287304D01*
X10332365Y48287304D01*
X10367875Y48305942D01*
X10436380Y48319667D01*
X10501434Y48294176D01*
X10542379Y48237561D01*
X10549500Y48196145D01*
X10549500Y47875322D01*
X10564032Y47802265D01*
X10564033Y47802263D01*
X10564034Y47802260D01*
X10586330Y47768891D01*
X10607208Y47702215D01*
X10588724Y47634834D01*
X10586331Y47631112D01*
X10564035Y47597743D01*
X10564032Y47597736D01*
X10549500Y47524679D01*
X10549500Y47075322D01*
X10564032Y47002265D01*
X10564033Y47002261D01*
X10564034Y47002260D01*
X10619399Y46919399D01*
X10702260Y46864034D01*
X10702264Y46864033D01*
X10775321Y46849501D01*
X10775324Y46849500D01*
X10775326Y46849500D01*
X11624676Y46849500D01*
X11624677Y46849501D01*
X11697740Y46864034D01*
X11780601Y46919399D01*
X11835966Y47002260D01*
X11850500Y47075326D01*
X11850500Y47524674D01*
X11850500Y47524677D01*
X11850499Y47524679D01*
X11835967Y47597736D01*
X11835967Y47597738D01*
X11826092Y47612517D01*
X11813667Y47631113D01*
X11792791Y47697786D01*
X11811275Y47765166D01*
X11813628Y47768830D01*
X11835966Y47802260D01*
X11850500Y47875326D01*
X11850500Y48324674D01*
X11850500Y48324677D01*
X11850499Y48324679D01*
X11835967Y48397736D01*
X11835967Y48397738D01*
X11826092Y48412517D01*
X11813667Y48431113D01*
X11792791Y48497786D01*
X11811275Y48565166D01*
X11813628Y48568830D01*
X11835966Y48602260D01*
X11850500Y48675326D01*
X11850500Y49124674D01*
X11850500Y49124677D01*
X11850499Y49124679D01*
X11835967Y49197736D01*
X11835967Y49197738D01*
X11835966Y49197740D01*
X11813667Y49231113D01*
X11792791Y49297786D01*
X11811275Y49365166D01*
X11813628Y49368830D01*
X11835966Y49402260D01*
X11850500Y49475326D01*
X11850500Y49924674D01*
X11850500Y49924677D01*
X11850499Y49924679D01*
X11835967Y49997736D01*
X11835967Y49997738D01*
X11835966Y49997740D01*
X11813667Y50031113D01*
X11792791Y50097786D01*
X11811275Y50165166D01*
X11813628Y50168830D01*
X11835966Y50202260D01*
X11850500Y50275326D01*
X11850500Y50724674D01*
X11850500Y50724677D01*
X11850499Y50724679D01*
X11835967Y50797736D01*
X11835967Y50797738D01*
X11835966Y50797740D01*
X11813667Y50831113D01*
X11792791Y50897786D01*
X11811275Y50965166D01*
X11813628Y50968830D01*
X11835966Y51002260D01*
X11850500Y51075326D01*
X11850500Y51524674D01*
X11850500Y51524677D01*
X11850499Y51524679D01*
X11835967Y51597736D01*
X11835967Y51597738D01*
X11835964Y51597743D01*
X11813667Y51631113D01*
X11792791Y51697786D01*
X11811275Y51765166D01*
X11813628Y51768830D01*
X11835966Y51802260D01*
X11850500Y51875326D01*
X11850500Y52324674D01*
X11850500Y52324677D01*
X11850499Y52324679D01*
X11835967Y52397736D01*
X11835967Y52397738D01*
X11835111Y52399019D01*
X11813667Y52431113D01*
X11792791Y52497786D01*
X11811275Y52565166D01*
X11813628Y52568830D01*
X11835966Y52602260D01*
X11850500Y52675326D01*
X11850500Y53124674D01*
X11850500Y53124677D01*
X11850499Y53124679D01*
X11835967Y53197736D01*
X11835966Y53197740D01*
X11831432Y53204525D01*
X11780601Y53280601D01*
X11722535Y53319399D01*
X11697739Y53335967D01*
X11697735Y53335968D01*
X11624677Y53350500D01*
X11624674Y53350500D01*
X10775326Y53350500D01*
X10775323Y53350500D01*
X10702264Y53335968D01*
X10702260Y53335967D01*
X10643040Y53296397D01*
X10576362Y53275520D01*
X10574150Y53275500D01*
X10496308Y53275500D01*
X10429269Y53295185D01*
X10394257Y53329062D01*
X10390483Y53334530D01*
X10272240Y53439283D01*
X10272238Y53439284D01*
X10272237Y53439285D01*
X10132365Y53512697D01*
X9978986Y53550500D01*
X9978985Y53550500D01*
X9821015Y53550500D01*
X9821014Y53550500D01*
X9667634Y53512697D01*
X9527762Y53439285D01*
X9409516Y53334529D01*
X9319781Y53204525D01*
X9319780Y53204524D01*
X9263762Y53056819D01*
X9244722Y52900001D01*
X9244722Y52900000D01*
X9263762Y52743182D01*
X9317206Y52602265D01*
X9319780Y52595477D01*
X9409517Y52465470D01*
X9527760Y52360717D01*
X9527762Y52360716D01*
X9667634Y52287304D01*
X9821014Y52249500D01*
X9821015Y52249500D01*
X9978985Y52249500D01*
X10132365Y52287304D01*
X10272238Y52360716D01*
X10272237Y52360716D01*
X10272240Y52360717D01*
X10343280Y52423653D01*
X10406511Y52453374D01*
X10475775Y52444191D01*
X10529079Y52399019D01*
X10549499Y52332199D01*
X10549446Y52330766D01*
X10549500Y52330766D01*
X10549500Y51875322D01*
X10564032Y51802265D01*
X10564033Y51802263D01*
X10564034Y51802260D01*
X10586330Y51768891D01*
X10607208Y51702215D01*
X10588724Y51634834D01*
X10586331Y51631112D01*
X10564035Y51597743D01*
X10564032Y51597736D01*
X10549500Y51524679D01*
X10549500Y51075322D01*
X10559770Y51023691D01*
X10553543Y50954099D01*
X10510680Y50898922D01*
X10444790Y50875678D01*
X10438153Y50875500D01*
X10331040Y50875500D01*
X10264001Y50895185D01*
X10243358Y50911820D01*
X10212102Y50943077D01*
X10212099Y50943079D01*
X10096521Y50999581D01*
X10096519Y50999582D01*
X10096518Y50999582D01*
X10021582Y51010500D01*
X9578418Y51010500D01*
X9503482Y50999582D01*
X9503480Y50999582D01*
X9503478Y50999581D01*
X9387900Y50943079D01*
X9387897Y50943077D01*
X9296923Y50852103D01*
X9296921Y50852100D01*
X9240419Y50736522D01*
X9240418Y50736520D01*
X9240418Y50736518D01*
X9229500Y50661582D01*
X9229500Y50661578D01*
X9229500Y50661577D01*
X9229500Y50501902D01*
X9209815Y50434863D01*
X9193180Y50414220D01*
X9146105Y50367146D01*
X9126253Y50351023D01*
X9117164Y50345085D01*
X9095363Y50317077D01*
X9090286Y50311326D01*
X9087484Y50308523D01*
X9087474Y50308512D01*
X9073905Y50289505D01*
X9040192Y50246192D01*
X9036447Y50239271D01*
X9032988Y50232196D01*
X9017329Y50179597D01*
X8999500Y50127662D01*
X8998206Y50119908D01*
X8997231Y50112089D01*
X8999500Y50057245D01*
X8999500Y42476804D01*
X8996862Y42451366D01*
X8994633Y42440732D01*
X8994633Y42440731D01*
X8994633Y42440729D01*
X300500Y42440729D01*
X300500Y55675500D01*
X320185Y55742539D01*
X372989Y55788294D01*
X424500Y55799500D01*
X33775500Y55799500D01*
X33842539Y55779815D01*
G37*
%TD.AperFunction*%
%TD*%
%TA.AperFunction,Conductor*%
%TO.N,+3V0*%
G36*
X33643039Y14080315D02*
G01*
X33688794Y14027511D01*
X33700000Y13976000D01*
X33700000Y6424000D01*
X33680315Y6356961D01*
X33627511Y6311206D01*
X33576000Y6300000D01*
X27224000Y6300000D01*
X27156961Y6319685D01*
X27111206Y6372489D01*
X27100000Y6424000D01*
X27100000Y13976000D01*
X27119685Y14043039D01*
X27172489Y14088794D01*
X27224000Y14100000D01*
X33576000Y14100000D01*
X33643039Y14080315D01*
G37*
%TD.AperFunction*%
%TD*%
%TA.AperFunction,Conductor*%
%TO.N,8S*%
G36*
X16743039Y42780315D02*
G01*
X16788794Y42727511D01*
X16800000Y42676000D01*
X16800000Y41524000D01*
X16780315Y41456961D01*
X16727511Y41411206D01*
X16676000Y41400000D01*
X14024000Y41400000D01*
X13956961Y41419685D01*
X13911206Y41472489D01*
X13900000Y41524000D01*
X13900000Y42676000D01*
X13919685Y42743039D01*
X13972489Y42788794D01*
X14024000Y42800000D01*
X16676000Y42800000D01*
X16743039Y42780315D01*
G37*
%TD.AperFunction*%
%TD*%
M02*
