M48
; DRILL file {KiCad 7.0.7} date Mon Sep 25 17:24:55 2023
; FORMAT={-:-/ absolute / inch / decimal}
; #@! TF.CreationDate,2023-09-25T17:24:55+01:00
; #@! TF.GenerationSoftware,Kicad,Pcbnew,7.0.7
; #@! TF.FileFunction,Plated,1,2,PTH
FMAT,2
INCH
; #@! TA.AperFunction,Plated,PTH,ViaDrill
T1C0.0157
; #@! TA.AperFunction,Plated,PTH,ComponentDrill
T2C0.0315
%
G90
G05
T1
X0.1319Y0.5472
X0.1811Y0.5472
X0.2303Y0.5472
X0.2913Y2.0512
X0.3425Y1.6654
X0.6102Y1.4843
X0.6535Y0.3901
X0.6535Y1.4843
X0.6575Y1.7165
X0.6693Y1.3228
X0.6732Y0.9291
X0.689Y1.4843
X0.6928Y0.3916
X0.7962Y1.7362
X0.9646Y1.878
X0.9882Y1.8432
T2
G00X0.5031Y0.3102
M15
G01X0.5031Y0.2748
M16
G05
G00X0.5031Y0.1398
M15
G01X0.5031Y0.1161
M16
G05
G00X0.8433Y0.3102
M15
G01X0.8433Y0.2748
M16
G05
G00X0.8433Y0.1398
M15
G01X0.8433Y0.1161
M16
G05
T0
M30
