M48
; DRILL file {KiCad 7.0.6} date Wed Jul 26 13:56:50 2023
; FORMAT={-:-/ absolute / inch / decimal}
; #@! TF.CreationDate,2023-07-26T13:56:50+01:00
; #@! TF.GenerationSoftware,Kicad,Pcbnew,7.0.6
; #@! TF.FileFunction,Plated,1,2,PTH
FMAT,2
INCH
; #@! TA.AperFunction,Plated,PTH,ViaDrill
T1C0.0157
; #@! TA.AperFunction,Plated,PTH,ComponentDrill
T2C0.0315
%
G90
G05
T1
X0.0354Y0.5394
X0.0354Y0.5039
X0.0354Y0.4685
X0.0354Y0.4331
X0.0354Y0.3701
X0.0354Y0.3346
X0.0354Y0.2992
X0.0354Y0.2638
X0.0512Y0.7717
X0.0709Y0.5394
X0.0709Y0.2638
X0.1063Y0.5394
X0.1063Y0.2638
X0.1417Y0.5394
X0.1417Y0.2638
X0.1772Y0.5394
X0.1772Y0.2638
X0.2126Y0.5394
X0.2126Y0.2638
X0.248Y0.5394
X0.248Y0.2638
X0.3898Y2.0827
X0.3976Y1.9252
X0.6575Y1.7165
X0.6693Y1.3228
X0.6732Y0.9291
X0.9444Y1.8432
X0.9469Y1.2676
X0.9485Y1.2283
X0.9646Y1.878
X1.0984Y0.5394
X1.0984Y0.2638
X1.1339Y0.5394
X1.1339Y0.2638
X1.1693Y0.5394
X1.1693Y0.2638
X1.2047Y0.5394
X1.2047Y0.2638
X1.2402Y0.5394
X1.2402Y0.2638
X1.2756Y0.5394
X1.2756Y0.2638
X1.311Y0.5394
X1.311Y0.5039
X1.311Y0.4685
X1.311Y0.4331
X1.311Y0.3701
X1.311Y0.3346
X1.311Y0.2992
X1.311Y0.2638
T2
G00X1.0283Y1.4181
M15
G01X1.0638Y1.4181
M16
G05
G00X1.0283Y1.078
M15
G01X1.0638Y1.078
M16
G05
G00X1.1988Y1.4181
M15
G01X1.2224Y1.4181
M16
G05
G00X1.1988Y1.078
M15
G01X1.2224Y1.078
M16
G05
T0
M30
