%TF.GenerationSoftware,KiCad,Pcbnew,7.0.7*%
%TF.CreationDate,2023-09-25T17:24:59+01:00*%
%TF.ProjectId,Rapid Remote,52617069-6420-4526-956d-6f74652e6b69,C*%
%TF.SameCoordinates,PX8044ea0PY76ec560*%
%TF.FileFunction,Copper,L1,Top*%
%TF.FilePolarity,Positive*%
%FSLAX46Y46*%
G04 Gerber Fmt 4.6, Leading zero omitted, Abs format (unit mm)*
G04 Created by KiCad (PCBNEW 7.0.7) date 2023-09-25 17:24:59*
%MOMM*%
%LPD*%
G01*
G04 APERTURE LIST*
G04 Aperture macros list*
%AMRoundRect*
0 Rectangle with rounded corners*
0 $1 Rounding radius*
0 $2 $3 $4 $5 $6 $7 $8 $9 X,Y pos of 4 corners*
0 Add a 4 corners polygon primitive as box body*
4,1,4,$2,$3,$4,$5,$6,$7,$8,$9,$2,$3,0*
0 Add four circle primitives for the rounded corners*
1,1,$1+$1,$2,$3*
1,1,$1+$1,$4,$5*
1,1,$1+$1,$6,$7*
1,1,$1+$1,$8,$9*
0 Add four rect primitives between the rounded corners*
20,1,$1+$1,$2,$3,$4,$5,0*
20,1,$1+$1,$4,$5,$6,$7,0*
20,1,$1+$1,$6,$7,$8,$9,0*
20,1,$1+$1,$8,$9,$2,$3,0*%
%AMFreePoly0*
4,1,19,0.500000,-0.750000,0.000000,-0.750000,0.000000,-0.744911,-0.071157,-0.744911,-0.207708,-0.704816,-0.327430,-0.627875,-0.420627,-0.520320,-0.479746,-0.390866,-0.500000,-0.250000,-0.500000,0.250000,-0.479746,0.390866,-0.420627,0.520320,-0.327430,0.627875,-0.207708,0.704816,-0.071157,0.744911,0.000000,0.744911,0.000000,0.750000,0.500000,0.750000,0.500000,-0.750000,0.500000,-0.750000,
$1*%
%AMFreePoly1*
4,1,19,0.000000,0.744911,0.071157,0.744911,0.207708,0.704816,0.327430,0.627875,0.420627,0.520320,0.479746,0.390866,0.500000,0.250000,0.500000,-0.250000,0.479746,-0.390866,0.420627,-0.520320,0.327430,-0.627875,0.207708,-0.704816,0.071157,-0.744911,0.000000,-0.744911,0.000000,-0.750000,-0.500000,-0.750000,-0.500000,0.750000,0.000000,0.750000,0.000000,0.744911,0.000000,0.744911,
$1*%
G04 Aperture macros list end*
%TA.AperFunction,SMDPad,CuDef*%
%ADD10R,0.350000X0.650000*%
%TD*%
%TA.AperFunction,SMDPad,CuDef*%
%ADD11R,1.600000X1.000000*%
%TD*%
%TA.AperFunction,SMDPad,CuDef*%
%ADD12RoundRect,0.200000X-0.275000X0.200000X-0.275000X-0.200000X0.275000X-0.200000X0.275000X0.200000X0*%
%TD*%
%TA.AperFunction,SMDPad,CuDef*%
%ADD13RoundRect,0.225000X0.225000X0.250000X-0.225000X0.250000X-0.225000X-0.250000X0.225000X-0.250000X0*%
%TD*%
%TA.AperFunction,SMDPad,CuDef*%
%ADD14RoundRect,0.225000X-0.225000X-0.250000X0.225000X-0.250000X0.225000X0.250000X-0.225000X0.250000X0*%
%TD*%
%TA.AperFunction,SMDPad,CuDef*%
%ADD15RoundRect,0.150000X0.150000X0.200000X-0.150000X0.200000X-0.150000X-0.200000X0.150000X-0.200000X0*%
%TD*%
%TA.AperFunction,SMDPad,CuDef*%
%ADD16RoundRect,0.218750X-0.256250X0.218750X-0.256250X-0.218750X0.256250X-0.218750X0.256250X0.218750X0*%
%TD*%
%TA.AperFunction,SMDPad,CuDef*%
%ADD17RoundRect,0.200000X-0.200000X-0.275000X0.200000X-0.275000X0.200000X0.275000X-0.200000X0.275000X0*%
%TD*%
%TA.AperFunction,SMDPad,CuDef*%
%ADD18RoundRect,0.200000X0.275000X-0.200000X0.275000X0.200000X-0.275000X0.200000X-0.275000X-0.200000X0*%
%TD*%
%TA.AperFunction,SMDPad,CuDef*%
%ADD19R,0.800000X0.400000*%
%TD*%
%TA.AperFunction,SMDPad,CuDef*%
%ADD20R,0.400000X0.800000*%
%TD*%
%TA.AperFunction,SMDPad,CuDef*%
%ADD21R,1.450000X1.450000*%
%TD*%
%TA.AperFunction,SMDPad,CuDef*%
%ADD22R,0.700000X0.700000*%
%TD*%
%TA.AperFunction,SMDPad,CuDef*%
%ADD23RoundRect,0.225000X-0.250000X0.225000X-0.250000X-0.225000X0.250000X-0.225000X0.250000X0.225000X0*%
%TD*%
%TA.AperFunction,SMDPad,CuDef*%
%ADD24RoundRect,0.150000X-0.150000X-0.200000X0.150000X-0.200000X0.150000X0.200000X-0.150000X0.200000X0*%
%TD*%
%TA.AperFunction,SMDPad,CuDef*%
%ADD25RoundRect,0.200000X0.200000X0.275000X-0.200000X0.275000X-0.200000X-0.275000X0.200000X-0.275000X0*%
%TD*%
%TA.AperFunction,SMDPad,CuDef*%
%ADD26RoundRect,0.225000X0.250000X-0.225000X0.250000X0.225000X-0.250000X0.225000X-0.250000X-0.225000X0*%
%TD*%
%TA.AperFunction,ConnectorPad*%
%ADD27R,1.100000X2.200000*%
%TD*%
%TA.AperFunction,ComponentPad*%
%ADD28O,1.200000X2.200000*%
%TD*%
%TA.AperFunction,ConnectorPad*%
%ADD29R,1.100000X2.000000*%
%TD*%
%TA.AperFunction,ComponentPad*%
%ADD30O,1.300000X2.000000*%
%TD*%
%TA.AperFunction,SMDPad,CuDef*%
%ADD31R,0.300000X1.150000*%
%TD*%
%TA.AperFunction,SMDPad,CuDef*%
%ADD32R,0.250000X1.150000*%
%TD*%
%TA.AperFunction,SMDPad,CuDef*%
%ADD33RoundRect,0.250000X1.500000X-0.250000X1.500000X0.250000X-1.500000X0.250000X-1.500000X-0.250000X0*%
%TD*%
%TA.AperFunction,SMDPad,CuDef*%
%ADD34RoundRect,0.250001X1.449999X-0.499999X1.449999X0.499999X-1.449999X0.499999X-1.449999X-0.499999X0*%
%TD*%
%TA.AperFunction,SMDPad,CuDef*%
%ADD35RoundRect,0.150000X0.150000X-0.512500X0.150000X0.512500X-0.150000X0.512500X-0.150000X-0.512500X0*%
%TD*%
%TA.AperFunction,SMDPad,CuDef*%
%ADD36R,0.650000X0.350000*%
%TD*%
%TA.AperFunction,SMDPad,CuDef*%
%ADD37R,1.000000X1.600000*%
%TD*%
%TA.AperFunction,SMDPad,CuDef*%
%ADD38FreePoly0,180.000000*%
%TD*%
%TA.AperFunction,SMDPad,CuDef*%
%ADD39FreePoly1,180.000000*%
%TD*%
%TA.AperFunction,ViaPad*%
%ADD40C,0.800000*%
%TD*%
%TA.AperFunction,Conductor*%
%ADD41C,0.300000*%
%TD*%
%TA.AperFunction,Conductor*%
%ADD42C,0.250000*%
%TD*%
%TA.AperFunction,Conductor*%
%ADD43C,0.508000*%
%TD*%
%TA.AperFunction,Conductor*%
%ADD44C,0.254000*%
%TD*%
%TA.AperFunction,Conductor*%
%ADD45C,0.500000*%
%TD*%
%TA.AperFunction,Conductor*%
%ADD46C,1.000000*%
%TD*%
%TA.AperFunction,Conductor*%
%ADD47C,0.600000*%
%TD*%
%TA.AperFunction,Conductor*%
%ADD48C,0.400000*%
%TD*%
%TA.AperFunction,Conductor*%
%ADD49C,0.200000*%
%TD*%
G04 APERTURE END LIST*
D10*
%TO.P,U4,1,VDD*%
%TO.N,Net-(U4-VDD)*%
X4950000Y23150000D03*
%TO.P,U4,2,GND*%
%TO.N,GND*%
X4300000Y23150000D03*
%TO.P,U4,3,GND*%
X3650000Y23150000D03*
%TO.P,U4,4,VM*%
%TO.N,Net-(J1-Pin_2)*%
X3650000Y21050000D03*
%TO.P,U4,5,VM*%
X4300000Y21050000D03*
%TO.P,U4,6,VM*%
X4950000Y21050000D03*
D11*
%TO.P,U4,7,EP*%
%TO.N,GND*%
X4300000Y22100000D03*
%TD*%
D12*
%TO.P,R7,1,1*%
%TO.N,8S*%
X16122000Y40562000D03*
%TO.P,R7,2,2*%
%TO.N,GND*%
X16122000Y38912000D03*
%TD*%
D13*
%TO.P,C4,1*%
%TO.N,+5V*%
X7475000Y8800000D03*
%TO.P,C4,2*%
%TO.N,GND*%
X5925000Y8800000D03*
%TD*%
D14*
%TO.P,C1,1*%
%TO.N,+3V8*%
X15150000Y14625000D03*
%TO.P,C1,2*%
%TO.N,GND*%
X16700000Y14625000D03*
%TD*%
D15*
%TO.P,D1,1,K*%
%TO.N,EN_LDO*%
X12800000Y42000000D03*
%TO.P,D1,2,A*%
%TO.N,8S*%
X14200000Y42000000D03*
%TD*%
D14*
%TO.P,C5,1*%
%TO.N,+3V8*%
X4225000Y10300000D03*
%TO.P,C5,2*%
%TO.N,GND*%
X5775000Y10300000D03*
%TD*%
D16*
%TO.P,D5,1,K*%
%TO.N,Net-(D5-K)*%
X3150000Y6787500D03*
%TO.P,D5,2,A*%
%TO.N,Net-(D5-A)*%
X3150000Y5212500D03*
%TD*%
D14*
%TO.P,C2,1*%
%TO.N,+3V3*%
X15325000Y20325000D03*
%TO.P,C2,2*%
%TO.N,GND*%
X16875000Y20325000D03*
%TD*%
D17*
%TO.P,R4,1*%
%TO.N,Net-(USB-C1-CC2)*%
X19105000Y10004000D03*
%TO.P,R4,2*%
%TO.N,GND*%
X20755000Y10004000D03*
%TD*%
D18*
%TO.P,R10,1,1*%
%TO.N,6S*%
X15487000Y31927000D03*
%TO.P,R10,2,2*%
%TO.N,Net-(s6-1)*%
X15487000Y33577000D03*
%TD*%
D12*
%TO.P,R1,1,1*%
%TO.N,Net-(U4-VDD)*%
X7850000Y23075000D03*
%TO.P,R1,2,2*%
%TO.N,+3V8*%
X7850000Y21425000D03*
%TD*%
D19*
%TO.P,U2,1,GND*%
%TO.N,GND*%
X11200000Y54500000D03*
%TO.P,U2,2,GND*%
X11200000Y53700000D03*
%TO.P,U2,3,3V3*%
%TO.N,+3V3*%
X11200000Y52900000D03*
%TO.P,U2,4,NC*%
%TO.N,unconnected-(U2-NC-Pad4)*%
X11200000Y52100000D03*
%TO.P,U2,5,IO2/GPIO2/ADC1_CH2/FSPIQ*%
%TO.N,+3V3*%
X11200000Y51300000D03*
%TO.P,U2,6,IO3/GPIO3/ADC1_CH3*%
%TO.N,LATCH*%
X11200000Y50500000D03*
%TO.P,U2,7,NC*%
%TO.N,unconnected-(U2-NC-Pad7)*%
X11200000Y49700000D03*
%TO.P,U2,8,EN*%
%TO.N,Net-(U2-EN)*%
X11200000Y48900000D03*
%TO.P,U2,9,NC*%
%TO.N,unconnected-(U2-NC-Pad9)*%
X11200000Y48100000D03*
%TO.P,U2,10,NC*%
%TO.N,unconnected-(U2-NC-Pad10)*%
X11200000Y47300000D03*
%TO.P,U2,11,GND*%
%TO.N,GND*%
X11200000Y46500000D03*
D20*
%TO.P,U2,12,IO0/GPIO0/ADC1_CH0/XTAL_32K_P*%
%TO.N,unconnected-(U2-IO0{slash}GPIO0{slash}ADC1_CH0{slash}XTAL_32K_P-Pad12)*%
X12300000Y45600000D03*
%TO.P,U2,13,IO1/GPIO1/ADC1_CH1/XTAL_32K_N*%
%TO.N,unconnected-(U2-IO1{slash}GPIO1{slash}ADC1_CH1{slash}XTAL_32K_N-Pad13)*%
X13100000Y45600000D03*
%TO.P,U2,14,GND*%
%TO.N,GND*%
X13900000Y45600000D03*
%TO.P,U2,15,NC*%
%TO.N,unconnected-(U2-NC-Pad15)*%
X14700000Y45600000D03*
%TO.P,U2,16,IO10/GPIO10/FSPICS0*%
%TO.N,unconnected-(U2-IO10{slash}GPIO10{slash}FSPICS0-Pad16)*%
X15500000Y45600000D03*
%TO.P,U2,17,NC*%
%TO.N,unconnected-(U2-NC-Pad17)*%
X16300000Y45600000D03*
%TO.P,U2,18,IO4/GPIO4/ADC1_CH4/FSPIHD/MTMS*%
%TO.N,unconnected-(U2-IO4{slash}GPIO4{slash}ADC1_CH4{slash}FSPIHD{slash}MTMS-Pad18)*%
X17100000Y45600000D03*
%TO.P,U2,19,IO5/GPIO5/ADC2_CH0/FSPIWP/MTDI*%
%TO.N,8S*%
X17900000Y45600000D03*
%TO.P,U2,20,IO6/GPIO6/FSPICLK/MTCK*%
%TO.N,6S*%
X18700000Y45600000D03*
%TO.P,U2,21,IO7/GPIO7/FSPID/MTDO*%
%TO.N,4S*%
X19500000Y45600000D03*
%TO.P,U2,22,IO8/GPIO8*%
%TO.N,+3V3*%
X20300000Y45600000D03*
%TO.P,U2,23,IO9/GPIO9*%
%TO.N,Net-(U2-IO9{slash}GPIO9)*%
X21100000Y45600000D03*
%TO.P,U2,24,NC*%
%TO.N,unconnected-(U2-NC-Pad24)*%
X21900000Y45600000D03*
D19*
%TO.P,U2,25,NC*%
%TO.N,unconnected-(U2-NC-Pad25)*%
X23000000Y46500000D03*
%TO.P,U2,26,IO18/GPIO18/USB_D-*%
%TO.N,USB_D-*%
X23000000Y47300000D03*
%TO.P,U2,27,IO19/GPIO19/USB_D+*%
%TO.N,USB_D+*%
X23000000Y48100000D03*
%TO.P,U2,28,NC*%
%TO.N,unconnected-(U2-NC-Pad28)*%
X23000000Y48900000D03*
%TO.P,U2,29,NC*%
%TO.N,unconnected-(U2-NC-Pad29)*%
X23000000Y49700000D03*
%TO.P,U2,30,RXD0/GPIO20/U0RXD*%
%TO.N,unconnected-(U2-RXD0{slash}GPIO20{slash}U0RXD-Pad30)*%
X23000000Y50500000D03*
%TO.P,U2,31,TXD0/GPIO21/U0TXD*%
%TO.N,unconnected-(U2-TXD0{slash}GPIO21{slash}U0TXD-Pad31)*%
X23000000Y51300000D03*
%TO.P,U2,32,NC*%
%TO.N,unconnected-(U2-NC-Pad32)*%
X23000000Y52100000D03*
%TO.P,U2,33,NC*%
%TO.N,unconnected-(U2-NC-Pad33)*%
X23000000Y52900000D03*
%TO.P,U2,34,NC*%
%TO.N,unconnected-(U2-NC-Pad34)*%
X23000000Y53700000D03*
%TO.P,U2,35,NC*%
%TO.N,unconnected-(U2-NC-Pad35)*%
X23000000Y54500000D03*
D20*
%TO.P,U2,36,GND*%
%TO.N,GND*%
X21900000Y55400000D03*
%TO.P,U2,37,GND*%
X21100000Y55400000D03*
%TO.P,U2,38,GND*%
X20300000Y55400000D03*
%TO.P,U2,39,GND*%
X19500000Y55400000D03*
%TO.P,U2,40,GND*%
X18700000Y55400000D03*
%TO.P,U2,41,GND*%
X17900000Y55400000D03*
%TO.P,U2,42,GND*%
X17100000Y55400000D03*
%TO.P,U2,43,GND*%
X16300000Y55400000D03*
%TO.P,U2,44,GND*%
X15500000Y55400000D03*
%TO.P,U2,45,GND*%
X14700000Y55400000D03*
%TO.P,U2,46,GND*%
X13900000Y55400000D03*
%TO.P,U2,47,GND*%
X13100000Y55400000D03*
%TO.P,U2,48,GND*%
X12300000Y55400000D03*
D21*
%TO.P,U2,49,GND*%
X15125000Y52475000D03*
X15125000Y50500000D03*
X15125000Y48525000D03*
X17100000Y52475000D03*
X17100000Y50500000D03*
X17100000Y48525000D03*
X19075000Y52475000D03*
X19075000Y50500000D03*
X19075000Y48525000D03*
D22*
%TO.P,U2,50,GND*%
X23050000Y55450000D03*
%TO.P,U2,51,GND*%
X23050000Y45550000D03*
%TO.P,U2,52,GND*%
X11150000Y45550000D03*
%TO.P,U2,53,GND*%
X11150000Y55450000D03*
%TD*%
D17*
%TO.P,R13,1,1*%
%TO.N,Net-(U2-IO9{slash}GPIO9)*%
X21275000Y43900000D03*
%TO.P,R13,2,2*%
%TO.N,Net-(JP1-B)*%
X22925000Y43900000D03*
%TD*%
D12*
%TO.P,R14,1,1*%
%TO.N,4S*%
X15487000Y24433000D03*
%TO.P,R14,2,2*%
%TO.N,Net-(s4-1)*%
X15487000Y22783000D03*
%TD*%
D23*
%TO.P,C7,1*%
%TO.N,6S*%
X15487000Y30479000D03*
%TO.P,C7,2*%
%TO.N,GND*%
X15487000Y28929000D03*
%TD*%
D24*
%TO.P,D4,1,K*%
%TO.N,EN_LDO*%
X11500000Y42000000D03*
%TO.P,D4,2,A*%
%TO.N,LATCH*%
X10100000Y42000000D03*
%TD*%
D23*
%TO.P,C6,1*%
%TO.N,8S*%
X14598000Y40499000D03*
%TO.P,C6,2*%
%TO.N,GND*%
X14598000Y38949000D03*
%TD*%
D12*
%TO.P,R3,1,1*%
%TO.N,Net-(U3-PRG)*%
X6650000Y4825000D03*
%TO.P,R3,2,2*%
%TO.N,GND*%
X6650000Y3175000D03*
%TD*%
D18*
%TO.P,R6,1,1*%
%TO.N,8S*%
X15614000Y41960000D03*
%TO.P,R6,2,2*%
%TO.N,Net-(s8-1)*%
X15614000Y43610000D03*
%TD*%
%TO.P,R15,1,1*%
%TO.N,4S*%
X17011000Y25831000D03*
%TO.P,R15,2,2*%
%TO.N,GND*%
X17011000Y27481000D03*
%TD*%
D25*
%TO.P,R8,1,1*%
%TO.N,EN_LDO*%
X12756000Y36943000D03*
%TO.P,R8,2,2*%
%TO.N,GND*%
X11106000Y36943000D03*
%TD*%
D12*
%TO.P,R12,1,1*%
%TO.N,+3V3*%
X9600000Y51325000D03*
%TO.P,R12,2,2*%
%TO.N,Net-(U2-EN)*%
X9600000Y49675000D03*
%TD*%
D26*
%TO.P,C8,1*%
%TO.N,4S*%
X15487000Y25881000D03*
%TO.P,C8,2*%
%TO.N,GND*%
X15487000Y27431000D03*
%TD*%
D15*
%TO.P,D2,1,K*%
%TO.N,EN_LDO*%
X12800000Y30847000D03*
%TO.P,D2,2,A*%
%TO.N,6S*%
X14200000Y30847000D03*
%TD*%
D18*
%TO.P,R9,1,1*%
%TO.N,LATCH*%
X6600000Y49675000D03*
%TO.P,R9,2,2*%
%TO.N,GND*%
X6600000Y51325000D03*
%TD*%
D27*
%TO.P,USB-C1,0,SHELL*%
%TO.N,GND*%
X22027600Y7430000D03*
D28*
X21420000Y7430000D03*
X12780000Y7430000D03*
D27*
X12172400Y7430000D03*
D29*
X22027600Y3250000D03*
D30*
X21420000Y3250000D03*
X12780000Y3250000D03*
D29*
X12172400Y3250000D03*
D31*
%TO.P,USB-C1,A1,GND*%
X13775000Y8332000D03*
%TO.P,USB-C1,A4,VBUS*%
%TO.N,+5V*%
X14575000Y8332000D03*
D32*
%TO.P,USB-C1,A5,CC1*%
%TO.N,Net-(USB-C1-CC1)*%
X15850000Y8332000D03*
%TO.P,USB-C1,A6,DP1*%
%TO.N,USB_D+*%
X16850000Y8332000D03*
%TO.P,USB-C1,A7,DN1*%
%TO.N,USB_D-*%
X17350000Y8332000D03*
%TO.P,USB-C1,A8,SBU1*%
%TO.N,unconnected-(USB-C1-SBU1-PadA8)*%
X18350000Y8332000D03*
D31*
%TO.P,USB-C1,A9,VBUS*%
%TO.N,+5V*%
X19625000Y8332000D03*
%TO.P,USB-C1,A12,GND*%
%TO.N,GND*%
X20425000Y8332000D03*
%TO.P,USB-C1,B1,GND*%
X20175000Y8332000D03*
%TO.P,USB-C1,B4,VBUS*%
%TO.N,+5V*%
X19375000Y8332000D03*
D32*
%TO.P,USB-C1,B5,CC2*%
%TO.N,Net-(USB-C1-CC2)*%
X18850000Y8332000D03*
%TO.P,USB-C1,B6,DP2*%
%TO.N,USB_D+*%
X17850000Y8332000D03*
%TO.P,USB-C1,B7,DN2*%
%TO.N,USB_D-*%
X16350000Y8332000D03*
%TO.P,USB-C1,B8,SBU2*%
%TO.N,unconnected-(USB-C1-SBU2-PadB8)*%
X15350000Y8332000D03*
D31*
%TO.P,USB-C1,B9,VBUS*%
%TO.N,+5V*%
X14825000Y8332000D03*
%TO.P,USB-C1,B12,GND*%
%TO.N,GND*%
X14025000Y8332000D03*
%TD*%
D15*
%TO.P,D3,1,K*%
%TO.N,EN_LDO*%
X12755000Y25132000D03*
%TO.P,D3,2,A*%
%TO.N,4S*%
X14155000Y25132000D03*
%TD*%
D23*
%TO.P,C3,1*%
%TO.N,Net-(U4-VDD)*%
X6350000Y23025000D03*
%TO.P,C3,2*%
%TO.N,GND*%
X6350000Y21475000D03*
%TD*%
D25*
%TO.P,R5,1*%
%TO.N,Net-(USB-C1-CC1)*%
X15421000Y9897000D03*
%TO.P,R5,2*%
%TO.N,GND*%
X13771000Y9897000D03*
%TD*%
D33*
%TO.P,J1,1,Pin_1*%
%TO.N,+3V8*%
X4550000Y14750000D03*
%TO.P,J1,2,Pin_2*%
%TO.N,Net-(J1-Pin_2)*%
X4550000Y16750000D03*
D34*
%TO.P,J1,MP*%
%TO.N,N/C*%
X10300000Y12400000D03*
X10300000Y19100000D03*
%TD*%
D12*
%TO.P,R11,1,1*%
%TO.N,6S*%
X17011000Y30529000D03*
%TO.P,R11,2,2*%
%TO.N,GND*%
X17011000Y28879000D03*
%TD*%
D26*
%TO.P,C9,1*%
%TO.N,Net-(U2-EN)*%
X8100000Y49725000D03*
%TO.P,C9,2*%
%TO.N,GND*%
X8100000Y51275000D03*
%TD*%
D35*
%TO.P,U1,1,VIN*%
%TO.N,+3V8*%
X15200000Y16350000D03*
%TO.P,U1,2,GND*%
%TO.N,GND*%
X16150000Y16350000D03*
%TO.P,U1,3,EN*%
%TO.N,+3V8*%
X17100000Y16350000D03*
%TO.P,U1,4,NC*%
%TO.N,unconnected-(U1-NC-Pad4)*%
X17100000Y18625000D03*
%TO.P,U1,5,VOUT*%
%TO.N,+3V3*%
X15200000Y18625000D03*
%TD*%
D18*
%TO.P,R2,1,1*%
%TO.N,Net-(D5-A)*%
X8250000Y3975000D03*
%TO.P,R2,2,2*%
%TO.N,+5V*%
X8250000Y5625000D03*
%TD*%
D36*
%TO.P,U3,1,PRG*%
%TO.N,Net-(U3-PRG)*%
X6700000Y6150000D03*
%TO.P,U3,2,GND*%
%TO.N,GND*%
X6700000Y6800000D03*
%TO.P,U3,3,VCC*%
%TO.N,+5V*%
X6700000Y7450000D03*
%TO.P,U3,4,VBAT*%
%TO.N,+3V8*%
X4600000Y7450000D03*
%TO.P,U3,5,STAT*%
%TO.N,Net-(D5-K)*%
X4600000Y6800000D03*
%TO.P,U3,6,TEMP*%
%TO.N,unconnected-(U3-TEMP-Pad6)*%
X4600000Y6150000D03*
D37*
%TO.P,U3,7,EP*%
%TO.N,GND*%
X5650000Y6800000D03*
%TD*%
D38*
%TO.P,JP1,1,A*%
%TO.N,GND*%
X26350000Y43900000D03*
D39*
%TO.P,JP1,2,B*%
%TO.N,Net-(JP1-B)*%
X25050000Y43900000D03*
%TD*%
D40*
%TO.N,GND*%
X7400000Y52100000D03*
X15500000Y37700000D03*
X17500000Y37700000D03*
X16600000Y37700000D03*
%TO.N,+3V3*%
X8700000Y42300000D03*
X20224500Y44100000D03*
%TO.N,Net-(s8-1)*%
X16700000Y43600000D03*
%TO.N,Net-(s6-1)*%
X17000000Y33600000D03*
%TO.N,Net-(s4-1)*%
X17100000Y23600000D03*
%TO.N,USB_D-*%
X17598000Y9947800D03*
X25100000Y46817572D03*
%TO.N,USB_D+*%
X24500000Y47700000D03*
X16599266Y9908615D03*
%TO.N,+3V8*%
X4600000Y13900000D03*
X3350000Y13900000D03*
X5850000Y13900000D03*
%TD*%
D41*
%TO.N,+5V*%
X8250000Y5625000D02*
X8250000Y6650000D01*
D42*
X14825000Y8332000D02*
X14575000Y8332000D01*
D43*
X17009000Y6686000D02*
X15948000Y5625000D01*
D41*
X7450000Y7450000D02*
X7400000Y7450000D01*
D42*
X7475000Y8800000D02*
X7475000Y7525000D01*
D44*
X19625000Y8332000D02*
X19625000Y7687000D01*
D43*
X15639500Y6686000D02*
X18624000Y6686000D01*
X15948000Y5625000D02*
X8250000Y5625000D01*
D41*
X7400000Y7450000D02*
X6700000Y7450000D01*
D43*
X15576000Y6686000D02*
X14687000Y7575000D01*
X14687000Y7575000D02*
X14687000Y7956000D01*
D42*
X7475000Y7525000D02*
X7400000Y7450000D01*
D43*
X18624000Y6686000D02*
X19513000Y7575000D01*
D44*
X19375000Y8332000D02*
X19375000Y7713000D01*
D41*
X8250000Y6650000D02*
X7450000Y7450000D01*
D42*
%TO.N,GND*%
X11150000Y46450000D02*
X11200000Y46500000D01*
D45*
X5925000Y8800000D02*
X5925000Y10150000D01*
D46*
X17100000Y50500000D02*
X17100000Y48525000D01*
D42*
X14025000Y8332000D02*
X13682000Y8332000D01*
X20518000Y8332000D02*
X21420000Y7430000D01*
D45*
X17011000Y28879000D02*
X15537000Y28879000D01*
D46*
X15125000Y52475000D02*
X15125000Y50500000D01*
D42*
X3650000Y23150000D02*
X3650000Y23950000D01*
D47*
X23050000Y55450000D02*
X21950000Y55450000D01*
D46*
X15125000Y50500000D02*
X15125000Y48525000D01*
D45*
X15487000Y27431000D02*
X16961000Y27431000D01*
D42*
X5925000Y10150000D02*
X5775000Y10300000D01*
X16961000Y27431000D02*
X17011000Y27481000D01*
D47*
X11150000Y54550000D02*
X11200000Y54500000D01*
D42*
X11150000Y45550000D02*
X11150000Y46450000D01*
X20175000Y8332000D02*
X20518000Y8332000D01*
D46*
X17100000Y52475000D02*
X15125000Y52475000D01*
D42*
X16150000Y15175000D02*
X16700000Y14625000D01*
X14635000Y38912000D02*
X14598000Y38949000D01*
D45*
X16122000Y38322000D02*
X16122000Y38912000D01*
D42*
X16150000Y16350000D02*
X16150000Y15175000D01*
D46*
X17100000Y50500000D02*
X17100000Y52475000D01*
D45*
X15487000Y28829000D02*
X15537000Y28879000D01*
D42*
X4300000Y23150000D02*
X4300000Y23900000D01*
D46*
X19075000Y50500000D02*
X19075000Y52475000D01*
X19075000Y52475000D02*
X17100000Y52475000D01*
D42*
X12250000Y55450000D02*
X12300000Y55400000D01*
X4300000Y22100000D02*
X4300000Y23150000D01*
D45*
X17011000Y28879000D02*
X17011000Y27481000D01*
D42*
X6700000Y6800000D02*
X5650000Y6800000D01*
D45*
X15500000Y37700000D02*
X16122000Y38322000D01*
D46*
X17100000Y48525000D02*
X19075000Y48525000D01*
D45*
X16122000Y38912000D02*
X14635000Y38912000D01*
D46*
X17100000Y50500000D02*
X19075000Y50500000D01*
D42*
X15537000Y28879000D02*
X15487000Y28929000D01*
D46*
X17100000Y48525000D02*
X15125000Y48525000D01*
X19075000Y48525000D02*
X19075000Y50500000D01*
D47*
X11150000Y55450000D02*
X12250000Y55450000D01*
D42*
X21950000Y55450000D02*
X21900000Y55400000D01*
X3650000Y22750000D02*
X4300000Y22100000D01*
D46*
X17100000Y50500000D02*
X15125000Y50500000D01*
D45*
X15487000Y27431000D02*
X15487000Y28829000D01*
D47*
X11150000Y55450000D02*
X11150000Y54550000D01*
D42*
X13682000Y8332000D02*
X12780000Y7430000D01*
X3650000Y23150000D02*
X3650000Y22750000D01*
%TO.N,EN_LDO*%
X12800000Y42000000D02*
X11500000Y42000000D01*
X12800000Y25500000D02*
X12800000Y32500000D01*
X12800000Y42000000D02*
X12800000Y32500000D01*
%TO.N,8S*%
X17900000Y45600000D02*
X17900000Y42700000D01*
X15677000Y42023000D02*
X15614000Y41960000D01*
X17223000Y42023000D02*
X15677000Y42023000D01*
X17900000Y42700000D02*
X17223000Y42023000D01*
%TO.N,6S*%
X18700000Y33900000D02*
X16400000Y31600000D01*
X18700000Y45600000D02*
X18700000Y33900000D01*
%TO.N,4S*%
X19500000Y25800000D02*
X19400000Y25700000D01*
X16300000Y25490000D02*
X19190000Y25490000D01*
X19500000Y45600000D02*
X19500000Y25800000D01*
X19190000Y25490000D02*
X19400000Y25700000D01*
%TO.N,LATCH*%
X6600000Y49675000D02*
X6600000Y50300000D01*
X6600000Y49675000D02*
X6600000Y46500000D01*
X10100000Y43000000D02*
X10100000Y42000000D01*
X11200000Y50500000D02*
X6800000Y50500000D01*
X6800000Y50500000D02*
X6600000Y50300000D01*
X6600000Y46500000D02*
X10100000Y43000000D01*
%TO.N,Net-(USB-C1-CC2)*%
X18854000Y8324200D02*
X18854000Y9687800D01*
X18854000Y9687800D02*
X19105000Y9938800D01*
%TO.N,Net-(USB-C1-CC1)*%
X15854000Y8324200D02*
X15854000Y9280800D01*
X15854000Y9280800D02*
X15237800Y9897000D01*
D48*
%TO.N,+3V3*%
X5300000Y52300000D02*
X5300000Y45672183D01*
X5300000Y45672183D02*
X9475000Y41497183D01*
D42*
X15200000Y18625000D02*
X15200000Y20200000D01*
D48*
X9475000Y41497183D02*
X9475000Y23725000D01*
X5900000Y52900000D02*
X5300000Y52300000D01*
X9600000Y52600000D02*
X9900000Y52900000D01*
X9900000Y52900000D02*
X5900000Y52900000D01*
D42*
X20300000Y45600000D02*
X20300000Y44175500D01*
X15200000Y20200000D02*
X15325000Y20325000D01*
D48*
X9600000Y51325000D02*
X9600000Y52600000D01*
D42*
X9625000Y51300000D02*
X9600000Y51325000D01*
X20300000Y44175500D02*
X20224500Y44100000D01*
D48*
X12875000Y20325000D02*
X15325000Y20325000D01*
X9475000Y23725000D02*
X12875000Y20325000D01*
X11200000Y52900000D02*
X9900000Y52900000D01*
D42*
X11200000Y51300000D02*
X9625000Y51300000D01*
%TO.N,Net-(s8-1)*%
X15300000Y43610000D02*
X16690000Y43610000D01*
X16690000Y43610000D02*
X16700000Y43600000D01*
%TO.N,Net-(s6-1)*%
X15300000Y33610000D02*
X16990000Y33610000D01*
X16990000Y33610000D02*
X17000000Y33600000D01*
%TO.N,Net-(s4-1)*%
X17100000Y23600000D02*
X16283000Y22783000D01*
X16283000Y22783000D02*
X15233000Y22783000D01*
D47*
%TO.N,Net-(U4-VDD)*%
X7850000Y23075000D02*
X6400000Y23075000D01*
D42*
X5075000Y23025000D02*
X4950000Y23150000D01*
D47*
X6350000Y23025000D02*
X5075000Y23025000D01*
D42*
X6400000Y23075000D02*
X6350000Y23025000D01*
D49*
%TO.N,USB_D-*%
X16445000Y7433200D02*
X17263000Y7433200D01*
X16354000Y8324200D02*
X16354000Y7524200D01*
X23910050Y47300000D02*
X23000000Y47300000D01*
X17598000Y9947800D02*
X17354000Y9703800D01*
X17354000Y7524200D02*
X17354000Y8324200D01*
X17263000Y7433200D02*
X17354000Y7524200D01*
X16354000Y7524200D02*
X16445000Y7433200D01*
X17354000Y9703800D02*
X17354000Y8324200D01*
X24392478Y46817572D02*
X23910050Y47300000D01*
X25100000Y46817572D02*
X24392478Y46817572D01*
%TO.N,USB_D+*%
X18298000Y10237750D02*
X17887950Y10647800D01*
X17887950Y10647800D02*
X17308050Y10647800D01*
X16599266Y9939016D02*
X16599266Y9908615D01*
X18298000Y9657850D02*
X18298000Y10237750D01*
X24100000Y48100000D02*
X23000000Y48100000D01*
X16854000Y9653881D02*
X16599266Y9908615D01*
X24500000Y47700000D02*
X24100000Y48100000D01*
X17854000Y8324200D02*
X17854000Y9213850D01*
X17854000Y9213850D02*
X18298000Y9657850D01*
X17308050Y10647800D02*
X16599266Y9939016D01*
X16854000Y8324200D02*
X16854000Y9653881D01*
D48*
%TO.N,+3V8*%
X15200000Y16350000D02*
X15200000Y14675000D01*
D47*
X3350000Y13900000D02*
X3700000Y13900000D01*
D48*
X17100000Y17100000D02*
X16750000Y17450000D01*
X15550000Y17450000D02*
X15200000Y17100000D01*
X17100000Y16350000D02*
X17100000Y17100000D01*
D47*
X5400000Y13900000D02*
X4550000Y14750000D01*
D48*
X14125000Y14625000D02*
X14100000Y14650000D01*
D47*
X3700000Y13900000D02*
X4550000Y14750000D01*
D48*
X16750000Y17450000D02*
X15550000Y17450000D01*
D42*
X4550000Y13950000D02*
X4600000Y13900000D01*
D48*
X15200000Y17100000D02*
X15200000Y16350000D01*
X15150000Y14625000D02*
X14125000Y14625000D01*
D46*
X4550000Y14750000D02*
X4550000Y13950000D01*
D47*
X5850000Y13900000D02*
X5400000Y13900000D01*
D48*
X15200000Y14675000D02*
X15150000Y14625000D01*
D42*
%TO.N,Net-(U2-EN)*%
X9550000Y49725000D02*
X9600000Y49675000D01*
X9600000Y49200000D02*
X9900000Y48900000D01*
X11200000Y48900000D02*
X9900000Y48900000D01*
X9600000Y49675000D02*
X9600000Y49200000D01*
X8100000Y49725000D02*
X9550000Y49725000D01*
%TO.N,Net-(JP1-B)*%
X25050000Y43900000D02*
X23125000Y43900000D01*
%TO.N,Net-(U3-PRG)*%
X6650000Y6100000D02*
X6700000Y6150000D01*
X6650000Y4825000D02*
X6650000Y6100000D01*
%TO.N,Net-(U2-IO9{slash}GPIO9)*%
X21100000Y44275000D02*
X21100000Y45600000D01*
X21475000Y43900000D02*
X21100000Y44275000D01*
%TO.N,Net-(D5-K)*%
X3150000Y6787500D02*
X4587500Y6787500D01*
X4587500Y6787500D02*
X4600000Y6800000D01*
%TO.N,Net-(D5-A)*%
X4387500Y3975000D02*
X8250000Y3975000D01*
X3150000Y5212500D02*
X4387500Y3975000D01*
%TD*%
%TA.AperFunction,Conductor*%
%TO.N,6S*%
G36*
X17462039Y32351315D02*
G01*
X17507794Y32298511D01*
X17519000Y32247000D01*
X17519000Y30336000D01*
X17499315Y30268961D01*
X17446511Y30223206D01*
X17395000Y30212000D01*
X13960000Y30212000D01*
X13892961Y30231685D01*
X13847206Y30284489D01*
X13836000Y30336000D01*
X13836000Y32247000D01*
X13855685Y32314039D01*
X13908489Y32359794D01*
X13960000Y32371000D01*
X17395000Y32371000D01*
X17462039Y32351315D01*
G37*
%TD.AperFunction*%
%TD*%
%TA.AperFunction,Conductor*%
%TO.N,+3V8*%
G36*
X7925500Y21555038D02*
G01*
X7980038Y21500500D01*
X8000000Y21426000D01*
X8000000Y20898001D01*
X8163314Y20898001D01*
X8181554Y20900402D01*
X8258022Y20890333D01*
X8319211Y20843380D01*
X8348726Y20772122D01*
X8350000Y20752677D01*
X8350000Y15100000D01*
X14428633Y15100000D01*
X14503133Y15080038D01*
X14557671Y15025500D01*
X14577633Y14951000D01*
X14576076Y14929515D01*
X14573000Y14908409D01*
X14573000Y14775000D01*
X15151000Y14775000D01*
X15225500Y14755038D01*
X15280038Y14700500D01*
X15300000Y14626000D01*
X15300000Y14624000D01*
X15280038Y14549500D01*
X15225500Y14494962D01*
X15151000Y14475000D01*
X14573001Y14475000D01*
X14573001Y14341589D01*
X14576077Y14320483D01*
X14567065Y14243883D01*
X14520960Y14182052D01*
X14450117Y14151557D01*
X14428634Y14150000D01*
X8300000Y14150000D01*
X8300000Y11249000D01*
X8280038Y11174500D01*
X8225500Y11119962D01*
X8151000Y11100000D01*
X4900000Y11100000D01*
X4900000Y10956665D01*
X4880038Y10882165D01*
X4825500Y10827627D01*
X4751000Y10807665D01*
X4676500Y10827627D01*
X4664424Y10835399D01*
X4657370Y10840435D01*
X4551828Y10892032D01*
X4483413Y10902000D01*
X4375000Y10902000D01*
X4375000Y9698001D01*
X4483400Y9698001D01*
X4483416Y9698003D01*
X4551828Y9707970D01*
X4657365Y9759563D01*
X4664419Y9764599D01*
X4736650Y9791643D01*
X4812726Y9778949D01*
X4872263Y9729917D01*
X4899307Y9657686D01*
X4900000Y9643336D01*
X4900000Y7901000D01*
X4880038Y7826500D01*
X4825500Y7771962D01*
X4751000Y7752000D01*
X4750000Y7752000D01*
X4750000Y7449000D01*
X4730038Y7374500D01*
X4675500Y7319962D01*
X4601000Y7300000D01*
X3767127Y7300000D01*
X3692627Y7319962D01*
X3661768Y7343641D01*
X3655751Y7349658D01*
X3537421Y7409951D01*
X3521057Y7412543D01*
X3439246Y7425500D01*
X2860754Y7425500D01*
X2813688Y7418046D01*
X2772307Y7411492D01*
X2695601Y7419555D01*
X2633204Y7464891D01*
X2601834Y7535351D01*
X2600000Y7558658D01*
X2600000Y7600000D01*
X4148000Y7600000D01*
X4450000Y7600000D01*
X4450000Y7752000D01*
X4262488Y7752000D01*
X4225447Y7744632D01*
X4183438Y7716563D01*
X4183437Y7716562D01*
X4155368Y7674553D01*
X4148000Y7637512D01*
X4148000Y7600000D01*
X2600000Y7600000D01*
X2600000Y10150000D01*
X3648001Y10150000D01*
X3648001Y10016600D01*
X3648002Y10016584D01*
X3657969Y9948172D01*
X3709562Y9842635D01*
X3792634Y9759563D01*
X3898171Y9707969D01*
X3966590Y9698001D01*
X4074999Y9698002D01*
X4075000Y9698002D01*
X4075000Y10150000D01*
X3648001Y10150000D01*
X2600000Y10150000D01*
X2600000Y10450000D01*
X3648000Y10450000D01*
X4075000Y10450000D01*
X4075000Y10902001D01*
X4074999Y10902001D01*
X3966601Y10902000D01*
X3966583Y10901998D01*
X3898171Y10892031D01*
X3792634Y10840438D01*
X3709562Y10757366D01*
X3657968Y10651829D01*
X3648000Y10583414D01*
X3648000Y10450000D01*
X2600000Y10450000D01*
X2600000Y14062193D01*
X2619962Y14136693D01*
X2674500Y14191231D01*
X2749000Y14211193D01*
X2816235Y14193178D01*
X2816813Y14194359D01*
X2822861Y14191403D01*
X2823500Y14191231D01*
X2824410Y14190645D01*
X2940942Y14133677D01*
X3014217Y14123001D01*
X4399999Y14123001D01*
X4400000Y14123002D01*
X4400000Y14600000D01*
X4700000Y14600000D01*
X4700000Y14123001D01*
X6085776Y14123001D01*
X6085790Y14123003D01*
X6159055Y14133677D01*
X6159060Y14133678D01*
X6272093Y14188936D01*
X6361063Y14277906D01*
X6416323Y14390943D01*
X6426999Y14464213D01*
X6427000Y14464223D01*
X6427000Y14600000D01*
X4700000Y14600000D01*
X4400000Y14600000D01*
X4400000Y14751000D01*
X4419962Y14825500D01*
X4474500Y14880038D01*
X4549000Y14900000D01*
X6426999Y14900000D01*
X6426999Y15035776D01*
X6426997Y15035791D01*
X6414655Y15120509D01*
X6416433Y15120769D01*
X6414034Y15184085D01*
X6450040Y15252293D01*
X6515326Y15293359D01*
X6559314Y15300000D01*
X7400000Y15300000D01*
X7400000Y20749001D01*
X7419962Y20823501D01*
X7474500Y20878039D01*
X7549000Y20898001D01*
X7700000Y20898001D01*
X7700000Y21426000D01*
X7719962Y21500500D01*
X7774500Y21555038D01*
X7849000Y21575000D01*
X7851000Y21575000D01*
X7925500Y21555038D01*
G37*
%TD.AperFunction*%
%TD*%
%TA.AperFunction,Conductor*%
%TO.N,4S*%
G36*
X17432039Y26261315D02*
G01*
X17477794Y26208511D01*
X17489000Y26157000D01*
X17489000Y24274427D01*
X17469315Y24207388D01*
X17416511Y24161633D01*
X17347353Y24151689D01*
X17317548Y24159866D01*
X17256765Y24185043D01*
X17256760Y24185045D01*
X17100001Y24205682D01*
X17099999Y24205682D01*
X16943239Y24185045D01*
X16943234Y24185043D01*
X16797163Y24124539D01*
X16797162Y24124539D01*
X16789278Y24118489D01*
X16728201Y24071623D01*
X16663034Y24046430D01*
X16652717Y24046000D01*
X14024000Y24046000D01*
X13956961Y24065685D01*
X13911206Y24118489D01*
X13900000Y24170000D01*
X13900000Y26157000D01*
X13919685Y26224039D01*
X13972489Y26269794D01*
X14024000Y26281000D01*
X17365000Y26281000D01*
X17432039Y26261315D01*
G37*
%TD.AperFunction*%
%TD*%
%TA.AperFunction,Conductor*%
%TO.N,8S*%
G36*
X16743039Y42399315D02*
G01*
X16788794Y42346511D01*
X16800000Y42295000D01*
X16800000Y40254000D01*
X16780315Y40186961D01*
X16727511Y40141206D01*
X16676000Y40130000D01*
X14024000Y40130000D01*
X13956961Y40149685D01*
X13911206Y40202489D01*
X13900000Y40254000D01*
X13900000Y42295000D01*
X13919685Y42362039D01*
X13972489Y42407794D01*
X14024000Y42419000D01*
X16676000Y42419000D01*
X16743039Y42399315D01*
G37*
%TD.AperFunction*%
%TD*%
%TA.AperFunction,Conductor*%
%TO.N,Net-(J1-Pin_2)*%
G36*
X5068039Y21205315D02*
G01*
X5113794Y21152511D01*
X5125000Y21101000D01*
X5125000Y20598001D01*
X5161319Y20561681D01*
X5159247Y20559610D01*
X5188794Y20525511D01*
X5200000Y20474000D01*
X5200000Y20400000D01*
X6176000Y20400000D01*
X6243039Y20380315D01*
X6288794Y20327511D01*
X6300000Y20276000D01*
X6300000Y17489164D01*
X6280315Y17422125D01*
X6227511Y17376370D01*
X6158353Y17366426D01*
X6158122Y17366460D01*
X6085780Y17377000D01*
X4800000Y17377000D01*
X4800000Y16624000D01*
X4780315Y16556961D01*
X4727511Y16511206D01*
X4676000Y16500000D01*
X4424000Y16500000D01*
X4356961Y16519685D01*
X4311206Y16572489D01*
X4300000Y16624000D01*
X4300000Y17377000D01*
X3014226Y17377000D01*
X2971510Y17370776D01*
X2902333Y17380591D01*
X2849444Y17426247D01*
X2829634Y17493250D01*
X2830940Y17511425D01*
X3268826Y20503648D01*
X3298009Y20567127D01*
X3356882Y20604753D01*
X3415711Y20607306D01*
X3462491Y20598000D01*
X3475000Y20598000D01*
X3475000Y20875000D01*
X3825000Y20875000D01*
X3825000Y20598000D01*
X3837510Y20598000D01*
X3874551Y20605369D01*
X3906108Y20626454D01*
X3972785Y20647332D01*
X4040166Y20628848D01*
X4043892Y20626454D01*
X4075448Y20605369D01*
X4112489Y20598000D01*
X4125000Y20598000D01*
X4125000Y20875000D01*
X4475000Y20875000D01*
X4475000Y20598000D01*
X4487510Y20598000D01*
X4524551Y20605369D01*
X4556108Y20626454D01*
X4622785Y20647332D01*
X4690166Y20628848D01*
X4693892Y20626454D01*
X4725448Y20605369D01*
X4762489Y20598000D01*
X4775000Y20598000D01*
X4775000Y20875000D01*
X4475000Y20875000D01*
X4125000Y20875000D01*
X3825000Y20875000D01*
X3475000Y20875000D01*
X3475000Y21101000D01*
X3494685Y21168039D01*
X3547489Y21213794D01*
X3599000Y21225000D01*
X5001000Y21225000D01*
X5068039Y21205315D01*
G37*
%TD.AperFunction*%
%TD*%
%TA.AperFunction,Conductor*%
%TO.N,GND*%
G36*
X6012343Y8980293D02*
G01*
X6081584Y8925074D01*
X6120011Y8845282D01*
X6125000Y8801000D01*
X6125000Y8198001D01*
X6183402Y8198001D01*
X6209065Y8201740D01*
X6235444Y8199633D01*
X6238111Y8201264D01*
X6357364Y8259563D01*
X6357367Y8259565D01*
X6440435Y8342633D01*
X6440437Y8342636D01*
X6479648Y8422843D01*
X6535273Y8491758D01*
X6615291Y8529712D01*
X6703853Y8529190D01*
X6783418Y8490294D01*
X6835738Y8425789D01*
X6901473Y8296778D01*
X6996778Y8201473D01*
X7009449Y8192267D01*
X7008730Y8191279D01*
X7064101Y8145053D01*
X7100727Y8064418D01*
X7098741Y7975877D01*
X7058534Y7896967D01*
X6988071Y7843315D01*
X6905772Y7825500D01*
X6355247Y7825500D01*
X6345517Y7824542D01*
X6345195Y7827804D01*
X6327603Y7828326D01*
X6313911Y7820968D01*
X6296768Y7813868D01*
X6216959Y7760539D01*
X6134219Y7728954D01*
X6106399Y7727000D01*
X5850000Y7727000D01*
X5850000Y5873000D01*
X6106398Y5873000D01*
X6192741Y5853293D01*
X6216953Y5839465D01*
X6230447Y5830449D01*
X6230448Y5830448D01*
X6236056Y5826701D01*
X6296899Y5762347D01*
X6323796Y5677967D01*
X6324500Y5661237D01*
X6324500Y5570708D01*
X6304793Y5484365D01*
X6249574Y5415124D01*
X6215845Y5393398D01*
X6136655Y5353049D01*
X6046949Y5263343D01*
X5989355Y5150308D01*
X5989353Y5150301D01*
X5974501Y5056526D01*
X5974500Y5056512D01*
X5974500Y4593481D01*
X5984455Y4530627D01*
X5978497Y4442265D01*
X5934789Y4365238D01*
X5861989Y4314804D01*
X5787905Y4300500D01*
X4604755Y4300500D01*
X4518412Y4320207D01*
X4464041Y4358786D01*
X3883786Y4939041D01*
X3836667Y5014029D01*
X3825500Y5079755D01*
X3825500Y5464246D01*
X3825499Y5464247D01*
X3809951Y5562420D01*
X3805728Y5570708D01*
X3749658Y5680752D01*
X3655754Y5774656D01*
X3655751Y5774658D01*
X3561479Y5822693D01*
X3493498Y5879447D01*
X3456872Y5960082D01*
X3458859Y6048623D01*
X3499065Y6127534D01*
X3561478Y6177308D01*
X3655751Y6225342D01*
X3734785Y6304377D01*
X3809773Y6351495D01*
X3897780Y6361412D01*
X3981373Y6332162D01*
X4043998Y6269538D01*
X4073249Y6185945D01*
X4074500Y6163663D01*
X4074500Y5955251D01*
X4086133Y5896768D01*
X4130447Y5830448D01*
X4196767Y5786134D01*
X4196769Y5786133D01*
X4224500Y5780617D01*
X4255250Y5774500D01*
X4255252Y5774500D01*
X4944750Y5774500D01*
X4959320Y5777399D01*
X5003231Y5786133D01*
X5069552Y5830448D01*
X5069553Y5830451D01*
X5083039Y5839461D01*
X5165779Y5871046D01*
X5193600Y5873000D01*
X5450000Y5873000D01*
X5450000Y7727000D01*
X5304500Y7727000D01*
X5218157Y7746707D01*
X5148916Y7801926D01*
X5110489Y7881718D01*
X5105500Y7926000D01*
X5105500Y8166269D01*
X5125207Y8252612D01*
X5180426Y8321853D01*
X5260218Y8360280D01*
X5348782Y8360280D01*
X5428574Y8321853D01*
X5445214Y8306983D01*
X5492633Y8259564D01*
X5598174Y8207969D01*
X5598172Y8207969D01*
X5666594Y8198001D01*
X5725000Y8198001D01*
X5725000Y8801000D01*
X5744707Y8887343D01*
X5799926Y8956584D01*
X5879718Y8995011D01*
X5924000Y9000000D01*
X5926000Y9000000D01*
X6012343Y8980293D01*
G37*
%TD.AperFunction*%
%TA.AperFunction,Conductor*%
G36*
X9086843Y52479793D02*
G01*
X9156084Y52424574D01*
X9194511Y52344782D01*
X9199500Y52300500D01*
X9199500Y52032494D01*
X9179793Y51946151D01*
X9124574Y51876910D01*
X9090853Y51855188D01*
X9086660Y51853052D01*
X8996949Y51763342D01*
X8980643Y51731338D01*
X8923885Y51663353D01*
X8843250Y51626727D01*
X8754708Y51628715D01*
X8675798Y51668922D01*
X8641379Y51706047D01*
X8640437Y51707366D01*
X8557366Y51790437D01*
X8451825Y51842032D01*
X8451827Y51842032D01*
X8383405Y51852000D01*
X8300000Y51852000D01*
X8300000Y51274000D01*
X8280293Y51187657D01*
X8225074Y51118416D01*
X8145282Y51079989D01*
X8101000Y51075000D01*
X8099000Y51075000D01*
X8012657Y51094707D01*
X7943416Y51149926D01*
X7904989Y51229718D01*
X7900000Y51274000D01*
X7900000Y51852000D01*
X7899999Y51852001D01*
X7816595Y51852000D01*
X7748172Y51842032D01*
X7642633Y51790437D01*
X7559564Y51707368D01*
X7559562Y51707365D01*
X7533357Y51653762D01*
X7477730Y51584848D01*
X7397711Y51546895D01*
X7309149Y51547419D01*
X7229585Y51586316D01*
X7174777Y51655883D01*
X7174223Y51657063D01*
X7146995Y51715454D01*
X7065455Y51796994D01*
X7065452Y51796996D01*
X6960942Y51845730D01*
X6960935Y51845732D01*
X6913327Y51852000D01*
X6800000Y51852000D01*
X6800000Y51324000D01*
X6780293Y51237657D01*
X6725074Y51168416D01*
X6645282Y51129989D01*
X6601000Y51125000D01*
X6599000Y51125000D01*
X6512657Y51144707D01*
X6443416Y51199926D01*
X6404989Y51279718D01*
X6400000Y51324000D01*
X6400000Y51852000D01*
X6399999Y51852001D01*
X6286684Y51852000D01*
X6286675Y51851999D01*
X6239062Y51845732D01*
X6239059Y51845731D01*
X6134545Y51796995D01*
X6134544Y51796994D01*
X6040694Y51703143D01*
X6037471Y51706366D01*
X5996783Y51669572D01*
X5911827Y51644554D01*
X5824429Y51658875D01*
X5751900Y51709698D01*
X5708605Y51786958D01*
X5700500Y51843172D01*
X5700500Y52051680D01*
X5720207Y52138023D01*
X5758786Y52192394D01*
X6007606Y52441214D01*
X6082594Y52488333D01*
X6148320Y52499500D01*
X9000500Y52499500D01*
X9086843Y52479793D01*
G37*
%TD.AperFunction*%
%TA.AperFunction,Conductor*%
G36*
X3224481Y61066874D02*
G01*
X3297445Y61016677D01*
X3341404Y60939793D01*
X3350000Y60881937D01*
X3350000Y56100000D01*
X10487704Y56100000D01*
X10574047Y56080293D01*
X10643288Y56025074D01*
X10681715Y55945282D01*
X10682880Y55862176D01*
X10673000Y55812507D01*
X10673000Y55650000D01*
X11151000Y55650000D01*
X11237343Y55630293D01*
X11306584Y55575074D01*
X11345011Y55495282D01*
X11350000Y55451000D01*
X11350000Y55449000D01*
X11330293Y55362657D01*
X11275074Y55293416D01*
X11195282Y55254989D01*
X11151000Y55250000D01*
X10673000Y55250000D01*
X10673000Y55087494D01*
X10680368Y55050449D01*
X10680371Y55050444D01*
X10707022Y55010556D01*
X10738604Y54927815D01*
X10731159Y54839565D01*
X10707022Y54789444D01*
X10680371Y54749557D01*
X10680368Y54749552D01*
X10673000Y54712507D01*
X10673000Y54700000D01*
X11727000Y54700000D01*
X11727000Y54722285D01*
X11729981Y54722285D01*
X11738891Y54792631D01*
X11787039Y54866963D01*
X11862671Y54913043D01*
X11950806Y54921744D01*
X12033988Y54891343D01*
X12036358Y54889783D01*
X12050444Y54880371D01*
X12050448Y54880369D01*
X12087493Y54873000D01*
X12100000Y54873000D01*
X12100000Y55401000D01*
X12119707Y55487343D01*
X12174926Y55556584D01*
X12254718Y55595011D01*
X12299000Y55600000D01*
X12301000Y55600000D01*
X12387343Y55580293D01*
X12456584Y55525074D01*
X12495011Y55445282D01*
X12500000Y55401000D01*
X12500000Y54873000D01*
X12512507Y54873000D01*
X12549551Y54880369D01*
X12549554Y54880371D01*
X12589442Y54907022D01*
X12672182Y54938605D01*
X12760432Y54931161D01*
X12810558Y54907022D01*
X12850445Y54880371D01*
X12850448Y54880369D01*
X12887493Y54873000D01*
X12900000Y54873000D01*
X12900000Y55401000D01*
X12919707Y55487343D01*
X12974926Y55556584D01*
X13054718Y55595011D01*
X13099000Y55600000D01*
X13101000Y55600000D01*
X13187343Y55580293D01*
X13256584Y55525074D01*
X13295011Y55445282D01*
X13300000Y55401000D01*
X13300000Y54873000D01*
X13312507Y54873000D01*
X13349551Y54880369D01*
X13349554Y54880371D01*
X13389442Y54907022D01*
X13472182Y54938605D01*
X13560432Y54931161D01*
X13610558Y54907022D01*
X13650445Y54880371D01*
X13650448Y54880369D01*
X13687493Y54873000D01*
X13700000Y54873000D01*
X13700000Y55401000D01*
X13719707Y55487343D01*
X13774926Y55556584D01*
X13854718Y55595011D01*
X13899000Y55600000D01*
X13901000Y55600000D01*
X13987343Y55580293D01*
X14056584Y55525074D01*
X14095011Y55445282D01*
X14100000Y55401000D01*
X14100000Y54873000D01*
X14112507Y54873000D01*
X14149551Y54880369D01*
X14149554Y54880371D01*
X14189442Y54907022D01*
X14272182Y54938605D01*
X14360432Y54931161D01*
X14410558Y54907022D01*
X14450445Y54880371D01*
X14450448Y54880369D01*
X14487493Y54873000D01*
X14500000Y54873000D01*
X14500000Y55401000D01*
X14519707Y55487343D01*
X14574926Y55556584D01*
X14654718Y55595011D01*
X14699000Y55600000D01*
X14701000Y55600000D01*
X14787343Y55580293D01*
X14856584Y55525074D01*
X14895011Y55445282D01*
X14900000Y55401000D01*
X14900000Y54873000D01*
X14912507Y54873000D01*
X14949551Y54880369D01*
X14949554Y54880371D01*
X14989442Y54907022D01*
X15072182Y54938605D01*
X15160432Y54931161D01*
X15210558Y54907022D01*
X15250445Y54880371D01*
X15250448Y54880369D01*
X15287493Y54873000D01*
X15300000Y54873000D01*
X15300000Y55401000D01*
X15319707Y55487343D01*
X15374926Y55556584D01*
X15454718Y55595011D01*
X15499000Y55600000D01*
X15501000Y55600000D01*
X15587343Y55580293D01*
X15656584Y55525074D01*
X15695011Y55445282D01*
X15700000Y55401000D01*
X15700000Y54873000D01*
X15712507Y54873000D01*
X15749551Y54880369D01*
X15749554Y54880371D01*
X15789442Y54907022D01*
X15872182Y54938605D01*
X15960432Y54931161D01*
X16010558Y54907022D01*
X16050445Y54880371D01*
X16050448Y54880369D01*
X16087493Y54873000D01*
X16100000Y54873000D01*
X16100000Y55401000D01*
X16119707Y55487343D01*
X16174926Y55556584D01*
X16254718Y55595011D01*
X16299000Y55600000D01*
X16301000Y55600000D01*
X16387343Y55580293D01*
X16456584Y55525074D01*
X16495011Y55445282D01*
X16500000Y55401000D01*
X16500000Y54873000D01*
X16512507Y54873000D01*
X16549551Y54880369D01*
X16549554Y54880371D01*
X16589442Y54907022D01*
X16672182Y54938605D01*
X16760432Y54931161D01*
X16810558Y54907022D01*
X16850445Y54880371D01*
X16850448Y54880369D01*
X16887493Y54873000D01*
X16900000Y54873000D01*
X16900000Y55401000D01*
X16919707Y55487343D01*
X16974926Y55556584D01*
X17054718Y55595011D01*
X17099000Y55600000D01*
X17101000Y55600000D01*
X17187343Y55580293D01*
X17256584Y55525074D01*
X17295011Y55445282D01*
X17300000Y55401000D01*
X17300000Y54873000D01*
X17312507Y54873000D01*
X17349551Y54880369D01*
X17349554Y54880371D01*
X17389442Y54907022D01*
X17472182Y54938605D01*
X17560432Y54931161D01*
X17610558Y54907022D01*
X17650445Y54880371D01*
X17650448Y54880369D01*
X17687493Y54873000D01*
X17700000Y54873000D01*
X17700000Y55401000D01*
X17719707Y55487343D01*
X17774926Y55556584D01*
X17854718Y55595011D01*
X17899000Y55600000D01*
X17901000Y55600000D01*
X17987343Y55580293D01*
X18056584Y55525074D01*
X18095011Y55445282D01*
X18100000Y55401000D01*
X18100000Y54873000D01*
X18112507Y54873000D01*
X18149551Y54880369D01*
X18149554Y54880371D01*
X18189442Y54907022D01*
X18272182Y54938605D01*
X18360432Y54931161D01*
X18410558Y54907022D01*
X18450445Y54880371D01*
X18450448Y54880369D01*
X18487493Y54873000D01*
X18500000Y54873000D01*
X18500000Y55401000D01*
X18519707Y55487343D01*
X18574926Y55556584D01*
X18654718Y55595011D01*
X18699000Y55600000D01*
X18701000Y55600000D01*
X18787343Y55580293D01*
X18856584Y55525074D01*
X18895011Y55445282D01*
X18900000Y55401000D01*
X18900000Y54873000D01*
X18912507Y54873000D01*
X18949551Y54880369D01*
X18949554Y54880371D01*
X18989442Y54907022D01*
X19072182Y54938605D01*
X19160432Y54931161D01*
X19210558Y54907022D01*
X19250445Y54880371D01*
X19250448Y54880369D01*
X19287493Y54873000D01*
X19300000Y54873000D01*
X19300000Y55401000D01*
X19319707Y55487343D01*
X19374926Y55556584D01*
X19454718Y55595011D01*
X19499000Y55600000D01*
X19501000Y55600000D01*
X19587343Y55580293D01*
X19656584Y55525074D01*
X19695011Y55445282D01*
X19700000Y55401000D01*
X19700000Y54873000D01*
X19712507Y54873000D01*
X19749551Y54880369D01*
X19749554Y54880371D01*
X19789442Y54907022D01*
X19872182Y54938605D01*
X19960432Y54931161D01*
X20010558Y54907022D01*
X20050445Y54880371D01*
X20050448Y54880369D01*
X20087493Y54873000D01*
X20100000Y54873000D01*
X20100000Y55401000D01*
X20119707Y55487343D01*
X20174926Y55556584D01*
X20254718Y55595011D01*
X20299000Y55600000D01*
X20301000Y55600000D01*
X20387343Y55580293D01*
X20456584Y55525074D01*
X20495011Y55445282D01*
X20500000Y55401000D01*
X20500000Y54873000D01*
X20512507Y54873000D01*
X20549551Y54880369D01*
X20549554Y54880371D01*
X20589442Y54907022D01*
X20672182Y54938605D01*
X20760432Y54931161D01*
X20810558Y54907022D01*
X20850445Y54880371D01*
X20850448Y54880369D01*
X20887493Y54873000D01*
X20900000Y54873000D01*
X20900000Y55401000D01*
X20919707Y55487343D01*
X20974926Y55556584D01*
X21054718Y55595011D01*
X21099000Y55600000D01*
X21101000Y55600000D01*
X21187343Y55580293D01*
X21256584Y55525074D01*
X21295011Y55445282D01*
X21300000Y55401000D01*
X21300000Y54873000D01*
X21312507Y54873000D01*
X21349551Y54880369D01*
X21349554Y54880371D01*
X21389442Y54907022D01*
X21472182Y54938605D01*
X21560432Y54931161D01*
X21610558Y54907022D01*
X21650445Y54880371D01*
X21650448Y54880369D01*
X21687493Y54873000D01*
X21700000Y54873000D01*
X21700000Y55401000D01*
X21719707Y55487343D01*
X21774926Y55556584D01*
X21854718Y55595011D01*
X21899000Y55600000D01*
X21901000Y55600000D01*
X21987343Y55580293D01*
X22056584Y55525074D01*
X22095011Y55445282D01*
X22100000Y55401000D01*
X22100000Y54873000D01*
X22112506Y54873000D01*
X22161675Y54882781D01*
X22250203Y54880298D01*
X22328887Y54839650D01*
X22382143Y54768888D01*
X22399500Y54687605D01*
X22399500Y54280251D01*
X22411133Y54221769D01*
X22418621Y54210563D01*
X22450207Y54127823D01*
X22442764Y54039573D01*
X22418625Y53989445D01*
X22411133Y53978234D01*
X22405428Y53949552D01*
X22399500Y53919748D01*
X22399500Y53480252D01*
X22411133Y53421769D01*
X22416887Y53413157D01*
X22418621Y53410563D01*
X22450207Y53327823D01*
X22442764Y53239573D01*
X22418625Y53189445D01*
X22411133Y53178234D01*
X22399500Y53119750D01*
X22399500Y52680251D01*
X22411133Y52621769D01*
X22418621Y52610563D01*
X22450207Y52527823D01*
X22442764Y52439573D01*
X22418625Y52389445D01*
X22411133Y52378234D01*
X22399500Y52319750D01*
X22399500Y51880251D01*
X22411133Y51821769D01*
X22418621Y51810563D01*
X22450207Y51727823D01*
X22442764Y51639573D01*
X22418625Y51589445D01*
X22411133Y51578234D01*
X22399500Y51519750D01*
X22399500Y51080251D01*
X22411133Y51021769D01*
X22418621Y51010563D01*
X22450207Y50927823D01*
X22442764Y50839573D01*
X22418625Y50789445D01*
X22411133Y50778234D01*
X22399500Y50719750D01*
X22399500Y50280251D01*
X22411133Y50221769D01*
X22418621Y50210563D01*
X22450207Y50127823D01*
X22442764Y50039573D01*
X22418625Y49989445D01*
X22411133Y49978234D01*
X22399500Y49919750D01*
X22399500Y49919748D01*
X22399500Y49480252D01*
X22411133Y49421769D01*
X22418065Y49411394D01*
X22418621Y49410563D01*
X22450207Y49327823D01*
X22442764Y49239573D01*
X22418625Y49189445D01*
X22411133Y49178234D01*
X22399500Y49119750D01*
X22399500Y48680251D01*
X22405503Y48650074D01*
X22411133Y48621769D01*
X22417431Y48612343D01*
X22418621Y48610563D01*
X22450207Y48527823D01*
X22442764Y48439573D01*
X22418625Y48389445D01*
X22411133Y48378234D01*
X22399500Y48319750D01*
X22399500Y47880251D01*
X22411133Y47821769D01*
X22418621Y47810563D01*
X22450207Y47727823D01*
X22442764Y47639573D01*
X22418625Y47589445D01*
X22411133Y47578234D01*
X22399500Y47519750D01*
X22399500Y47080251D01*
X22411133Y47021769D01*
X22418621Y47010563D01*
X22450207Y46927823D01*
X22442764Y46839573D01*
X22418625Y46789445D01*
X22411133Y46778234D01*
X22399500Y46719750D01*
X22399500Y46387337D01*
X22379793Y46300994D01*
X22324574Y46231753D01*
X22244782Y46193326D01*
X22161678Y46192160D01*
X22119748Y46200500D01*
X21680252Y46200500D01*
X21680250Y46200500D01*
X21621767Y46188867D01*
X21610559Y46181377D01*
X21527819Y46149793D01*
X21439569Y46157237D01*
X21389441Y46181377D01*
X21378232Y46188867D01*
X21319750Y46200500D01*
X21319748Y46200500D01*
X20880252Y46200500D01*
X20880250Y46200500D01*
X20821767Y46188867D01*
X20810559Y46181377D01*
X20727819Y46149793D01*
X20639569Y46157237D01*
X20589441Y46181377D01*
X20578232Y46188867D01*
X20519750Y46200500D01*
X20519748Y46200500D01*
X20080252Y46200500D01*
X20080250Y46200500D01*
X20021767Y46188867D01*
X20010559Y46181377D01*
X19927819Y46149793D01*
X19839569Y46157237D01*
X19789441Y46181377D01*
X19778232Y46188867D01*
X19719750Y46200500D01*
X19719748Y46200500D01*
X19280252Y46200500D01*
X19280250Y46200500D01*
X19221767Y46188867D01*
X19210559Y46181377D01*
X19127819Y46149793D01*
X19039569Y46157237D01*
X18989441Y46181377D01*
X18978232Y46188867D01*
X18919750Y46200500D01*
X18919748Y46200500D01*
X18480252Y46200500D01*
X18480250Y46200500D01*
X18421767Y46188867D01*
X18410559Y46181377D01*
X18327819Y46149793D01*
X18239569Y46157237D01*
X18189441Y46181377D01*
X18178232Y46188867D01*
X18119750Y46200500D01*
X18119748Y46200500D01*
X17680252Y46200500D01*
X17680250Y46200500D01*
X17621767Y46188867D01*
X17610559Y46181377D01*
X17527819Y46149793D01*
X17439569Y46157237D01*
X17389441Y46181377D01*
X17378232Y46188867D01*
X17319750Y46200500D01*
X17319748Y46200500D01*
X16880252Y46200500D01*
X16880250Y46200500D01*
X16821767Y46188867D01*
X16810559Y46181377D01*
X16727819Y46149793D01*
X16639569Y46157237D01*
X16589441Y46181377D01*
X16578232Y46188867D01*
X16519750Y46200500D01*
X16519748Y46200500D01*
X16080252Y46200500D01*
X16080250Y46200500D01*
X16021767Y46188867D01*
X16010559Y46181377D01*
X15927819Y46149793D01*
X15839569Y46157237D01*
X15789441Y46181377D01*
X15778232Y46188867D01*
X15719750Y46200500D01*
X15719748Y46200500D01*
X15280252Y46200500D01*
X15280250Y46200500D01*
X15221767Y46188867D01*
X15210559Y46181377D01*
X15127819Y46149793D01*
X15039569Y46157237D01*
X14989441Y46181377D01*
X14978232Y46188867D01*
X14919750Y46200500D01*
X14919748Y46200500D01*
X14480252Y46200500D01*
X14480250Y46200500D01*
X14421767Y46188867D01*
X14342073Y46135616D01*
X14259333Y46104032D01*
X14171083Y46111476D01*
X14155363Y46117225D01*
X14149555Y46119631D01*
X14112507Y46127000D01*
X14100000Y46127000D01*
X14100000Y45073000D01*
X14112507Y45073000D01*
X14149550Y45080369D01*
X14155357Y45082774D01*
X14242668Y45097610D01*
X14327771Y45073094D01*
X14342074Y45064385D01*
X14355447Y45055450D01*
X14355448Y45055448D01*
X14421769Y45011133D01*
X14463325Y45002867D01*
X14480250Y44999500D01*
X14480252Y44999500D01*
X14919750Y44999500D01*
X14936675Y45002867D01*
X14978231Y45011133D01*
X14989437Y45018622D01*
X15072176Y45050207D01*
X15160427Y45042766D01*
X15210561Y45018622D01*
X15221769Y45011133D01*
X15260844Y45003361D01*
X15280250Y44999500D01*
X15280252Y44999500D01*
X15719750Y44999500D01*
X15736675Y45002867D01*
X15778231Y45011133D01*
X15789437Y45018622D01*
X15872176Y45050207D01*
X15960427Y45042766D01*
X16010561Y45018622D01*
X16021769Y45011133D01*
X16060844Y45003361D01*
X16080250Y44999500D01*
X16080252Y44999500D01*
X16519750Y44999500D01*
X16536675Y45002867D01*
X16578231Y45011133D01*
X16589437Y45018622D01*
X16672176Y45050207D01*
X16760427Y45042766D01*
X16810561Y45018622D01*
X16821769Y45011133D01*
X16860844Y45003361D01*
X16880250Y44999500D01*
X16880252Y44999500D01*
X17319748Y44999500D01*
X17336674Y45002867D01*
X17425202Y45000384D01*
X17503887Y44959736D01*
X17557143Y44888974D01*
X17574500Y44807691D01*
X17574500Y44032995D01*
X17554793Y43946652D01*
X17499574Y43877411D01*
X17419782Y43838984D01*
X17331218Y43838984D01*
X17251426Y43877411D01*
X17217623Y43911851D01*
X17184219Y43955383D01*
X17128282Y44028282D01*
X17057534Y44082569D01*
X17002843Y44124536D01*
X17002840Y44124537D01*
X16856764Y44185043D01*
X16856762Y44185044D01*
X16847305Y44186289D01*
X16700000Y44205682D01*
X16699999Y44205682D01*
X16543237Y44185044D01*
X16543235Y44185043D01*
X16397159Y44124537D01*
X16397157Y44124536D01*
X16390590Y44119496D01*
X16310092Y44082569D01*
X16221545Y44084225D01*
X16142484Y44124137D01*
X16128733Y44136660D01*
X16127342Y44138051D01*
X16014307Y44195645D01*
X16014304Y44195646D01*
X16014302Y44195647D01*
X16014300Y44195647D01*
X15920525Y44210499D01*
X15920519Y44210500D01*
X15920511Y44210500D01*
X15307481Y44210500D01*
X15213696Y44195646D01*
X15213694Y44195646D01*
X15100655Y44138049D01*
X15010949Y44048343D01*
X14953355Y43935308D01*
X14953353Y43935301D01*
X14938501Y43841526D01*
X14938500Y43841512D01*
X14938500Y43378482D01*
X14953354Y43284697D01*
X14953354Y43284695D01*
X15010951Y43171656D01*
X15100657Y43081950D01*
X15204960Y43028805D01*
X15213696Y43024354D01*
X15240871Y43020050D01*
X15323067Y42987078D01*
X15382819Y42921708D01*
X15408289Y42836886D01*
X15394435Y42749414D01*
X15343999Y42676614D01*
X15266972Y42632908D01*
X15209740Y42624500D01*
X14024000Y42624500D01*
X13992797Y42621146D01*
X13980314Y42619803D01*
X13980310Y42619803D01*
X13928807Y42608598D01*
X13918624Y42606110D01*
X13837918Y42563103D01*
X13837914Y42563100D01*
X13811917Y42540573D01*
X13785111Y42517345D01*
X13771843Y42504345D01*
X13767158Y42499755D01*
X13767156Y42499753D01*
X13722510Y42419937D01*
X13702823Y42352893D01*
X13694500Y42295004D01*
X13694500Y42275136D01*
X13674793Y42188793D01*
X13619574Y42119552D01*
X13539782Y42081125D01*
X13451218Y42081125D01*
X13371426Y42119552D01*
X13316207Y42188793D01*
X13298579Y42246445D01*
X13290573Y42301393D01*
X13239198Y42406483D01*
X13156482Y42489199D01*
X13051392Y42540574D01*
X12983265Y42550500D01*
X12983260Y42550500D01*
X12616740Y42550500D01*
X12616734Y42550500D01*
X12548607Y42540574D01*
X12443517Y42489199D01*
X12443516Y42489198D01*
X12349142Y42394823D01*
X12347991Y42395974D01*
X12296285Y42350043D01*
X12211110Y42325781D01*
X12200547Y42325500D01*
X12099453Y42325500D01*
X12013110Y42345207D01*
X11950874Y42394840D01*
X11950858Y42394823D01*
X11950713Y42394968D01*
X11943869Y42400426D01*
X11939597Y42406084D01*
X11856482Y42489199D01*
X11751392Y42540574D01*
X11683265Y42550500D01*
X11683260Y42550500D01*
X11316740Y42550500D01*
X11316734Y42550500D01*
X11248607Y42540574D01*
X11143517Y42489199D01*
X11060801Y42406483D01*
X11009426Y42301393D01*
X10999500Y42233266D01*
X10999500Y41766735D01*
X11009426Y41698608D01*
X11060801Y41593518D01*
X11060802Y41593517D01*
X11143517Y41510802D01*
X11248607Y41459427D01*
X11316740Y41449500D01*
X11316746Y41449500D01*
X11683254Y41449500D01*
X11683260Y41449500D01*
X11751393Y41459427D01*
X11856483Y41510802D01*
X11939198Y41593517D01*
X11939198Y41593518D01*
X11950858Y41605177D01*
X11952008Y41604027D01*
X12003715Y41649957D01*
X12088890Y41674219D01*
X12099453Y41674500D01*
X12200547Y41674500D01*
X12286890Y41654793D01*
X12349125Y41605161D01*
X12349142Y41605177D01*
X12349286Y41605033D01*
X12356131Y41599574D01*
X12360402Y41593917D01*
X12416214Y41538105D01*
X12463333Y41463117D01*
X12474500Y41397391D01*
X12474500Y37747913D01*
X12454793Y37661570D01*
X12399574Y37592329D01*
X12365845Y37570603D01*
X12317656Y37546050D01*
X12227949Y37456343D01*
X12170355Y37343308D01*
X12170353Y37343301D01*
X12155501Y37249526D01*
X12155500Y37249512D01*
X12155500Y36636482D01*
X12164119Y36582065D01*
X12170353Y36542700D01*
X12170354Y36542697D01*
X12170354Y36542695D01*
X12227951Y36429656D01*
X12317655Y36339952D01*
X12317657Y36339951D01*
X12317658Y36339950D01*
X12365844Y36315398D01*
X12433829Y36258641D01*
X12470455Y36178006D01*
X12474500Y36138088D01*
X12474500Y31449610D01*
X12454793Y31363267D01*
X12416215Y31308897D01*
X12360802Y31253485D01*
X12360801Y31253483D01*
X12309426Y31148393D01*
X12299500Y31080266D01*
X12299500Y30613735D01*
X12309426Y30545608D01*
X12360801Y30440518D01*
X12416214Y30385105D01*
X12463333Y30310117D01*
X12474500Y30244391D01*
X12474500Y25777883D01*
X12454793Y25691540D01*
X12408962Y25634073D01*
X12410177Y25632858D01*
X12315802Y25538484D01*
X12315801Y25538483D01*
X12264426Y25433393D01*
X12254500Y25365266D01*
X12254499Y25365254D01*
X12254499Y24898747D01*
X12254500Y24898735D01*
X12264426Y24830608D01*
X12315801Y24725518D01*
X12315802Y24725517D01*
X12398517Y24642802D01*
X12503607Y24591427D01*
X12571740Y24581500D01*
X12571746Y24581500D01*
X12938254Y24581500D01*
X12938260Y24581500D01*
X13006393Y24591427D01*
X13111483Y24642802D01*
X13194198Y24725517D01*
X13245573Y24830607D01*
X13255500Y24898740D01*
X13255500Y25365260D01*
X13245573Y25433393D01*
X13194198Y25538483D01*
X13183786Y25548895D01*
X13136667Y25623883D01*
X13125500Y25689609D01*
X13125500Y30244391D01*
X13145207Y30330734D01*
X13183786Y30385105D01*
X13183786Y30385106D01*
X13239198Y30440517D01*
X13250177Y30462975D01*
X13252720Y30468176D01*
X13308346Y30537091D01*
X13388364Y30575046D01*
X13476926Y30574523D01*
X13556490Y30535627D01*
X13611299Y30466061D01*
X13630500Y30380778D01*
X13630500Y30336000D01*
X13633283Y30310117D01*
X13635197Y30292315D01*
X13635197Y30292311D01*
X13646402Y30240807D01*
X13648890Y30230625D01*
X13691897Y30149919D01*
X13691900Y30149915D01*
X13737655Y30097111D01*
X13755246Y30079157D01*
X13835063Y30034510D01*
X13902102Y30014825D01*
X13902105Y30014825D01*
X13902107Y30014824D01*
X13925155Y30011511D01*
X13959996Y30006501D01*
X13959997Y30006500D01*
X13960000Y30006500D01*
X14800323Y30006500D01*
X14886666Y29986793D01*
X14941037Y29948214D01*
X14983779Y29905472D01*
X15112787Y29839739D01*
X15180772Y29782981D01*
X15217398Y29702346D01*
X15215411Y29613805D01*
X15175204Y29534895D01*
X15109844Y29483650D01*
X15029636Y29444439D01*
X15029632Y29444436D01*
X14946563Y29361367D01*
X14894968Y29255827D01*
X14885000Y29187405D01*
X14885000Y29129000D01*
X15488000Y29129000D01*
X15574343Y29109293D01*
X15643584Y29054074D01*
X15682011Y28974282D01*
X15687000Y28930000D01*
X15687000Y28928000D01*
X15667293Y28841657D01*
X15612074Y28772416D01*
X15532282Y28733989D01*
X15488000Y28729000D01*
X14885001Y28729000D01*
X14885001Y28670596D01*
X14894968Y28602173D01*
X14946563Y28496634D01*
X15029633Y28413564D01*
X15141696Y28358780D01*
X15210610Y28303154D01*
X15248565Y28223136D01*
X15248042Y28134574D01*
X15209145Y28055009D01*
X15141696Y28001220D01*
X15029633Y27946437D01*
X14946563Y27863367D01*
X14894968Y27757827D01*
X14885000Y27689405D01*
X14885000Y27631000D01*
X15488000Y27631000D01*
X15574343Y27611293D01*
X15643584Y27556074D01*
X15682011Y27476282D01*
X15687000Y27432000D01*
X15687000Y27430000D01*
X15667293Y27343657D01*
X15612074Y27274416D01*
X15532282Y27235989D01*
X15488000Y27231000D01*
X14885001Y27231000D01*
X14885001Y27172596D01*
X14894968Y27104173D01*
X14946563Y26998634D01*
X15029632Y26915565D01*
X15029635Y26915563D01*
X15109843Y26876352D01*
X15178758Y26820727D01*
X15216712Y26740709D01*
X15216190Y26652147D01*
X15177294Y26572582D01*
X15112793Y26520264D01*
X15089102Y26508192D01*
X15003224Y26486550D01*
X14998753Y26486500D01*
X14024000Y26486500D01*
X13992797Y26483146D01*
X13980314Y26481803D01*
X13980310Y26481803D01*
X13928807Y26470598D01*
X13918624Y26468110D01*
X13837918Y26425103D01*
X13837914Y26425100D01*
X13806706Y26398058D01*
X13785111Y26379345D01*
X13767528Y26362119D01*
X13767158Y26361755D01*
X13767156Y26361753D01*
X13722510Y26281937D01*
X13702823Y26214893D01*
X13694500Y26157004D01*
X13694500Y25540948D01*
X13674793Y25454605D01*
X13674280Y25453548D01*
X13664426Y25433393D01*
X13654500Y25365266D01*
X13654499Y25365254D01*
X13654499Y24898747D01*
X13654500Y24898733D01*
X13664426Y24830609D01*
X13674279Y24810455D01*
X13694497Y24724231D01*
X13694500Y24723055D01*
X13694500Y24170000D01*
X13698414Y24133597D01*
X13699197Y24126315D01*
X13699197Y24126311D01*
X13710402Y24074807D01*
X13712890Y24064625D01*
X13755897Y23983919D01*
X13755900Y23983915D01*
X13801655Y23931111D01*
X13819246Y23913157D01*
X13899063Y23868510D01*
X13966102Y23848825D01*
X13966105Y23848825D01*
X13966107Y23848824D01*
X13989155Y23845511D01*
X14023996Y23840501D01*
X14023997Y23840500D01*
X14024000Y23840500D01*
X15114310Y23840500D01*
X15145439Y23838051D01*
X15180481Y23832500D01*
X15793518Y23832501D01*
X15828556Y23838050D01*
X15859684Y23840500D01*
X16299064Y23840500D01*
X16385407Y23820793D01*
X16454648Y23765574D01*
X16493075Y23685782D01*
X16496362Y23615528D01*
X16494318Y23600001D01*
X16498419Y23568849D01*
X16490149Y23480673D01*
X16444441Y23404816D01*
X16441835Y23402162D01*
X16316247Y23276574D01*
X16241259Y23229455D01*
X16153252Y23219539D01*
X16069659Y23248790D01*
X16034819Y23276574D01*
X16000342Y23311051D01*
X15887307Y23368645D01*
X15887304Y23368646D01*
X15887302Y23368647D01*
X15887300Y23368647D01*
X15793525Y23383499D01*
X15793519Y23383500D01*
X15793511Y23383500D01*
X15180481Y23383500D01*
X15086696Y23368646D01*
X15086694Y23368646D01*
X14973655Y23311049D01*
X14883949Y23221343D01*
X14826355Y23108308D01*
X14826353Y23108301D01*
X14811501Y23014526D01*
X14811500Y23014512D01*
X14811500Y22551482D01*
X14826354Y22457697D01*
X14826354Y22457695D01*
X14883951Y22344656D01*
X14973657Y22254950D01*
X15086692Y22197356D01*
X15086696Y22197354D01*
X15180481Y22182500D01*
X15793518Y22182501D01*
X15887304Y22197354D01*
X16000342Y22254950D01*
X16090050Y22344658D01*
X16091782Y22348058D01*
X16097472Y22354874D01*
X16099255Y22357327D01*
X16099420Y22357207D01*
X16148538Y22416041D01*
X16229172Y22452668D01*
X16286434Y22455956D01*
X16311807Y22453736D01*
X16349332Y22463792D01*
X16357787Y22465667D01*
X16396045Y22472412D01*
X16396047Y22472414D01*
X16409608Y22477349D01*
X16422680Y22483445D01*
X16422679Y22483445D01*
X16422684Y22483446D01*
X16454502Y22505727D01*
X16461806Y22510380D01*
X16495455Y22529806D01*
X16520434Y22559577D01*
X16526284Y22565960D01*
X16902162Y22941838D01*
X16977148Y22988955D01*
X17065155Y22998871D01*
X17068854Y22998419D01*
X17100000Y22994318D01*
X17256762Y23014956D01*
X17402841Y23075464D01*
X17402841Y23075465D01*
X17402843Y23075465D01*
X17445894Y23108500D01*
X17528282Y23171718D01*
X17608741Y23276574D01*
X17624535Y23297157D01*
X17624536Y23297160D01*
X17685044Y23443238D01*
X17705682Y23600000D01*
X17685044Y23756762D01*
X17624536Y23902841D01*
X17624535Y23902842D01*
X17620600Y23912343D01*
X17605765Y23999655D01*
X17630283Y24084757D01*
X17630605Y24085339D01*
X17666490Y24149490D01*
X17686175Y24216529D01*
X17694500Y24274427D01*
X17694500Y24965500D01*
X17714207Y25051843D01*
X17769426Y25121084D01*
X17849218Y25159511D01*
X17893500Y25164500D01*
X19171436Y25164500D01*
X19180111Y25164121D01*
X19196346Y25162702D01*
X19218807Y25160736D01*
X19256332Y25170792D01*
X19264787Y25172667D01*
X19303045Y25179412D01*
X19303047Y25179414D01*
X19316608Y25184349D01*
X19329680Y25190445D01*
X19329679Y25190445D01*
X19329684Y25190446D01*
X19361502Y25212727D01*
X19368806Y25217380D01*
X19402455Y25236806D01*
X19427429Y25266571D01*
X19433290Y25272965D01*
X19717047Y25556721D01*
X19723443Y25562582D01*
X19753194Y25587545D01*
X19759273Y25598077D01*
X19772614Y25621182D01*
X19777274Y25628499D01*
X19799554Y25660316D01*
X19799554Y25660319D01*
X19805652Y25673395D01*
X19810587Y25686952D01*
X19810588Y25686955D01*
X19817333Y25725216D01*
X19819210Y25733677D01*
X19829262Y25771190D01*
X19829263Y25771193D01*
X19825879Y25809880D01*
X19825500Y25818555D01*
X19825500Y43320522D01*
X19845207Y43406865D01*
X19900426Y43476106D01*
X19980218Y43514533D01*
X20054527Y43514533D01*
X20054807Y43516659D01*
X20067735Y43514957D01*
X20067738Y43514956D01*
X20224500Y43494318D01*
X20381262Y43514956D01*
X20459293Y43547278D01*
X20546601Y43562112D01*
X20631703Y43537595D01*
X20697740Y43478581D01*
X20712754Y43453771D01*
X20746951Y43386656D01*
X20836657Y43296950D01*
X20941983Y43243284D01*
X20949696Y43239354D01*
X21043481Y43224500D01*
X21506518Y43224501D01*
X21600304Y43239354D01*
X21713342Y43296950D01*
X21803050Y43386658D01*
X21860646Y43499696D01*
X21875500Y43593481D01*
X21875500Y43593482D01*
X22324500Y43593482D01*
X22336937Y43514957D01*
X22339353Y43499700D01*
X22339354Y43499697D01*
X22339354Y43499695D01*
X22396951Y43386656D01*
X22486657Y43296950D01*
X22591983Y43243284D01*
X22599696Y43239354D01*
X22693481Y43224500D01*
X23156518Y43224501D01*
X23250304Y43239354D01*
X23363342Y43296950D01*
X23453050Y43386658D01*
X23493397Y43465845D01*
X23550156Y43533830D01*
X23630791Y43570456D01*
X23670708Y43574500D01*
X24185842Y43574500D01*
X24272185Y43554793D01*
X24341426Y43499574D01*
X24376781Y43431564D01*
X24379362Y43422773D01*
X24379365Y43422765D01*
X24379366Y43422762D01*
X24439094Y43291977D01*
X24470551Y43243029D01*
X24564705Y43134368D01*
X24564707Y43134367D01*
X24564709Y43134364D01*
X24608676Y43096266D01*
X24608675Y43096266D01*
X24638816Y43076896D01*
X24729634Y43018531D01*
X24729638Y43018529D01*
X24729642Y43018527D01*
X24765136Y43002318D01*
X24782562Y42994360D01*
X24782565Y42994360D01*
X24782568Y42994358D01*
X24826533Y42981449D01*
X24920517Y42953853D01*
X24920518Y42953853D01*
X24920521Y42953852D01*
X24964040Y42947596D01*
X24978107Y42945573D01*
X24978110Y42945572D01*
X24978111Y42945572D01*
X25550003Y42945572D01*
X25596938Y42954909D01*
X25628231Y42961133D01*
X25694552Y43005448D01*
X25738867Y43071769D01*
X25747077Y43113045D01*
X25754428Y43149997D01*
X25754428Y43585386D01*
X25756454Y43613711D01*
X25757489Y43620909D01*
X25757489Y43679092D01*
X25757488Y43679099D01*
X25756453Y43686302D01*
X25754428Y43714617D01*
X25754428Y44085383D01*
X25756453Y44113700D01*
X25756646Y44115046D01*
X25757489Y44120907D01*
X25757489Y44179093D01*
X25756453Y44186295D01*
X25754428Y44214605D01*
X25754428Y44650000D01*
X25738867Y44728231D01*
X25703294Y44781469D01*
X25694552Y44794553D01*
X25628230Y44838868D01*
X25550003Y44854428D01*
X25550000Y44854428D01*
X24978111Y44854428D01*
X24978105Y44854428D01*
X24920521Y44846149D01*
X24782568Y44805643D01*
X24782555Y44805638D01*
X24729642Y44781474D01*
X24729635Y44781470D01*
X24608676Y44703735D01*
X24564709Y44665637D01*
X24473737Y44560648D01*
X24470551Y44556971D01*
X24439094Y44508023D01*
X24409230Y44442631D01*
X24379365Y44377236D01*
X24379362Y44377228D01*
X24376781Y44368436D01*
X24333547Y44291142D01*
X24261058Y44240262D01*
X24185842Y44225500D01*
X23670708Y44225500D01*
X23584365Y44245207D01*
X23515124Y44300426D01*
X23493398Y44334155D01*
X23471446Y44377238D01*
X23453050Y44413342D01*
X23453049Y44413343D01*
X23453048Y44413345D01*
X23363342Y44503051D01*
X23250307Y44560645D01*
X23250304Y44560646D01*
X23250302Y44560647D01*
X23250300Y44560647D01*
X23156525Y44575499D01*
X23156519Y44575500D01*
X23156511Y44575500D01*
X22693481Y44575500D01*
X22599696Y44560646D01*
X22599694Y44560646D01*
X22486655Y44503049D01*
X22396949Y44413343D01*
X22339355Y44300308D01*
X22339353Y44300301D01*
X22324501Y44206526D01*
X22324500Y44206512D01*
X22324500Y43593482D01*
X21875500Y43593482D01*
X21875499Y44206518D01*
X21860646Y44300304D01*
X21803050Y44413342D01*
X21803049Y44413343D01*
X21803048Y44413345D01*
X21713342Y44503051D01*
X21600307Y44560645D01*
X21600298Y44560648D01*
X21593363Y44561746D01*
X21511168Y44594720D01*
X21451418Y44660092D01*
X21425950Y44744915D01*
X21425500Y44758295D01*
X21425500Y44807691D01*
X21445207Y44894034D01*
X21500426Y44963275D01*
X21580218Y45001702D01*
X21663325Y45002867D01*
X21680252Y44999500D01*
X22119750Y44999500D01*
X22139155Y45003361D01*
X22178231Y45011133D01*
X22244552Y45055448D01*
X22278737Y45106610D01*
X22343090Y45167450D01*
X22427471Y45194345D01*
X22515165Y45181965D01*
X22588803Y45132762D01*
X22607269Y45109606D01*
X22608434Y45108441D01*
X22650446Y45080370D01*
X22650448Y45080369D01*
X22687493Y45073000D01*
X22850000Y45073000D01*
X22850000Y45350000D01*
X23250000Y45350000D01*
X23250000Y45073000D01*
X23412507Y45073000D01*
X23449551Y45080369D01*
X23449553Y45080370D01*
X23491561Y45108439D01*
X23519630Y45150447D01*
X23519631Y45150449D01*
X23527000Y45187494D01*
X23527000Y45350000D01*
X23250000Y45350000D01*
X22850000Y45350000D01*
X22850000Y45551000D01*
X22869707Y45637343D01*
X22924926Y45706584D01*
X23004718Y45745011D01*
X23049000Y45750000D01*
X23527000Y45750000D01*
X23527000Y45912507D01*
X23519631Y45949551D01*
X23517225Y45955360D01*
X23502390Y46042672D01*
X23526907Y46127775D01*
X23535616Y46142076D01*
X23544550Y46155447D01*
X23544552Y46155448D01*
X23588867Y46221769D01*
X23600500Y46280252D01*
X23600500Y46704151D01*
X23620207Y46790494D01*
X23675426Y46859735D01*
X23755218Y46898162D01*
X23843782Y46898162D01*
X23923574Y46859735D01*
X23940214Y46844865D01*
X24133712Y46651367D01*
X24142767Y46640962D01*
X24148520Y46633344D01*
X24183202Y46601727D01*
X24186506Y46598573D01*
X24199681Y46585398D01*
X24199745Y46585354D01*
X24210545Y46576800D01*
X24231545Y46557656D01*
X24231547Y46557655D01*
X24234049Y46556106D01*
X24266285Y46539114D01*
X24268994Y46537918D01*
X24268997Y46537916D01*
X24296644Y46531414D01*
X24309811Y46527337D01*
X24336305Y46517072D01*
X24336307Y46517072D01*
X24339221Y46516528D01*
X24375396Y46512331D01*
X24378353Y46512195D01*
X24378359Y46512193D01*
X24402922Y46515620D01*
X24406489Y46516117D01*
X24420251Y46517072D01*
X24475532Y46517072D01*
X24561875Y46497365D01*
X24631116Y46442146D01*
X24633409Y46439215D01*
X24644171Y46425189D01*
X24671718Y46389290D01*
X24692429Y46373398D01*
X24797156Y46293037D01*
X24797159Y46293036D01*
X24943238Y46232528D01*
X25100000Y46211890D01*
X25256762Y46232528D01*
X25402841Y46293036D01*
X25402841Y46293037D01*
X25402843Y46293037D01*
X25449065Y46328505D01*
X25528282Y46389290D01*
X25611211Y46497365D01*
X25624535Y46514729D01*
X25624536Y46514732D01*
X25625280Y46516528D01*
X25685044Y46660810D01*
X25705682Y46817572D01*
X25685044Y46974334D01*
X25624536Y47120413D01*
X25624535Y47120416D01*
X25570094Y47191363D01*
X25528282Y47245854D01*
X25486468Y47277939D01*
X25402843Y47342108D01*
X25402840Y47342109D01*
X25256764Y47402615D01*
X25256765Y47402615D01*
X25256762Y47402616D01*
X25256758Y47402617D01*
X25244161Y47405992D01*
X25245078Y47409416D01*
X25184011Y47432085D01*
X25122579Y47495878D01*
X25094909Y47580008D01*
X25095745Y47624528D01*
X25105682Y47700000D01*
X25085044Y47856762D01*
X25024536Y48002841D01*
X25024535Y48002844D01*
X24970094Y48073791D01*
X24928282Y48128282D01*
X24886468Y48160367D01*
X24802843Y48224536D01*
X24802840Y48224537D01*
X24656764Y48285043D01*
X24656762Y48285044D01*
X24656761Y48285044D01*
X24500000Y48305682D01*
X24499998Y48305682D01*
X24499997Y48305682D01*
X24434776Y48297096D01*
X24346600Y48305366D01*
X24274740Y48347330D01*
X24260933Y48359917D01*
X24258437Y48361462D01*
X24226188Y48378461D01*
X24223483Y48379656D01*
X24206740Y48383594D01*
X24195836Y48386159D01*
X24182664Y48390238D01*
X24156171Y48400501D01*
X24153264Y48401044D01*
X24117081Y48405242D01*
X24114119Y48405379D01*
X24114118Y48405379D01*
X24114117Y48405379D01*
X24085989Y48401455D01*
X24072227Y48400500D01*
X23787336Y48400500D01*
X23700993Y48420207D01*
X23631752Y48475426D01*
X23593325Y48555218D01*
X23592160Y48638325D01*
X23600500Y48680251D01*
X23600500Y49119750D01*
X23594190Y49151471D01*
X23588867Y49178231D01*
X23581378Y49189438D01*
X23549793Y49272176D01*
X23557234Y49360427D01*
X23581379Y49410563D01*
X23588867Y49421769D01*
X23600500Y49480252D01*
X23600500Y49919748D01*
X23588867Y49978231D01*
X23581378Y49989438D01*
X23549793Y50072176D01*
X23557234Y50160427D01*
X23581379Y50210563D01*
X23588867Y50221769D01*
X23600500Y50280252D01*
X23600500Y50719748D01*
X23588867Y50778231D01*
X23581378Y50789438D01*
X23549793Y50872176D01*
X23557234Y50960427D01*
X23581379Y51010563D01*
X23588867Y51021769D01*
X23600500Y51080252D01*
X23600500Y51519748D01*
X23588867Y51578231D01*
X23581378Y51589438D01*
X23549793Y51672176D01*
X23557234Y51760427D01*
X23581379Y51810563D01*
X23588867Y51821769D01*
X23600500Y51880252D01*
X23600500Y52319748D01*
X23588867Y52378231D01*
X23581378Y52389438D01*
X23549793Y52472176D01*
X23557234Y52560427D01*
X23581379Y52610563D01*
X23588867Y52621769D01*
X23600500Y52680252D01*
X23600500Y53119748D01*
X23588867Y53178231D01*
X23581378Y53189438D01*
X23549793Y53272176D01*
X23557234Y53360427D01*
X23581379Y53410563D01*
X23588867Y53421769D01*
X23600500Y53480252D01*
X23600500Y53919748D01*
X23588867Y53978231D01*
X23581378Y53989438D01*
X23549793Y54072176D01*
X23557234Y54160427D01*
X23581379Y54210563D01*
X23588867Y54221769D01*
X23600500Y54280252D01*
X23600500Y54719748D01*
X23599995Y54722285D01*
X23597188Y54736394D01*
X23588867Y54778231D01*
X23544552Y54844552D01*
X23544550Y54844553D01*
X23535615Y54857926D01*
X23504031Y54940666D01*
X23511474Y55028916D01*
X23517226Y55044643D01*
X23519631Y55050450D01*
X23527000Y55087494D01*
X23527000Y55250000D01*
X23049000Y55250000D01*
X22962657Y55269707D01*
X22893416Y55324926D01*
X22854989Y55404718D01*
X22850000Y55449000D01*
X22850000Y55451000D01*
X22869707Y55537343D01*
X22924926Y55606584D01*
X23004718Y55645011D01*
X23049000Y55650000D01*
X23527000Y55650000D01*
X23527000Y55812507D01*
X23517120Y55862176D01*
X23519603Y55950705D01*
X23560252Y56029389D01*
X23631015Y56082644D01*
X23712296Y56100000D01*
X33500500Y56100000D01*
X33586843Y56080293D01*
X33656084Y56025074D01*
X33694511Y55945282D01*
X33699500Y55901000D01*
X33699500Y3502601D01*
X33699364Y3497418D01*
X33688771Y3295282D01*
X33683341Y3191680D01*
X33682251Y3181316D01*
X33634770Y2881522D01*
X33632603Y2871327D01*
X33554045Y2578150D01*
X33550825Y2568239D01*
X33442048Y2284863D01*
X33437809Y2275342D01*
X33300008Y2004895D01*
X33294798Y1995869D01*
X33129491Y1741320D01*
X33123365Y1732888D01*
X32932344Y1496996D01*
X32925370Y1489250D01*
X32710750Y1274630D01*
X32703004Y1267656D01*
X32467112Y1076635D01*
X32458680Y1070509D01*
X32204131Y905202D01*
X32195105Y899992D01*
X31924658Y762191D01*
X31915137Y757952D01*
X31631761Y649175D01*
X31621850Y645955D01*
X31328673Y567397D01*
X31318478Y565230D01*
X31018684Y517749D01*
X31008320Y516659D01*
X30936714Y512907D01*
X30702582Y500636D01*
X30697399Y500500D01*
X3502601Y500500D01*
X3497417Y500636D01*
X3248671Y513672D01*
X3191679Y516659D01*
X3181315Y517749D01*
X2881521Y565230D01*
X2871330Y567396D01*
X2797182Y587265D01*
X2578149Y645955D01*
X2568238Y649175D01*
X2284862Y757952D01*
X2275341Y762191D01*
X2004894Y899992D01*
X1995877Y905197D01*
X1741319Y1070509D01*
X1732887Y1076635D01*
X1496995Y1267656D01*
X1489259Y1274621D01*
X1274619Y1489261D01*
X1267655Y1496996D01*
X1076634Y1732888D01*
X1070508Y1741320D01*
X1019423Y1819984D01*
X905192Y1995884D01*
X899991Y2004895D01*
X762190Y2275342D01*
X757951Y2284863D01*
X649174Y2568239D01*
X645954Y2578150D01*
X625558Y2654269D01*
X567392Y2871346D01*
X565232Y2881507D01*
X550425Y2975000D01*
X6048001Y2975000D01*
X6048001Y2936677D01*
X6054268Y2889063D01*
X6054269Y2889060D01*
X6103005Y2784546D01*
X6184544Y2703007D01*
X6184547Y2703005D01*
X6289057Y2654271D01*
X6289064Y2654269D01*
X6336674Y2648001D01*
X6449999Y2648002D01*
X6450000Y2648002D01*
X6450000Y2975000D01*
X6850000Y2975000D01*
X6850000Y2648001D01*
X6963318Y2648001D01*
X6963323Y2648002D01*
X7010937Y2654269D01*
X7010940Y2654270D01*
X7115454Y2703006D01*
X7196993Y2784545D01*
X7196995Y2784548D01*
X7245729Y2889058D01*
X7245731Y2889065D01*
X7251999Y2936673D01*
X7252000Y2936678D01*
X7252000Y2975000D01*
X6850000Y2975000D01*
X6450000Y2975000D01*
X6048001Y2975000D01*
X550425Y2975000D01*
X538546Y3050000D01*
X11495400Y3050000D01*
X11495400Y2237494D01*
X11502768Y2200449D01*
X11502769Y2200447D01*
X11530838Y2158439D01*
X11572846Y2130370D01*
X11572848Y2130369D01*
X11609893Y2123000D01*
X11972400Y2123000D01*
X11972400Y3050000D01*
X11495400Y3050000D01*
X538546Y3050000D01*
X517748Y3181316D01*
X516659Y3191666D01*
X500635Y3497418D01*
X500500Y3502601D01*
X500500Y7554624D01*
X2394500Y7554624D01*
X2394817Y7546559D01*
X2396966Y7519237D01*
X2396967Y7519228D01*
X2414100Y7451766D01*
X2414101Y7451765D01*
X2445470Y7381308D01*
X2452237Y7367520D01*
X2452243Y7367511D01*
X2461626Y7356771D01*
X2503591Y7278782D01*
X2507562Y7190307D01*
X2494758Y7152357D01*
X2494889Y7152314D01*
X2490048Y7137418D01*
X2476715Y7053231D01*
X2474500Y7039246D01*
X2474500Y6535754D01*
X2476124Y6525500D01*
X2490048Y6437583D01*
X2490050Y6437577D01*
X2550341Y6319249D01*
X2644248Y6225342D01*
X2738516Y6177310D01*
X2806501Y6120552D01*
X2843127Y6039917D01*
X2841140Y5951376D01*
X2800933Y5872466D01*
X2738516Y5822690D01*
X2644248Y5774659D01*
X2550341Y5680752D01*
X2490050Y5562424D01*
X2490048Y5562418D01*
X2474500Y5464246D01*
X2474500Y4960755D01*
X2490048Y4862583D01*
X2490050Y4862577D01*
X2550341Y4744249D01*
X2644248Y4650342D01*
X2755842Y4593482D01*
X2762580Y4590049D01*
X2860754Y4574500D01*
X3245246Y4574500D01*
X3331589Y4554793D01*
X3385959Y4516215D01*
X4144222Y3757951D01*
X4150079Y3751559D01*
X4175043Y3721808D01*
X4175045Y3721806D01*
X4208690Y3702381D01*
X4215987Y3697733D01*
X4247816Y3675446D01*
X4247819Y3675446D01*
X4260904Y3669345D01*
X4274453Y3664413D01*
X4274455Y3664412D01*
X4294504Y3660877D01*
X4312698Y3657669D01*
X4321178Y3655789D01*
X4358689Y3645738D01*
X4358693Y3645737D01*
X4383694Y3647925D01*
X4397379Y3649121D01*
X4406054Y3649500D01*
X5852178Y3649500D01*
X5938521Y3629793D01*
X6007762Y3574574D01*
X6046189Y3494782D01*
X6049475Y3424520D01*
X6048000Y3413319D01*
X6048000Y3375000D01*
X7251999Y3375000D01*
X7251999Y3413315D01*
X7250523Y3424526D01*
X7258792Y3512702D01*
X7304500Y3588559D01*
X7378595Y3637071D01*
X7447821Y3649500D01*
X7467507Y3649500D01*
X7553850Y3629793D01*
X7623091Y3574574D01*
X7644818Y3540842D01*
X7646950Y3536657D01*
X7736657Y3446950D01*
X7780667Y3424526D01*
X7849696Y3389354D01*
X7943481Y3374500D01*
X8556518Y3374501D01*
X8650304Y3389354D01*
X8763342Y3446950D01*
X8766392Y3450000D01*
X11495400Y3450000D01*
X11972400Y3450000D01*
X11972400Y4377000D01*
X12372400Y4377000D01*
X12372400Y2123000D01*
X12580000Y2123000D01*
X12580000Y2346014D01*
X12599707Y2432357D01*
X12654926Y2501598D01*
X12734718Y2540025D01*
X12779000Y2545014D01*
X12781000Y2545014D01*
X12867343Y2525307D01*
X12936584Y2470088D01*
X12975011Y2390296D01*
X12980000Y2346014D01*
X12980000Y2146789D01*
X13119259Y2195517D01*
X13119260Y2195517D01*
X13267517Y2288675D01*
X13267518Y2288675D01*
X13391325Y2412482D01*
X13391325Y2412483D01*
X13484482Y2560739D01*
X13542313Y2726010D01*
X13557000Y2856361D01*
X20643000Y2856361D01*
X20657686Y2726010D01*
X20715517Y2560739D01*
X20808674Y2412483D01*
X20808674Y2412482D01*
X20932481Y2288675D01*
X21080739Y2195517D01*
X21219999Y2146789D01*
X21220000Y2146789D01*
X21220000Y2346014D01*
X21239707Y2432357D01*
X21294926Y2501598D01*
X21374718Y2540025D01*
X21419000Y2545014D01*
X21421000Y2545014D01*
X21507343Y2525307D01*
X21576584Y2470088D01*
X21615011Y2390296D01*
X21620000Y2346014D01*
X21620000Y2123000D01*
X21827600Y2123000D01*
X21827600Y3050000D01*
X22227600Y3050000D01*
X22227600Y2123000D01*
X22590107Y2123000D01*
X22627151Y2130369D01*
X22627153Y2130370D01*
X22669161Y2158439D01*
X22697230Y2200447D01*
X22697231Y2200449D01*
X22704600Y2237494D01*
X22704600Y3050000D01*
X22227600Y3050000D01*
X21827600Y3050000D01*
X21827600Y3432234D01*
X28845787Y3432234D01*
X28875412Y3162992D01*
X28875415Y3162975D01*
X28943924Y2900925D01*
X28943926Y2900917D01*
X28943928Y2900912D01*
X29048739Y2654271D01*
X29049871Y2651608D01*
X29067722Y2622359D01*
X29190982Y2420390D01*
X29252878Y2346014D01*
X29364254Y2212181D01*
X29364259Y2212175D01*
X29565997Y2031418D01*
X29613108Y2000250D01*
X29791910Y1881956D01*
X30037176Y1766980D01*
X30122466Y1741320D01*
X30296555Y1688944D01*
X30296557Y1688944D01*
X30296569Y1688940D01*
X30564561Y1649500D01*
X30564565Y1649500D01*
X30767625Y1649500D01*
X30767631Y1649500D01*
X30970156Y1664323D01*
X31234553Y1723220D01*
X31487558Y1819986D01*
X31723777Y1952559D01*
X31938177Y2118112D01*
X32126186Y2313119D01*
X32283799Y2533421D01*
X32407656Y2774325D01*
X32495118Y3030695D01*
X32544319Y3297067D01*
X32554212Y3567765D01*
X32545863Y3643640D01*
X32524587Y3837009D01*
X32524586Y3837010D01*
X32524586Y3837018D01*
X32456072Y4099088D01*
X32350130Y4348390D01*
X32209018Y4579610D01*
X32035745Y4787820D01*
X32035740Y4787826D01*
X31834002Y4968583D01*
X31665210Y5080254D01*
X31608090Y5118044D01*
X31608084Y5118047D01*
X31608082Y5118048D01*
X31362827Y5233019D01*
X31362819Y5233022D01*
X31103444Y5311057D01*
X31103433Y5311060D01*
X31103431Y5311060D01*
X31103426Y5311061D01*
X31103425Y5311061D01*
X30835442Y5350500D01*
X30835439Y5350500D01*
X30632369Y5350500D01*
X30429844Y5335677D01*
X30429842Y5335677D01*
X30165453Y5276782D01*
X30165446Y5276780D01*
X29912447Y5180017D01*
X29891737Y5168394D01*
X29676223Y5047441D01*
X29676217Y5047438D01*
X29676216Y5047436D01*
X29676214Y5047435D01*
X29461830Y4881895D01*
X29461825Y4881890D01*
X29273814Y4686882D01*
X29116197Y4466573D01*
X28992342Y4225672D01*
X28904884Y3969313D01*
X28904882Y3969306D01*
X28855680Y3702929D01*
X28845787Y3432234D01*
X21827600Y3432234D01*
X21827600Y4377000D01*
X22227600Y4377000D01*
X22227600Y3450000D01*
X22704600Y3450000D01*
X22704600Y4262507D01*
X22697231Y4299552D01*
X22697230Y4299554D01*
X22669161Y4341562D01*
X22627153Y4369631D01*
X22627151Y4369632D01*
X22590107Y4377000D01*
X22227600Y4377000D01*
X21827600Y4377000D01*
X21620000Y4377000D01*
X21620000Y4153986D01*
X21600293Y4067643D01*
X21545074Y3998402D01*
X21465282Y3959975D01*
X21421000Y3954986D01*
X21419000Y3954986D01*
X21332657Y3974693D01*
X21263416Y4029912D01*
X21224989Y4109704D01*
X21220000Y4153986D01*
X21220000Y4353214D01*
X21080739Y4304484D01*
X20932482Y4211326D01*
X20932481Y4211326D01*
X20808674Y4087519D01*
X20808674Y4087518D01*
X20715517Y3939262D01*
X20657686Y3773991D01*
X20643000Y3643640D01*
X20643000Y3450000D01*
X20821000Y3450000D01*
X20907343Y3430293D01*
X20976584Y3375074D01*
X21015011Y3295282D01*
X21020000Y3251000D01*
X21020000Y3249000D01*
X21000293Y3162657D01*
X20945074Y3093416D01*
X20865282Y3054989D01*
X20821000Y3050000D01*
X20643000Y3050000D01*
X20643000Y2856361D01*
X13557000Y2856361D01*
X13557000Y3050000D01*
X13379000Y3050000D01*
X13292657Y3069707D01*
X13223416Y3124926D01*
X13184989Y3204718D01*
X13180000Y3249000D01*
X13180000Y3251000D01*
X13199707Y3337343D01*
X13254926Y3406584D01*
X13334718Y3445011D01*
X13379000Y3450000D01*
X13557000Y3450000D01*
X13557000Y3643640D01*
X13542313Y3773991D01*
X13484482Y3939262D01*
X13391325Y4087518D01*
X13391325Y4087519D01*
X13267518Y4211326D01*
X13119260Y4304484D01*
X12980000Y4353214D01*
X12980000Y4153986D01*
X12960293Y4067643D01*
X12905074Y3998402D01*
X12825282Y3959975D01*
X12781000Y3954986D01*
X12779000Y3954986D01*
X12692657Y3974693D01*
X12623416Y4029912D01*
X12584989Y4109704D01*
X12580000Y4153986D01*
X12580000Y4377000D01*
X12372400Y4377000D01*
X11972400Y4377000D01*
X11609893Y4377000D01*
X11572848Y4369632D01*
X11572846Y4369631D01*
X11530838Y4341562D01*
X11502769Y4299554D01*
X11502768Y4299552D01*
X11495400Y4262507D01*
X11495400Y3450000D01*
X8766392Y3450000D01*
X8853050Y3536658D01*
X8910646Y3649696D01*
X8925500Y3743481D01*
X8925499Y4206518D01*
X8910646Y4300304D01*
X8853050Y4413342D01*
X8853049Y4413343D01*
X8853048Y4413345D01*
X8763342Y4503051D01*
X8650307Y4560645D01*
X8650304Y4560646D01*
X8650302Y4560647D01*
X8650300Y4560647D01*
X8556525Y4575499D01*
X8556519Y4575500D01*
X8556511Y4575500D01*
X7943481Y4575500D01*
X7849696Y4560646D01*
X7849694Y4560646D01*
X7736655Y4503049D01*
X7664073Y4430467D01*
X7589084Y4383349D01*
X7501078Y4373433D01*
X7417485Y4402685D01*
X7354861Y4465309D01*
X7325611Y4548902D01*
X7324974Y4586800D01*
X7325497Y4593468D01*
X7325500Y4593481D01*
X7325499Y5027681D01*
X7345206Y5114022D01*
X7400424Y5183264D01*
X7480217Y5221691D01*
X7568780Y5221691D01*
X7648573Y5183265D01*
X7665213Y5168394D01*
X7736657Y5096950D01*
X7833824Y5047441D01*
X7849696Y5039354D01*
X7943481Y5024500D01*
X8556518Y5024501D01*
X8650304Y5039354D01*
X8763342Y5096950D01*
X8763344Y5096953D01*
X8778607Y5112214D01*
X8853595Y5159333D01*
X8919321Y5170500D01*
X15916875Y5170500D01*
X15928024Y5169874D01*
X15930297Y5169618D01*
X15965186Y5165687D01*
X16024148Y5176844D01*
X16083479Y5185786D01*
X16083484Y5185789D01*
X16091641Y5188305D01*
X16091685Y5188320D01*
X16091739Y5188337D01*
X16099803Y5191159D01*
X16099807Y5191159D01*
X16152858Y5219198D01*
X16206921Y5245233D01*
X16206925Y5245237D01*
X16213985Y5250051D01*
X16214012Y5250070D01*
X16214038Y5250089D01*
X16220933Y5255177D01*
X16220940Y5255180D01*
X16263369Y5297610D01*
X16307356Y5338423D01*
X16307359Y5338430D01*
X16316360Y5349716D01*
X16323788Y5358030D01*
X17138973Y6173214D01*
X17213963Y6220333D01*
X17279688Y6231500D01*
X18592875Y6231500D01*
X18604024Y6230874D01*
X18606297Y6230618D01*
X18641186Y6226687D01*
X18700148Y6237844D01*
X18759479Y6246786D01*
X18759484Y6246789D01*
X18767641Y6249305D01*
X18767685Y6249320D01*
X18767739Y6249337D01*
X18775803Y6252159D01*
X18775807Y6252159D01*
X18828858Y6280198D01*
X18882921Y6306233D01*
X18882925Y6306237D01*
X18889985Y6311051D01*
X18890012Y6311070D01*
X18890038Y6311089D01*
X18896933Y6316177D01*
X18896940Y6316180D01*
X18939369Y6358610D01*
X18983356Y6399423D01*
X18983361Y6399433D01*
X18992360Y6410715D01*
X18999788Y6419030D01*
X19225924Y6645166D01*
X19300910Y6692283D01*
X19388917Y6702199D01*
X19472510Y6672948D01*
X19529213Y6619209D01*
X19536026Y6609557D01*
X19536028Y6609555D01*
X19536029Y6609553D01*
X19639320Y6498956D01*
X19768618Y6420328D01*
X19914335Y6379500D01*
X19914336Y6379500D01*
X20027653Y6379500D01*
X20027658Y6379500D01*
X20139920Y6394930D01*
X20278720Y6455220D01*
X20396108Y6550722D01*
X20436443Y6607865D01*
X20502330Y6667035D01*
X20587372Y6691761D01*
X20674720Y6677140D01*
X20747074Y6626068D01*
X20765278Y6602455D01*
X20859293Y6459514D01*
X20859298Y6459508D01*
X20982908Y6342888D01*
X20982910Y6342887D01*
X21130089Y6257914D01*
X21130091Y6257913D01*
X21219998Y6230997D01*
X21219999Y6230997D01*
X21219999Y6376014D01*
X21239706Y6462357D01*
X21294925Y6531598D01*
X21374717Y6570025D01*
X21418999Y6575014D01*
X21421000Y6575014D01*
X21507343Y6555307D01*
X21576584Y6500088D01*
X21615011Y6420296D01*
X21620000Y6376014D01*
X21619999Y6203000D01*
X21827600Y6203000D01*
X21827600Y7230000D01*
X22227600Y7230000D01*
X22227600Y6203000D01*
X22590107Y6203000D01*
X22627151Y6210369D01*
X22627153Y6210370D01*
X22669161Y6238439D01*
X22697230Y6280447D01*
X22697231Y6280449D01*
X22704600Y6317494D01*
X22704600Y7230000D01*
X22227600Y7230000D01*
X21827600Y7230000D01*
X21827600Y7275297D01*
X21820000Y7320028D01*
X21820000Y7539972D01*
X21827600Y7573271D01*
X21827600Y8657000D01*
X22227600Y8657000D01*
X22227600Y7630000D01*
X22704600Y7630000D01*
X22704600Y8542507D01*
X22697231Y8579552D01*
X22697230Y8579554D01*
X22669161Y8621562D01*
X22627153Y8649631D01*
X22627151Y8649632D01*
X22590107Y8657000D01*
X22227600Y8657000D01*
X21827600Y8657000D01*
X21620000Y8657000D01*
X21620000Y8483986D01*
X21600293Y8397643D01*
X21545074Y8328402D01*
X21465282Y8289975D01*
X21421000Y8284986D01*
X21419000Y8284986D01*
X21332657Y8304693D01*
X21263416Y8359912D01*
X21224989Y8439704D01*
X21220000Y8483986D01*
X21220000Y8632950D01*
X21219999Y8632950D01*
X21210075Y8631200D01*
X21054024Y8563885D01*
X21019834Y8538431D01*
X20938808Y8502678D01*
X20850293Y8505623D01*
X20771822Y8546680D01*
X20718936Y8617719D01*
X20702000Y8698054D01*
X20702000Y8919507D01*
X20694631Y8956552D01*
X20694630Y8956554D01*
X20666561Y8998562D01*
X20624553Y9026631D01*
X20618594Y9027816D01*
X20537756Y9063991D01*
X20511651Y9094906D01*
X20462623Y9054797D01*
X20376532Y9034015D01*
X20374052Y9034000D01*
X20006187Y9034000D01*
X19919844Y9053707D01*
X19895631Y9067536D01*
X19853231Y9095867D01*
X19828497Y9100787D01*
X19794750Y9107500D01*
X19794748Y9107500D01*
X19730321Y9107500D01*
X19643978Y9127207D01*
X19574737Y9182426D01*
X19536310Y9262218D01*
X19536310Y9350782D01*
X19574737Y9430574D01*
X19589607Y9447214D01*
X19633049Y9490657D01*
X19633050Y9490658D01*
X19648516Y9521011D01*
X19690646Y9603696D01*
X19705500Y9697481D01*
X19705500Y9804000D01*
X20228001Y9804000D01*
X20228001Y9690677D01*
X20234268Y9643063D01*
X20234269Y9643060D01*
X20283005Y9538546D01*
X20364545Y9457006D01*
X20458154Y9413355D01*
X20519033Y9366035D01*
X20555000Y9402002D01*
X20555000Y9804000D01*
X20955000Y9804000D01*
X20955000Y9402001D01*
X20993318Y9402001D01*
X20993323Y9402002D01*
X21040937Y9408269D01*
X21040940Y9408270D01*
X21145454Y9457006D01*
X21226993Y9538545D01*
X21226995Y9538548D01*
X21275729Y9643058D01*
X21275731Y9643065D01*
X21281999Y9690673D01*
X21282000Y9690678D01*
X21282000Y9804000D01*
X20955000Y9804000D01*
X20555000Y9804000D01*
X20228001Y9804000D01*
X19705500Y9804000D01*
X19705499Y10204000D01*
X20228000Y10204000D01*
X20555000Y10204000D01*
X20555000Y10606000D01*
X20955000Y10606000D01*
X20955000Y10204000D01*
X21281999Y10204000D01*
X21281999Y10317318D01*
X21281998Y10317324D01*
X21275731Y10364938D01*
X21275730Y10364941D01*
X21226994Y10469455D01*
X21145455Y10550994D01*
X21145452Y10550996D01*
X21040942Y10599730D01*
X21040935Y10599732D01*
X20993327Y10606000D01*
X20955000Y10606000D01*
X20555000Y10606000D01*
X20555000Y10606001D01*
X20516685Y10606000D01*
X20516675Y10605999D01*
X20469061Y10599732D01*
X20469059Y10599731D01*
X20364545Y10550995D01*
X20283006Y10469456D01*
X20283004Y10469453D01*
X20234270Y10364943D01*
X20234268Y10364936D01*
X20228000Y10317328D01*
X20228000Y10204000D01*
X19705499Y10204000D01*
X19705499Y10310518D01*
X19704420Y10317328D01*
X19701321Y10336897D01*
X19690646Y10404304D01*
X19633050Y10517342D01*
X19633049Y10517343D01*
X19633048Y10517345D01*
X19543342Y10607051D01*
X19430307Y10664645D01*
X19430304Y10664646D01*
X19430302Y10664647D01*
X19430300Y10664647D01*
X19336525Y10679499D01*
X19336519Y10679500D01*
X19336511Y10679500D01*
X18873481Y10679500D01*
X18779696Y10664646D01*
X18779694Y10664646D01*
X18666655Y10607049D01*
X18650878Y10591271D01*
X18575890Y10544152D01*
X18487883Y10534236D01*
X18404290Y10563487D01*
X18369450Y10591271D01*
X18146714Y10814007D01*
X18137655Y10824417D01*
X18131907Y10832030D01*
X18097223Y10863648D01*
X18093920Y10866801D01*
X18080747Y10879974D01*
X18080683Y10880018D01*
X18069881Y10888575D01*
X18048883Y10907716D01*
X18046387Y10909262D01*
X18014138Y10926261D01*
X18011433Y10927456D01*
X17994690Y10931394D01*
X17983786Y10933959D01*
X17970614Y10938038D01*
X17944121Y10948301D01*
X17941214Y10948844D01*
X17905031Y10953042D01*
X17902069Y10953179D01*
X17902068Y10953179D01*
X17902067Y10953179D01*
X17873939Y10949255D01*
X17860177Y10948300D01*
X17373494Y10948300D01*
X17359731Y10949255D01*
X17350287Y10950573D01*
X17350286Y10950573D01*
X17350284Y10950573D01*
X17303407Y10948406D01*
X17298812Y10948300D01*
X17280206Y10948300D01*
X17280203Y10948300D01*
X17280162Y10948296D01*
X17280073Y10948279D01*
X17266414Y10946697D01*
X17238062Y10945386D01*
X17235191Y10944711D01*
X17200359Y10933924D01*
X17197614Y10932861D01*
X17173472Y10917913D01*
X17161275Y10911483D01*
X17135285Y10900007D01*
X17132863Y10898348D01*
X17104281Y10875709D01*
X17102095Y10873716D01*
X17084976Y10851048D01*
X17075922Y10840645D01*
X16801481Y10566204D01*
X16726493Y10519085D01*
X16638486Y10509169D01*
X16634795Y10509620D01*
X16599268Y10514297D01*
X16599267Y10514297D01*
X16599266Y10514297D01*
X16494758Y10500539D01*
X16442503Y10493659D01*
X16442501Y10493658D01*
X16296425Y10433152D01*
X16296423Y10433151D01*
X16224815Y10378204D01*
X16144317Y10341277D01*
X16055769Y10342934D01*
X15976709Y10382846D01*
X15960731Y10399875D01*
X15960125Y10399268D01*
X15859342Y10500051D01*
X15746307Y10557645D01*
X15746304Y10557646D01*
X15746302Y10557647D01*
X15746300Y10557647D01*
X15652525Y10572499D01*
X15652519Y10572500D01*
X15652511Y10572500D01*
X15189481Y10572500D01*
X15095696Y10557646D01*
X15095694Y10557646D01*
X14982655Y10500049D01*
X14892949Y10410343D01*
X14835355Y10297308D01*
X14835353Y10297301D01*
X14820501Y10203526D01*
X14820500Y10203512D01*
X14820500Y9590482D01*
X14835354Y9496697D01*
X14835354Y9496695D01*
X14838431Y9490657D01*
X14881341Y9406441D01*
X14886231Y9396845D01*
X14907871Y9310966D01*
X14890106Y9224202D01*
X14836456Y9153739D01*
X14757545Y9113532D01*
X14708921Y9107500D01*
X14398371Y9107500D01*
X14312028Y9127207D01*
X14242787Y9182426D01*
X14204360Y9262218D01*
X14204360Y9350782D01*
X14235358Y9420640D01*
X14242996Y9431549D01*
X14291729Y9536058D01*
X14291731Y9536065D01*
X14297999Y9583673D01*
X14298000Y9583678D01*
X14298000Y9697000D01*
X13244001Y9697000D01*
X13244001Y9583677D01*
X13250268Y9536063D01*
X13250269Y9536060D01*
X13299005Y9431546D01*
X13380544Y9350007D01*
X13380547Y9350005D01*
X13466920Y9309728D01*
X13536845Y9255377D01*
X13576263Y9176069D01*
X13577367Y9087513D01*
X13543687Y9015288D01*
X13544328Y9014860D01*
X13541547Y9010699D01*
X13539938Y9007247D01*
X13537068Y9003996D01*
X13505369Y8956554D01*
X13505368Y8956552D01*
X13498000Y8919507D01*
X13498000Y8699608D01*
X13478293Y8613265D01*
X13423074Y8544024D01*
X13343282Y8505597D01*
X13254718Y8505597D01*
X13199501Y8527268D01*
X13069907Y8602088D01*
X12980000Y8629006D01*
X12980000Y8483986D01*
X12960293Y8397643D01*
X12905074Y8328402D01*
X12825282Y8289975D01*
X12781000Y8284986D01*
X12779000Y8284986D01*
X12692657Y8304693D01*
X12623416Y8359912D01*
X12584989Y8439704D01*
X12580000Y8483986D01*
X12580000Y8657000D01*
X12372400Y8657000D01*
X12372400Y7584704D01*
X12380000Y7539972D01*
X12380000Y7429000D01*
X12360293Y7342657D01*
X12305074Y7273416D01*
X12225282Y7234989D01*
X12181000Y7230000D01*
X11495400Y7230000D01*
X11495400Y6317497D01*
X11495433Y6317331D01*
X11495429Y6317195D01*
X11496358Y6307766D01*
X11495161Y6307649D01*
X11492952Y6228802D01*
X11452307Y6150117D01*
X11381546Y6096859D01*
X11300258Y6079500D01*
X8919321Y6079500D01*
X8832978Y6099207D01*
X8778607Y6137786D01*
X8763344Y6153049D01*
X8709155Y6180660D01*
X8641170Y6237419D01*
X8604544Y6318054D01*
X8600500Y6357970D01*
X8600500Y6593012D01*
X8604736Y6633852D01*
X8605043Y6635315D01*
X8601265Y6665626D01*
X8600500Y6677946D01*
X8600500Y6679040D01*
X8600499Y6679047D01*
X8596912Y6700540D01*
X8596129Y6706822D01*
X8590573Y6751393D01*
X8590572Y6751396D01*
X8588479Y6758426D01*
X8586092Y6765378D01*
X8586092Y6765381D01*
X8561704Y6810445D01*
X8539198Y6856484D01*
X8534928Y6862464D01*
X8530419Y6868258D01*
X8492724Y6902958D01*
X7858786Y7536897D01*
X7811667Y7611885D01*
X7808589Y7630000D01*
X11495400Y7630000D01*
X11972400Y7630000D01*
X11972400Y8657000D01*
X11609893Y8657000D01*
X11572848Y8649632D01*
X11572846Y8649631D01*
X11530838Y8621562D01*
X11502769Y8579554D01*
X11502768Y8579552D01*
X11495400Y8542507D01*
X11495400Y7630000D01*
X7808589Y7630000D01*
X7800500Y7677611D01*
X7800500Y8001710D01*
X7820207Y8088053D01*
X7875426Y8157294D01*
X7909156Y8179020D01*
X7918025Y8183540D01*
X7953220Y8201472D01*
X8048528Y8296780D01*
X8109719Y8416874D01*
X8125500Y8516512D01*
X8125500Y9083488D01*
X8109719Y9183126D01*
X8109718Y9183128D01*
X8109718Y9183129D01*
X8048528Y9303221D01*
X7953220Y9398529D01*
X7833127Y9459719D01*
X7733488Y9475500D01*
X7216512Y9475500D01*
X7116873Y9459719D01*
X7116871Y9459719D01*
X6996779Y9398529D01*
X6901472Y9303222D01*
X6835738Y9174212D01*
X6778979Y9106227D01*
X6698344Y9069601D01*
X6609803Y9071589D01*
X6530893Y9111797D01*
X6479648Y9177157D01*
X6440436Y9257367D01*
X6357366Y9340437D01*
X6251820Y9392035D01*
X6243861Y9394494D01*
X6167186Y9438815D01*
X6117334Y9512016D01*
X6104180Y9599597D01*
X6130329Y9684212D01*
X6190601Y9749102D01*
X6201935Y9755686D01*
X6207367Y9759565D01*
X6290436Y9842634D01*
X6342031Y9948174D01*
X6352000Y10016596D01*
X6352000Y10097000D01*
X13244000Y10097000D01*
X13571000Y10097000D01*
X13571000Y10499000D01*
X13971000Y10499000D01*
X13971000Y10097000D01*
X14297999Y10097000D01*
X14297999Y10210318D01*
X14297998Y10210324D01*
X14291731Y10257938D01*
X14291730Y10257941D01*
X14242994Y10362455D01*
X14161455Y10443994D01*
X14161452Y10443996D01*
X14056942Y10492730D01*
X14056935Y10492732D01*
X14009327Y10499000D01*
X13971000Y10499000D01*
X13571000Y10499000D01*
X13571000Y10499001D01*
X13532685Y10499000D01*
X13532675Y10498999D01*
X13485061Y10492732D01*
X13485059Y10492731D01*
X13380545Y10443995D01*
X13299006Y10362456D01*
X13299004Y10362453D01*
X13250270Y10257943D01*
X13250268Y10257936D01*
X13244000Y10210328D01*
X13244000Y10097000D01*
X6352000Y10097000D01*
X6352000Y10100000D01*
X5774000Y10100000D01*
X5687657Y10119707D01*
X5618416Y10174926D01*
X5579989Y10254718D01*
X5575000Y10299000D01*
X5575000Y10301000D01*
X5594707Y10387343D01*
X5649926Y10456584D01*
X5729718Y10495011D01*
X5774000Y10500000D01*
X6351999Y10500000D01*
X6351999Y10583405D01*
X6339848Y10666812D01*
X6346902Y10755094D01*
X6391562Y10831573D01*
X6464981Y10881100D01*
X6536769Y10894500D01*
X8151001Y10894500D01*
X8151002Y10894501D01*
X8204187Y10901502D01*
X8251850Y10914273D01*
X8278686Y10921463D01*
X8288840Y10924597D01*
X8293372Y10925994D01*
X8370810Y10974652D01*
X8425348Y11029190D01*
X8435802Y11040455D01*
X8478536Y11121313D01*
X8498498Y11195813D01*
X8505500Y11249000D01*
X8505500Y11262799D01*
X8525207Y11349142D01*
X8580426Y11418383D01*
X8660218Y11456810D01*
X8748782Y11456810D01*
X8760940Y11453307D01*
X8765298Y11452355D01*
X8765299Y11452355D01*
X8765302Y11452354D01*
X8795735Y11449500D01*
X11804264Y11449501D01*
X11804265Y11449501D01*
X11819481Y11450928D01*
X11834698Y11452354D01*
X11962882Y11497207D01*
X12072150Y11577850D01*
X12152793Y11687118D01*
X12197646Y11815302D01*
X12200500Y11845735D01*
X12200499Y12954264D01*
X12197646Y12984698D01*
X12152793Y13112882D01*
X12094500Y13191867D01*
X12072150Y13222151D01*
X11962884Y13302792D01*
X11962878Y13302795D01*
X11834699Y13347646D01*
X11834701Y13347646D01*
X11824553Y13348598D01*
X11804265Y13350500D01*
X11804259Y13350500D01*
X8795734Y13350500D01*
X8765302Y13347647D01*
X8753469Y13345062D01*
X8752953Y13347423D01*
X8682212Y13339454D01*
X8598620Y13368707D01*
X8535998Y13431333D01*
X8506751Y13514928D01*
X8505500Y13537202D01*
X8505500Y13745500D01*
X8525207Y13831843D01*
X8580426Y13901084D01*
X8660218Y13939511D01*
X8704500Y13944500D01*
X14432348Y13944500D01*
X14432351Y13944500D01*
X14439781Y13944769D01*
X14464972Y13946595D01*
X14531368Y13962802D01*
X14589417Y13987791D01*
X14676511Y14003828D01*
X14758442Y13982316D01*
X14791874Y13965281D01*
X14891512Y13949500D01*
X15408488Y13949500D01*
X15508126Y13965281D01*
X15628220Y14026472D01*
X15723528Y14121780D01*
X15784719Y14241874D01*
X15784718Y14241874D01*
X15789261Y14250788D01*
X15846019Y14318773D01*
X15926653Y14355399D01*
X16015194Y14353412D01*
X16094105Y14313206D01*
X16145351Y14247844D01*
X16184563Y14167635D01*
X16184564Y14167633D01*
X16267633Y14084564D01*
X16373174Y14032969D01*
X16373172Y14032969D01*
X16441594Y14023001D01*
X16500000Y14023001D01*
X16500000Y14425000D01*
X16900000Y14425000D01*
X16900000Y14023001D01*
X16958404Y14023001D01*
X17026827Y14032969D01*
X17132366Y14084564D01*
X17215436Y14167634D01*
X17267031Y14273174D01*
X17277000Y14341596D01*
X17277000Y14425000D01*
X16900000Y14425000D01*
X16500000Y14425000D01*
X16500000Y15227000D01*
X16486249Y15240751D01*
X16460148Y15246708D01*
X16422020Y15277114D01*
X16369589Y15218252D01*
X16341573Y15201583D01*
X16267632Y15165436D01*
X16184564Y15082368D01*
X16184561Y15082364D01*
X16145350Y15002156D01*
X16089724Y14933242D01*
X16009705Y14895288D01*
X15921143Y14895811D01*
X15841579Y14934709D01*
X15789261Y14999213D01*
X15723528Y15128221D01*
X15658786Y15192963D01*
X15611667Y15267951D01*
X15600500Y15333677D01*
X15600500Y15405694D01*
X15620207Y15492037D01*
X15675426Y15561278D01*
X15755218Y15599705D01*
X15843782Y15599705D01*
X15879881Y15587738D01*
X15935483Y15563188D01*
X15950000Y15561504D01*
X15950000Y16351000D01*
X15969707Y16437343D01*
X16024926Y16506584D01*
X16104718Y16545011D01*
X16149000Y16550000D01*
X16151000Y16550000D01*
X16237343Y16530293D01*
X16306584Y16475074D01*
X16345011Y16395282D01*
X16350000Y16351000D01*
X16350000Y15561504D01*
X16382478Y15532574D01*
X16390907Y15550075D01*
X16444980Y15593199D01*
X16444029Y15594587D01*
X16457955Y15604128D01*
X16459403Y15604701D01*
X16460148Y15605294D01*
X16466122Y15608050D01*
X16476134Y15612470D01*
X16476569Y15611483D01*
X16540323Y15636671D01*
X16628653Y15630254D01*
X16705452Y15586146D01*
X16711143Y15580676D01*
X16743517Y15548302D01*
X16775689Y15532574D01*
X16814024Y15513833D01*
X16882939Y15458206D01*
X16920893Y15378188D01*
X16920370Y15289626D01*
X16900000Y15247960D01*
X16900000Y14825000D01*
X17276999Y14825000D01*
X17276999Y14908405D01*
X17267031Y14976828D01*
X17215436Y15082367D01*
X17150464Y15147339D01*
X17103345Y15222327D01*
X17093429Y15310334D01*
X17122680Y15393927D01*
X17185304Y15456551D01*
X17268897Y15485802D01*
X17276810Y15486534D01*
X17283243Y15487000D01*
X17283260Y15487000D01*
X17351393Y15496927D01*
X17456483Y15548302D01*
X17539198Y15631017D01*
X17590573Y15736107D01*
X17600500Y15804240D01*
X17600500Y16895760D01*
X17590573Y16963893D01*
X17539198Y17068983D01*
X17539194Y17068987D01*
X17535952Y17073528D01*
X17501816Y17155248D01*
X17501353Y17158045D01*
X17500500Y17163430D01*
X17500500Y17163433D01*
X17495478Y17178889D01*
X17488187Y17209259D01*
X17487613Y17212882D01*
X17485646Y17225304D01*
X17478267Y17239786D01*
X17466317Y17268635D01*
X17461296Y17284089D01*
X17451743Y17297238D01*
X17435429Y17323860D01*
X17428050Y17338342D01*
X17428049Y17338343D01*
X17428048Y17338345D01*
X17410375Y17356018D01*
X17410358Y17356036D01*
X17308746Y17457648D01*
X17261627Y17532636D01*
X17251711Y17620643D01*
X17280962Y17704236D01*
X17343586Y17766860D01*
X17362061Y17777142D01*
X17393217Y17792374D01*
X17456483Y17823302D01*
X17539198Y17906017D01*
X17590573Y18011107D01*
X17600500Y18079240D01*
X17600500Y19170760D01*
X17590573Y19238893D01*
X17539198Y19343983D01*
X17456483Y19426698D01*
X17456480Y19426700D01*
X17366365Y19470754D01*
X17297450Y19526380D01*
X17259495Y19606398D01*
X17260018Y19694960D01*
X17298914Y19774524D01*
X17313051Y19790249D01*
X17390436Y19867634D01*
X17442031Y19973174D01*
X17452000Y20041596D01*
X17452000Y20125000D01*
X16874000Y20125000D01*
X16787657Y20144707D01*
X16718416Y20199926D01*
X16679989Y20279718D01*
X16675000Y20324000D01*
X16675000Y20927000D01*
X17075000Y20927000D01*
X17075000Y20525000D01*
X17451999Y20525000D01*
X17451999Y20608405D01*
X17442031Y20676828D01*
X17390436Y20782367D01*
X17307366Y20865437D01*
X17201825Y20917032D01*
X17201827Y20917032D01*
X17133405Y20927000D01*
X17075000Y20927000D01*
X16675000Y20927000D01*
X16616595Y20927000D01*
X16548172Y20917032D01*
X16442633Y20865437D01*
X16359564Y20782368D01*
X16359561Y20782364D01*
X16320350Y20702156D01*
X16264724Y20633242D01*
X16184705Y20595288D01*
X16096143Y20595811D01*
X16016579Y20634709D01*
X15964261Y20699213D01*
X15898528Y20828221D01*
X15803220Y20923529D01*
X15683127Y20984719D01*
X15583488Y21000500D01*
X15066512Y21000500D01*
X14966873Y20984719D01*
X14966871Y20984719D01*
X14846779Y20923529D01*
X14751476Y20828226D01*
X14742270Y20815553D01*
X14740213Y20817048D01*
X14697745Y20766175D01*
X14617112Y20729546D01*
X14577187Y20725500D01*
X13123320Y20725500D01*
X13036977Y20745207D01*
X12982606Y20783786D01*
X9933786Y23832607D01*
X9886667Y23907595D01*
X9875500Y23973321D01*
X9875500Y36743000D01*
X10579001Y36743000D01*
X10579001Y36629677D01*
X10585268Y36582063D01*
X10585269Y36582060D01*
X10634005Y36477546D01*
X10715544Y36396007D01*
X10715547Y36396005D01*
X10820057Y36347271D01*
X10867682Y36341001D01*
X10906000Y36341002D01*
X10906000Y36743000D01*
X11306000Y36743000D01*
X11306000Y36341001D01*
X11344318Y36341001D01*
X11344323Y36341002D01*
X11391937Y36347269D01*
X11391940Y36347270D01*
X11496454Y36396006D01*
X11577993Y36477545D01*
X11577995Y36477548D01*
X11626729Y36582058D01*
X11626731Y36582065D01*
X11632999Y36629673D01*
X11633000Y36629678D01*
X11633000Y36743000D01*
X11306000Y36743000D01*
X10906000Y36743000D01*
X10579001Y36743000D01*
X9875500Y36743000D01*
X9875500Y37143000D01*
X10579000Y37143000D01*
X10906000Y37143000D01*
X10906000Y37545000D01*
X11306000Y37545000D01*
X11306000Y37143000D01*
X11632999Y37143000D01*
X11632999Y37256318D01*
X11632998Y37256324D01*
X11626731Y37303938D01*
X11626730Y37303941D01*
X11577994Y37408455D01*
X11496455Y37489994D01*
X11496452Y37489996D01*
X11391942Y37538730D01*
X11391935Y37538732D01*
X11344327Y37545000D01*
X11306000Y37545000D01*
X10906000Y37545000D01*
X10906000Y37545001D01*
X10867685Y37545000D01*
X10867675Y37544999D01*
X10820061Y37538732D01*
X10820059Y37538731D01*
X10715545Y37489995D01*
X10634006Y37408456D01*
X10634004Y37408453D01*
X10585270Y37303943D01*
X10585268Y37303936D01*
X10579000Y37256328D01*
X10579000Y37143000D01*
X9875500Y37143000D01*
X9875500Y41250500D01*
X9895207Y41336843D01*
X9950426Y41406084D01*
X10030218Y41444511D01*
X10074500Y41449500D01*
X10283254Y41449500D01*
X10283260Y41449500D01*
X10351393Y41459427D01*
X10456483Y41510802D01*
X10539198Y41593517D01*
X10590573Y41698607D01*
X10600500Y41766740D01*
X10600500Y42233260D01*
X10590573Y42301393D01*
X10539198Y42406483D01*
X10539197Y42406485D01*
X10483785Y42461897D01*
X10436667Y42536886D01*
X10425500Y42602610D01*
X10425500Y42981449D01*
X10425879Y42990125D01*
X10428051Y43014958D01*
X10429263Y43028807D01*
X10419208Y43066332D01*
X10417331Y43074800D01*
X10416070Y43081950D01*
X10410588Y43113045D01*
X10405655Y43126598D01*
X10399553Y43139683D01*
X10399553Y43139684D01*
X10377277Y43171498D01*
X10372611Y43178823D01*
X10353193Y43212456D01*
X10323446Y43237417D01*
X10317053Y43243274D01*
X8210327Y45350000D01*
X10673000Y45350000D01*
X10673000Y45187494D01*
X10680368Y45150449D01*
X10680369Y45150447D01*
X10708438Y45108439D01*
X10750446Y45080370D01*
X10750448Y45080369D01*
X10787493Y45073000D01*
X10950000Y45073000D01*
X10950000Y45350000D01*
X10673000Y45350000D01*
X8210327Y45350000D01*
X7260327Y46300000D01*
X10673000Y46300000D01*
X10673000Y46287494D01*
X10680368Y46250449D01*
X10680371Y46250444D01*
X10707022Y46210556D01*
X10738604Y46127815D01*
X10731159Y46039565D01*
X10707022Y45989444D01*
X10680371Y45949557D01*
X10680368Y45949552D01*
X10673000Y45912507D01*
X10673000Y45750000D01*
X11151000Y45750000D01*
X11237343Y45730293D01*
X11306584Y45675074D01*
X11345011Y45595282D01*
X11350000Y45551000D01*
X11350000Y45073000D01*
X11512507Y45073000D01*
X11549551Y45080369D01*
X11549553Y45080370D01*
X11591565Y45108441D01*
X11605422Y45122297D01*
X11606157Y45121562D01*
X11654687Y45167446D01*
X11739067Y45194344D01*
X11826761Y45181967D01*
X11900401Y45132767D01*
X11921263Y45106609D01*
X11955448Y45055447D01*
X12021767Y45011134D01*
X12021769Y45011133D01*
X12056983Y45004129D01*
X12080250Y44999500D01*
X12080252Y44999500D01*
X12519750Y44999500D01*
X12536675Y45002867D01*
X12578231Y45011133D01*
X12589437Y45018622D01*
X12672176Y45050207D01*
X12760427Y45042766D01*
X12810561Y45018622D01*
X12821769Y45011133D01*
X12860844Y45003361D01*
X12880250Y44999500D01*
X12880252Y44999500D01*
X13319750Y44999500D01*
X13336675Y45002867D01*
X13378231Y45011133D01*
X13444552Y45055448D01*
X13444553Y45055450D01*
X13457924Y45064384D01*
X13540664Y45095969D01*
X13628914Y45088526D01*
X13644640Y45082775D01*
X13650449Y45080369D01*
X13687493Y45073000D01*
X13700000Y45073000D01*
X13700000Y46127000D01*
X13687493Y46127000D01*
X13650446Y46119631D01*
X13644633Y46117223D01*
X13557320Y46102391D01*
X13472219Y46126912D01*
X13457925Y46135616D01*
X13444552Y46144552D01*
X13378231Y46188867D01*
X13355814Y46193326D01*
X13319750Y46200500D01*
X13319748Y46200500D01*
X12880252Y46200500D01*
X12880250Y46200500D01*
X12821767Y46188867D01*
X12810559Y46181377D01*
X12727819Y46149793D01*
X12639569Y46157237D01*
X12589441Y46181377D01*
X12578232Y46188867D01*
X12519750Y46200500D01*
X12519748Y46200500D01*
X12080252Y46200500D01*
X12080250Y46200500D01*
X12021766Y46188867D01*
X12003659Y46181366D01*
X12001933Y46185532D01*
X11953793Y46167162D01*
X11865544Y46174617D01*
X11789269Y46219624D01*
X11752837Y46274163D01*
X11727000Y46300000D01*
X10673000Y46300000D01*
X7260327Y46300000D01*
X6983786Y46576541D01*
X6936667Y46651529D01*
X6925500Y46717255D01*
X6925500Y48929293D01*
X6945207Y49015636D01*
X7000426Y49084877D01*
X7034149Y49106600D01*
X7113342Y49146950D01*
X7159785Y49193393D01*
X7214125Y49247732D01*
X7216783Y49245074D01*
X7262578Y49285106D01*
X7347943Y49308692D01*
X7435087Y49292903D01*
X7497642Y49250609D01*
X7596779Y49151472D01*
X7684838Y49106604D01*
X7716874Y49090281D01*
X7816512Y49074500D01*
X8383488Y49074500D01*
X8483126Y49090281D01*
X8603220Y49151472D01*
X8698528Y49246780D01*
X8698529Y49246783D01*
X8702356Y49250609D01*
X8777345Y49297727D01*
X8865351Y49307644D01*
X8948945Y49278394D01*
X8983877Y49245735D01*
X8985875Y49247732D01*
X9086657Y49146950D01*
X9165841Y49106604D01*
X9199696Y49089354D01*
X9203162Y49088805D01*
X9210736Y49085767D01*
X9214593Y49084514D01*
X9214508Y49084255D01*
X9285358Y49055837D01*
X9344373Y48991758D01*
X9346803Y48987548D01*
X9346805Y48987546D01*
X9376565Y48962574D01*
X9382967Y48956707D01*
X9656712Y48682962D01*
X9662572Y48676568D01*
X9687545Y48646806D01*
X9721201Y48627375D01*
X9728505Y48622720D01*
X9760311Y48600449D01*
X9760313Y48600449D01*
X9760316Y48600446D01*
X9760319Y48600446D01*
X9773407Y48594343D01*
X9786952Y48589413D01*
X9786953Y48589413D01*
X9786955Y48589412D01*
X9825199Y48582669D01*
X9833652Y48580796D01*
X9871193Y48570736D01*
X9895432Y48572857D01*
X9909889Y48574121D01*
X9918564Y48574500D01*
X10407691Y48574500D01*
X10494034Y48554793D01*
X10563275Y48499574D01*
X10601702Y48419782D01*
X10602867Y48336674D01*
X10599500Y48319749D01*
X10599500Y47880251D01*
X10611133Y47821769D01*
X10618621Y47810563D01*
X10650207Y47727823D01*
X10642764Y47639573D01*
X10618625Y47589445D01*
X10611133Y47578234D01*
X10604172Y47543238D01*
X10599500Y47519748D01*
X10599500Y47080252D01*
X10611133Y47021769D01*
X10618621Y47010563D01*
X10664384Y46942075D01*
X10695968Y46859335D01*
X10688525Y46771085D01*
X10682777Y46755367D01*
X10680369Y46749554D01*
X10673000Y46712507D01*
X10673000Y46700000D01*
X11727000Y46700000D01*
X11727000Y46712507D01*
X11719631Y46749551D01*
X11717225Y46755360D01*
X11702390Y46842672D01*
X11726907Y46927775D01*
X11735616Y46942076D01*
X11744550Y46955447D01*
X11744552Y46955448D01*
X11788867Y47021769D01*
X11800500Y47080252D01*
X11800500Y47519748D01*
X11788867Y47578231D01*
X11781378Y47589438D01*
X11749793Y47672176D01*
X11757234Y47760427D01*
X11781379Y47810563D01*
X11788867Y47821769D01*
X11800500Y47880252D01*
X11800500Y48319748D01*
X11799455Y48325000D01*
X14273000Y48325000D01*
X14273000Y47787494D01*
X14280368Y47750449D01*
X14280369Y47750447D01*
X14308438Y47708439D01*
X14350446Y47680370D01*
X14350448Y47680369D01*
X14387493Y47673000D01*
X14925000Y47673000D01*
X14925000Y48325000D01*
X14273000Y48325000D01*
X11799455Y48325000D01*
X11796639Y48339156D01*
X11788867Y48378231D01*
X11781378Y48389438D01*
X11749793Y48472176D01*
X11757234Y48560427D01*
X11781379Y48610563D01*
X11788867Y48621769D01*
X11798569Y48670549D01*
X11800500Y48680251D01*
X11800500Y48725000D01*
X14273000Y48725000D01*
X15126000Y48725000D01*
X15212343Y48705293D01*
X15281584Y48650074D01*
X15320011Y48570282D01*
X15325000Y48526000D01*
X15325000Y47673000D01*
X15862507Y47673000D01*
X15899551Y47680369D01*
X15899553Y47680370D01*
X15941560Y47708438D01*
X15947030Y47716624D01*
X16011382Y47777470D01*
X16095762Y47804370D01*
X16183456Y47791995D01*
X16257097Y47742796D01*
X16277962Y47716633D01*
X16283437Y47708439D01*
X16325446Y47680370D01*
X16325448Y47680369D01*
X16362493Y47673000D01*
X16900000Y47673000D01*
X16900000Y48526000D01*
X16919707Y48612343D01*
X16974926Y48681584D01*
X17054718Y48720011D01*
X17099000Y48725000D01*
X17101000Y48725000D01*
X17187343Y48705293D01*
X17256584Y48650074D01*
X17295011Y48570282D01*
X17300000Y48526000D01*
X17300000Y47673000D01*
X17837507Y47673000D01*
X17874551Y47680369D01*
X17874553Y47680370D01*
X17916560Y47708438D01*
X17922030Y47716624D01*
X17986382Y47777470D01*
X18070762Y47804370D01*
X18158456Y47791995D01*
X18232097Y47742796D01*
X18252962Y47716633D01*
X18258437Y47708439D01*
X18300446Y47680370D01*
X18300448Y47680369D01*
X18337493Y47673000D01*
X18875000Y47673000D01*
X18875000Y48325000D01*
X19275000Y48325000D01*
X19275000Y47673000D01*
X19812507Y47673000D01*
X19849551Y47680369D01*
X19849553Y47680370D01*
X19891561Y47708439D01*
X19919630Y47750447D01*
X19919631Y47750449D01*
X19927000Y47787494D01*
X19927000Y48325000D01*
X19275000Y48325000D01*
X18875000Y48325000D01*
X18875000Y48526000D01*
X18894707Y48612343D01*
X18949926Y48681584D01*
X19029718Y48720011D01*
X19074000Y48725000D01*
X19927000Y48725000D01*
X19927000Y49262507D01*
X19919631Y49299552D01*
X19919630Y49299554D01*
X19891561Y49341563D01*
X19883367Y49347038D01*
X19822524Y49411394D01*
X19795629Y49495775D01*
X19808009Y49583469D01*
X19857212Y49657106D01*
X19883376Y49677970D01*
X19891562Y49683440D01*
X19919630Y49725447D01*
X19919631Y49725449D01*
X19927000Y49762494D01*
X19927000Y50300000D01*
X19074000Y50300000D01*
X18987657Y50319707D01*
X18918416Y50374926D01*
X18879989Y50454718D01*
X18875000Y50499000D01*
X18875000Y50501000D01*
X18894707Y50587343D01*
X18949926Y50656584D01*
X19029718Y50695011D01*
X19074000Y50700000D01*
X19927000Y50700000D01*
X19927000Y51237507D01*
X19919631Y51274552D01*
X19919630Y51274554D01*
X19891562Y51316562D01*
X19883371Y51322034D01*
X19822527Y51386388D01*
X19795630Y51470768D01*
X19808007Y51558462D01*
X19857208Y51632101D01*
X19883371Y51652966D01*
X19891562Y51658439D01*
X19919630Y51700447D01*
X19919631Y51700449D01*
X19927000Y51737494D01*
X19927000Y52275000D01*
X19074000Y52275000D01*
X18987657Y52294707D01*
X18918416Y52349926D01*
X18879989Y52429718D01*
X18875000Y52474000D01*
X18875000Y53327000D01*
X19275000Y53327000D01*
X19275000Y52675000D01*
X19927000Y52675000D01*
X19927000Y53212507D01*
X19919631Y53249552D01*
X19919630Y53249554D01*
X19891561Y53291562D01*
X19849553Y53319631D01*
X19849551Y53319632D01*
X19812507Y53327000D01*
X19275000Y53327000D01*
X18875000Y53327000D01*
X18337493Y53327000D01*
X18300448Y53319632D01*
X18300446Y53319631D01*
X18258438Y53291562D01*
X18252964Y53283369D01*
X18188609Y53222526D01*
X18104228Y53195630D01*
X18016534Y53208010D01*
X17942896Y53257212D01*
X17922036Y53283369D01*
X17916561Y53291562D01*
X17874553Y53319631D01*
X17874551Y53319632D01*
X17837507Y53327000D01*
X17300000Y53327000D01*
X17300000Y52474000D01*
X17280293Y52387657D01*
X17225074Y52318416D01*
X17145282Y52279989D01*
X17101000Y52275000D01*
X17099000Y52275000D01*
X17012657Y52294707D01*
X16943416Y52349926D01*
X16904989Y52429718D01*
X16900000Y52474000D01*
X16900000Y53327000D01*
X16362493Y53327000D01*
X16325448Y53319632D01*
X16325446Y53319631D01*
X16283438Y53291562D01*
X16277964Y53283369D01*
X16213609Y53222526D01*
X16129228Y53195630D01*
X16041534Y53208010D01*
X15967896Y53257212D01*
X15947036Y53283369D01*
X15941561Y53291562D01*
X15899553Y53319631D01*
X15899551Y53319632D01*
X15862507Y53327000D01*
X15325000Y53327000D01*
X15325000Y52474000D01*
X15305293Y52387657D01*
X15250074Y52318416D01*
X15170282Y52279989D01*
X15126000Y52275000D01*
X14273000Y52275000D01*
X14273000Y51737494D01*
X14280368Y51700449D01*
X14280369Y51700447D01*
X14308438Y51658439D01*
X14316631Y51652964D01*
X14377474Y51588609D01*
X14404370Y51504228D01*
X14391990Y51416534D01*
X14342788Y51342896D01*
X14316631Y51322036D01*
X14308438Y51316562D01*
X14280369Y51274554D01*
X14280368Y51274552D01*
X14273000Y51237507D01*
X14273000Y50700000D01*
X15126000Y50700000D01*
X15212343Y50680293D01*
X15281584Y50625074D01*
X15320011Y50545282D01*
X15325000Y50501000D01*
X15325000Y50499000D01*
X15305293Y50412657D01*
X15250074Y50343416D01*
X15170282Y50304989D01*
X15126000Y50300000D01*
X14273000Y50300000D01*
X14273000Y49762494D01*
X14280368Y49725449D01*
X14280369Y49725447D01*
X14308438Y49683439D01*
X14316631Y49677964D01*
X14377474Y49613609D01*
X14404370Y49529228D01*
X14391990Y49441534D01*
X14342788Y49367896D01*
X14316631Y49347036D01*
X14308438Y49341562D01*
X14280369Y49299554D01*
X14280368Y49299552D01*
X14273000Y49262507D01*
X14273000Y48725000D01*
X11800500Y48725000D01*
X11800500Y49119750D01*
X11794190Y49151471D01*
X11788867Y49178231D01*
X11781378Y49189438D01*
X11749793Y49272176D01*
X11757234Y49360427D01*
X11781379Y49410563D01*
X11788867Y49421769D01*
X11800500Y49480252D01*
X11800500Y49919748D01*
X11788867Y49978231D01*
X11781378Y49989438D01*
X11749793Y50072176D01*
X11757234Y50160427D01*
X11781379Y50210563D01*
X11788867Y50221769D01*
X11800500Y50280252D01*
X11800500Y50719748D01*
X11788867Y50778231D01*
X11781378Y50789438D01*
X11749793Y50872176D01*
X11757234Y50960427D01*
X11781379Y51010563D01*
X11788867Y51021769D01*
X11800500Y51080252D01*
X11800500Y51519748D01*
X11788867Y51578231D01*
X11781378Y51589438D01*
X11749793Y51672176D01*
X11757234Y51760427D01*
X11781379Y51810563D01*
X11788867Y51821769D01*
X11800500Y51880252D01*
X11800500Y52319748D01*
X11788867Y52378231D01*
X11781378Y52389438D01*
X11749793Y52472176D01*
X11757234Y52560427D01*
X11781379Y52610563D01*
X11788867Y52621769D01*
X11799455Y52675000D01*
X14273000Y52675000D01*
X14925000Y52675000D01*
X14925000Y53327000D01*
X14387493Y53327000D01*
X14350448Y53319632D01*
X14350446Y53319631D01*
X14308438Y53291562D01*
X14280369Y53249554D01*
X14280368Y53249552D01*
X14273000Y53212507D01*
X14273000Y52675000D01*
X11799455Y52675000D01*
X11800500Y52680252D01*
X11800500Y53119748D01*
X11788867Y53178231D01*
X11744552Y53244552D01*
X11744550Y53244553D01*
X11735615Y53257926D01*
X11704031Y53340666D01*
X11711474Y53428916D01*
X11717226Y53444643D01*
X11719631Y53450450D01*
X11727000Y53487494D01*
X11727000Y53500000D01*
X10673000Y53500000D01*
X10673000Y53499500D01*
X10653293Y53413157D01*
X10598074Y53343916D01*
X10518282Y53305489D01*
X10474000Y53300500D01*
X9963433Y53300500D01*
X9931519Y53300500D01*
X5963433Y53300500D01*
X5836567Y53300500D01*
X5836565Y53300500D01*
X5836560Y53300499D01*
X5821100Y53295476D01*
X5790754Y53288190D01*
X5774695Y53285646D01*
X5760215Y53278268D01*
X5731374Y53266321D01*
X5715907Y53261296D01*
X5702758Y53251742D01*
X5676141Y53235431D01*
X5661659Y53228052D01*
X5661657Y53228051D01*
X5639093Y53205485D01*
X5639091Y53205483D01*
X4990622Y52557015D01*
X4990614Y52557009D01*
X4971950Y52538344D01*
X4971948Y52538341D01*
X4964568Y52523857D01*
X4948263Y52497249D01*
X4938704Y52484092D01*
X4938703Y52484089D01*
X4933677Y52468622D01*
X4921734Y52439789D01*
X4914353Y52425304D01*
X4911810Y52409246D01*
X4904524Y52378900D01*
X4899501Y52363440D01*
X4899500Y52363431D01*
X4899500Y45608752D01*
X4899501Y45608745D01*
X4904522Y45593291D01*
X4911810Y45562937D01*
X4914353Y45546881D01*
X4914355Y45546874D01*
X4921732Y45532397D01*
X4933681Y45503551D01*
X4938703Y45488095D01*
X4938704Y45488093D01*
X4948257Y45474944D01*
X4964570Y45448324D01*
X4971949Y45433843D01*
X4971950Y45433841D01*
X4991857Y45413934D01*
X4991871Y45413919D01*
X8044812Y42360978D01*
X8091931Y42285990D01*
X8101395Y42246239D01*
X8114954Y42143246D01*
X8114957Y42143236D01*
X8175463Y41997160D01*
X8175464Y41997157D01*
X8232189Y41923233D01*
X8271718Y41871718D01*
X8318065Y41836155D01*
X8397156Y41775465D01*
X8397159Y41775464D01*
X8543238Y41714956D01*
X8646241Y41701396D01*
X8729269Y41670588D01*
X8760972Y41644818D01*
X9016215Y41389575D01*
X9063333Y41314589D01*
X9074500Y41248863D01*
X9074500Y23661569D01*
X9074501Y23661562D01*
X9079522Y23646108D01*
X9086810Y23615754D01*
X9089353Y23599698D01*
X9089355Y23599691D01*
X9096732Y23585214D01*
X9108681Y23556368D01*
X9113703Y23540912D01*
X9113704Y23540910D01*
X9123257Y23527761D01*
X9139570Y23501141D01*
X9146949Y23486660D01*
X9146950Y23486658D01*
X9166857Y23466751D01*
X9166871Y23466736D01*
X9169515Y23464092D01*
X9169516Y23464091D01*
X12546950Y20086658D01*
X12636658Y19996950D01*
X12651137Y19989573D01*
X12677761Y19973258D01*
X12690910Y19963704D01*
X12706364Y19958683D01*
X12735218Y19946731D01*
X12749695Y19939354D01*
X12765745Y19936812D01*
X12796110Y19929523D01*
X12811567Y19924500D01*
X12843481Y19924500D01*
X14577187Y19924500D01*
X14663530Y19904793D01*
X14732771Y19849574D01*
X14744426Y19831479D01*
X14751476Y19821775D01*
X14816214Y19757037D01*
X14863333Y19682049D01*
X14874500Y19616323D01*
X14874500Y19540110D01*
X14854793Y19453767D01*
X14816215Y19399397D01*
X14760802Y19343985D01*
X14760801Y19343983D01*
X14709426Y19238893D01*
X14699500Y19170766D01*
X14699500Y18079235D01*
X14709426Y18011108D01*
X14760801Y17906018D01*
X14843516Y17823303D01*
X14843519Y17823301D01*
X14937939Y17777142D01*
X15006854Y17721516D01*
X15044809Y17641498D01*
X15044286Y17552936D01*
X15005390Y17473372D01*
X14991255Y17457648D01*
X14890623Y17357016D01*
X14890615Y17357010D01*
X14871950Y17338344D01*
X14871948Y17338341D01*
X14864568Y17323857D01*
X14848263Y17297249D01*
X14838704Y17284092D01*
X14838703Y17284089D01*
X14833677Y17268622D01*
X14821734Y17239789D01*
X14814353Y17225304D01*
X14811810Y17209246D01*
X14804524Y17178900D01*
X14799500Y17163437D01*
X14798645Y17158036D01*
X14765672Y17075840D01*
X14764054Y17073539D01*
X14760803Y17068986D01*
X14709426Y16963893D01*
X14699500Y16895766D01*
X14699500Y15804235D01*
X14709426Y15736108D01*
X14760802Y15631017D01*
X14762452Y15628706D01*
X14765506Y15621394D01*
X14768044Y15616203D01*
X14767737Y15616054D01*
X14796588Y15546986D01*
X14799500Y15513067D01*
X14799500Y15472718D01*
X14779793Y15386375D01*
X14724574Y15317134D01*
X14644782Y15278707D01*
X14556218Y15278707D01*
X14549005Y15280496D01*
X14481820Y15298498D01*
X14481817Y15298499D01*
X14481815Y15298499D01*
X14481812Y15298500D01*
X14428639Y15305500D01*
X14428633Y15305500D01*
X8754500Y15305500D01*
X8668157Y15325207D01*
X8598916Y15380426D01*
X8560489Y15460218D01*
X8555500Y15504500D01*
X8555500Y17953494D01*
X8575207Y18039837D01*
X8630426Y18109078D01*
X8710218Y18147505D01*
X8773077Y18151625D01*
X8795735Y18149500D01*
X11804264Y18149501D01*
X11804265Y18149501D01*
X11826921Y18151625D01*
X11834698Y18152354D01*
X11962882Y18197207D01*
X12072150Y18277850D01*
X12152793Y18387118D01*
X12197646Y18515302D01*
X12200500Y18545735D01*
X12200499Y19654264D01*
X12197646Y19684698D01*
X12183028Y19726474D01*
X12152794Y19812880D01*
X12152791Y19812885D01*
X12072150Y19922151D01*
X11962884Y20002792D01*
X11962878Y20002795D01*
X11834699Y20047646D01*
X11834701Y20047646D01*
X11824553Y20048598D01*
X11804265Y20050500D01*
X11804259Y20050500D01*
X8795743Y20050500D01*
X8781465Y20049162D01*
X8773069Y20048375D01*
X8685265Y20059938D01*
X8611172Y20108455D01*
X8565468Y20184314D01*
X8555500Y20246506D01*
X8555500Y20756039D01*
X8555280Y20762760D01*
X8553786Y20785557D01*
X8553786Y20785559D01*
X8543838Y20828226D01*
X8538584Y20850761D01*
X8517621Y20901372D01*
X8509072Y20922012D01*
X8509069Y20922019D01*
X8507078Y20926358D01*
X8488985Y21013051D01*
X8506702Y21084510D01*
X8505806Y21084801D01*
X8509893Y21097381D01*
X8510298Y21099012D01*
X8510386Y21099186D01*
X8510646Y21099696D01*
X8525500Y21193481D01*
X8525499Y21656518D01*
X8510646Y21750304D01*
X8453050Y21863342D01*
X8453049Y21863343D01*
X8453048Y21863345D01*
X8363342Y21953051D01*
X8250307Y22010645D01*
X8250304Y22010646D01*
X8250302Y22010647D01*
X8250300Y22010647D01*
X8156525Y22025499D01*
X8156519Y22025500D01*
X8156511Y22025500D01*
X7543481Y22025500D01*
X7449696Y22010646D01*
X7449694Y22010646D01*
X7336655Y21953049D01*
X7246949Y21863343D01*
X7241164Y21855380D01*
X7174468Y21797113D01*
X7089096Y21773554D01*
X7001956Y21789370D01*
X6930308Y21841428D01*
X6901393Y21884955D01*
X6890438Y21907364D01*
X6890435Y21907368D01*
X6807367Y21990436D01*
X6807365Y21990437D01*
X6727156Y22029649D01*
X6658241Y22085276D01*
X6620287Y22165294D01*
X6620810Y22253856D01*
X6659707Y22333420D01*
X6724212Y22385739D01*
X6734469Y22390966D01*
X6853220Y22451472D01*
X6853221Y22451473D01*
X6917963Y22516214D01*
X6992951Y22563333D01*
X7058677Y22574500D01*
X7234812Y22574500D01*
X7321155Y22554793D01*
X7325156Y22552810D01*
X7412683Y22508213D01*
X7449696Y22489354D01*
X7543481Y22474500D01*
X8156518Y22474501D01*
X8250304Y22489354D01*
X8363342Y22546950D01*
X8453050Y22636658D01*
X8510646Y22749696D01*
X8525500Y22843481D01*
X8525499Y23306518D01*
X8524781Y23311049D01*
X8523468Y23319342D01*
X8510646Y23400304D01*
X8453050Y23513342D01*
X8453049Y23513343D01*
X8453048Y23513345D01*
X8363342Y23603051D01*
X8250307Y23660645D01*
X8250304Y23660646D01*
X8250302Y23660647D01*
X8250300Y23660647D01*
X8156525Y23675499D01*
X8156519Y23675500D01*
X8156511Y23675500D01*
X7543481Y23675500D01*
X7449696Y23660646D01*
X7449691Y23660645D01*
X7325156Y23597190D01*
X7239277Y23575550D01*
X7234812Y23575500D01*
X6946191Y23575500D01*
X6859848Y23595207D01*
X6855847Y23597190D01*
X6733127Y23659719D01*
X6633488Y23675500D01*
X6066512Y23675500D01*
X5966873Y23659719D01*
X5966871Y23659719D01*
X5846779Y23598529D01*
X5846778Y23598528D01*
X5832037Y23583786D01*
X5757049Y23536667D01*
X5691323Y23525500D01*
X5438764Y23525500D01*
X5352421Y23545207D01*
X5283180Y23600426D01*
X5273303Y23613939D01*
X5269552Y23619553D01*
X5203232Y23663867D01*
X5144750Y23675500D01*
X5144748Y23675500D01*
X4755252Y23675500D01*
X4755250Y23675500D01*
X4696768Y23663867D01*
X4645950Y23629911D01*
X4563210Y23598328D01*
X4496572Y23600197D01*
X4487507Y23602000D01*
X4112493Y23602000D01*
X4075448Y23594632D01*
X4057339Y23587130D01*
X4056092Y23590140D01*
X4002811Y23569803D01*
X3914561Y23577250D01*
X3892891Y23587686D01*
X3892661Y23587130D01*
X3874551Y23594632D01*
X3837507Y23602000D01*
X3462493Y23602000D01*
X3425448Y23594632D01*
X3425446Y23594631D01*
X3383438Y23566562D01*
X3355369Y23524554D01*
X3355368Y23524552D01*
X3348000Y23487507D01*
X3348000Y22812494D01*
X3355368Y22775449D01*
X3362870Y22757339D01*
X3359684Y22756020D01*
X3379720Y22703533D01*
X3377850Y22636889D01*
X3373000Y22612507D01*
X3373000Y22300000D01*
X5227000Y22300000D01*
X5227000Y22325500D01*
X5246707Y22411843D01*
X5301926Y22481084D01*
X5381718Y22519511D01*
X5426000Y22524500D01*
X5691323Y22524500D01*
X5777666Y22504793D01*
X5832037Y22466214D01*
X5846779Y22451472D01*
X5975787Y22385739D01*
X6043772Y22328981D01*
X6080398Y22248346D01*
X6078411Y22159805D01*
X6038204Y22080895D01*
X5972844Y22029650D01*
X5892636Y21990439D01*
X5892632Y21990436D01*
X5809563Y21907367D01*
X5757968Y21801827D01*
X5748000Y21733405D01*
X5748000Y21675000D01*
X6351000Y21675000D01*
X6437343Y21655293D01*
X6506584Y21600074D01*
X6545011Y21520282D01*
X6550000Y21476000D01*
X6550000Y20898001D01*
X6633404Y20898001D01*
X6701827Y20907969D01*
X6807366Y20959564D01*
X6878215Y21030413D01*
X6953203Y21077532D01*
X7041210Y21087449D01*
X7124803Y21058199D01*
X7187427Y20995575D01*
X7216679Y20911982D01*
X7211151Y20838200D01*
X7202122Y20804500D01*
X7201501Y20802183D01*
X7201500Y20802181D01*
X7194500Y20749008D01*
X7194500Y15704500D01*
X7174793Y15618157D01*
X7119574Y15548916D01*
X7039782Y15510489D01*
X6995500Y15505500D01*
X6559309Y15505500D01*
X6528636Y15503197D01*
X6528637Y15503197D01*
X6484649Y15496556D01*
X6484647Y15496556D01*
X6484644Y15496555D01*
X6405911Y15467310D01*
X6405905Y15467307D01*
X6370048Y15444752D01*
X6286469Y15415462D01*
X6198457Y15425336D01*
X6142970Y15444752D01*
X6134700Y15447646D01*
X6129626Y15448122D01*
X6104266Y15450500D01*
X2995734Y15450500D01*
X2965301Y15447646D01*
X2837118Y15402793D01*
X2837116Y15402792D01*
X2837114Y15402791D01*
X2727849Y15322151D01*
X2647209Y15212886D01*
X2647208Y15212884D01*
X2647207Y15212882D01*
X2630605Y15165436D01*
X2602354Y15084699D01*
X2599500Y15054261D01*
X2599500Y14488445D01*
X2579793Y14402102D01*
X2535268Y14346265D01*
X2537091Y14344442D01*
X2474652Y14282003D01*
X2464198Y14270740D01*
X2421464Y14189880D01*
X2401500Y14115372D01*
X2394500Y14062200D01*
X2394500Y7554624D01*
X500500Y7554624D01*
X500500Y16445734D01*
X2599500Y16445734D01*
X2602354Y16415301D01*
X2647207Y16287118D01*
X2647208Y16287116D01*
X2647209Y16287115D01*
X2727849Y16177850D01*
X2830456Y16102124D01*
X2837118Y16097207D01*
X2965301Y16052354D01*
X2995734Y16049500D01*
X2995739Y16049500D01*
X6104261Y16049500D01*
X6104266Y16049500D01*
X6134699Y16052354D01*
X6262882Y16097207D01*
X6372150Y16177850D01*
X6452793Y16287118D01*
X6497646Y16415301D01*
X6500500Y16445734D01*
X6500500Y17054266D01*
X6497646Y17084699D01*
X6459329Y17194201D01*
X6449414Y17282206D01*
X6473490Y17357077D01*
X6477490Y17364227D01*
X6497175Y17431266D01*
X6497711Y17434990D01*
X6503229Y17473372D01*
X6505500Y17489164D01*
X6505500Y20276000D01*
X6500803Y20319684D01*
X6499864Y20324000D01*
X6489598Y20371193D01*
X6487109Y20381376D01*
X6444102Y20462082D01*
X6444099Y20462086D01*
X6398345Y20514889D01*
X6380754Y20532843D01*
X6380751Y20532845D01*
X6370192Y20540919D01*
X6368742Y20542663D01*
X6340250Y20555500D01*
X6300937Y20577490D01*
X6300938Y20577490D01*
X6258304Y20590009D01*
X6181012Y20633245D01*
X6130133Y20705735D01*
X6115746Y20793122D01*
X6140699Y20878097D01*
X6150000Y20890391D01*
X6150000Y21275000D01*
X5748001Y21275000D01*
X5748001Y21216596D01*
X5757968Y21148173D01*
X5809563Y21042634D01*
X5904293Y20947904D01*
X5901734Y20945346D01*
X5941806Y20900233D01*
X5966066Y20815057D01*
X5950967Y20727790D01*
X5899499Y20655717D01*
X5821857Y20613112D01*
X5767346Y20605500D01*
X5529500Y20605500D01*
X5443157Y20625207D01*
X5373916Y20680426D01*
X5335489Y20760218D01*
X5330500Y20804500D01*
X5330500Y21100996D01*
X5330499Y21101001D01*
X5326761Y21135774D01*
X5326071Y21142197D01*
X5325500Y21152840D01*
X5325500Y21394750D01*
X5320871Y21418016D01*
X5313867Y21453231D01*
X5275000Y21511399D01*
X5260538Y21533043D01*
X5228954Y21615783D01*
X5227000Y21643602D01*
X5227000Y21900000D01*
X3373000Y21900000D01*
X3373000Y21643601D01*
X3353293Y21557258D01*
X3339461Y21533041D01*
X3286133Y21453233D01*
X3274500Y21394750D01*
X3274500Y21150007D01*
X3272474Y21121683D01*
X3269500Y21101001D01*
X3269500Y20901372D01*
X3249793Y20815029D01*
X3194574Y20745788D01*
X3187727Y20740565D01*
X3167030Y20725478D01*
X3167028Y20725476D01*
X3111298Y20652970D01*
X3111290Y20652958D01*
X3082113Y20589492D01*
X3065492Y20533406D01*
X3065490Y20533397D01*
X2627058Y17537441D01*
X2626239Y17529925D01*
X2624662Y17507987D01*
X2624662Y17507970D01*
X2632565Y17434990D01*
X2632566Y17434985D01*
X2652375Y17367986D01*
X2652379Y17367974D01*
X2653530Y17364806D01*
X2664497Y17276925D01*
X2649675Y17227818D01*
X2652132Y17226958D01*
X2602354Y17084701D01*
X2602353Y17084699D01*
X2602354Y17084699D01*
X2599500Y17054266D01*
X2599500Y16445734D01*
X500500Y16445734D01*
X500500Y30732234D01*
X1645787Y30732234D01*
X1675412Y30462992D01*
X1675415Y30462975D01*
X1743924Y30200925D01*
X1743926Y30200917D01*
X1743928Y30200912D01*
X1823007Y30014825D01*
X1849871Y29951608D01*
X1863973Y29928502D01*
X1990982Y29720390D01*
X2080253Y29613119D01*
X2164254Y29512181D01*
X2164259Y29512175D01*
X2365997Y29331418D01*
X2459655Y29269455D01*
X2591910Y29181956D01*
X2837176Y29066980D01*
X2880074Y29054074D01*
X3096555Y28988944D01*
X3096557Y28988944D01*
X3096569Y28988940D01*
X3364561Y28949500D01*
X3364565Y28949500D01*
X3567625Y28949500D01*
X3567631Y28949500D01*
X3770156Y28964323D01*
X4034553Y29023220D01*
X4287558Y29119986D01*
X4523777Y29252559D01*
X4738177Y29418112D01*
X4926186Y29613119D01*
X5083799Y29833421D01*
X5207656Y30074325D01*
X5295118Y30330695D01*
X5344319Y30597067D01*
X5354212Y30867765D01*
X5339339Y31002933D01*
X5324587Y31137009D01*
X5324586Y31137010D01*
X5324586Y31137018D01*
X5256072Y31399088D01*
X5150130Y31648390D01*
X5009018Y31879610D01*
X4835745Y32087820D01*
X4835740Y32087826D01*
X4634002Y32268583D01*
X4417688Y32411694D01*
X4408090Y32418044D01*
X4408084Y32418047D01*
X4408082Y32418048D01*
X4162827Y32533019D01*
X4162819Y32533022D01*
X3903444Y32611057D01*
X3903433Y32611060D01*
X3903431Y32611060D01*
X3903426Y32611061D01*
X3903425Y32611061D01*
X3635442Y32650500D01*
X3635439Y32650500D01*
X3432369Y32650500D01*
X3229844Y32635677D01*
X3229842Y32635677D01*
X2965453Y32576782D01*
X2965446Y32576780D01*
X2712447Y32480017D01*
X2693434Y32469346D01*
X2476223Y32347441D01*
X2476217Y32347438D01*
X2476216Y32347436D01*
X2476214Y32347435D01*
X2261830Y32181895D01*
X2261825Y32181890D01*
X2073814Y31986882D01*
X1916197Y31766573D01*
X1792342Y31525672D01*
X1704884Y31269313D01*
X1704882Y31269306D01*
X1655680Y31002929D01*
X1645787Y30732234D01*
X500500Y30732234D01*
X500500Y54300000D01*
X10673000Y54300000D01*
X10673000Y54287494D01*
X10680368Y54250449D01*
X10680371Y54250444D01*
X10707022Y54210556D01*
X10738604Y54127815D01*
X10731159Y54039565D01*
X10707022Y53989444D01*
X10680371Y53949557D01*
X10680368Y53949552D01*
X10673000Y53912507D01*
X10673000Y53900000D01*
X11727000Y53900000D01*
X11727000Y53912507D01*
X11719631Y53949552D01*
X11719629Y53949555D01*
X11692978Y53989442D01*
X11661395Y54072182D01*
X11668839Y54160432D01*
X11692978Y54210558D01*
X11719629Y54250446D01*
X11719631Y54250449D01*
X11727000Y54287494D01*
X11727000Y54300000D01*
X10673000Y54300000D01*
X500500Y54300000D01*
X500500Y58027843D01*
X501174Y58039408D01*
X501402Y58041365D01*
X501403Y58041368D01*
X500500Y58103601D01*
X500500Y58105399D01*
X500563Y58110027D01*
X507448Y58275387D01*
X513975Y58432189D01*
X515065Y58443294D01*
X526737Y58518589D01*
X564031Y58759145D01*
X566350Y58770034D01*
X650382Y59078450D01*
X653906Y59089009D01*
X771933Y59386053D01*
X776625Y59396171D01*
X927170Y59678137D01*
X932956Y59687650D01*
X1114132Y59950999D01*
X1120947Y59959804D01*
X1330466Y60201207D01*
X1338231Y60209201D01*
X1573458Y60425624D01*
X1582068Y60432696D01*
X1840054Y60621426D01*
X1849389Y60627482D01*
X2126873Y60786135D01*
X2136846Y60791117D01*
X2430350Y60917705D01*
X2440811Y60921537D01*
X2746639Y61014464D01*
X2757474Y61017104D01*
X3071793Y61075207D01*
X3082838Y61076614D01*
X3136966Y61080441D01*
X3224481Y61066874D01*
G37*
%TD.AperFunction*%
%TA.AperFunction,Conductor*%
G36*
X19081374Y33602244D02*
G01*
X19143998Y33539620D01*
X19173249Y33456027D01*
X19174500Y33433746D01*
X19174500Y26017256D01*
X19154793Y25930913D01*
X19116240Y25876567D01*
X19113485Y25873811D01*
X19038505Y25826679D01*
X18972745Y25815500D01*
X17893500Y25815500D01*
X17807157Y25835207D01*
X17737916Y25890426D01*
X17699489Y25970218D01*
X17694500Y26014500D01*
X17694500Y26156996D01*
X17694500Y26157000D01*
X17689803Y26200684D01*
X17686711Y26214898D01*
X17678598Y26252193D01*
X17676109Y26262376D01*
X17633102Y26343082D01*
X17633099Y26343086D01*
X17601680Y26379345D01*
X17587345Y26395889D01*
X17569754Y26413843D01*
X17489937Y26458490D01*
X17448702Y26470598D01*
X17422892Y26478177D01*
X17365003Y26486500D01*
X17365000Y26486500D01*
X15975247Y26486500D01*
X15888904Y26506207D01*
X15884901Y26508191D01*
X15861209Y26520263D01*
X15793224Y26577021D01*
X15756599Y26657657D01*
X15758587Y26746198D01*
X15798795Y26825108D01*
X15864157Y26876353D01*
X15944366Y26915565D01*
X15944367Y26915565D01*
X16027436Y26998634D01*
X16085819Y27118058D01*
X16087782Y27117098D01*
X16121867Y27176080D01*
X16195061Y27225941D01*
X16282641Y27239106D01*
X16367259Y27212968D01*
X16432157Y27152704D01*
X16448045Y27124771D01*
X16464003Y27090549D01*
X16464006Y27090545D01*
X16545544Y27009007D01*
X16545547Y27009005D01*
X16650057Y26960271D01*
X16650064Y26960269D01*
X16697674Y26954001D01*
X16810999Y26954002D01*
X16811000Y26954002D01*
X16811000Y27281000D01*
X17211000Y27281000D01*
X17211000Y26954001D01*
X17324318Y26954001D01*
X17324323Y26954002D01*
X17371937Y26960269D01*
X17371940Y26960270D01*
X17476454Y27009006D01*
X17557993Y27090545D01*
X17557995Y27090548D01*
X17606729Y27195058D01*
X17606731Y27195065D01*
X17612999Y27242673D01*
X17613000Y27242678D01*
X17613000Y27281000D01*
X17211000Y27281000D01*
X16811000Y27281000D01*
X16811000Y27482000D01*
X16830707Y27568343D01*
X16885926Y27637584D01*
X16965718Y27676011D01*
X17010000Y27681000D01*
X17612999Y27681000D01*
X17612999Y27719318D01*
X17612998Y27719324D01*
X17606731Y27766938D01*
X17606730Y27766941D01*
X17557994Y27871455D01*
X17476455Y27952994D01*
X17476452Y27952996D01*
X17376413Y27999645D01*
X17306488Y28053996D01*
X17267070Y28133304D01*
X17265966Y28221860D01*
X17303395Y28302126D01*
X17371943Y28358203D01*
X17376413Y28360355D01*
X17476452Y28407005D01*
X17476455Y28407007D01*
X17557993Y28488545D01*
X17557995Y28488548D01*
X17606729Y28593058D01*
X17606731Y28593065D01*
X17612999Y28640673D01*
X17613000Y28640678D01*
X17613000Y28679000D01*
X17010000Y28679000D01*
X16923657Y28698707D01*
X16854416Y28753926D01*
X16815989Y28833718D01*
X16811000Y28878000D01*
X16811000Y29406000D01*
X17211000Y29406000D01*
X17211000Y29079000D01*
X17612999Y29079000D01*
X17612999Y29117318D01*
X17612998Y29117324D01*
X17606731Y29164938D01*
X17606730Y29164941D01*
X17557994Y29269455D01*
X17476455Y29350994D01*
X17476452Y29350996D01*
X17371942Y29399730D01*
X17371935Y29399732D01*
X17324327Y29406000D01*
X17211000Y29406000D01*
X16811000Y29406000D01*
X16810999Y29406001D01*
X16697684Y29406000D01*
X16697675Y29405999D01*
X16650062Y29399732D01*
X16650059Y29399731D01*
X16545545Y29350995D01*
X16464004Y29269454D01*
X16448045Y29235229D01*
X16393692Y29165305D01*
X16314384Y29125889D01*
X16225828Y29124786D01*
X16145563Y29162216D01*
X16089487Y29230765D01*
X16081411Y29250958D01*
X16027436Y29361367D01*
X15944367Y29444436D01*
X15944365Y29444437D01*
X15864156Y29483649D01*
X15795241Y29539276D01*
X15757287Y29619294D01*
X15757810Y29707856D01*
X15796707Y29787420D01*
X15861212Y29839739D01*
X15871469Y29844966D01*
X15990220Y29905472D01*
X15990221Y29905473D01*
X16032963Y29948214D01*
X16107951Y29995333D01*
X16173677Y30006500D01*
X16438990Y30006500D01*
X16525333Y29986793D01*
X16529334Y29984810D01*
X16610696Y29943354D01*
X16704481Y29928500D01*
X17317518Y29928501D01*
X17411304Y29943354D01*
X17524342Y30000950D01*
X17614050Y30090658D01*
X17614052Y30090663D01*
X17615196Y30091806D01*
X17634939Y30114684D01*
X17651843Y30131246D01*
X17696490Y30211063D01*
X17716175Y30278102D01*
X17724500Y30336000D01*
X17724500Y32247000D01*
X17719803Y32290684D01*
X17712743Y32323137D01*
X17713644Y32411694D01*
X17752880Y32491092D01*
X17766470Y32506145D01*
X18834786Y33574461D01*
X18909775Y33621579D01*
X18997781Y33631495D01*
X19081374Y33602244D01*
G37*
%TD.AperFunction*%
%TA.AperFunction,Conductor*%
G36*
X16290129Y28681709D02*
G01*
X16369694Y28642813D01*
X16424503Y28573247D01*
X16425059Y28572066D01*
X16464006Y28488545D01*
X16545546Y28407005D01*
X16645586Y28360356D01*
X16715510Y28306006D01*
X16754928Y28226698D01*
X16756033Y28138142D01*
X16718604Y28057876D01*
X16650057Y28001799D01*
X16645588Y27999647D01*
X16545548Y27952997D01*
X16545544Y27952994D01*
X16464006Y27871456D01*
X16425059Y27787934D01*
X16370707Y27718010D01*
X16291399Y27678593D01*
X16202843Y27677490D01*
X16122577Y27714919D01*
X16066501Y27783467D01*
X16065924Y27784638D01*
X16027437Y27863365D01*
X16027435Y27863368D01*
X15944367Y27946436D01*
X15944364Y27946438D01*
X15832304Y28001220D01*
X15763389Y28056846D01*
X15725434Y28136864D01*
X15725957Y28225425D01*
X15764853Y28304990D01*
X15832304Y28358780D01*
X15944364Y28413563D01*
X15944367Y28413565D01*
X16027435Y28496633D01*
X16027437Y28496636D01*
X16065924Y28575362D01*
X16121549Y28644277D01*
X16201567Y28682231D01*
X16290129Y28681709D01*
G37*
%TD.AperFunction*%
%TA.AperFunction,Conductor*%
G36*
X18281375Y42402245D02*
G01*
X18343998Y42339621D01*
X18373249Y42256028D01*
X18374500Y42233747D01*
X18374500Y34117255D01*
X18354793Y34030912D01*
X18316214Y33976541D01*
X17929877Y33590205D01*
X17854888Y33543086D01*
X17766882Y33533170D01*
X17683288Y33562421D01*
X17620665Y33625045D01*
X17591866Y33704942D01*
X17585044Y33756762D01*
X17524536Y33902841D01*
X17524535Y33902844D01*
X17467984Y33976541D01*
X17428282Y34028282D01*
X17386468Y34060367D01*
X17302843Y34124536D01*
X17302840Y34124537D01*
X17156764Y34185043D01*
X17156762Y34185044D01*
X17000000Y34205682D01*
X16843237Y34185044D01*
X16843235Y34185043D01*
X16697159Y34124537D01*
X16697156Y34124536D01*
X16571717Y34028282D01*
X16560264Y34013355D01*
X16492067Y33956852D01*
X16406107Y33935535D01*
X16402388Y33935500D01*
X16249454Y33935500D01*
X16163111Y33955207D01*
X16101332Y34004476D01*
X16101125Y34004268D01*
X16099287Y34006106D01*
X16093870Y34010426D01*
X16090367Y34015026D01*
X16000342Y34105051D01*
X15887307Y34162645D01*
X15887304Y34162646D01*
X15887302Y34162647D01*
X15887300Y34162647D01*
X15793525Y34177499D01*
X15793519Y34177500D01*
X15793511Y34177500D01*
X15180481Y34177500D01*
X15086696Y34162646D01*
X15086694Y34162646D01*
X14973655Y34105049D01*
X14883949Y34015343D01*
X14826355Y33902308D01*
X14826353Y33902301D01*
X14811501Y33808526D01*
X14811500Y33808512D01*
X14811500Y33345482D01*
X14826354Y33251697D01*
X14826354Y33251695D01*
X14883951Y33138656D01*
X14973657Y33048950D01*
X15080879Y32994318D01*
X15086696Y32991354D01*
X15180481Y32976500D01*
X15793518Y32976501D01*
X15887304Y32991354D01*
X16000342Y33048950D01*
X16090050Y33138658D01*
X16108997Y33175845D01*
X16165757Y33243830D01*
X16246392Y33280456D01*
X16286308Y33284500D01*
X16387042Y33284500D01*
X16473385Y33264793D01*
X16542626Y33209574D01*
X16544884Y33206688D01*
X16571718Y33171718D01*
X16614803Y33138658D01*
X16697156Y33075465D01*
X16697159Y33075464D01*
X16843238Y33014956D01*
X16895058Y33008134D01*
X16978087Y32977327D01*
X17039530Y32913543D01*
X17067213Y32829418D01*
X17055653Y32741612D01*
X17009798Y32670125D01*
X16974462Y32634788D01*
X16899474Y32587668D01*
X16833746Y32576500D01*
X13960000Y32576500D01*
X13928797Y32573146D01*
X13916314Y32571803D01*
X13916310Y32571803D01*
X13864807Y32560598D01*
X13854624Y32558110D01*
X13773918Y32515103D01*
X13773914Y32515100D01*
X13746208Y32491092D01*
X13721111Y32469345D01*
X13703528Y32452119D01*
X13703158Y32451755D01*
X13703156Y32451753D01*
X13658510Y32371937D01*
X13638823Y32304893D01*
X13630500Y32247004D01*
X13630500Y31313224D01*
X13610793Y31226881D01*
X13555574Y31157640D01*
X13475782Y31119213D01*
X13387218Y31119213D01*
X13307426Y31157640D01*
X13252721Y31225823D01*
X13239200Y31253480D01*
X13239197Y31253485D01*
X13183785Y31308897D01*
X13136667Y31383886D01*
X13125500Y31449610D01*
X13125500Y36188680D01*
X13145207Y36275023D01*
X13183786Y36329395D01*
X13194339Y36339949D01*
X13194342Y36339950D01*
X13284050Y36429658D01*
X13341646Y36542696D01*
X13356500Y36636481D01*
X13356499Y37249518D01*
X13355420Y37256328D01*
X13354468Y37262342D01*
X13341646Y37343304D01*
X13284050Y37456342D01*
X13250396Y37489996D01*
X13183785Y37556608D01*
X13136667Y37631597D01*
X13125500Y37697322D01*
X13125500Y38749000D01*
X13996001Y38749000D01*
X13996001Y38690596D01*
X14005968Y38622173D01*
X14057563Y38516634D01*
X14140633Y38433564D01*
X14246174Y38381969D01*
X14246172Y38381969D01*
X14314594Y38372001D01*
X14397999Y38372002D01*
X14398000Y38372002D01*
X14398000Y38749000D01*
X13996001Y38749000D01*
X13125500Y38749000D01*
X13125500Y41397391D01*
X13145207Y41483734D01*
X13183786Y41538105D01*
X13183786Y41538106D01*
X13239198Y41593517D01*
X13290573Y41698607D01*
X13298579Y41753557D01*
X13330529Y41836155D01*
X13395153Y41896712D01*
X13479652Y41923233D01*
X13567290Y41910464D01*
X13640709Y41860936D01*
X13685368Y41784456D01*
X13694500Y41724865D01*
X13694500Y40254000D01*
X13698414Y40217597D01*
X13699197Y40210315D01*
X13699197Y40210311D01*
X13710402Y40158807D01*
X13712890Y40148625D01*
X13755897Y40067919D01*
X13755900Y40067915D01*
X13801655Y40015111D01*
X13819246Y39997157D01*
X13899063Y39952510D01*
X13966102Y39932825D01*
X13966105Y39932825D01*
X13966107Y39932824D01*
X13989155Y39929511D01*
X14023996Y39924501D01*
X14023997Y39924500D01*
X14024000Y39924500D01*
X14048913Y39924500D01*
X14135256Y39904793D01*
X14139216Y39902831D01*
X14214874Y39864281D01*
X14214875Y39864281D01*
X14223789Y39859739D01*
X14291774Y39802981D01*
X14328400Y39722346D01*
X14326412Y39633805D01*
X14286205Y39554894D01*
X14220844Y39503649D01*
X14140634Y39464437D01*
X14140632Y39464436D01*
X14057563Y39381367D01*
X14005968Y39275827D01*
X13996000Y39207405D01*
X13996000Y39149000D01*
X14599000Y39149000D01*
X14685343Y39129293D01*
X14754584Y39074074D01*
X14793011Y38994282D01*
X14798000Y38950000D01*
X14798000Y38372001D01*
X14881404Y38372001D01*
X14949827Y38381969D01*
X15055366Y38433564D01*
X15138435Y38516633D01*
X15138437Y38516636D01*
X15180027Y38601709D01*
X15235653Y38670624D01*
X15315671Y38708579D01*
X15404232Y38708056D01*
X15483797Y38669160D01*
X15538606Y38599594D01*
X15539162Y38598412D01*
X15575005Y38521546D01*
X15656544Y38440007D01*
X15656547Y38440005D01*
X15761057Y38391271D01*
X15761064Y38391269D01*
X15808674Y38385001D01*
X15921999Y38385002D01*
X15922000Y38385002D01*
X15922000Y38712000D01*
X16322000Y38712000D01*
X16322000Y38385001D01*
X16435318Y38385001D01*
X16435323Y38385002D01*
X16482937Y38391269D01*
X16482940Y38391270D01*
X16587454Y38440006D01*
X16668993Y38521545D01*
X16668995Y38521548D01*
X16717729Y38626058D01*
X16717731Y38626065D01*
X16723999Y38673673D01*
X16724000Y38673678D01*
X16724000Y38712000D01*
X16322000Y38712000D01*
X15922000Y38712000D01*
X15922000Y39439000D01*
X16322000Y39439000D01*
X16322000Y39112000D01*
X16723999Y39112000D01*
X16723999Y39150318D01*
X16723998Y39150324D01*
X16717731Y39197938D01*
X16717730Y39197941D01*
X16668994Y39302455D01*
X16587455Y39383994D01*
X16587452Y39383996D01*
X16482942Y39432730D01*
X16482935Y39432732D01*
X16435327Y39439000D01*
X16322000Y39439000D01*
X15922000Y39439000D01*
X15921999Y39439001D01*
X15808684Y39439000D01*
X15808675Y39438999D01*
X15761062Y39432732D01*
X15761059Y39432731D01*
X15656545Y39383995D01*
X15575004Y39302454D01*
X15556629Y39263048D01*
X15502277Y39193124D01*
X15422968Y39153708D01*
X15334412Y39152605D01*
X15254147Y39190035D01*
X15198071Y39258584D01*
X15196322Y39262958D01*
X15138436Y39381367D01*
X15055366Y39464437D01*
X14975155Y39503649D01*
X14906241Y39559275D01*
X14868286Y39639293D01*
X14868809Y39727855D01*
X14907706Y39807420D01*
X14972211Y39859739D01*
X14981124Y39864281D01*
X14981126Y39864281D01*
X15056743Y39902811D01*
X15142622Y39924450D01*
X15147087Y39924500D01*
X16675995Y39924500D01*
X16676000Y39924500D01*
X16719684Y39929197D01*
X16719689Y39929198D01*
X16771193Y39940402D01*
X16776284Y39941647D01*
X16781373Y39942890D01*
X16862085Y39985900D01*
X16914889Y40031655D01*
X16932843Y40049246D01*
X16977490Y40129063D01*
X16997175Y40196102D01*
X17005500Y40254000D01*
X17005500Y41498115D01*
X17025207Y41584458D01*
X17080426Y41653699D01*
X17160218Y41692126D01*
X17221841Y41696358D01*
X17251807Y41693736D01*
X17289332Y41703792D01*
X17297787Y41705667D01*
X17336045Y41712412D01*
X17336047Y41712414D01*
X17349608Y41717349D01*
X17362680Y41723445D01*
X17362679Y41723445D01*
X17362684Y41723446D01*
X17394502Y41745727D01*
X17401806Y41750380D01*
X17435455Y41769806D01*
X17460434Y41799577D01*
X17466284Y41805960D01*
X18034786Y42374461D01*
X18109775Y42421580D01*
X18197781Y42431496D01*
X18281375Y42402245D01*
G37*
%TD.AperFunction*%
%TD*%
M02*
