%TF.GenerationSoftware,KiCad,Pcbnew,7.0.6*%
%TF.CreationDate,2023-07-26T13:56:52+01:00*%
%TF.ProjectId,Rapid Remote,52617069-6420-4526-956d-6f74652e6b69,rev?*%
%TF.SameCoordinates,PX8044ea0PY76ec560*%
%TF.FileFunction,Copper,L2,Bot*%
%TF.FilePolarity,Positive*%
%FSLAX46Y46*%
G04 Gerber Fmt 4.6, Leading zero omitted, Abs format (unit mm)*
G04 Created by KiCad (PCBNEW 7.0.6) date 2023-07-26 13:56:52*
%MOMM*%
%LPD*%
G01*
G04 APERTURE LIST*
G04 Aperture macros list*
%AMRoundRect*
0 Rectangle with rounded corners*
0 $1 Rounding radius*
0 $2 $3 $4 $5 $6 $7 $8 $9 X,Y pos of 4 corners*
0 Add a 4 corners polygon primitive as box body*
4,1,4,$2,$3,$4,$5,$6,$7,$8,$9,$2,$3,0*
0 Add four circle primitives for the rounded corners*
1,1,$1+$1,$2,$3*
1,1,$1+$1,$4,$5*
1,1,$1+$1,$6,$7*
1,1,$1+$1,$8,$9*
0 Add four rect primitives between the rounded corners*
20,1,$1+$1,$2,$3,$4,$5,0*
20,1,$1+$1,$4,$5,$6,$7,0*
20,1,$1+$1,$6,$7,$8,$9,0*
20,1,$1+$1,$8,$9,$2,$3,0*%
G04 Aperture macros list end*
%TA.AperFunction,ComponentPad*%
%ADD10O,2.200000X1.200000*%
%TD*%
%TA.AperFunction,ComponentPad*%
%ADD11O,2.000000X1.300000*%
%TD*%
%TA.AperFunction,SMDPad,CuDef*%
%ADD12RoundRect,0.112500X0.287500X0.112500X-0.287500X0.112500X-0.287500X-0.112500X0.287500X-0.112500X0*%
%TD*%
%TA.AperFunction,SMDPad,CuDef*%
%ADD13RoundRect,0.127000X0.323000X0.173000X-0.323000X0.173000X-0.323000X-0.173000X0.323000X-0.173000X0*%
%TD*%
%TA.AperFunction,ViaPad*%
%ADD14C,0.800000*%
%TD*%
%TA.AperFunction,Conductor*%
%ADD15C,0.600000*%
%TD*%
%TA.AperFunction,Conductor*%
%ADD16C,0.250000*%
%TD*%
%TA.AperFunction,Conductor*%
%ADD17C,0.200000*%
%TD*%
G04 APERTURE END LIST*
D10*
%TO.P,USB-C1,0,SHELL*%
%TO.N,GND*%
X26570000Y36020000D03*
X26570000Y27380000D03*
D11*
X30750000Y36020000D03*
X30750000Y27380000D03*
%TD*%
D12*
%TO.P,s6,P$5*%
%TO.N,N/C*%
X17100000Y34450000D03*
%TO.P,s6,P$6*%
X17100000Y30550000D03*
D13*
%TO.P,s6,P1,1*%
%TO.N,Net-(s6-1)*%
X18900000Y33600000D03*
%TO.P,s6,P2,2*%
X15300000Y33600000D03*
%TO.P,s6,P3,3*%
%TO.N,+3V3*%
X18900000Y31400000D03*
%TO.P,s6,P4,4*%
X15300000Y31400000D03*
%TD*%
D12*
%TO.P,s8,P$5*%
%TO.N,N/C*%
X17100000Y44450000D03*
%TO.P,s8,P$6*%
X17100000Y40550000D03*
D13*
%TO.P,s8,P1,1*%
%TO.N,Net-(s8-1)*%
X18900000Y43600000D03*
%TO.P,s8,P2,2*%
X15300000Y43600000D03*
%TO.P,s8,P3,3*%
%TO.N,+3V3*%
X18900000Y41400000D03*
%TO.P,s8,P4,4*%
X15300000Y41400000D03*
%TD*%
D12*
%TO.P,s4,P$5*%
%TO.N,N/C*%
X17100000Y24450000D03*
%TO.P,s4,P$6*%
X17100000Y20550000D03*
D13*
%TO.P,s4,P1,1*%
%TO.N,Net-(s4-1)*%
X18900000Y23600000D03*
%TO.P,s4,P2,2*%
X15300000Y23600000D03*
%TO.P,s4,P3,3*%
%TO.N,+3V3*%
X18900000Y21400000D03*
%TO.P,s4,P4,4*%
X15300000Y21400000D03*
%TD*%
D14*
%TO.N,+3V3*%
X10100000Y48900000D03*
X9900000Y52900000D03*
X1300000Y19600000D03*
%TO.N,Net-(s8-1)*%
X16700000Y43600000D03*
%TO.N,Net-(s6-1)*%
X17000000Y33600000D03*
%TO.N,Net-(s4-1)*%
X17100000Y23600000D03*
%TO.N,USB_D-*%
X24052200Y32198000D03*
X23987860Y46817572D03*
%TO.N,USB_D+*%
X24500000Y47700000D03*
X24091385Y31199266D03*
%TO.N,+3V0*%
X29700000Y13700000D03*
X1800000Y6700000D03*
X33300000Y7600000D03*
X30600000Y6700000D03*
X31500000Y6700000D03*
X32400000Y13700000D03*
X1800000Y13700000D03*
X33300000Y6700000D03*
X900000Y8500000D03*
X28800000Y6700000D03*
X900000Y9400000D03*
X27900000Y13700000D03*
X32400000Y6700000D03*
X900000Y11900000D03*
X3600000Y13700000D03*
X4500000Y6700000D03*
X28800000Y13700000D03*
X5400000Y6700000D03*
X29700000Y6700000D03*
X27900000Y6700000D03*
X2700000Y13700000D03*
X900000Y11000000D03*
X33300000Y11000000D03*
X33300000Y9400000D03*
X31500000Y13700000D03*
X900000Y13700000D03*
X5400000Y13700000D03*
X900000Y7600000D03*
X3600000Y6700000D03*
X30600000Y13700000D03*
X33300000Y8500000D03*
X900000Y6700000D03*
X4500000Y13700000D03*
X6300000Y6700000D03*
X6300000Y13700000D03*
X33300000Y12800000D03*
X900000Y12800000D03*
X33300000Y13700000D03*
X2700000Y6700000D03*
X33300000Y11900000D03*
%TD*%
D15*
%TO.N,+3V3*%
X18900000Y41400000D02*
X15300000Y41400000D01*
D16*
X18900000Y21400000D02*
X15300000Y21400000D01*
X15300000Y31400000D02*
X18900000Y31400000D01*
D15*
%TO.N,Net-(s8-1)*%
X15300000Y43600000D02*
X16700000Y43600000D01*
X16700000Y43600000D02*
X18900000Y43600000D01*
%TO.N,Net-(s6-1)*%
X17000000Y33600000D02*
X15300000Y33600000D01*
X18900000Y33600000D02*
X17000000Y33600000D01*
%TO.N,Net-(s4-1)*%
X15300000Y23600000D02*
X17100000Y23600000D01*
X17100000Y23600000D02*
X18900000Y23600000D01*
D17*
%TO.N,USB_D-*%
X24052200Y38622200D02*
X24052200Y46753232D01*
X24052200Y32198000D02*
X24052200Y38622200D01*
X24052200Y46753232D02*
X23987860Y46817572D01*
%TO.N,USB_D+*%
X24752200Y47447800D02*
X24500000Y47700000D01*
X24091385Y31199266D02*
X24752200Y31860081D01*
X24752200Y38100000D02*
X24752200Y47447800D01*
X24752200Y31860081D02*
X24752200Y38100000D01*
%TD*%
%TA.AperFunction,Conductor*%
%TO.N,+3V3*%
G36*
X33842539Y55779815D02*
G01*
X33888294Y55727011D01*
X33899500Y55675500D01*
X33899500Y14697498D01*
X33879815Y14630459D01*
X33827011Y14584704D01*
X33757853Y14574760D01*
X33740564Y14578521D01*
X33718425Y14585022D01*
X33718419Y14585024D01*
X33632966Y14597310D01*
X33576000Y14605500D01*
X624000Y14605500D01*
X623991Y14605500D01*
X623990Y14605499D01*
X516549Y14593948D01*
X516537Y14593946D01*
X465026Y14582740D01*
X463642Y14582279D01*
X463303Y14582267D01*
X461827Y14581862D01*
X461731Y14582212D01*
X393816Y14579795D01*
X333733Y14615456D01*
X302467Y14677940D01*
X300500Y14699939D01*
X300500Y20403050D01*
X16449500Y20403050D01*
X16459779Y20332494D01*
X16512989Y20223651D01*
X16598651Y20137989D01*
X16707488Y20084781D01*
X16707489Y20084781D01*
X16707491Y20084780D01*
X16778051Y20074500D01*
X17421948Y20074501D01*
X17421950Y20074501D01*
X17450172Y20078613D01*
X17492509Y20084780D01*
X17601347Y20137988D01*
X17687012Y20223653D01*
X17740220Y20332491D01*
X17750500Y20403051D01*
X17750499Y20696948D01*
X17740220Y20767509D01*
X17687012Y20876347D01*
X17687010Y20876349D01*
X17687010Y20876350D01*
X17601348Y20962012D01*
X17492511Y21015220D01*
X17474869Y21017790D01*
X17421949Y21025500D01*
X17421943Y21025500D01*
X16778049Y21025500D01*
X16707493Y21015221D01*
X16598650Y20962011D01*
X16512988Y20876349D01*
X16459780Y20767512D01*
X16455925Y20741049D01*
X16449500Y20696949D01*
X16449500Y20696945D01*
X16449500Y20696944D01*
X16449500Y20403050D01*
X300500Y20403050D01*
X300500Y23391180D01*
X14599500Y23391180D01*
X14610191Y23317797D01*
X14665525Y23204608D01*
X14754607Y23115526D01*
X14754608Y23115526D01*
X14754610Y23115524D01*
X14867796Y23060191D01*
X14941173Y23049500D01*
X15209892Y23049501D01*
X15209902Y23049500D01*
X15224335Y23049500D01*
X16718569Y23049500D01*
X16776194Y23035297D01*
X16867635Y22987304D01*
X16944325Y22968403D01*
X17021014Y22949500D01*
X17021015Y22949500D01*
X17178985Y22949500D01*
X17332365Y22987304D01*
X17423805Y23035297D01*
X17481431Y23049500D01*
X18941398Y23049500D01*
X18941414Y23049501D01*
X19258826Y23049501D01*
X19332204Y23060191D01*
X19445390Y23115524D01*
X19534476Y23204610D01*
X19589809Y23317796D01*
X19600500Y23391173D01*
X19600499Y23808826D01*
X19589809Y23882204D01*
X19534476Y23995390D01*
X19534474Y23995392D01*
X19534474Y23995393D01*
X19445392Y24084475D01*
X19332202Y24139810D01*
X19258828Y24150500D01*
X19258827Y24150500D01*
X18975666Y24150500D01*
X18975665Y24150500D01*
X17871649Y24150500D01*
X17804610Y24170185D01*
X17758855Y24222989D01*
X17748911Y24292147D01*
X17750500Y24303051D01*
X17750499Y24596948D01*
X17740220Y24667509D01*
X17687012Y24776347D01*
X17687010Y24776349D01*
X17687010Y24776350D01*
X17601348Y24862012D01*
X17492511Y24915220D01*
X17474869Y24917790D01*
X17421949Y24925500D01*
X17421943Y24925500D01*
X16778049Y24925500D01*
X16707493Y24915221D01*
X16598650Y24862011D01*
X16512988Y24776349D01*
X16459780Y24667512D01*
X16455925Y24641049D01*
X16449500Y24596949D01*
X16449500Y24596945D01*
X16449500Y24596944D01*
X16449500Y24303050D01*
X16451056Y24292375D01*
X16441241Y24223198D01*
X16395584Y24170309D01*
X16328581Y24150500D01*
X14941179Y24150500D01*
X14867796Y24139809D01*
X14754607Y24084475D01*
X14665525Y23995393D01*
X14610190Y23882203D01*
X14599500Y23808828D01*
X14599500Y23391180D01*
X300500Y23391180D01*
X300500Y27426315D01*
X25215740Y27426315D01*
X25225755Y27241594D01*
X25225755Y27241589D01*
X25275244Y27063344D01*
X25275247Y27063338D01*
X25361898Y26899898D01*
X25468727Y26774129D01*
X25481663Y26758900D01*
X25628936Y26646946D01*
X25796833Y26569268D01*
X25796834Y26569268D01*
X25796836Y26569267D01*
X25851648Y26557203D01*
X25977503Y26529500D01*
X25977506Y26529500D01*
X27116107Y26529500D01*
X27116113Y26529500D01*
X27253910Y26544486D01*
X27429221Y26603556D01*
X27587736Y26698930D01*
X27722041Y26826151D01*
X27825858Y26979270D01*
X27894331Y27151125D01*
X27916337Y27285355D01*
X29499500Y27285355D01*
X29538855Y27100198D01*
X29538857Y27100193D01*
X29615848Y26927271D01*
X29615851Y26927266D01*
X29727111Y26774130D01*
X29727112Y26774129D01*
X29867784Y26647467D01*
X30031716Y26552821D01*
X30211744Y26494326D01*
X30352808Y26479500D01*
X30352812Y26479500D01*
X31147188Y26479500D01*
X31147192Y26479500D01*
X31288256Y26494326D01*
X31468284Y26552821D01*
X31632216Y26647467D01*
X31772888Y26774129D01*
X31884151Y26927270D01*
X31961144Y27100197D01*
X32000500Y27285354D01*
X32000500Y27474646D01*
X31961144Y27659803D01*
X31944735Y27696657D01*
X31884151Y27832730D01*
X31884148Y27832735D01*
X31772888Y27985871D01*
X31772887Y27985872D01*
X31632216Y28112533D01*
X31468284Y28207179D01*
X31468277Y28207182D01*
X31288259Y28265673D01*
X31288256Y28265674D01*
X31147192Y28280500D01*
X30352808Y28280500D01*
X30211744Y28265674D01*
X30211741Y28265674D01*
X30211740Y28265673D01*
X30031722Y28207182D01*
X30031715Y28207179D01*
X29867785Y28112534D01*
X29727111Y27985871D01*
X29615851Y27832735D01*
X29615848Y27832730D01*
X29538857Y27659808D01*
X29538855Y27659803D01*
X29499500Y27474646D01*
X29499500Y27285355D01*
X27916337Y27285355D01*
X27924260Y27333683D01*
X27914245Y27518407D01*
X27864754Y27696659D01*
X27792613Y27832730D01*
X27778101Y27860103D01*
X27658337Y28001100D01*
X27579449Y28061069D01*
X27511064Y28113054D01*
X27459230Y28137035D01*
X27420111Y28155134D01*
X27367533Y28201149D01*
X27348180Y28268285D01*
X27368195Y28335226D01*
X27393919Y28363857D01*
X27476108Y28430722D01*
X27563377Y28554353D01*
X27570255Y28573707D01*
X27614053Y28696940D01*
X27614053Y28696942D01*
X27614054Y28696944D01*
X27624381Y28847921D01*
X27608768Y28923056D01*
X27593594Y28996079D01*
X27593592Y28996082D01*
X27593592Y28996085D01*
X27523971Y29130447D01*
X27523967Y29130451D01*
X27523967Y29130452D01*
X27420681Y29241044D01*
X27342052Y29288859D01*
X27291382Y29319672D01*
X27145665Y29360500D01*
X27032342Y29360500D01*
X27032341Y29360500D01*
X26920082Y29345071D01*
X26920079Y29345070D01*
X26781283Y29284783D01*
X26663889Y29189276D01*
X26576623Y29065648D01*
X26576621Y29065645D01*
X26525946Y28923061D01*
X26525946Y28923058D01*
X26515619Y28772082D01*
X26515619Y28772079D01*
X26546405Y28623922D01*
X26546407Y28623917D01*
X26546408Y28623915D01*
X26616029Y28489553D01*
X26616031Y28489551D01*
X26616032Y28489549D01*
X26663114Y28439137D01*
X26694486Y28376706D01*
X26687126Y28307225D01*
X26643369Y28252754D01*
X26577110Y28230586D01*
X26572491Y28230500D01*
X26023883Y28230500D01*
X25886088Y28215514D01*
X25710776Y28156443D01*
X25710774Y28156442D01*
X25552262Y28061069D01*
X25552261Y28061068D01*
X25417959Y27933851D01*
X25314138Y27780724D01*
X25245669Y27608878D01*
X25215740Y27426315D01*
X300500Y27426315D01*
X300500Y30403050D01*
X16449500Y30403050D01*
X16459779Y30332494D01*
X16512989Y30223651D01*
X16598651Y30137989D01*
X16707488Y30084781D01*
X16707489Y30084781D01*
X16707491Y30084780D01*
X16778051Y30074500D01*
X17421948Y30074501D01*
X17421950Y30074501D01*
X17450172Y30078613D01*
X17492509Y30084780D01*
X17601347Y30137988D01*
X17687012Y30223653D01*
X17740220Y30332491D01*
X17750500Y30403051D01*
X17750499Y30696948D01*
X17740220Y30767509D01*
X17687012Y30876347D01*
X17687010Y30876349D01*
X17687010Y30876350D01*
X17601348Y30962012D01*
X17492511Y31015220D01*
X17474869Y31017790D01*
X17421949Y31025500D01*
X17421943Y31025500D01*
X16778049Y31025500D01*
X16707493Y31015221D01*
X16598650Y30962011D01*
X16512988Y30876349D01*
X16459780Y30767512D01*
X16459376Y30764738D01*
X16449500Y30696949D01*
X16449500Y30696945D01*
X16449500Y30696944D01*
X16449500Y30403050D01*
X300500Y30403050D01*
X300500Y33391180D01*
X14599500Y33391180D01*
X14610191Y33317797D01*
X14665525Y33204608D01*
X14754607Y33115526D01*
X14754608Y33115526D01*
X14754610Y33115524D01*
X14867796Y33060191D01*
X14941173Y33049500D01*
X15209892Y33049501D01*
X15209902Y33049500D01*
X15224335Y33049500D01*
X16618569Y33049500D01*
X16676194Y33035297D01*
X16767635Y32987304D01*
X16844325Y32968403D01*
X16921014Y32949500D01*
X16921015Y32949500D01*
X17078985Y32949500D01*
X17232365Y32987304D01*
X17323805Y33035297D01*
X17381431Y33049500D01*
X18941398Y33049500D01*
X18941414Y33049501D01*
X19258826Y33049501D01*
X19332204Y33060191D01*
X19445390Y33115524D01*
X19534476Y33204610D01*
X19589809Y33317796D01*
X19600500Y33391173D01*
X19600499Y33808826D01*
X19589809Y33882204D01*
X19534476Y33995390D01*
X19534474Y33995392D01*
X19534474Y33995393D01*
X19445392Y34084475D01*
X19332202Y34139810D01*
X19258828Y34150500D01*
X19258827Y34150500D01*
X18975666Y34150500D01*
X18975665Y34150500D01*
X17871649Y34150500D01*
X17804610Y34170185D01*
X17758855Y34222989D01*
X17748911Y34292147D01*
X17750500Y34303051D01*
X17750499Y34596948D01*
X17740220Y34667509D01*
X17687012Y34776347D01*
X17687010Y34776349D01*
X17687010Y34776350D01*
X17601348Y34862012D01*
X17492511Y34915220D01*
X17474869Y34917790D01*
X17421949Y34925500D01*
X17421943Y34925500D01*
X16778049Y34925500D01*
X16707493Y34915221D01*
X16598650Y34862011D01*
X16512988Y34776349D01*
X16459780Y34667512D01*
X16455925Y34641049D01*
X16449500Y34596949D01*
X16449500Y34596945D01*
X16449500Y34596944D01*
X16449500Y34303050D01*
X16451056Y34292375D01*
X16441241Y34223198D01*
X16395584Y34170309D01*
X16328581Y34150500D01*
X14941179Y34150500D01*
X14867796Y34139809D01*
X14754607Y34084475D01*
X14665525Y33995393D01*
X14610190Y33882203D01*
X14599500Y33808828D01*
X14599500Y33391180D01*
X300500Y33391180D01*
X300500Y40403050D01*
X16449500Y40403050D01*
X16459779Y40332494D01*
X16512989Y40223651D01*
X16598651Y40137989D01*
X16707488Y40084781D01*
X16707489Y40084781D01*
X16707491Y40084780D01*
X16778051Y40074500D01*
X17421948Y40074501D01*
X17421950Y40074501D01*
X17450172Y40078613D01*
X17492509Y40084780D01*
X17601347Y40137988D01*
X17687012Y40223653D01*
X17740220Y40332491D01*
X17750500Y40403051D01*
X17750499Y40696948D01*
X17740220Y40767509D01*
X17687012Y40876347D01*
X17687010Y40876349D01*
X17687010Y40876350D01*
X17601348Y40962012D01*
X17492511Y41015220D01*
X17474869Y41017790D01*
X17421949Y41025500D01*
X17421943Y41025500D01*
X16778049Y41025500D01*
X16707493Y41015221D01*
X16598650Y40962011D01*
X16512988Y40876349D01*
X16459780Y40767512D01*
X16455925Y40741049D01*
X16449500Y40696949D01*
X16449500Y40696945D01*
X16449500Y40696944D01*
X16449500Y40403050D01*
X300500Y40403050D01*
X300500Y43391180D01*
X14599500Y43391180D01*
X14610191Y43317797D01*
X14665525Y43204608D01*
X14754607Y43115526D01*
X14754608Y43115526D01*
X14754610Y43115524D01*
X14867796Y43060191D01*
X14941173Y43049500D01*
X15209892Y43049501D01*
X15209902Y43049500D01*
X15224335Y43049500D01*
X16318569Y43049500D01*
X16376194Y43035297D01*
X16467635Y42987304D01*
X16544324Y42968403D01*
X16621014Y42949500D01*
X16621015Y42949500D01*
X16778985Y42949500D01*
X16932365Y42987304D01*
X17023805Y43035297D01*
X17081431Y43049500D01*
X18941398Y43049500D01*
X18941414Y43049501D01*
X19258826Y43049501D01*
X19332204Y43060191D01*
X19445390Y43115524D01*
X19534476Y43204610D01*
X19589809Y43317796D01*
X19600500Y43391173D01*
X19600499Y43808826D01*
X19589809Y43882204D01*
X19534476Y43995390D01*
X19534474Y43995392D01*
X19534474Y43995393D01*
X19445392Y44084475D01*
X19332202Y44139810D01*
X19258828Y44150500D01*
X19258827Y44150500D01*
X18975666Y44150500D01*
X18975665Y44150500D01*
X17871649Y44150500D01*
X17804610Y44170185D01*
X17758855Y44222989D01*
X17748911Y44292147D01*
X17750500Y44303051D01*
X17750499Y44596948D01*
X17740220Y44667509D01*
X17687012Y44776347D01*
X17687010Y44776349D01*
X17687010Y44776350D01*
X17601348Y44862012D01*
X17492511Y44915220D01*
X17474869Y44917790D01*
X17421949Y44925500D01*
X17421943Y44925500D01*
X16778049Y44925500D01*
X16707493Y44915221D01*
X16598650Y44862011D01*
X16512988Y44776349D01*
X16459780Y44667512D01*
X16455925Y44641049D01*
X16449500Y44596949D01*
X16449500Y44596945D01*
X16449500Y44596944D01*
X16449500Y44303048D01*
X16450361Y44297143D01*
X16440545Y44227967D01*
X16394888Y44175078D01*
X16385287Y44169477D01*
X16376199Y44164707D01*
X16318569Y44150500D01*
X14941179Y44150500D01*
X14867796Y44139809D01*
X14754607Y44084475D01*
X14665525Y43995393D01*
X14610190Y43882203D01*
X14599500Y43808828D01*
X14599500Y43391180D01*
X300500Y43391180D01*
X300500Y46817572D01*
X23332582Y46817572D01*
X23351622Y46660754D01*
X23407640Y46513050D01*
X23407640Y46513049D01*
X23497377Y46383042D01*
X23615620Y46278289D01*
X23635322Y46267949D01*
X23685537Y46219366D01*
X23701700Y46158151D01*
X23701700Y32812351D01*
X23682015Y32745312D01*
X23659928Y32719538D01*
X23561717Y32632530D01*
X23561716Y32632529D01*
X23471981Y32502525D01*
X23471980Y32502524D01*
X23415962Y32354819D01*
X23396922Y32198001D01*
X23396922Y32198000D01*
X23415962Y32041182D01*
X23471980Y31893477D01*
X23471981Y31893476D01*
X23561718Y31763468D01*
X23566691Y31757855D01*
X23565078Y31756427D01*
X23596470Y31706397D01*
X23595712Y31636531D01*
X23579171Y31602315D01*
X23511168Y31503796D01*
X23511165Y31503790D01*
X23455147Y31356085D01*
X23436107Y31199267D01*
X23436107Y31199266D01*
X23455147Y31042448D01*
X23511164Y30894743D01*
X23511165Y30894743D01*
X23600902Y30764736D01*
X23719145Y30659983D01*
X23719147Y30659982D01*
X23859019Y30586570D01*
X24012399Y30548766D01*
X24012400Y30548766D01*
X24170370Y30548766D01*
X24323750Y30586570D01*
X24323749Y30586570D01*
X24463625Y30659983D01*
X24581868Y30764736D01*
X24671605Y30894743D01*
X24727622Y31042448D01*
X24746663Y31199266D01*
X24736659Y31281649D01*
X24748119Y31350570D01*
X24772071Y31384272D01*
X24965246Y31577447D01*
X24985102Y31593570D01*
X24992869Y31598644D01*
X25013073Y31624604D01*
X25018141Y31630342D01*
X25020576Y31632775D01*
X25024362Y31638079D01*
X25033248Y31650523D01*
X25064713Y31690950D01*
X25064712Y31690950D01*
X25064717Y31690955D01*
X25064719Y31690962D01*
X25068182Y31697363D01*
X25068221Y31697441D01*
X25068263Y31697520D01*
X25071436Y31704011D01*
X25071440Y31704015D01*
X25086063Y31753134D01*
X25102700Y31801593D01*
X25102700Y31801601D01*
X25103915Y31808883D01*
X25104818Y31816128D01*
X25102700Y31867336D01*
X25102700Y35530184D01*
X25122385Y35597223D01*
X25175189Y35642978D01*
X25244347Y35652922D01*
X25307903Y35623897D01*
X25336255Y35588267D01*
X25361899Y35539898D01*
X25361898Y35539898D01*
X25468727Y35414129D01*
X25481663Y35398900D01*
X25628936Y35286946D01*
X25796833Y35209268D01*
X25796834Y35209268D01*
X25796836Y35209267D01*
X25851648Y35197203D01*
X25977503Y35169500D01*
X25977506Y35169500D01*
X26565915Y35169500D01*
X26632954Y35149815D01*
X26678709Y35097011D01*
X26688653Y35027853D01*
X26667219Y34973992D01*
X26576623Y34845648D01*
X26576621Y34845645D01*
X26525946Y34703061D01*
X26525946Y34703058D01*
X26515619Y34552082D01*
X26515619Y34552079D01*
X26546405Y34403922D01*
X26546407Y34403917D01*
X26546408Y34403915D01*
X26616029Y34269553D01*
X26616031Y34269551D01*
X26616032Y34269549D01*
X26719318Y34158957D01*
X26719320Y34158956D01*
X26848618Y34080328D01*
X26994335Y34039500D01*
X26994336Y34039500D01*
X27107659Y34039500D01*
X27135723Y34043358D01*
X27219920Y34054930D01*
X27329854Y34102682D01*
X27358716Y34115218D01*
X27358716Y34115219D01*
X27358720Y34115220D01*
X27476108Y34210722D01*
X27563377Y34334353D01*
X27570255Y34353707D01*
X27614053Y34476940D01*
X27614053Y34476942D01*
X27614054Y34476944D01*
X27624381Y34627921D01*
X27616155Y34667507D01*
X27593594Y34776079D01*
X27593592Y34776082D01*
X27593592Y34776085D01*
X27523971Y34910447D01*
X27523967Y34910451D01*
X27523967Y34910452D01*
X27420682Y35021043D01*
X27419065Y35022026D01*
X27415267Y35024336D01*
X27368217Y35075986D01*
X27356560Y35144877D01*
X27383998Y35209133D01*
X27423662Y35239753D01*
X27423460Y35240089D01*
X27426356Y35241832D01*
X27427647Y35242828D01*
X27429211Y35243553D01*
X27429221Y35243556D01*
X27587736Y35338930D01*
X27722041Y35466151D01*
X27825858Y35619270D01*
X27894331Y35791125D01*
X27916337Y35925355D01*
X29499500Y35925355D01*
X29538855Y35740198D01*
X29538857Y35740193D01*
X29615848Y35567271D01*
X29615851Y35567266D01*
X29727111Y35414130D01*
X29727112Y35414129D01*
X29867784Y35287467D01*
X30031716Y35192821D01*
X30211744Y35134326D01*
X30352808Y35119500D01*
X30352812Y35119500D01*
X31147188Y35119500D01*
X31147192Y35119500D01*
X31288256Y35134326D01*
X31468284Y35192821D01*
X31632216Y35287467D01*
X31772888Y35414129D01*
X31884151Y35567270D01*
X31961144Y35740197D01*
X32000500Y35925354D01*
X32000500Y36114646D01*
X31961144Y36299803D01*
X31944735Y36336657D01*
X31884151Y36472730D01*
X31884148Y36472735D01*
X31772888Y36625871D01*
X31772888Y36625872D01*
X31632216Y36752533D01*
X31468284Y36847179D01*
X31468277Y36847182D01*
X31288259Y36905673D01*
X31288256Y36905674D01*
X31147192Y36920500D01*
X30352808Y36920500D01*
X30211744Y36905674D01*
X30211741Y36905674D01*
X30211740Y36905673D01*
X30031722Y36847182D01*
X30031715Y36847179D01*
X29867785Y36752534D01*
X29727111Y36625871D01*
X29615851Y36472735D01*
X29615848Y36472730D01*
X29538857Y36299808D01*
X29538855Y36299803D01*
X29499500Y36114646D01*
X29499500Y35925355D01*
X27916337Y35925355D01*
X27924260Y35973683D01*
X27914245Y36158407D01*
X27864754Y36336659D01*
X27792613Y36472730D01*
X27778101Y36500103D01*
X27658337Y36641100D01*
X27579449Y36701069D01*
X27511064Y36753054D01*
X27343167Y36830732D01*
X27343163Y36830734D01*
X27162497Y36870500D01*
X26023887Y36870500D01*
X26023883Y36870500D01*
X25886088Y36855514D01*
X25710776Y36796443D01*
X25710774Y36796442D01*
X25552262Y36701069D01*
X25552261Y36701068D01*
X25417959Y36573851D01*
X25329334Y36443136D01*
X25275420Y36398695D01*
X25206037Y36390457D01*
X25143215Y36421037D01*
X25106899Y36480727D01*
X25102700Y36512723D01*
X25102700Y38153702D01*
X25102699Y38153708D01*
X25102699Y41025500D01*
X25102699Y47398599D01*
X25105337Y47424030D01*
X25107243Y47433115D01*
X25107242Y47433123D01*
X25107668Y47443387D01*
X25109745Y47443301D01*
X25115001Y47487190D01*
X25136237Y47543182D01*
X25155278Y47700000D01*
X25136237Y47856818D01*
X25080220Y48004523D01*
X24990483Y48134530D01*
X24872240Y48239283D01*
X24872238Y48239284D01*
X24872237Y48239285D01*
X24732365Y48312697D01*
X24578986Y48350500D01*
X24578985Y48350500D01*
X24421015Y48350500D01*
X24421014Y48350500D01*
X24267634Y48312697D01*
X24127762Y48239285D01*
X24009516Y48134529D01*
X23919781Y48004525D01*
X23919780Y48004524D01*
X23863762Y47856819D01*
X23844722Y47700001D01*
X23844721Y47700000D01*
X23860687Y47568513D01*
X23849226Y47499590D01*
X23802322Y47447804D01*
X23767270Y47433171D01*
X23755494Y47430269D01*
X23615622Y47356857D01*
X23497376Y47252101D01*
X23407641Y47122097D01*
X23407640Y47122096D01*
X23351622Y46974391D01*
X23332582Y46817573D01*
X23332582Y46817572D01*
X300500Y46817572D01*
X300500Y55675500D01*
X320185Y55742539D01*
X372989Y55788294D01*
X424500Y55799500D01*
X33775500Y55799500D01*
X33842539Y55779815D01*
G37*
%TD.AperFunction*%
%TD*%
%TA.AperFunction,Conductor*%
%TO.N,+3V0*%
G36*
X33643039Y14080315D02*
G01*
X33688794Y14027511D01*
X33700000Y13976000D01*
X33700000Y6424000D01*
X33680315Y6356961D01*
X33627511Y6311206D01*
X33576000Y6300000D01*
X624000Y6300000D01*
X556961Y6319685D01*
X511206Y6372489D01*
X500000Y6424000D01*
X500000Y13976000D01*
X519685Y14043039D01*
X572489Y14088794D01*
X624000Y14100000D01*
X33576000Y14100000D01*
X33643039Y14080315D01*
G37*
%TD.AperFunction*%
%TD*%
M02*
