%TF.GenerationSoftware,KiCad,Pcbnew,7.0.5*%
%TF.CreationDate,2023-06-25T17:37:25+01:00*%
%TF.ProjectId,Rapid Remote,52617069-6420-4526-956d-6f74652e6b69,rev?*%
%TF.SameCoordinates,PX815a420PY6eb35b0*%
%TF.FileFunction,Legend,Top*%
%TF.FilePolarity,Positive*%
%FSLAX46Y46*%
G04 Gerber Fmt 4.6, Leading zero omitted, Abs format (unit mm)*
G04 Created by KiCad (PCBNEW 7.0.5) date 2023-06-25 17:37:25*
%MOMM*%
%LPD*%
G01*
G04 APERTURE LIST*
%ADD10C,0.200000*%
%ADD11C,0.050000*%
G04 APERTURE END LIST*
D10*
%TO.C,s8*%
X12589047Y30930400D02*
X12779523Y30835162D01*
X12779523Y30835162D02*
X13160475Y30835162D01*
X13160475Y30835162D02*
X13350952Y30930400D01*
X13350952Y30930400D02*
X13446190Y31120877D01*
X13446190Y31120877D02*
X13446190Y31216115D01*
X13446190Y31216115D02*
X13350952Y31406591D01*
X13350952Y31406591D02*
X13160475Y31501829D01*
X13160475Y31501829D02*
X12874761Y31501829D01*
X12874761Y31501829D02*
X12684285Y31597067D01*
X12684285Y31597067D02*
X12589047Y31787543D01*
X12589047Y31787543D02*
X12589047Y31882781D01*
X12589047Y31882781D02*
X12684285Y32073258D01*
X12684285Y32073258D02*
X12874761Y32168496D01*
X12874761Y32168496D02*
X13160475Y32168496D01*
X13160475Y32168496D02*
X13350952Y32073258D01*
X14589047Y31978020D02*
X14398571Y32073258D01*
X14398571Y32073258D02*
X14303333Y32168496D01*
X14303333Y32168496D02*
X14208095Y32358972D01*
X14208095Y32358972D02*
X14208095Y32454210D01*
X14208095Y32454210D02*
X14303333Y32644686D01*
X14303333Y32644686D02*
X14398571Y32739924D01*
X14398571Y32739924D02*
X14589047Y32835162D01*
X14589047Y32835162D02*
X14970000Y32835162D01*
X14970000Y32835162D02*
X15160476Y32739924D01*
X15160476Y32739924D02*
X15255714Y32644686D01*
X15255714Y32644686D02*
X15350952Y32454210D01*
X15350952Y32454210D02*
X15350952Y32358972D01*
X15350952Y32358972D02*
X15255714Y32168496D01*
X15255714Y32168496D02*
X15160476Y32073258D01*
X15160476Y32073258D02*
X14970000Y31978020D01*
X14970000Y31978020D02*
X14589047Y31978020D01*
X14589047Y31978020D02*
X14398571Y31882781D01*
X14398571Y31882781D02*
X14303333Y31787543D01*
X14303333Y31787543D02*
X14208095Y31597067D01*
X14208095Y31597067D02*
X14208095Y31216115D01*
X14208095Y31216115D02*
X14303333Y31025639D01*
X14303333Y31025639D02*
X14398571Y30930400D01*
X14398571Y30930400D02*
X14589047Y30835162D01*
X14589047Y30835162D02*
X14970000Y30835162D01*
X14970000Y30835162D02*
X15160476Y30930400D01*
X15160476Y30930400D02*
X15255714Y31025639D01*
X15255714Y31025639D02*
X15350952Y31216115D01*
X15350952Y31216115D02*
X15350952Y31597067D01*
X15350952Y31597067D02*
X15255714Y31787543D01*
X15255714Y31787543D02*
X15160476Y31882781D01*
X15160476Y31882781D02*
X14970000Y31978020D01*
%TO.C,s6*%
X12589047Y21786400D02*
X12779523Y21691162D01*
X12779523Y21691162D02*
X13160475Y21691162D01*
X13160475Y21691162D02*
X13350952Y21786400D01*
X13350952Y21786400D02*
X13446190Y21976877D01*
X13446190Y21976877D02*
X13446190Y22072115D01*
X13446190Y22072115D02*
X13350952Y22262591D01*
X13350952Y22262591D02*
X13160475Y22357829D01*
X13160475Y22357829D02*
X12874761Y22357829D01*
X12874761Y22357829D02*
X12684285Y22453067D01*
X12684285Y22453067D02*
X12589047Y22643543D01*
X12589047Y22643543D02*
X12589047Y22738781D01*
X12589047Y22738781D02*
X12684285Y22929258D01*
X12684285Y22929258D02*
X12874761Y23024496D01*
X12874761Y23024496D02*
X13160475Y23024496D01*
X13160475Y23024496D02*
X13350952Y22929258D01*
X15160476Y23691162D02*
X14779523Y23691162D01*
X14779523Y23691162D02*
X14589047Y23595924D01*
X14589047Y23595924D02*
X14493809Y23500686D01*
X14493809Y23500686D02*
X14303333Y23214972D01*
X14303333Y23214972D02*
X14208095Y22834020D01*
X14208095Y22834020D02*
X14208095Y22072115D01*
X14208095Y22072115D02*
X14303333Y21881639D01*
X14303333Y21881639D02*
X14398571Y21786400D01*
X14398571Y21786400D02*
X14589047Y21691162D01*
X14589047Y21691162D02*
X14970000Y21691162D01*
X14970000Y21691162D02*
X15160476Y21786400D01*
X15160476Y21786400D02*
X15255714Y21881639D01*
X15255714Y21881639D02*
X15350952Y22072115D01*
X15350952Y22072115D02*
X15350952Y22548305D01*
X15350952Y22548305D02*
X15255714Y22738781D01*
X15255714Y22738781D02*
X15160476Y22834020D01*
X15160476Y22834020D02*
X14970000Y22929258D01*
X14970000Y22929258D02*
X14589047Y22929258D01*
X14589047Y22929258D02*
X14398571Y22834020D01*
X14398571Y22834020D02*
X14303333Y22738781D01*
X14303333Y22738781D02*
X14208095Y22548305D01*
%TO.C,s4*%
X12589047Y11880400D02*
X12779523Y11785162D01*
X12779523Y11785162D02*
X13160475Y11785162D01*
X13160475Y11785162D02*
X13350952Y11880400D01*
X13350952Y11880400D02*
X13446190Y12070877D01*
X13446190Y12070877D02*
X13446190Y12166115D01*
X13446190Y12166115D02*
X13350952Y12356591D01*
X13350952Y12356591D02*
X13160475Y12451829D01*
X13160475Y12451829D02*
X12874761Y12451829D01*
X12874761Y12451829D02*
X12684285Y12547067D01*
X12684285Y12547067D02*
X12589047Y12737543D01*
X12589047Y12737543D02*
X12589047Y12832781D01*
X12589047Y12832781D02*
X12684285Y13023258D01*
X12684285Y13023258D02*
X12874761Y13118496D01*
X12874761Y13118496D02*
X13160475Y13118496D01*
X13160475Y13118496D02*
X13350952Y13023258D01*
X15160476Y13118496D02*
X15160476Y11785162D01*
X14684285Y13880400D02*
X14208095Y12451829D01*
X14208095Y12451829D02*
X15446190Y12451829D01*
D11*
%TO.C,s8*%
X15047268Y28000000D02*
G75*
G03*
X15047268Y28000000I-1047268J0D01*
G01*
X15730000Y26470000D02*
X15530000Y26270000D01*
X15730000Y29530000D02*
X15730000Y26470000D01*
X15530000Y26270000D02*
X12470000Y26270000D01*
X15530000Y29730000D02*
X15730000Y29530000D01*
X12470000Y26270000D02*
X12270000Y26470000D01*
X12470000Y29730000D02*
X15530000Y29730000D01*
X12270000Y26470000D02*
X12270000Y29530000D01*
X12270000Y29530000D02*
X12470000Y29730000D01*
%TO.C,s6*%
X12270000Y20530000D02*
X12470000Y20730000D01*
X12270000Y17470000D02*
X12270000Y20530000D01*
X12470000Y20730000D02*
X15530000Y20730000D01*
X12470000Y17270000D02*
X12270000Y17470000D01*
X15530000Y20730000D02*
X15730000Y20530000D01*
X15530000Y17270000D02*
X12470000Y17270000D01*
X15730000Y20530000D02*
X15730000Y17470000D01*
X15730000Y17470000D02*
X15530000Y17270000D01*
X15047268Y19000000D02*
G75*
G03*
X15047268Y19000000I-1047268J0D01*
G01*
%TO.C,s4*%
X12270000Y10530000D02*
X12470000Y10730000D01*
X12270000Y7470000D02*
X12270000Y10530000D01*
X12470000Y10730000D02*
X15530000Y10730000D01*
X12470000Y7270000D02*
X12270000Y7470000D01*
X15530000Y10730000D02*
X15730000Y10530000D01*
X15530000Y7270000D02*
X12470000Y7270000D01*
X15730000Y10530000D02*
X15730000Y7470000D01*
X15730000Y7470000D02*
X15530000Y7270000D01*
X15047268Y9000000D02*
G75*
G03*
X15047268Y9000000I-1047268J0D01*
G01*
%TD*%
M02*
