%TF.GenerationSoftware,KiCad,Pcbnew,7.0.6*%
%TF.CreationDate,2023-07-26T13:56:52+01:00*%
%TF.ProjectId,Rapid Remote,52617069-6420-4526-956d-6f74652e6b69,rev?*%
%TF.SameCoordinates,PX8044ea0PY76ec560*%
%TF.FileFunction,Soldermask,Top*%
%TF.FilePolarity,Negative*%
%FSLAX46Y46*%
G04 Gerber Fmt 4.6, Leading zero omitted, Abs format (unit mm)*
G04 Created by KiCad (PCBNEW 7.0.6) date 2023-07-26 13:56:52*
%MOMM*%
%LPD*%
G01*
G04 APERTURE LIST*
G04 Aperture macros list*
%AMRoundRect*
0 Rectangle with rounded corners*
0 $1 Rounding radius*
0 $2 $3 $4 $5 $6 $7 $8 $9 X,Y pos of 4 corners*
0 Add a 4 corners polygon primitive as box body*
4,1,4,$2,$3,$4,$5,$6,$7,$8,$9,$2,$3,0*
0 Add four circle primitives for the rounded corners*
1,1,$1+$1,$2,$3*
1,1,$1+$1,$4,$5*
1,1,$1+$1,$6,$7*
1,1,$1+$1,$8,$9*
0 Add four rect primitives between the rounded corners*
20,1,$1+$1,$2,$3,$4,$5,0*
20,1,$1+$1,$4,$5,$6,$7,0*
20,1,$1+$1,$6,$7,$8,$9,0*
20,1,$1+$1,$8,$9,$2,$3,0*%
G04 Aperture macros list end*
%ADD10C,0.127000*%
%ADD11RoundRect,0.135000X-0.185000X0.135000X-0.185000X-0.135000X0.185000X-0.135000X0.185000X0.135000X0*%
%ADD12RoundRect,0.225000X-0.225000X-0.250000X0.225000X-0.250000X0.225000X0.250000X-0.225000X0.250000X0*%
%ADD13RoundRect,0.150000X0.150000X0.200000X-0.150000X0.200000X-0.150000X-0.200000X0.150000X-0.200000X0*%
%ADD14RoundRect,0.225000X0.250000X-0.225000X0.250000X0.225000X-0.250000X0.225000X-0.250000X-0.225000X0*%
%ADD15RoundRect,0.135000X0.185000X-0.135000X0.185000X0.135000X-0.185000X0.135000X-0.185000X-0.135000X0*%
%ADD16RoundRect,0.050800X0.400000X-0.200000X0.400000X0.200000X-0.400000X0.200000X-0.400000X-0.200000X0*%
%ADD17RoundRect,0.050800X-0.200000X-0.400000X0.200000X-0.400000X0.200000X0.400000X-0.200000X0.400000X0*%
%ADD18RoundRect,0.050800X0.725000X-0.725000X0.725000X0.725000X-0.725000X0.725000X-0.725000X-0.725000X0*%
%ADD19RoundRect,0.050800X-0.350000X-0.350000X0.350000X-0.350000X0.350000X0.350000X-0.350000X0.350000X0*%
%ADD20RoundRect,0.140000X-0.170000X0.140000X-0.170000X-0.140000X0.170000X-0.140000X0.170000X0.140000X0*%
%ADD21RoundRect,0.150000X-0.150000X-0.200000X0.150000X-0.200000X0.150000X0.200000X-0.150000X0.200000X0*%
%ADD22RoundRect,0.135000X0.135000X0.185000X-0.135000X0.185000X-0.135000X-0.185000X0.135000X-0.185000X0*%
%ADD23RoundRect,0.218750X-0.218750X-0.256250X0.218750X-0.256250X0.218750X0.256250X-0.218750X0.256250X0*%
%ADD24RoundRect,0.140000X0.170000X-0.140000X0.170000X0.140000X-0.170000X0.140000X-0.170000X-0.140000X0*%
%ADD25C,0.701600*%
%ADD26RoundRect,0.050800X1.100000X-0.550000X1.100000X0.550000X-1.100000X0.550000X-1.100000X-0.550000X0*%
%ADD27O,2.301600X1.301600*%
%ADD28RoundRect,0.050800X1.000000X-0.550000X1.000000X0.550000X-1.000000X0.550000X-1.000000X-0.550000X0*%
%ADD29O,2.101600X1.401600*%
%ADD30RoundRect,0.050800X0.575000X-0.150000X0.575000X0.150000X-0.575000X0.150000X-0.575000X-0.150000X0*%
%ADD31RoundRect,0.050800X0.575000X-0.125000X0.575000X0.125000X-0.575000X0.125000X-0.575000X-0.125000X0*%
%ADD32RoundRect,0.150000X0.512500X0.150000X-0.512500X0.150000X-0.512500X-0.150000X0.512500X-0.150000X0*%
%ADD33R,5.700000X6.100000*%
%ADD34C,17.800000*%
G04 APERTURE END LIST*
D10*
X2003965Y31320484D02*
X1527774Y30987151D01*
X2003965Y30749056D02*
X1003965Y30749056D01*
X1003965Y30749056D02*
X1003965Y31130008D01*
X1003965Y31130008D02*
X1051584Y31225246D01*
X1051584Y31225246D02*
X1099203Y31272865D01*
X1099203Y31272865D02*
X1194441Y31320484D01*
X1194441Y31320484D02*
X1337298Y31320484D01*
X1337298Y31320484D02*
X1432536Y31272865D01*
X1432536Y31272865D02*
X1480155Y31225246D01*
X1480155Y31225246D02*
X1527774Y31130008D01*
X1527774Y31130008D02*
X1527774Y30749056D01*
X2003965Y32177627D02*
X1480155Y32177627D01*
X1480155Y32177627D02*
X1384917Y32130008D01*
X1384917Y32130008D02*
X1337298Y32034770D01*
X1337298Y32034770D02*
X1337298Y31844294D01*
X1337298Y31844294D02*
X1384917Y31749056D01*
X1956346Y32177627D02*
X2003965Y32082389D01*
X2003965Y32082389D02*
X2003965Y31844294D01*
X2003965Y31844294D02*
X1956346Y31749056D01*
X1956346Y31749056D02*
X1861107Y31701437D01*
X1861107Y31701437D02*
X1765869Y31701437D01*
X1765869Y31701437D02*
X1670631Y31749056D01*
X1670631Y31749056D02*
X1623012Y31844294D01*
X1623012Y31844294D02*
X1623012Y32082389D01*
X1623012Y32082389D02*
X1575393Y32177627D01*
X1337298Y32653818D02*
X2337298Y32653818D01*
X1384917Y32653818D02*
X1337298Y32749056D01*
X1337298Y32749056D02*
X1337298Y32939532D01*
X1337298Y32939532D02*
X1384917Y33034770D01*
X1384917Y33034770D02*
X1432536Y33082389D01*
X1432536Y33082389D02*
X1527774Y33130008D01*
X1527774Y33130008D02*
X1813488Y33130008D01*
X1813488Y33130008D02*
X1908726Y33082389D01*
X1908726Y33082389D02*
X1956346Y33034770D01*
X1956346Y33034770D02*
X2003965Y32939532D01*
X2003965Y32939532D02*
X2003965Y32749056D01*
X2003965Y32749056D02*
X1956346Y32653818D01*
X2003965Y33558580D02*
X1337298Y33558580D01*
X1003965Y33558580D02*
X1051584Y33510961D01*
X1051584Y33510961D02*
X1099203Y33558580D01*
X1099203Y33558580D02*
X1051584Y33606199D01*
X1051584Y33606199D02*
X1003965Y33558580D01*
X1003965Y33558580D02*
X1099203Y33558580D01*
X2003965Y34463341D02*
X1003965Y34463341D01*
X1956346Y34463341D02*
X2003965Y34368103D01*
X2003965Y34368103D02*
X2003965Y34177627D01*
X2003965Y34177627D02*
X1956346Y34082389D01*
X1956346Y34082389D02*
X1908726Y34034770D01*
X1908726Y34034770D02*
X1813488Y33987151D01*
X1813488Y33987151D02*
X1527774Y33987151D01*
X1527774Y33987151D02*
X1432536Y34034770D01*
X1432536Y34034770D02*
X1384917Y34082389D01*
X1384917Y34082389D02*
X1337298Y34177627D01*
X1337298Y34177627D02*
X1337298Y34368103D01*
X1337298Y34368103D02*
X1384917Y34463341D01*
X1003965Y35558580D02*
X1003965Y36130008D01*
X2003965Y35844294D02*
X1003965Y35844294D01*
X2003965Y36463342D02*
X1337298Y36463342D01*
X1527774Y36463342D02*
X1432536Y36510961D01*
X1432536Y36510961D02*
X1384917Y36558580D01*
X1384917Y36558580D02*
X1337298Y36653818D01*
X1337298Y36653818D02*
X1337298Y36749056D01*
X2003965Y37510961D02*
X1480155Y37510961D01*
X1480155Y37510961D02*
X1384917Y37463342D01*
X1384917Y37463342D02*
X1337298Y37368104D01*
X1337298Y37368104D02*
X1337298Y37177628D01*
X1337298Y37177628D02*
X1384917Y37082390D01*
X1956346Y37510961D02*
X2003965Y37415723D01*
X2003965Y37415723D02*
X2003965Y37177628D01*
X2003965Y37177628D02*
X1956346Y37082390D01*
X1956346Y37082390D02*
X1861107Y37034771D01*
X1861107Y37034771D02*
X1765869Y37034771D01*
X1765869Y37034771D02*
X1670631Y37082390D01*
X1670631Y37082390D02*
X1623012Y37177628D01*
X1623012Y37177628D02*
X1623012Y37415723D01*
X1623012Y37415723D02*
X1575393Y37510961D01*
X2003965Y37987152D02*
X1337298Y37987152D01*
X1003965Y37987152D02*
X1051584Y37939533D01*
X1051584Y37939533D02*
X1099203Y37987152D01*
X1099203Y37987152D02*
X1051584Y38034771D01*
X1051584Y38034771D02*
X1003965Y37987152D01*
X1003965Y37987152D02*
X1099203Y37987152D01*
X1337298Y38463342D02*
X2003965Y38463342D01*
X1432536Y38463342D02*
X1384917Y38510961D01*
X1384917Y38510961D02*
X1337298Y38606199D01*
X1337298Y38606199D02*
X1337298Y38749056D01*
X1337298Y38749056D02*
X1384917Y38844294D01*
X1384917Y38844294D02*
X1480155Y38891913D01*
X1480155Y38891913D02*
X2003965Y38891913D01*
X2003965Y39368104D02*
X1337298Y39368104D01*
X1003965Y39368104D02*
X1051584Y39320485D01*
X1051584Y39320485D02*
X1099203Y39368104D01*
X1099203Y39368104D02*
X1051584Y39415723D01*
X1051584Y39415723D02*
X1003965Y39368104D01*
X1003965Y39368104D02*
X1099203Y39368104D01*
X1337298Y39844294D02*
X2003965Y39844294D01*
X1432536Y39844294D02*
X1384917Y39891913D01*
X1384917Y39891913D02*
X1337298Y39987151D01*
X1337298Y39987151D02*
X1337298Y40130008D01*
X1337298Y40130008D02*
X1384917Y40225246D01*
X1384917Y40225246D02*
X1480155Y40272865D01*
X1480155Y40272865D02*
X2003965Y40272865D01*
X1337298Y41177627D02*
X2146822Y41177627D01*
X2146822Y41177627D02*
X2242060Y41130008D01*
X2242060Y41130008D02*
X2289679Y41082389D01*
X2289679Y41082389D02*
X2337298Y40987151D01*
X2337298Y40987151D02*
X2337298Y40844294D01*
X2337298Y40844294D02*
X2289679Y40749056D01*
X1956346Y41177627D02*
X2003965Y41082389D01*
X2003965Y41082389D02*
X2003965Y40891913D01*
X2003965Y40891913D02*
X1956346Y40796675D01*
X1956346Y40796675D02*
X1908726Y40749056D01*
X1908726Y40749056D02*
X1813488Y40701437D01*
X1813488Y40701437D02*
X1527774Y40701437D01*
X1527774Y40701437D02*
X1432536Y40749056D01*
X1432536Y40749056D02*
X1384917Y40796675D01*
X1384917Y40796675D02*
X1337298Y40891913D01*
X1337298Y40891913D02*
X1337298Y41082389D01*
X1337298Y41082389D02*
X1384917Y41177627D01*
X1480155Y42749056D02*
X1527774Y42891913D01*
X1527774Y42891913D02*
X1575393Y42939532D01*
X1575393Y42939532D02*
X1670631Y42987151D01*
X1670631Y42987151D02*
X1813488Y42987151D01*
X1813488Y42987151D02*
X1908726Y42939532D01*
X1908726Y42939532D02*
X1956346Y42891913D01*
X1956346Y42891913D02*
X2003965Y42796675D01*
X2003965Y42796675D02*
X2003965Y42415723D01*
X2003965Y42415723D02*
X1003965Y42415723D01*
X1003965Y42415723D02*
X1003965Y42749056D01*
X1003965Y42749056D02*
X1051584Y42844294D01*
X1051584Y42844294D02*
X1099203Y42891913D01*
X1099203Y42891913D02*
X1194441Y42939532D01*
X1194441Y42939532D02*
X1289679Y42939532D01*
X1289679Y42939532D02*
X1384917Y42891913D01*
X1384917Y42891913D02*
X1432536Y42844294D01*
X1432536Y42844294D02*
X1480155Y42749056D01*
X1480155Y42749056D02*
X1480155Y42415723D01*
X2003965Y43558580D02*
X1956346Y43463342D01*
X1956346Y43463342D02*
X1908726Y43415723D01*
X1908726Y43415723D02*
X1813488Y43368104D01*
X1813488Y43368104D02*
X1527774Y43368104D01*
X1527774Y43368104D02*
X1432536Y43415723D01*
X1432536Y43415723D02*
X1384917Y43463342D01*
X1384917Y43463342D02*
X1337298Y43558580D01*
X1337298Y43558580D02*
X1337298Y43701437D01*
X1337298Y43701437D02*
X1384917Y43796675D01*
X1384917Y43796675D02*
X1432536Y43844294D01*
X1432536Y43844294D02*
X1527774Y43891913D01*
X1527774Y43891913D02*
X1813488Y43891913D01*
X1813488Y43891913D02*
X1908726Y43844294D01*
X1908726Y43844294D02*
X1956346Y43796675D01*
X1956346Y43796675D02*
X2003965Y43701437D01*
X2003965Y43701437D02*
X2003965Y43558580D01*
X2003965Y44225247D02*
X1337298Y44749056D01*
X1337298Y44225247D02*
X2003965Y44749056D01*
X2003965Y46463342D02*
X1527774Y46130009D01*
X2003965Y45891914D02*
X1003965Y45891914D01*
X1003965Y45891914D02*
X1003965Y46272866D01*
X1003965Y46272866D02*
X1051584Y46368104D01*
X1051584Y46368104D02*
X1099203Y46415723D01*
X1099203Y46415723D02*
X1194441Y46463342D01*
X1194441Y46463342D02*
X1337298Y46463342D01*
X1337298Y46463342D02*
X1432536Y46415723D01*
X1432536Y46415723D02*
X1480155Y46368104D01*
X1480155Y46368104D02*
X1527774Y46272866D01*
X1527774Y46272866D02*
X1527774Y45891914D01*
X1956346Y47272866D02*
X2003965Y47177628D01*
X2003965Y47177628D02*
X2003965Y46987152D01*
X2003965Y46987152D02*
X1956346Y46891914D01*
X1956346Y46891914D02*
X1861107Y46844295D01*
X1861107Y46844295D02*
X1480155Y46844295D01*
X1480155Y46844295D02*
X1384917Y46891914D01*
X1384917Y46891914D02*
X1337298Y46987152D01*
X1337298Y46987152D02*
X1337298Y47177628D01*
X1337298Y47177628D02*
X1384917Y47272866D01*
X1384917Y47272866D02*
X1480155Y47320485D01*
X1480155Y47320485D02*
X1575393Y47320485D01*
X1575393Y47320485D02*
X1670631Y46844295D01*
X2003965Y47749057D02*
X1337298Y47749057D01*
X1432536Y47749057D02*
X1384917Y47796676D01*
X1384917Y47796676D02*
X1337298Y47891914D01*
X1337298Y47891914D02*
X1337298Y48034771D01*
X1337298Y48034771D02*
X1384917Y48130009D01*
X1384917Y48130009D02*
X1480155Y48177628D01*
X1480155Y48177628D02*
X2003965Y48177628D01*
X1480155Y48177628D02*
X1384917Y48225247D01*
X1384917Y48225247D02*
X1337298Y48320485D01*
X1337298Y48320485D02*
X1337298Y48463342D01*
X1337298Y48463342D02*
X1384917Y48558581D01*
X1384917Y48558581D02*
X1480155Y48606200D01*
X1480155Y48606200D02*
X2003965Y48606200D01*
X2003965Y49225247D02*
X1956346Y49130009D01*
X1956346Y49130009D02*
X1908726Y49082390D01*
X1908726Y49082390D02*
X1813488Y49034771D01*
X1813488Y49034771D02*
X1527774Y49034771D01*
X1527774Y49034771D02*
X1432536Y49082390D01*
X1432536Y49082390D02*
X1384917Y49130009D01*
X1384917Y49130009D02*
X1337298Y49225247D01*
X1337298Y49225247D02*
X1337298Y49368104D01*
X1337298Y49368104D02*
X1384917Y49463342D01*
X1384917Y49463342D02*
X1432536Y49510961D01*
X1432536Y49510961D02*
X1527774Y49558580D01*
X1527774Y49558580D02*
X1813488Y49558580D01*
X1813488Y49558580D02*
X1908726Y49510961D01*
X1908726Y49510961D02*
X1956346Y49463342D01*
X1956346Y49463342D02*
X2003965Y49368104D01*
X2003965Y49368104D02*
X2003965Y49225247D01*
X1337298Y49844295D02*
X1337298Y50225247D01*
X1003965Y49987152D02*
X1861107Y49987152D01*
X1861107Y49987152D02*
X1956346Y50034771D01*
X1956346Y50034771D02*
X2003965Y50130009D01*
X2003965Y50130009D02*
X2003965Y50225247D01*
X1956346Y50939533D02*
X2003965Y50844295D01*
X2003965Y50844295D02*
X2003965Y50653819D01*
X2003965Y50653819D02*
X1956346Y50558581D01*
X1956346Y50558581D02*
X1861107Y50510962D01*
X1861107Y50510962D02*
X1480155Y50510962D01*
X1480155Y50510962D02*
X1384917Y50558581D01*
X1384917Y50558581D02*
X1337298Y50653819D01*
X1337298Y50653819D02*
X1337298Y50844295D01*
X1337298Y50844295D02*
X1384917Y50939533D01*
X1384917Y50939533D02*
X1480155Y50987152D01*
X1480155Y50987152D02*
X1575393Y50987152D01*
X1575393Y50987152D02*
X1670631Y50510962D01*
X2852060Y29130008D02*
X2804441Y29034769D01*
X2804441Y29034769D02*
X2804441Y28844293D01*
X2804441Y28844293D02*
X2852060Y28749055D01*
X2852060Y28749055D02*
X2947298Y28653817D01*
X2947298Y28653817D02*
X3042536Y28606198D01*
X3042536Y28606198D02*
X3233012Y28606198D01*
X3233012Y28606198D02*
X3328250Y28653817D01*
X3328250Y28653817D02*
X3423488Y28749055D01*
X3423488Y28749055D02*
X3471107Y28844293D01*
X3471107Y28844293D02*
X3471107Y29034769D01*
X3471107Y29034769D02*
X3423488Y29130008D01*
X2471107Y28939531D02*
X2518726Y28701436D01*
X2518726Y28701436D02*
X2661584Y28463341D01*
X2661584Y28463341D02*
X2899679Y28320484D01*
X2899679Y28320484D02*
X3137774Y28272865D01*
X3137774Y28272865D02*
X3375869Y28320484D01*
X3375869Y28320484D02*
X3613965Y28463341D01*
X3613965Y28463341D02*
X3756822Y28701436D01*
X3756822Y28701436D02*
X3804441Y28939531D01*
X3804441Y28939531D02*
X3756822Y29177627D01*
X3756822Y29177627D02*
X3613965Y29415722D01*
X3613965Y29415722D02*
X3375869Y29558579D01*
X3375869Y29558579D02*
X3137774Y29606198D01*
X3137774Y29606198D02*
X2899679Y29558579D01*
X2899679Y29558579D02*
X2661584Y29415722D01*
X2661584Y29415722D02*
X2518726Y29177627D01*
X2518726Y29177627D02*
X2471107Y28939531D01*
X2709203Y30749056D02*
X2661584Y30796675D01*
X2661584Y30796675D02*
X2613965Y30891913D01*
X2613965Y30891913D02*
X2613965Y31130008D01*
X2613965Y31130008D02*
X2661584Y31225246D01*
X2661584Y31225246D02*
X2709203Y31272865D01*
X2709203Y31272865D02*
X2804441Y31320484D01*
X2804441Y31320484D02*
X2899679Y31320484D01*
X2899679Y31320484D02*
X3042536Y31272865D01*
X3042536Y31272865D02*
X3613965Y30701437D01*
X3613965Y30701437D02*
X3613965Y31320484D01*
X2613965Y31939532D02*
X2613965Y32034770D01*
X2613965Y32034770D02*
X2661584Y32130008D01*
X2661584Y32130008D02*
X2709203Y32177627D01*
X2709203Y32177627D02*
X2804441Y32225246D01*
X2804441Y32225246D02*
X2994917Y32272865D01*
X2994917Y32272865D02*
X3233012Y32272865D01*
X3233012Y32272865D02*
X3423488Y32225246D01*
X3423488Y32225246D02*
X3518726Y32177627D01*
X3518726Y32177627D02*
X3566346Y32130008D01*
X3566346Y32130008D02*
X3613965Y32034770D01*
X3613965Y32034770D02*
X3613965Y31939532D01*
X3613965Y31939532D02*
X3566346Y31844294D01*
X3566346Y31844294D02*
X3518726Y31796675D01*
X3518726Y31796675D02*
X3423488Y31749056D01*
X3423488Y31749056D02*
X3233012Y31701437D01*
X3233012Y31701437D02*
X2994917Y31701437D01*
X2994917Y31701437D02*
X2804441Y31749056D01*
X2804441Y31749056D02*
X2709203Y31796675D01*
X2709203Y31796675D02*
X2661584Y31844294D01*
X2661584Y31844294D02*
X2613965Y31939532D01*
X2709203Y32653818D02*
X2661584Y32701437D01*
X2661584Y32701437D02*
X2613965Y32796675D01*
X2613965Y32796675D02*
X2613965Y33034770D01*
X2613965Y33034770D02*
X2661584Y33130008D01*
X2661584Y33130008D02*
X2709203Y33177627D01*
X2709203Y33177627D02*
X2804441Y33225246D01*
X2804441Y33225246D02*
X2899679Y33225246D01*
X2899679Y33225246D02*
X3042536Y33177627D01*
X3042536Y33177627D02*
X3613965Y32606199D01*
X3613965Y32606199D02*
X3613965Y33225246D01*
X2613965Y33558580D02*
X2613965Y34177627D01*
X2613965Y34177627D02*
X2994917Y33844294D01*
X2994917Y33844294D02*
X2994917Y33987151D01*
X2994917Y33987151D02*
X3042536Y34082389D01*
X3042536Y34082389D02*
X3090155Y34130008D01*
X3090155Y34130008D02*
X3185393Y34177627D01*
X3185393Y34177627D02*
X3423488Y34177627D01*
X3423488Y34177627D02*
X3518726Y34130008D01*
X3518726Y34130008D02*
X3566346Y34082389D01*
X3566346Y34082389D02*
X3613965Y33987151D01*
X3613965Y33987151D02*
X3613965Y33701437D01*
X3613965Y33701437D02*
X3566346Y33606199D01*
X3566346Y33606199D02*
X3518726Y33558580D01*
X2613965Y35225247D02*
X2613965Y35796675D01*
X3613965Y35510961D02*
X2613965Y35510961D01*
X3613965Y36130009D02*
X2613965Y36130009D01*
X3613965Y36558580D02*
X3090155Y36558580D01*
X3090155Y36558580D02*
X2994917Y36510961D01*
X2994917Y36510961D02*
X2947298Y36415723D01*
X2947298Y36415723D02*
X2947298Y36272866D01*
X2947298Y36272866D02*
X2994917Y36177628D01*
X2994917Y36177628D02*
X3042536Y36130009D01*
X3613965Y37177628D02*
X3566346Y37082390D01*
X3566346Y37082390D02*
X3518726Y37034771D01*
X3518726Y37034771D02*
X3423488Y36987152D01*
X3423488Y36987152D02*
X3137774Y36987152D01*
X3137774Y36987152D02*
X3042536Y37034771D01*
X3042536Y37034771D02*
X2994917Y37082390D01*
X2994917Y37082390D02*
X2947298Y37177628D01*
X2947298Y37177628D02*
X2947298Y37320485D01*
X2947298Y37320485D02*
X2994917Y37415723D01*
X2994917Y37415723D02*
X3042536Y37463342D01*
X3042536Y37463342D02*
X3137774Y37510961D01*
X3137774Y37510961D02*
X3423488Y37510961D01*
X3423488Y37510961D02*
X3518726Y37463342D01*
X3518726Y37463342D02*
X3566346Y37415723D01*
X3566346Y37415723D02*
X3613965Y37320485D01*
X3613965Y37320485D02*
X3613965Y37177628D01*
X3613965Y37939533D02*
X2947298Y37939533D01*
X3042536Y37939533D02*
X2994917Y37987152D01*
X2994917Y37987152D02*
X2947298Y38082390D01*
X2947298Y38082390D02*
X2947298Y38225247D01*
X2947298Y38225247D02*
X2994917Y38320485D01*
X2994917Y38320485D02*
X3090155Y38368104D01*
X3090155Y38368104D02*
X3613965Y38368104D01*
X3090155Y38368104D02*
X2994917Y38415723D01*
X2994917Y38415723D02*
X2947298Y38510961D01*
X2947298Y38510961D02*
X2947298Y38653818D01*
X2947298Y38653818D02*
X2994917Y38749057D01*
X2994917Y38749057D02*
X3090155Y38796676D01*
X3090155Y38796676D02*
X3613965Y38796676D01*
X3613965Y39701437D02*
X3090155Y39701437D01*
X3090155Y39701437D02*
X2994917Y39653818D01*
X2994917Y39653818D02*
X2947298Y39558580D01*
X2947298Y39558580D02*
X2947298Y39368104D01*
X2947298Y39368104D02*
X2994917Y39272866D01*
X3566346Y39701437D02*
X3613965Y39606199D01*
X3613965Y39606199D02*
X3613965Y39368104D01*
X3613965Y39368104D02*
X3566346Y39272866D01*
X3566346Y39272866D02*
X3471107Y39225247D01*
X3471107Y39225247D02*
X3375869Y39225247D01*
X3375869Y39225247D02*
X3280631Y39272866D01*
X3280631Y39272866D02*
X3233012Y39368104D01*
X3233012Y39368104D02*
X3233012Y39606199D01*
X3233012Y39606199D02*
X3185393Y39701437D01*
X3566346Y40130009D02*
X3613965Y40225247D01*
X3613965Y40225247D02*
X3613965Y40415723D01*
X3613965Y40415723D02*
X3566346Y40510961D01*
X3566346Y40510961D02*
X3471107Y40558580D01*
X3471107Y40558580D02*
X3423488Y40558580D01*
X3423488Y40558580D02*
X3328250Y40510961D01*
X3328250Y40510961D02*
X3280631Y40415723D01*
X3280631Y40415723D02*
X3280631Y40272866D01*
X3280631Y40272866D02*
X3233012Y40177628D01*
X3233012Y40177628D02*
X3137774Y40130009D01*
X3137774Y40130009D02*
X3090155Y40130009D01*
X3090155Y40130009D02*
X2994917Y40177628D01*
X2994917Y40177628D02*
X2947298Y40272866D01*
X2947298Y40272866D02*
X2947298Y40415723D01*
X2947298Y40415723D02*
X2994917Y40510961D01*
X2613965Y41653819D02*
X3613965Y41891914D01*
X3613965Y41891914D02*
X2899679Y42082390D01*
X2899679Y42082390D02*
X3613965Y42272866D01*
X3613965Y42272866D02*
X2613965Y42510961D01*
X3613965Y42891914D02*
X2613965Y42891914D01*
X3613965Y43320485D02*
X3090155Y43320485D01*
X3090155Y43320485D02*
X2994917Y43272866D01*
X2994917Y43272866D02*
X2947298Y43177628D01*
X2947298Y43177628D02*
X2947298Y43034771D01*
X2947298Y43034771D02*
X2994917Y42939533D01*
X2994917Y42939533D02*
X3042536Y42891914D01*
X2947298Y43701438D02*
X3613965Y43939533D01*
X2947298Y44177628D02*
X3613965Y43939533D01*
X3613965Y43939533D02*
X3852060Y43844295D01*
X3852060Y43844295D02*
X3899679Y43796676D01*
X3899679Y43796676D02*
X3947298Y43701438D01*
X2947298Y44415724D02*
X2947298Y44796676D01*
X2613965Y44558581D02*
X3471107Y44558581D01*
X3471107Y44558581D02*
X3566346Y44606200D01*
X3566346Y44606200D02*
X3613965Y44701438D01*
X3613965Y44701438D02*
X3613965Y44796676D01*
X3566346Y45510962D02*
X3613965Y45415724D01*
X3613965Y45415724D02*
X3613965Y45225248D01*
X3613965Y45225248D02*
X3566346Y45130010D01*
X3566346Y45130010D02*
X3471107Y45082391D01*
X3471107Y45082391D02*
X3090155Y45082391D01*
X3090155Y45082391D02*
X2994917Y45130010D01*
X2994917Y45130010D02*
X2947298Y45225248D01*
X2947298Y45225248D02*
X2947298Y45415724D01*
X2947298Y45415724D02*
X2994917Y45510962D01*
X2994917Y45510962D02*
X3090155Y45558581D01*
X3090155Y45558581D02*
X3185393Y45558581D01*
X3185393Y45558581D02*
X3280631Y45082391D01*
X3233012Y45987153D02*
X3233012Y46749057D01*
X2613965Y47082391D02*
X3613965Y47415724D01*
X3613965Y47415724D02*
X2613965Y47749057D01*
X3566346Y48463343D02*
X3613965Y48368105D01*
X3613965Y48368105D02*
X3613965Y48177629D01*
X3613965Y48177629D02*
X3566346Y48082391D01*
X3566346Y48082391D02*
X3471107Y48034772D01*
X3471107Y48034772D02*
X3090155Y48034772D01*
X3090155Y48034772D02*
X2994917Y48082391D01*
X2994917Y48082391D02*
X2947298Y48177629D01*
X2947298Y48177629D02*
X2947298Y48368105D01*
X2947298Y48368105D02*
X2994917Y48463343D01*
X2994917Y48463343D02*
X3090155Y48510962D01*
X3090155Y48510962D02*
X3185393Y48510962D01*
X3185393Y48510962D02*
X3280631Y48034772D01*
X2947298Y48939534D02*
X3613965Y48939534D01*
X3042536Y48939534D02*
X2994917Y48987153D01*
X2994917Y48987153D02*
X2947298Y49082391D01*
X2947298Y49082391D02*
X2947298Y49225248D01*
X2947298Y49225248D02*
X2994917Y49320486D01*
X2994917Y49320486D02*
X3090155Y49368105D01*
X3090155Y49368105D02*
X3613965Y49368105D01*
X3613965Y50272867D02*
X3090155Y50272867D01*
X3090155Y50272867D02*
X2994917Y50225248D01*
X2994917Y50225248D02*
X2947298Y50130010D01*
X2947298Y50130010D02*
X2947298Y49939534D01*
X2947298Y49939534D02*
X2994917Y49844296D01*
X3566346Y50272867D02*
X3613965Y50177629D01*
X3613965Y50177629D02*
X3613965Y49939534D01*
X3613965Y49939534D02*
X3566346Y49844296D01*
X3566346Y49844296D02*
X3471107Y49796677D01*
X3471107Y49796677D02*
X3375869Y49796677D01*
X3375869Y49796677D02*
X3280631Y49844296D01*
X3280631Y49844296D02*
X3233012Y49939534D01*
X3233012Y49939534D02*
X3233012Y50177629D01*
X3233012Y50177629D02*
X3185393Y50272867D01*
X3613965Y50749058D02*
X2613965Y50749058D01*
X2994917Y50749058D02*
X2947298Y50844296D01*
X2947298Y50844296D02*
X2947298Y51034772D01*
X2947298Y51034772D02*
X2994917Y51130010D01*
X2994917Y51130010D02*
X3042536Y51177629D01*
X3042536Y51177629D02*
X3137774Y51225248D01*
X3137774Y51225248D02*
X3423488Y51225248D01*
X3423488Y51225248D02*
X3518726Y51177629D01*
X3518726Y51177629D02*
X3566346Y51130010D01*
X3566346Y51130010D02*
X3613965Y51034772D01*
X3613965Y51034772D02*
X3613965Y50844296D01*
X3613965Y50844296D02*
X3566346Y50749058D01*
X3613965Y51796677D02*
X3566346Y51701439D01*
X3566346Y51701439D02*
X3471107Y51653820D01*
X3471107Y51653820D02*
X2613965Y51653820D01*
X3566346Y52558582D02*
X3613965Y52463344D01*
X3613965Y52463344D02*
X3613965Y52272868D01*
X3613965Y52272868D02*
X3566346Y52177630D01*
X3566346Y52177630D02*
X3471107Y52130011D01*
X3471107Y52130011D02*
X3090155Y52130011D01*
X3090155Y52130011D02*
X2994917Y52177630D01*
X2994917Y52177630D02*
X2947298Y52272868D01*
X2947298Y52272868D02*
X2947298Y52463344D01*
X2947298Y52463344D02*
X2994917Y52558582D01*
X2994917Y52558582D02*
X3090155Y52606201D01*
X3090155Y52606201D02*
X3185393Y52606201D01*
X3185393Y52606201D02*
X3280631Y52130011D01*
X3566346Y52987154D02*
X3613965Y53082392D01*
X3613965Y53082392D02*
X3613965Y53272868D01*
X3613965Y53272868D02*
X3566346Y53368106D01*
X3566346Y53368106D02*
X3471107Y53415725D01*
X3471107Y53415725D02*
X3423488Y53415725D01*
X3423488Y53415725D02*
X3328250Y53368106D01*
X3328250Y53368106D02*
X3280631Y53272868D01*
X3280631Y53272868D02*
X3280631Y53130011D01*
X3280631Y53130011D02*
X3233012Y53034773D01*
X3233012Y53034773D02*
X3137774Y52987154D01*
X3137774Y52987154D02*
X3090155Y52987154D01*
X3090155Y52987154D02*
X2994917Y53034773D01*
X2994917Y53034773D02*
X2947298Y53130011D01*
X2947298Y53130011D02*
X2947298Y53272868D01*
X2947298Y53272868D02*
X2994917Y53368106D01*
X5223965Y39225247D02*
X4747774Y38891914D01*
X5223965Y38653819D02*
X4223965Y38653819D01*
X4223965Y38653819D02*
X4223965Y39034771D01*
X4223965Y39034771D02*
X4271584Y39130009D01*
X4271584Y39130009D02*
X4319203Y39177628D01*
X4319203Y39177628D02*
X4414441Y39225247D01*
X4414441Y39225247D02*
X4557298Y39225247D01*
X4557298Y39225247D02*
X4652536Y39177628D01*
X4652536Y39177628D02*
X4700155Y39130009D01*
X4700155Y39130009D02*
X4747774Y39034771D01*
X4747774Y39034771D02*
X4747774Y38653819D01*
X5176346Y40034771D02*
X5223965Y39939533D01*
X5223965Y39939533D02*
X5223965Y39749057D01*
X5223965Y39749057D02*
X5176346Y39653819D01*
X5176346Y39653819D02*
X5081107Y39606200D01*
X5081107Y39606200D02*
X4700155Y39606200D01*
X4700155Y39606200D02*
X4604917Y39653819D01*
X4604917Y39653819D02*
X4557298Y39749057D01*
X4557298Y39749057D02*
X4557298Y39939533D01*
X4557298Y39939533D02*
X4604917Y40034771D01*
X4604917Y40034771D02*
X4700155Y40082390D01*
X4700155Y40082390D02*
X4795393Y40082390D01*
X4795393Y40082390D02*
X4890631Y39606200D01*
X4557298Y40415724D02*
X5223965Y40653819D01*
X5223965Y40653819D02*
X4557298Y40891914D01*
X5128726Y41272867D02*
X5176346Y41320486D01*
X5176346Y41320486D02*
X5223965Y41272867D01*
X5223965Y41272867D02*
X5176346Y41225248D01*
X5176346Y41225248D02*
X5128726Y41272867D01*
X5128726Y41272867D02*
X5223965Y41272867D01*
X4700155Y42844295D02*
X4747774Y42987152D01*
X4747774Y42987152D02*
X4795393Y43034771D01*
X4795393Y43034771D02*
X4890631Y43082390D01*
X4890631Y43082390D02*
X5033488Y43082390D01*
X5033488Y43082390D02*
X5128726Y43034771D01*
X5128726Y43034771D02*
X5176346Y42987152D01*
X5176346Y42987152D02*
X5223965Y42891914D01*
X5223965Y42891914D02*
X5223965Y42510962D01*
X5223965Y42510962D02*
X4223965Y42510962D01*
X4223965Y42510962D02*
X4223965Y42844295D01*
X4223965Y42844295D02*
X4271584Y42939533D01*
X4271584Y42939533D02*
X4319203Y42987152D01*
X4319203Y42987152D02*
X4414441Y43034771D01*
X4414441Y43034771D02*
X4509679Y43034771D01*
X4509679Y43034771D02*
X4604917Y42987152D01*
X4604917Y42987152D02*
X4652536Y42939533D01*
X4652536Y42939533D02*
X4700155Y42844295D01*
X4700155Y42844295D02*
X4700155Y42510962D01*
D11*
%TO.C,R7*%
X16400000Y41720000D03*
X16400000Y40700000D03*
%TD*%
D12*
%TO.C,C1*%
X3155000Y15400000D03*
X4705000Y15400000D03*
%TD*%
D13*
%TO.C,D1*%
X12800000Y42000000D03*
X14200000Y42000000D03*
%TD*%
D14*
%TO.C,C2*%
X1100000Y20825000D03*
X1100000Y22375000D03*
%TD*%
D15*
%TO.C,R4*%
X23722000Y33542200D03*
X23722000Y34562200D03*
%TD*%
%TO.C,R10*%
X15300000Y32590000D03*
X15300000Y33610000D03*
%TD*%
D16*
%TO.C,U2*%
X11200000Y54500000D03*
X11200000Y53700000D03*
X11200000Y52900000D03*
X11200000Y52100000D03*
X11200000Y51300000D03*
X11200000Y50500000D03*
X11200000Y49700000D03*
X11200000Y48900000D03*
X11200000Y48100000D03*
X11200000Y47300000D03*
X11200000Y46500000D03*
D17*
X12300000Y45600000D03*
X13100000Y45600000D03*
X13900000Y45600000D03*
X14700000Y45600000D03*
X15500000Y45600000D03*
X16300000Y45600000D03*
X17100000Y45600000D03*
X17900000Y45600000D03*
X18700000Y45600000D03*
X19500000Y45600000D03*
X20300000Y45600000D03*
X21100000Y45600000D03*
X21900000Y45600000D03*
D16*
X23000000Y46500000D03*
X23000000Y47300000D03*
X23000000Y48100000D03*
X23000000Y48900000D03*
X23000000Y49700000D03*
X23000000Y50500000D03*
X23000000Y51300000D03*
X23000000Y52100000D03*
X23000000Y52900000D03*
X23000000Y53700000D03*
X23000000Y54500000D03*
D17*
X21900000Y55400000D03*
X21100000Y55400000D03*
X20300000Y55400000D03*
X19500000Y55400000D03*
X18700000Y55400000D03*
X17900000Y55400000D03*
X17100000Y55400000D03*
X16300000Y55400000D03*
X15500000Y55400000D03*
X14700000Y55400000D03*
X13900000Y55400000D03*
X13100000Y55400000D03*
X12300000Y55400000D03*
D18*
X15125000Y52475000D03*
X15125000Y50500000D03*
X15125000Y48525000D03*
X17100000Y52475000D03*
X17100000Y50500000D03*
X17100000Y48525000D03*
X19075000Y52475000D03*
X19075000Y50500000D03*
X19075000Y48525000D03*
D19*
X23050000Y55450000D03*
X23050000Y45550000D03*
X11150000Y45550000D03*
X11150000Y55450000D03*
%TD*%
D11*
%TO.C,R14*%
X15300000Y24610000D03*
X15300000Y23590000D03*
%TD*%
D20*
%TO.C,C7*%
X15300000Y31680000D03*
X15300000Y30720000D03*
%TD*%
D21*
%TO.C,D4*%
X11500000Y42000000D03*
X10100000Y42000000D03*
%TD*%
D20*
%TO.C,C6*%
X15300000Y41660000D03*
X15300000Y40700000D03*
%TD*%
D15*
%TO.C,R6*%
X15300000Y42590000D03*
X15300000Y43610000D03*
%TD*%
%TO.C,R15*%
X16300000Y25490000D03*
X16300000Y26510000D03*
%TD*%
D22*
%TO.C,R8*%
X12810000Y39100000D03*
X11790000Y39100000D03*
%TD*%
D23*
%TO.C,L1*%
X3142500Y17000000D03*
X4717500Y17000000D03*
%TD*%
D24*
%TO.C,C8*%
X15300000Y25520000D03*
X15300000Y26480000D03*
%TD*%
D13*
%TO.C,D2*%
X12800000Y32500000D03*
X14200000Y32500000D03*
%TD*%
D15*
%TO.C,R9*%
X9800000Y50490000D03*
X9800000Y51510000D03*
%TD*%
D25*
%TO.C,USB-C1*%
X27070000Y34590000D03*
X27070000Y28810000D03*
D26*
X26570000Y36627600D03*
D27*
X26570000Y36020000D03*
X26570000Y27380000D03*
D26*
X26570000Y26772400D03*
D28*
X30750000Y36627600D03*
D29*
X30750000Y36020000D03*
X30750000Y27380000D03*
D28*
X30750000Y26772400D03*
D30*
X25668000Y28375000D03*
X25668000Y29175000D03*
D31*
X25668000Y30450000D03*
X25668000Y31450000D03*
X25668000Y31950000D03*
X25668000Y32950000D03*
D30*
X25668000Y34225000D03*
X25668000Y35025000D03*
X25668000Y34775000D03*
X25668000Y33975000D03*
D31*
X25668000Y33450000D03*
X25668000Y32450000D03*
X25668000Y30950000D03*
X25668000Y29950000D03*
D30*
X25668000Y29425000D03*
X25668000Y28625000D03*
%TD*%
D13*
%TO.C,D3*%
X12800000Y25500000D03*
X14200000Y25500000D03*
%TD*%
D11*
%TO.C,R5*%
X24103000Y29837800D03*
X24103000Y28817800D03*
%TD*%
%TO.C,R11*%
X16400000Y31710000D03*
X16400000Y30690000D03*
%TD*%
D32*
%TO.C,U1*%
X5075000Y18600000D03*
X5075000Y19550000D03*
X5075000Y20500000D03*
X2800000Y20500000D03*
X2800000Y19550000D03*
X2800000Y18600000D03*
%TD*%
D33*
%TO.C,BT1*%
X4200000Y10200000D03*
X30000000Y10200000D03*
D34*
X17100000Y10200000D03*
%TD*%
M02*
