%TF.GenerationSoftware,KiCad,Pcbnew,7.0.5*%
%TF.CreationDate,2023-06-25T17:37:25+01:00*%
%TF.ProjectId,Rapid Remote,52617069-6420-4526-956d-6f74652e6b69,rev?*%
%TF.SameCoordinates,PX815a420PY6eb35b0*%
%TF.FileFunction,Copper,L2,Bot*%
%TF.FilePolarity,Positive*%
%FSLAX46Y46*%
G04 Gerber Fmt 4.6, Leading zero omitted, Abs format (unit mm)*
G04 Created by KiCad (PCBNEW 7.0.5) date 2023-06-25 17:37:25*
%MOMM*%
%LPD*%
G01*
G04 APERTURE LIST*
%TA.AperFunction,ComponentPad*%
%ADD10R,1.778000X1.778000*%
%TD*%
%TA.AperFunction,ComponentPad*%
%ADD11C,1.778000*%
%TD*%
G04 APERTURE END LIST*
D10*
%TO.P,U1,1,5V*%
%TO.N,+5V*%
X26670000Y29210000D03*
D11*
%TO.P,U1,2,GND*%
%TO.N,GND*%
X26670000Y26670000D03*
%TO.P,U1,3,GPIO0*%
%TO.N,unconnected-(U1-GPIO0-Pad3)*%
X26670000Y24130000D03*
%TO.P,U1,4,GPIO1*%
%TO.N,unconnected-(U1-GPIO1-Pad4)*%
X26670000Y21590000D03*
%TO.P,U1,5,GPIO2*%
%TO.N,unconnected-(U1-GPIO2-Pad5)*%
X26670000Y19050000D03*
%TO.P,U1,6,GPIO3*%
%TO.N,unconnected-(U1-GPIO3-Pad6)*%
X26670000Y16510000D03*
%TO.P,U1,7,GPIO4*%
%TO.N,Net-(U1-GPIO4)*%
X26670000Y13970000D03*
%TO.P,U1,8,GPIO5*%
%TO.N,Net-(U1-GPIO5)*%
X26670000Y11430000D03*
%TO.P,U1,9,GPIO6*%
%TO.N,Net-(U1-GPIO6)*%
X26670000Y8890000D03*
%TO.P,U1,10,GPIO7*%
%TO.N,unconnected-(U1-GPIO7-Pad10)*%
X1270000Y8890000D03*
%TO.P,U1,11,GPIO8*%
%TO.N,unconnected-(U1-GPIO8-Pad11)*%
X1270000Y11430000D03*
%TO.P,U1,12,GPIO9*%
%TO.N,unconnected-(U1-GPIO9-Pad12)*%
X1270000Y13970000D03*
%TO.P,U1,13,GPIO10*%
%TO.N,unconnected-(U1-GPIO10-Pad13)*%
X1270000Y16510000D03*
%TO.P,U1,14,GPIO20/U0TXD*%
%TO.N,unconnected-(U1-GPIO20{slash}U0TXD-Pad14)*%
X1270000Y19050000D03*
%TO.P,U1,15,GPIO21/U0TXD*%
%TO.N,unconnected-(U1-GPIO21{slash}U0TXD-Pad15)*%
X1270000Y21590000D03*
%TO.P,U1,16,ESP_EN*%
%TO.N,unconnected-(U1-ESP_EN-Pad16)*%
X1270000Y24130000D03*
%TO.P,U1,17,GND*%
%TO.N,GND*%
X1270000Y26670000D03*
%TO.P,U1,18,3V3*%
%TO.N,+3V3*%
X1270000Y29210000D03*
%TD*%
%TA.AperFunction,Conductor*%
%TO.N,GND*%
G36*
X27582539Y37779815D02*
G01*
X27628294Y37727011D01*
X27639500Y37675500D01*
X27639500Y30723500D01*
X27619815Y30656461D01*
X27567011Y30610706D01*
X27515500Y30599500D01*
X25733129Y30599500D01*
X25733123Y30599499D01*
X25673516Y30593092D01*
X25538671Y30542798D01*
X25538664Y30542794D01*
X25423455Y30456548D01*
X25423452Y30456545D01*
X25337206Y30341336D01*
X25337202Y30341329D01*
X25286908Y30206483D01*
X25280501Y30146884D01*
X25280500Y30146865D01*
X25280500Y28273130D01*
X25280501Y28273124D01*
X25286908Y28213517D01*
X25337202Y28078672D01*
X25337206Y28078665D01*
X25423452Y27963456D01*
X25423455Y27963453D01*
X25538664Y27877207D01*
X25538671Y27877203D01*
X25673517Y27826909D01*
X25673516Y27826909D01*
X25680444Y27826165D01*
X25733127Y27820500D01*
X27515500Y27820501D01*
X27582539Y27800816D01*
X27628294Y27748013D01*
X27639500Y27696501D01*
X27639500Y25389831D01*
X27619815Y25322792D01*
X27567011Y25277037D01*
X27497853Y25267093D01*
X27439343Y25291974D01*
X27432599Y25297223D01*
X27432591Y25297228D01*
X27230069Y25406828D01*
X27230061Y25406831D01*
X27012274Y25481598D01*
X26841920Y25510025D01*
X26785137Y25519500D01*
X26554863Y25519500D01*
X26509436Y25511920D01*
X26327725Y25481598D01*
X26109938Y25406831D01*
X26109930Y25406828D01*
X25907408Y25297228D01*
X25725694Y25155794D01*
X25725689Y25155789D01*
X25569728Y24986371D01*
X25443782Y24793595D01*
X25351282Y24582715D01*
X25294753Y24359485D01*
X25275738Y24130006D01*
X25275738Y24129995D01*
X25294753Y23900516D01*
X25351282Y23677286D01*
X25443782Y23466406D01*
X25569728Y23273630D01*
X25569731Y23273627D01*
X25725692Y23104208D01*
X25842591Y23013222D01*
X25911459Y22959620D01*
X25910476Y22958359D01*
X25951183Y22910651D01*
X25960600Y22841419D01*
X25931092Y22778086D01*
X25911136Y22760795D01*
X25911459Y22760380D01*
X25725694Y22615794D01*
X25725689Y22615789D01*
X25569728Y22446371D01*
X25443782Y22253595D01*
X25351282Y22042715D01*
X25294753Y21819485D01*
X25275738Y21590006D01*
X25275738Y21589995D01*
X25294753Y21360516D01*
X25351282Y21137286D01*
X25443782Y20926406D01*
X25569728Y20733630D01*
X25569731Y20733627D01*
X25725692Y20564208D01*
X25842591Y20473222D01*
X25911459Y20419620D01*
X25910476Y20418359D01*
X25951183Y20370651D01*
X25960600Y20301419D01*
X25931092Y20238086D01*
X25911136Y20220795D01*
X25911459Y20220380D01*
X25725694Y20075794D01*
X25725689Y20075789D01*
X25569728Y19906371D01*
X25443782Y19713595D01*
X25351282Y19502715D01*
X25294753Y19279485D01*
X25275738Y19050006D01*
X25275738Y19049995D01*
X25294753Y18820516D01*
X25351282Y18597286D01*
X25443782Y18386406D01*
X25569728Y18193630D01*
X25569731Y18193627D01*
X25725692Y18024208D01*
X25842591Y17933222D01*
X25911459Y17879620D01*
X25910476Y17878359D01*
X25951183Y17830651D01*
X25960600Y17761419D01*
X25931092Y17698086D01*
X25911136Y17680795D01*
X25911459Y17680380D01*
X25725694Y17535794D01*
X25725689Y17535789D01*
X25569728Y17366371D01*
X25443782Y17173595D01*
X25351282Y16962715D01*
X25294753Y16739485D01*
X25275738Y16510006D01*
X25275738Y16509995D01*
X25294753Y16280516D01*
X25351282Y16057286D01*
X25443782Y15846406D01*
X25569728Y15653630D01*
X25569731Y15653627D01*
X25725692Y15484208D01*
X25842591Y15393222D01*
X25911459Y15339620D01*
X25910476Y15338359D01*
X25951183Y15290651D01*
X25960600Y15221419D01*
X25931092Y15158086D01*
X25911136Y15140795D01*
X25911459Y15140380D01*
X25725694Y14995794D01*
X25725689Y14995789D01*
X25569728Y14826371D01*
X25443782Y14633595D01*
X25351282Y14422715D01*
X25294753Y14199485D01*
X25275738Y13970006D01*
X25275738Y13969995D01*
X25294753Y13740516D01*
X25351282Y13517286D01*
X25443782Y13306406D01*
X25569728Y13113630D01*
X25569731Y13113627D01*
X25725692Y12944208D01*
X25842591Y12853222D01*
X25911459Y12799620D01*
X25910476Y12798359D01*
X25951183Y12750651D01*
X25960600Y12681419D01*
X25931092Y12618086D01*
X25911136Y12600795D01*
X25911459Y12600380D01*
X25725694Y12455794D01*
X25725689Y12455789D01*
X25569728Y12286371D01*
X25443782Y12093595D01*
X25351282Y11882715D01*
X25294753Y11659485D01*
X25275738Y11430006D01*
X25275738Y11429995D01*
X25294753Y11200516D01*
X25351282Y10977286D01*
X25443782Y10766406D01*
X25569728Y10573630D01*
X25569731Y10573627D01*
X25725692Y10404208D01*
X25842591Y10313222D01*
X25911459Y10259620D01*
X25910476Y10258359D01*
X25951183Y10210651D01*
X25960600Y10141419D01*
X25931092Y10078086D01*
X25911136Y10060795D01*
X25911459Y10060380D01*
X25725694Y9915794D01*
X25725689Y9915789D01*
X25569728Y9746371D01*
X25443782Y9553595D01*
X25351282Y9342715D01*
X25294753Y9119485D01*
X25275738Y8890006D01*
X25275738Y8889995D01*
X25294753Y8660516D01*
X25351282Y8437286D01*
X25443782Y8226406D01*
X25569728Y8033630D01*
X25569731Y8033627D01*
X25725692Y7864208D01*
X25839139Y7775909D01*
X25885146Y7740100D01*
X25907411Y7722771D01*
X26109931Y7613172D01*
X26223025Y7574347D01*
X26327725Y7538403D01*
X26327727Y7538403D01*
X26327729Y7538402D01*
X26554863Y7500500D01*
X26554864Y7500500D01*
X26785136Y7500500D01*
X26785137Y7500500D01*
X27012271Y7538402D01*
X27230069Y7613172D01*
X27432589Y7722771D01*
X27439336Y7728023D01*
X27504331Y7753666D01*
X27572871Y7740100D01*
X27623196Y7691632D01*
X27639500Y7630170D01*
X27639500Y424500D01*
X27619815Y357461D01*
X27567011Y311706D01*
X27515500Y300500D01*
X424500Y300500D01*
X357461Y320185D01*
X311706Y372989D01*
X300500Y424500D01*
X300500Y7630170D01*
X320185Y7697209D01*
X372989Y7742964D01*
X442147Y7752908D01*
X500663Y7728023D01*
X507411Y7722771D01*
X709931Y7613172D01*
X823025Y7574347D01*
X927725Y7538403D01*
X927727Y7538403D01*
X927729Y7538402D01*
X1154863Y7500500D01*
X1154864Y7500500D01*
X1385136Y7500500D01*
X1385137Y7500500D01*
X1612271Y7538402D01*
X1830069Y7613172D01*
X2032589Y7722771D01*
X2214308Y7864208D01*
X2370269Y8033627D01*
X2496217Y8226405D01*
X2588717Y8437284D01*
X2645246Y8660512D01*
X2664262Y8890000D01*
X2645246Y9119488D01*
X2588717Y9342716D01*
X2496217Y9553595D01*
X2496216Y9553595D01*
X2370271Y9746371D01*
X2239499Y9888427D01*
X2214308Y9915792D01*
X2032589Y10057229D01*
X2032590Y10057229D01*
X2028541Y10060380D01*
X2029525Y10061646D01*
X1988824Y10109330D01*
X1979396Y10178561D01*
X2008893Y10241898D01*
X2028865Y10259204D01*
X2028541Y10259620D01*
X2065174Y10288134D01*
X2214308Y10404208D01*
X2370269Y10573627D01*
X2496217Y10766405D01*
X2588717Y10977284D01*
X2645246Y11200512D01*
X2664262Y11430000D01*
X2645246Y11659488D01*
X2588717Y11882716D01*
X2496217Y12093595D01*
X2496216Y12093596D01*
X2370271Y12286371D01*
X2239499Y12428427D01*
X2214308Y12455792D01*
X2032589Y12597229D01*
X2032590Y12597229D01*
X2028541Y12600380D01*
X2029525Y12601646D01*
X1988824Y12649330D01*
X1979396Y12718561D01*
X2008893Y12781898D01*
X2028865Y12799204D01*
X2028541Y12799620D01*
X2065174Y12828134D01*
X2214308Y12944208D01*
X2370269Y13113627D01*
X2496217Y13306405D01*
X2588717Y13517284D01*
X2645246Y13740512D01*
X2664262Y13970000D01*
X2645246Y14199488D01*
X2588717Y14422716D01*
X2496217Y14633595D01*
X2496216Y14633595D01*
X2370271Y14826371D01*
X2239499Y14968427D01*
X2214308Y14995792D01*
X2032589Y15137229D01*
X2032590Y15137229D01*
X2028541Y15140380D01*
X2029525Y15141646D01*
X1988824Y15189330D01*
X1979396Y15258561D01*
X2008893Y15321898D01*
X2028865Y15339204D01*
X2028541Y15339620D01*
X2065174Y15368134D01*
X2214308Y15484208D01*
X2370269Y15653627D01*
X2496217Y15846405D01*
X2588717Y16057284D01*
X2645246Y16280512D01*
X2664262Y16510000D01*
X2645246Y16739488D01*
X2588717Y16962716D01*
X2496217Y17173595D01*
X2496216Y17173595D01*
X2370271Y17366371D01*
X2239499Y17508427D01*
X2214308Y17535792D01*
X2032589Y17677229D01*
X2032590Y17677229D01*
X2028541Y17680380D01*
X2029525Y17681646D01*
X1988824Y17729330D01*
X1979396Y17798561D01*
X2008893Y17861898D01*
X2028865Y17879204D01*
X2028541Y17879620D01*
X2065174Y17908134D01*
X2214308Y18024208D01*
X2370269Y18193627D01*
X2496217Y18386405D01*
X2588717Y18597284D01*
X2645246Y18820512D01*
X2664262Y19050000D01*
X2645246Y19279488D01*
X2588717Y19502716D01*
X2496217Y19713595D01*
X2496216Y19713595D01*
X2370271Y19906371D01*
X2239499Y20048427D01*
X2214308Y20075792D01*
X2032589Y20217229D01*
X2032590Y20217229D01*
X2028541Y20220380D01*
X2029525Y20221646D01*
X1988824Y20269330D01*
X1979396Y20338561D01*
X2008893Y20401898D01*
X2028865Y20419204D01*
X2028541Y20419620D01*
X2065174Y20448134D01*
X2214308Y20564208D01*
X2370269Y20733627D01*
X2496217Y20926405D01*
X2588717Y21137284D01*
X2645246Y21360512D01*
X2664262Y21590000D01*
X2645246Y21819488D01*
X2588717Y22042716D01*
X2496217Y22253595D01*
X2496216Y22253596D01*
X2370271Y22446371D01*
X2239499Y22588427D01*
X2214308Y22615792D01*
X2032589Y22757229D01*
X2032590Y22757229D01*
X2028541Y22760380D01*
X2029525Y22761646D01*
X1988824Y22809330D01*
X1979396Y22878561D01*
X2008893Y22941898D01*
X2028865Y22959204D01*
X2028541Y22959620D01*
X2065174Y22988134D01*
X2214308Y23104208D01*
X2370269Y23273627D01*
X2496217Y23466405D01*
X2588717Y23677284D01*
X2645246Y23900512D01*
X2664262Y24130000D01*
X2645246Y24359488D01*
X2588717Y24582716D01*
X2496217Y24793595D01*
X2496216Y24793595D01*
X2370271Y24986371D01*
X2239499Y25128427D01*
X2214308Y25155792D01*
X2146036Y25208930D01*
X2032591Y25297228D01*
X1830069Y25406828D01*
X1830061Y25406831D01*
X1612274Y25481598D01*
X1441920Y25510025D01*
X1385137Y25519500D01*
X1154863Y25519500D01*
X1109436Y25511920D01*
X927725Y25481598D01*
X709938Y25406831D01*
X709930Y25406828D01*
X507408Y25297228D01*
X507400Y25297223D01*
X500657Y25291974D01*
X435662Y25266334D01*
X367123Y25279904D01*
X316800Y25328375D01*
X300500Y25389831D01*
X300500Y27950170D01*
X320185Y28017209D01*
X372989Y28062964D01*
X442147Y28072908D01*
X500663Y28048023D01*
X507411Y28042771D01*
X709931Y27933172D01*
X823025Y27894347D01*
X927725Y27858403D01*
X927727Y27858403D01*
X927729Y27858402D01*
X1154863Y27820500D01*
X1154864Y27820500D01*
X1385136Y27820500D01*
X1385137Y27820500D01*
X1612271Y27858402D01*
X1830069Y27933172D01*
X2032589Y28042771D01*
X2214308Y28184208D01*
X2370269Y28353627D01*
X2496217Y28546405D01*
X2588717Y28757284D01*
X2645246Y28980512D01*
X2664262Y29210000D01*
X2645246Y29439488D01*
X2588717Y29662716D01*
X2496217Y29873595D01*
X2496216Y29873595D01*
X2370271Y30066371D01*
X2296171Y30146865D01*
X2214308Y30235792D01*
X2078705Y30341336D01*
X2032591Y30377228D01*
X1830069Y30486828D01*
X1830061Y30486831D01*
X1612274Y30561598D01*
X1406153Y30595993D01*
X1385137Y30599500D01*
X1154863Y30599500D01*
X1133847Y30595993D01*
X927725Y30561598D01*
X709938Y30486831D01*
X709930Y30486828D01*
X507408Y30377228D01*
X507400Y30377223D01*
X500657Y30371974D01*
X435662Y30346334D01*
X367123Y30359904D01*
X316800Y30408375D01*
X300500Y30469831D01*
X300500Y37675500D01*
X320185Y37742539D01*
X372989Y37788294D01*
X424500Y37799500D01*
X27515500Y37799500D01*
X27582539Y37779815D01*
G37*
%TD.AperFunction*%
%TD*%
M02*
