%TF.GenerationSoftware,KiCad,Pcbnew,7.0.6*%
%TF.CreationDate,2023-07-26T13:56:52+01:00*%
%TF.ProjectId,Rapid Remote,52617069-6420-4526-956d-6f74652e6b69,rev?*%
%TF.SameCoordinates,PX8044ea0PY76ec560*%
%TF.FileFunction,Legend,Bot*%
%TF.FilePolarity,Positive*%
%FSLAX46Y46*%
G04 Gerber Fmt 4.6, Leading zero omitted, Abs format (unit mm)*
G04 Created by KiCad (PCBNEW 7.0.6) date 2023-07-26 13:56:52*
%MOMM*%
%LPD*%
G01*
G04 APERTURE LIST*
%ADD10C,0.200000*%
%ADD11C,0.050000*%
G04 APERTURE END LIST*
D10*
X18510952Y35286400D02*
X18320476Y35191162D01*
X18320476Y35191162D02*
X17939524Y35191162D01*
X17939524Y35191162D02*
X17749047Y35286400D01*
X17749047Y35286400D02*
X17653809Y35476877D01*
X17653809Y35476877D02*
X17653809Y35572115D01*
X17653809Y35572115D02*
X17749047Y35762591D01*
X17749047Y35762591D02*
X17939524Y35857829D01*
X17939524Y35857829D02*
X18225238Y35857829D01*
X18225238Y35857829D02*
X18415714Y35953067D01*
X18415714Y35953067D02*
X18510952Y36143543D01*
X18510952Y36143543D02*
X18510952Y36238781D01*
X18510952Y36238781D02*
X18415714Y36429258D01*
X18415714Y36429258D02*
X18225238Y36524496D01*
X18225238Y36524496D02*
X17939524Y36524496D01*
X17939524Y36524496D02*
X17749047Y36429258D01*
X15939523Y37191162D02*
X16320476Y37191162D01*
X16320476Y37191162D02*
X16510952Y37095924D01*
X16510952Y37095924D02*
X16606190Y37000686D01*
X16606190Y37000686D02*
X16796666Y36714972D01*
X16796666Y36714972D02*
X16891904Y36334020D01*
X16891904Y36334020D02*
X16891904Y35572115D01*
X16891904Y35572115D02*
X16796666Y35381639D01*
X16796666Y35381639D02*
X16701428Y35286400D01*
X16701428Y35286400D02*
X16510952Y35191162D01*
X16510952Y35191162D02*
X16129999Y35191162D01*
X16129999Y35191162D02*
X15939523Y35286400D01*
X15939523Y35286400D02*
X15844285Y35381639D01*
X15844285Y35381639D02*
X15749047Y35572115D01*
X15749047Y35572115D02*
X15749047Y36048305D01*
X15749047Y36048305D02*
X15844285Y36238781D01*
X15844285Y36238781D02*
X15939523Y36334020D01*
X15939523Y36334020D02*
X16129999Y36429258D01*
X16129999Y36429258D02*
X16510952Y36429258D01*
X16510952Y36429258D02*
X16701428Y36334020D01*
X16701428Y36334020D02*
X16796666Y36238781D01*
X16796666Y36238781D02*
X16891904Y36048305D01*
X18510952Y45430400D02*
X18320476Y45335162D01*
X18320476Y45335162D02*
X17939524Y45335162D01*
X17939524Y45335162D02*
X17749047Y45430400D01*
X17749047Y45430400D02*
X17653809Y45620877D01*
X17653809Y45620877D02*
X17653809Y45716115D01*
X17653809Y45716115D02*
X17749047Y45906591D01*
X17749047Y45906591D02*
X17939524Y46001829D01*
X17939524Y46001829D02*
X18225238Y46001829D01*
X18225238Y46001829D02*
X18415714Y46097067D01*
X18415714Y46097067D02*
X18510952Y46287543D01*
X18510952Y46287543D02*
X18510952Y46382781D01*
X18510952Y46382781D02*
X18415714Y46573258D01*
X18415714Y46573258D02*
X18225238Y46668496D01*
X18225238Y46668496D02*
X17939524Y46668496D01*
X17939524Y46668496D02*
X17749047Y46573258D01*
X16510952Y46478020D02*
X16701428Y46573258D01*
X16701428Y46573258D02*
X16796666Y46668496D01*
X16796666Y46668496D02*
X16891904Y46858972D01*
X16891904Y46858972D02*
X16891904Y46954210D01*
X16891904Y46954210D02*
X16796666Y47144686D01*
X16796666Y47144686D02*
X16701428Y47239924D01*
X16701428Y47239924D02*
X16510952Y47335162D01*
X16510952Y47335162D02*
X16129999Y47335162D01*
X16129999Y47335162D02*
X15939523Y47239924D01*
X15939523Y47239924D02*
X15844285Y47144686D01*
X15844285Y47144686D02*
X15749047Y46954210D01*
X15749047Y46954210D02*
X15749047Y46858972D01*
X15749047Y46858972D02*
X15844285Y46668496D01*
X15844285Y46668496D02*
X15939523Y46573258D01*
X15939523Y46573258D02*
X16129999Y46478020D01*
X16129999Y46478020D02*
X16510952Y46478020D01*
X16510952Y46478020D02*
X16701428Y46382781D01*
X16701428Y46382781D02*
X16796666Y46287543D01*
X16796666Y46287543D02*
X16891904Y46097067D01*
X16891904Y46097067D02*
X16891904Y45716115D01*
X16891904Y45716115D02*
X16796666Y45525639D01*
X16796666Y45525639D02*
X16701428Y45430400D01*
X16701428Y45430400D02*
X16510952Y45335162D01*
X16510952Y45335162D02*
X16129999Y45335162D01*
X16129999Y45335162D02*
X15939523Y45430400D01*
X15939523Y45430400D02*
X15844285Y45525639D01*
X15844285Y45525639D02*
X15749047Y45716115D01*
X15749047Y45716115D02*
X15749047Y46097067D01*
X15749047Y46097067D02*
X15844285Y46287543D01*
X15844285Y46287543D02*
X15939523Y46382781D01*
X15939523Y46382781D02*
X16129999Y46478020D01*
X18510952Y25380400D02*
X18320476Y25285162D01*
X18320476Y25285162D02*
X17939524Y25285162D01*
X17939524Y25285162D02*
X17749047Y25380400D01*
X17749047Y25380400D02*
X17653809Y25570877D01*
X17653809Y25570877D02*
X17653809Y25666115D01*
X17653809Y25666115D02*
X17749047Y25856591D01*
X17749047Y25856591D02*
X17939524Y25951829D01*
X17939524Y25951829D02*
X18225238Y25951829D01*
X18225238Y25951829D02*
X18415714Y26047067D01*
X18415714Y26047067D02*
X18510952Y26237543D01*
X18510952Y26237543D02*
X18510952Y26332781D01*
X18510952Y26332781D02*
X18415714Y26523258D01*
X18415714Y26523258D02*
X18225238Y26618496D01*
X18225238Y26618496D02*
X17939524Y26618496D01*
X17939524Y26618496D02*
X17749047Y26523258D01*
X15939523Y26618496D02*
X15939523Y25285162D01*
X16415714Y27380400D02*
X16891904Y25951829D01*
X16891904Y25951829D02*
X15653809Y25951829D01*
D11*
%TO.C,s6*%
X18830000Y30970000D02*
X18830000Y34030000D01*
X18830000Y34030000D02*
X18630000Y34230000D01*
X18630000Y30770000D02*
X18830000Y30970000D01*
X18630000Y34230000D02*
X15570000Y34230000D01*
X15570000Y30770000D02*
X18630000Y30770000D01*
X15570000Y34230000D02*
X15370000Y34030000D01*
X15370000Y30970000D02*
X15570000Y30770000D01*
X15370000Y34030000D02*
X15370000Y30970000D01*
X18147268Y32500000D02*
G75*
G03*
X18147268Y32500000I-1047268J0D01*
G01*
%TO.C,s8*%
X18830000Y40970000D02*
X18830000Y44030000D01*
X18830000Y44030000D02*
X18630000Y44230000D01*
X18630000Y40770000D02*
X18830000Y40970000D01*
X18630000Y44230000D02*
X15570000Y44230000D01*
X15570000Y40770000D02*
X18630000Y40770000D01*
X15570000Y44230000D02*
X15370000Y44030000D01*
X15370000Y40970000D02*
X15570000Y40770000D01*
X15370000Y44030000D02*
X15370000Y40970000D01*
X18147268Y42500000D02*
G75*
G03*
X18147268Y42500000I-1047268J0D01*
G01*
%TO.C,s4*%
X18830000Y20970000D02*
X18830000Y24030000D01*
X18830000Y24030000D02*
X18630000Y24230000D01*
X18630000Y20770000D02*
X18830000Y20970000D01*
X18630000Y24230000D02*
X15570000Y24230000D01*
X15570000Y20770000D02*
X18630000Y20770000D01*
X15570000Y24230000D02*
X15370000Y24030000D01*
X15370000Y20970000D02*
X15570000Y20770000D01*
X15370000Y24030000D02*
X15370000Y20970000D01*
X18147268Y22500000D02*
G75*
G03*
X18147268Y22500000I-1047268J0D01*
G01*
%TD*%
M02*
