%TF.GenerationSoftware,KiCad,Pcbnew,7.0.6*%
%TF.CreationDate,2023-07-26T13:56:52+01:00*%
%TF.ProjectId,Rapid Remote,52617069-6420-4526-956d-6f74652e6b69,rev?*%
%TF.SameCoordinates,PX8044ea0PY76ec560*%
%TF.FileFunction,Paste,Top*%
%TF.FilePolarity,Positive*%
%FSLAX46Y46*%
G04 Gerber Fmt 4.6, Leading zero omitted, Abs format (unit mm)*
G04 Created by KiCad (PCBNEW 7.0.6) date 2023-07-26 13:56:52*
%MOMM*%
%LPD*%
G01*
G04 APERTURE LIST*
G04 Aperture macros list*
%AMRoundRect*
0 Rectangle with rounded corners*
0 $1 Rounding radius*
0 $2 $3 $4 $5 $6 $7 $8 $9 X,Y pos of 4 corners*
0 Add a 4 corners polygon primitive as box body*
4,1,4,$2,$3,$4,$5,$6,$7,$8,$9,$2,$3,0*
0 Add four circle primitives for the rounded corners*
1,1,$1+$1,$2,$3*
1,1,$1+$1,$4,$5*
1,1,$1+$1,$6,$7*
1,1,$1+$1,$8,$9*
0 Add four rect primitives between the rounded corners*
20,1,$1+$1,$2,$3,$4,$5,0*
20,1,$1+$1,$4,$5,$6,$7,0*
20,1,$1+$1,$6,$7,$8,$9,0*
20,1,$1+$1,$8,$9,$2,$3,0*%
G04 Aperture macros list end*
%ADD10RoundRect,0.135000X-0.185000X0.135000X-0.185000X-0.135000X0.185000X-0.135000X0.185000X0.135000X0*%
%ADD11RoundRect,0.225000X-0.225000X-0.250000X0.225000X-0.250000X0.225000X0.250000X-0.225000X0.250000X0*%
%ADD12RoundRect,0.150000X0.150000X0.200000X-0.150000X0.200000X-0.150000X-0.200000X0.150000X-0.200000X0*%
%ADD13RoundRect,0.225000X0.250000X-0.225000X0.250000X0.225000X-0.250000X0.225000X-0.250000X-0.225000X0*%
%ADD14RoundRect,0.135000X0.185000X-0.135000X0.185000X0.135000X-0.185000X0.135000X-0.185000X-0.135000X0*%
%ADD15R,0.800000X0.400000*%
%ADD16R,0.400000X0.800000*%
%ADD17R,1.450000X1.450000*%
%ADD18R,0.700000X0.700000*%
%ADD19RoundRect,0.140000X-0.170000X0.140000X-0.170000X-0.140000X0.170000X-0.140000X0.170000X0.140000X0*%
%ADD20RoundRect,0.150000X-0.150000X-0.200000X0.150000X-0.200000X0.150000X0.200000X-0.150000X0.200000X0*%
%ADD21RoundRect,0.135000X0.135000X0.185000X-0.135000X0.185000X-0.135000X-0.185000X0.135000X-0.185000X0*%
%ADD22RoundRect,0.218750X-0.218750X-0.256250X0.218750X-0.256250X0.218750X0.256250X-0.218750X0.256250X0*%
%ADD23RoundRect,0.140000X0.170000X-0.140000X0.170000X0.140000X-0.170000X0.140000X-0.170000X-0.140000X0*%
%ADD24R,1.130000X0.280000*%
%ADD25R,1.130000X0.230000*%
%ADD26RoundRect,0.150000X0.512500X0.150000X-0.512500X0.150000X-0.512500X-0.150000X0.512500X-0.150000X0*%
%ADD27R,5.700000X6.100000*%
G04 APERTURE END LIST*
D10*
%TO.C,R7*%
X16400000Y41720000D03*
X16400000Y40700000D03*
%TD*%
D11*
%TO.C,C1*%
X3155000Y15400000D03*
X4705000Y15400000D03*
%TD*%
D12*
%TO.C,D1*%
X12800000Y42000000D03*
X14200000Y42000000D03*
%TD*%
D13*
%TO.C,C2*%
X1100000Y20825000D03*
X1100000Y22375000D03*
%TD*%
D14*
%TO.C,R4*%
X23722000Y33542200D03*
X23722000Y34562200D03*
%TD*%
%TO.C,R10*%
X15300000Y32590000D03*
X15300000Y33610000D03*
%TD*%
D15*
%TO.C,U2*%
X11200000Y54500000D03*
X11200000Y53700000D03*
X11200000Y52900000D03*
X11200000Y52100000D03*
X11200000Y51300000D03*
X11200000Y50500000D03*
X11200000Y49700000D03*
X11200000Y48900000D03*
X11200000Y48100000D03*
X11200000Y47300000D03*
X11200000Y46500000D03*
D16*
X12300000Y45600000D03*
X13100000Y45600000D03*
X13900000Y45600000D03*
X14700000Y45600000D03*
X15500000Y45600000D03*
X16300000Y45600000D03*
X17100000Y45600000D03*
X17900000Y45600000D03*
X18700000Y45600000D03*
X19500000Y45600000D03*
X20300000Y45600000D03*
X21100000Y45600000D03*
X21900000Y45600000D03*
D15*
X23000000Y46500000D03*
X23000000Y47300000D03*
X23000000Y48100000D03*
X23000000Y48900000D03*
X23000000Y49700000D03*
X23000000Y50500000D03*
X23000000Y51300000D03*
X23000000Y52100000D03*
X23000000Y52900000D03*
X23000000Y53700000D03*
X23000000Y54500000D03*
D16*
X21900000Y55400000D03*
X21100000Y55400000D03*
X20300000Y55400000D03*
X19500000Y55400000D03*
X18700000Y55400000D03*
X17900000Y55400000D03*
X17100000Y55400000D03*
X16300000Y55400000D03*
X15500000Y55400000D03*
X14700000Y55400000D03*
X13900000Y55400000D03*
X13100000Y55400000D03*
X12300000Y55400000D03*
D17*
X15125000Y52475000D03*
X15125000Y50500000D03*
X15125000Y48525000D03*
X17100000Y52475000D03*
X17100000Y50500000D03*
X17100000Y48525000D03*
X19075000Y52475000D03*
X19075000Y50500000D03*
X19075000Y48525000D03*
D18*
X23050000Y55450000D03*
X23050000Y45550000D03*
X11150000Y45550000D03*
X11150000Y55450000D03*
%TD*%
D10*
%TO.C,R14*%
X15300000Y24610000D03*
X15300000Y23590000D03*
%TD*%
D19*
%TO.C,C7*%
X15300000Y31680000D03*
X15300000Y30720000D03*
%TD*%
D20*
%TO.C,D4*%
X11500000Y42000000D03*
X10100000Y42000000D03*
%TD*%
D19*
%TO.C,C6*%
X15300000Y41660000D03*
X15300000Y40700000D03*
%TD*%
D14*
%TO.C,R6*%
X15300000Y42590000D03*
X15300000Y43610000D03*
%TD*%
%TO.C,R15*%
X16300000Y25490000D03*
X16300000Y26510000D03*
%TD*%
D21*
%TO.C,R8*%
X12810000Y39100000D03*
X11790000Y39100000D03*
%TD*%
D22*
%TO.C,L1*%
X3142500Y17000000D03*
X4717500Y17000000D03*
%TD*%
D23*
%TO.C,C8*%
X15300000Y25520000D03*
X15300000Y26480000D03*
%TD*%
D12*
%TO.C,D2*%
X12800000Y32500000D03*
X14200000Y32500000D03*
%TD*%
D14*
%TO.C,R9*%
X9800000Y50490000D03*
X9800000Y51510000D03*
%TD*%
D24*
%TO.C,USB-C1*%
X25668000Y28375000D03*
X25668000Y29175000D03*
D25*
X25668000Y30450000D03*
X25668000Y31450000D03*
X25668000Y31950000D03*
X25668000Y32950000D03*
D24*
X25668000Y34225000D03*
X25668000Y35025000D03*
X25668000Y34775000D03*
X25668000Y33975000D03*
D25*
X25668000Y33450000D03*
X25668000Y32450000D03*
X25668000Y30950000D03*
X25668000Y29950000D03*
D24*
X25668000Y29425000D03*
X25668000Y28625000D03*
%TD*%
D12*
%TO.C,D3*%
X12800000Y25500000D03*
X14200000Y25500000D03*
%TD*%
D10*
%TO.C,R5*%
X24103000Y29837800D03*
X24103000Y28817800D03*
%TD*%
%TO.C,R11*%
X16400000Y31710000D03*
X16400000Y30690000D03*
%TD*%
D26*
%TO.C,U1*%
X5075000Y18600000D03*
X5075000Y19550000D03*
X5075000Y20500000D03*
X2800000Y20500000D03*
X2800000Y19550000D03*
X2800000Y18600000D03*
%TD*%
D27*
%TO.C,BT1*%
X4200000Y10200000D03*
X30000000Y10200000D03*
%TD*%
M02*
