G04 #@! TF.GenerationSoftware,KiCad,Pcbnew,7.0.8*
G04 #@! TF.CreationDate,2023-10-06T21:53:43+01:00*
G04 #@! TF.ProjectId,stencil,7374656e-6369-46c2-9e6b-696361645f70,C*
G04 #@! TF.SameCoordinates,PX8044ea0PY76ec560*
G04 #@! TF.FileFunction,Paste,Bot*
G04 #@! TF.FilePolarity,Positive*
%FSLAX46Y46*%
G04 Gerber Fmt 4.6, Leading zero omitted, Abs format (unit mm)*
G04 Created by KiCad (PCBNEW 7.0.8) date 2023-10-06 21:53:43*
%MOMM*%
%LPD*%
G01*
G04 APERTURE LIST*
G04 Aperture macros list*
%AMRoundRect*
0 Rectangle with rounded corners*
0 $1 Rounding radius*
0 $2 $3 $4 $5 $6 $7 $8 $9 X,Y pos of 4 corners*
0 Add a 4 corners polygon primitive as box body*
4,1,4,$2,$3,$4,$5,$6,$7,$8,$9,$2,$3,0*
0 Add four circle primitives for the rounded corners*
1,1,$1+$1,$2,$3*
1,1,$1+$1,$4,$5*
1,1,$1+$1,$6,$7*
1,1,$1+$1,$8,$9*
0 Add four rect primitives between the rounded corners*
20,1,$1+$1,$2,$3,$4,$5,0*
20,1,$1+$1,$4,$5,$6,$7,0*
20,1,$1+$1,$6,$7,$8,$9,0*
20,1,$1+$1,$8,$9,$2,$3,0*%
G04 Aperture macros list end*
%ADD10C,0.500000*%
%ADD11C,1.050000*%
%ADD12C,1.000000*%
%ADD13RoundRect,0.112500X0.287500X0.112500X-0.287500X0.112500X-0.287500X-0.112500X0.287500X-0.112500X0*%
%ADD14RoundRect,0.127000X0.323000X0.173000X-0.323000X0.173000X-0.323000X-0.173000X0.323000X-0.173000X0*%
G04 APERTURE END LIST*
D10*
X48099819Y72799981D02*
G75*
G03*
X47599819Y72300000I-19J-499981D01*
G01*
X99819Y72800000D02*
X10099819Y72800000D01*
D11*
X56374819Y-7950000D02*
G75*
G03*
X56374819Y-7950000I-525000J0D01*
G01*
D10*
X-24900200Y49800000D02*
G75*
G03*
X-24400181Y49300000I500000J0D01*
G01*
X-400200Y-10700000D02*
G75*
G03*
X99819Y-11200000I500000J0D01*
G01*
D12*
X36974819Y69550000D02*
G75*
G03*
X36974819Y69550000I-500000J0D01*
G01*
X17599819Y69550000D02*
G75*
G03*
X17599819Y69550000I-500000J0D01*
G01*
D10*
X34599800Y72300000D02*
G75*
G03*
X34099819Y72800000I-500000J0D01*
G01*
X22099819Y-11200019D02*
G75*
G03*
X22599819Y-10700000I-19J500019D01*
G01*
X58599819Y25299981D02*
G75*
G03*
X59099819Y25800000I-19J500019D01*
G01*
X-22900200Y71800000D02*
G75*
G03*
X-23900181Y72800000I-1000000J0D01*
G01*
X36099819Y-11200000D02*
X46099819Y-11200000D01*
X-12400200Y-10700000D02*
G75*
G03*
X-11900181Y-11200000I500000J0D01*
G01*
X34099819Y-11200019D02*
G75*
G03*
X34599819Y-10700000I-19J500019D01*
G01*
X58599819Y61299981D02*
G75*
G03*
X59099819Y61800000I-19J500019D01*
G01*
X-23900181Y-9200019D02*
G75*
G03*
X-24900181Y-10200000I-19J-999981D01*
G01*
X58599819Y49299981D02*
G75*
G03*
X59099819Y49800000I-19J500019D01*
G01*
X-23900181Y72800000D02*
X-13900181Y72800000D01*
X-24900200Y1800000D02*
G75*
G03*
X-24400181Y1300000I500000J0D01*
G01*
X36099819Y72799981D02*
G75*
G03*
X35599819Y72300000I-19J-499981D01*
G01*
X59099819Y47800000D02*
X59099819Y37800000D01*
X-24400181Y36299981D02*
G75*
G03*
X-24900181Y35800000I-19J-499981D01*
G01*
X58599819Y1299981D02*
G75*
G03*
X59099819Y1800000I-19J500019D01*
G01*
X-1900181Y-11200019D02*
G75*
G03*
X-1400181Y-10700000I-19J500019D01*
G01*
X59099819Y-200000D02*
X59099819Y-10200000D01*
X-24900181Y23800000D02*
X-24900181Y13800000D01*
X59099800Y59800000D02*
G75*
G03*
X58599819Y60300000I-500000J0D01*
G01*
X59099800Y23800000D02*
G75*
G03*
X58599819Y24300000I-500000J0D01*
G01*
D12*
X-21150181Y50175000D02*
G75*
G03*
X-21150181Y50175000I-500000J0D01*
G01*
X-21150181Y30800000D02*
G75*
G03*
X-21150181Y30800000I-500000J0D01*
G01*
D10*
X99819Y-11200000D02*
X10099819Y-11200000D01*
X58099819Y70799981D02*
G75*
G03*
X59099819Y71800000I-19J1000019D01*
G01*
D12*
X-1775181Y-7950000D02*
G75*
G03*
X-1775181Y-7950000I-500000J0D01*
G01*
D10*
X11599800Y-10700000D02*
G75*
G03*
X12099819Y-11200000I500000J0D01*
G01*
X-24400181Y48299981D02*
G75*
G03*
X-24900181Y47800000I-19J-499981D01*
G01*
X-24900200Y61800000D02*
G75*
G03*
X-24400181Y61300000I500000J0D01*
G01*
X-24400181Y60299981D02*
G75*
G03*
X-24900181Y59800000I-19J-499981D01*
G01*
X12099819Y72799981D02*
G75*
G03*
X11599819Y72300000I-19J-499981D01*
G01*
D11*
X-21125181Y-7950000D02*
G75*
G03*
X-21125181Y-7950000I-525000J0D01*
G01*
D10*
X24099819Y72799981D02*
G75*
G03*
X23599819Y72300000I-19J-499981D01*
G01*
X-24400181Y12299981D02*
G75*
G03*
X-24900181Y11800000I-19J-499981D01*
G01*
D11*
X-21125181Y69550000D02*
G75*
G03*
X-21125181Y69550000I-525000J0D01*
G01*
D10*
X-24900181Y-200000D02*
X-24900181Y-10200000D01*
X-24900200Y37800000D02*
G75*
G03*
X-24400181Y37300000I500000J0D01*
G01*
X-13900181Y-11200019D02*
G75*
G03*
X-13400181Y-10700000I-19J500019D01*
G01*
X-1400200Y72300000D02*
G75*
G03*
X-1900181Y72800000I-500000J0D01*
G01*
X-24900181Y35800000D02*
X-24900181Y25800000D01*
X59099800Y35800000D02*
G75*
G03*
X58599819Y36300000I-500000J0D01*
G01*
X22599800Y72300000D02*
G75*
G03*
X22099819Y72800000I-500000J0D01*
G01*
X59099819Y35800000D02*
X59099819Y25800000D01*
D12*
X56349819Y30800000D02*
G75*
G03*
X56349819Y30800000I-500000J0D01*
G01*
D10*
X-24900181Y11800000D02*
X-24900181Y1800000D01*
X46599800Y72300000D02*
G75*
G03*
X46099819Y72800000I-500000J0D01*
G01*
X59099819Y11800000D02*
X59099819Y1800000D01*
D12*
X36974819Y-7950000D02*
G75*
G03*
X36974819Y-7950000I-500000J0D01*
G01*
D10*
X23599800Y-10700000D02*
G75*
G03*
X24099819Y-11200000I500000J0D01*
G01*
X35599800Y-10700000D02*
G75*
G03*
X36099819Y-11200000I500000J0D01*
G01*
D12*
X17599819Y-7950000D02*
G75*
G03*
X17599819Y-7950000I-500000J0D01*
G01*
D10*
X47599800Y-10700000D02*
G75*
G03*
X48099819Y-11200000I500000J0D01*
G01*
X59099819Y71800000D02*
X59099819Y61800000D01*
X-13400200Y72300000D02*
G75*
G03*
X-13900181Y72800000I-500000J0D01*
G01*
X59099819Y23800000D02*
X59099819Y13800000D01*
X59099819Y59800000D02*
X59099819Y49800000D01*
X-24900181Y59800000D02*
X-24900181Y49800000D01*
X46099819Y-11200019D02*
G75*
G03*
X46599819Y-10700000I-19J500019D01*
G01*
D12*
X-1775181Y69550000D02*
G75*
G03*
X-1775181Y69550000I-500000J0D01*
G01*
D10*
X10099819Y-11200019D02*
G75*
G03*
X10599819Y-10700000I-19J500019D01*
G01*
X12099819Y72800000D02*
X22099819Y72800000D01*
X10599800Y72300000D02*
G75*
G03*
X10099819Y72800000I-500000J0D01*
G01*
X24099819Y-11200000D02*
X34099819Y-11200000D01*
X59099800Y11800000D02*
G75*
G03*
X58599819Y12300000I-500000J0D01*
G01*
D11*
X56374819Y69550000D02*
G75*
G03*
X56374819Y69550000I-525000J0D01*
G01*
D10*
X-24900200Y25800000D02*
G75*
G03*
X-24400181Y25300000I500000J0D01*
G01*
X-24900200Y13800000D02*
G75*
G03*
X-24400181Y13300000I500000J0D01*
G01*
X-24400181Y24299981D02*
G75*
G03*
X-24900181Y23800000I-19J-499981D01*
G01*
D12*
X-21150181Y11425000D02*
G75*
G03*
X-21150181Y11425000I-500000J0D01*
G01*
D10*
X48099819Y72800000D02*
X58099819Y72800000D01*
X36099819Y72800000D02*
X46099819Y72800000D01*
X-11900181Y72799981D02*
G75*
G03*
X-12400181Y72300000I-19J-499981D01*
G01*
X-24400181Y299981D02*
G75*
G03*
X-24900181Y-200000I-19J-499981D01*
G01*
D12*
X56349819Y11425000D02*
G75*
G03*
X56349819Y11425000I-500000J0D01*
G01*
D10*
X59099800Y-200000D02*
G75*
G03*
X58599819Y300000I-500000J0D01*
G01*
X99819Y72799981D02*
G75*
G03*
X-400181Y72300000I-19J-499981D01*
G01*
X-11900181Y-11200000D02*
X-1900181Y-11200000D01*
X58599819Y13299981D02*
G75*
G03*
X59099819Y13800000I-19J500019D01*
G01*
X-23900181Y-11200000D02*
X-13900181Y-11200000D01*
X-24900181Y47800000D02*
X-24900181Y37800000D01*
X12099819Y-11200000D02*
X22099819Y-11200000D01*
X58599819Y37299981D02*
G75*
G03*
X59099819Y37800000I-19J500019D01*
G01*
X-11900181Y72800000D02*
X-1900181Y72800000D01*
X-24900181Y71800000D02*
X-24900181Y61800000D01*
X24099819Y72800000D02*
X34099819Y72800000D01*
X57099800Y-10200000D02*
G75*
G03*
X58099819Y-11200000I1000000J0D01*
G01*
X48099819Y-11200000D02*
X58099819Y-11200000D01*
X59099800Y47800000D02*
G75*
G03*
X58599819Y48300000I-500000J0D01*
G01*
D12*
X56349819Y50175000D02*
G75*
G03*
X56349819Y50175000I-500000J0D01*
G01*
D13*
G04 #@! TO.C,s6*
X17100000Y34450000D03*
X17100000Y30550000D03*
D14*
X18900000Y33600000D03*
X15300000Y33600000D03*
X18900000Y31400000D03*
X15300000Y31400000D03*
G04 #@! TD*
D13*
G04 #@! TO.C,s8*
X17100000Y44450000D03*
X17100000Y40550000D03*
D14*
X18900000Y43600000D03*
X15300000Y43600000D03*
X18900000Y41400000D03*
X15300000Y41400000D03*
G04 #@! TD*
D13*
G04 #@! TO.C,s4*
X17100000Y24450000D03*
X17100000Y20550000D03*
D14*
X18900000Y23600000D03*
X15300000Y23600000D03*
X18900000Y21400000D03*
X15300000Y21400000D03*
G04 #@! TD*
M02*
