%TF.GenerationSoftware,KiCad,Pcbnew,7.0.5*%
%TF.CreationDate,2023-07-04T18:58:13+01:00*%
%TF.ProjectId,Rapid Training Target,52617069-6420-4547-9261-696e696e6720,B*%
%TF.SameCoordinates,PX2160ec0PY5f5dd18*%
%TF.FileFunction,Copper,L2,Bot*%
%TF.FilePolarity,Positive*%
%FSLAX46Y46*%
G04 Gerber Fmt 4.6, Leading zero omitted, Abs format (unit mm)*
G04 Created by KiCad (PCBNEW 7.0.5) date 2023-07-04 18:58:13*
%MOMM*%
%LPD*%
G01*
G04 APERTURE LIST*
G04 Aperture macros list*
%AMRoundRect*
0 Rectangle with rounded corners*
0 $1 Rounding radius*
0 $2 $3 $4 $5 $6 $7 $8 $9 X,Y pos of 4 corners*
0 Add a 4 corners polygon primitive as box body*
4,1,4,$2,$3,$4,$5,$6,$7,$8,$9,$2,$3,0*
0 Add four circle primitives for the rounded corners*
1,1,$1+$1,$2,$3*
1,1,$1+$1,$4,$5*
1,1,$1+$1,$6,$7*
1,1,$1+$1,$8,$9*
0 Add four rect primitives between the rounded corners*
20,1,$1+$1,$2,$3,$4,$5,0*
20,1,$1+$1,$4,$5,$6,$7,0*
20,1,$1+$1,$6,$7,$8,$9,0*
20,1,$1+$1,$8,$9,$2,$3,0*%
G04 Aperture macros list end*
%TA.AperFunction,ComponentPad*%
%ADD10C,5.600000*%
%TD*%
%TA.AperFunction,SMDPad,CuDef*%
%ADD11RoundRect,0.200000X0.200000X0.275000X-0.200000X0.275000X-0.200000X-0.275000X0.200000X-0.275000X0*%
%TD*%
%TA.AperFunction,SMDPad,CuDef*%
%ADD12RoundRect,0.225000X0.225000X0.250000X-0.225000X0.250000X-0.225000X-0.250000X0.225000X-0.250000X0*%
%TD*%
%TA.AperFunction,SMDPad,CuDef*%
%ADD13RoundRect,0.150000X-0.512500X-0.150000X0.512500X-0.150000X0.512500X0.150000X-0.512500X0.150000X0*%
%TD*%
%TA.AperFunction,SMDPad,CuDef*%
%ADD14RoundRect,0.225000X0.250000X-0.225000X0.250000X0.225000X-0.250000X0.225000X-0.250000X-0.225000X0*%
%TD*%
%TA.AperFunction,SMDPad,CuDef*%
%ADD15R,0.800000X0.400000*%
%TD*%
%TA.AperFunction,SMDPad,CuDef*%
%ADD16R,0.400000X0.800000*%
%TD*%
%TA.AperFunction,SMDPad,CuDef*%
%ADD17R,1.450000X1.450000*%
%TD*%
%TA.AperFunction,SMDPad,CuDef*%
%ADD18R,0.700000X0.700000*%
%TD*%
%TA.AperFunction,ConnectorPad*%
%ADD19R,2.200000X1.100000*%
%TD*%
%TA.AperFunction,ComponentPad*%
%ADD20O,2.200000X1.200000*%
%TD*%
%TA.AperFunction,ConnectorPad*%
%ADD21R,2.000000X1.100000*%
%TD*%
%TA.AperFunction,ComponentPad*%
%ADD22O,2.000000X1.300000*%
%TD*%
%TA.AperFunction,SMDPad,CuDef*%
%ADD23R,1.150000X0.300000*%
%TD*%
%TA.AperFunction,SMDPad,CuDef*%
%ADD24R,1.150000X0.250000*%
%TD*%
%TA.AperFunction,SMDPad,CuDef*%
%ADD25RoundRect,0.200000X-0.275000X0.200000X-0.275000X-0.200000X0.275000X-0.200000X0.275000X0.200000X0*%
%TD*%
%TA.AperFunction,ViaPad*%
%ADD26C,0.800000*%
%TD*%
%TA.AperFunction,Conductor*%
%ADD27C,0.600000*%
%TD*%
%TA.AperFunction,Conductor*%
%ADD28C,0.250000*%
%TD*%
%TA.AperFunction,Conductor*%
%ADD29C,0.200000*%
%TD*%
G04 APERTURE END LIST*
D10*
%TO.P,H2,1*%
%TO.N,N/C*%
X50000000Y11000000D03*
%TD*%
%TO.P,H3,1*%
%TO.N,N/C*%
X185000000Y11000000D03*
%TD*%
D11*
%TO.P,R5,1*%
%TO.N,Net-(USB-C1-CC2)*%
X197988000Y10106000D03*
%TO.P,R5,2*%
%TO.N,GND*%
X196338000Y10106000D03*
%TD*%
D12*
%TO.P,C2,2*%
%TO.N,GND*%
X154331000Y6781000D03*
%TO.P,C2,1*%
%TO.N,+5V*%
X155881000Y6781000D03*
%TD*%
D13*
%TO.P,U1,5,VOUT*%
%TO.N,+3V3*%
X158167000Y3225000D03*
%TO.P,U1,4,NC*%
%TO.N,unconnected-(U1-NC-Pad4)*%
X158167000Y5125000D03*
%TO.P,U1,3,EN*%
%TO.N,+5V*%
X155892000Y5125000D03*
%TO.P,U1,2,GND*%
%TO.N,GND*%
X155892000Y4175000D03*
%TO.P,U1,1,VIN*%
%TO.N,+5V*%
X155892000Y3225000D03*
%TD*%
D14*
%TO.P,C1,1*%
%TO.N,+3V3*%
X159945000Y3212000D03*
%TO.P,C1,2*%
%TO.N,GND*%
X159945000Y4762000D03*
%TD*%
D15*
%TO.P,U2,1,GND*%
%TO.N,GND*%
X161843000Y1565500D03*
%TO.P,U2,2,GND*%
X161843000Y2365500D03*
%TO.P,U2,3,3V3*%
%TO.N,+3V3*%
X161843000Y3165500D03*
%TO.P,U2,4,NC*%
%TO.N,unconnected-(U2-NC-Pad4)*%
X161843000Y3965500D03*
%TO.P,U2,5,IO2/GPIO2/ADC1_CH2/FSPIQ*%
%TO.N,unconnected-(U2-IO2{slash}GPIO2{slash}ADC1_CH2{slash}FSPIQ-Pad5)*%
X161843000Y4765500D03*
%TO.P,U2,6,IO3/GPIO3/ADC1_CH3*%
%TO.N,unconnected-(U2-IO3{slash}GPIO3{slash}ADC1_CH3-Pad6)*%
X161843000Y5565500D03*
%TO.P,U2,7,NC*%
%TO.N,unconnected-(U2-NC-Pad7)*%
X161843000Y6365500D03*
%TO.P,U2,8,EN*%
%TO.N,+3V3*%
X161843000Y7165500D03*
%TO.P,U2,9,NC*%
%TO.N,unconnected-(U2-NC-Pad9)*%
X161843000Y7965500D03*
%TO.P,U2,10,NC*%
%TO.N,unconnected-(U2-NC-Pad10)*%
X161843000Y8765500D03*
%TO.P,U2,11,GND*%
%TO.N,GND*%
X161843000Y9565500D03*
D16*
%TO.P,U2,12,IO0/GPIO0/ADC1_CH0/XTAL_32K_P*%
%TO.N,unconnected-(U2-IO0{slash}GPIO0{slash}ADC1_CH0{slash}XTAL_32K_P-Pad12)*%
X162943000Y10465500D03*
%TO.P,U2,13,IO1/GPIO1/ADC1_CH1/XTAL_32K_N*%
%TO.N,unconnected-(U2-IO1{slash}GPIO1{slash}ADC1_CH1{slash}XTAL_32K_N-Pad13)*%
X163743000Y10465500D03*
%TO.P,U2,14,GND*%
%TO.N,GND*%
X164543000Y10465500D03*
%TO.P,U2,15,NC*%
%TO.N,unconnected-(U2-NC-Pad15)*%
X165343000Y10465500D03*
%TO.P,U2,16,IO10/GPIO10/FSPICS0*%
%TO.N,unconnected-(U2-IO10{slash}GPIO10{slash}FSPICS0-Pad16)*%
X166143000Y10465500D03*
%TO.P,U2,17,NC*%
%TO.N,unconnected-(U2-NC-Pad17)*%
X166943000Y10465500D03*
%TO.P,U2,18,IO4/GPIO4/ADC1_CH4/FSPIHD/MTMS*%
%TO.N,Green*%
X167743000Y10465500D03*
%TO.P,U2,19,IO5/GPIO5/ADC2_CH0/FSPIWP/MTDI*%
%TO.N,Red*%
X168543000Y10465500D03*
%TO.P,U2,20,IO6/GPIO6/FSPICLK/MTCK*%
%TO.N,Blue*%
X169343000Y10465500D03*
%TO.P,U2,21,IO7/GPIO7/FSPID/MTDO*%
%TO.N,unconnected-(U2-IO7{slash}GPIO7{slash}FSPID{slash}MTDO-Pad21)*%
X170143000Y10465500D03*
%TO.P,U2,22,IO8/GPIO8*%
%TO.N,unconnected-(U2-IO8{slash}GPIO8-Pad22)*%
X170943000Y10465500D03*
%TO.P,U2,23,IO9/GPIO9*%
%TO.N,unconnected-(U2-IO9{slash}GPIO9-Pad23)*%
X171743000Y10465500D03*
%TO.P,U2,24,NC*%
%TO.N,unconnected-(U2-NC-Pad24)*%
X172543000Y10465500D03*
D15*
%TO.P,U2,25,NC*%
%TO.N,unconnected-(U2-NC-Pad25)*%
X173643000Y9565500D03*
%TO.P,U2,26,IO18/GPIO18/USB_D-*%
%TO.N,USB_D-*%
X173643000Y8765500D03*
%TO.P,U2,27,IO19/GPIO19/USB_D+*%
%TO.N,USB_D+*%
X173643000Y7965500D03*
%TO.P,U2,28,NC*%
%TO.N,unconnected-(U2-NC-Pad28)*%
X173643000Y7165500D03*
%TO.P,U2,29,NC*%
%TO.N,unconnected-(U2-NC-Pad29)*%
X173643000Y6365500D03*
%TO.P,U2,30,RXD0/GPIO20/U0RXD*%
%TO.N,unconnected-(U2-RXD0{slash}GPIO20{slash}U0RXD-Pad30)*%
X173643000Y5565500D03*
%TO.P,U2,31,TXD0/GPIO21/U0TXD*%
%TO.N,unconnected-(U2-TXD0{slash}GPIO21{slash}U0TXD-Pad31)*%
X173643000Y4765500D03*
%TO.P,U2,32,NC*%
%TO.N,unconnected-(U2-NC-Pad32)*%
X173643000Y3965500D03*
%TO.P,U2,33,NC*%
%TO.N,unconnected-(U2-NC-Pad33)*%
X173643000Y3165500D03*
%TO.P,U2,34,NC*%
%TO.N,unconnected-(U2-NC-Pad34)*%
X173643000Y2365500D03*
%TO.P,U2,35,NC*%
%TO.N,unconnected-(U2-NC-Pad35)*%
X173643000Y1565500D03*
D16*
%TO.P,U2,36,GND*%
%TO.N,GND*%
X172543000Y665500D03*
%TO.P,U2,37,GND*%
X171743000Y665500D03*
%TO.P,U2,38,GND*%
X170943000Y665500D03*
%TO.P,U2,39,GND*%
X170143000Y665500D03*
%TO.P,U2,40,GND*%
X169343000Y665500D03*
%TO.P,U2,41,GND*%
X168543000Y665500D03*
%TO.P,U2,42,GND*%
X167743000Y665500D03*
%TO.P,U2,43,GND*%
X166943000Y665500D03*
%TO.P,U2,44,GND*%
X166143000Y665500D03*
%TO.P,U2,45,GND*%
X165343000Y665500D03*
%TO.P,U2,46,GND*%
X164543000Y665500D03*
%TO.P,U2,47,GND*%
X163743000Y665500D03*
%TO.P,U2,48,GND*%
X162943000Y665500D03*
D17*
%TO.P,U2,49,GND*%
X165768000Y7540500D03*
X165768000Y5565500D03*
X165768000Y3590500D03*
X167743000Y7540500D03*
X167743000Y5565500D03*
X167743000Y3590500D03*
X169718000Y7540500D03*
X169718000Y5565500D03*
X169718000Y3590500D03*
D18*
%TO.P,U2,50,GND*%
X173693000Y615500D03*
%TO.P,U2,51,GND*%
X173693000Y10515500D03*
%TO.P,U2,52,GND*%
X161793000Y10515500D03*
%TO.P,U2,53,GND*%
X161793000Y615500D03*
%TD*%
D19*
%TO.P,USB-C1,0,SHELL*%
%TO.N,GND*%
X200603000Y16788600D03*
D20*
X200603000Y16181000D03*
X200603000Y7541000D03*
D19*
X200603000Y6933400D03*
D21*
X204783000Y16788600D03*
D22*
X204783000Y16181000D03*
X204783000Y7541000D03*
D21*
X204783000Y6933400D03*
D23*
%TO.P,USB-C1,A1,GND*%
X199701000Y15186000D03*
%TO.P,USB-C1,A4,VBUS*%
%TO.N,+5V*%
X199701000Y14386000D03*
D24*
%TO.P,USB-C1,A5,CC1*%
%TO.N,Net-(USB-C1-CC1)*%
X199701000Y13111000D03*
%TO.P,USB-C1,A6,DP1*%
%TO.N,USB_D+*%
X199701000Y12111000D03*
%TO.P,USB-C1,A7,DN1*%
%TO.N,USB_D-*%
X199701000Y11611000D03*
%TO.P,USB-C1,A8,SBU1*%
%TO.N,unconnected-(USB-C1-SBU1-PadA8)*%
X199701000Y10611000D03*
D23*
%TO.P,USB-C1,A9,VBUS*%
%TO.N,+5V*%
X199701000Y9336000D03*
%TO.P,USB-C1,A12,GND*%
%TO.N,GND*%
X199701000Y8536000D03*
%TO.P,USB-C1,B1,GND*%
X199701000Y8786000D03*
%TO.P,USB-C1,B4,VBUS*%
%TO.N,+5V*%
X199701000Y9586000D03*
D24*
%TO.P,USB-C1,B5,CC2*%
%TO.N,Net-(USB-C1-CC2)*%
X199701000Y10111000D03*
%TO.P,USB-C1,B6,DP2*%
%TO.N,USB_D+*%
X199701000Y11111000D03*
%TO.P,USB-C1,B7,DN2*%
%TO.N,USB_D-*%
X199701000Y12611000D03*
%TO.P,USB-C1,B8,SBU2*%
%TO.N,unconnected-(USB-C1-SBU2-PadB8)*%
X199701000Y13611000D03*
D23*
%TO.P,USB-C1,B9,VBUS*%
%TO.N,+5V*%
X199701000Y14136000D03*
%TO.P,USB-C1,B12,GND*%
%TO.N,GND*%
X199701000Y14936000D03*
%TD*%
D25*
%TO.P,R1,1*%
%TO.N,Net-(D1-GK)*%
X168543000Y16424000D03*
%TO.P,R1,2*%
%TO.N,Red*%
X168543000Y14774000D03*
%TD*%
%TO.P,R2,1*%
%TO.N,Net-(D1-BK)*%
X170100000Y16424000D03*
%TO.P,R2,2*%
%TO.N,Blue*%
X170100000Y14774000D03*
%TD*%
%TO.P,R3,1*%
%TO.N,Net-(D1-RK)*%
X167000000Y16424000D03*
%TO.P,R3,2*%
%TO.N,Green*%
X167000000Y14774000D03*
%TD*%
D11*
%TO.P,R4,1*%
%TO.N,Net-(USB-C1-CC1)*%
X197988000Y13106000D03*
%TO.P,R4,2*%
%TO.N,GND*%
X196338000Y13106000D03*
%TD*%
D26*
%TO.N,+5V*%
X157151000Y6781000D03*
X198179000Y8795000D03*
X155870000Y1968500D03*
X198179000Y14637000D03*
%TO.N,Net-(D1-RK)*%
X4116000Y18465000D03*
X184202000Y18465000D03*
X49074000Y18465000D03*
X94286000Y18465000D03*
X139244000Y18465000D03*
%TO.N,Net-(D1-BK)*%
X141784000Y19481000D03*
X51614000Y19227000D03*
X170100000Y19481000D03*
X96826000Y19481000D03*
X6656000Y19481000D03*
X170100000Y17576000D03*
X186488000Y19481000D03*
%TO.N,Net-(D1-GK)*%
X96572000Y20497000D03*
X51614000Y20497000D03*
X141530000Y20497000D03*
X6402000Y20497000D03*
X168543000Y20497000D03*
X186488000Y20497000D03*
X168543000Y17576000D03*
%TD*%
D27*
%TO.N,+3V3*%
X162679500Y3165500D02*
X161843000Y3165500D01*
X162993000Y3479000D02*
X162679500Y3165500D01*
X162993000Y6654000D02*
X162993000Y3479000D01*
X162481500Y7165500D02*
X162993000Y6654000D01*
X161843000Y7165500D02*
X162481500Y7165500D01*
D28*
%TO.N,+5V*%
X157138000Y6781000D02*
X157151000Y6781000D01*
X155881000Y3200500D02*
X155881000Y1979500D01*
X155881000Y1979500D02*
X155870000Y1968500D01*
D29*
%TO.N,USB_D+*%
X195664000Y11106000D02*
X190523500Y5965500D01*
X200501000Y11106000D02*
X195664000Y11106000D01*
X190523500Y5965500D02*
X173643000Y5965500D01*
X200719000Y11324000D02*
X200501000Y11106000D01*
X200501000Y12106000D02*
X200719000Y11888000D01*
X199701000Y12106000D02*
X200501000Y12106000D01*
X200719000Y11888000D02*
X200719000Y11324000D01*
%TO.N,USB_D-*%
X190417500Y6765500D02*
X173643000Y6765500D01*
X195258000Y11606000D02*
X190417500Y6765500D01*
X198783000Y11606000D02*
X195258000Y11606000D01*
D28*
%TO.N,+5V*%
X199701000Y9331000D02*
X198715000Y9331000D01*
X198715000Y9331000D02*
X198179000Y8795000D01*
X155881000Y6781000D02*
X157138000Y6781000D01*
X155881000Y6781000D02*
X155881000Y5089000D01*
X198435000Y14381000D02*
X198179000Y14637000D01*
X199701000Y14381000D02*
X198435000Y14381000D01*
%TO.N,Net-(D1-RK)*%
X184202000Y18465000D02*
X165000000Y18465000D01*
X139244000Y18465000D02*
X131116000Y18465000D01*
X131116000Y18465000D02*
X94286000Y18465000D01*
X165000000Y18465000D02*
X162000000Y18465000D01*
X167000000Y17149000D02*
X165684000Y18465000D01*
X160961000Y18465000D02*
X139244000Y18465000D01*
X162000000Y18465000D02*
X160961000Y18465000D01*
X49074000Y18465000D02*
X4116000Y18465000D01*
X165684000Y18465000D02*
X165000000Y18465000D01*
X94286000Y18465000D02*
X49074000Y18465000D01*
X167000000Y16424000D02*
X167000000Y17149000D01*
%TO.N,Net-(D1-BK)*%
X186488000Y19481000D02*
X170486000Y19481000D01*
X170100000Y16424000D02*
X170100000Y17576000D01*
X96826000Y19481000D02*
X51868000Y19481000D01*
X6656000Y19481000D02*
X51360000Y19481000D01*
X51868000Y19481000D02*
X51614000Y19227000D01*
X170486000Y19481000D02*
X141784000Y19481000D01*
X141784000Y19481000D02*
X96826000Y19481000D01*
X51360000Y19481000D02*
X51614000Y19227000D01*
%TO.N,Net-(D1-GK)*%
X166422000Y20497000D02*
X186488000Y20497000D01*
X96572000Y20497000D02*
X141530000Y20497000D01*
X168543000Y17576000D02*
X168543000Y16424000D01*
X141657000Y20370000D02*
X141530000Y20497000D01*
X6402000Y20497000D02*
X51614000Y20497000D01*
X51614000Y20497000D02*
X96572000Y20497000D01*
X141530000Y20497000D02*
X166422000Y20497000D01*
%TO.N,Red*%
X168543000Y14774000D02*
X168543000Y8465500D01*
%TO.N,Green*%
X167743000Y8465500D02*
X167743000Y12106000D01*
X167743000Y12106000D02*
X167000000Y12849000D01*
X167000000Y12849000D02*
X167000000Y14774000D01*
%TO.N,Blue*%
X169343000Y12092000D02*
X169343000Y8465500D01*
X170100000Y12849000D02*
X169343000Y12092000D01*
X170100000Y12849000D02*
X170100000Y14774000D01*
%TO.N,Net-(USB-C1-CC1)*%
X197988000Y13106000D02*
X199701000Y13106000D01*
D29*
%TO.N,USB_D-*%
X198687000Y11845000D02*
X198687000Y12392000D01*
X198783000Y11606000D02*
X198926000Y11606000D01*
X198788000Y11611000D02*
X198783000Y11606000D01*
X198901000Y12606000D02*
X199701000Y12606000D01*
X198926000Y11606000D02*
X198687000Y11845000D01*
X198687000Y12392000D02*
X198901000Y12606000D01*
X199701000Y11611000D02*
X198788000Y11611000D01*
D28*
%TO.N,Net-(USB-C1-CC2)*%
X197988000Y10106000D02*
X199701000Y10106000D01*
D27*
%TO.N,+3V3*%
X157895000Y3165500D02*
X161843000Y3165500D01*
%TD*%
%TA.AperFunction,Conductor*%
%TO.N,GND*%
G36*
X204094918Y21699339D02*
G01*
X204422780Y21672749D01*
X204427920Y21672060D01*
X204752111Y21611175D01*
X204757134Y21609957D01*
X205073198Y21515514D01*
X205078081Y21513771D01*
X205382528Y21386814D01*
X205387194Y21384574D01*
X205676701Y21226490D01*
X205681115Y21223770D01*
X205952509Y21036293D01*
X205956615Y21033127D01*
X206206935Y20818299D01*
X206210687Y20814722D01*
X206338592Y20679293D01*
X206437172Y20574915D01*
X206440530Y20570964D01*
X206640708Y20308795D01*
X206643634Y20304515D01*
X206815312Y20022857D01*
X206817775Y20018295D01*
X206829312Y19993958D01*
X206959073Y19720230D01*
X206961042Y19715443D01*
X207070411Y19404242D01*
X207071871Y19399267D01*
X207148112Y19078336D01*
X207149041Y19073252D01*
X207191317Y18746106D01*
X207191711Y18740936D01*
X207199486Y18414296D01*
X207199500Y18413118D01*
X207199500Y18405003D01*
X207199480Y18403589D01*
X207198263Y18361006D01*
X207199091Y18354603D01*
X207199500Y18348251D01*
X207199500Y3454996D01*
X207199001Y3448228D01*
X207199500Y3398417D01*
X207199500Y3398256D01*
X207199458Y3395692D01*
X207199008Y3385247D01*
X207185650Y3074902D01*
X207185148Y3069689D01*
X207137659Y2753487D01*
X207136605Y2748343D01*
X207055910Y2438942D01*
X207054317Y2433939D01*
X206941322Y2134811D01*
X206939208Y2130004D01*
X206795192Y1844536D01*
X206792582Y1839980D01*
X206619149Y1571349D01*
X206616071Y1567095D01*
X206415179Y1318335D01*
X206411668Y1314431D01*
X206185569Y1088332D01*
X206181665Y1084821D01*
X205932905Y883929D01*
X205928651Y880851D01*
X205660020Y707418D01*
X205655464Y704808D01*
X205369996Y560792D01*
X205365189Y558678D01*
X205066061Y445683D01*
X205061058Y444090D01*
X204751657Y363395D01*
X204746513Y362341D01*
X204430311Y314852D01*
X204425098Y314350D01*
X204118175Y301139D01*
X204104308Y300542D01*
X204101744Y300500D01*
X204101583Y300500D01*
X204051775Y300999D01*
X204045005Y300500D01*
X3401290Y300500D01*
X3398705Y300568D01*
X3078606Y317344D01*
X3073451Y317885D01*
X3037928Y323512D01*
X2758137Y367827D01*
X2753074Y368903D01*
X2444704Y451530D01*
X2439773Y453133D01*
X2141747Y567535D01*
X2137011Y569643D01*
X1852556Y714579D01*
X1848066Y717172D01*
X1580330Y891043D01*
X1576150Y894080D01*
X1328053Y1094985D01*
X1324200Y1098454D01*
X1098453Y1324201D01*
X1094984Y1328054D01*
X1093839Y1329467D01*
X1080650Y1345754D01*
X173042500Y1345754D01*
X173042501Y1345742D01*
X173048730Y1314431D01*
X173054133Y1287269D01*
X173098448Y1220948D01*
X173164769Y1176633D01*
X173209231Y1167789D01*
X173223241Y1165002D01*
X173223246Y1165002D01*
X173223252Y1165000D01*
X173223253Y1165000D01*
X174062747Y1165000D01*
X174062748Y1165000D01*
X174121231Y1176633D01*
X174187552Y1220948D01*
X174231867Y1287269D01*
X174243500Y1345752D01*
X174243500Y1785248D01*
X174231867Y1843731D01*
X174187552Y1910052D01*
X174187549Y1910054D01*
X174187253Y1910497D01*
X174170644Y1969385D01*
X174187253Y2020503D01*
X174187549Y2020947D01*
X174187552Y2020948D01*
X174231867Y2087269D01*
X174243500Y2145752D01*
X174243500Y2585248D01*
X174231867Y2643731D01*
X174187552Y2710052D01*
X174187549Y2710054D01*
X174187253Y2710497D01*
X174170644Y2769385D01*
X174187253Y2820503D01*
X174187549Y2820947D01*
X174187552Y2820948D01*
X174231867Y2887269D01*
X174243500Y2945752D01*
X174243500Y3385248D01*
X174231867Y3443731D01*
X174187552Y3510052D01*
X174187549Y3510054D01*
X174187253Y3510497D01*
X174170644Y3569385D01*
X174187253Y3620503D01*
X174187549Y3620947D01*
X174187552Y3620948D01*
X174231867Y3687269D01*
X174243500Y3745752D01*
X174243500Y4185248D01*
X174231867Y4243731D01*
X174187552Y4310052D01*
X174187549Y4310054D01*
X174187253Y4310497D01*
X174170644Y4369385D01*
X174187253Y4420503D01*
X174187549Y4420947D01*
X174187552Y4420948D01*
X174231867Y4487269D01*
X174243500Y4545752D01*
X174243500Y4985248D01*
X174231867Y5043731D01*
X174187552Y5110052D01*
X174187549Y5110054D01*
X174187253Y5110497D01*
X174170644Y5169385D01*
X174187253Y5220503D01*
X174187549Y5220947D01*
X174187552Y5220948D01*
X174231867Y5287269D01*
X174243500Y5345752D01*
X174243500Y5566001D01*
X174262407Y5624191D01*
X174311907Y5660155D01*
X174342500Y5665000D01*
X190458336Y5665000D01*
X190472011Y5662768D01*
X190472183Y5663994D01*
X190481264Y5662728D01*
X190481265Y5662727D01*
X190481265Y5662728D01*
X190481266Y5662727D01*
X190490007Y5663132D01*
X190529293Y5664948D01*
X190531570Y5665000D01*
X190551341Y5665000D01*
X190551344Y5665000D01*
X190554837Y5665654D01*
X190561641Y5666444D01*
X190593492Y5667915D01*
X190602476Y5671883D01*
X190624277Y5678635D01*
X190633933Y5680439D01*
X190661043Y5697226D01*
X190667089Y5700412D01*
X190696265Y5713294D01*
X190703209Y5720240D01*
X190721101Y5734411D01*
X190729452Y5739581D01*
X190748665Y5765026D01*
X190753162Y5770192D01*
X195759475Y10776504D01*
X195813992Y10804281D01*
X195829479Y10805500D01*
X197407101Y10805500D01*
X197465292Y10786593D01*
X197501256Y10737093D01*
X197501256Y10675907D01*
X197477106Y10636499D01*
X197459949Y10619342D01*
X197459949Y10619341D01*
X197402354Y10506305D01*
X197387500Y10412523D01*
X197387500Y9799480D01*
X197387501Y9799477D01*
X197402352Y9705701D01*
X197402354Y9705696D01*
X197459950Y9592658D01*
X197549658Y9502950D01*
X197662696Y9445354D01*
X197747959Y9431850D01*
X197802475Y9404073D01*
X197830253Y9349556D01*
X197820682Y9289124D01*
X197792740Y9255528D01*
X197750724Y9223288D01*
X197750713Y9223277D01*
X197654462Y9097840D01*
X197654462Y9097839D01*
X197593957Y8951767D01*
X197593955Y8951759D01*
X197573318Y8795001D01*
X197573318Y8795000D01*
X197593955Y8638242D01*
X197593957Y8638234D01*
X197654462Y8492162D01*
X197654462Y8492161D01*
X197750713Y8366724D01*
X197750718Y8366718D01*
X197750722Y8366715D01*
X197750723Y8366714D01*
X197766814Y8354367D01*
X197876159Y8270464D01*
X197876160Y8270464D01*
X197876161Y8270463D01*
X197949167Y8240223D01*
X198022238Y8209956D01*
X198139809Y8194478D01*
X198178999Y8189318D01*
X198179000Y8189318D01*
X198179001Y8189318D01*
X198210352Y8193446D01*
X198335762Y8209956D01*
X198481841Y8270464D01*
X198607282Y8366718D01*
X198703536Y8492159D01*
X198764044Y8638238D01*
X198784682Y8795000D01*
X198774143Y8875045D01*
X198785292Y8935203D01*
X198802290Y8957965D01*
X198820833Y8976508D01*
X198875351Y9004282D01*
X198890833Y9005500D01*
X199007877Y9005500D01*
X199045759Y8997966D01*
X199047764Y8997137D01*
X199047769Y8997133D01*
X199092231Y8988289D01*
X199106241Y8985502D01*
X199106246Y8985502D01*
X199106252Y8985500D01*
X199106253Y8985500D01*
X200295747Y8985500D01*
X200295748Y8985500D01*
X200354231Y8997133D01*
X200395002Y9024376D01*
X200453887Y9040984D01*
X200511291Y9019807D01*
X200545285Y8968934D01*
X200548771Y8935307D01*
X200548618Y8933081D01*
X200548619Y8933079D01*
X200579406Y8784921D01*
X200579406Y8784919D01*
X200579407Y8784916D01*
X200579408Y8784915D01*
X200649029Y8650553D01*
X200752320Y8539956D01*
X200881618Y8461328D01*
X201027335Y8420500D01*
X201027336Y8420500D01*
X201140652Y8420500D01*
X201140658Y8420500D01*
X201252920Y8435930D01*
X201391720Y8496220D01*
X201509108Y8591722D01*
X201596377Y8715353D01*
X201647054Y8857944D01*
X201657381Y9008921D01*
X201650718Y9040984D01*
X201626593Y9157080D01*
X201626593Y9157082D01*
X201626592Y9157084D01*
X201626592Y9157085D01*
X201556971Y9291447D01*
X201453680Y9402044D01*
X201324382Y9480672D01*
X201324381Y9480673D01*
X201324380Y9480673D01*
X201178665Y9521500D01*
X201065342Y9521500D01*
X200953079Y9506071D01*
X200814281Y9445781D01*
X200696891Y9350278D01*
X200656380Y9292886D01*
X200607375Y9256250D01*
X200546196Y9255414D01*
X200496209Y9290699D01*
X200476509Y9348626D01*
X200476500Y9349978D01*
X200476500Y9551117D01*
X200476500Y9755748D01*
X200464867Y9814231D01*
X200464864Y9814235D01*
X200461187Y9823113D01*
X200456386Y9884110D01*
X200461187Y9898887D01*
X200464863Y9907764D01*
X200464867Y9907769D01*
X200476500Y9966252D01*
X200476500Y10255748D01*
X200464867Y10314231D01*
X200464865Y10314233D01*
X200461186Y10323118D01*
X200456387Y10384114D01*
X200461188Y10398890D01*
X200464863Y10407764D01*
X200464867Y10407769D01*
X200476500Y10466252D01*
X200476500Y10709519D01*
X200495407Y10767709D01*
X200544907Y10803673D01*
X200570928Y10808413D01*
X200570992Y10808415D01*
X200579976Y10812383D01*
X200601777Y10819135D01*
X200611433Y10820939D01*
X200638543Y10837726D01*
X200644589Y10840912D01*
X200673765Y10853794D01*
X200680711Y10860741D01*
X200698598Y10874910D01*
X200706952Y10880081D01*
X200726165Y10905526D01*
X200730662Y10910692D01*
X200763704Y10943734D01*
X200885403Y11065434D01*
X200896661Y11073503D01*
X200895901Y11074510D01*
X200903222Y11080040D01*
X200903228Y11080042D01*
X200935634Y11115592D01*
X200937165Y11117196D01*
X200951175Y11131203D01*
X200953184Y11134137D01*
X200957431Y11139501D01*
X200978916Y11163067D01*
X200982465Y11172231D01*
X200993111Y11192425D01*
X200998657Y11200520D01*
X201005954Y11231553D01*
X201007979Y11238092D01*
X201019500Y11267827D01*
X201019500Y11277653D01*
X201022130Y11300322D01*
X201024379Y11309882D01*
X201019973Y11341469D01*
X201019499Y11348288D01*
X201019499Y11822824D01*
X201021743Y11836500D01*
X201020505Y11836672D01*
X201021772Y11845759D01*
X201021774Y11845764D01*
X201019552Y11893803D01*
X201019500Y11896083D01*
X201019500Y11915839D01*
X201019500Y11915844D01*
X201018845Y11919346D01*
X201018057Y11926135D01*
X201016585Y11957991D01*
X201012615Y11966981D01*
X201005865Y11988780D01*
X201004061Y11998433D01*
X200987278Y12025538D01*
X200984085Y12031594D01*
X200975090Y12051969D01*
X200971207Y12060764D01*
X200964257Y12067714D01*
X200950088Y12085604D01*
X200944920Y12093951D01*
X200944919Y12093952D01*
X200919483Y12113161D01*
X200914306Y12117666D01*
X200759565Y12272406D01*
X200751479Y12283656D01*
X200750487Y12282906D01*
X200744958Y12290228D01*
X200729351Y12304456D01*
X200709423Y12322623D01*
X200707775Y12324196D01*
X200693797Y12338174D01*
X200690859Y12340187D01*
X200685496Y12344436D01*
X200661933Y12365916D01*
X200652762Y12369469D01*
X200632586Y12380105D01*
X200624484Y12385655D01*
X200624479Y12385657D01*
X200593457Y12392954D01*
X200586902Y12394984D01*
X200548620Y12409814D01*
X200549066Y12410967D01*
X200503579Y12435757D01*
X200477326Y12491024D01*
X200476500Y12503775D01*
X200476500Y12755748D01*
X200464867Y12814231D01*
X200464864Y12814235D01*
X200461187Y12823113D01*
X200456386Y12884110D01*
X200461187Y12898887D01*
X200464863Y12907764D01*
X200464867Y12907769D01*
X200476500Y12966252D01*
X200476500Y13255748D01*
X200464867Y13314231D01*
X200464864Y13314235D01*
X200461187Y13323113D01*
X200456386Y13384110D01*
X200461187Y13398887D01*
X200464863Y13407764D01*
X200464867Y13407769D01*
X200476500Y13466252D01*
X200476500Y13755748D01*
X200464867Y13814231D01*
X200464864Y13814235D01*
X200461187Y13823113D01*
X200456386Y13884110D01*
X200461187Y13898887D01*
X200464863Y13907764D01*
X200464867Y13907769D01*
X200476500Y13966252D01*
X200476500Y14305748D01*
X200476500Y14364240D01*
X200495407Y14422431D01*
X200544907Y14458395D01*
X200606093Y14458395D01*
X200647853Y14431813D01*
X200649028Y14430555D01*
X200649029Y14430553D01*
X200752320Y14319956D01*
X200881618Y14241328D01*
X201027335Y14200500D01*
X201027336Y14200500D01*
X201140652Y14200500D01*
X201140658Y14200500D01*
X201252920Y14215930D01*
X201391720Y14276220D01*
X201509108Y14371722D01*
X201596377Y14495353D01*
X201647054Y14637944D01*
X201657381Y14788921D01*
X201656375Y14793761D01*
X201626593Y14937080D01*
X201626593Y14937082D01*
X201626592Y14937084D01*
X201626592Y14937085D01*
X201556971Y15071447D01*
X201453680Y15182044D01*
X201324382Y15260672D01*
X201324381Y15260673D01*
X201324380Y15260673D01*
X201178665Y15301500D01*
X201065342Y15301500D01*
X200953079Y15286071D01*
X200814281Y15225781D01*
X200696889Y15130276D01*
X200609623Y15006648D01*
X200558945Y14864057D01*
X200558945Y14864056D01*
X200552557Y14770655D01*
X200529723Y14713890D01*
X200477884Y14681388D01*
X200416841Y14685564D01*
X200398786Y14695096D01*
X200354233Y14724866D01*
X200354231Y14724867D01*
X200354228Y14724868D01*
X200354227Y14724868D01*
X200295758Y14736499D01*
X200295748Y14736500D01*
X199106252Y14736500D01*
X199106251Y14736500D01*
X199106241Y14736499D01*
X199047772Y14724868D01*
X199047766Y14724866D01*
X199045250Y14723184D01*
X199039482Y14721435D01*
X199038757Y14721134D01*
X199038727Y14721206D01*
X198990249Y14706500D01*
X198862353Y14706500D01*
X198804162Y14725407D01*
X198768198Y14774907D01*
X198764200Y14792575D01*
X198764044Y14793762D01*
X198703537Y14939839D01*
X198703537Y14939840D01*
X198607286Y15065277D01*
X198607285Y15065278D01*
X198607282Y15065282D01*
X198607277Y15065286D01*
X198607276Y15065287D01*
X198481838Y15161538D01*
X198335766Y15222043D01*
X198335758Y15222045D01*
X198179001Y15242682D01*
X198178999Y15242682D01*
X198022241Y15222045D01*
X198022233Y15222043D01*
X197876161Y15161538D01*
X197876160Y15161538D01*
X197750723Y15065287D01*
X197750713Y15065277D01*
X197654462Y14939840D01*
X197654462Y14939839D01*
X197593957Y14793767D01*
X197593955Y14793759D01*
X197573318Y14637001D01*
X197573318Y14637000D01*
X197593955Y14480242D01*
X197593957Y14480234D01*
X197654462Y14334162D01*
X197654462Y14334161D01*
X197745184Y14215930D01*
X197750718Y14208718D01*
X197750722Y14208715D01*
X197750723Y14208714D01*
X197761428Y14200500D01*
X197876159Y14112464D01*
X197876160Y14112464D01*
X197876161Y14112463D01*
X198013682Y14055500D01*
X198022238Y14051956D01*
X198138932Y14036593D01*
X198178999Y14031318D01*
X198179000Y14031318D01*
X198179001Y14031318D01*
X198219068Y14036593D01*
X198335762Y14051956D01*
X198335767Y14051959D01*
X198342031Y14053636D01*
X198342670Y14051251D01*
X198393023Y14055230D01*
X198395518Y14054597D01*
X198406193Y14051736D01*
X198447077Y14055313D01*
X198451377Y14055500D01*
X198826981Y14055500D01*
X198885172Y14036593D01*
X198921136Y13987093D01*
X198924498Y13971013D01*
X198924550Y13971023D01*
X198937132Y13907770D01*
X198940814Y13898881D01*
X198945611Y13837884D01*
X198940814Y13823119D01*
X198937132Y13814231D01*
X198925501Y13755759D01*
X198925500Y13755747D01*
X198925500Y13530500D01*
X198906593Y13472309D01*
X198857093Y13436345D01*
X198826500Y13431500D01*
X198669879Y13431500D01*
X198611688Y13450407D01*
X198575724Y13499907D01*
X198575724Y13499908D01*
X198573645Y13506307D01*
X198524421Y13602913D01*
X198516050Y13619342D01*
X198426342Y13709050D01*
X198313304Y13766646D01*
X198313305Y13766646D01*
X198219522Y13781500D01*
X197756479Y13781500D01*
X197756476Y13781499D01*
X197662700Y13766648D01*
X197662695Y13766646D01*
X197549659Y13709051D01*
X197459949Y13619341D01*
X197402354Y13506305D01*
X197387500Y13412523D01*
X197387500Y12799480D01*
X197387501Y12799477D01*
X197402352Y12705701D01*
X197402354Y12705696D01*
X197459950Y12592658D01*
X197549658Y12502950D01*
X197662696Y12445354D01*
X197756481Y12430500D01*
X198219518Y12430501D01*
X198219520Y12430501D01*
X198246278Y12434740D01*
X198272013Y12438815D01*
X198332445Y12429244D01*
X198375710Y12385979D01*
X198386500Y12341034D01*
X198386500Y12005500D01*
X198367593Y11947309D01*
X198318093Y11911345D01*
X198287500Y11906500D01*
X195323165Y11906500D01*
X195309489Y11908733D01*
X195309318Y11907506D01*
X195300234Y11908774D01*
X195259887Y11906908D01*
X195252207Y11906553D01*
X195249931Y11906500D01*
X195230153Y11906500D01*
X195226658Y11905847D01*
X195219845Y11905057D01*
X195188011Y11903586D01*
X195188007Y11903585D01*
X195179013Y11899614D01*
X195157228Y11892868D01*
X195147571Y11891063D01*
X195147565Y11891060D01*
X195120465Y11874282D01*
X195114396Y11871083D01*
X195085238Y11858208D01*
X195085231Y11858204D01*
X195078286Y11851258D01*
X195060406Y11837095D01*
X195052048Y11831920D01*
X195032839Y11806485D01*
X195028335Y11801308D01*
X190322025Y7094996D01*
X190267508Y7067219D01*
X190252021Y7066000D01*
X174342500Y7066000D01*
X174284309Y7084907D01*
X174248345Y7134407D01*
X174243500Y7165000D01*
X174243500Y7385247D01*
X174243498Y7385259D01*
X174240711Y7399269D01*
X174231867Y7443731D01*
X174187552Y7510052D01*
X174187549Y7510054D01*
X174187253Y7510497D01*
X174170644Y7569385D01*
X174187253Y7620503D01*
X174187549Y7620947D01*
X174187552Y7620948D01*
X174231867Y7687269D01*
X174243500Y7745752D01*
X174243500Y8185248D01*
X174242690Y8189318D01*
X174238585Y8209958D01*
X174231867Y8243731D01*
X174187552Y8310052D01*
X174187549Y8310054D01*
X174187253Y8310497D01*
X174170644Y8369385D01*
X174187253Y8420503D01*
X174187549Y8420947D01*
X174187552Y8420948D01*
X174231867Y8487269D01*
X174243500Y8545752D01*
X174243500Y8985248D01*
X174243449Y8985502D01*
X174232321Y9041448D01*
X174231867Y9043731D01*
X174187552Y9110052D01*
X174187548Y9110055D01*
X174187253Y9110497D01*
X174170644Y9169385D01*
X174187253Y9220503D01*
X174187549Y9220947D01*
X174187552Y9220948D01*
X174231867Y9287269D01*
X174243500Y9345752D01*
X174243500Y9785248D01*
X174231867Y9843731D01*
X174187552Y9910052D01*
X174177579Y9916716D01*
X174121233Y9954366D01*
X174121231Y9954367D01*
X174121228Y9954368D01*
X174121227Y9954368D01*
X174062758Y9965999D01*
X174062748Y9966000D01*
X173223252Y9966000D01*
X173223251Y9966000D01*
X173223241Y9965999D01*
X173164772Y9954368D01*
X173164766Y9954366D01*
X173090341Y9904635D01*
X173088807Y9906931D01*
X173047570Y9885926D01*
X173042991Y9886652D01*
X173051685Y9831819D01*
X173050999Y9827977D01*
X173042500Y9785252D01*
X173042500Y9345754D01*
X173042501Y9345742D01*
X173053764Y9289124D01*
X173054133Y9287269D01*
X173098448Y9220948D01*
X173098450Y9220947D01*
X173098746Y9220504D01*
X173115355Y9161616D01*
X173098746Y9110499D01*
X173054134Y9043734D01*
X173054132Y9043728D01*
X173042501Y8985259D01*
X173042500Y8985247D01*
X173042500Y8545754D01*
X173042501Y8545742D01*
X173053160Y8492161D01*
X173054133Y8487269D01*
X173098448Y8420948D01*
X173098450Y8420947D01*
X173098746Y8420504D01*
X173115355Y8361616D01*
X173098746Y8310499D01*
X173054134Y8243734D01*
X173054132Y8243728D01*
X173042501Y8185259D01*
X173042500Y8185247D01*
X173042500Y7745754D01*
X173042501Y7745742D01*
X173053309Y7691412D01*
X173054133Y7687269D01*
X173098448Y7620948D01*
X173098450Y7620947D01*
X173098746Y7620504D01*
X173115355Y7561616D01*
X173098746Y7510499D01*
X173054134Y7443734D01*
X173054132Y7443728D01*
X173042501Y7385259D01*
X173042500Y7385247D01*
X173042500Y6945754D01*
X173042501Y6945742D01*
X173054132Y6887273D01*
X173054133Y6887269D01*
X173098448Y6820948D01*
X173098450Y6820947D01*
X173098746Y6820504D01*
X173115355Y6761616D01*
X173098746Y6710499D01*
X173054134Y6643734D01*
X173054132Y6643728D01*
X173042501Y6585259D01*
X173042500Y6585247D01*
X173042500Y6145754D01*
X173042501Y6145742D01*
X173054132Y6087273D01*
X173054133Y6087269D01*
X173098448Y6020948D01*
X173098450Y6020947D01*
X173098746Y6020504D01*
X173115355Y5961616D01*
X173098746Y5910499D01*
X173054134Y5843734D01*
X173054132Y5843728D01*
X173042501Y5785259D01*
X173042500Y5785247D01*
X173042500Y5345754D01*
X173042501Y5345742D01*
X173049958Y5308257D01*
X173054133Y5287269D01*
X173098448Y5220948D01*
X173098450Y5220947D01*
X173098746Y5220504D01*
X173115355Y5161616D01*
X173098746Y5110499D01*
X173054134Y5043734D01*
X173054132Y5043728D01*
X173042501Y4985259D01*
X173042500Y4985247D01*
X173042500Y4545754D01*
X173042501Y4545742D01*
X173054132Y4487273D01*
X173054133Y4487269D01*
X173098448Y4420948D01*
X173098450Y4420947D01*
X173098746Y4420504D01*
X173115355Y4361616D01*
X173098746Y4310499D01*
X173054134Y4243734D01*
X173054132Y4243728D01*
X173042501Y4185259D01*
X173042500Y4185247D01*
X173042500Y3745754D01*
X173042501Y3745742D01*
X173050246Y3706809D01*
X173054133Y3687269D01*
X173098448Y3620948D01*
X173098450Y3620947D01*
X173098746Y3620504D01*
X173115355Y3561616D01*
X173098746Y3510499D01*
X173054134Y3443734D01*
X173054132Y3443728D01*
X173042501Y3385259D01*
X173042500Y3385247D01*
X173042500Y2945754D01*
X173042501Y2945742D01*
X173054132Y2887273D01*
X173054133Y2887269D01*
X173098448Y2820948D01*
X173098450Y2820947D01*
X173098746Y2820504D01*
X173115355Y2761616D01*
X173098746Y2710499D01*
X173054134Y2643734D01*
X173054132Y2643728D01*
X173042501Y2585259D01*
X173042500Y2585247D01*
X173042500Y2145754D01*
X173042501Y2145742D01*
X173046576Y2125259D01*
X173054133Y2087269D01*
X173098448Y2020948D01*
X173098450Y2020947D01*
X173098746Y2020504D01*
X173115355Y1961616D01*
X173098746Y1910499D01*
X173054134Y1843734D01*
X173054132Y1843728D01*
X173042501Y1785259D01*
X173042500Y1785247D01*
X173042500Y1345754D01*
X1080650Y1345754D01*
X894076Y1576154D01*
X891044Y1580327D01*
X717165Y1848077D01*
X714582Y1852550D01*
X569642Y2137012D01*
X567534Y2141748D01*
X453132Y2439774D01*
X451529Y2444705D01*
X368899Y2753088D01*
X367828Y2758123D01*
X322907Y3041740D01*
X155029000Y3041740D01*
X155035617Y2996319D01*
X155038927Y2973605D01*
X155052543Y2945754D01*
X155090302Y2868517D01*
X155173017Y2785802D01*
X155206599Y2769385D01*
X155278104Y2734428D01*
X155278105Y2734428D01*
X155278107Y2734427D01*
X155346240Y2724500D01*
X155456500Y2724500D01*
X155514691Y2705593D01*
X155550655Y2656093D01*
X155555500Y2625500D01*
X155555500Y2532912D01*
X155536593Y2474721D01*
X155516768Y2454370D01*
X155441720Y2396784D01*
X155441713Y2396777D01*
X155345462Y2271340D01*
X155345462Y2271339D01*
X155284957Y2125267D01*
X155284955Y2125259D01*
X155264318Y1968501D01*
X155264318Y1968500D01*
X155284955Y1811742D01*
X155284957Y1811734D01*
X155345462Y1665662D01*
X155345462Y1665661D01*
X155441713Y1540224D01*
X155441718Y1540218D01*
X155567159Y1443964D01*
X155713238Y1383456D01*
X155830809Y1367978D01*
X155869999Y1362818D01*
X155870000Y1362818D01*
X155870001Y1362818D01*
X155901352Y1366946D01*
X156026762Y1383456D01*
X156172841Y1443964D01*
X156298282Y1540218D01*
X156394536Y1665659D01*
X156455044Y1811738D01*
X156475682Y1968500D01*
X156475565Y1969385D01*
X156460046Y2087269D01*
X156455044Y2125262D01*
X156394537Y2271339D01*
X156394537Y2271340D01*
X156298286Y2396777D01*
X156298285Y2396778D01*
X156298282Y2396782D01*
X156298277Y2396786D01*
X156298275Y2396788D01*
X156245232Y2437490D01*
X156210577Y2487914D01*
X156206500Y2516031D01*
X156206500Y2625500D01*
X156225407Y2683691D01*
X156274907Y2719655D01*
X156305500Y2724500D01*
X156437757Y2724500D01*
X156437760Y2724500D01*
X156505893Y2734427D01*
X156610983Y2785802D01*
X156693698Y2868517D01*
X156745073Y2973607D01*
X156755000Y3041740D01*
X157304000Y3041740D01*
X157310618Y2996319D01*
X157313927Y2973605D01*
X157327543Y2945754D01*
X157365302Y2868517D01*
X157448017Y2785802D01*
X157481599Y2769385D01*
X157553104Y2734428D01*
X157553105Y2734428D01*
X157553107Y2734427D01*
X157621240Y2724500D01*
X157634301Y2724500D01*
X157675426Y2715554D01*
X157752543Y2680335D01*
X157770319Y2677780D01*
X157859196Y2665000D01*
X157859201Y2665000D01*
X159374245Y2665000D01*
X159432436Y2646093D01*
X159438959Y2640522D01*
X159441778Y2638474D01*
X159441780Y2638472D01*
X159441782Y2638471D01*
X159561867Y2577284D01*
X159561869Y2577284D01*
X159561874Y2577281D01*
X159637541Y2565297D01*
X159661510Y2561500D01*
X159661512Y2561500D01*
X160228490Y2561500D01*
X160249885Y2564889D01*
X160328126Y2577281D01*
X160448220Y2638472D01*
X160448224Y2638477D01*
X160454525Y2643053D01*
X160455892Y2641172D01*
X160500268Y2663781D01*
X160515755Y2665000D01*
X161807201Y2665000D01*
X162615044Y2665000D01*
X162636090Y2662737D01*
X162637330Y2662468D01*
X162643427Y2661141D01*
X162690912Y2664538D01*
X162695619Y2664874D01*
X162699152Y2665000D01*
X162715299Y2665000D01*
X162731299Y2667301D01*
X162734772Y2667676D01*
X162786983Y2671409D01*
X162794015Y2674033D01*
X162814522Y2679267D01*
X162821957Y2680335D01*
X162869549Y2702071D01*
X162872795Y2703416D01*
X162921831Y2721704D01*
X162927841Y2726204D01*
X162946049Y2737008D01*
X162952873Y2740123D01*
X162992417Y2774390D01*
X162995142Y2776586D01*
X163008093Y2786279D01*
X163019542Y2797730D01*
X163022079Y2800092D01*
X163061643Y2834372D01*
X163065702Y2840689D01*
X163078977Y2857165D01*
X163301335Y3079523D01*
X163317811Y3092798D01*
X163324128Y3096857D01*
X163358408Y3136421D01*
X163360770Y3138958D01*
X163372221Y3150407D01*
X163381914Y3163358D01*
X163384110Y3166083D01*
X163418377Y3205627D01*
X163421492Y3212451D01*
X163432296Y3230658D01*
X163432921Y3231494D01*
X163436796Y3236669D01*
X163455084Y3285705D01*
X163456432Y3288957D01*
X163478165Y3336543D01*
X163479233Y3343978D01*
X163484467Y3364485D01*
X163487091Y3371517D01*
X163490824Y3423728D01*
X163491199Y3427201D01*
X163493500Y3443201D01*
X163493500Y3459349D01*
X163493626Y3462882D01*
X163494592Y3476393D01*
X163497359Y3515073D01*
X163495762Y3522415D01*
X163493500Y3543458D01*
X163493500Y6589544D01*
X163495763Y6610592D01*
X163497359Y6617927D01*
X163493626Y6670120D01*
X163493500Y6673653D01*
X163493500Y6689799D01*
X163493500Y6689800D01*
X163491198Y6705804D01*
X163490825Y6709271D01*
X163487091Y6761483D01*
X163484468Y6768516D01*
X163479233Y6789025D01*
X163478165Y6796457D01*
X163456425Y6844059D01*
X163455077Y6847315D01*
X163440176Y6887267D01*
X163436796Y6896331D01*
X163432291Y6902349D01*
X163421495Y6920546D01*
X163418377Y6927373D01*
X163418375Y6927375D01*
X163418375Y6927376D01*
X163402460Y6945742D01*
X163384102Y6966929D01*
X163381898Y6969664D01*
X163372220Y6982593D01*
X163360794Y6994020D01*
X163358386Y6996607D01*
X163324129Y7036142D01*
X163324128Y7036143D01*
X163317805Y7040207D01*
X163301327Y7053486D01*
X162880982Y7473832D01*
X162867701Y7490313D01*
X162863643Y7496628D01*
X162847635Y7510499D01*
X162824103Y7530890D01*
X162821526Y7533289D01*
X162810095Y7544719D01*
X162810093Y7544721D01*
X162797136Y7554420D01*
X162794417Y7556612D01*
X162754873Y7590877D01*
X162748038Y7593999D01*
X162729848Y7604792D01*
X162728793Y7605582D01*
X162723831Y7609296D01*
X162723828Y7609297D01*
X162723827Y7609298D01*
X162674814Y7627579D01*
X162671549Y7628931D01*
X162623958Y7650665D01*
X162623954Y7650666D01*
X162616514Y7651736D01*
X162596020Y7656967D01*
X162588982Y7659592D01*
X162536795Y7663325D01*
X162533273Y7663704D01*
X162528394Y7664406D01*
X162473491Y7691412D01*
X162444947Y7745531D01*
X162443500Y7762396D01*
X162443500Y8185247D01*
X162443498Y8185259D01*
X162438585Y8209958D01*
X162431867Y8243731D01*
X162387552Y8310052D01*
X162387549Y8310054D01*
X162387253Y8310497D01*
X162370644Y8369385D01*
X162387253Y8420503D01*
X162387549Y8420947D01*
X162387552Y8420948D01*
X162431867Y8487269D01*
X162443500Y8545752D01*
X162443500Y8985248D01*
X162443449Y8985502D01*
X162432321Y9041448D01*
X162431867Y9043731D01*
X162387552Y9110052D01*
X162387548Y9110055D01*
X162321233Y9154366D01*
X162321231Y9154367D01*
X162321228Y9154368D01*
X162321227Y9154368D01*
X162262758Y9165999D01*
X162262748Y9166000D01*
X161423252Y9166000D01*
X161423251Y9166000D01*
X161423241Y9165999D01*
X161364772Y9154368D01*
X161364766Y9154366D01*
X161298451Y9110055D01*
X161298445Y9110049D01*
X161254134Y9043734D01*
X161254132Y9043728D01*
X161242501Y8985259D01*
X161242500Y8985247D01*
X161242500Y8545754D01*
X161242501Y8545742D01*
X161254132Y8487273D01*
X161254134Y8487267D01*
X161298746Y8420502D01*
X161315355Y8361614D01*
X161298746Y8310498D01*
X161254134Y8243734D01*
X161254132Y8243728D01*
X161242501Y8185259D01*
X161242500Y8185247D01*
X161242500Y7745754D01*
X161242501Y7745742D01*
X161254132Y7687273D01*
X161254134Y7687267D01*
X161298746Y7620502D01*
X161315355Y7561614D01*
X161298746Y7510498D01*
X161254134Y7443734D01*
X161254132Y7443728D01*
X161242501Y7385259D01*
X161242500Y7385247D01*
X161242500Y6945754D01*
X161242501Y6945742D01*
X161254132Y6887273D01*
X161254134Y6887267D01*
X161298746Y6820502D01*
X161315355Y6761614D01*
X161298746Y6710498D01*
X161254134Y6643734D01*
X161254132Y6643728D01*
X161242501Y6585259D01*
X161242500Y6585247D01*
X161242500Y6145754D01*
X161242501Y6145742D01*
X161254132Y6087273D01*
X161254134Y6087267D01*
X161298746Y6020502D01*
X161315355Y5961614D01*
X161298746Y5910498D01*
X161254134Y5843734D01*
X161254132Y5843728D01*
X161242501Y5785259D01*
X161242500Y5785247D01*
X161242500Y5345754D01*
X161242501Y5345742D01*
X161254132Y5287273D01*
X161254134Y5287267D01*
X161298746Y5220502D01*
X161315355Y5161614D01*
X161298746Y5110498D01*
X161254134Y5043734D01*
X161254132Y5043728D01*
X161242501Y4985259D01*
X161242500Y4985247D01*
X161242500Y4545754D01*
X161242501Y4545742D01*
X161254132Y4487273D01*
X161254134Y4487267D01*
X161298746Y4420502D01*
X161315355Y4361614D01*
X161298746Y4310498D01*
X161254134Y4243734D01*
X161254132Y4243728D01*
X161242501Y4185259D01*
X161242500Y4185247D01*
X161242500Y3765000D01*
X161223593Y3706809D01*
X161174093Y3670845D01*
X161143500Y3666000D01*
X160608755Y3666000D01*
X160550564Y3684907D01*
X160538757Y3694991D01*
X160448220Y3785528D01*
X160448217Y3785530D01*
X160328132Y3846717D01*
X160328127Y3846719D01*
X160328126Y3846719D01*
X160294913Y3851980D01*
X160228490Y3862500D01*
X160228488Y3862500D01*
X159661512Y3862500D01*
X159661510Y3862500D01*
X159561874Y3846719D01*
X159561867Y3846717D01*
X159441782Y3785530D01*
X159441780Y3785529D01*
X159441780Y3785528D01*
X159351246Y3694995D01*
X159296732Y3667219D01*
X159281245Y3666000D01*
X158905201Y3666000D01*
X158861721Y3676059D01*
X158780895Y3715573D01*
X158753639Y3719544D01*
X158712760Y3725500D01*
X157621240Y3725500D01*
X157587173Y3720537D01*
X157553104Y3715573D01*
X157448018Y3664199D01*
X157365301Y3581482D01*
X157313927Y3476396D01*
X157310809Y3454996D01*
X157304000Y3408260D01*
X157304000Y3041740D01*
X156755000Y3041740D01*
X156755000Y3408260D01*
X156745073Y3476393D01*
X156693698Y3581483D01*
X156610983Y3664198D01*
X156607297Y3666000D01*
X156505895Y3715573D01*
X156478639Y3719544D01*
X156437760Y3725500D01*
X155346240Y3725500D01*
X155312173Y3720537D01*
X155278104Y3715573D01*
X155173018Y3664199D01*
X155090301Y3581482D01*
X155038927Y3476396D01*
X155035809Y3454996D01*
X155029000Y3408260D01*
X155029000Y3041740D01*
X322907Y3041740D01*
X317882Y3073467D01*
X317344Y3078590D01*
X300567Y3398706D01*
X300500Y3401290D01*
X300500Y4941740D01*
X155029000Y4941740D01*
X155035617Y4896318D01*
X155038927Y4873605D01*
X155090301Y4768519D01*
X155090302Y4768517D01*
X155173017Y4685802D01*
X155226785Y4659517D01*
X155278104Y4634428D01*
X155278105Y4634428D01*
X155278107Y4634427D01*
X155346240Y4624500D01*
X155346243Y4624500D01*
X156437757Y4624500D01*
X156437760Y4624500D01*
X156505893Y4634427D01*
X156610983Y4685802D01*
X156693698Y4768517D01*
X156745073Y4873607D01*
X156755000Y4941740D01*
X157304000Y4941740D01*
X157310618Y4896318D01*
X157313927Y4873605D01*
X157365301Y4768519D01*
X157365302Y4768517D01*
X157448017Y4685802D01*
X157501785Y4659517D01*
X157553104Y4634428D01*
X157553105Y4634428D01*
X157553107Y4634427D01*
X157621240Y4624500D01*
X157621243Y4624500D01*
X158712757Y4624500D01*
X158712760Y4624500D01*
X158780893Y4634427D01*
X158885983Y4685802D01*
X158968698Y4768517D01*
X159020073Y4873607D01*
X159030000Y4941740D01*
X159030000Y5308260D01*
X159020073Y5376393D01*
X158968698Y5481483D01*
X158885983Y5564198D01*
X158882297Y5566000D01*
X158780895Y5615573D01*
X158753639Y5619544D01*
X158712760Y5625500D01*
X157621240Y5625500D01*
X157587173Y5620537D01*
X157553104Y5615573D01*
X157448018Y5564199D01*
X157365301Y5481482D01*
X157313927Y5376396D01*
X157313927Y5376393D01*
X157304000Y5308260D01*
X157304000Y4941740D01*
X156755000Y4941740D01*
X156755000Y5308260D01*
X156745073Y5376393D01*
X156693698Y5481483D01*
X156610983Y5564198D01*
X156607297Y5566000D01*
X156505895Y5615573D01*
X156478639Y5619544D01*
X156437760Y5625500D01*
X156437757Y5625500D01*
X156305500Y5625500D01*
X156247309Y5644407D01*
X156211345Y5693907D01*
X156206500Y5724500D01*
X156206500Y6043990D01*
X156225407Y6102181D01*
X156260555Y6132199D01*
X156345179Y6175318D01*
X156359220Y6182472D01*
X156454528Y6277780D01*
X156513262Y6393053D01*
X156556526Y6436316D01*
X156616958Y6445887D01*
X156671475Y6418109D01*
X156680010Y6408377D01*
X156722718Y6352718D01*
X156848159Y6256464D01*
X156994238Y6195956D01*
X157111809Y6180478D01*
X157150999Y6175318D01*
X157151000Y6175318D01*
X157151001Y6175318D01*
X157182352Y6179446D01*
X157307762Y6195956D01*
X157453841Y6256464D01*
X157579282Y6352718D01*
X157675536Y6478159D01*
X157736044Y6624238D01*
X157756682Y6781000D01*
X157755625Y6789025D01*
X157748170Y6845654D01*
X157736044Y6937762D01*
X157732739Y6945742D01*
X157675537Y7083839D01*
X157675537Y7083840D01*
X157579286Y7209277D01*
X157579285Y7209278D01*
X157579282Y7209282D01*
X157579277Y7209286D01*
X157579276Y7209287D01*
X157481622Y7284219D01*
X157453841Y7305536D01*
X157453840Y7305537D01*
X157453838Y7305538D01*
X157307766Y7366043D01*
X157307758Y7366045D01*
X157151001Y7386682D01*
X157150999Y7386682D01*
X156994241Y7366045D01*
X156994233Y7366043D01*
X156848161Y7305538D01*
X156848160Y7305538D01*
X156722723Y7209287D01*
X156722713Y7209277D01*
X156680013Y7153628D01*
X156629589Y7118972D01*
X156568424Y7120573D01*
X156519883Y7157821D01*
X156513262Y7168949D01*
X156454529Y7284218D01*
X156454528Y7284220D01*
X156359220Y7379528D01*
X156359217Y7379530D01*
X156239132Y7440717D01*
X156239127Y7440719D01*
X156239126Y7440719D01*
X156205913Y7445980D01*
X156139490Y7456500D01*
X156139488Y7456500D01*
X155622512Y7456500D01*
X155622510Y7456500D01*
X155522874Y7440719D01*
X155522867Y7440717D01*
X155402782Y7379530D01*
X155307470Y7284218D01*
X155246283Y7164133D01*
X155246281Y7164126D01*
X155230500Y7064490D01*
X155230500Y6497511D01*
X155246281Y6397875D01*
X155246283Y6397868D01*
X155307470Y6277783D01*
X155307472Y6277780D01*
X155402780Y6182472D01*
X155402782Y6182471D01*
X155501445Y6132199D01*
X155544710Y6088935D01*
X155555500Y6043990D01*
X155555500Y5724500D01*
X155536593Y5666309D01*
X155487093Y5630345D01*
X155456500Y5625500D01*
X155346240Y5625500D01*
X155312173Y5620537D01*
X155278104Y5615573D01*
X155173018Y5564199D01*
X155090301Y5481482D01*
X155038927Y5376396D01*
X155038927Y5376393D01*
X155029000Y5308260D01*
X155029000Y4941740D01*
X300500Y4941740D01*
X300500Y11000000D01*
X46994415Y11000000D01*
X47014738Y10651071D01*
X47075430Y10306867D01*
X47075430Y10306866D01*
X47175672Y9972035D01*
X47175674Y9972028D01*
X47268969Y9755747D01*
X47314111Y9651096D01*
X47488870Y9348404D01*
X47697588Y9068047D01*
X47937442Y8813817D01*
X48205189Y8589151D01*
X48399534Y8461328D01*
X48483413Y8406159D01*
X48497207Y8397087D01*
X48809549Y8240223D01*
X49137989Y8120681D01*
X49137992Y8120681D01*
X49137993Y8120680D01*
X49478075Y8040079D01*
X49478080Y8040079D01*
X49478086Y8040077D01*
X49825241Y7999500D01*
X49825244Y7999500D01*
X50174756Y7999500D01*
X50174759Y7999500D01*
X50521914Y8040077D01*
X50521920Y8040079D01*
X50521924Y8040079D01*
X50748645Y8093814D01*
X50862011Y8120681D01*
X51190451Y8240223D01*
X51502793Y8397087D01*
X51794811Y8589151D01*
X52062558Y8813817D01*
X52302412Y9068047D01*
X52511130Y9348404D01*
X52685889Y9651096D01*
X52824326Y9972029D01*
X52846398Y10045754D01*
X162542500Y10045754D01*
X162542501Y10045742D01*
X162554132Y9987273D01*
X162554134Y9987267D01*
X162576118Y9954366D01*
X162598448Y9920948D01*
X162664769Y9876633D01*
X162709231Y9867789D01*
X162723241Y9865002D01*
X162723246Y9865002D01*
X162723252Y9865000D01*
X162723253Y9865000D01*
X163162747Y9865000D01*
X163162748Y9865000D01*
X163221231Y9876633D01*
X163287552Y9920948D01*
X163287553Y9920951D01*
X163287996Y9921246D01*
X163346883Y9937856D01*
X163398001Y9921247D01*
X163398447Y9920949D01*
X163398448Y9920948D01*
X163464769Y9876633D01*
X163509231Y9867789D01*
X163523241Y9865002D01*
X163523246Y9865002D01*
X163523252Y9865000D01*
X163523253Y9865000D01*
X163962747Y9865000D01*
X163962748Y9865000D01*
X164021231Y9876633D01*
X164087552Y9920948D01*
X164131867Y9987269D01*
X164143500Y10045752D01*
X164143500Y10045754D01*
X164942500Y10045754D01*
X164942501Y10045742D01*
X164954132Y9987273D01*
X164954134Y9987267D01*
X164976118Y9954366D01*
X164998448Y9920948D01*
X165064769Y9876633D01*
X165109231Y9867789D01*
X165123241Y9865002D01*
X165123246Y9865002D01*
X165123252Y9865000D01*
X165123253Y9865000D01*
X165562747Y9865000D01*
X165562748Y9865000D01*
X165621231Y9876633D01*
X165687552Y9920948D01*
X165687553Y9920951D01*
X165687996Y9921246D01*
X165746883Y9937856D01*
X165798001Y9921247D01*
X165798447Y9920949D01*
X165798448Y9920948D01*
X165864769Y9876633D01*
X165909231Y9867789D01*
X165923241Y9865002D01*
X165923246Y9865002D01*
X165923252Y9865000D01*
X165923253Y9865000D01*
X166362747Y9865000D01*
X166362748Y9865000D01*
X166421231Y9876633D01*
X166487552Y9920948D01*
X166487553Y9920951D01*
X166487996Y9921246D01*
X166546883Y9937856D01*
X166598001Y9921247D01*
X166598447Y9920949D01*
X166598448Y9920948D01*
X166664769Y9876633D01*
X166709231Y9867789D01*
X166723241Y9865002D01*
X166723246Y9865002D01*
X166723252Y9865000D01*
X166723253Y9865000D01*
X167162747Y9865000D01*
X167162748Y9865000D01*
X167221231Y9876633D01*
X167263497Y9904876D01*
X167322385Y9921484D01*
X167379788Y9900307D01*
X167413782Y9849434D01*
X167417499Y9822560D01*
X167417499Y8437026D01*
X167417500Y8437021D01*
X167432411Y8352457D01*
X167432411Y8352456D01*
X167432412Y8352455D01*
X167479749Y8270464D01*
X167489807Y8253044D01*
X167570602Y8185248D01*
X167577739Y8179260D01*
X167685606Y8140000D01*
X167685607Y8140000D01*
X167800393Y8140000D01*
X167800394Y8140000D01*
X167908260Y8179260D01*
X167996194Y8253045D01*
X168053588Y8352455D01*
X168053588Y8352457D01*
X168057263Y8358821D01*
X168102732Y8399763D01*
X168163583Y8406159D01*
X168216571Y8375566D01*
X168228737Y8358821D01*
X168232411Y8352456D01*
X168232412Y8352455D01*
X168256893Y8310052D01*
X168289806Y8253045D01*
X168370602Y8185248D01*
X168377739Y8179260D01*
X168485606Y8140000D01*
X168485607Y8140000D01*
X168600393Y8140000D01*
X168600394Y8140000D01*
X168708260Y8179260D01*
X168796194Y8253045D01*
X168853588Y8352455D01*
X168853588Y8352457D01*
X168857263Y8358821D01*
X168902732Y8399763D01*
X168963583Y8406159D01*
X169016571Y8375566D01*
X169028737Y8358821D01*
X169032411Y8352456D01*
X169032412Y8352455D01*
X169056893Y8310052D01*
X169089806Y8253045D01*
X169170602Y8185248D01*
X169177739Y8179260D01*
X169285606Y8140000D01*
X169285607Y8140000D01*
X169400393Y8140000D01*
X169400394Y8140000D01*
X169508260Y8179260D01*
X169596194Y8253045D01*
X169653588Y8352455D01*
X169668500Y8437025D01*
X169668500Y9822565D01*
X169687406Y9880752D01*
X169736906Y9916716D01*
X169798092Y9916716D01*
X169822501Y9904876D01*
X169822862Y9904635D01*
X169864769Y9876633D01*
X169909231Y9867789D01*
X169923241Y9865002D01*
X169923246Y9865002D01*
X169923252Y9865000D01*
X169923253Y9865000D01*
X170362747Y9865000D01*
X170362748Y9865000D01*
X170421231Y9876633D01*
X170487552Y9920948D01*
X170487553Y9920951D01*
X170487996Y9921246D01*
X170546883Y9937856D01*
X170598001Y9921247D01*
X170598447Y9920949D01*
X170598448Y9920948D01*
X170664769Y9876633D01*
X170709231Y9867789D01*
X170723241Y9865002D01*
X170723246Y9865002D01*
X170723252Y9865000D01*
X170723253Y9865000D01*
X171162747Y9865000D01*
X171162748Y9865000D01*
X171221231Y9876633D01*
X171287552Y9920948D01*
X171287553Y9920951D01*
X171287996Y9921246D01*
X171346883Y9937856D01*
X171398001Y9921247D01*
X171398447Y9920949D01*
X171398448Y9920948D01*
X171464769Y9876633D01*
X171509231Y9867789D01*
X171523241Y9865002D01*
X171523246Y9865002D01*
X171523252Y9865000D01*
X171523253Y9865000D01*
X171962747Y9865000D01*
X171962748Y9865000D01*
X172021231Y9876633D01*
X172087552Y9920948D01*
X172087553Y9920951D01*
X172087996Y9921246D01*
X172146883Y9937856D01*
X172198001Y9921247D01*
X172198447Y9920949D01*
X172198448Y9920948D01*
X172264769Y9876633D01*
X172309231Y9867789D01*
X172323241Y9865002D01*
X172323246Y9865002D01*
X172323252Y9865000D01*
X172323253Y9865000D01*
X172762747Y9865000D01*
X172762748Y9865000D01*
X172821231Y9876633D01*
X172887552Y9920948D01*
X172887552Y9920949D01*
X172895659Y9926365D01*
X172897194Y9924068D01*
X172938399Y9945070D01*
X172943000Y9944342D01*
X172934319Y9999212D01*
X172935001Y10003026D01*
X172943499Y10045745D01*
X172943500Y10045754D01*
X172943500Y10885247D01*
X172943498Y10885259D01*
X172938439Y10910692D01*
X172931867Y10943731D01*
X172894269Y11000000D01*
X181994415Y11000000D01*
X182014738Y10651071D01*
X182075430Y10306867D01*
X182075430Y10306866D01*
X182175672Y9972035D01*
X182175674Y9972028D01*
X182268969Y9755747D01*
X182314111Y9651096D01*
X182488870Y9348404D01*
X182697588Y9068047D01*
X182937442Y8813817D01*
X183205189Y8589151D01*
X183399534Y8461328D01*
X183483413Y8406159D01*
X183497207Y8397087D01*
X183809549Y8240223D01*
X184137989Y8120681D01*
X184137992Y8120681D01*
X184137993Y8120680D01*
X184478075Y8040079D01*
X184478080Y8040079D01*
X184478086Y8040077D01*
X184825241Y7999500D01*
X184825244Y7999500D01*
X185174756Y7999500D01*
X185174759Y7999500D01*
X185521914Y8040077D01*
X185521920Y8040079D01*
X185521924Y8040079D01*
X185748645Y8093813D01*
X185862011Y8120681D01*
X186190451Y8240223D01*
X186502793Y8397087D01*
X186794811Y8589151D01*
X187062558Y8813817D01*
X187302412Y9068047D01*
X187511130Y9348404D01*
X187685889Y9651096D01*
X187824326Y9972029D01*
X187924569Y10306864D01*
X187985262Y10651073D01*
X188005585Y11000000D01*
X187985262Y11348927D01*
X187924569Y11693136D01*
X187824326Y12027971D01*
X187685889Y12348904D01*
X187511130Y12651596D01*
X187302412Y12931953D01*
X187062558Y13186183D01*
X186794811Y13410849D01*
X186700157Y13473104D01*
X186502794Y13602913D01*
X186190453Y13759776D01*
X186190452Y13759777D01*
X186190451Y13759777D01*
X185862011Y13879319D01*
X185862012Y13879319D01*
X185862006Y13879321D01*
X185521924Y13959922D01*
X185409089Y13973111D01*
X185174759Y14000500D01*
X184825241Y14000500D01*
X184633950Y13978142D01*
X184478075Y13959922D01*
X184137993Y13879321D01*
X183941191Y13807691D01*
X183809549Y13759777D01*
X183809548Y13759777D01*
X183809546Y13759776D01*
X183497205Y13602913D01*
X183205190Y13410850D01*
X182937443Y13186185D01*
X182697591Y12931957D01*
X182488871Y12651598D01*
X182488869Y12651595D01*
X182314111Y12348905D01*
X182314108Y12348898D01*
X182175674Y12027973D01*
X182175672Y12027966D01*
X182075430Y11693135D01*
X182075430Y11693134D01*
X182014738Y11348930D01*
X181994415Y11000000D01*
X172894269Y11000000D01*
X172887552Y11010052D01*
X172887548Y11010055D01*
X172821233Y11054366D01*
X172821231Y11054367D01*
X172821228Y11054368D01*
X172821227Y11054368D01*
X172762758Y11065999D01*
X172762748Y11066000D01*
X172323252Y11066000D01*
X172323251Y11066000D01*
X172323241Y11065999D01*
X172264772Y11054368D01*
X172264766Y11054366D01*
X172198001Y11009754D01*
X172139112Y10993145D01*
X172087996Y11009754D01*
X172087553Y11010050D01*
X172087552Y11010052D01*
X172021231Y11054367D01*
X172021228Y11054368D01*
X172021227Y11054368D01*
X171962758Y11065999D01*
X171962748Y11066000D01*
X171523252Y11066000D01*
X171523251Y11066000D01*
X171523241Y11065999D01*
X171464772Y11054368D01*
X171464766Y11054366D01*
X171398001Y11009754D01*
X171339112Y10993145D01*
X171287996Y11009754D01*
X171287553Y11010050D01*
X171287552Y11010052D01*
X171221231Y11054367D01*
X171221228Y11054368D01*
X171221227Y11054368D01*
X171162758Y11065999D01*
X171162748Y11066000D01*
X170723252Y11066000D01*
X170723251Y11066000D01*
X170723241Y11065999D01*
X170664772Y11054368D01*
X170664766Y11054366D01*
X170598001Y11009754D01*
X170539112Y10993145D01*
X170487996Y11009754D01*
X170487553Y11010050D01*
X170487552Y11010052D01*
X170421231Y11054367D01*
X170421228Y11054368D01*
X170421227Y11054368D01*
X170362758Y11065999D01*
X170362748Y11066000D01*
X169923252Y11066000D01*
X169923251Y11066000D01*
X169923241Y11065999D01*
X169864772Y11054368D01*
X169864766Y11054366D01*
X169822502Y11026125D01*
X169763614Y11009516D01*
X169706210Y11030693D01*
X169672217Y11081567D01*
X169668500Y11108440D01*
X169668500Y11916167D01*
X169687407Y11974358D01*
X169697496Y11986171D01*
X170318583Y12607258D01*
X170321760Y12610171D01*
X170353194Y12636545D01*
X170373714Y12672089D01*
X170376012Y12675697D01*
X170399554Y12709316D01*
X170399941Y12710764D01*
X170409838Y12734655D01*
X170410588Y12735955D01*
X170417709Y12776344D01*
X170418640Y12780548D01*
X170429264Y12820193D01*
X170425687Y12861080D01*
X170425500Y12865354D01*
X170425500Y14092121D01*
X170444407Y14150312D01*
X170493906Y14186275D01*
X170500299Y14188353D01*
X170500299Y14188354D01*
X170500304Y14188354D01*
X170613342Y14245950D01*
X170703050Y14335658D01*
X170760646Y14448696D01*
X170775500Y14542481D01*
X170775499Y15005518D01*
X170766034Y15065282D01*
X170760647Y15099300D01*
X170760646Y15099302D01*
X170760646Y15099304D01*
X170703050Y15212342D01*
X170613342Y15302050D01*
X170500304Y15359646D01*
X170500305Y15359646D01*
X170406522Y15374500D01*
X169793479Y15374500D01*
X169793476Y15374499D01*
X169699700Y15359648D01*
X169699695Y15359646D01*
X169586659Y15302051D01*
X169496949Y15212341D01*
X169439354Y15099305D01*
X169424500Y15005523D01*
X169424500Y14542480D01*
X169424501Y14542477D01*
X169439352Y14448701D01*
X169439354Y14448696D01*
X169496950Y14335658D01*
X169586658Y14245950D01*
X169699696Y14188354D01*
X169699700Y14188354D01*
X169706085Y14186279D01*
X169755588Y14150319D01*
X169774500Y14092130D01*
X169774500Y13024835D01*
X169755593Y12966644D01*
X169745504Y12954831D01*
X169124413Y12333741D01*
X169121228Y12330824D01*
X169089807Y12304458D01*
X169089806Y12304456D01*
X169069292Y12268925D01*
X169066971Y12265283D01*
X169053249Y12245684D01*
X169048596Y12239039D01*
X168999732Y12202216D01*
X168938556Y12201147D01*
X168888435Y12236241D01*
X168868514Y12294093D01*
X168868499Y12295822D01*
X168868499Y12592660D01*
X168868499Y14092124D01*
X168887406Y14150312D01*
X168936906Y14186276D01*
X168936907Y14186276D01*
X168943294Y14188353D01*
X168943304Y14188354D01*
X169056342Y14245950D01*
X169146050Y14335658D01*
X169203646Y14448696D01*
X169218500Y14542481D01*
X169218499Y15005518D01*
X169209034Y15065282D01*
X169203647Y15099300D01*
X169203646Y15099302D01*
X169203646Y15099304D01*
X169146050Y15212342D01*
X169056342Y15302050D01*
X168943304Y15359646D01*
X168943305Y15359646D01*
X168849522Y15374500D01*
X168236479Y15374500D01*
X168236476Y15374499D01*
X168142700Y15359648D01*
X168142695Y15359646D01*
X168029659Y15302051D01*
X167939949Y15212341D01*
X167882354Y15099306D01*
X167869280Y15016763D01*
X167841502Y14962247D01*
X167786985Y14934470D01*
X167726553Y14944042D01*
X167683289Y14987307D01*
X167673718Y15016766D01*
X167660647Y15099300D01*
X167660646Y15099302D01*
X167660646Y15099304D01*
X167603050Y15212342D01*
X167513342Y15302050D01*
X167400304Y15359646D01*
X167400305Y15359646D01*
X167306522Y15374500D01*
X166693479Y15374500D01*
X166693476Y15374499D01*
X166599700Y15359648D01*
X166599695Y15359646D01*
X166486659Y15302051D01*
X166396949Y15212341D01*
X166339354Y15099305D01*
X166324500Y15005523D01*
X166324500Y14542480D01*
X166324501Y14542477D01*
X166339352Y14448701D01*
X166339354Y14448696D01*
X166396950Y14335658D01*
X166486658Y14245950D01*
X166599696Y14188354D01*
X166599700Y14188354D01*
X166606085Y14186279D01*
X166655588Y14150319D01*
X166674500Y14092130D01*
X166674500Y12865375D01*
X166674312Y12861073D01*
X166670736Y12820193D01*
X166676030Y12800433D01*
X166681354Y12780564D01*
X166682289Y12776348D01*
X166689411Y12735955D01*
X166690164Y12734652D01*
X166700054Y12710776D01*
X166700443Y12709321D01*
X166700445Y12709318D01*
X166700446Y12709316D01*
X166723968Y12675722D01*
X166723971Y12675719D01*
X166726288Y12672082D01*
X166738115Y12651598D01*
X166746806Y12636545D01*
X166778224Y12610182D01*
X166781410Y12607263D01*
X167388503Y12000171D01*
X167416280Y11945654D01*
X167417499Y11930167D01*
X167417499Y11108441D01*
X167398592Y11050250D01*
X167349092Y11014286D01*
X167287906Y11014286D01*
X167263498Y11026125D01*
X167221232Y11054366D01*
X167221233Y11054366D01*
X167221231Y11054367D01*
X167221228Y11054368D01*
X167221227Y11054368D01*
X167162758Y11065999D01*
X167162748Y11066000D01*
X166723252Y11066000D01*
X166723251Y11066000D01*
X166723241Y11065999D01*
X166664772Y11054368D01*
X166664766Y11054366D01*
X166598001Y11009754D01*
X166539112Y10993145D01*
X166487996Y11009754D01*
X166487553Y11010050D01*
X166487552Y11010052D01*
X166421231Y11054367D01*
X166421228Y11054368D01*
X166421227Y11054368D01*
X166362758Y11065999D01*
X166362748Y11066000D01*
X165923252Y11066000D01*
X165923251Y11066000D01*
X165923241Y11065999D01*
X165864772Y11054368D01*
X165864766Y11054366D01*
X165798001Y11009754D01*
X165739112Y10993145D01*
X165687996Y11009754D01*
X165687553Y11010050D01*
X165687552Y11010052D01*
X165621231Y11054367D01*
X165621228Y11054368D01*
X165621227Y11054368D01*
X165562758Y11065999D01*
X165562748Y11066000D01*
X165123252Y11066000D01*
X165123251Y11066000D01*
X165123241Y11065999D01*
X165064772Y11054368D01*
X165064766Y11054366D01*
X164998451Y11010055D01*
X164998445Y11010049D01*
X164954134Y10943734D01*
X164954132Y10943728D01*
X164942501Y10885259D01*
X164942500Y10885247D01*
X164942500Y10045754D01*
X164143500Y10045754D01*
X164143500Y10885248D01*
X164131867Y10943731D01*
X164087552Y11010052D01*
X164087548Y11010055D01*
X164021233Y11054366D01*
X164021231Y11054367D01*
X164021228Y11054368D01*
X164021227Y11054368D01*
X163962758Y11065999D01*
X163962748Y11066000D01*
X163523252Y11066000D01*
X163523251Y11066000D01*
X163523241Y11065999D01*
X163464772Y11054368D01*
X163464766Y11054366D01*
X163398001Y11009754D01*
X163339112Y10993145D01*
X163287996Y11009754D01*
X163287553Y11010050D01*
X163287552Y11010052D01*
X163221231Y11054367D01*
X163221228Y11054368D01*
X163221227Y11054368D01*
X163162758Y11065999D01*
X163162748Y11066000D01*
X162723252Y11066000D01*
X162723251Y11066000D01*
X162723241Y11065999D01*
X162664772Y11054368D01*
X162664766Y11054366D01*
X162598451Y11010055D01*
X162598445Y11010049D01*
X162554134Y10943734D01*
X162554132Y10943728D01*
X162542501Y10885259D01*
X162542500Y10885247D01*
X162542500Y10045754D01*
X52846398Y10045754D01*
X52924569Y10306864D01*
X52985262Y10651073D01*
X53005585Y11000000D01*
X52985262Y11348927D01*
X52924569Y11693136D01*
X52824326Y12027971D01*
X52685889Y12348904D01*
X52511130Y12651596D01*
X52302412Y12931953D01*
X52062558Y13186183D01*
X51794811Y13410849D01*
X51700157Y13473104D01*
X51502794Y13602913D01*
X51190453Y13759776D01*
X51190452Y13759777D01*
X51190451Y13759777D01*
X50862011Y13879319D01*
X50862012Y13879319D01*
X50862006Y13879321D01*
X50521924Y13959922D01*
X50409089Y13973111D01*
X50174759Y14000500D01*
X49825241Y14000500D01*
X49633950Y13978142D01*
X49478075Y13959922D01*
X49137993Y13879321D01*
X48941191Y13807691D01*
X48809549Y13759777D01*
X48809548Y13759777D01*
X48809546Y13759776D01*
X48497205Y13602913D01*
X48205190Y13410850D01*
X47937443Y13186185D01*
X47697591Y12931957D01*
X47488871Y12651598D01*
X47488869Y12651595D01*
X47314111Y12348905D01*
X47314108Y12348898D01*
X47175674Y12027973D01*
X47175672Y12027966D01*
X47075430Y11693135D01*
X47075430Y11693134D01*
X47014738Y11348930D01*
X46994415Y11000000D01*
X300500Y11000000D01*
X300500Y18348251D01*
X300909Y18354603D01*
X301735Y18361002D01*
X301737Y18361007D01*
X300520Y18403589D01*
X300500Y18405003D01*
X300500Y18413118D01*
X300514Y18414296D01*
X301721Y18465000D01*
X3510318Y18465000D01*
X3530955Y18308242D01*
X3530957Y18308234D01*
X3591462Y18162162D01*
X3591462Y18162161D01*
X3661341Y18071093D01*
X3687718Y18036718D01*
X3813159Y17940464D01*
X3959238Y17879956D01*
X4076809Y17864478D01*
X4115999Y17859318D01*
X4116000Y17859318D01*
X4116001Y17859318D01*
X4147352Y17863446D01*
X4272762Y17879956D01*
X4418841Y17940464D01*
X4544282Y18036718D01*
X4593428Y18100768D01*
X4643852Y18135423D01*
X4671970Y18139500D01*
X48518030Y18139500D01*
X48576221Y18120593D01*
X48596570Y18100769D01*
X48645718Y18036718D01*
X48771159Y17940464D01*
X48917238Y17879956D01*
X49034809Y17864478D01*
X49073999Y17859318D01*
X49074000Y17859318D01*
X49074001Y17859318D01*
X49105352Y17863446D01*
X49230762Y17879956D01*
X49376841Y17940464D01*
X49502282Y18036718D01*
X49551428Y18100768D01*
X49601852Y18135423D01*
X49629970Y18139500D01*
X93730030Y18139500D01*
X93788221Y18120593D01*
X93808570Y18100769D01*
X93857718Y18036718D01*
X93983159Y17940464D01*
X94129238Y17879956D01*
X94246809Y17864478D01*
X94285999Y17859318D01*
X94286000Y17859318D01*
X94286001Y17859318D01*
X94317352Y17863446D01*
X94442762Y17879956D01*
X94588841Y17940464D01*
X94714282Y18036718D01*
X94763428Y18100768D01*
X94813852Y18135423D01*
X94841970Y18139500D01*
X131087525Y18139500D01*
X138688030Y18139500D01*
X138746221Y18120593D01*
X138766570Y18100769D01*
X138815718Y18036718D01*
X138941159Y17940464D01*
X139087238Y17879956D01*
X139204809Y17864478D01*
X139243999Y17859318D01*
X139244000Y17859318D01*
X139244001Y17859318D01*
X139275352Y17863446D01*
X139400762Y17879956D01*
X139546841Y17940464D01*
X139672282Y18036718D01*
X139721428Y18100768D01*
X139771852Y18135423D01*
X139799970Y18139500D01*
X160932525Y18139500D01*
X161971525Y18139500D01*
X164971525Y18139500D01*
X165508166Y18139500D01*
X165566357Y18120593D01*
X165578170Y18110504D01*
X166555898Y17132776D01*
X166583675Y17078259D01*
X166574104Y17017827D01*
X166530841Y16974563D01*
X166486658Y16952050D01*
X166396949Y16862341D01*
X166339354Y16749305D01*
X166324500Y16655523D01*
X166324500Y16192480D01*
X166324501Y16192477D01*
X166339352Y16098701D01*
X166339354Y16098696D01*
X166396950Y15985658D01*
X166486658Y15895950D01*
X166599696Y15838354D01*
X166693481Y15823500D01*
X167306518Y15823501D01*
X167306520Y15823501D01*
X167306521Y15823502D01*
X167353411Y15830928D01*
X167400299Y15838353D01*
X167400299Y15838354D01*
X167400304Y15838354D01*
X167513342Y15895950D01*
X167603050Y15985658D01*
X167660646Y16098696D01*
X167673719Y16181238D01*
X167701496Y16235753D01*
X167756013Y16263531D01*
X167816445Y16253960D01*
X167859710Y16210695D01*
X167869281Y16181236D01*
X167882352Y16098700D01*
X167882354Y16098696D01*
X167939950Y15985658D01*
X168029658Y15895950D01*
X168142696Y15838354D01*
X168236481Y15823500D01*
X168849518Y15823501D01*
X168849520Y15823501D01*
X168849521Y15823502D01*
X168896410Y15830928D01*
X168943299Y15838353D01*
X168943299Y15838354D01*
X168943304Y15838354D01*
X169056342Y15895950D01*
X169146050Y15985658D01*
X169203646Y16098696D01*
X169218500Y16192481D01*
X169218499Y16655518D01*
X169203646Y16749304D01*
X169146050Y16862342D01*
X169056342Y16952050D01*
X169054953Y16952758D01*
X168991780Y16984947D01*
X168948516Y17028212D01*
X168938945Y17088645D01*
X168966724Y17143161D01*
X168971277Y17147715D01*
X168971282Y17147718D01*
X169067536Y17273159D01*
X169128044Y17419238D01*
X169148682Y17576000D01*
X169128044Y17732762D01*
X169067537Y17878839D01*
X169067537Y17878840D01*
X168989736Y17980233D01*
X168969312Y18037909D01*
X168986690Y18096575D01*
X169035232Y18133822D01*
X169068278Y18139500D01*
X169574722Y18139500D01*
X169632913Y18120593D01*
X169668877Y18071093D01*
X169668877Y18009907D01*
X169653264Y17980233D01*
X169575462Y17878840D01*
X169575462Y17878839D01*
X169514957Y17732767D01*
X169514955Y17732759D01*
X169494318Y17576001D01*
X169494318Y17576000D01*
X169514955Y17419242D01*
X169514957Y17419234D01*
X169575462Y17273162D01*
X169575462Y17273161D01*
X169618224Y17217433D01*
X169671718Y17147718D01*
X169671722Y17147715D01*
X169676277Y17143160D01*
X169704054Y17088643D01*
X169694483Y17028211D01*
X169651220Y16984947D01*
X169586658Y16952050D01*
X169496949Y16862341D01*
X169439354Y16749305D01*
X169424500Y16655523D01*
X169424500Y16192480D01*
X169424501Y16192477D01*
X169439352Y16098701D01*
X169439354Y16098696D01*
X169496950Y15985658D01*
X169586658Y15895950D01*
X169699696Y15838354D01*
X169793481Y15823500D01*
X170406518Y15823501D01*
X170406520Y15823501D01*
X170406521Y15823502D01*
X170453411Y15830928D01*
X170500299Y15838353D01*
X170500299Y15838354D01*
X170500304Y15838354D01*
X170613342Y15895950D01*
X170703050Y15985658D01*
X170760646Y16098696D01*
X170775500Y16192481D01*
X170775499Y16655518D01*
X170760646Y16749304D01*
X170703050Y16862342D01*
X170613342Y16952050D01*
X170611953Y16952758D01*
X170548780Y16984947D01*
X170505516Y17028212D01*
X170495945Y17088645D01*
X170523724Y17143161D01*
X170528277Y17147715D01*
X170528282Y17147718D01*
X170624536Y17273159D01*
X170685044Y17419238D01*
X170705682Y17576000D01*
X170685044Y17732762D01*
X170624537Y17878839D01*
X170624537Y17878840D01*
X170546736Y17980233D01*
X170526312Y18037909D01*
X170543690Y18096575D01*
X170592232Y18133822D01*
X170625278Y18139500D01*
X183646030Y18139500D01*
X183704221Y18120593D01*
X183724570Y18100769D01*
X183773718Y18036718D01*
X183899159Y17940464D01*
X184045238Y17879956D01*
X184162809Y17864478D01*
X184201999Y17859318D01*
X184202000Y17859318D01*
X184202001Y17859318D01*
X184233352Y17863446D01*
X184358762Y17879956D01*
X184504841Y17940464D01*
X184630282Y18036718D01*
X184726536Y18162159D01*
X184787044Y18308238D01*
X184807682Y18465000D01*
X184787044Y18621762D01*
X184787042Y18621767D01*
X184726537Y18767839D01*
X184726537Y18767840D01*
X184630286Y18893277D01*
X184630285Y18893278D01*
X184630282Y18893282D01*
X184630277Y18893286D01*
X184630276Y18893287D01*
X184519930Y18977958D01*
X184485274Y19028382D01*
X184486875Y19089547D01*
X184524123Y19138088D01*
X184580197Y19155500D01*
X185932030Y19155500D01*
X185990221Y19136593D01*
X186010570Y19116769D01*
X186059718Y19052718D01*
X186059722Y19052715D01*
X186059723Y19052714D01*
X186063203Y19050044D01*
X186185159Y18956464D01*
X186185160Y18956464D01*
X186185161Y18956463D01*
X186255362Y18927385D01*
X186331238Y18895956D01*
X186448809Y18880478D01*
X186487999Y18875318D01*
X186488000Y18875318D01*
X186488001Y18875318D01*
X186519352Y18879446D01*
X186644762Y18895956D01*
X186790841Y18956464D01*
X186916282Y19052718D01*
X187012536Y19178159D01*
X187073044Y19324238D01*
X187093682Y19481000D01*
X187073044Y19637762D01*
X187055758Y19679494D01*
X187012537Y19783839D01*
X187012537Y19783840D01*
X186916281Y19909284D01*
X186916278Y19909286D01*
X186914746Y19910462D01*
X186913962Y19911603D01*
X186911691Y19913874D01*
X186912111Y19914295D01*
X186880093Y19960888D01*
X186881697Y20022052D01*
X186912028Y20063795D01*
X186911693Y20064130D01*
X186913811Y20066249D01*
X186914753Y20067546D01*
X186916282Y20068718D01*
X187012536Y20194159D01*
X187073044Y20340238D01*
X187093682Y20497000D01*
X187073044Y20653762D01*
X187012537Y20799839D01*
X187012537Y20799840D01*
X186916286Y20925277D01*
X186916285Y20925278D01*
X186916282Y20925282D01*
X186916277Y20925286D01*
X186916276Y20925287D01*
X186790838Y21021538D01*
X186644766Y21082043D01*
X186644758Y21082045D01*
X186488001Y21102682D01*
X186487999Y21102682D01*
X186331241Y21082045D01*
X186331233Y21082043D01*
X186185161Y21021538D01*
X186185160Y21021538D01*
X186059723Y20925287D01*
X186059714Y20925278D01*
X186010572Y20861233D01*
X185960148Y20826577D01*
X185932030Y20822500D01*
X169098970Y20822500D01*
X169040779Y20841407D01*
X169020428Y20861233D01*
X168971285Y20925278D01*
X168971282Y20925282D01*
X168971277Y20925286D01*
X168971276Y20925287D01*
X168845838Y21021538D01*
X168699766Y21082043D01*
X168699758Y21082045D01*
X168543001Y21102682D01*
X168542999Y21102682D01*
X168386241Y21082045D01*
X168386233Y21082043D01*
X168240161Y21021538D01*
X168240160Y21021538D01*
X168114723Y20925287D01*
X168114714Y20925278D01*
X168065572Y20861233D01*
X168015148Y20826577D01*
X167987030Y20822500D01*
X142085970Y20822500D01*
X142027779Y20841407D01*
X142007428Y20861233D01*
X141958285Y20925278D01*
X141958282Y20925282D01*
X141958277Y20925286D01*
X141958276Y20925287D01*
X141832838Y21021538D01*
X141686766Y21082043D01*
X141686758Y21082045D01*
X141530001Y21102682D01*
X141529999Y21102682D01*
X141373241Y21082045D01*
X141373233Y21082043D01*
X141227161Y21021538D01*
X141227160Y21021538D01*
X141101723Y20925287D01*
X141101714Y20925278D01*
X141052572Y20861233D01*
X141002148Y20826577D01*
X140974030Y20822500D01*
X97127970Y20822500D01*
X97069779Y20841407D01*
X97049428Y20861233D01*
X97000285Y20925278D01*
X97000282Y20925282D01*
X97000277Y20925286D01*
X97000276Y20925287D01*
X96874838Y21021538D01*
X96728766Y21082043D01*
X96728758Y21082045D01*
X96572001Y21102682D01*
X96571999Y21102682D01*
X96415241Y21082045D01*
X96415233Y21082043D01*
X96269161Y21021538D01*
X96269160Y21021538D01*
X96143723Y20925287D01*
X96143714Y20925278D01*
X96094572Y20861233D01*
X96044148Y20826577D01*
X96016030Y20822500D01*
X52169970Y20822500D01*
X52111779Y20841407D01*
X52091428Y20861233D01*
X52042285Y20925278D01*
X52042282Y20925282D01*
X52042277Y20925286D01*
X52042276Y20925287D01*
X51916838Y21021538D01*
X51770766Y21082043D01*
X51770758Y21082045D01*
X51614001Y21102682D01*
X51613999Y21102682D01*
X51457241Y21082045D01*
X51457233Y21082043D01*
X51311161Y21021538D01*
X51311160Y21021538D01*
X51185723Y20925287D01*
X51185714Y20925278D01*
X51136572Y20861233D01*
X51086148Y20826577D01*
X51058030Y20822500D01*
X6957970Y20822500D01*
X6899779Y20841407D01*
X6879428Y20861233D01*
X6830285Y20925278D01*
X6830282Y20925282D01*
X6830277Y20925286D01*
X6830276Y20925287D01*
X6704838Y21021538D01*
X6558766Y21082043D01*
X6558758Y21082045D01*
X6402001Y21102682D01*
X6401999Y21102682D01*
X6245241Y21082045D01*
X6245233Y21082043D01*
X6099161Y21021538D01*
X6099160Y21021538D01*
X5973723Y20925287D01*
X5973713Y20925277D01*
X5877462Y20799840D01*
X5877462Y20799839D01*
X5816957Y20653767D01*
X5816955Y20653759D01*
X5796318Y20497001D01*
X5796318Y20497000D01*
X5816955Y20340242D01*
X5816957Y20340234D01*
X5877462Y20194162D01*
X5877462Y20194161D01*
X5973713Y20068724D01*
X5973718Y20068718D01*
X5973721Y20068716D01*
X5973723Y20068714D01*
X6099157Y19972465D01*
X6099158Y19972465D01*
X6099159Y19972464D01*
X6114301Y19966192D01*
X6160827Y19926458D01*
X6175112Y19866963D01*
X6154960Y19814462D01*
X6131462Y19783839D01*
X6070957Y19637767D01*
X6070955Y19637759D01*
X6050318Y19481001D01*
X6050318Y19481000D01*
X6070955Y19324242D01*
X6070957Y19324234D01*
X6131462Y19178162D01*
X6131462Y19178161D01*
X6227713Y19052724D01*
X6227718Y19052718D01*
X6227722Y19052715D01*
X6227723Y19052714D01*
X6338070Y18968042D01*
X6372726Y18917618D01*
X6371125Y18856453D01*
X6333877Y18807912D01*
X6277803Y18790500D01*
X4671970Y18790500D01*
X4613779Y18809407D01*
X4593428Y18829233D01*
X4564917Y18866389D01*
X4544282Y18893282D01*
X4544277Y18893286D01*
X4544276Y18893287D01*
X4461941Y18956464D01*
X4418841Y18989536D01*
X4418840Y18989537D01*
X4418838Y18989538D01*
X4272766Y19050043D01*
X4272758Y19050045D01*
X4116001Y19070682D01*
X4115999Y19070682D01*
X3959241Y19050045D01*
X3959233Y19050043D01*
X3813161Y18989538D01*
X3813160Y18989538D01*
X3687723Y18893287D01*
X3687713Y18893277D01*
X3591462Y18767840D01*
X3591462Y18767839D01*
X3530957Y18621767D01*
X3530955Y18621759D01*
X3510318Y18465001D01*
X3510318Y18465000D01*
X301721Y18465000D01*
X308288Y18740936D01*
X308682Y18746106D01*
X350958Y19073258D01*
X351883Y19078317D01*
X428131Y19399280D01*
X429581Y19404220D01*
X538959Y19715450D01*
X540918Y19720214D01*
X682231Y20018309D01*
X684681Y20022847D01*
X856371Y20304525D01*
X859280Y20308781D01*
X1059481Y20570979D01*
X1062815Y20574903D01*
X1289322Y20814732D01*
X1293064Y20818299D01*
X1543384Y21033127D01*
X1547485Y21036290D01*
X1818884Y21223770D01*
X1823290Y21226486D01*
X2112810Y21384577D01*
X2117463Y21386811D01*
X2421922Y21513773D01*
X2426794Y21515512D01*
X2742869Y21609958D01*
X2747884Y21611174D01*
X3072081Y21672061D01*
X3077216Y21672749D01*
X3405081Y21699339D01*
X3409082Y21699500D01*
X204090918Y21699500D01*
X204094918Y21699339D01*
G37*
%TD.AperFunction*%
%TD*%
M02*
