%TF.GenerationSoftware,KiCad,Pcbnew,7.0.5*%
%TF.CreationDate,2023-07-04T14:21:22+01:00*%
%TF.ProjectId,Rapid Training Target,52617069-6420-4547-9261-696e696e6720,B*%
%TF.SameCoordinates,PX2160ec0PY6146198*%
%TF.FileFunction,Legend,Bot*%
%TF.FilePolarity,Positive*%
%FSLAX46Y46*%
G04 Gerber Fmt 4.6, Leading zero omitted, Abs format (unit mm)*
G04 Created by KiCad (PCBNEW 7.0.5) date 2023-07-04 14:21:22*
%MOMM*%
%LPD*%
G01*
G04 APERTURE LIST*
%ADD10C,0.150000*%
%ADD11C,0.254000*%
%ADD12C,0.200000*%
%ADD13C,0.127000*%
%ADD14C,0.120000*%
G04 APERTURE END LIST*
D10*
%TO.C,R1*%
X176875666Y11628181D02*
X177208999Y12104372D01*
X177447094Y11628181D02*
X177447094Y12628181D01*
X177447094Y12628181D02*
X177066142Y12628181D01*
X177066142Y12628181D02*
X176970904Y12580562D01*
X176970904Y12580562D02*
X176923285Y12532943D01*
X176923285Y12532943D02*
X176875666Y12437705D01*
X176875666Y12437705D02*
X176875666Y12294848D01*
X176875666Y12294848D02*
X176923285Y12199610D01*
X176923285Y12199610D02*
X176970904Y12151991D01*
X176970904Y12151991D02*
X177066142Y12104372D01*
X177066142Y12104372D02*
X177447094Y12104372D01*
X175923285Y11628181D02*
X176494713Y11628181D01*
X176208999Y11628181D02*
X176208999Y12628181D01*
X176208999Y12628181D02*
X176304237Y12485324D01*
X176304237Y12485324D02*
X176399475Y12390086D01*
X176399475Y12390086D02*
X176494713Y12342467D01*
%TO.C,C2*%
X155013666Y7829920D02*
X155061285Y7782300D01*
X155061285Y7782300D02*
X155204142Y7734681D01*
X155204142Y7734681D02*
X155299380Y7734681D01*
X155299380Y7734681D02*
X155442237Y7782300D01*
X155442237Y7782300D02*
X155537475Y7877539D01*
X155537475Y7877539D02*
X155585094Y7972777D01*
X155585094Y7972777D02*
X155632713Y8163253D01*
X155632713Y8163253D02*
X155632713Y8306110D01*
X155632713Y8306110D02*
X155585094Y8496586D01*
X155585094Y8496586D02*
X155537475Y8591824D01*
X155537475Y8591824D02*
X155442237Y8687062D01*
X155442237Y8687062D02*
X155299380Y8734681D01*
X155299380Y8734681D02*
X155204142Y8734681D01*
X155204142Y8734681D02*
X155061285Y8687062D01*
X155061285Y8687062D02*
X155013666Y8639443D01*
X154632713Y8639443D02*
X154585094Y8687062D01*
X154585094Y8687062D02*
X154489856Y8734681D01*
X154489856Y8734681D02*
X154251761Y8734681D01*
X154251761Y8734681D02*
X154156523Y8687062D01*
X154156523Y8687062D02*
X154108904Y8639443D01*
X154108904Y8639443D02*
X154061285Y8544205D01*
X154061285Y8544205D02*
X154061285Y8448967D01*
X154061285Y8448967D02*
X154108904Y8306110D01*
X154108904Y8306110D02*
X154680332Y7734681D01*
X154680332Y7734681D02*
X154061285Y7734681D01*
%TO.C,U2*%
X157519404Y2260681D02*
X157519404Y1451158D01*
X157519404Y1451158D02*
X157471785Y1355920D01*
X157471785Y1355920D02*
X157424166Y1308300D01*
X157424166Y1308300D02*
X157328928Y1260681D01*
X157328928Y1260681D02*
X157138452Y1260681D01*
X157138452Y1260681D02*
X157043214Y1308300D01*
X157043214Y1308300D02*
X156995595Y1355920D01*
X156995595Y1355920D02*
X156947976Y1451158D01*
X156947976Y1451158D02*
X156947976Y2260681D01*
X156519404Y2165443D02*
X156471785Y2213062D01*
X156471785Y2213062D02*
X156376547Y2260681D01*
X156376547Y2260681D02*
X156138452Y2260681D01*
X156138452Y2260681D02*
X156043214Y2213062D01*
X156043214Y2213062D02*
X155995595Y2165443D01*
X155995595Y2165443D02*
X155947976Y2070205D01*
X155947976Y2070205D02*
X155947976Y1974967D01*
X155947976Y1974967D02*
X155995595Y1832110D01*
X155995595Y1832110D02*
X156567023Y1260681D01*
X156567023Y1260681D02*
X155947976Y1260681D01*
%TO.C,C1*%
X160286580Y6685167D02*
X160334200Y6732786D01*
X160334200Y6732786D02*
X160381819Y6875643D01*
X160381819Y6875643D02*
X160381819Y6970881D01*
X160381819Y6970881D02*
X160334200Y7113738D01*
X160334200Y7113738D02*
X160238961Y7208976D01*
X160238961Y7208976D02*
X160143723Y7256595D01*
X160143723Y7256595D02*
X159953247Y7304214D01*
X159953247Y7304214D02*
X159810390Y7304214D01*
X159810390Y7304214D02*
X159619914Y7256595D01*
X159619914Y7256595D02*
X159524676Y7208976D01*
X159524676Y7208976D02*
X159429438Y7113738D01*
X159429438Y7113738D02*
X159381819Y6970881D01*
X159381819Y6970881D02*
X159381819Y6875643D01*
X159381819Y6875643D02*
X159429438Y6732786D01*
X159429438Y6732786D02*
X159477057Y6685167D01*
X160381819Y5732786D02*
X160381819Y6304214D01*
X160381819Y6018500D02*
X159381819Y6018500D01*
X159381819Y6018500D02*
X159524676Y6113738D01*
X159524676Y6113738D02*
X159619914Y6208976D01*
X159619914Y6208976D02*
X159667533Y6304214D01*
D11*
%TO.C,U3*%
X160595095Y10826688D02*
X160595095Y10004211D01*
X160595095Y10004211D02*
X160546714Y9907449D01*
X160546714Y9907449D02*
X160498333Y9859068D01*
X160498333Y9859068D02*
X160401571Y9810688D01*
X160401571Y9810688D02*
X160208047Y9810688D01*
X160208047Y9810688D02*
X160111285Y9859068D01*
X160111285Y9859068D02*
X160062904Y9907449D01*
X160062904Y9907449D02*
X160014523Y10004211D01*
X160014523Y10004211D02*
X160014523Y10826688D01*
X159627476Y10826688D02*
X158998523Y10826688D01*
X158998523Y10826688D02*
X159337190Y10439640D01*
X159337190Y10439640D02*
X159192047Y10439640D01*
X159192047Y10439640D02*
X159095285Y10391259D01*
X159095285Y10391259D02*
X159046904Y10342878D01*
X159046904Y10342878D02*
X158998523Y10246116D01*
X158998523Y10246116D02*
X158998523Y10004211D01*
X158998523Y10004211D02*
X159046904Y9907449D01*
X159046904Y9907449D02*
X159095285Y9859068D01*
X159095285Y9859068D02*
X159192047Y9810688D01*
X159192047Y9810688D02*
X159482333Y9810688D01*
X159482333Y9810688D02*
X159579095Y9859068D01*
X159579095Y9859068D02*
X159627476Y9907449D01*
D12*
X170863571Y-2803835D02*
X170379761Y-2803835D01*
X170960333Y-3094120D02*
X170621666Y-2078120D01*
X170621666Y-2078120D02*
X170282999Y-3094120D01*
X169944333Y-3094120D02*
X169944333Y-2078120D01*
X169944333Y-2078120D02*
X169363761Y-3094120D01*
X169363761Y-3094120D02*
X169363761Y-2078120D01*
X169025095Y-2078120D02*
X168444523Y-2078120D01*
X168734809Y-3094120D02*
X168734809Y-2078120D01*
X168105857Y-2561930D02*
X167767190Y-2561930D01*
X167622047Y-3094120D02*
X168105857Y-3094120D01*
X168105857Y-3094120D02*
X168105857Y-2078120D01*
X168105857Y-2078120D02*
X167622047Y-2078120D01*
X167186619Y-3094120D02*
X167186619Y-2078120D01*
X167186619Y-2078120D02*
X166606047Y-3094120D01*
X166606047Y-3094120D02*
X166606047Y-2078120D01*
X166122238Y-3094120D02*
X166122238Y-2078120D01*
X166122238Y-2078120D02*
X165541666Y-3094120D01*
X165541666Y-3094120D02*
X165541666Y-2078120D01*
X165106238Y-2803835D02*
X164622428Y-2803835D01*
X165203000Y-3094120D02*
X164864333Y-2078120D01*
X164864333Y-2078120D02*
X164525666Y-3094120D01*
D11*
%TO.C,USB-C1*%
X187993857Y7816188D02*
X187993857Y6993711D01*
X187993857Y6993711D02*
X187945476Y6896949D01*
X187945476Y6896949D02*
X187897095Y6848568D01*
X187897095Y6848568D02*
X187800333Y6800188D01*
X187800333Y6800188D02*
X187606809Y6800188D01*
X187606809Y6800188D02*
X187510047Y6848568D01*
X187510047Y6848568D02*
X187461666Y6896949D01*
X187461666Y6896949D02*
X187413285Y6993711D01*
X187413285Y6993711D02*
X187413285Y7816188D01*
X186977857Y6848568D02*
X186832714Y6800188D01*
X186832714Y6800188D02*
X186590809Y6800188D01*
X186590809Y6800188D02*
X186494047Y6848568D01*
X186494047Y6848568D02*
X186445666Y6896949D01*
X186445666Y6896949D02*
X186397285Y6993711D01*
X186397285Y6993711D02*
X186397285Y7090473D01*
X186397285Y7090473D02*
X186445666Y7187235D01*
X186445666Y7187235D02*
X186494047Y7235616D01*
X186494047Y7235616D02*
X186590809Y7283997D01*
X186590809Y7283997D02*
X186784333Y7332378D01*
X186784333Y7332378D02*
X186881095Y7380759D01*
X186881095Y7380759D02*
X186929476Y7429140D01*
X186929476Y7429140D02*
X186977857Y7525902D01*
X186977857Y7525902D02*
X186977857Y7622664D01*
X186977857Y7622664D02*
X186929476Y7719426D01*
X186929476Y7719426D02*
X186881095Y7767807D01*
X186881095Y7767807D02*
X186784333Y7816188D01*
X186784333Y7816188D02*
X186542428Y7816188D01*
X186542428Y7816188D02*
X186397285Y7767807D01*
X185623190Y7332378D02*
X185478047Y7283997D01*
X185478047Y7283997D02*
X185429666Y7235616D01*
X185429666Y7235616D02*
X185381285Y7138854D01*
X185381285Y7138854D02*
X185381285Y6993711D01*
X185381285Y6993711D02*
X185429666Y6896949D01*
X185429666Y6896949D02*
X185478047Y6848568D01*
X185478047Y6848568D02*
X185574809Y6800188D01*
X185574809Y6800188D02*
X185961857Y6800188D01*
X185961857Y6800188D02*
X185961857Y7816188D01*
X185961857Y7816188D02*
X185623190Y7816188D01*
X185623190Y7816188D02*
X185526428Y7767807D01*
X185526428Y7767807D02*
X185478047Y7719426D01*
X185478047Y7719426D02*
X185429666Y7622664D01*
X185429666Y7622664D02*
X185429666Y7525902D01*
X185429666Y7525902D02*
X185478047Y7429140D01*
X185478047Y7429140D02*
X185526428Y7380759D01*
X185526428Y7380759D02*
X185623190Y7332378D01*
X185623190Y7332378D02*
X185961857Y7332378D01*
X184945857Y7187235D02*
X184171762Y7187235D01*
X183107380Y6896949D02*
X183155761Y6848568D01*
X183155761Y6848568D02*
X183300904Y6800188D01*
X183300904Y6800188D02*
X183397666Y6800188D01*
X183397666Y6800188D02*
X183542809Y6848568D01*
X183542809Y6848568D02*
X183639571Y6945330D01*
X183639571Y6945330D02*
X183687952Y7042092D01*
X183687952Y7042092D02*
X183736333Y7235616D01*
X183736333Y7235616D02*
X183736333Y7380759D01*
X183736333Y7380759D02*
X183687952Y7574283D01*
X183687952Y7574283D02*
X183639571Y7671045D01*
X183639571Y7671045D02*
X183542809Y7767807D01*
X183542809Y7767807D02*
X183397666Y7816188D01*
X183397666Y7816188D02*
X183300904Y7816188D01*
X183300904Y7816188D02*
X183155761Y7767807D01*
X183155761Y7767807D02*
X183107380Y7719426D01*
X182139761Y6800188D02*
X182720333Y6800188D01*
X182430047Y6800188D02*
X182430047Y7816188D01*
X182430047Y7816188D02*
X182526809Y7671045D01*
X182526809Y7671045D02*
X182623571Y7574283D01*
X182623571Y7574283D02*
X182720333Y7525902D01*
D13*
X187499143Y12419784D02*
X187426571Y12395594D01*
X187426571Y12395594D02*
X187305619Y12395594D01*
X187305619Y12395594D02*
X187257238Y12419784D01*
X187257238Y12419784D02*
X187233047Y12443975D01*
X187233047Y12443975D02*
X187208857Y12492356D01*
X187208857Y12492356D02*
X187208857Y12540737D01*
X187208857Y12540737D02*
X187233047Y12589118D01*
X187233047Y12589118D02*
X187257238Y12613308D01*
X187257238Y12613308D02*
X187305619Y12637499D01*
X187305619Y12637499D02*
X187402381Y12661689D01*
X187402381Y12661689D02*
X187450762Y12685880D01*
X187450762Y12685880D02*
X187474952Y12710070D01*
X187474952Y12710070D02*
X187499143Y12758451D01*
X187499143Y12758451D02*
X187499143Y12806832D01*
X187499143Y12806832D02*
X187474952Y12855213D01*
X187474952Y12855213D02*
X187450762Y12879404D01*
X187450762Y12879404D02*
X187402381Y12903594D01*
X187402381Y12903594D02*
X187281428Y12903594D01*
X187281428Y12903594D02*
X187208857Y12879404D01*
X186821809Y12661689D02*
X186749237Y12637499D01*
X186749237Y12637499D02*
X186725047Y12613308D01*
X186725047Y12613308D02*
X186700856Y12564927D01*
X186700856Y12564927D02*
X186700856Y12492356D01*
X186700856Y12492356D02*
X186725047Y12443975D01*
X186725047Y12443975D02*
X186749237Y12419784D01*
X186749237Y12419784D02*
X186797618Y12395594D01*
X186797618Y12395594D02*
X186991142Y12395594D01*
X186991142Y12395594D02*
X186991142Y12903594D01*
X186991142Y12903594D02*
X186821809Y12903594D01*
X186821809Y12903594D02*
X186773428Y12879404D01*
X186773428Y12879404D02*
X186749237Y12855213D01*
X186749237Y12855213D02*
X186725047Y12806832D01*
X186725047Y12806832D02*
X186725047Y12758451D01*
X186725047Y12758451D02*
X186749237Y12710070D01*
X186749237Y12710070D02*
X186773428Y12685880D01*
X186773428Y12685880D02*
X186821809Y12661689D01*
X186821809Y12661689D02*
X186991142Y12661689D01*
X186483142Y12903594D02*
X186483142Y12492356D01*
X186483142Y12492356D02*
X186458952Y12443975D01*
X186458952Y12443975D02*
X186434761Y12419784D01*
X186434761Y12419784D02*
X186386380Y12395594D01*
X186386380Y12395594D02*
X186289618Y12395594D01*
X186289618Y12395594D02*
X186241237Y12419784D01*
X186241237Y12419784D02*
X186217047Y12443975D01*
X186217047Y12443975D02*
X186192856Y12492356D01*
X186192856Y12492356D02*
X186192856Y12903594D01*
X185684857Y12395594D02*
X185975143Y12395594D01*
X185830000Y12395594D02*
X185830000Y12903594D01*
X185830000Y12903594D02*
X185878381Y12831023D01*
X185878381Y12831023D02*
X185926762Y12782642D01*
X185926762Y12782642D02*
X185975143Y12758451D01*
X184979047Y17494904D02*
X185027428Y17519094D01*
X185027428Y17519094D02*
X185099999Y17519094D01*
X185099999Y17519094D02*
X185172571Y17494904D01*
X185172571Y17494904D02*
X185220952Y17446523D01*
X185220952Y17446523D02*
X185245142Y17398142D01*
X185245142Y17398142D02*
X185269333Y17301380D01*
X185269333Y17301380D02*
X185269333Y17228808D01*
X185269333Y17228808D02*
X185245142Y17132046D01*
X185245142Y17132046D02*
X185220952Y17083665D01*
X185220952Y17083665D02*
X185172571Y17035284D01*
X185172571Y17035284D02*
X185099999Y17011094D01*
X185099999Y17011094D02*
X185051618Y17011094D01*
X185051618Y17011094D02*
X184979047Y17035284D01*
X184979047Y17035284D02*
X184954856Y17059475D01*
X184954856Y17059475D02*
X184954856Y17228808D01*
X184954856Y17228808D02*
X185051618Y17228808D01*
X184737142Y17011094D02*
X184737142Y17519094D01*
X184737142Y17519094D02*
X184446856Y17011094D01*
X184446856Y17011094D02*
X184446856Y17519094D01*
X184204952Y17011094D02*
X184204952Y17519094D01*
X184204952Y17519094D02*
X184084000Y17519094D01*
X184084000Y17519094D02*
X184011428Y17494904D01*
X184011428Y17494904D02*
X183963047Y17446523D01*
X183963047Y17446523D02*
X183938857Y17398142D01*
X183938857Y17398142D02*
X183914666Y17301380D01*
X183914666Y17301380D02*
X183914666Y17228808D01*
X183914666Y17228808D02*
X183938857Y17132046D01*
X183938857Y17132046D02*
X183963047Y17083665D01*
X183963047Y17083665D02*
X184011428Y17035284D01*
X184011428Y17035284D02*
X184084000Y17011094D01*
X184084000Y17011094D02*
X184204952Y17011094D01*
X184930666Y11943975D02*
X184954857Y11919784D01*
X184954857Y11919784D02*
X185027428Y11895594D01*
X185027428Y11895594D02*
X185075809Y11895594D01*
X185075809Y11895594D02*
X185148381Y11919784D01*
X185148381Y11919784D02*
X185196762Y11968165D01*
X185196762Y11968165D02*
X185220952Y12016546D01*
X185220952Y12016546D02*
X185245143Y12113308D01*
X185245143Y12113308D02*
X185245143Y12185880D01*
X185245143Y12185880D02*
X185220952Y12282642D01*
X185220952Y12282642D02*
X185196762Y12331023D01*
X185196762Y12331023D02*
X185148381Y12379404D01*
X185148381Y12379404D02*
X185075809Y12403594D01*
X185075809Y12403594D02*
X185027428Y12403594D01*
X185027428Y12403594D02*
X184954857Y12379404D01*
X184954857Y12379404D02*
X184930666Y12355213D01*
X184422666Y11943975D02*
X184446857Y11919784D01*
X184446857Y11919784D02*
X184519428Y11895594D01*
X184519428Y11895594D02*
X184567809Y11895594D01*
X184567809Y11895594D02*
X184640381Y11919784D01*
X184640381Y11919784D02*
X184688762Y11968165D01*
X184688762Y11968165D02*
X184712952Y12016546D01*
X184712952Y12016546D02*
X184737143Y12113308D01*
X184737143Y12113308D02*
X184737143Y12185880D01*
X184737143Y12185880D02*
X184712952Y12282642D01*
X184712952Y12282642D02*
X184688762Y12331023D01*
X184688762Y12331023D02*
X184640381Y12379404D01*
X184640381Y12379404D02*
X184567809Y12403594D01*
X184567809Y12403594D02*
X184519428Y12403594D01*
X184519428Y12403594D02*
X184446857Y12379404D01*
X184446857Y12379404D02*
X184422666Y12355213D01*
X184229143Y12355213D02*
X184204952Y12379404D01*
X184204952Y12379404D02*
X184156571Y12403594D01*
X184156571Y12403594D02*
X184035619Y12403594D01*
X184035619Y12403594D02*
X183987238Y12379404D01*
X183987238Y12379404D02*
X183963047Y12355213D01*
X183963047Y12355213D02*
X183938857Y12306832D01*
X183938857Y12306832D02*
X183938857Y12258451D01*
X183938857Y12258451D02*
X183963047Y12185880D01*
X183963047Y12185880D02*
X184253333Y11895594D01*
X184253333Y11895594D02*
X183938857Y11895594D01*
X186983047Y13395594D02*
X186983047Y13903594D01*
X186983047Y13903594D02*
X186862095Y13903594D01*
X186862095Y13903594D02*
X186789523Y13879404D01*
X186789523Y13879404D02*
X186741142Y13831023D01*
X186741142Y13831023D02*
X186716952Y13782642D01*
X186716952Y13782642D02*
X186692761Y13685880D01*
X186692761Y13685880D02*
X186692761Y13613308D01*
X186692761Y13613308D02*
X186716952Y13516546D01*
X186716952Y13516546D02*
X186741142Y13468165D01*
X186741142Y13468165D02*
X186789523Y13419784D01*
X186789523Y13419784D02*
X186862095Y13395594D01*
X186862095Y13395594D02*
X186983047Y13395594D01*
X186475047Y13395594D02*
X186475047Y13903594D01*
X186475047Y13903594D02*
X186184761Y13395594D01*
X186184761Y13395594D02*
X186184761Y13903594D01*
X185676762Y13395594D02*
X185967048Y13395594D01*
X185821905Y13395594D02*
X185821905Y13903594D01*
X185821905Y13903594D02*
X185870286Y13831023D01*
X185870286Y13831023D02*
X185918667Y13782642D01*
X185918667Y13782642D02*
X185967048Y13758451D01*
X185220952Y13895594D02*
X185220952Y14403594D01*
X185220952Y14403594D02*
X185100000Y14403594D01*
X185100000Y14403594D02*
X185027428Y14379404D01*
X185027428Y14379404D02*
X184979047Y14331023D01*
X184979047Y14331023D02*
X184954857Y14282642D01*
X184954857Y14282642D02*
X184930666Y14185880D01*
X184930666Y14185880D02*
X184930666Y14113308D01*
X184930666Y14113308D02*
X184954857Y14016546D01*
X184954857Y14016546D02*
X184979047Y13968165D01*
X184979047Y13968165D02*
X185027428Y13919784D01*
X185027428Y13919784D02*
X185100000Y13895594D01*
X185100000Y13895594D02*
X185220952Y13895594D01*
X184712952Y13895594D02*
X184712952Y14403594D01*
X184712952Y14403594D02*
X184519428Y14403594D01*
X184519428Y14403594D02*
X184471047Y14379404D01*
X184471047Y14379404D02*
X184446857Y14355213D01*
X184446857Y14355213D02*
X184422666Y14306832D01*
X184422666Y14306832D02*
X184422666Y14234261D01*
X184422666Y14234261D02*
X184446857Y14185880D01*
X184446857Y14185880D02*
X184471047Y14161689D01*
X184471047Y14161689D02*
X184519428Y14137499D01*
X184519428Y14137499D02*
X184712952Y14137499D01*
X183938857Y13895594D02*
X184229143Y13895594D01*
X184084000Y13895594D02*
X184084000Y14403594D01*
X184084000Y14403594D02*
X184132381Y14331023D01*
X184132381Y14331023D02*
X184180762Y14282642D01*
X184180762Y14282642D02*
X184229143Y14258451D01*
X186983047Y14395594D02*
X186983047Y14903594D01*
X186983047Y14903594D02*
X186862095Y14903594D01*
X186862095Y14903594D02*
X186789523Y14879404D01*
X186789523Y14879404D02*
X186741142Y14831023D01*
X186741142Y14831023D02*
X186716952Y14782642D01*
X186716952Y14782642D02*
X186692761Y14685880D01*
X186692761Y14685880D02*
X186692761Y14613308D01*
X186692761Y14613308D02*
X186716952Y14516546D01*
X186716952Y14516546D02*
X186741142Y14468165D01*
X186741142Y14468165D02*
X186789523Y14419784D01*
X186789523Y14419784D02*
X186862095Y14395594D01*
X186862095Y14395594D02*
X186983047Y14395594D01*
X186475047Y14395594D02*
X186475047Y14903594D01*
X186475047Y14903594D02*
X186184761Y14395594D01*
X186184761Y14395594D02*
X186184761Y14903594D01*
X185967048Y14855213D02*
X185942857Y14879404D01*
X185942857Y14879404D02*
X185894476Y14903594D01*
X185894476Y14903594D02*
X185773524Y14903594D01*
X185773524Y14903594D02*
X185725143Y14879404D01*
X185725143Y14879404D02*
X185700952Y14855213D01*
X185700952Y14855213D02*
X185676762Y14806832D01*
X185676762Y14806832D02*
X185676762Y14758451D01*
X185676762Y14758451D02*
X185700952Y14685880D01*
X185700952Y14685880D02*
X185991238Y14395594D01*
X185991238Y14395594D02*
X185676762Y14395594D01*
X185220952Y12895594D02*
X185220952Y13403594D01*
X185220952Y13403594D02*
X185100000Y13403594D01*
X185100000Y13403594D02*
X185027428Y13379404D01*
X185027428Y13379404D02*
X184979047Y13331023D01*
X184979047Y13331023D02*
X184954857Y13282642D01*
X184954857Y13282642D02*
X184930666Y13185880D01*
X184930666Y13185880D02*
X184930666Y13113308D01*
X184930666Y13113308D02*
X184954857Y13016546D01*
X184954857Y13016546D02*
X184979047Y12968165D01*
X184979047Y12968165D02*
X185027428Y12919784D01*
X185027428Y12919784D02*
X185100000Y12895594D01*
X185100000Y12895594D02*
X185220952Y12895594D01*
X184712952Y12895594D02*
X184712952Y13403594D01*
X184712952Y13403594D02*
X184519428Y13403594D01*
X184519428Y13403594D02*
X184471047Y13379404D01*
X184471047Y13379404D02*
X184446857Y13355213D01*
X184446857Y13355213D02*
X184422666Y13306832D01*
X184422666Y13306832D02*
X184422666Y13234261D01*
X184422666Y13234261D02*
X184446857Y13185880D01*
X184446857Y13185880D02*
X184471047Y13161689D01*
X184471047Y13161689D02*
X184519428Y13137499D01*
X184519428Y13137499D02*
X184712952Y13137499D01*
X184229143Y13355213D02*
X184204952Y13379404D01*
X184204952Y13379404D02*
X184156571Y13403594D01*
X184156571Y13403594D02*
X184035619Y13403594D01*
X184035619Y13403594D02*
X183987238Y13379404D01*
X183987238Y13379404D02*
X183963047Y13355213D01*
X183963047Y13355213D02*
X183938857Y13306832D01*
X183938857Y13306832D02*
X183938857Y13258451D01*
X183938857Y13258451D02*
X183963047Y13185880D01*
X183963047Y13185880D02*
X184253333Y12895594D01*
X184253333Y12895594D02*
X183938857Y12895594D01*
X187499143Y15419784D02*
X187426571Y15395594D01*
X187426571Y15395594D02*
X187305619Y15395594D01*
X187305619Y15395594D02*
X187257238Y15419784D01*
X187257238Y15419784D02*
X187233047Y15443975D01*
X187233047Y15443975D02*
X187208857Y15492356D01*
X187208857Y15492356D02*
X187208857Y15540737D01*
X187208857Y15540737D02*
X187233047Y15589118D01*
X187233047Y15589118D02*
X187257238Y15613308D01*
X187257238Y15613308D02*
X187305619Y15637499D01*
X187305619Y15637499D02*
X187402381Y15661689D01*
X187402381Y15661689D02*
X187450762Y15685880D01*
X187450762Y15685880D02*
X187474952Y15710070D01*
X187474952Y15710070D02*
X187499143Y15758451D01*
X187499143Y15758451D02*
X187499143Y15806832D01*
X187499143Y15806832D02*
X187474952Y15855213D01*
X187474952Y15855213D02*
X187450762Y15879404D01*
X187450762Y15879404D02*
X187402381Y15903594D01*
X187402381Y15903594D02*
X187281428Y15903594D01*
X187281428Y15903594D02*
X187208857Y15879404D01*
X186821809Y15661689D02*
X186749237Y15637499D01*
X186749237Y15637499D02*
X186725047Y15613308D01*
X186725047Y15613308D02*
X186700856Y15564927D01*
X186700856Y15564927D02*
X186700856Y15492356D01*
X186700856Y15492356D02*
X186725047Y15443975D01*
X186725047Y15443975D02*
X186749237Y15419784D01*
X186749237Y15419784D02*
X186797618Y15395594D01*
X186797618Y15395594D02*
X186991142Y15395594D01*
X186991142Y15395594D02*
X186991142Y15903594D01*
X186991142Y15903594D02*
X186821809Y15903594D01*
X186821809Y15903594D02*
X186773428Y15879404D01*
X186773428Y15879404D02*
X186749237Y15855213D01*
X186749237Y15855213D02*
X186725047Y15806832D01*
X186725047Y15806832D02*
X186725047Y15758451D01*
X186725047Y15758451D02*
X186749237Y15710070D01*
X186749237Y15710070D02*
X186773428Y15685880D01*
X186773428Y15685880D02*
X186821809Y15661689D01*
X186821809Y15661689D02*
X186991142Y15661689D01*
X186483142Y15903594D02*
X186483142Y15492356D01*
X186483142Y15492356D02*
X186458952Y15443975D01*
X186458952Y15443975D02*
X186434761Y15419784D01*
X186434761Y15419784D02*
X186386380Y15395594D01*
X186386380Y15395594D02*
X186289618Y15395594D01*
X186289618Y15395594D02*
X186241237Y15419784D01*
X186241237Y15419784D02*
X186217047Y15443975D01*
X186217047Y15443975D02*
X186192856Y15492356D01*
X186192856Y15492356D02*
X186192856Y15903594D01*
X185975143Y15855213D02*
X185950952Y15879404D01*
X185950952Y15879404D02*
X185902571Y15903594D01*
X185902571Y15903594D02*
X185781619Y15903594D01*
X185781619Y15903594D02*
X185733238Y15879404D01*
X185733238Y15879404D02*
X185709047Y15855213D01*
X185709047Y15855213D02*
X185684857Y15806832D01*
X185684857Y15806832D02*
X185684857Y15758451D01*
X185684857Y15758451D02*
X185709047Y15685880D01*
X185709047Y15685880D02*
X185999333Y15395594D01*
X185999333Y15395594D02*
X185684857Y15395594D01*
X185773333Y11653594D02*
X185603999Y11145594D01*
X185603999Y11145594D02*
X185434666Y11653594D01*
X185095999Y11411689D02*
X185023427Y11387499D01*
X185023427Y11387499D02*
X184999237Y11363308D01*
X184999237Y11363308D02*
X184975046Y11314927D01*
X184975046Y11314927D02*
X184975046Y11242356D01*
X184975046Y11242356D02*
X184999237Y11193975D01*
X184999237Y11193975D02*
X185023427Y11169784D01*
X185023427Y11169784D02*
X185071808Y11145594D01*
X185071808Y11145594D02*
X185265332Y11145594D01*
X185265332Y11145594D02*
X185265332Y11653594D01*
X185265332Y11653594D02*
X185095999Y11653594D01*
X185095999Y11653594D02*
X185047618Y11629404D01*
X185047618Y11629404D02*
X185023427Y11605213D01*
X185023427Y11605213D02*
X184999237Y11556832D01*
X184999237Y11556832D02*
X184999237Y11508451D01*
X184999237Y11508451D02*
X185023427Y11460070D01*
X185023427Y11460070D02*
X185047618Y11435880D01*
X185047618Y11435880D02*
X185095999Y11411689D01*
X185095999Y11411689D02*
X185265332Y11411689D01*
X184757332Y11653594D02*
X184757332Y11242356D01*
X184757332Y11242356D02*
X184733142Y11193975D01*
X184733142Y11193975D02*
X184708951Y11169784D01*
X184708951Y11169784D02*
X184660570Y11145594D01*
X184660570Y11145594D02*
X184563808Y11145594D01*
X184563808Y11145594D02*
X184515427Y11169784D01*
X184515427Y11169784D02*
X184491237Y11193975D01*
X184491237Y11193975D02*
X184467046Y11242356D01*
X184467046Y11242356D02*
X184467046Y11653594D01*
X184249333Y11169784D02*
X184176761Y11145594D01*
X184176761Y11145594D02*
X184055809Y11145594D01*
X184055809Y11145594D02*
X184007428Y11169784D01*
X184007428Y11169784D02*
X183983237Y11193975D01*
X183983237Y11193975D02*
X183959047Y11242356D01*
X183959047Y11242356D02*
X183959047Y11290737D01*
X183959047Y11290737D02*
X183983237Y11339118D01*
X183983237Y11339118D02*
X184007428Y11363308D01*
X184007428Y11363308D02*
X184055809Y11387499D01*
X184055809Y11387499D02*
X184152571Y11411689D01*
X184152571Y11411689D02*
X184200952Y11435880D01*
X184200952Y11435880D02*
X184225142Y11460070D01*
X184225142Y11460070D02*
X184249333Y11508451D01*
X184249333Y11508451D02*
X184249333Y11556832D01*
X184249333Y11556832D02*
X184225142Y11605213D01*
X184225142Y11605213D02*
X184200952Y11629404D01*
X184200952Y11629404D02*
X184152571Y11653594D01*
X184152571Y11653594D02*
X184031618Y11653594D01*
X184031618Y11653594D02*
X183959047Y11629404D01*
X188342263Y17817051D02*
X188342263Y17575146D01*
X188487406Y17865432D02*
X187979406Y17696098D01*
X187979406Y17696098D02*
X188487406Y17526765D01*
X188148739Y17139717D02*
X188487406Y17139717D01*
X187955216Y17260669D02*
X188318073Y17381622D01*
X188318073Y17381622D02*
X188318073Y17067145D01*
X187979406Y16776859D02*
X187979406Y16728478D01*
X187979406Y16728478D02*
X188003596Y16680097D01*
X188003596Y16680097D02*
X188027787Y16655907D01*
X188027787Y16655907D02*
X188076168Y16631716D01*
X188076168Y16631716D02*
X188172930Y16607526D01*
X188172930Y16607526D02*
X188293882Y16607526D01*
X188293882Y16607526D02*
X188390644Y16631716D01*
X188390644Y16631716D02*
X188439025Y16655907D01*
X188439025Y16655907D02*
X188463216Y16680097D01*
X188463216Y16680097D02*
X188487406Y16728478D01*
X188487406Y16728478D02*
X188487406Y16776859D01*
X188487406Y16776859D02*
X188463216Y16825240D01*
X188463216Y16825240D02*
X188439025Y16849431D01*
X188439025Y16849431D02*
X188390644Y16873621D01*
X188390644Y16873621D02*
X188293882Y16897812D01*
X188293882Y16897812D02*
X188172930Y16897812D01*
X188172930Y16897812D02*
X188076168Y16873621D01*
X188076168Y16873621D02*
X188027787Y16849431D01*
X188027787Y16849431D02*
X188003596Y16825240D01*
X188003596Y16825240D02*
X187979406Y16776859D01*
X188293882Y16389811D02*
X188293882Y16002763D01*
X187979406Y15664097D02*
X187979406Y15615716D01*
X187979406Y15615716D02*
X188003596Y15567335D01*
X188003596Y15567335D02*
X188027787Y15543145D01*
X188027787Y15543145D02*
X188076168Y15518954D01*
X188076168Y15518954D02*
X188172930Y15494764D01*
X188172930Y15494764D02*
X188293882Y15494764D01*
X188293882Y15494764D02*
X188390644Y15518954D01*
X188390644Y15518954D02*
X188439025Y15543145D01*
X188439025Y15543145D02*
X188463216Y15567335D01*
X188463216Y15567335D02*
X188487406Y15615716D01*
X188487406Y15615716D02*
X188487406Y15664097D01*
X188487406Y15664097D02*
X188463216Y15712478D01*
X188463216Y15712478D02*
X188439025Y15736669D01*
X188439025Y15736669D02*
X188390644Y15760859D01*
X188390644Y15760859D02*
X188293882Y15785050D01*
X188293882Y15785050D02*
X188172930Y15785050D01*
X188172930Y15785050D02*
X188076168Y15760859D01*
X188076168Y15760859D02*
X188027787Y15736669D01*
X188027787Y15736669D02*
X188003596Y15712478D01*
X188003596Y15712478D02*
X187979406Y15664097D01*
X187979406Y15180287D02*
X187979406Y15131906D01*
X187979406Y15131906D02*
X188003596Y15083525D01*
X188003596Y15083525D02*
X188027787Y15059335D01*
X188027787Y15059335D02*
X188076168Y15035144D01*
X188076168Y15035144D02*
X188172930Y15010954D01*
X188172930Y15010954D02*
X188293882Y15010954D01*
X188293882Y15010954D02*
X188390644Y15035144D01*
X188390644Y15035144D02*
X188439025Y15059335D01*
X188439025Y15059335D02*
X188463216Y15083525D01*
X188463216Y15083525D02*
X188487406Y15131906D01*
X188487406Y15131906D02*
X188487406Y15180287D01*
X188487406Y15180287D02*
X188463216Y15228668D01*
X188463216Y15228668D02*
X188439025Y15252859D01*
X188439025Y15252859D02*
X188390644Y15277049D01*
X188390644Y15277049D02*
X188293882Y15301240D01*
X188293882Y15301240D02*
X188172930Y15301240D01*
X188172930Y15301240D02*
X188076168Y15277049D01*
X188076168Y15277049D02*
X188027787Y15252859D01*
X188027787Y15252859D02*
X188003596Y15228668D01*
X188003596Y15228668D02*
X187979406Y15180287D01*
X188487406Y14527144D02*
X188487406Y14817430D01*
X188487406Y14672287D02*
X187979406Y14672287D01*
X187979406Y14672287D02*
X188051977Y14720668D01*
X188051977Y14720668D02*
X188100358Y14769049D01*
X188100358Y14769049D02*
X188124549Y14817430D01*
X188487406Y14043334D02*
X188487406Y14333620D01*
X188487406Y14188477D02*
X187979406Y14188477D01*
X187979406Y14188477D02*
X188051977Y14236858D01*
X188051977Y14236858D02*
X188100358Y14285239D01*
X188100358Y14285239D02*
X188124549Y14333620D01*
X188487406Y13801429D02*
X188487406Y13704667D01*
X188487406Y13704667D02*
X188463216Y13656286D01*
X188463216Y13656286D02*
X188439025Y13632095D01*
X188439025Y13632095D02*
X188366454Y13583714D01*
X188366454Y13583714D02*
X188269692Y13559524D01*
X188269692Y13559524D02*
X188076168Y13559524D01*
X188076168Y13559524D02*
X188027787Y13583714D01*
X188027787Y13583714D02*
X188003596Y13607905D01*
X188003596Y13607905D02*
X187979406Y13656286D01*
X187979406Y13656286D02*
X187979406Y13753048D01*
X187979406Y13753048D02*
X188003596Y13801429D01*
X188003596Y13801429D02*
X188027787Y13825619D01*
X188027787Y13825619D02*
X188076168Y13849810D01*
X188076168Y13849810D02*
X188197120Y13849810D01*
X188197120Y13849810D02*
X188245501Y13825619D01*
X188245501Y13825619D02*
X188269692Y13801429D01*
X188269692Y13801429D02*
X188293882Y13753048D01*
X188293882Y13753048D02*
X188293882Y13656286D01*
X188293882Y13656286D02*
X188269692Y13607905D01*
X188269692Y13607905D02*
X188245501Y13583714D01*
X188245501Y13583714D02*
X188197120Y13559524D01*
X188293882Y13341809D02*
X188293882Y12954761D01*
X188342263Y12737048D02*
X188342263Y12495143D01*
X188487406Y12785429D02*
X187979406Y12616095D01*
X187979406Y12616095D02*
X188487406Y12446762D01*
X187979406Y12035523D02*
X187979406Y12277428D01*
X187979406Y12277428D02*
X188221311Y12301619D01*
X188221311Y12301619D02*
X188197120Y12277428D01*
X188197120Y12277428D02*
X188172930Y12229047D01*
X188172930Y12229047D02*
X188172930Y12108095D01*
X188172930Y12108095D02*
X188197120Y12059714D01*
X188197120Y12059714D02*
X188221311Y12035523D01*
X188221311Y12035523D02*
X188269692Y12011333D01*
X188269692Y12011333D02*
X188390644Y12011333D01*
X188390644Y12011333D02*
X188439025Y12035523D01*
X188439025Y12035523D02*
X188463216Y12059714D01*
X188463216Y12059714D02*
X188487406Y12108095D01*
X188487406Y12108095D02*
X188487406Y12229047D01*
X188487406Y12229047D02*
X188463216Y12277428D01*
X188463216Y12277428D02*
X188439025Y12301619D01*
X188027787Y11817809D02*
X188003596Y11793618D01*
X188003596Y11793618D02*
X187979406Y11745237D01*
X187979406Y11745237D02*
X187979406Y11624285D01*
X187979406Y11624285D02*
X188003596Y11575904D01*
X188003596Y11575904D02*
X188027787Y11551713D01*
X188027787Y11551713D02*
X188076168Y11527523D01*
X188076168Y11527523D02*
X188124549Y11527523D01*
X188124549Y11527523D02*
X188197120Y11551713D01*
X188197120Y11551713D02*
X188487406Y11841999D01*
X188487406Y11841999D02*
X188487406Y11527523D01*
X188293882Y11309808D02*
X188293882Y10922760D01*
X188487406Y10414761D02*
X188487406Y10705047D01*
X188487406Y10559904D02*
X187979406Y10559904D01*
X187979406Y10559904D02*
X188051977Y10608285D01*
X188051977Y10608285D02*
X188100358Y10656666D01*
X188100358Y10656666D02*
X188124549Y10705047D01*
X188027787Y10221237D02*
X188003596Y10197046D01*
X188003596Y10197046D02*
X187979406Y10148665D01*
X187979406Y10148665D02*
X187979406Y10027713D01*
X187979406Y10027713D02*
X188003596Y9979332D01*
X188003596Y9979332D02*
X188027787Y9955141D01*
X188027787Y9955141D02*
X188076168Y9930951D01*
X188076168Y9930951D02*
X188124549Y9930951D01*
X188124549Y9930951D02*
X188197120Y9955141D01*
X188197120Y9955141D02*
X188487406Y10245427D01*
X188487406Y10245427D02*
X188487406Y9930951D01*
X185773333Y16653594D02*
X185603999Y16145594D01*
X185603999Y16145594D02*
X185434666Y16653594D01*
X185095999Y16411689D02*
X185023427Y16387499D01*
X185023427Y16387499D02*
X184999237Y16363308D01*
X184999237Y16363308D02*
X184975046Y16314927D01*
X184975046Y16314927D02*
X184975046Y16242356D01*
X184975046Y16242356D02*
X184999237Y16193975D01*
X184999237Y16193975D02*
X185023427Y16169784D01*
X185023427Y16169784D02*
X185071808Y16145594D01*
X185071808Y16145594D02*
X185265332Y16145594D01*
X185265332Y16145594D02*
X185265332Y16653594D01*
X185265332Y16653594D02*
X185095999Y16653594D01*
X185095999Y16653594D02*
X185047618Y16629404D01*
X185047618Y16629404D02*
X185023427Y16605213D01*
X185023427Y16605213D02*
X184999237Y16556832D01*
X184999237Y16556832D02*
X184999237Y16508451D01*
X184999237Y16508451D02*
X185023427Y16460070D01*
X185023427Y16460070D02*
X185047618Y16435880D01*
X185047618Y16435880D02*
X185095999Y16411689D01*
X185095999Y16411689D02*
X185265332Y16411689D01*
X184757332Y16653594D02*
X184757332Y16242356D01*
X184757332Y16242356D02*
X184733142Y16193975D01*
X184733142Y16193975D02*
X184708951Y16169784D01*
X184708951Y16169784D02*
X184660570Y16145594D01*
X184660570Y16145594D02*
X184563808Y16145594D01*
X184563808Y16145594D02*
X184515427Y16169784D01*
X184515427Y16169784D02*
X184491237Y16193975D01*
X184491237Y16193975D02*
X184467046Y16242356D01*
X184467046Y16242356D02*
X184467046Y16653594D01*
X184249333Y16169784D02*
X184176761Y16145594D01*
X184176761Y16145594D02*
X184055809Y16145594D01*
X184055809Y16145594D02*
X184007428Y16169784D01*
X184007428Y16169784D02*
X183983237Y16193975D01*
X183983237Y16193975D02*
X183959047Y16242356D01*
X183959047Y16242356D02*
X183959047Y16290737D01*
X183959047Y16290737D02*
X183983237Y16339118D01*
X183983237Y16339118D02*
X184007428Y16363308D01*
X184007428Y16363308D02*
X184055809Y16387499D01*
X184055809Y16387499D02*
X184152571Y16411689D01*
X184152571Y16411689D02*
X184200952Y16435880D01*
X184200952Y16435880D02*
X184225142Y16460070D01*
X184225142Y16460070D02*
X184249333Y16508451D01*
X184249333Y16508451D02*
X184249333Y16556832D01*
X184249333Y16556832D02*
X184225142Y16605213D01*
X184225142Y16605213D02*
X184200952Y16629404D01*
X184200952Y16629404D02*
X184152571Y16653594D01*
X184152571Y16653594D02*
X184031618Y16653594D01*
X184031618Y16653594D02*
X183959047Y16629404D01*
X184930666Y14943975D02*
X184954857Y14919784D01*
X184954857Y14919784D02*
X185027428Y14895594D01*
X185027428Y14895594D02*
X185075809Y14895594D01*
X185075809Y14895594D02*
X185148381Y14919784D01*
X185148381Y14919784D02*
X185196762Y14968165D01*
X185196762Y14968165D02*
X185220952Y15016546D01*
X185220952Y15016546D02*
X185245143Y15113308D01*
X185245143Y15113308D02*
X185245143Y15185880D01*
X185245143Y15185880D02*
X185220952Y15282642D01*
X185220952Y15282642D02*
X185196762Y15331023D01*
X185196762Y15331023D02*
X185148381Y15379404D01*
X185148381Y15379404D02*
X185075809Y15403594D01*
X185075809Y15403594D02*
X185027428Y15403594D01*
X185027428Y15403594D02*
X184954857Y15379404D01*
X184954857Y15379404D02*
X184930666Y15355213D01*
X184422666Y14943975D02*
X184446857Y14919784D01*
X184446857Y14919784D02*
X184519428Y14895594D01*
X184519428Y14895594D02*
X184567809Y14895594D01*
X184567809Y14895594D02*
X184640381Y14919784D01*
X184640381Y14919784D02*
X184688762Y14968165D01*
X184688762Y14968165D02*
X184712952Y15016546D01*
X184712952Y15016546D02*
X184737143Y15113308D01*
X184737143Y15113308D02*
X184737143Y15185880D01*
X184737143Y15185880D02*
X184712952Y15282642D01*
X184712952Y15282642D02*
X184688762Y15331023D01*
X184688762Y15331023D02*
X184640381Y15379404D01*
X184640381Y15379404D02*
X184567809Y15403594D01*
X184567809Y15403594D02*
X184519428Y15403594D01*
X184519428Y15403594D02*
X184446857Y15379404D01*
X184446857Y15379404D02*
X184422666Y15355213D01*
X183938857Y14895594D02*
X184229143Y14895594D01*
X184084000Y14895594D02*
X184084000Y15403594D01*
X184084000Y15403594D02*
X184132381Y15331023D01*
X184132381Y15331023D02*
X184180762Y15282642D01*
X184180762Y15282642D02*
X184229143Y15258451D01*
X184979047Y10763904D02*
X185027428Y10788094D01*
X185027428Y10788094D02*
X185099999Y10788094D01*
X185099999Y10788094D02*
X185172571Y10763904D01*
X185172571Y10763904D02*
X185220952Y10715523D01*
X185220952Y10715523D02*
X185245142Y10667142D01*
X185245142Y10667142D02*
X185269333Y10570380D01*
X185269333Y10570380D02*
X185269333Y10497808D01*
X185269333Y10497808D02*
X185245142Y10401046D01*
X185245142Y10401046D02*
X185220952Y10352665D01*
X185220952Y10352665D02*
X185172571Y10304284D01*
X185172571Y10304284D02*
X185099999Y10280094D01*
X185099999Y10280094D02*
X185051618Y10280094D01*
X185051618Y10280094D02*
X184979047Y10304284D01*
X184979047Y10304284D02*
X184954856Y10328475D01*
X184954856Y10328475D02*
X184954856Y10497808D01*
X184954856Y10497808D02*
X185051618Y10497808D01*
X184737142Y10280094D02*
X184737142Y10788094D01*
X184737142Y10788094D02*
X184446856Y10280094D01*
X184446856Y10280094D02*
X184446856Y10788094D01*
X184204952Y10280094D02*
X184204952Y10788094D01*
X184204952Y10788094D02*
X184084000Y10788094D01*
X184084000Y10788094D02*
X184011428Y10763904D01*
X184011428Y10763904D02*
X183963047Y10715523D01*
X183963047Y10715523D02*
X183938857Y10667142D01*
X183938857Y10667142D02*
X183914666Y10570380D01*
X183914666Y10570380D02*
X183914666Y10497808D01*
X183914666Y10497808D02*
X183938857Y10401046D01*
X183938857Y10401046D02*
X183963047Y10352665D01*
X183963047Y10352665D02*
X184011428Y10304284D01*
X184011428Y10304284D02*
X184084000Y10280094D01*
X184084000Y10280094D02*
X184204952Y10280094D01*
D10*
%TO.C,R11*%
X169004819Y15391858D02*
X168528628Y15725191D01*
X169004819Y15963286D02*
X168004819Y15963286D01*
X168004819Y15963286D02*
X168004819Y15582334D01*
X168004819Y15582334D02*
X168052438Y15487096D01*
X168052438Y15487096D02*
X168100057Y15439477D01*
X168100057Y15439477D02*
X168195295Y15391858D01*
X168195295Y15391858D02*
X168338152Y15391858D01*
X168338152Y15391858D02*
X168433390Y15439477D01*
X168433390Y15439477D02*
X168481009Y15487096D01*
X168481009Y15487096D02*
X168528628Y15582334D01*
X168528628Y15582334D02*
X168528628Y15963286D01*
X169004819Y14439477D02*
X169004819Y15010905D01*
X169004819Y14725191D02*
X168004819Y14725191D01*
X168004819Y14725191D02*
X168147676Y14820429D01*
X168147676Y14820429D02*
X168242914Y14915667D01*
X168242914Y14915667D02*
X168290533Y15010905D01*
X169004819Y13487096D02*
X169004819Y14058524D01*
X169004819Y13772810D02*
X168004819Y13772810D01*
X168004819Y13772810D02*
X168147676Y13868048D01*
X168147676Y13868048D02*
X168242914Y13963286D01*
X168242914Y13963286D02*
X168290533Y14058524D01*
%TO.C,R12*%
X170604819Y15391858D02*
X170128628Y15725191D01*
X170604819Y15963286D02*
X169604819Y15963286D01*
X169604819Y15963286D02*
X169604819Y15582334D01*
X169604819Y15582334D02*
X169652438Y15487096D01*
X169652438Y15487096D02*
X169700057Y15439477D01*
X169700057Y15439477D02*
X169795295Y15391858D01*
X169795295Y15391858D02*
X169938152Y15391858D01*
X169938152Y15391858D02*
X170033390Y15439477D01*
X170033390Y15439477D02*
X170081009Y15487096D01*
X170081009Y15487096D02*
X170128628Y15582334D01*
X170128628Y15582334D02*
X170128628Y15963286D01*
X170604819Y14439477D02*
X170604819Y15010905D01*
X170604819Y14725191D02*
X169604819Y14725191D01*
X169604819Y14725191D02*
X169747676Y14820429D01*
X169747676Y14820429D02*
X169842914Y14915667D01*
X169842914Y14915667D02*
X169890533Y15010905D01*
X169700057Y14058524D02*
X169652438Y14010905D01*
X169652438Y14010905D02*
X169604819Y13915667D01*
X169604819Y13915667D02*
X169604819Y13677572D01*
X169604819Y13677572D02*
X169652438Y13582334D01*
X169652438Y13582334D02*
X169700057Y13534715D01*
X169700057Y13534715D02*
X169795295Y13487096D01*
X169795295Y13487096D02*
X169890533Y13487096D01*
X169890533Y13487096D02*
X170033390Y13534715D01*
X170033390Y13534715D02*
X170604819Y14106143D01*
X170604819Y14106143D02*
X170604819Y13487096D01*
%TO.C,R10*%
X167454819Y15391858D02*
X166978628Y15725191D01*
X167454819Y15963286D02*
X166454819Y15963286D01*
X166454819Y15963286D02*
X166454819Y15582334D01*
X166454819Y15582334D02*
X166502438Y15487096D01*
X166502438Y15487096D02*
X166550057Y15439477D01*
X166550057Y15439477D02*
X166645295Y15391858D01*
X166645295Y15391858D02*
X166788152Y15391858D01*
X166788152Y15391858D02*
X166883390Y15439477D01*
X166883390Y15439477D02*
X166931009Y15487096D01*
X166931009Y15487096D02*
X166978628Y15582334D01*
X166978628Y15582334D02*
X166978628Y15963286D01*
X167454819Y14439477D02*
X167454819Y15010905D01*
X167454819Y14725191D02*
X166454819Y14725191D01*
X166454819Y14725191D02*
X166597676Y14820429D01*
X166597676Y14820429D02*
X166692914Y14915667D01*
X166692914Y14915667D02*
X166740533Y15010905D01*
X166454819Y13820429D02*
X166454819Y13725191D01*
X166454819Y13725191D02*
X166502438Y13629953D01*
X166502438Y13629953D02*
X166550057Y13582334D01*
X166550057Y13582334D02*
X166645295Y13534715D01*
X166645295Y13534715D02*
X166835771Y13487096D01*
X166835771Y13487096D02*
X167073866Y13487096D01*
X167073866Y13487096D02*
X167264342Y13534715D01*
X167264342Y13534715D02*
X167359580Y13582334D01*
X167359580Y13582334D02*
X167407200Y13629953D01*
X167407200Y13629953D02*
X167454819Y13725191D01*
X167454819Y13725191D02*
X167454819Y13820429D01*
X167454819Y13820429D02*
X167407200Y13915667D01*
X167407200Y13915667D02*
X167359580Y13963286D01*
X167359580Y13963286D02*
X167264342Y14010905D01*
X167264342Y14010905D02*
X167073866Y14058524D01*
X167073866Y14058524D02*
X166835771Y14058524D01*
X166835771Y14058524D02*
X166645295Y14010905D01*
X166645295Y14010905D02*
X166550057Y13963286D01*
X166550057Y13963286D02*
X166502438Y13915667D01*
X166502438Y13915667D02*
X166454819Y13820429D01*
%TO.C,R2*%
X176748666Y14676181D02*
X177081999Y15152372D01*
X177320094Y14676181D02*
X177320094Y15676181D01*
X177320094Y15676181D02*
X176939142Y15676181D01*
X176939142Y15676181D02*
X176843904Y15628562D01*
X176843904Y15628562D02*
X176796285Y15580943D01*
X176796285Y15580943D02*
X176748666Y15485705D01*
X176748666Y15485705D02*
X176748666Y15342848D01*
X176748666Y15342848D02*
X176796285Y15247610D01*
X176796285Y15247610D02*
X176843904Y15199991D01*
X176843904Y15199991D02*
X176939142Y15152372D01*
X176939142Y15152372D02*
X177320094Y15152372D01*
X176367713Y15580943D02*
X176320094Y15628562D01*
X176320094Y15628562D02*
X176224856Y15676181D01*
X176224856Y15676181D02*
X175986761Y15676181D01*
X175986761Y15676181D02*
X175891523Y15628562D01*
X175891523Y15628562D02*
X175843904Y15580943D01*
X175843904Y15580943D02*
X175796285Y15485705D01*
X175796285Y15485705D02*
X175796285Y15390467D01*
X175796285Y15390467D02*
X175843904Y15247610D01*
X175843904Y15247610D02*
X176415332Y14676181D01*
X176415332Y14676181D02*
X175796285Y14676181D01*
D14*
%TO.C,R1*%
X179359258Y11601500D02*
X178884742Y11601500D01*
X179359258Y12646500D02*
X178884742Y12646500D01*
%TO.C,C2*%
X154987580Y6249500D02*
X154706420Y6249500D01*
X154987580Y7269500D02*
X154706420Y7269500D01*
%TO.C,U2*%
X156757500Y5675500D02*
X155957500Y5675500D01*
X156757500Y5675500D02*
X157557500Y5675500D01*
X156757500Y2555500D02*
X154957500Y2555500D01*
X156757500Y2555500D02*
X157557500Y2555500D01*
%TO.C,C1*%
X159417000Y3837920D02*
X159417000Y4119080D01*
X160437000Y3837920D02*
X160437000Y4119080D01*
D11*
%TO.C,U3*%
X161143000Y-34500D02*
X161143000Y11165500D01*
X161143000Y-5434500D02*
X161143000Y-34500D01*
X174343000Y11165500D02*
X161143000Y11165500D01*
X174343000Y11165500D02*
X174343000Y-34500D01*
X174343000Y-34500D02*
X161143000Y-34500D01*
X174343000Y-5434500D02*
X161143000Y-5434500D01*
X174343000Y-5434500D02*
X174343000Y-34500D01*
D13*
%TO.C,USB-C1*%
X182842000Y17224000D02*
X183092000Y17324000D01*
X182842000Y17224000D02*
X183092000Y17124000D01*
X182842000Y16274000D02*
X183092000Y16374000D01*
X182842000Y16274000D02*
X183092000Y16174000D01*
X182842000Y15624000D02*
X183092000Y15724000D01*
X182842000Y15624000D02*
X183092000Y15524000D01*
X182842000Y15124000D02*
X183092000Y15224000D01*
X182842000Y15124000D02*
X183092000Y15024000D01*
X182842000Y14624000D02*
X183092000Y14724000D01*
X182842000Y14624000D02*
X183092000Y14524000D01*
X182842000Y14124000D02*
X183092000Y14224000D01*
X182842000Y14124000D02*
X183092000Y14024000D01*
X182842000Y13624000D02*
X183092000Y13724000D01*
X182842000Y13624000D02*
X183092000Y13524000D01*
X182842000Y13124000D02*
X183092000Y13224000D01*
X182842000Y13124000D02*
X183092000Y13024000D01*
X182842000Y12624000D02*
X183092000Y12724000D01*
X182842000Y12624000D02*
X183092000Y12524000D01*
X182842000Y12124000D02*
X183092000Y12224000D01*
X182842000Y12124000D02*
X183092000Y12024000D01*
X182842000Y11474000D02*
X183092000Y11574000D01*
X182842000Y11474000D02*
X183092000Y11374000D01*
X182842000Y11474000D02*
X183592000Y11474000D01*
X182842000Y10524000D02*
X183092000Y10624000D01*
X182842000Y10524000D02*
X183092000Y10424000D01*
X183592000Y17224000D02*
X182842000Y17224000D01*
X183592000Y16274000D02*
X182842000Y16274000D01*
X183592000Y15124000D02*
X182842000Y15124000D01*
X183592000Y14124000D02*
X182842000Y14124000D01*
X183592000Y13124000D02*
X182842000Y13124000D01*
X183592000Y12124000D02*
X182842000Y12124000D01*
X183592000Y10524000D02*
X182842000Y10524000D01*
D11*
X184042000Y18344000D02*
X185342000Y18344000D01*
X184042000Y9404000D02*
X185342000Y9404000D01*
D13*
X185342000Y15624000D02*
X182842000Y15624000D01*
X185342000Y14624000D02*
X182842000Y14624000D01*
X185342000Y13624000D02*
X182842000Y13624000D01*
X185342000Y12624000D02*
X182842000Y12624000D01*
D11*
X188042000Y18344000D02*
X189910000Y18344000D01*
X189910000Y18344000D02*
X189910000Y9404000D01*
X189910000Y9404000D02*
X188042000Y9404000D01*
D14*
%TO.C,R11*%
X169065500Y17836258D02*
X169065500Y17361742D01*
X168020500Y17836258D02*
X168020500Y17361742D01*
%TO.C,R12*%
X170622500Y17836258D02*
X170622500Y17361742D01*
X169577500Y17836258D02*
X169577500Y17361742D01*
%TO.C,R10*%
X167522500Y17836258D02*
X167522500Y17361742D01*
X166477500Y17836258D02*
X166477500Y17361742D01*
%TO.C,R2*%
X179359258Y14601500D02*
X178884742Y14601500D01*
X179359258Y15646500D02*
X178884742Y15646500D01*
%TD*%
M02*
