%TF.GenerationSoftware,KiCad,Pcbnew,7.0.5*%
%TF.CreationDate,2023-06-18T10:33:00+01:00*%
%TF.ProjectId,Rapid Training Target,52617069-6420-4547-9261-696e696e6720,A*%
%TF.SameCoordinates,Original*%
%TF.FileFunction,Legend,Top*%
%TF.FilePolarity,Positive*%
%FSLAX46Y46*%
G04 Gerber Fmt 4.6, Leading zero omitted, Abs format (unit mm)*
G04 Created by KiCad (PCBNEW 7.0.5) date 2023-06-18 10:33:00*
%MOMM*%
%LPD*%
G01*
G04 APERTURE LIST*
%ADD10C,0.150000*%
%ADD11C,0.120000*%
%ADD12C,0.170000*%
G04 APERTURE END LIST*
D10*
%TO.C,H3*%
X219238095Y-70454819D02*
X219238095Y-69454819D01*
X219238095Y-69931009D02*
X219809523Y-69931009D01*
X219809523Y-70454819D02*
X219809523Y-69454819D01*
X220190476Y-69454819D02*
X220809523Y-69454819D01*
X220809523Y-69454819D02*
X220476190Y-69835771D01*
X220476190Y-69835771D02*
X220619047Y-69835771D01*
X220619047Y-69835771D02*
X220714285Y-69883390D01*
X220714285Y-69883390D02*
X220761904Y-69931009D01*
X220761904Y-69931009D02*
X220809523Y-70026247D01*
X220809523Y-70026247D02*
X220809523Y-70264342D01*
X220809523Y-70264342D02*
X220761904Y-70359580D01*
X220761904Y-70359580D02*
X220714285Y-70407200D01*
X220714285Y-70407200D02*
X220619047Y-70454819D01*
X220619047Y-70454819D02*
X220333333Y-70454819D01*
X220333333Y-70454819D02*
X220238095Y-70407200D01*
X220238095Y-70407200D02*
X220190476Y-70359580D01*
%TO.C,H2*%
X39238095Y-70454819D02*
X39238095Y-69454819D01*
X39238095Y-69931009D02*
X39809523Y-69931009D01*
X39809523Y-70454819D02*
X39809523Y-69454819D01*
X40238095Y-69550057D02*
X40285714Y-69502438D01*
X40285714Y-69502438D02*
X40380952Y-69454819D01*
X40380952Y-69454819D02*
X40619047Y-69454819D01*
X40619047Y-69454819D02*
X40714285Y-69502438D01*
X40714285Y-69502438D02*
X40761904Y-69550057D01*
X40761904Y-69550057D02*
X40809523Y-69645295D01*
X40809523Y-69645295D02*
X40809523Y-69740533D01*
X40809523Y-69740533D02*
X40761904Y-69883390D01*
X40761904Y-69883390D02*
X40190476Y-70454819D01*
X40190476Y-70454819D02*
X40809523Y-70454819D01*
%TO.C,H1*%
X129238095Y-70454819D02*
X129238095Y-69454819D01*
X129238095Y-69931009D02*
X129809523Y-69931009D01*
X129809523Y-70454819D02*
X129809523Y-69454819D01*
X130809523Y-70454819D02*
X130238095Y-70454819D01*
X130523809Y-70454819D02*
X130523809Y-69454819D01*
X130523809Y-69454819D02*
X130428571Y-69597676D01*
X130428571Y-69597676D02*
X130333333Y-69692914D01*
X130333333Y-69692914D02*
X130238095Y-69740533D01*
D11*
%TO.C,D5*%
X219364286Y-79048902D02*
X219364286Y-77848902D01*
X219364286Y-77848902D02*
X219650000Y-77848902D01*
X219650000Y-77848902D02*
X219821429Y-77906045D01*
X219821429Y-77906045D02*
X219935714Y-78020331D01*
X219935714Y-78020331D02*
X219992857Y-78134617D01*
X219992857Y-78134617D02*
X220050000Y-78363188D01*
X220050000Y-78363188D02*
X220050000Y-78534617D01*
X220050000Y-78534617D02*
X219992857Y-78763188D01*
X219992857Y-78763188D02*
X219935714Y-78877474D01*
X219935714Y-78877474D02*
X219821429Y-78991760D01*
X219821429Y-78991760D02*
X219650000Y-79048902D01*
X219650000Y-79048902D02*
X219364286Y-79048902D01*
X221135714Y-77848902D02*
X220564286Y-77848902D01*
X220564286Y-77848902D02*
X220507143Y-78420331D01*
X220507143Y-78420331D02*
X220564286Y-78363188D01*
X220564286Y-78363188D02*
X220678572Y-78306045D01*
X220678572Y-78306045D02*
X220964286Y-78306045D01*
X220964286Y-78306045D02*
X221078572Y-78363188D01*
X221078572Y-78363188D02*
X221135714Y-78420331D01*
X221135714Y-78420331D02*
X221192857Y-78534617D01*
X221192857Y-78534617D02*
X221192857Y-78820331D01*
X221192857Y-78820331D02*
X221135714Y-78934617D01*
X221135714Y-78934617D02*
X221078572Y-78991760D01*
X221078572Y-78991760D02*
X220964286Y-79048902D01*
X220964286Y-79048902D02*
X220678572Y-79048902D01*
X220678572Y-79048902D02*
X220564286Y-78991760D01*
X220564286Y-78991760D02*
X220507143Y-78934617D01*
%TO.C,D4*%
X174364286Y-79048902D02*
X174364286Y-77848902D01*
X174364286Y-77848902D02*
X174650000Y-77848902D01*
X174650000Y-77848902D02*
X174821429Y-77906045D01*
X174821429Y-77906045D02*
X174935714Y-78020331D01*
X174935714Y-78020331D02*
X174992857Y-78134617D01*
X174992857Y-78134617D02*
X175050000Y-78363188D01*
X175050000Y-78363188D02*
X175050000Y-78534617D01*
X175050000Y-78534617D02*
X174992857Y-78763188D01*
X174992857Y-78763188D02*
X174935714Y-78877474D01*
X174935714Y-78877474D02*
X174821429Y-78991760D01*
X174821429Y-78991760D02*
X174650000Y-79048902D01*
X174650000Y-79048902D02*
X174364286Y-79048902D01*
X176078572Y-78248902D02*
X176078572Y-79048902D01*
X175792857Y-77791760D02*
X175507143Y-78648902D01*
X175507143Y-78648902D02*
X176250000Y-78648902D01*
%TO.C,D3*%
X129364286Y-79048902D02*
X129364286Y-77848902D01*
X129364286Y-77848902D02*
X129650000Y-77848902D01*
X129650000Y-77848902D02*
X129821429Y-77906045D01*
X129821429Y-77906045D02*
X129935714Y-78020331D01*
X129935714Y-78020331D02*
X129992857Y-78134617D01*
X129992857Y-78134617D02*
X130050000Y-78363188D01*
X130050000Y-78363188D02*
X130050000Y-78534617D01*
X130050000Y-78534617D02*
X129992857Y-78763188D01*
X129992857Y-78763188D02*
X129935714Y-78877474D01*
X129935714Y-78877474D02*
X129821429Y-78991760D01*
X129821429Y-78991760D02*
X129650000Y-79048902D01*
X129650000Y-79048902D02*
X129364286Y-79048902D01*
X130450000Y-77848902D02*
X131192857Y-77848902D01*
X131192857Y-77848902D02*
X130792857Y-78306045D01*
X130792857Y-78306045D02*
X130964286Y-78306045D01*
X130964286Y-78306045D02*
X131078572Y-78363188D01*
X131078572Y-78363188D02*
X131135714Y-78420331D01*
X131135714Y-78420331D02*
X131192857Y-78534617D01*
X131192857Y-78534617D02*
X131192857Y-78820331D01*
X131192857Y-78820331D02*
X131135714Y-78934617D01*
X131135714Y-78934617D02*
X131078572Y-78991760D01*
X131078572Y-78991760D02*
X130964286Y-79048902D01*
X130964286Y-79048902D02*
X130621429Y-79048902D01*
X130621429Y-79048902D02*
X130507143Y-78991760D01*
X130507143Y-78991760D02*
X130450000Y-78934617D01*
%TO.C,D2*%
X84364286Y-79048902D02*
X84364286Y-77848902D01*
X84364286Y-77848902D02*
X84650000Y-77848902D01*
X84650000Y-77848902D02*
X84821429Y-77906045D01*
X84821429Y-77906045D02*
X84935714Y-78020331D01*
X84935714Y-78020331D02*
X84992857Y-78134617D01*
X84992857Y-78134617D02*
X85050000Y-78363188D01*
X85050000Y-78363188D02*
X85050000Y-78534617D01*
X85050000Y-78534617D02*
X84992857Y-78763188D01*
X84992857Y-78763188D02*
X84935714Y-78877474D01*
X84935714Y-78877474D02*
X84821429Y-78991760D01*
X84821429Y-78991760D02*
X84650000Y-79048902D01*
X84650000Y-79048902D02*
X84364286Y-79048902D01*
X85507143Y-77963188D02*
X85564286Y-77906045D01*
X85564286Y-77906045D02*
X85678572Y-77848902D01*
X85678572Y-77848902D02*
X85964286Y-77848902D01*
X85964286Y-77848902D02*
X86078572Y-77906045D01*
X86078572Y-77906045D02*
X86135714Y-77963188D01*
X86135714Y-77963188D02*
X86192857Y-78077474D01*
X86192857Y-78077474D02*
X86192857Y-78191760D01*
X86192857Y-78191760D02*
X86135714Y-78363188D01*
X86135714Y-78363188D02*
X85450000Y-79048902D01*
X85450000Y-79048902D02*
X86192857Y-79048902D01*
%TO.C,D1*%
X39364286Y-79048902D02*
X39364286Y-77848902D01*
X39364286Y-77848902D02*
X39650000Y-77848902D01*
X39650000Y-77848902D02*
X39821429Y-77906045D01*
X39821429Y-77906045D02*
X39935714Y-78020331D01*
X39935714Y-78020331D02*
X39992857Y-78134617D01*
X39992857Y-78134617D02*
X40050000Y-78363188D01*
X40050000Y-78363188D02*
X40050000Y-78534617D01*
X40050000Y-78534617D02*
X39992857Y-78763188D01*
X39992857Y-78763188D02*
X39935714Y-78877474D01*
X39935714Y-78877474D02*
X39821429Y-78991760D01*
X39821429Y-78991760D02*
X39650000Y-79048902D01*
X39650000Y-79048902D02*
X39364286Y-79048902D01*
X41192857Y-79048902D02*
X40507143Y-79048902D01*
X40850000Y-79048902D02*
X40850000Y-77848902D01*
X40850000Y-77848902D02*
X40735714Y-78020331D01*
X40735714Y-78020331D02*
X40621429Y-78134617D01*
X40621429Y-78134617D02*
X40507143Y-78191760D01*
%TO.C,D5*%
X219290000Y-79305500D02*
X220710000Y-79305500D01*
X220710000Y-79305500D02*
X220710000Y-80694500D01*
X219290000Y-80694500D02*
X219290000Y-79305500D01*
X220710000Y-80694500D02*
X219290000Y-80694500D01*
D12*
X219085000Y-79655000D02*
G75*
G03*
X219085000Y-79655000I-85000J0D01*
G01*
D11*
%TO.C,D4*%
X174290000Y-79305500D02*
X175710000Y-79305500D01*
X175710000Y-79305500D02*
X175710000Y-80694500D01*
X174290000Y-80694500D02*
X174290000Y-79305500D01*
X175710000Y-80694500D02*
X174290000Y-80694500D01*
D12*
X174085000Y-79655000D02*
G75*
G03*
X174085000Y-79655000I-85000J0D01*
G01*
%TO.C,D3*%
X129085000Y-79655000D02*
G75*
G03*
X129085000Y-79655000I-85000J0D01*
G01*
D11*
X130710000Y-80694500D02*
X129290000Y-80694500D01*
X129290000Y-80694500D02*
X129290000Y-79305500D01*
X130710000Y-79305500D02*
X130710000Y-80694500D01*
X129290000Y-79305500D02*
X130710000Y-79305500D01*
%TO.C,D2*%
X84290000Y-79305500D02*
X85710000Y-79305500D01*
X85710000Y-79305500D02*
X85710000Y-80694500D01*
X84290000Y-80694500D02*
X84290000Y-79305500D01*
X85710000Y-80694500D02*
X84290000Y-80694500D01*
D12*
X84085000Y-79655000D02*
G75*
G03*
X84085000Y-79655000I-85000J0D01*
G01*
D11*
%TO.C,D1*%
X39290000Y-79305500D02*
X40710000Y-79305500D01*
X40710000Y-79305500D02*
X40710000Y-80694500D01*
X39290000Y-80694500D02*
X39290000Y-79305500D01*
X40710000Y-80694500D02*
X39290000Y-80694500D01*
D12*
X39085000Y-79655000D02*
G75*
G03*
X39085000Y-79655000I-85000J0D01*
G01*
%TD*%
M02*
