%TF.GenerationSoftware,KiCad,Pcbnew,7.0.5*%
%TF.CreationDate,2023-06-18T10:33:00+01:00*%
%TF.ProjectId,Rapid Training Target,52617069-6420-4547-9261-696e696e6720,A*%
%TF.SameCoordinates,Original*%
%TF.FileFunction,Legend,Bot*%
%TF.FilePolarity,Positive*%
%FSLAX46Y46*%
G04 Gerber Fmt 4.6, Leading zero omitted, Abs format (unit mm)*
G04 Created by KiCad (PCBNEW 7.0.5) date 2023-06-18 10:33:00*
%MOMM*%
%LPD*%
G01*
G04 APERTURE LIST*
%ADD10C,0.150000*%
%ADD11C,0.120000*%
G04 APERTURE END LIST*
D10*
%TO.C,R12*%
X175902857Y-78846819D02*
X176236190Y-78370628D01*
X176474285Y-78846819D02*
X176474285Y-77846819D01*
X176474285Y-77846819D02*
X176093333Y-77846819D01*
X176093333Y-77846819D02*
X175998095Y-77894438D01*
X175998095Y-77894438D02*
X175950476Y-77942057D01*
X175950476Y-77942057D02*
X175902857Y-78037295D01*
X175902857Y-78037295D02*
X175902857Y-78180152D01*
X175902857Y-78180152D02*
X175950476Y-78275390D01*
X175950476Y-78275390D02*
X175998095Y-78323009D01*
X175998095Y-78323009D02*
X176093333Y-78370628D01*
X176093333Y-78370628D02*
X176474285Y-78370628D01*
X174950476Y-78846819D02*
X175521904Y-78846819D01*
X175236190Y-78846819D02*
X175236190Y-77846819D01*
X175236190Y-77846819D02*
X175331428Y-77989676D01*
X175331428Y-77989676D02*
X175426666Y-78084914D01*
X175426666Y-78084914D02*
X175521904Y-78132533D01*
X174569523Y-77942057D02*
X174521904Y-77894438D01*
X174521904Y-77894438D02*
X174426666Y-77846819D01*
X174426666Y-77846819D02*
X174188571Y-77846819D01*
X174188571Y-77846819D02*
X174093333Y-77894438D01*
X174093333Y-77894438D02*
X174045714Y-77942057D01*
X174045714Y-77942057D02*
X173998095Y-78037295D01*
X173998095Y-78037295D02*
X173998095Y-78132533D01*
X173998095Y-78132533D02*
X174045714Y-78275390D01*
X174045714Y-78275390D02*
X174617142Y-78846819D01*
X174617142Y-78846819D02*
X173998095Y-78846819D01*
%TO.C,R11*%
X172346857Y-74782819D02*
X172680190Y-74306628D01*
X172918285Y-74782819D02*
X172918285Y-73782819D01*
X172918285Y-73782819D02*
X172537333Y-73782819D01*
X172537333Y-73782819D02*
X172442095Y-73830438D01*
X172442095Y-73830438D02*
X172394476Y-73878057D01*
X172394476Y-73878057D02*
X172346857Y-73973295D01*
X172346857Y-73973295D02*
X172346857Y-74116152D01*
X172346857Y-74116152D02*
X172394476Y-74211390D01*
X172394476Y-74211390D02*
X172442095Y-74259009D01*
X172442095Y-74259009D02*
X172537333Y-74306628D01*
X172537333Y-74306628D02*
X172918285Y-74306628D01*
X171394476Y-74782819D02*
X171965904Y-74782819D01*
X171680190Y-74782819D02*
X171680190Y-73782819D01*
X171680190Y-73782819D02*
X171775428Y-73925676D01*
X171775428Y-73925676D02*
X171870666Y-74020914D01*
X171870666Y-74020914D02*
X171965904Y-74068533D01*
X170442095Y-74782819D02*
X171013523Y-74782819D01*
X170727809Y-74782819D02*
X170727809Y-73782819D01*
X170727809Y-73782819D02*
X170823047Y-73925676D01*
X170823047Y-73925676D02*
X170918285Y-74020914D01*
X170918285Y-74020914D02*
X171013523Y-74068533D01*
%TO.C,R10*%
X168790857Y-70972819D02*
X169124190Y-70496628D01*
X169362285Y-70972819D02*
X169362285Y-69972819D01*
X169362285Y-69972819D02*
X168981333Y-69972819D01*
X168981333Y-69972819D02*
X168886095Y-70020438D01*
X168886095Y-70020438D02*
X168838476Y-70068057D01*
X168838476Y-70068057D02*
X168790857Y-70163295D01*
X168790857Y-70163295D02*
X168790857Y-70306152D01*
X168790857Y-70306152D02*
X168838476Y-70401390D01*
X168838476Y-70401390D02*
X168886095Y-70449009D01*
X168886095Y-70449009D02*
X168981333Y-70496628D01*
X168981333Y-70496628D02*
X169362285Y-70496628D01*
X167838476Y-70972819D02*
X168409904Y-70972819D01*
X168124190Y-70972819D02*
X168124190Y-69972819D01*
X168124190Y-69972819D02*
X168219428Y-70115676D01*
X168219428Y-70115676D02*
X168314666Y-70210914D01*
X168314666Y-70210914D02*
X168409904Y-70258533D01*
X167219428Y-69972819D02*
X167124190Y-69972819D01*
X167124190Y-69972819D02*
X167028952Y-70020438D01*
X167028952Y-70020438D02*
X166981333Y-70068057D01*
X166981333Y-70068057D02*
X166933714Y-70163295D01*
X166933714Y-70163295D02*
X166886095Y-70353771D01*
X166886095Y-70353771D02*
X166886095Y-70591866D01*
X166886095Y-70591866D02*
X166933714Y-70782342D01*
X166933714Y-70782342D02*
X166981333Y-70877580D01*
X166981333Y-70877580D02*
X167028952Y-70925200D01*
X167028952Y-70925200D02*
X167124190Y-70972819D01*
X167124190Y-70972819D02*
X167219428Y-70972819D01*
X167219428Y-70972819D02*
X167314666Y-70925200D01*
X167314666Y-70925200D02*
X167362285Y-70877580D01*
X167362285Y-70877580D02*
X167409904Y-70782342D01*
X167409904Y-70782342D02*
X167457523Y-70591866D01*
X167457523Y-70591866D02*
X167457523Y-70353771D01*
X167457523Y-70353771D02*
X167409904Y-70163295D01*
X167409904Y-70163295D02*
X167362285Y-70068057D01*
X167362285Y-70068057D02*
X167314666Y-70020438D01*
X167314666Y-70020438D02*
X167219428Y-69972819D01*
%TO.C,U1*%
X190463819Y-69695595D02*
X191273342Y-69695595D01*
X191273342Y-69695595D02*
X191368580Y-69743214D01*
X191368580Y-69743214D02*
X191416200Y-69790833D01*
X191416200Y-69790833D02*
X191463819Y-69886071D01*
X191463819Y-69886071D02*
X191463819Y-70076547D01*
X191463819Y-70076547D02*
X191416200Y-70171785D01*
X191416200Y-70171785D02*
X191368580Y-70219404D01*
X191368580Y-70219404D02*
X191273342Y-70267023D01*
X191273342Y-70267023D02*
X190463819Y-70267023D01*
X191463819Y-71267023D02*
X191463819Y-70695595D01*
X191463819Y-70981309D02*
X190463819Y-70981309D01*
X190463819Y-70981309D02*
X190606676Y-70886071D01*
X190606676Y-70886071D02*
X190701914Y-70790833D01*
X190701914Y-70790833D02*
X190749533Y-70695595D01*
%TO.C,Q3*%
X181578057Y-75929261D02*
X181530438Y-75834023D01*
X181530438Y-75834023D02*
X181435200Y-75738785D01*
X181435200Y-75738785D02*
X181292342Y-75595928D01*
X181292342Y-75595928D02*
X181244723Y-75500690D01*
X181244723Y-75500690D02*
X181244723Y-75405452D01*
X181482819Y-75453071D02*
X181435200Y-75357833D01*
X181435200Y-75357833D02*
X181339961Y-75262595D01*
X181339961Y-75262595D02*
X181149485Y-75214976D01*
X181149485Y-75214976D02*
X180816152Y-75214976D01*
X180816152Y-75214976D02*
X180625676Y-75262595D01*
X180625676Y-75262595D02*
X180530438Y-75357833D01*
X180530438Y-75357833D02*
X180482819Y-75453071D01*
X180482819Y-75453071D02*
X180482819Y-75643547D01*
X180482819Y-75643547D02*
X180530438Y-75738785D01*
X180530438Y-75738785D02*
X180625676Y-75834023D01*
X180625676Y-75834023D02*
X180816152Y-75881642D01*
X180816152Y-75881642D02*
X181149485Y-75881642D01*
X181149485Y-75881642D02*
X181339961Y-75834023D01*
X181339961Y-75834023D02*
X181435200Y-75738785D01*
X181435200Y-75738785D02*
X181482819Y-75643547D01*
X181482819Y-75643547D02*
X181482819Y-75453071D01*
X180482819Y-76214976D02*
X180482819Y-76834023D01*
X180482819Y-76834023D02*
X180863771Y-76500690D01*
X180863771Y-76500690D02*
X180863771Y-76643547D01*
X180863771Y-76643547D02*
X180911390Y-76738785D01*
X180911390Y-76738785D02*
X180959009Y-76786404D01*
X180959009Y-76786404D02*
X181054247Y-76834023D01*
X181054247Y-76834023D02*
X181292342Y-76834023D01*
X181292342Y-76834023D02*
X181387580Y-76786404D01*
X181387580Y-76786404D02*
X181435200Y-76738785D01*
X181435200Y-76738785D02*
X181482819Y-76643547D01*
X181482819Y-76643547D02*
X181482819Y-76357833D01*
X181482819Y-76357833D02*
X181435200Y-76262595D01*
X181435200Y-76262595D02*
X181387580Y-76214976D01*
%TO.C,Q2*%
X178022057Y-71865261D02*
X177974438Y-71770023D01*
X177974438Y-71770023D02*
X177879200Y-71674785D01*
X177879200Y-71674785D02*
X177736342Y-71531928D01*
X177736342Y-71531928D02*
X177688723Y-71436690D01*
X177688723Y-71436690D02*
X177688723Y-71341452D01*
X177926819Y-71389071D02*
X177879200Y-71293833D01*
X177879200Y-71293833D02*
X177783961Y-71198595D01*
X177783961Y-71198595D02*
X177593485Y-71150976D01*
X177593485Y-71150976D02*
X177260152Y-71150976D01*
X177260152Y-71150976D02*
X177069676Y-71198595D01*
X177069676Y-71198595D02*
X176974438Y-71293833D01*
X176974438Y-71293833D02*
X176926819Y-71389071D01*
X176926819Y-71389071D02*
X176926819Y-71579547D01*
X176926819Y-71579547D02*
X176974438Y-71674785D01*
X176974438Y-71674785D02*
X177069676Y-71770023D01*
X177069676Y-71770023D02*
X177260152Y-71817642D01*
X177260152Y-71817642D02*
X177593485Y-71817642D01*
X177593485Y-71817642D02*
X177783961Y-71770023D01*
X177783961Y-71770023D02*
X177879200Y-71674785D01*
X177879200Y-71674785D02*
X177926819Y-71579547D01*
X177926819Y-71579547D02*
X177926819Y-71389071D01*
X177022057Y-72198595D02*
X176974438Y-72246214D01*
X176974438Y-72246214D02*
X176926819Y-72341452D01*
X176926819Y-72341452D02*
X176926819Y-72579547D01*
X176926819Y-72579547D02*
X176974438Y-72674785D01*
X176974438Y-72674785D02*
X177022057Y-72722404D01*
X177022057Y-72722404D02*
X177117295Y-72770023D01*
X177117295Y-72770023D02*
X177212533Y-72770023D01*
X177212533Y-72770023D02*
X177355390Y-72722404D01*
X177355390Y-72722404D02*
X177926819Y-72150976D01*
X177926819Y-72150976D02*
X177926819Y-72770023D01*
%TO.C,Q1*%
X174400057Y-67976761D02*
X174352438Y-67881523D01*
X174352438Y-67881523D02*
X174257200Y-67786285D01*
X174257200Y-67786285D02*
X174114342Y-67643428D01*
X174114342Y-67643428D02*
X174066723Y-67548190D01*
X174066723Y-67548190D02*
X174066723Y-67452952D01*
X174304819Y-67500571D02*
X174257200Y-67405333D01*
X174257200Y-67405333D02*
X174161961Y-67310095D01*
X174161961Y-67310095D02*
X173971485Y-67262476D01*
X173971485Y-67262476D02*
X173638152Y-67262476D01*
X173638152Y-67262476D02*
X173447676Y-67310095D01*
X173447676Y-67310095D02*
X173352438Y-67405333D01*
X173352438Y-67405333D02*
X173304819Y-67500571D01*
X173304819Y-67500571D02*
X173304819Y-67691047D01*
X173304819Y-67691047D02*
X173352438Y-67786285D01*
X173352438Y-67786285D02*
X173447676Y-67881523D01*
X173447676Y-67881523D02*
X173638152Y-67929142D01*
X173638152Y-67929142D02*
X173971485Y-67929142D01*
X173971485Y-67929142D02*
X174161961Y-67881523D01*
X174161961Y-67881523D02*
X174257200Y-67786285D01*
X174257200Y-67786285D02*
X174304819Y-67691047D01*
X174304819Y-67691047D02*
X174304819Y-67500571D01*
X174304819Y-68881523D02*
X174304819Y-68310095D01*
X174304819Y-68595809D02*
X173304819Y-68595809D01*
X173304819Y-68595809D02*
X173447676Y-68500571D01*
X173447676Y-68500571D02*
X173542914Y-68405333D01*
X173542914Y-68405333D02*
X173590533Y-68310095D01*
D11*
%TO.C,R12*%
X175022742Y-76439500D02*
X175497258Y-76439500D01*
X175022742Y-77484500D02*
X175497258Y-77484500D01*
%TO.C,R11*%
X171466742Y-73420500D02*
X171941258Y-73420500D01*
X171466742Y-72375500D02*
X171941258Y-72375500D01*
%TO.C,R10*%
X167910742Y-68565500D02*
X168385258Y-68565500D01*
X167910742Y-69610500D02*
X168385258Y-69610500D01*
%TO.C,U1*%
X186944000Y-66040000D02*
X225044000Y-66040000D01*
X225044000Y-66040000D02*
X225044000Y-93980000D01*
X225044000Y-93980000D02*
X186944000Y-93980000D01*
X186944000Y-93980000D02*
X186944000Y-66040000D01*
%TO.C,Q3*%
X180188000Y-76024500D02*
X180188000Y-75374500D01*
X177068000Y-76024500D02*
X177068000Y-75374500D01*
X180188000Y-76024500D02*
X180188000Y-77699500D01*
X177068000Y-76024500D02*
X177068000Y-76674500D01*
%TO.C,Q2*%
X176632000Y-71960500D02*
X176632000Y-71310500D01*
X173512000Y-71960500D02*
X173512000Y-71310500D01*
X176632000Y-71960500D02*
X176632000Y-73635500D01*
X173512000Y-71960500D02*
X173512000Y-72610500D01*
%TO.C,Q1*%
X169890000Y-68072000D02*
X169890000Y-68722000D01*
X173010000Y-68072000D02*
X173010000Y-69747000D01*
X169890000Y-68072000D02*
X169890000Y-67422000D01*
X173010000Y-68072000D02*
X173010000Y-67422000D01*
%TD*%
M02*
