%TF.GenerationSoftware,KiCad,Pcbnew,7.0.5*%
%TF.CreationDate,2023-07-04T18:58:13+01:00*%
%TF.ProjectId,Rapid Training Target,52617069-6420-4547-9261-696e696e6720,B*%
%TF.SameCoordinates,PX2160ec0PY5f5dd18*%
%TF.FileFunction,Copper,L1,Top*%
%TF.FilePolarity,Positive*%
%FSLAX46Y46*%
G04 Gerber Fmt 4.6, Leading zero omitted, Abs format (unit mm)*
G04 Created by KiCad (PCBNEW 7.0.5) date 2023-07-04 18:58:13*
%MOMM*%
%LPD*%
G01*
G04 APERTURE LIST*
%TA.AperFunction,SMDPad,CuDef*%
%ADD10R,0.370000X0.339000*%
%TD*%
%TA.AperFunction,ComponentPad*%
%ADD11C,5.600000*%
%TD*%
%TA.AperFunction,ComponentPad*%
%ADD12O,2.200000X1.200000*%
%TD*%
%TA.AperFunction,ComponentPad*%
%ADD13O,2.000000X1.300000*%
%TD*%
%TA.AperFunction,ViaPad*%
%ADD14C,0.800000*%
%TD*%
%TA.AperFunction,Conductor*%
%ADD15C,0.250000*%
%TD*%
G04 APERTURE END LIST*
D10*
%TO.P,D3,1,A*%
%TO.N,+5V*%
X94655000Y20344000D03*
%TO.P,D3,2,RK*%
%TO.N,Net-(D1-RK)*%
X94655000Y19654000D03*
%TO.P,D3,3,BK*%
%TO.N,Net-(D1-BK)*%
X95345000Y19654000D03*
%TO.P,D3,4,GK*%
%TO.N,Net-(D1-GK)*%
X95345000Y20344000D03*
%TD*%
%TO.P,D4,1,A*%
%TO.N,+5V*%
X139655000Y20344000D03*
%TO.P,D4,2,RK*%
%TO.N,Net-(D1-RK)*%
X139655000Y19654000D03*
%TO.P,D4,3,BK*%
%TO.N,Net-(D1-BK)*%
X140345000Y19654000D03*
%TO.P,D4,4,GK*%
%TO.N,Net-(D1-GK)*%
X140345000Y20344000D03*
%TD*%
%TO.P,D2,1,A*%
%TO.N,+5V*%
X49655000Y20344000D03*
%TO.P,D2,2,RK*%
%TO.N,Net-(D1-RK)*%
X49655000Y19654000D03*
%TO.P,D2,3,BK*%
%TO.N,Net-(D1-BK)*%
X50345000Y19654000D03*
%TO.P,D2,4,GK*%
%TO.N,Net-(D1-GK)*%
X50345000Y20344000D03*
%TD*%
%TO.P,D1,1,A*%
%TO.N,+5V*%
X4655000Y20344000D03*
%TO.P,D1,2,RK*%
%TO.N,Net-(D1-RK)*%
X4655000Y19654000D03*
%TO.P,D1,3,BK*%
%TO.N,Net-(D1-BK)*%
X5345000Y19654000D03*
%TO.P,D1,4,GK*%
%TO.N,Net-(D1-GK)*%
X5345000Y20344000D03*
%TD*%
D11*
%TO.P,H2,1*%
%TO.N,N/C*%
X50000000Y11000000D03*
%TD*%
D10*
%TO.P,D5,1,A*%
%TO.N,+5V*%
X184655000Y20344000D03*
%TO.P,D5,2,RK*%
%TO.N,Net-(D1-RK)*%
X184655000Y19654000D03*
%TO.P,D5,3,BK*%
%TO.N,Net-(D1-BK)*%
X185345000Y19654000D03*
%TO.P,D5,4,GK*%
%TO.N,Net-(D1-GK)*%
X185345000Y20344000D03*
%TD*%
D11*
%TO.P,H3,1*%
%TO.N,N/C*%
X185000000Y11000000D03*
%TD*%
D12*
%TO.P,USB-C1,0,SHELL*%
%TO.N,GND*%
X200603000Y16181000D03*
X200603000Y7541000D03*
D13*
X204783000Y16181000D03*
X204783000Y7541000D03*
%TD*%
D14*
%TO.N,+5V*%
X157151000Y6781000D03*
X198179000Y8795000D03*
X155870000Y1968500D03*
X198179000Y14637000D03*
%TO.N,Net-(D1-RK)*%
X4116000Y18465000D03*
X184202000Y18465000D03*
X49074000Y18465000D03*
X94286000Y18465000D03*
X139244000Y18465000D03*
%TO.N,Net-(D1-BK)*%
X141784000Y19481000D03*
X51614000Y19227000D03*
X170100000Y19481000D03*
X96826000Y19481000D03*
X6656000Y19481000D03*
X170100000Y17576000D03*
X186488000Y19481000D03*
%TO.N,Net-(D1-GK)*%
X96572000Y20497000D03*
X51614000Y20497000D03*
X141530000Y20497000D03*
X6402000Y20497000D03*
X168543000Y20497000D03*
X186488000Y20497000D03*
X168543000Y17576000D03*
%TD*%
D15*
%TO.N,Net-(D1-RK)*%
X4655000Y19004000D02*
X4116000Y18465000D01*
X94655000Y19654000D02*
X94655000Y18834000D01*
X4655000Y19654000D02*
X4655000Y19004000D01*
X184655000Y19654000D02*
X184655000Y18918000D01*
X49655000Y19046000D02*
X49074000Y18465000D01*
X139655000Y18876000D02*
X139244000Y18465000D01*
X94655000Y18834000D02*
X94286000Y18465000D01*
X49655000Y19654000D02*
X49655000Y19046000D01*
X139655000Y19654000D02*
X139655000Y18876000D01*
X184655000Y18918000D02*
X184202000Y18465000D01*
%TO.N,Net-(D1-BK)*%
X96653000Y19654000D02*
X96826000Y19481000D01*
X185345000Y19654000D02*
X186315000Y19654000D01*
X50345000Y19654000D02*
X51187000Y19654000D01*
X186315000Y19654000D02*
X186488000Y19481000D01*
X95345000Y19654000D02*
X96653000Y19654000D01*
X141611000Y19654000D02*
X141784000Y19481000D01*
X6483000Y19654000D02*
X6656000Y19481000D01*
X170100000Y17576000D02*
X170100000Y19481000D01*
X5345000Y19654000D02*
X6483000Y19654000D01*
X140345000Y19654000D02*
X141611000Y19654000D01*
X51187000Y19654000D02*
X51614000Y19227000D01*
%TO.N,Net-(D1-GK)*%
X168543000Y17576000D02*
X168543000Y20497000D01*
X140345000Y20344000D02*
X141377000Y20344000D01*
X95345000Y20344000D02*
X96419000Y20344000D01*
X185345000Y20344000D02*
X186335000Y20344000D01*
X186335000Y20344000D02*
X186488000Y20497000D01*
X50345000Y20344000D02*
X51461000Y20344000D01*
X96419000Y20344000D02*
X96572000Y20497000D01*
X141377000Y20344000D02*
X141530000Y20497000D01*
X51461000Y20344000D02*
X51614000Y20497000D01*
X6249000Y20344000D02*
X6402000Y20497000D01*
X5345000Y20344000D02*
X6249000Y20344000D01*
%TD*%
%TA.AperFunction,Conductor*%
%TO.N,+5V*%
G36*
X204094918Y21699339D02*
G01*
X204422780Y21672749D01*
X204427920Y21672060D01*
X204752111Y21611175D01*
X204757134Y21609957D01*
X205073198Y21515514D01*
X205078081Y21513771D01*
X205382528Y21386814D01*
X205387194Y21384574D01*
X205676701Y21226490D01*
X205681115Y21223770D01*
X205952509Y21036293D01*
X205956615Y21033127D01*
X206206935Y20818299D01*
X206210687Y20814722D01*
X206358653Y20658052D01*
X206437172Y20574915D01*
X206440527Y20570968D01*
X206497004Y20497001D01*
X206640708Y20308795D01*
X206643634Y20304515D01*
X206815312Y20022857D01*
X206817775Y20018295D01*
X206826817Y19999221D01*
X206959073Y19720230D01*
X206961042Y19715443D01*
X207026270Y19529841D01*
X207069698Y19406269D01*
X207070411Y19404242D01*
X207071871Y19399267D01*
X207075555Y19383759D01*
X207148112Y19078336D01*
X207149041Y19073252D01*
X207191317Y18746106D01*
X207191711Y18740936D01*
X207199486Y18414296D01*
X207199500Y18413118D01*
X207199500Y18405003D01*
X207199480Y18403589D01*
X207198263Y18361006D01*
X207199091Y18354603D01*
X207199500Y18348251D01*
X207199500Y3454996D01*
X207199001Y3448228D01*
X207199500Y3398417D01*
X207199500Y3398256D01*
X207199458Y3395692D01*
X207185650Y3074902D01*
X207185148Y3069689D01*
X207137659Y2753487D01*
X207136605Y2748343D01*
X207055910Y2438942D01*
X207054317Y2433939D01*
X206941322Y2134811D01*
X206939208Y2130004D01*
X206795192Y1844536D01*
X206792582Y1839980D01*
X206619149Y1571349D01*
X206616071Y1567095D01*
X206415179Y1318335D01*
X206411668Y1314431D01*
X206185569Y1088332D01*
X206181665Y1084821D01*
X205932905Y883929D01*
X205928651Y880851D01*
X205660020Y707418D01*
X205655464Y704808D01*
X205369996Y560792D01*
X205365189Y558678D01*
X205066061Y445683D01*
X205061058Y444090D01*
X204751657Y363395D01*
X204746513Y362341D01*
X204430311Y314852D01*
X204425098Y314350D01*
X204118175Y301139D01*
X204104308Y300542D01*
X204101744Y300500D01*
X204101583Y300500D01*
X204051775Y300999D01*
X204045005Y300500D01*
X3401290Y300500D01*
X3398705Y300568D01*
X3078606Y317344D01*
X3073451Y317885D01*
X3037928Y323512D01*
X2758137Y367827D01*
X2753074Y368903D01*
X2444704Y451530D01*
X2439773Y453133D01*
X2141747Y567535D01*
X2137011Y569643D01*
X1852556Y714579D01*
X1848066Y717172D01*
X1580330Y891043D01*
X1576150Y894080D01*
X1328053Y1094985D01*
X1324200Y1098454D01*
X1098453Y1324201D01*
X1094984Y1328054D01*
X964963Y1488616D01*
X894076Y1576154D01*
X891044Y1580327D01*
X717165Y1848077D01*
X714582Y1852550D01*
X569642Y2137012D01*
X567534Y2141748D01*
X453132Y2439774D01*
X451529Y2444705D01*
X437055Y2498723D01*
X368899Y2753088D01*
X367828Y2758123D01*
X317882Y3073467D01*
X317344Y3078590D01*
X300567Y3398706D01*
X300500Y3401290D01*
X300500Y7541000D01*
X199297435Y7541000D01*
X199317632Y7361743D01*
X199317633Y7361739D01*
X199377211Y7191478D01*
X199377211Y7191477D01*
X199459261Y7060896D01*
X199473184Y7038738D01*
X199600738Y6911184D01*
X199753478Y6815211D01*
X199821657Y6791354D01*
X199923738Y6755634D01*
X199923742Y6755633D01*
X199923745Y6755632D01*
X199923746Y6755632D01*
X199923750Y6755631D01*
X200058029Y6740501D01*
X200058045Y6740501D01*
X200058046Y6740500D01*
X200058047Y6740500D01*
X201147953Y6740500D01*
X201147954Y6740500D01*
X201147955Y6740501D01*
X201147970Y6740501D01*
X201282249Y6755631D01*
X201282251Y6755632D01*
X201282255Y6755632D01*
X201452522Y6815211D01*
X201605262Y6911184D01*
X201732816Y7038738D01*
X201828789Y7191478D01*
X201888368Y7361745D01*
X201908565Y7541000D01*
X201903346Y7587317D01*
X203578740Y7587317D01*
X203588755Y7402593D01*
X203638246Y7224341D01*
X203638247Y7224339D01*
X203638250Y7224333D01*
X203724899Y7060897D01*
X203724900Y7060896D01*
X203844661Y6919902D01*
X203844666Y6919897D01*
X203991932Y6807948D01*
X203991934Y6807947D01*
X203991935Y6807947D01*
X203991936Y6807946D01*
X204159833Y6730268D01*
X204340503Y6690500D01*
X204340507Y6690500D01*
X205179112Y6690500D01*
X205179113Y6690500D01*
X205316910Y6705486D01*
X205492221Y6764556D01*
X205650736Y6859930D01*
X205785041Y6987151D01*
X205888858Y7140270D01*
X205957331Y7312125D01*
X205987260Y7494683D01*
X205977245Y7679407D01*
X205927754Y7857659D01*
X205841100Y8021104D01*
X205778459Y8094851D01*
X205721338Y8162099D01*
X205721333Y8162104D01*
X205574067Y8274053D01*
X205574065Y8274054D01*
X205406170Y8351731D01*
X205406168Y8351732D01*
X205370033Y8359686D01*
X205225497Y8391500D01*
X204386887Y8391500D01*
X204249090Y8376514D01*
X204216224Y8365440D01*
X204073780Y8317445D01*
X204073777Y8317444D01*
X203915266Y8222073D01*
X203915262Y8222069D01*
X203780960Y8094851D01*
X203677142Y7941733D01*
X203608669Y7769876D01*
X203608669Y7769875D01*
X203578740Y7587317D01*
X201903346Y7587317D01*
X201888368Y7720255D01*
X201828789Y7890522D01*
X201732816Y8043262D01*
X201605262Y8170816D01*
X201605259Y8170818D01*
X201605258Y8170819D01*
X201452523Y8266789D01*
X201364972Y8297425D01*
X201316291Y8334491D01*
X201298695Y8393091D01*
X201318904Y8450843D01*
X201358227Y8481673D01*
X201391720Y8496220D01*
X201509108Y8591722D01*
X201596377Y8715353D01*
X201647054Y8857944D01*
X201657381Y9008921D01*
X201645094Y9068047D01*
X201626593Y9157080D01*
X201626593Y9157082D01*
X201626592Y9157084D01*
X201626592Y9157085D01*
X201556971Y9291447D01*
X201453680Y9402044D01*
X201324382Y9480672D01*
X201324381Y9480673D01*
X201324380Y9480673D01*
X201178665Y9521500D01*
X201065342Y9521500D01*
X200953079Y9506071D01*
X200814281Y9445781D01*
X200696889Y9350276D01*
X200609623Y9226648D01*
X200558945Y9084057D01*
X200548619Y8933079D01*
X200579406Y8784921D01*
X200579406Y8784919D01*
X200579407Y8784916D01*
X200579408Y8784915D01*
X200615452Y8715353D01*
X200649030Y8650552D01*
X200752321Y8539955D01*
X200776770Y8525087D01*
X200816665Y8478698D01*
X200821674Y8417718D01*
X200789883Y8365440D01*
X200733435Y8341832D01*
X200725331Y8341500D01*
X200058029Y8341500D01*
X199923750Y8326370D01*
X199923738Y8326367D01*
X199753477Y8266789D01*
X199753476Y8266789D01*
X199600741Y8170819D01*
X199473181Y8043259D01*
X199377211Y7890524D01*
X199377211Y7890523D01*
X199317633Y7720262D01*
X199317632Y7720258D01*
X199297435Y7541000D01*
X300500Y7541000D01*
X300500Y11000000D01*
X46994415Y11000000D01*
X47014738Y10651071D01*
X47075430Y10306867D01*
X47075430Y10306866D01*
X47075431Y10306864D01*
X47175674Y9972029D01*
X47314111Y9651096D01*
X47488870Y9348404D01*
X47697588Y9068047D01*
X47937442Y8813817D01*
X48205189Y8589151D01*
X48497207Y8397087D01*
X48809549Y8240223D01*
X49137989Y8120681D01*
X49137992Y8120681D01*
X49137993Y8120680D01*
X49478075Y8040079D01*
X49478080Y8040079D01*
X49478086Y8040077D01*
X49825241Y7999500D01*
X49825244Y7999500D01*
X50174756Y7999500D01*
X50174759Y7999500D01*
X50521914Y8040077D01*
X50521920Y8040079D01*
X50521924Y8040079D01*
X50753025Y8094851D01*
X50862011Y8120681D01*
X51190451Y8240223D01*
X51502793Y8397087D01*
X51794811Y8589151D01*
X52062558Y8813817D01*
X52302412Y9068047D01*
X52511130Y9348404D01*
X52685889Y9651096D01*
X52824326Y9972029D01*
X52924569Y10306864D01*
X52985262Y10651073D01*
X53005585Y11000000D01*
X181994415Y11000000D01*
X182014738Y10651071D01*
X182075430Y10306867D01*
X182075430Y10306866D01*
X182075431Y10306864D01*
X182175674Y9972029D01*
X182314111Y9651096D01*
X182488870Y9348404D01*
X182697588Y9068047D01*
X182937442Y8813817D01*
X183205189Y8589151D01*
X183497207Y8397087D01*
X183809549Y8240223D01*
X184137989Y8120681D01*
X184137992Y8120681D01*
X184137993Y8120680D01*
X184478075Y8040079D01*
X184478080Y8040079D01*
X184478086Y8040077D01*
X184825241Y7999500D01*
X184825244Y7999500D01*
X185174756Y7999500D01*
X185174759Y7999500D01*
X185521914Y8040077D01*
X185521920Y8040079D01*
X185521924Y8040079D01*
X185753025Y8094851D01*
X185862011Y8120681D01*
X186190451Y8240223D01*
X186502793Y8397087D01*
X186794811Y8589151D01*
X187062558Y8813817D01*
X187302412Y9068047D01*
X187511130Y9348404D01*
X187685889Y9651096D01*
X187824326Y9972029D01*
X187924569Y10306864D01*
X187985262Y10651073D01*
X188005585Y11000000D01*
X187985262Y11348927D01*
X187924569Y11693136D01*
X187824326Y12027971D01*
X187685889Y12348904D01*
X187511130Y12651596D01*
X187302412Y12931953D01*
X187062558Y13186183D01*
X186794811Y13410849D01*
X186700157Y13473104D01*
X186502794Y13602913D01*
X186190453Y13759776D01*
X186190452Y13759777D01*
X186190451Y13759777D01*
X185862011Y13879319D01*
X185862012Y13879319D01*
X185862006Y13879321D01*
X185521924Y13959922D01*
X185409089Y13973111D01*
X185174759Y14000500D01*
X184825241Y14000500D01*
X184633950Y13978142D01*
X184478075Y13959922D01*
X184137993Y13879321D01*
X183941191Y13807691D01*
X183809549Y13759777D01*
X183809548Y13759777D01*
X183809546Y13759776D01*
X183497205Y13602913D01*
X183205190Y13410850D01*
X182937443Y13186185D01*
X182697591Y12931957D01*
X182488871Y12651598D01*
X182488869Y12651595D01*
X182314111Y12348905D01*
X182314108Y12348898D01*
X182175674Y12027973D01*
X182175672Y12027966D01*
X182075430Y11693135D01*
X182075430Y11693134D01*
X182014738Y11348930D01*
X181994415Y11000000D01*
X53005585Y11000000D01*
X52985262Y11348927D01*
X52924569Y11693136D01*
X52824326Y12027971D01*
X52685889Y12348904D01*
X52511130Y12651596D01*
X52302412Y12931953D01*
X52062558Y13186183D01*
X51794811Y13410849D01*
X51700157Y13473104D01*
X51502794Y13602913D01*
X51190453Y13759776D01*
X51190452Y13759777D01*
X51190451Y13759777D01*
X50862011Y13879319D01*
X50862012Y13879319D01*
X50862006Y13879321D01*
X50521924Y13959922D01*
X50409089Y13973111D01*
X50174759Y14000500D01*
X49825241Y14000500D01*
X49633950Y13978142D01*
X49478075Y13959922D01*
X49137993Y13879321D01*
X48941191Y13807691D01*
X48809549Y13759777D01*
X48809548Y13759777D01*
X48809546Y13759776D01*
X48497205Y13602913D01*
X48205190Y13410850D01*
X47937443Y13186185D01*
X47697591Y12931957D01*
X47488871Y12651598D01*
X47488869Y12651595D01*
X47314111Y12348905D01*
X47314108Y12348898D01*
X47175674Y12027973D01*
X47175672Y12027966D01*
X47075430Y11693135D01*
X47075430Y11693134D01*
X47014738Y11348930D01*
X46994415Y11000000D01*
X300500Y11000000D01*
X300500Y16181000D01*
X199297435Y16181000D01*
X199317632Y16001743D01*
X199317633Y16001739D01*
X199377211Y15831478D01*
X199377211Y15831477D01*
X199459261Y15700896D01*
X199473184Y15678738D01*
X199600738Y15551184D01*
X199753478Y15455211D01*
X199821657Y15431354D01*
X199923738Y15395634D01*
X199923742Y15395633D01*
X199923745Y15395632D01*
X199923746Y15395632D01*
X199923750Y15395631D01*
X200058029Y15380501D01*
X200058045Y15380501D01*
X200058046Y15380500D01*
X200058047Y15380500D01*
X200725897Y15380500D01*
X200784088Y15361593D01*
X200820052Y15312093D01*
X200820052Y15250907D01*
X200788374Y15204704D01*
X200696891Y15130278D01*
X200609623Y15006648D01*
X200558945Y14864057D01*
X200548619Y14713079D01*
X200579406Y14564921D01*
X200579406Y14564919D01*
X200579407Y14564916D01*
X200579408Y14564915D01*
X200649029Y14430553D01*
X200752320Y14319956D01*
X200881618Y14241328D01*
X201027335Y14200500D01*
X201027336Y14200500D01*
X201140652Y14200500D01*
X201140658Y14200500D01*
X201252920Y14215930D01*
X201391720Y14276220D01*
X201509108Y14371722D01*
X201596377Y14495353D01*
X201647054Y14637944D01*
X201657381Y14788921D01*
X201641767Y14864057D01*
X201626593Y14937080D01*
X201626593Y14937082D01*
X201626592Y14937084D01*
X201626592Y14937085D01*
X201556971Y15071447D01*
X201453680Y15182044D01*
X201453679Y15182045D01*
X201453678Y15182046D01*
X201347109Y15246852D01*
X201307214Y15293241D01*
X201302205Y15354221D01*
X201333996Y15406499D01*
X201365850Y15424883D01*
X201377518Y15428967D01*
X201452522Y15455211D01*
X201605262Y15551184D01*
X201732816Y15678738D01*
X201828789Y15831478D01*
X201888368Y16001745D01*
X201908565Y16181000D01*
X201903346Y16227317D01*
X203578740Y16227317D01*
X203588755Y16042593D01*
X203638246Y15864341D01*
X203638247Y15864339D01*
X203638250Y15864333D01*
X203724899Y15700897D01*
X203724900Y15700896D01*
X203844661Y15559902D01*
X203844666Y15559897D01*
X203991932Y15447948D01*
X203991934Y15447947D01*
X203991935Y15447947D01*
X203991936Y15447946D01*
X204159833Y15370268D01*
X204340503Y15330500D01*
X204340507Y15330500D01*
X205179112Y15330500D01*
X205179113Y15330500D01*
X205316910Y15345486D01*
X205492221Y15404556D01*
X205650736Y15499930D01*
X205785041Y15627151D01*
X205888858Y15780270D01*
X205957331Y15952125D01*
X205987260Y16134683D01*
X205977245Y16319407D01*
X205927754Y16497659D01*
X205841100Y16661104D01*
X205721337Y16802100D01*
X205721333Y16802104D01*
X205574067Y16914053D01*
X205574065Y16914054D01*
X205406170Y16991731D01*
X205406168Y16991732D01*
X205370032Y16999686D01*
X205225497Y17031500D01*
X204386887Y17031500D01*
X204249090Y17016514D01*
X204190020Y16996612D01*
X204073780Y16957445D01*
X204073777Y16957444D01*
X203915266Y16862073D01*
X203915262Y16862069D01*
X203780960Y16734851D01*
X203677142Y16581733D01*
X203608669Y16409876D01*
X203608669Y16409875D01*
X203578740Y16227317D01*
X201903346Y16227317D01*
X201888368Y16360255D01*
X201828789Y16530522D01*
X201732816Y16683262D01*
X201605262Y16810816D01*
X201605259Y16810818D01*
X201605258Y16810819D01*
X201452523Y16906789D01*
X201282261Y16966367D01*
X201282249Y16966370D01*
X201147970Y16981500D01*
X201147954Y16981500D01*
X200058046Y16981500D01*
X200058029Y16981500D01*
X199923750Y16966370D01*
X199923738Y16966367D01*
X199753477Y16906789D01*
X199753476Y16906789D01*
X199600741Y16810819D01*
X199473181Y16683259D01*
X199377211Y16530524D01*
X199377211Y16530523D01*
X199317633Y16360262D01*
X199317632Y16360258D01*
X199297435Y16181000D01*
X300500Y16181000D01*
X300500Y17576000D01*
X167937318Y17576000D01*
X167957955Y17419242D01*
X167957957Y17419234D01*
X168018462Y17273162D01*
X168018462Y17273161D01*
X168018464Y17273159D01*
X168114718Y17147718D01*
X168240159Y17051464D01*
X168240160Y17051464D01*
X168240161Y17051463D01*
X168384367Y16991731D01*
X168386238Y16990956D01*
X168503809Y16975478D01*
X168542999Y16970318D01*
X168543000Y16970318D01*
X168543001Y16970318D01*
X168574352Y16974446D01*
X168699762Y16990956D01*
X168845841Y17051464D01*
X168971282Y17147718D01*
X169067536Y17273159D01*
X169128044Y17419238D01*
X169148682Y17576000D01*
X169494318Y17576000D01*
X169514955Y17419242D01*
X169514957Y17419234D01*
X169575462Y17273162D01*
X169575462Y17273161D01*
X169575464Y17273159D01*
X169671718Y17147718D01*
X169797159Y17051464D01*
X169797160Y17051464D01*
X169797161Y17051463D01*
X169941367Y16991731D01*
X169943238Y16990956D01*
X170060809Y16975478D01*
X170099999Y16970318D01*
X170100000Y16970318D01*
X170100001Y16970318D01*
X170131352Y16974446D01*
X170256762Y16990956D01*
X170402841Y17051464D01*
X170528282Y17147718D01*
X170624536Y17273159D01*
X170685044Y17419238D01*
X170705682Y17576000D01*
X170685044Y17732762D01*
X170624537Y17878839D01*
X170624537Y17878840D01*
X170528281Y18004284D01*
X170528280Y18004285D01*
X170464232Y18053430D01*
X170429576Y18103854D01*
X170425499Y18131966D01*
X170425499Y18465000D01*
X183596318Y18465000D01*
X183616955Y18308242D01*
X183616957Y18308234D01*
X183677462Y18162162D01*
X183677462Y18162161D01*
X183760894Y18053430D01*
X183773718Y18036718D01*
X183899159Y17940464D01*
X184045238Y17879956D01*
X184162809Y17864478D01*
X184201999Y17859318D01*
X184202000Y17859318D01*
X184202001Y17859318D01*
X184233352Y17863446D01*
X184358762Y17879956D01*
X184504841Y17940464D01*
X184630282Y18036718D01*
X184726536Y18162159D01*
X184787044Y18308238D01*
X184807682Y18465000D01*
X184797143Y18545044D01*
X184808292Y18605201D01*
X184825289Y18627965D01*
X184873583Y18676258D01*
X184876760Y18679171D01*
X184908194Y18705545D01*
X184928714Y18741089D01*
X184931012Y18744697D01*
X184954554Y18778316D01*
X184954941Y18779764D01*
X184964838Y18803655D01*
X184965588Y18804955D01*
X184972709Y18845344D01*
X184973640Y18849548D01*
X184984264Y18889193D01*
X184980687Y18930078D01*
X184980500Y18934377D01*
X184980500Y19195145D01*
X184999407Y19253336D01*
X185048907Y19289300D01*
X185098815Y19292242D01*
X185140241Y19284002D01*
X185140246Y19284002D01*
X185140252Y19284000D01*
X185140253Y19284000D01*
X185549747Y19284000D01*
X185549748Y19284000D01*
X185608231Y19295633D01*
X185632448Y19311815D01*
X185687451Y19328500D01*
X185835041Y19328500D01*
X185893232Y19309593D01*
X185926505Y19267385D01*
X185963462Y19178162D01*
X185963462Y19178161D01*
X186055620Y19058058D01*
X186059718Y19052718D01*
X186059721Y19052716D01*
X186059723Y19052714D01*
X186063203Y19050044D01*
X186185159Y18956464D01*
X186185160Y18956464D01*
X186185161Y18956463D01*
X186248901Y18930061D01*
X186331238Y18895956D01*
X186448809Y18880478D01*
X186487999Y18875318D01*
X186488000Y18875318D01*
X186488001Y18875318D01*
X186519352Y18879446D01*
X186644762Y18895956D01*
X186790841Y18956464D01*
X186916282Y19052718D01*
X187012536Y19178159D01*
X187073044Y19324238D01*
X187093682Y19481000D01*
X187073044Y19637762D01*
X187055758Y19679494D01*
X187012537Y19783839D01*
X187012537Y19783840D01*
X186916281Y19909284D01*
X186916278Y19909286D01*
X186914746Y19910462D01*
X186913962Y19911603D01*
X186911691Y19913874D01*
X186912111Y19914295D01*
X186880093Y19960888D01*
X186881697Y20022052D01*
X186912028Y20063795D01*
X186911693Y20064130D01*
X186913811Y20066249D01*
X186914753Y20067546D01*
X186916282Y20068718D01*
X187012536Y20194159D01*
X187073044Y20340238D01*
X187093682Y20497000D01*
X187073044Y20653762D01*
X187012537Y20799839D01*
X187012537Y20799840D01*
X186916286Y20925277D01*
X186916285Y20925278D01*
X186916282Y20925282D01*
X186916277Y20925286D01*
X186916276Y20925287D01*
X186790838Y21021538D01*
X186644766Y21082043D01*
X186644758Y21082045D01*
X186488001Y21102682D01*
X186487999Y21102682D01*
X186331241Y21082045D01*
X186331233Y21082043D01*
X186185161Y21021538D01*
X186185160Y21021538D01*
X186059723Y20925287D01*
X186059713Y20925277D01*
X185963464Y20799843D01*
X185963463Y20799840D01*
X185934789Y20730614D01*
X185895052Y20684088D01*
X185843325Y20669500D01*
X185687451Y20669500D01*
X185632449Y20686185D01*
X185608233Y20702366D01*
X185608231Y20702367D01*
X185608228Y20702368D01*
X185608227Y20702368D01*
X185549758Y20713999D01*
X185549748Y20714000D01*
X185140252Y20714000D01*
X185140251Y20714000D01*
X185140241Y20713999D01*
X185081772Y20702368D01*
X185081766Y20702366D01*
X185015451Y20658055D01*
X185015445Y20658049D01*
X184971134Y20591734D01*
X184971132Y20591728D01*
X184959501Y20533259D01*
X184959500Y20533247D01*
X184959500Y20154749D01*
X184961979Y20142288D01*
X184954787Y20081526D01*
X184913254Y20036597D01*
X184864612Y20026378D01*
X184864612Y20024000D01*
X184859748Y20024000D01*
X184450252Y20024000D01*
X184450251Y20024000D01*
X184450241Y20023999D01*
X184391772Y20012368D01*
X184391766Y20012366D01*
X184325451Y19968055D01*
X184325445Y19968049D01*
X184281134Y19901734D01*
X184281132Y19901728D01*
X184269501Y19843259D01*
X184269500Y19843247D01*
X184269500Y19464754D01*
X184269501Y19464742D01*
X184281132Y19406273D01*
X184281134Y19406267D01*
X184312815Y19358854D01*
X184329500Y19303852D01*
X184329500Y19166785D01*
X184310593Y19108594D01*
X184261093Y19072630D01*
X184217582Y19068631D01*
X184208978Y19069764D01*
X184202000Y19070682D01*
X184201999Y19070682D01*
X184201998Y19070682D01*
X184045241Y19050045D01*
X184045233Y19050043D01*
X183899161Y18989538D01*
X183899160Y18989538D01*
X183773723Y18893287D01*
X183773713Y18893277D01*
X183677462Y18767840D01*
X183677462Y18767839D01*
X183616957Y18621767D01*
X183616955Y18621759D01*
X183596318Y18465001D01*
X183596318Y18465000D01*
X170425499Y18465000D01*
X170425500Y18925034D01*
X170444406Y18983221D01*
X170464228Y19003568D01*
X170528282Y19052718D01*
X170624536Y19178159D01*
X170685044Y19324238D01*
X170705682Y19481000D01*
X170685044Y19637762D01*
X170667758Y19679494D01*
X170624537Y19783839D01*
X170624537Y19783840D01*
X170528286Y19909277D01*
X170528285Y19909278D01*
X170528282Y19909282D01*
X170528277Y19909286D01*
X170528276Y19909287D01*
X170436772Y19979500D01*
X170402841Y20005536D01*
X170402840Y20005537D01*
X170402838Y20005538D01*
X170256766Y20066043D01*
X170256758Y20066045D01*
X170100001Y20086682D01*
X170099999Y20086682D01*
X169943241Y20066045D01*
X169943233Y20066043D01*
X169797161Y20005538D01*
X169797160Y20005538D01*
X169671723Y19909287D01*
X169671713Y19909277D01*
X169575462Y19783840D01*
X169575462Y19783839D01*
X169514957Y19637767D01*
X169514955Y19637759D01*
X169494318Y19481001D01*
X169494318Y19481000D01*
X169514955Y19324242D01*
X169514957Y19324234D01*
X169575462Y19178162D01*
X169575462Y19178161D01*
X169667620Y19058058D01*
X169671718Y19052718D01*
X169735765Y19003573D01*
X169735767Y19003572D01*
X169770423Y18953148D01*
X169774500Y18925030D01*
X169774500Y18131972D01*
X169755593Y18073781D01*
X169735768Y18053430D01*
X169671718Y18004283D01*
X169575462Y17878840D01*
X169575462Y17878839D01*
X169514957Y17732767D01*
X169514955Y17732759D01*
X169494318Y17576001D01*
X169494318Y17576000D01*
X169148682Y17576000D01*
X169128044Y17732762D01*
X169067537Y17878839D01*
X169067537Y17878840D01*
X168971281Y18004283D01*
X168907232Y18053430D01*
X168872577Y18103855D01*
X168868500Y18131972D01*
X168868500Y19941030D01*
X168887407Y19999221D01*
X168907233Y20019572D01*
X168971282Y20068718D01*
X169067536Y20194159D01*
X169128044Y20340238D01*
X169148682Y20497000D01*
X169128044Y20653762D01*
X169067537Y20799839D01*
X169067537Y20799840D01*
X168971286Y20925277D01*
X168971285Y20925278D01*
X168971282Y20925282D01*
X168971277Y20925286D01*
X168971276Y20925287D01*
X168845838Y21021538D01*
X168699766Y21082043D01*
X168699758Y21082045D01*
X168543001Y21102682D01*
X168542999Y21102682D01*
X168386241Y21082045D01*
X168386233Y21082043D01*
X168240161Y21021538D01*
X168240160Y21021538D01*
X168114723Y20925287D01*
X168114713Y20925277D01*
X168018462Y20799840D01*
X168018462Y20799839D01*
X167957957Y20653767D01*
X167957955Y20653759D01*
X167937318Y20497001D01*
X167937318Y20497000D01*
X167957955Y20340242D01*
X167957957Y20340234D01*
X168018462Y20194162D01*
X168018462Y20194161D01*
X168104890Y20081526D01*
X168114718Y20068718D01*
X168177373Y20020641D01*
X168178767Y20019572D01*
X168213423Y19969148D01*
X168217500Y19941030D01*
X168217500Y18131972D01*
X168198593Y18073781D01*
X168178768Y18053430D01*
X168114718Y18004283D01*
X168018462Y17878840D01*
X168018462Y17878839D01*
X167957957Y17732767D01*
X167957955Y17732759D01*
X167937318Y17576001D01*
X167937318Y17576000D01*
X300500Y17576000D01*
X300500Y18348251D01*
X300909Y18354603D01*
X301735Y18361002D01*
X301737Y18361007D01*
X300520Y18403589D01*
X300500Y18405003D01*
X300500Y18413118D01*
X300514Y18414296D01*
X301721Y18465000D01*
X3510318Y18465000D01*
X3530955Y18308242D01*
X3530957Y18308234D01*
X3591462Y18162162D01*
X3591462Y18162161D01*
X3674894Y18053430D01*
X3687718Y18036718D01*
X3813159Y17940464D01*
X3959238Y17879956D01*
X4076809Y17864478D01*
X4115999Y17859318D01*
X4116000Y17859318D01*
X4116001Y17859318D01*
X4147352Y17863446D01*
X4272762Y17879956D01*
X4418841Y17940464D01*
X4544282Y18036718D01*
X4640536Y18162159D01*
X4701044Y18308238D01*
X4721682Y18465000D01*
X48468318Y18465000D01*
X48488955Y18308242D01*
X48488957Y18308234D01*
X48549462Y18162162D01*
X48549462Y18162161D01*
X48632894Y18053430D01*
X48645718Y18036718D01*
X48771159Y17940464D01*
X48917238Y17879956D01*
X49034809Y17864478D01*
X49073999Y17859318D01*
X49074000Y17859318D01*
X49074001Y17859318D01*
X49105352Y17863446D01*
X49230762Y17879956D01*
X49376841Y17940464D01*
X49502282Y18036718D01*
X49598536Y18162159D01*
X49659044Y18308238D01*
X49679682Y18465000D01*
X93680318Y18465000D01*
X93700955Y18308242D01*
X93700957Y18308234D01*
X93761462Y18162162D01*
X93761462Y18162161D01*
X93844894Y18053430D01*
X93857718Y18036718D01*
X93983159Y17940464D01*
X94129238Y17879956D01*
X94246809Y17864478D01*
X94285999Y17859318D01*
X94286000Y17859318D01*
X94286001Y17859318D01*
X94317352Y17863446D01*
X94442762Y17879956D01*
X94588841Y17940464D01*
X94714282Y18036718D01*
X94810536Y18162159D01*
X94871044Y18308238D01*
X94891682Y18465000D01*
X138638318Y18465000D01*
X138658955Y18308242D01*
X138658957Y18308234D01*
X138719462Y18162162D01*
X138719462Y18162161D01*
X138802894Y18053430D01*
X138815718Y18036718D01*
X138941159Y17940464D01*
X139087238Y17879956D01*
X139204809Y17864478D01*
X139243999Y17859318D01*
X139244000Y17859318D01*
X139244001Y17859318D01*
X139275352Y17863446D01*
X139400762Y17879956D01*
X139546841Y17940464D01*
X139672282Y18036718D01*
X139768536Y18162159D01*
X139829044Y18308238D01*
X139849682Y18465000D01*
X139839143Y18545044D01*
X139850292Y18605201D01*
X139867289Y18627965D01*
X139873582Y18634258D01*
X139876760Y18637171D01*
X139908194Y18663545D01*
X139928714Y18699089D01*
X139931012Y18702697D01*
X139954554Y18736316D01*
X139954941Y18737764D01*
X139964838Y18761655D01*
X139965588Y18762955D01*
X139971893Y18798714D01*
X139972710Y18803350D01*
X139973640Y18807548D01*
X139984264Y18847193D01*
X139980687Y18888078D01*
X139980500Y18892377D01*
X139980500Y19195145D01*
X139999407Y19253336D01*
X140048907Y19289300D01*
X140098815Y19292242D01*
X140140241Y19284002D01*
X140140246Y19284002D01*
X140140252Y19284000D01*
X140140253Y19284000D01*
X140549747Y19284000D01*
X140549748Y19284000D01*
X140608231Y19295633D01*
X140632448Y19311815D01*
X140687451Y19328500D01*
X141131041Y19328500D01*
X141189232Y19309593D01*
X141222505Y19267385D01*
X141259462Y19178162D01*
X141259462Y19178161D01*
X141351620Y19058058D01*
X141355718Y19052718D01*
X141355721Y19052716D01*
X141355723Y19052714D01*
X141359203Y19050044D01*
X141481159Y18956464D01*
X141481160Y18956464D01*
X141481161Y18956463D01*
X141544901Y18930061D01*
X141627238Y18895956D01*
X141744809Y18880478D01*
X141783999Y18875318D01*
X141784000Y18875318D01*
X141784001Y18875318D01*
X141815352Y18879446D01*
X141940762Y18895956D01*
X142086841Y18956464D01*
X142212282Y19052718D01*
X142308536Y19178159D01*
X142369044Y19324238D01*
X142389682Y19481000D01*
X142369044Y19637762D01*
X142351758Y19679494D01*
X142308537Y19783839D01*
X142308537Y19783840D01*
X142212286Y19909277D01*
X142212285Y19909278D01*
X142212282Y19909282D01*
X142212277Y19909286D01*
X142212276Y19909287D01*
X142120772Y19979500D01*
X142086841Y20005536D01*
X142086840Y20005537D01*
X142086838Y20005538D01*
X142071698Y20011809D01*
X142025172Y20051545D01*
X142010888Y20111040D01*
X142031041Y20163540D01*
X142054536Y20194159D01*
X142115044Y20340238D01*
X142135682Y20497000D01*
X142115044Y20653762D01*
X142054537Y20799839D01*
X142054537Y20799840D01*
X141958286Y20925277D01*
X141958285Y20925278D01*
X141958282Y20925282D01*
X141958277Y20925286D01*
X141958276Y20925287D01*
X141832838Y21021538D01*
X141686766Y21082043D01*
X141686758Y21082045D01*
X141530001Y21102682D01*
X141529999Y21102682D01*
X141373241Y21082045D01*
X141373233Y21082043D01*
X141227161Y21021538D01*
X141227160Y21021538D01*
X141101723Y20925287D01*
X141101713Y20925277D01*
X141005464Y20799843D01*
X141005463Y20799840D01*
X140976789Y20730614D01*
X140937052Y20684088D01*
X140885325Y20669500D01*
X140687451Y20669500D01*
X140632449Y20686185D01*
X140608233Y20702366D01*
X140608231Y20702367D01*
X140608228Y20702368D01*
X140608227Y20702368D01*
X140549758Y20713999D01*
X140549748Y20714000D01*
X140140252Y20714000D01*
X140140251Y20714000D01*
X140140241Y20713999D01*
X140081772Y20702368D01*
X140081766Y20702366D01*
X140015451Y20658055D01*
X140015445Y20658049D01*
X139971134Y20591734D01*
X139971132Y20591728D01*
X139959501Y20533259D01*
X139959500Y20533247D01*
X139959500Y20154749D01*
X139961979Y20142288D01*
X139954787Y20081526D01*
X139913254Y20036597D01*
X139864612Y20026378D01*
X139864612Y20024000D01*
X139859748Y20024000D01*
X139450252Y20024000D01*
X139450251Y20024000D01*
X139450241Y20023999D01*
X139391772Y20012368D01*
X139391766Y20012366D01*
X139325451Y19968055D01*
X139325445Y19968049D01*
X139281134Y19901734D01*
X139281132Y19901728D01*
X139269501Y19843259D01*
X139269500Y19843247D01*
X139269500Y19464754D01*
X139269501Y19464742D01*
X139281132Y19406273D01*
X139281134Y19406267D01*
X139312815Y19358854D01*
X139329500Y19303852D01*
X139329500Y19168759D01*
X139310593Y19110568D01*
X139261093Y19074604D01*
X139243422Y19070606D01*
X139087241Y19050045D01*
X139087233Y19050043D01*
X138941161Y18989538D01*
X138941160Y18989538D01*
X138815723Y18893287D01*
X138815713Y18893277D01*
X138719462Y18767840D01*
X138719462Y18767839D01*
X138658957Y18621767D01*
X138658955Y18621759D01*
X138638318Y18465001D01*
X138638318Y18465000D01*
X94891682Y18465000D01*
X94881792Y18540118D01*
X94892942Y18600277D01*
X94904110Y18616679D01*
X94908188Y18621541D01*
X94908194Y18621545D01*
X94928714Y18657089D01*
X94931012Y18660697D01*
X94954554Y18694316D01*
X94954941Y18695764D01*
X94964838Y18719655D01*
X94965588Y18720955D01*
X94969569Y18743535D01*
X94972710Y18761350D01*
X94973640Y18765548D01*
X94984264Y18805193D01*
X94980687Y18846078D01*
X94980500Y18850377D01*
X94980500Y19195145D01*
X94999407Y19253336D01*
X95048907Y19289300D01*
X95098815Y19292242D01*
X95140241Y19284002D01*
X95140246Y19284002D01*
X95140252Y19284000D01*
X95140253Y19284000D01*
X95549747Y19284000D01*
X95549748Y19284000D01*
X95608231Y19295633D01*
X95632448Y19311815D01*
X95687451Y19328500D01*
X96173041Y19328500D01*
X96231232Y19309593D01*
X96264505Y19267385D01*
X96301462Y19178162D01*
X96301462Y19178161D01*
X96393620Y19058058D01*
X96397718Y19052718D01*
X96397721Y19052716D01*
X96397723Y19052714D01*
X96401203Y19050044D01*
X96523159Y18956464D01*
X96523160Y18956464D01*
X96523161Y18956463D01*
X96586901Y18930061D01*
X96669238Y18895956D01*
X96786809Y18880478D01*
X96825999Y18875318D01*
X96826000Y18875318D01*
X96826001Y18875318D01*
X96857352Y18879446D01*
X96982762Y18895956D01*
X97128841Y18956464D01*
X97254282Y19052718D01*
X97350536Y19178159D01*
X97411044Y19324238D01*
X97431682Y19481000D01*
X97411044Y19637762D01*
X97393758Y19679494D01*
X97350537Y19783839D01*
X97350537Y19783840D01*
X97254286Y19909277D01*
X97254285Y19909278D01*
X97254282Y19909282D01*
X97254277Y19909286D01*
X97254276Y19909287D01*
X97162772Y19979500D01*
X97128841Y20005536D01*
X97128840Y20005537D01*
X97128838Y20005538D01*
X97113698Y20011809D01*
X97067172Y20051545D01*
X97052888Y20111040D01*
X97073041Y20163540D01*
X97096536Y20194159D01*
X97157044Y20340238D01*
X97177682Y20497000D01*
X97157044Y20653762D01*
X97096537Y20799839D01*
X97096537Y20799840D01*
X97000286Y20925277D01*
X97000285Y20925278D01*
X97000282Y20925282D01*
X97000277Y20925286D01*
X97000276Y20925287D01*
X96874838Y21021538D01*
X96728766Y21082043D01*
X96728758Y21082045D01*
X96572001Y21102682D01*
X96571999Y21102682D01*
X96415241Y21082045D01*
X96415233Y21082043D01*
X96269161Y21021538D01*
X96269160Y21021538D01*
X96143723Y20925287D01*
X96143713Y20925277D01*
X96047464Y20799843D01*
X96047463Y20799840D01*
X96018789Y20730614D01*
X95979052Y20684088D01*
X95927325Y20669500D01*
X95687451Y20669500D01*
X95632449Y20686185D01*
X95608233Y20702366D01*
X95608231Y20702367D01*
X95608228Y20702368D01*
X95608227Y20702368D01*
X95549758Y20713999D01*
X95549748Y20714000D01*
X95140252Y20714000D01*
X95140251Y20714000D01*
X95140241Y20713999D01*
X95081772Y20702368D01*
X95081766Y20702366D01*
X95015451Y20658055D01*
X95015445Y20658049D01*
X94971134Y20591734D01*
X94971132Y20591728D01*
X94959501Y20533259D01*
X94959500Y20533247D01*
X94959500Y20154749D01*
X94961979Y20142288D01*
X94954787Y20081526D01*
X94913254Y20036597D01*
X94864612Y20026378D01*
X94864612Y20024000D01*
X94859748Y20024000D01*
X94450252Y20024000D01*
X94450251Y20024000D01*
X94450241Y20023999D01*
X94391772Y20012368D01*
X94391766Y20012366D01*
X94325451Y19968055D01*
X94325445Y19968049D01*
X94281134Y19901734D01*
X94281132Y19901728D01*
X94269501Y19843259D01*
X94269500Y19843247D01*
X94269500Y19464754D01*
X94269501Y19464742D01*
X94281132Y19406273D01*
X94281134Y19406267D01*
X94312815Y19358854D01*
X94329500Y19303852D01*
X94329500Y19163230D01*
X94310593Y19105039D01*
X94261093Y19069075D01*
X94243422Y19065077D01*
X94129241Y19050045D01*
X94129233Y19050043D01*
X93983161Y18989538D01*
X93983160Y18989538D01*
X93857723Y18893287D01*
X93857713Y18893277D01*
X93761462Y18767840D01*
X93761462Y18767839D01*
X93700957Y18621767D01*
X93700955Y18621759D01*
X93680318Y18465001D01*
X93680318Y18465000D01*
X49679682Y18465000D01*
X49669143Y18545044D01*
X49680292Y18605201D01*
X49697289Y18627965D01*
X49873583Y18804258D01*
X49876760Y18807171D01*
X49908194Y18833545D01*
X49928714Y18869089D01*
X49931012Y18872697D01*
X49954554Y18906316D01*
X49954941Y18907764D01*
X49964838Y18931655D01*
X49965588Y18932955D01*
X49966050Y18935575D01*
X49972710Y18973350D01*
X49973640Y18977548D01*
X49984264Y19017193D01*
X49980687Y19058073D01*
X49980500Y19062375D01*
X49980500Y19195145D01*
X49999407Y19253336D01*
X50048907Y19289300D01*
X50098815Y19292242D01*
X50140241Y19284002D01*
X50140246Y19284002D01*
X50140252Y19284000D01*
X50140253Y19284000D01*
X50549747Y19284000D01*
X50549748Y19284000D01*
X50608231Y19295633D01*
X50632448Y19311815D01*
X50687451Y19328500D01*
X50909318Y19328500D01*
X50967509Y19309593D01*
X51003473Y19260093D01*
X51008318Y19229500D01*
X51008318Y19227000D01*
X51028955Y19070242D01*
X51028957Y19070234D01*
X51089462Y18924162D01*
X51089462Y18924161D01*
X51182168Y18803344D01*
X51185718Y18798718D01*
X51311159Y18702464D01*
X51311160Y18702464D01*
X51311161Y18702463D01*
X51457233Y18641958D01*
X51457238Y18641956D01*
X51563488Y18627968D01*
X51613999Y18621318D01*
X51614000Y18621318D01*
X51614001Y18621318D01*
X51645352Y18625446D01*
X51770762Y18641956D01*
X51916841Y18702464D01*
X52042282Y18798718D01*
X52138536Y18924159D01*
X52199044Y19070238D01*
X52219682Y19227000D01*
X52199044Y19383762D01*
X52138537Y19529839D01*
X52138537Y19529840D01*
X52042286Y19655277D01*
X52042285Y19655278D01*
X52042282Y19655282D01*
X52042277Y19655286D01*
X52042276Y19655287D01*
X51916838Y19751538D01*
X51870972Y19770536D01*
X51824446Y19810272D01*
X51810162Y19869767D01*
X51833577Y19926295D01*
X51870972Y19953464D01*
X51906182Y19968049D01*
X51916841Y19972464D01*
X52042282Y20068718D01*
X52138536Y20194159D01*
X52199044Y20340238D01*
X52219682Y20497000D01*
X52199044Y20653762D01*
X52138537Y20799839D01*
X52138537Y20799840D01*
X52042286Y20925277D01*
X52042285Y20925278D01*
X52042282Y20925282D01*
X52042277Y20925286D01*
X52042276Y20925287D01*
X51916838Y21021538D01*
X51770766Y21082043D01*
X51770758Y21082045D01*
X51614001Y21102682D01*
X51613999Y21102682D01*
X51457241Y21082045D01*
X51457233Y21082043D01*
X51311161Y21021538D01*
X51311160Y21021538D01*
X51185723Y20925287D01*
X51185713Y20925277D01*
X51089464Y20799843D01*
X51089463Y20799840D01*
X51060789Y20730614D01*
X51021052Y20684088D01*
X50969325Y20669500D01*
X50687451Y20669500D01*
X50632449Y20686185D01*
X50608233Y20702366D01*
X50608231Y20702367D01*
X50608228Y20702368D01*
X50608227Y20702368D01*
X50549758Y20713999D01*
X50549748Y20714000D01*
X50140252Y20714000D01*
X50140251Y20714000D01*
X50140241Y20713999D01*
X50081772Y20702368D01*
X50081766Y20702366D01*
X50015451Y20658055D01*
X50015445Y20658049D01*
X49971134Y20591734D01*
X49971132Y20591728D01*
X49959501Y20533259D01*
X49959500Y20533247D01*
X49959500Y20154749D01*
X49961979Y20142288D01*
X49954787Y20081526D01*
X49913254Y20036597D01*
X49864612Y20026378D01*
X49864612Y20024000D01*
X49859748Y20024000D01*
X49450252Y20024000D01*
X49450251Y20024000D01*
X49450241Y20023999D01*
X49391772Y20012368D01*
X49391766Y20012366D01*
X49325451Y19968055D01*
X49325445Y19968049D01*
X49281134Y19901734D01*
X49281132Y19901728D01*
X49269501Y19843259D01*
X49269500Y19843247D01*
X49269500Y19464754D01*
X49269501Y19464742D01*
X49281132Y19406273D01*
X49281134Y19406267D01*
X49312815Y19358854D01*
X49329500Y19303852D01*
X49329500Y19221834D01*
X49310593Y19163643D01*
X49300503Y19151830D01*
X49236966Y19088294D01*
X49182449Y19060517D01*
X49154041Y19060145D01*
X49074001Y19070682D01*
X49073999Y19070682D01*
X48917241Y19050045D01*
X48917233Y19050043D01*
X48771161Y18989538D01*
X48771160Y18989538D01*
X48645723Y18893287D01*
X48645713Y18893277D01*
X48549462Y18767840D01*
X48549462Y18767839D01*
X48488957Y18621767D01*
X48488955Y18621759D01*
X48468318Y18465001D01*
X48468318Y18465000D01*
X4721682Y18465000D01*
X4711143Y18545044D01*
X4722292Y18605201D01*
X4739289Y18627965D01*
X4873583Y18762259D01*
X4876760Y18765171D01*
X4908194Y18791545D01*
X4928714Y18827089D01*
X4931012Y18830697D01*
X4954554Y18864316D01*
X4954941Y18865764D01*
X4964838Y18889655D01*
X4965586Y18890952D01*
X4965585Y18890952D01*
X4965588Y18890955D01*
X4972713Y18931372D01*
X4973641Y18935557D01*
X4984263Y18975193D01*
X4980687Y19016066D01*
X4980500Y19020366D01*
X4980500Y19195145D01*
X4999407Y19253336D01*
X5048907Y19289300D01*
X5098815Y19292242D01*
X5140241Y19284002D01*
X5140246Y19284002D01*
X5140252Y19284000D01*
X5140253Y19284000D01*
X5549747Y19284000D01*
X5549748Y19284000D01*
X5608231Y19295633D01*
X5632448Y19311815D01*
X5687451Y19328500D01*
X6003041Y19328500D01*
X6061232Y19309593D01*
X6094505Y19267385D01*
X6131462Y19178162D01*
X6131462Y19178161D01*
X6223620Y19058058D01*
X6227718Y19052718D01*
X6227721Y19052716D01*
X6227723Y19052714D01*
X6231203Y19050044D01*
X6353159Y18956464D01*
X6353160Y18956464D01*
X6353161Y18956463D01*
X6416901Y18930061D01*
X6499238Y18895956D01*
X6616809Y18880478D01*
X6655999Y18875318D01*
X6656000Y18875318D01*
X6656001Y18875318D01*
X6687352Y18879446D01*
X6812762Y18895956D01*
X6958841Y18956464D01*
X7084282Y19052718D01*
X7180536Y19178159D01*
X7241044Y19324238D01*
X7261682Y19481000D01*
X7241044Y19637762D01*
X7223758Y19679494D01*
X7180537Y19783839D01*
X7180537Y19783840D01*
X7084286Y19909277D01*
X7084285Y19909278D01*
X7084282Y19909282D01*
X7084277Y19909286D01*
X7084276Y19909287D01*
X6992772Y19979500D01*
X6958841Y20005536D01*
X6958840Y20005537D01*
X6958838Y20005538D01*
X6943698Y20011809D01*
X6897172Y20051545D01*
X6882888Y20111040D01*
X6903041Y20163540D01*
X6926536Y20194159D01*
X6987044Y20340238D01*
X7007682Y20497000D01*
X6987044Y20653762D01*
X6926537Y20799839D01*
X6926537Y20799840D01*
X6830286Y20925277D01*
X6830285Y20925278D01*
X6830282Y20925282D01*
X6830277Y20925286D01*
X6830276Y20925287D01*
X6704838Y21021538D01*
X6558766Y21082043D01*
X6558758Y21082045D01*
X6402001Y21102682D01*
X6401999Y21102682D01*
X6245241Y21082045D01*
X6245233Y21082043D01*
X6099161Y21021538D01*
X6099160Y21021538D01*
X5973723Y20925287D01*
X5973713Y20925277D01*
X5877464Y20799843D01*
X5877463Y20799840D01*
X5848789Y20730614D01*
X5809052Y20684088D01*
X5757325Y20669500D01*
X5687451Y20669500D01*
X5632449Y20686185D01*
X5608233Y20702366D01*
X5608231Y20702367D01*
X5608228Y20702368D01*
X5608227Y20702368D01*
X5549758Y20713999D01*
X5549748Y20714000D01*
X5140252Y20714000D01*
X5140251Y20714000D01*
X5140241Y20713999D01*
X5081772Y20702368D01*
X5081766Y20702366D01*
X5015451Y20658055D01*
X5015445Y20658049D01*
X4971134Y20591734D01*
X4971132Y20591728D01*
X4959501Y20533259D01*
X4959500Y20533247D01*
X4959500Y20154749D01*
X4961979Y20142288D01*
X4954787Y20081526D01*
X4913254Y20036597D01*
X4864612Y20026378D01*
X4864612Y20024000D01*
X4859748Y20024000D01*
X4450252Y20024000D01*
X4450251Y20024000D01*
X4450241Y20023999D01*
X4391772Y20012368D01*
X4391766Y20012366D01*
X4325451Y19968055D01*
X4325445Y19968049D01*
X4281134Y19901734D01*
X4281132Y19901728D01*
X4269501Y19843259D01*
X4269500Y19843247D01*
X4269500Y19464754D01*
X4269501Y19464742D01*
X4281132Y19406273D01*
X4281134Y19406267D01*
X4312815Y19358854D01*
X4329500Y19303852D01*
X4329500Y19179834D01*
X4310593Y19121643D01*
X4300502Y19109829D01*
X4278965Y19088293D01*
X4224448Y19060516D01*
X4196041Y19060145D01*
X4116001Y19070682D01*
X4115999Y19070682D01*
X3959241Y19050045D01*
X3959233Y19050043D01*
X3813161Y18989538D01*
X3813160Y18989538D01*
X3687723Y18893287D01*
X3687713Y18893277D01*
X3591462Y18767840D01*
X3591462Y18767839D01*
X3530957Y18621767D01*
X3530955Y18621759D01*
X3510318Y18465001D01*
X3510318Y18465000D01*
X301721Y18465000D01*
X305749Y18634258D01*
X308288Y18740939D01*
X308682Y18746106D01*
X310651Y18761344D01*
X350958Y19073258D01*
X351883Y19078317D01*
X428131Y19399280D01*
X429581Y19404220D01*
X538959Y19715450D01*
X540918Y19720214D01*
X682231Y20018309D01*
X684681Y20022847D01*
X856371Y20304525D01*
X859280Y20308781D01*
X1059481Y20570979D01*
X1062815Y20574903D01*
X1289322Y20814732D01*
X1293064Y20818299D01*
X1543384Y21033127D01*
X1547485Y21036290D01*
X1818884Y21223770D01*
X1823290Y21226486D01*
X2112810Y21384577D01*
X2117463Y21386811D01*
X2421922Y21513773D01*
X2426794Y21515512D01*
X2742869Y21609958D01*
X2747884Y21611174D01*
X3072081Y21672061D01*
X3077216Y21672749D01*
X3405081Y21699339D01*
X3409082Y21699500D01*
X204090918Y21699500D01*
X204094918Y21699339D01*
G37*
%TD.AperFunction*%
%TD*%
M02*
