%TF.GenerationSoftware,KiCad,Pcbnew,7.0.5*%
%TF.CreationDate,2023-07-04T14:21:22+01:00*%
%TF.ProjectId,Rapid Training Target,52617069-6420-4547-9261-696e696e6720,B*%
%TF.SameCoordinates,PX2160ec0PY6146198*%
%TF.FileFunction,Copper,L2,Bot*%
%TF.FilePolarity,Positive*%
%FSLAX46Y46*%
G04 Gerber Fmt 4.6, Leading zero omitted, Abs format (unit mm)*
G04 Created by KiCad (PCBNEW 7.0.5) date 2023-07-04 14:21:22*
%MOMM*%
%LPD*%
G01*
G04 APERTURE LIST*
G04 Aperture macros list*
%AMRoundRect*
0 Rectangle with rounded corners*
0 $1 Rounding radius*
0 $2 $3 $4 $5 $6 $7 $8 $9 X,Y pos of 4 corners*
0 Add a 4 corners polygon primitive as box body*
4,1,4,$2,$3,$4,$5,$6,$7,$8,$9,$2,$3,0*
0 Add four circle primitives for the rounded corners*
1,1,$1+$1,$2,$3*
1,1,$1+$1,$4,$5*
1,1,$1+$1,$6,$7*
1,1,$1+$1,$8,$9*
0 Add four rect primitives between the rounded corners*
20,1,$1+$1,$2,$3,$4,$5,0*
20,1,$1+$1,$4,$5,$6,$7,0*
20,1,$1+$1,$6,$7,$8,$9,0*
20,1,$1+$1,$8,$9,$2,$3,0*%
G04 Aperture macros list end*
%TA.AperFunction,ComponentPad*%
%ADD10C,5.600000*%
%TD*%
%TA.AperFunction,SMDPad,CuDef*%
%ADD11RoundRect,0.200000X0.200000X0.275000X-0.200000X0.275000X-0.200000X-0.275000X0.200000X-0.275000X0*%
%TD*%
%TA.AperFunction,SMDPad,CuDef*%
%ADD12RoundRect,0.225000X0.225000X0.250000X-0.225000X0.250000X-0.225000X-0.250000X0.225000X-0.250000X0*%
%TD*%
%TA.AperFunction,SMDPad,CuDef*%
%ADD13RoundRect,0.150000X-0.512500X-0.150000X0.512500X-0.150000X0.512500X0.150000X-0.512500X0.150000X0*%
%TD*%
%TA.AperFunction,SMDPad,CuDef*%
%ADD14RoundRect,0.225000X0.250000X-0.225000X0.250000X0.225000X-0.250000X0.225000X-0.250000X-0.225000X0*%
%TD*%
%TA.AperFunction,SMDPad,CuDef*%
%ADD15R,0.800000X0.400000*%
%TD*%
%TA.AperFunction,SMDPad,CuDef*%
%ADD16R,0.400000X0.800000*%
%TD*%
%TA.AperFunction,SMDPad,CuDef*%
%ADD17R,1.450000X1.450000*%
%TD*%
%TA.AperFunction,SMDPad,CuDef*%
%ADD18R,0.700000X0.700000*%
%TD*%
%TA.AperFunction,ConnectorPad*%
%ADD19R,2.200000X1.100000*%
%TD*%
%TA.AperFunction,ComponentPad*%
%ADD20O,2.200000X1.200000*%
%TD*%
%TA.AperFunction,ConnectorPad*%
%ADD21R,2.000000X1.100000*%
%TD*%
%TA.AperFunction,ComponentPad*%
%ADD22O,2.000000X1.300000*%
%TD*%
%TA.AperFunction,SMDPad,CuDef*%
%ADD23R,1.150000X0.300000*%
%TD*%
%TA.AperFunction,SMDPad,CuDef*%
%ADD24R,1.150000X0.250000*%
%TD*%
%TA.AperFunction,SMDPad,CuDef*%
%ADD25RoundRect,0.200000X-0.275000X0.200000X-0.275000X-0.200000X0.275000X-0.200000X0.275000X0.200000X0*%
%TD*%
%TA.AperFunction,ViaPad*%
%ADD26C,0.800000*%
%TD*%
%TA.AperFunction,Conductor*%
%ADD27C,0.200000*%
%TD*%
%TA.AperFunction,Conductor*%
%ADD28C,0.250000*%
%TD*%
G04 APERTURE END LIST*
D10*
%TO.P,H1,1*%
%TO.N,N/C*%
X-31925000Y98924000D03*
%TD*%
%TO.P,H2,1*%
%TO.N,N/C*%
X3400000Y26600000D03*
%TD*%
%TO.P,H3,1*%
%TO.N,N/C*%
X186600000Y26600000D03*
%TD*%
D11*
%TO.P,R1,1*%
%TO.N,Net-(USB-C1-CC2)*%
X179947000Y12124000D03*
%TO.P,R1,2*%
%TO.N,GND*%
X178297000Y12124000D03*
%TD*%
D12*
%TO.P,C2,1*%
%TO.N,+5V*%
X155622000Y6759500D03*
%TO.P,C2,2*%
%TO.N,GND*%
X154072000Y6759500D03*
%TD*%
D13*
%TO.P,U2,1,VIN*%
%TO.N,+5V*%
X155620000Y3165500D03*
%TO.P,U2,2,GND*%
%TO.N,GND*%
X155620000Y4115500D03*
%TO.P,U2,3,EN*%
%TO.N,+5V*%
X155620000Y5065500D03*
%TO.P,U2,4,NC*%
%TO.N,unconnected-(U2-NC-Pad4)*%
X157895000Y5065500D03*
%TO.P,U2,5,VOUT*%
%TO.N,+3V3*%
X157895000Y3165500D03*
%TD*%
D14*
%TO.P,C1,1*%
%TO.N,+3V3*%
X159927000Y3203500D03*
%TO.P,C1,2*%
%TO.N,GND*%
X159927000Y4753500D03*
%TD*%
D15*
%TO.P,U3,1,GND*%
%TO.N,GND*%
X161843000Y1565500D03*
%TO.P,U3,2,GND*%
X161843000Y2365500D03*
%TO.P,U3,3,3V3*%
%TO.N,+3V3*%
X161843000Y3165500D03*
%TO.P,U3,4,NC*%
%TO.N,unconnected-(U3-NC-Pad4)*%
X161843000Y3965500D03*
%TO.P,U3,5,IO2/GPIO2/ADC1_CH2/FSPIQ*%
%TO.N,unconnected-(U3-IO2{slash}GPIO2{slash}ADC1_CH2{slash}FSPIQ-Pad5)*%
X161843000Y4765500D03*
%TO.P,U3,6,IO3/GPIO3/ADC1_CH3*%
%TO.N,unconnected-(U3-IO3{slash}GPIO3{slash}ADC1_CH3-Pad6)*%
X161843000Y5565500D03*
%TO.P,U3,7,NC*%
%TO.N,unconnected-(U3-NC-Pad7)*%
X161843000Y6365500D03*
%TO.P,U3,8,EN*%
%TO.N,+3V3*%
X161843000Y7165500D03*
%TO.P,U3,9,NC*%
%TO.N,unconnected-(U3-NC-Pad9)*%
X161843000Y7965500D03*
%TO.P,U3,10,NC*%
%TO.N,unconnected-(U3-NC-Pad10)*%
X161843000Y8765500D03*
%TO.P,U3,11,GND*%
%TO.N,GND*%
X161843000Y9565500D03*
D16*
%TO.P,U3,12,IO0/GPIO0/ADC1_CH0/XTAL_32K_P*%
%TO.N,unconnected-(U3-IO0{slash}GPIO0{slash}ADC1_CH0{slash}XTAL_32K_P-Pad12)*%
X162943000Y10465500D03*
%TO.P,U3,13,IO1/GPIO1/ADC1_CH1/XTAL_32K_N*%
%TO.N,unconnected-(U3-IO1{slash}GPIO1{slash}ADC1_CH1{slash}XTAL_32K_N-Pad13)*%
X163743000Y10465500D03*
%TO.P,U3,14,GND*%
%TO.N,GND*%
X164543000Y10465500D03*
%TO.P,U3,15,NC*%
%TO.N,unconnected-(U3-NC-Pad15)*%
X165343000Y10465500D03*
%TO.P,U3,16,IO10/GPIO10/FSPICS0*%
%TO.N,unconnected-(U3-IO10{slash}GPIO10{slash}FSPICS0-Pad16)*%
X166143000Y10465500D03*
%TO.P,U3,17,NC*%
%TO.N,unconnected-(U3-NC-Pad17)*%
X166943000Y10465500D03*
%TO.P,U3,18,IO4/GPIO4/ADC1_CH4/FSPIHD/MTMS*%
%TO.N,Green*%
X167743000Y10465500D03*
%TO.P,U3,19,IO5/GPIO5/ADC2_CH0/FSPIWP/MTDI*%
%TO.N,Red*%
X168543000Y10465500D03*
%TO.P,U3,20,IO6/GPIO6/FSPICLK/MTCK*%
%TO.N,Blue*%
X169343000Y10465500D03*
%TO.P,U3,21,IO7/GPIO7/FSPID/MTDO*%
%TO.N,unconnected-(U3-IO7{slash}GPIO7{slash}FSPID{slash}MTDO-Pad21)*%
X170143000Y10465500D03*
%TO.P,U3,22,IO8/GPIO8*%
%TO.N,unconnected-(U3-IO8{slash}GPIO8-Pad22)*%
X170943000Y10465500D03*
%TO.P,U3,23,IO9/GPIO9*%
%TO.N,unconnected-(U3-IO9{slash}GPIO9-Pad23)*%
X171743000Y10465500D03*
%TO.P,U3,24,NC*%
%TO.N,unconnected-(U3-NC-Pad24)*%
X172543000Y10465500D03*
D15*
%TO.P,U3,25,NC*%
%TO.N,unconnected-(U3-NC-Pad25)*%
X173643000Y9565500D03*
%TO.P,U3,26,IO18/GPIO18/USB_D-*%
%TO.N,USB_D-*%
X173643000Y8765500D03*
%TO.P,U3,27,IO19/GPIO19/USB_D+*%
%TO.N,USB_D+*%
X173643000Y7965500D03*
%TO.P,U3,28,NC*%
%TO.N,unconnected-(U3-NC-Pad28)*%
X173643000Y7165500D03*
%TO.P,U3,29,NC*%
%TO.N,unconnected-(U3-NC-Pad29)*%
X173643000Y6365500D03*
%TO.P,U3,30,RXD0/GPIO20/U0RXD*%
%TO.N,unconnected-(U3-RXD0{slash}GPIO20{slash}U0RXD-Pad30)*%
X173643000Y5565500D03*
%TO.P,U3,31,TXD0/GPIO21/U0TXD*%
%TO.N,unconnected-(U3-TXD0{slash}GPIO21{slash}U0TXD-Pad31)*%
X173643000Y4765500D03*
%TO.P,U3,32,NC*%
%TO.N,unconnected-(U3-NC-Pad32)*%
X173643000Y3965500D03*
%TO.P,U3,33,NC*%
%TO.N,unconnected-(U3-NC-Pad33)*%
X173643000Y3165500D03*
%TO.P,U3,34,NC*%
%TO.N,unconnected-(U3-NC-Pad34)*%
X173643000Y2365500D03*
%TO.P,U3,35,NC*%
%TO.N,unconnected-(U3-NC-Pad35)*%
X173643000Y1565500D03*
D16*
%TO.P,U3,36,GND*%
%TO.N,GND*%
X172543000Y665500D03*
%TO.P,U3,37,GND*%
X171743000Y665500D03*
%TO.P,U3,38,GND*%
X170943000Y665500D03*
%TO.P,U3,39,GND*%
X170143000Y665500D03*
%TO.P,U3,40,GND*%
X169343000Y665500D03*
%TO.P,U3,41,GND*%
X168543000Y665500D03*
%TO.P,U3,42,GND*%
X167743000Y665500D03*
%TO.P,U3,43,GND*%
X166943000Y665500D03*
%TO.P,U3,44,GND*%
X166143000Y665500D03*
%TO.P,U3,45,GND*%
X165343000Y665500D03*
%TO.P,U3,46,GND*%
X164543000Y665500D03*
%TO.P,U3,47,GND*%
X163743000Y665500D03*
%TO.P,U3,48,GND*%
X162943000Y665500D03*
D17*
%TO.P,U3,49,GND*%
X165768000Y7540500D03*
X165768000Y5565500D03*
X165768000Y3590500D03*
X167743000Y7540500D03*
X167743000Y5565500D03*
X167743000Y3590500D03*
X169718000Y7540500D03*
X169718000Y5565500D03*
X169718000Y3590500D03*
D18*
%TO.P,U3,50,GND*%
X173693000Y615500D03*
%TO.P,U3,51,GND*%
X173693000Y10515500D03*
%TO.P,U3,52,GND*%
X161793000Y10515500D03*
%TO.P,U3,53,GND*%
X161793000Y615500D03*
%TD*%
D19*
%TO.P,USB-C1,0,SHELL*%
%TO.N,GND*%
X182562000Y18801600D03*
D20*
X182562000Y18194000D03*
X182562000Y9554000D03*
D19*
X182562000Y8946400D03*
D21*
X186742000Y18801600D03*
D22*
X186742000Y18194000D03*
X186742000Y9554000D03*
D21*
X186742000Y8946400D03*
D23*
%TO.P,USB-C1,A1,GND*%
X181660000Y17199000D03*
%TO.P,USB-C1,A4,VBUS*%
%TO.N,+5V*%
X181660000Y16399000D03*
D24*
%TO.P,USB-C1,A5,CC1*%
%TO.N,Net-(USB-C1-CC1)*%
X181660000Y15124000D03*
%TO.P,USB-C1,A6,DP1*%
%TO.N,USB_D+*%
X181660000Y14124000D03*
%TO.P,USB-C1,A7,DN1*%
%TO.N,USB_D-*%
X181660000Y13624000D03*
%TO.P,USB-C1,A8,SBU1*%
%TO.N,unconnected-(USB-C1-SBU1-PadA8)*%
X181660000Y12624000D03*
D23*
%TO.P,USB-C1,A9,VBUS*%
%TO.N,+5V*%
X181660000Y11349000D03*
%TO.P,USB-C1,A12,GND*%
%TO.N,GND*%
X181660000Y10549000D03*
%TO.P,USB-C1,B1,GND*%
X181660000Y10799000D03*
%TO.P,USB-C1,B4,VBUS*%
%TO.N,+5V*%
X181660000Y11599000D03*
D24*
%TO.P,USB-C1,B5,CC2*%
%TO.N,Net-(USB-C1-CC2)*%
X181660000Y12124000D03*
%TO.P,USB-C1,B6,DP2*%
%TO.N,USB_D+*%
X181660000Y13124000D03*
%TO.P,USB-C1,B7,DN2*%
%TO.N,USB_D-*%
X181660000Y14624000D03*
%TO.P,USB-C1,B8,SBU2*%
%TO.N,unconnected-(USB-C1-SBU2-PadB8)*%
X181660000Y15624000D03*
D23*
%TO.P,USB-C1,B9,VBUS*%
%TO.N,+5V*%
X181660000Y16149000D03*
%TO.P,USB-C1,B12,GND*%
%TO.N,GND*%
X181660000Y16949000D03*
%TD*%
D25*
%TO.P,R11,1*%
%TO.N,Net-(D1-GK)*%
X168543000Y18424000D03*
%TO.P,R11,2*%
%TO.N,Red*%
X168543000Y16774000D03*
%TD*%
%TO.P,R12,1*%
%TO.N,Net-(D1-BK)*%
X170100000Y18424000D03*
%TO.P,R12,2*%
%TO.N,Blue*%
X170100000Y16774000D03*
%TD*%
%TO.P,R10,1*%
%TO.N,Net-(D1-RK)*%
X167000000Y18424000D03*
%TO.P,R10,2*%
%TO.N,Green*%
X167000000Y16774000D03*
%TD*%
D11*
%TO.P,R2,1*%
%TO.N,Net-(USB-C1-CC1)*%
X179947000Y15124000D03*
%TO.P,R2,2*%
%TO.N,GND*%
X178297000Y15124000D03*
%TD*%
D26*
%TO.N,+5V*%
X180138000Y10813000D03*
X155609000Y1933500D03*
X180138000Y16655000D03*
X156879000Y6759500D03*
%TO.N,Net-(D1-RK)*%
X4116000Y20465000D03*
X184202000Y20465000D03*
X49074000Y20465000D03*
X94286000Y20465000D03*
X139244000Y20465000D03*
%TO.N,Net-(D1-BK)*%
X141784000Y21481000D03*
X51614000Y21227000D03*
X170100000Y21481000D03*
X96826000Y21481000D03*
X6656000Y21481000D03*
X170100000Y19576000D03*
X186488000Y21481000D03*
%TO.N,Net-(D1-GK)*%
X96572000Y22497000D03*
X51614000Y22497000D03*
X141530000Y22497000D03*
X6402000Y22497000D03*
X168543000Y22497000D03*
X186488000Y22497000D03*
X168543000Y19576000D03*
%TD*%
D27*
%TO.N,USB_D+*%
X174616500Y7965500D02*
X173643000Y7965500D01*
X175820000Y9169000D02*
X174616500Y7965500D01*
X175820000Y11321000D02*
X175820000Y9169000D01*
X177623000Y13124000D02*
X175820000Y11321000D01*
X181660000Y13124000D02*
X177623000Y13124000D01*
%TO.N,USB_D-*%
X175420000Y11827000D02*
X177217000Y13624000D01*
X175420000Y9569000D02*
X175420000Y11827000D01*
X173643000Y8765500D02*
X174616500Y8765500D01*
X174616500Y8765500D02*
X175420000Y9569000D01*
D28*
%TO.N,Green*%
X167000000Y14849000D02*
X167000000Y16774000D01*
X167743000Y14106000D02*
X167000000Y14849000D01*
X167743000Y10465500D02*
X167743000Y14106000D01*
%TO.N,Net-(D1-RK)*%
X167000000Y19149000D02*
X165684000Y20465000D01*
X167000000Y18424000D02*
X167000000Y19149000D01*
X165684000Y20465000D02*
X165000000Y20465000D01*
X165000000Y20465000D02*
X162000000Y20465000D01*
X184202000Y20465000D02*
X165000000Y20465000D01*
%TO.N,Blue*%
X170100000Y14849000D02*
X170100000Y16774000D01*
X170100000Y14849000D02*
X169343000Y14092000D01*
X169343000Y14092000D02*
X169343000Y10465500D01*
%TO.N,Net-(D1-BK)*%
X170100000Y18424000D02*
X170100000Y19576000D01*
%TO.N,Red*%
X168543000Y16774000D02*
X168543000Y10465500D01*
%TO.N,Net-(D1-GK)*%
X168543000Y19576000D02*
X168543000Y18424000D01*
%TO.N,Net-(D1-RK)*%
X162000000Y20465000D02*
X160961000Y20465000D01*
%TO.N,+5V*%
X155620000Y3165500D02*
X155620000Y1944500D01*
X155620000Y1944500D02*
X155609000Y1933500D01*
X181660000Y11349000D02*
X180674000Y11349000D01*
X155622000Y5067500D02*
X155620000Y5065500D01*
X180674000Y11349000D02*
X180138000Y10813000D01*
X155622000Y6759500D02*
X156879000Y6759500D01*
X155622000Y6759500D02*
X155622000Y5067500D01*
X180394000Y16399000D02*
X180138000Y16655000D01*
X181660000Y16399000D02*
X180394000Y16399000D01*
%TO.N,Net-(D1-RK)*%
X139244000Y20465000D02*
X131116000Y20465000D01*
X131116000Y20465000D02*
X94286000Y20465000D01*
X160961000Y20465000D02*
X139244000Y20465000D01*
X49074000Y20465000D02*
X4116000Y20465000D01*
X94286000Y20465000D02*
X49074000Y20465000D01*
%TO.N,Net-(D1-BK)*%
X186488000Y21481000D02*
X170486000Y21481000D01*
X96826000Y21481000D02*
X51868000Y21481000D01*
X6656000Y21481000D02*
X51360000Y21481000D01*
X51868000Y21481000D02*
X51614000Y21227000D01*
X170486000Y21481000D02*
X141784000Y21481000D01*
X141784000Y21481000D02*
X96826000Y21481000D01*
X51360000Y21481000D02*
X51614000Y21227000D01*
%TO.N,Net-(D1-GK)*%
X166422000Y22497000D02*
X186488000Y22497000D01*
X96572000Y22497000D02*
X141530000Y22497000D01*
X141657000Y22370000D02*
X141530000Y22497000D01*
X6402000Y22497000D02*
X51614000Y22497000D01*
X51614000Y22497000D02*
X96572000Y22497000D01*
X141530000Y22497000D02*
X166422000Y22497000D01*
%TO.N,Net-(USB-C1-CC1)*%
X179947000Y15124000D02*
X181660000Y15124000D01*
D27*
%TO.N,USB_D+*%
X182678000Y13342000D02*
X182460000Y13124000D01*
X181660000Y14124000D02*
X182460000Y14124000D01*
X182460000Y14124000D02*
X182678000Y13906000D01*
X182460000Y13124000D02*
X181660000Y13124000D01*
X182678000Y13906000D02*
X182678000Y13342000D01*
%TO.N,USB_D-*%
X180885000Y13624000D02*
X181660000Y13624000D01*
X181660000Y13624000D02*
X177217000Y13624000D01*
X180646000Y14410000D02*
X180646000Y13863000D01*
X180860000Y14624000D02*
X180646000Y14410000D01*
X181660000Y14624000D02*
X180860000Y14624000D01*
X180646000Y13863000D02*
X180885000Y13624000D01*
D28*
%TO.N,Net-(USB-C1-CC2)*%
X179947000Y12124000D02*
X181660000Y12124000D01*
%TO.N,+3V3*%
X161805000Y3203500D02*
X161843000Y3165500D01*
X162739000Y3411500D02*
X162493000Y3165500D01*
X162739000Y6919500D02*
X162739000Y3411500D01*
X157895000Y3165500D02*
X161843000Y3165500D01*
X162493000Y7165500D02*
X162739000Y6919500D01*
X162493000Y3165500D02*
X161843000Y3165500D01*
X161843000Y7165500D02*
X162493000Y7165500D01*
%TD*%
%TA.AperFunction,Conductor*%
%TO.N,GND*%
G36*
X185878198Y29680593D02*
G01*
X185914162Y29631093D01*
X185914162Y29569907D01*
X185878198Y29520407D01*
X185842838Y29504169D01*
X185737993Y29479321D01*
X185606700Y29431534D01*
X185409549Y29359777D01*
X185409548Y29359777D01*
X185409546Y29359776D01*
X185097205Y29202913D01*
X184805190Y29010850D01*
X184537443Y28786185D01*
X184297591Y28531957D01*
X184088871Y28251598D01*
X184088869Y28251595D01*
X183914111Y27948905D01*
X183914108Y27948898D01*
X183775674Y27627973D01*
X183775672Y27627966D01*
X183675430Y27293135D01*
X183675430Y27293134D01*
X183614738Y26948930D01*
X183594415Y26600000D01*
X183614738Y26251071D01*
X183675430Y25906867D01*
X183675430Y25906866D01*
X183675431Y25906864D01*
X183775674Y25572029D01*
X183914111Y25251096D01*
X184088870Y24948404D01*
X184297588Y24668047D01*
X184537442Y24413817D01*
X184805189Y24189151D01*
X185097207Y23997087D01*
X185409549Y23840223D01*
X185737989Y23720681D01*
X185737992Y23720681D01*
X185737993Y23720680D01*
X186078075Y23640079D01*
X186078080Y23640079D01*
X186078086Y23640077D01*
X186425241Y23599500D01*
X186425244Y23599500D01*
X186774756Y23599500D01*
X186774759Y23599500D01*
X187121914Y23640077D01*
X187121920Y23640079D01*
X187121924Y23640079D01*
X187348645Y23693813D01*
X187462011Y23720681D01*
X187790451Y23840223D01*
X188102793Y23997087D01*
X188394811Y24189151D01*
X188662558Y24413817D01*
X188902412Y24668047D01*
X189111130Y24948404D01*
X189285889Y25251096D01*
X189424326Y25572029D01*
X189505658Y25843698D01*
X189540460Y25894021D01*
X189598195Y25914277D01*
X189656810Y25896729D01*
X189693916Y25848079D01*
X189699499Y25815304D01*
X189699499Y3454996D01*
X189699001Y3448228D01*
X189699500Y3398417D01*
X189699500Y3398256D01*
X189699458Y3395692D01*
X189699008Y3385247D01*
X189685650Y3074902D01*
X189685148Y3069689D01*
X189637659Y2753487D01*
X189636605Y2748343D01*
X189555910Y2438942D01*
X189554317Y2433939D01*
X189441322Y2134811D01*
X189439208Y2130004D01*
X189295192Y1844536D01*
X189292582Y1839980D01*
X189119149Y1571349D01*
X189116071Y1567095D01*
X188915179Y1318335D01*
X188911668Y1314431D01*
X188685569Y1088332D01*
X188681665Y1084821D01*
X188432905Y883929D01*
X188428651Y880851D01*
X188160020Y707418D01*
X188155464Y704808D01*
X187869996Y560792D01*
X187865189Y558678D01*
X187566061Y445683D01*
X187561058Y444090D01*
X187251657Y363395D01*
X187246513Y362341D01*
X186930311Y314852D01*
X186925098Y314350D01*
X186618175Y301139D01*
X186604308Y300542D01*
X186601744Y300500D01*
X186601583Y300500D01*
X186551775Y300999D01*
X186545005Y300500D01*
X3401290Y300500D01*
X3398705Y300568D01*
X3078606Y317344D01*
X3073451Y317885D01*
X3037928Y323512D01*
X2758137Y367827D01*
X2753074Y368903D01*
X2444704Y451530D01*
X2439773Y453133D01*
X2141747Y567535D01*
X2137011Y569643D01*
X1852556Y714579D01*
X1848066Y717172D01*
X1580330Y891043D01*
X1576150Y894080D01*
X1328053Y1094985D01*
X1324200Y1098454D01*
X1098453Y1324201D01*
X1094984Y1328054D01*
X1093839Y1329467D01*
X894076Y1576154D01*
X891044Y1580327D01*
X717165Y1848077D01*
X714582Y1852550D01*
X569642Y2137012D01*
X567534Y2141748D01*
X453132Y2439774D01*
X451529Y2444705D01*
X450354Y2449090D01*
X368899Y2753088D01*
X367828Y2758123D01*
X332331Y2982240D01*
X154757000Y2982240D01*
X154762147Y2946913D01*
X154766927Y2914105D01*
X154808430Y2829210D01*
X154818302Y2809017D01*
X154901017Y2726302D01*
X154954785Y2700017D01*
X155006104Y2674928D01*
X155006105Y2674928D01*
X155006107Y2674927D01*
X155074240Y2665000D01*
X155195500Y2665000D01*
X155253691Y2646093D01*
X155289655Y2596593D01*
X155294500Y2566000D01*
X155294500Y2497912D01*
X155275593Y2439721D01*
X155255768Y2419370D01*
X155180720Y2361784D01*
X155180713Y2361777D01*
X155084462Y2236340D01*
X155084462Y2236339D01*
X155023957Y2090267D01*
X155023955Y2090259D01*
X155003318Y1933501D01*
X155003318Y1933500D01*
X155023955Y1776742D01*
X155023957Y1776734D01*
X155084462Y1630662D01*
X155084462Y1630661D01*
X155133238Y1567095D01*
X155180718Y1505218D01*
X155306159Y1408964D01*
X155452238Y1348456D01*
X155569809Y1332978D01*
X155608999Y1327818D01*
X155609000Y1327818D01*
X155609001Y1327818D01*
X155640352Y1331946D01*
X155745238Y1345754D01*
X173042500Y1345754D01*
X173042501Y1345742D01*
X173048730Y1314431D01*
X173054133Y1287269D01*
X173098448Y1220948D01*
X173164769Y1176633D01*
X173209231Y1167789D01*
X173223241Y1165002D01*
X173223246Y1165002D01*
X173223252Y1165000D01*
X173223253Y1165000D01*
X174062747Y1165000D01*
X174062748Y1165000D01*
X174121231Y1176633D01*
X174187552Y1220948D01*
X174231867Y1287269D01*
X174243500Y1345752D01*
X174243500Y1785248D01*
X174231867Y1843731D01*
X174187552Y1910052D01*
X174187549Y1910054D01*
X174187253Y1910497D01*
X174170644Y1969385D01*
X174187253Y2020503D01*
X174187549Y2020947D01*
X174187552Y2020948D01*
X174231867Y2087269D01*
X174243500Y2145752D01*
X174243500Y2585248D01*
X174231867Y2643731D01*
X174187552Y2710052D01*
X174187549Y2710054D01*
X174187253Y2710497D01*
X174170644Y2769385D01*
X174187253Y2820503D01*
X174187549Y2820947D01*
X174187552Y2820948D01*
X174231867Y2887269D01*
X174243500Y2945752D01*
X174243500Y3385248D01*
X174231867Y3443731D01*
X174187552Y3510052D01*
X174187549Y3510054D01*
X174187253Y3510497D01*
X174170644Y3569385D01*
X174187253Y3620503D01*
X174187549Y3620947D01*
X174187552Y3620948D01*
X174231867Y3687269D01*
X174243500Y3745752D01*
X174243500Y4185248D01*
X174231867Y4243731D01*
X174187552Y4310052D01*
X174187549Y4310054D01*
X174187253Y4310497D01*
X174170644Y4369385D01*
X174187253Y4420503D01*
X174187549Y4420947D01*
X174187552Y4420948D01*
X174231867Y4487269D01*
X174243500Y4545752D01*
X174243500Y4985248D01*
X174231867Y5043731D01*
X174187552Y5110052D01*
X174187549Y5110054D01*
X174187253Y5110497D01*
X174170644Y5169385D01*
X174187253Y5220503D01*
X174187549Y5220947D01*
X174187552Y5220948D01*
X174231867Y5287269D01*
X174243500Y5345752D01*
X174243500Y5785248D01*
X174231867Y5843731D01*
X174187552Y5910052D01*
X174187549Y5910054D01*
X174187253Y5910497D01*
X174170644Y5969385D01*
X174187253Y6020503D01*
X174187549Y6020947D01*
X174187552Y6020948D01*
X174231867Y6087269D01*
X174243500Y6145752D01*
X174243500Y6585248D01*
X174231867Y6643731D01*
X174187552Y6710052D01*
X174187549Y6710054D01*
X174187253Y6710497D01*
X174170644Y6769385D01*
X174187253Y6820503D01*
X174187549Y6820947D01*
X174187552Y6820948D01*
X174231867Y6887269D01*
X174243500Y6945752D01*
X174243500Y7385248D01*
X174243427Y7385613D01*
X174236743Y7419217D01*
X174231867Y7443731D01*
X174187552Y7510052D01*
X174187551Y7510053D01*
X174187253Y7510499D01*
X174170644Y7569387D01*
X174187373Y7620682D01*
X174187708Y7621181D01*
X174235840Y7658956D01*
X174269903Y7665000D01*
X174551336Y7665000D01*
X174565011Y7662768D01*
X174565183Y7663994D01*
X174574264Y7662728D01*
X174574265Y7662727D01*
X174574265Y7662728D01*
X174574266Y7662727D01*
X174583007Y7663132D01*
X174622293Y7664948D01*
X174624570Y7665000D01*
X174644341Y7665000D01*
X174644344Y7665000D01*
X174647837Y7665654D01*
X174654641Y7666444D01*
X174686492Y7667915D01*
X174695476Y7671883D01*
X174717277Y7678635D01*
X174726933Y7680439D01*
X174754043Y7697226D01*
X174760089Y7700412D01*
X174789265Y7713294D01*
X174796209Y7720240D01*
X174814101Y7734411D01*
X174822452Y7739581D01*
X174841665Y7765026D01*
X174846162Y7770192D01*
X175411377Y8335407D01*
X175986405Y8910436D01*
X175997664Y8918507D01*
X175996905Y8919513D01*
X176004221Y8925039D01*
X176004228Y8925042D01*
X176036632Y8960589D01*
X176038186Y8962217D01*
X176052174Y8976203D01*
X176054181Y8979135D01*
X176058440Y8984510D01*
X176059123Y8985259D01*
X176079916Y9008067D01*
X176083465Y9017230D01*
X176094106Y9037418D01*
X176099656Y9045519D01*
X176106955Y9076557D01*
X176108977Y9083086D01*
X176120500Y9112827D01*
X176120500Y9122652D01*
X176123129Y9145317D01*
X176125379Y9154881D01*
X176120975Y9186454D01*
X176120500Y9193301D01*
X176120500Y11155521D01*
X176139407Y11213712D01*
X176149496Y11225525D01*
X177718475Y12794504D01*
X177772992Y12822281D01*
X177788479Y12823500D01*
X179366101Y12823500D01*
X179424292Y12804593D01*
X179460256Y12755093D01*
X179460256Y12693907D01*
X179436106Y12654499D01*
X179418950Y12637342D01*
X179418949Y12637341D01*
X179361354Y12524305D01*
X179346500Y12430523D01*
X179346500Y11817480D01*
X179346501Y11817477D01*
X179361352Y11723701D01*
X179361354Y11723696D01*
X179418950Y11610658D01*
X179508658Y11520950D01*
X179621696Y11463354D01*
X179706959Y11449850D01*
X179761475Y11422073D01*
X179789253Y11367556D01*
X179779682Y11307124D01*
X179751740Y11273528D01*
X179709724Y11241288D01*
X179709713Y11241277D01*
X179613462Y11115840D01*
X179613462Y11115839D01*
X179552957Y10969767D01*
X179552955Y10969759D01*
X179532318Y10813001D01*
X179532318Y10813000D01*
X179552955Y10656242D01*
X179552957Y10656234D01*
X179613462Y10510162D01*
X179613462Y10510161D01*
X179672286Y10433500D01*
X179709718Y10384718D01*
X179835159Y10288464D01*
X179981238Y10227956D01*
X180098809Y10212478D01*
X180137999Y10207318D01*
X180138000Y10207318D01*
X180138001Y10207318D01*
X180169352Y10211446D01*
X180294762Y10227956D01*
X180440841Y10288464D01*
X180566282Y10384718D01*
X180662536Y10510159D01*
X180723044Y10656238D01*
X180743682Y10813000D01*
X180733143Y10893045D01*
X180744292Y10953203D01*
X180761290Y10975965D01*
X180779833Y10994508D01*
X180834351Y11022282D01*
X180849833Y11023500D01*
X180956732Y11023500D01*
X180996723Y11011370D01*
X180997757Y11013866D01*
X181006764Y11010137D01*
X181006769Y11010133D01*
X181051231Y11001289D01*
X181065241Y10998502D01*
X181065246Y10998502D01*
X181065252Y10998500D01*
X181065253Y10998500D01*
X182254747Y10998500D01*
X182254748Y10998500D01*
X182313231Y11010133D01*
X182354002Y11037376D01*
X182412887Y11053984D01*
X182470291Y11032807D01*
X182504285Y10981934D01*
X182507771Y10948307D01*
X182507618Y10946081D01*
X182507619Y10946079D01*
X182538406Y10797921D01*
X182538406Y10797919D01*
X182538407Y10797916D01*
X182538408Y10797915D01*
X182608029Y10663553D01*
X182711320Y10552956D01*
X182840618Y10474328D01*
X182986335Y10433500D01*
X182986336Y10433500D01*
X183099652Y10433500D01*
X183099658Y10433500D01*
X183211920Y10448930D01*
X183350720Y10509220D01*
X183468108Y10604722D01*
X183555377Y10728353D01*
X183606054Y10870944D01*
X183616381Y11021921D01*
X183615507Y11026125D01*
X183585593Y11170080D01*
X183585593Y11170082D01*
X183585592Y11170084D01*
X183585592Y11170085D01*
X183515971Y11304447D01*
X183412680Y11415044D01*
X183283382Y11493672D01*
X183283381Y11493673D01*
X183283380Y11493673D01*
X183137665Y11534500D01*
X183024342Y11534500D01*
X182912079Y11519071D01*
X182773281Y11458781D01*
X182655891Y11363278D01*
X182615380Y11305886D01*
X182566375Y11269250D01*
X182505196Y11268414D01*
X182455209Y11303699D01*
X182435509Y11361626D01*
X182435500Y11362978D01*
X182435500Y11768747D01*
X182435500Y11768748D01*
X182423867Y11827231D01*
X182423864Y11827235D01*
X182420187Y11836113D01*
X182415386Y11897110D01*
X182420187Y11911887D01*
X182423863Y11920764D01*
X182423867Y11920769D01*
X182435500Y11979252D01*
X182435500Y12268748D01*
X182423867Y12327231D01*
X182423865Y12327233D01*
X182420186Y12336118D01*
X182415387Y12397114D01*
X182420188Y12411890D01*
X182423863Y12420764D01*
X182423867Y12420769D01*
X182435500Y12479252D01*
X182435499Y12727522D01*
X182454406Y12785708D01*
X182503906Y12821672D01*
X182529928Y12826413D01*
X182529992Y12826415D01*
X182538976Y12830383D01*
X182560777Y12837135D01*
X182570433Y12838939D01*
X182597543Y12855726D01*
X182603589Y12858912D01*
X182632765Y12871794D01*
X182639711Y12878741D01*
X182657598Y12892910D01*
X182665952Y12898081D01*
X182685165Y12923526D01*
X182689662Y12928692D01*
X182689662Y12928693D01*
X182844403Y13083434D01*
X182855661Y13091503D01*
X182854901Y13092510D01*
X182862222Y13098040D01*
X182862228Y13098042D01*
X182894634Y13133592D01*
X182896165Y13135196D01*
X182910175Y13149203D01*
X182912184Y13152137D01*
X182916431Y13157501D01*
X182937916Y13181067D01*
X182941465Y13190231D01*
X182952111Y13210425D01*
X182957657Y13218520D01*
X182964954Y13249553D01*
X182966979Y13256092D01*
X182978500Y13285827D01*
X182978500Y13295653D01*
X182981130Y13318322D01*
X182983379Y13327882D01*
X182978975Y13359457D01*
X182978500Y13366303D01*
X182978500Y13840829D01*
X182980731Y13854506D01*
X182979506Y13854676D01*
X182980774Y13863767D01*
X182978680Y13909061D01*
X182978552Y13911803D01*
X182978500Y13914083D01*
X182978500Y13933839D01*
X182978500Y13933844D01*
X182977845Y13937346D01*
X182977057Y13944135D01*
X182975585Y13975991D01*
X182971615Y13984981D01*
X182964865Y14006780D01*
X182963061Y14016433D01*
X182946278Y14043538D01*
X182943085Y14049594D01*
X182930638Y14077787D01*
X182930207Y14078764D01*
X182923257Y14085714D01*
X182909088Y14103604D01*
X182903920Y14111951D01*
X182903919Y14111952D01*
X182878483Y14131161D01*
X182873306Y14135666D01*
X182718565Y14290406D01*
X182710479Y14301656D01*
X182709487Y14300906D01*
X182703958Y14308228D01*
X182692737Y14318457D01*
X182668423Y14340623D01*
X182666775Y14342196D01*
X182652797Y14356174D01*
X182649859Y14358187D01*
X182644496Y14362436D01*
X182620933Y14383916D01*
X182611762Y14387469D01*
X182591586Y14398105D01*
X182583484Y14403655D01*
X182583479Y14403657D01*
X182552457Y14410954D01*
X182545902Y14412984D01*
X182507620Y14427814D01*
X182508066Y14428966D01*
X182462578Y14453759D01*
X182436326Y14509026D01*
X182435500Y14521790D01*
X182435500Y14768747D01*
X182435498Y14768759D01*
X182425807Y14817477D01*
X182423867Y14827231D01*
X182423865Y14827233D01*
X182420186Y14836118D01*
X182415387Y14897114D01*
X182420188Y14911890D01*
X182423863Y14920764D01*
X182423867Y14920769D01*
X182435500Y14979252D01*
X182435500Y15268748D01*
X182423867Y15327231D01*
X182423864Y15327235D01*
X182420187Y15336113D01*
X182415386Y15397110D01*
X182420187Y15411887D01*
X182423863Y15420764D01*
X182423867Y15420769D01*
X182435500Y15479252D01*
X182435500Y15768748D01*
X182423867Y15827231D01*
X182423864Y15827235D01*
X182420187Y15836113D01*
X182415386Y15897110D01*
X182420187Y15911887D01*
X182423863Y15920764D01*
X182423867Y15920769D01*
X182435500Y15979252D01*
X182435500Y16318748D01*
X182435500Y16318749D01*
X182435500Y16377240D01*
X182454407Y16435431D01*
X182503907Y16471395D01*
X182565093Y16471395D01*
X182606853Y16444813D01*
X182608028Y16443555D01*
X182608029Y16443553D01*
X182711320Y16332956D01*
X182840618Y16254328D01*
X182986335Y16213500D01*
X182986336Y16213500D01*
X183099652Y16213500D01*
X183099658Y16213500D01*
X183211920Y16228930D01*
X183350720Y16289220D01*
X183468108Y16384722D01*
X183555377Y16508353D01*
X183606054Y16650944D01*
X183616381Y16801921D01*
X183614336Y16811761D01*
X183585593Y16950080D01*
X183585593Y16950082D01*
X183585592Y16950084D01*
X183585592Y16950085D01*
X183515971Y17084447D01*
X183412680Y17195044D01*
X183283382Y17273672D01*
X183283381Y17273673D01*
X183283380Y17273673D01*
X183137665Y17314500D01*
X183024342Y17314500D01*
X182912079Y17299071D01*
X182773281Y17238781D01*
X182655889Y17143276D01*
X182568623Y17019648D01*
X182517945Y16877057D01*
X182517945Y16877056D01*
X182511557Y16783655D01*
X182488723Y16726890D01*
X182436884Y16694388D01*
X182375841Y16698564D01*
X182357786Y16708096D01*
X182313233Y16737866D01*
X182313231Y16737867D01*
X182313228Y16737868D01*
X182313227Y16737868D01*
X182254758Y16749499D01*
X182254748Y16749500D01*
X181065252Y16749500D01*
X181065251Y16749500D01*
X181065241Y16749499D01*
X181006772Y16737868D01*
X181006770Y16737868D01*
X181006769Y16737867D01*
X181006768Y16737867D01*
X180997757Y16734134D01*
X180996723Y16736631D01*
X180956732Y16724500D01*
X180821353Y16724500D01*
X180763162Y16743407D01*
X180727198Y16792907D01*
X180723200Y16810575D01*
X180723044Y16811762D01*
X180662537Y16957839D01*
X180662537Y16957840D01*
X180566286Y17083277D01*
X180566285Y17083278D01*
X180566282Y17083282D01*
X180566277Y17083286D01*
X180566276Y17083287D01*
X180440838Y17179538D01*
X180294766Y17240043D01*
X180294758Y17240045D01*
X180138001Y17260682D01*
X180137999Y17260682D01*
X179981241Y17240045D01*
X179981233Y17240043D01*
X179835161Y17179538D01*
X179835160Y17179538D01*
X179709723Y17083287D01*
X179709713Y17083277D01*
X179613462Y16957840D01*
X179613462Y16957839D01*
X179552957Y16811767D01*
X179552955Y16811759D01*
X179532318Y16655001D01*
X179532318Y16655000D01*
X179552955Y16498242D01*
X179552957Y16498234D01*
X179613462Y16352162D01*
X179613462Y16352161D01*
X179709713Y16226724D01*
X179709718Y16226718D01*
X179835159Y16130464D01*
X179835160Y16130464D01*
X179835161Y16130463D01*
X179972682Y16073500D01*
X179981238Y16069956D01*
X180097932Y16054593D01*
X180137999Y16049318D01*
X180138000Y16049318D01*
X180138001Y16049318D01*
X180178068Y16054593D01*
X180294762Y16069956D01*
X180294767Y16069959D01*
X180301031Y16071636D01*
X180301670Y16069251D01*
X180352023Y16073230D01*
X180354518Y16072597D01*
X180365193Y16069736D01*
X180406077Y16073313D01*
X180410377Y16073500D01*
X180785500Y16073500D01*
X180843691Y16054593D01*
X180879655Y16005093D01*
X180882997Y15983987D01*
X180884024Y15984088D01*
X180884501Y15979242D01*
X180896132Y15920770D01*
X180899814Y15911881D01*
X180904611Y15850884D01*
X180899814Y15836119D01*
X180896132Y15827231D01*
X180884501Y15768759D01*
X180884500Y15768747D01*
X180884500Y15548500D01*
X180865593Y15490309D01*
X180816093Y15454345D01*
X180785500Y15449500D01*
X180628879Y15449500D01*
X180570688Y15468407D01*
X180534724Y15517907D01*
X180534724Y15517908D01*
X180532645Y15524307D01*
X180503318Y15581862D01*
X180475050Y15637342D01*
X180385342Y15727050D01*
X180272304Y15784646D01*
X180272305Y15784646D01*
X180178522Y15799500D01*
X179715479Y15799500D01*
X179715476Y15799499D01*
X179621700Y15784648D01*
X179621695Y15784646D01*
X179508659Y15727051D01*
X179418949Y15637341D01*
X179361354Y15524305D01*
X179346500Y15430523D01*
X179346500Y14817480D01*
X179346501Y14817477D01*
X179361352Y14723701D01*
X179361354Y14723696D01*
X179418950Y14610658D01*
X179508658Y14520950D01*
X179621696Y14463354D01*
X179715481Y14448500D01*
X180178518Y14448501D01*
X180178520Y14448501D01*
X180211718Y14453759D01*
X180231013Y14456815D01*
X180291445Y14447244D01*
X180334710Y14403979D01*
X180345500Y14359034D01*
X180345500Y14023500D01*
X180326593Y13965309D01*
X180277093Y13929345D01*
X180246500Y13924500D01*
X177282165Y13924500D01*
X177268489Y13926733D01*
X177268318Y13925506D01*
X177259234Y13926774D01*
X177218887Y13924908D01*
X177211207Y13924553D01*
X177208931Y13924500D01*
X177189153Y13924500D01*
X177185658Y13923847D01*
X177178845Y13923057D01*
X177147011Y13921586D01*
X177147007Y13921585D01*
X177138013Y13917614D01*
X177116228Y13910868D01*
X177106571Y13909063D01*
X177106565Y13909060D01*
X177079465Y13892282D01*
X177073396Y13889083D01*
X177044238Y13876208D01*
X177044231Y13876204D01*
X177037286Y13869258D01*
X177019406Y13855095D01*
X177011048Y13849920D01*
X176991839Y13824485D01*
X176987335Y13819308D01*
X175253590Y12085563D01*
X175242361Y12077450D01*
X175243090Y12076485D01*
X175235771Y12070959D01*
X175203372Y12035420D01*
X175201796Y12033769D01*
X175187830Y12019802D01*
X175187817Y12019787D01*
X175185813Y12016862D01*
X175181561Y12011496D01*
X175160084Y11987935D01*
X175160083Y11987933D01*
X175156529Y11978760D01*
X175145896Y11958588D01*
X175140346Y11950485D01*
X175140342Y11950476D01*
X175133045Y11919455D01*
X175131016Y11912902D01*
X175119500Y11883176D01*
X175119500Y11873349D01*
X175116870Y11850682D01*
X175114621Y11841119D01*
X175116558Y11827231D01*
X175119025Y11809548D01*
X175119500Y11802702D01*
X175119500Y9734479D01*
X175100593Y9676288D01*
X175090504Y9664475D01*
X174521025Y9094996D01*
X174466508Y9067219D01*
X174451021Y9066000D01*
X174269903Y9066000D01*
X174211712Y9084907D01*
X174187657Y9109895D01*
X174187322Y9110395D01*
X174170640Y9169262D01*
X174187253Y9220503D01*
X174187549Y9220947D01*
X174187552Y9220948D01*
X174231867Y9287269D01*
X174243500Y9345752D01*
X174243500Y9785248D01*
X174231867Y9843731D01*
X174187552Y9910052D01*
X174187548Y9910055D01*
X174121233Y9954366D01*
X174121231Y9954367D01*
X174121228Y9954368D01*
X174121227Y9954368D01*
X174062758Y9965999D01*
X174062748Y9966000D01*
X173223252Y9966000D01*
X173223251Y9966000D01*
X173223241Y9965999D01*
X173164772Y9954368D01*
X173164766Y9954366D01*
X173090341Y9904635D01*
X173088807Y9906931D01*
X173047570Y9885926D01*
X173042991Y9886652D01*
X173051685Y9831819D01*
X173050999Y9827977D01*
X173042500Y9785252D01*
X173042500Y9345754D01*
X173042501Y9345742D01*
X173054132Y9287273D01*
X173054134Y9287267D01*
X173098746Y9220502D01*
X173115355Y9161614D01*
X173098746Y9110498D01*
X173054134Y9043734D01*
X173054132Y9043728D01*
X173042501Y8985259D01*
X173042500Y8985247D01*
X173042500Y8545754D01*
X173042501Y8545742D01*
X173054132Y8487273D01*
X173054134Y8487267D01*
X173098746Y8420502D01*
X173115355Y8361614D01*
X173098746Y8310498D01*
X173054134Y8243734D01*
X173054132Y8243728D01*
X173042501Y8185259D01*
X173042500Y8185247D01*
X173042500Y7745754D01*
X173042501Y7745742D01*
X173054132Y7687273D01*
X173054134Y7687267D01*
X173098746Y7620502D01*
X173115355Y7561614D01*
X173098746Y7510498D01*
X173054134Y7443734D01*
X173054132Y7443728D01*
X173042501Y7385259D01*
X173042500Y7385247D01*
X173042500Y6945754D01*
X173042501Y6945742D01*
X173054132Y6887273D01*
X173054134Y6887267D01*
X173098746Y6820502D01*
X173115355Y6761614D01*
X173098746Y6710498D01*
X173054134Y6643734D01*
X173054132Y6643728D01*
X173042501Y6585259D01*
X173042500Y6585247D01*
X173042500Y6145754D01*
X173042501Y6145742D01*
X173054132Y6087273D01*
X173054134Y6087267D01*
X173098746Y6020502D01*
X173115355Y5961614D01*
X173098746Y5910498D01*
X173054134Y5843734D01*
X173054132Y5843728D01*
X173042501Y5785259D01*
X173042500Y5785247D01*
X173042500Y5345754D01*
X173042501Y5345742D01*
X173054132Y5287273D01*
X173054134Y5287267D01*
X173098746Y5220502D01*
X173115355Y5161614D01*
X173098746Y5110498D01*
X173054134Y5043734D01*
X173054132Y5043728D01*
X173042501Y4985259D01*
X173042500Y4985247D01*
X173042500Y4545754D01*
X173042501Y4545742D01*
X173054132Y4487273D01*
X173054134Y4487267D01*
X173098746Y4420502D01*
X173115355Y4361614D01*
X173098746Y4310498D01*
X173054134Y4243734D01*
X173054132Y4243728D01*
X173042501Y4185259D01*
X173042500Y4185247D01*
X173042500Y3745754D01*
X173042501Y3745742D01*
X173054132Y3687273D01*
X173054134Y3687267D01*
X173098746Y3620502D01*
X173115355Y3561614D01*
X173098746Y3510498D01*
X173054134Y3443734D01*
X173054132Y3443728D01*
X173042501Y3385259D01*
X173042500Y3385247D01*
X173042500Y2945754D01*
X173042501Y2945742D01*
X173054132Y2887273D01*
X173054134Y2887267D01*
X173098746Y2820502D01*
X173115355Y2761614D01*
X173098746Y2710498D01*
X173054134Y2643734D01*
X173054132Y2643728D01*
X173042501Y2585259D01*
X173042500Y2585247D01*
X173042500Y2145754D01*
X173042501Y2145742D01*
X173054132Y2087273D01*
X173054134Y2087267D01*
X173098746Y2020502D01*
X173115355Y1961614D01*
X173098746Y1910498D01*
X173054134Y1843734D01*
X173054132Y1843728D01*
X173042501Y1785259D01*
X173042500Y1785247D01*
X173042500Y1345754D01*
X155745238Y1345754D01*
X155765762Y1348456D01*
X155911841Y1408964D01*
X156037282Y1505218D01*
X156133536Y1630659D01*
X156194044Y1776738D01*
X156214682Y1933500D01*
X156194044Y2090262D01*
X156175591Y2134811D01*
X156133537Y2236339D01*
X156133537Y2236340D01*
X156037286Y2361777D01*
X156037285Y2361778D01*
X156037282Y2361782D01*
X156037277Y2361786D01*
X156037275Y2361788D01*
X155984232Y2402490D01*
X155949577Y2452914D01*
X155945500Y2481031D01*
X155945500Y2566000D01*
X155964407Y2624191D01*
X156013907Y2660155D01*
X156044500Y2665000D01*
X156165757Y2665000D01*
X156165760Y2665000D01*
X156233893Y2674927D01*
X156338983Y2726302D01*
X156421698Y2809017D01*
X156473073Y2914107D01*
X156483000Y2982240D01*
X157032000Y2982240D01*
X157037147Y2946913D01*
X157041927Y2914105D01*
X157083430Y2829210D01*
X157093302Y2809017D01*
X157176017Y2726302D01*
X157229785Y2700017D01*
X157281104Y2674928D01*
X157281105Y2674928D01*
X157281107Y2674927D01*
X157349240Y2665000D01*
X157349243Y2665000D01*
X158440757Y2665000D01*
X158440760Y2665000D01*
X158508893Y2674927D01*
X158613983Y2726302D01*
X158696698Y2809017D01*
X158696698Y2809020D01*
X158698684Y2811004D01*
X158753201Y2838781D01*
X158768688Y2840000D01*
X159209352Y2840000D01*
X159267543Y2821093D01*
X159297561Y2785946D01*
X159328472Y2725280D01*
X159423780Y2629972D01*
X159423782Y2629971D01*
X159543867Y2568784D01*
X159543869Y2568784D01*
X159543874Y2568781D01*
X159619541Y2556797D01*
X159643510Y2553000D01*
X159643512Y2553000D01*
X160210490Y2553000D01*
X160231885Y2556389D01*
X160310126Y2568781D01*
X160430220Y2629972D01*
X160525528Y2725280D01*
X160556438Y2785946D01*
X160599703Y2829210D01*
X160644648Y2840000D01*
X161239904Y2840000D01*
X161294906Y2823315D01*
X161298447Y2820949D01*
X161298448Y2820948D01*
X161364769Y2776633D01*
X161409231Y2767789D01*
X161423241Y2765002D01*
X161423246Y2765002D01*
X161423252Y2765000D01*
X161423253Y2765000D01*
X162262747Y2765000D01*
X162262748Y2765000D01*
X162321231Y2776633D01*
X162387552Y2820948D01*
X162387552Y2820949D01*
X162391094Y2823315D01*
X162446096Y2840000D01*
X162476626Y2840000D01*
X162480926Y2839813D01*
X162521807Y2836236D01*
X162561452Y2846860D01*
X162565650Y2847790D01*
X162606045Y2854912D01*
X162607345Y2855662D01*
X162631236Y2865558D01*
X162631464Y2865620D01*
X162632684Y2865946D01*
X162666303Y2889488D01*
X162669911Y2891786D01*
X162705455Y2912306D01*
X162731838Y2943750D01*
X162734726Y2946902D01*
X162957583Y3169759D01*
X162960760Y3172671D01*
X162992194Y3199045D01*
X163012714Y3234589D01*
X163015012Y3238197D01*
X163038554Y3271816D01*
X163038941Y3273264D01*
X163048838Y3297155D01*
X163049587Y3298453D01*
X163049587Y3298454D01*
X163049588Y3298455D01*
X163056712Y3338865D01*
X163057641Y3343054D01*
X163068264Y3382694D01*
X163064687Y3423579D01*
X163064500Y3427878D01*
X163064500Y6903126D01*
X163064687Y6907427D01*
X163068264Y6948306D01*
X163057641Y6987948D01*
X163056709Y6992155D01*
X163049588Y7032543D01*
X163049588Y7032545D01*
X163048835Y7033849D01*
X163038944Y7057729D01*
X163038555Y7059181D01*
X163038554Y7059182D01*
X163038554Y7059184D01*
X163038552Y7059187D01*
X163038551Y7059189D01*
X163015025Y7092788D01*
X163012703Y7096432D01*
X162992193Y7131957D01*
X162971069Y7149681D01*
X162960765Y7158327D01*
X162957588Y7161239D01*
X162734741Y7384086D01*
X162731822Y7387271D01*
X162705456Y7418694D01*
X162677213Y7435000D01*
X162669918Y7439212D01*
X162666288Y7441525D01*
X162632684Y7465054D01*
X162632679Y7465057D01*
X162631224Y7465446D01*
X162607348Y7475336D01*
X162606045Y7476089D01*
X162565652Y7483211D01*
X162561436Y7484146D01*
X162535855Y7491000D01*
X162521807Y7494764D01*
X162521806Y7494764D01*
X162521803Y7494765D01*
X162495279Y7492444D01*
X162435662Y7506208D01*
X162395521Y7552386D01*
X162390190Y7613339D01*
X162404334Y7646065D01*
X162431867Y7687269D01*
X162443500Y7745752D01*
X162443500Y8185248D01*
X162431867Y8243731D01*
X162387552Y8310052D01*
X162387551Y8310053D01*
X162387253Y8310499D01*
X162370644Y8369387D01*
X162387254Y8420504D01*
X162387549Y8420947D01*
X162387552Y8420948D01*
X162431867Y8487269D01*
X162443500Y8545752D01*
X162443500Y8985248D01*
X162431867Y9043731D01*
X162387552Y9110052D01*
X162383399Y9112827D01*
X162321233Y9154366D01*
X162321231Y9154367D01*
X162321228Y9154368D01*
X162321227Y9154368D01*
X162262758Y9165999D01*
X162262748Y9166000D01*
X161423252Y9166000D01*
X161423251Y9166000D01*
X161423241Y9165999D01*
X161364772Y9154368D01*
X161364766Y9154366D01*
X161298451Y9110055D01*
X161298445Y9110049D01*
X161254134Y9043734D01*
X161254132Y9043728D01*
X161242501Y8985259D01*
X161242500Y8985247D01*
X161242500Y8545754D01*
X161242501Y8545742D01*
X161254132Y8487273D01*
X161254134Y8487267D01*
X161298746Y8420502D01*
X161315355Y8361614D01*
X161298746Y8310498D01*
X161254134Y8243734D01*
X161254132Y8243728D01*
X161242501Y8185259D01*
X161242500Y8185247D01*
X161242500Y7745754D01*
X161242501Y7745742D01*
X161254132Y7687273D01*
X161254134Y7687267D01*
X161298746Y7620502D01*
X161315355Y7561614D01*
X161298746Y7510498D01*
X161254134Y7443734D01*
X161254132Y7443728D01*
X161242501Y7385259D01*
X161242500Y7385247D01*
X161242500Y6945754D01*
X161242501Y6945742D01*
X161254132Y6887273D01*
X161254134Y6887267D01*
X161298746Y6820502D01*
X161315355Y6761614D01*
X161298746Y6710498D01*
X161254134Y6643734D01*
X161254132Y6643728D01*
X161242501Y6585259D01*
X161242500Y6585247D01*
X161242500Y6145754D01*
X161242501Y6145742D01*
X161254132Y6087273D01*
X161254134Y6087267D01*
X161298746Y6020502D01*
X161315355Y5961614D01*
X161298746Y5910498D01*
X161254134Y5843734D01*
X161254132Y5843728D01*
X161242501Y5785259D01*
X161242500Y5785247D01*
X161242500Y5345754D01*
X161242501Y5345742D01*
X161254132Y5287273D01*
X161254134Y5287267D01*
X161298746Y5220502D01*
X161315355Y5161614D01*
X161298746Y5110498D01*
X161254134Y5043734D01*
X161254132Y5043728D01*
X161242501Y4985259D01*
X161242500Y4985247D01*
X161242500Y4545754D01*
X161242501Y4545742D01*
X161254132Y4487273D01*
X161254134Y4487267D01*
X161298746Y4420502D01*
X161315355Y4361614D01*
X161298746Y4310498D01*
X161254134Y4243734D01*
X161254132Y4243728D01*
X161242501Y4185259D01*
X161242500Y4185247D01*
X161242500Y3745754D01*
X161242501Y3745742D01*
X161254132Y3687273D01*
X161254134Y3687267D01*
X161282375Y3645002D01*
X161298984Y3586114D01*
X161277807Y3528710D01*
X161226933Y3494717D01*
X161200060Y3491000D01*
X160681594Y3491000D01*
X160623403Y3509907D01*
X160590704Y3554913D01*
X160590257Y3554684D01*
X160588816Y3557511D01*
X160587439Y3559407D01*
X160587438Y3559413D01*
X160586719Y3561622D01*
X160586719Y3561626D01*
X160525528Y3681720D01*
X160430220Y3777028D01*
X160430217Y3777030D01*
X160310132Y3838217D01*
X160310127Y3838219D01*
X160310126Y3838219D01*
X160276913Y3843480D01*
X160210490Y3854000D01*
X160210488Y3854000D01*
X159643512Y3854000D01*
X159643510Y3854000D01*
X159543874Y3838219D01*
X159543867Y3838217D01*
X159423782Y3777030D01*
X159328470Y3681718D01*
X159267282Y3561630D01*
X159266562Y3559413D01*
X159265190Y3557526D01*
X159263743Y3554684D01*
X159263293Y3554914D01*
X159230602Y3509911D01*
X159172412Y3491000D01*
X158768688Y3491000D01*
X158710497Y3509907D01*
X158698684Y3519996D01*
X158696698Y3521982D01*
X158696698Y3521983D01*
X158613983Y3604698D01*
X158613981Y3604699D01*
X158508895Y3656073D01*
X158481639Y3660044D01*
X158440760Y3666000D01*
X157349240Y3666000D01*
X157315173Y3661037D01*
X157281104Y3656073D01*
X157176018Y3604699D01*
X157093301Y3521982D01*
X157041927Y3416896D01*
X157039220Y3398317D01*
X157032000Y3348760D01*
X157032000Y2982240D01*
X156483000Y2982240D01*
X156483000Y3348760D01*
X156473073Y3416893D01*
X156468758Y3425719D01*
X156447983Y3468215D01*
X156421698Y3521983D01*
X156338983Y3604698D01*
X156338981Y3604699D01*
X156233895Y3656073D01*
X156206639Y3660044D01*
X156165760Y3666000D01*
X155074240Y3666000D01*
X155040173Y3661037D01*
X155006104Y3656073D01*
X154901018Y3604699D01*
X154818301Y3521982D01*
X154766927Y3416896D01*
X154764220Y3398317D01*
X154757000Y3348760D01*
X154757000Y2982240D01*
X332331Y2982240D01*
X317882Y3073467D01*
X317344Y3078590D01*
X300567Y3398706D01*
X300500Y3401290D01*
X300500Y4882240D01*
X154757000Y4882240D01*
X154763617Y4836818D01*
X154766927Y4814105D01*
X154818301Y4709019D01*
X154818302Y4709017D01*
X154901017Y4626302D01*
X154954785Y4600017D01*
X155006104Y4574928D01*
X155006105Y4574928D01*
X155006107Y4574927D01*
X155074240Y4565000D01*
X155074243Y4565000D01*
X156165757Y4565000D01*
X156165760Y4565000D01*
X156233893Y4574927D01*
X156338983Y4626302D01*
X156421698Y4709017D01*
X156473073Y4814107D01*
X156483000Y4882240D01*
X157032000Y4882240D01*
X157038618Y4836818D01*
X157041927Y4814105D01*
X157093301Y4709019D01*
X157093302Y4709017D01*
X157176017Y4626302D01*
X157229785Y4600017D01*
X157281104Y4574928D01*
X157281105Y4574928D01*
X157281107Y4574927D01*
X157349240Y4565000D01*
X157349243Y4565000D01*
X158440757Y4565000D01*
X158440760Y4565000D01*
X158508893Y4574927D01*
X158613983Y4626302D01*
X158696698Y4709017D01*
X158748073Y4814107D01*
X158758000Y4882240D01*
X158758000Y5248760D01*
X158748073Y5316893D01*
X158696698Y5421983D01*
X158613983Y5504698D01*
X158613981Y5504699D01*
X158508895Y5556073D01*
X158481639Y5560044D01*
X158440760Y5566000D01*
X157349240Y5566000D01*
X157315173Y5561037D01*
X157281104Y5556073D01*
X157176018Y5504699D01*
X157093301Y5421982D01*
X157041927Y5316896D01*
X157041927Y5316893D01*
X157032000Y5248760D01*
X157032000Y4882240D01*
X156483000Y4882240D01*
X156483000Y5248760D01*
X156473073Y5316893D01*
X156421698Y5421983D01*
X156338983Y5504698D01*
X156338981Y5504699D01*
X156233895Y5556073D01*
X156206639Y5560044D01*
X156165760Y5566000D01*
X156165757Y5566000D01*
X156046500Y5566000D01*
X155988309Y5584907D01*
X155952345Y5634407D01*
X155947500Y5665000D01*
X155947500Y6022490D01*
X155966407Y6080681D01*
X156001555Y6110699D01*
X156086179Y6153818D01*
X156100220Y6160972D01*
X156195528Y6256280D01*
X156249075Y6361373D01*
X156292338Y6404635D01*
X156352770Y6414206D01*
X156407286Y6386429D01*
X156415823Y6376695D01*
X156450718Y6331218D01*
X156576159Y6234964D01*
X156722238Y6174456D01*
X156839809Y6158978D01*
X156878999Y6153818D01*
X156879000Y6153818D01*
X156879001Y6153818D01*
X156910352Y6157946D01*
X157035762Y6174456D01*
X157181841Y6234964D01*
X157307282Y6331218D01*
X157403536Y6456659D01*
X157464044Y6602738D01*
X157484682Y6759500D01*
X157464044Y6916262D01*
X157411552Y7042988D01*
X157403537Y7062339D01*
X157403537Y7062340D01*
X157307286Y7187777D01*
X157307285Y7187778D01*
X157307282Y7187782D01*
X157307277Y7187786D01*
X157307276Y7187787D01*
X157209623Y7262718D01*
X157181841Y7284036D01*
X157181840Y7284037D01*
X157181838Y7284038D01*
X157035766Y7344543D01*
X157035758Y7344545D01*
X156879001Y7365182D01*
X156878999Y7365182D01*
X156722241Y7344545D01*
X156722233Y7344543D01*
X156576161Y7284038D01*
X156576160Y7284038D01*
X156450723Y7187787D01*
X156450718Y7187782D01*
X156427583Y7157631D01*
X156415825Y7142308D01*
X156365400Y7107653D01*
X156304236Y7109255D01*
X156255694Y7146502D01*
X156249076Y7157625D01*
X156195528Y7262720D01*
X156100220Y7358028D01*
X156100217Y7358030D01*
X155980132Y7419217D01*
X155980127Y7419219D01*
X155980126Y7419219D01*
X155946913Y7424480D01*
X155880490Y7435000D01*
X155880488Y7435000D01*
X155363512Y7435000D01*
X155363510Y7435000D01*
X155263874Y7419219D01*
X155263867Y7419217D01*
X155143782Y7358030D01*
X155048470Y7262718D01*
X154987283Y7142633D01*
X154987281Y7142626D01*
X154971841Y7045138D01*
X154971500Y7042988D01*
X154971500Y6476012D01*
X154985688Y6386429D01*
X154987281Y6376375D01*
X154987283Y6376368D01*
X155048470Y6256283D01*
X155048472Y6256280D01*
X155143780Y6160972D01*
X155143782Y6160971D01*
X155242445Y6110699D01*
X155285710Y6067435D01*
X155296500Y6022490D01*
X155296500Y5665000D01*
X155277593Y5606809D01*
X155228093Y5570845D01*
X155197500Y5566000D01*
X155074240Y5566000D01*
X155040173Y5561037D01*
X155006104Y5556073D01*
X154901018Y5504699D01*
X154818301Y5421982D01*
X154766927Y5316896D01*
X154766927Y5316893D01*
X154757000Y5248760D01*
X154757000Y4882240D01*
X300500Y4882240D01*
X300500Y10045754D01*
X162542500Y10045754D01*
X162542501Y10045742D01*
X162554132Y9987273D01*
X162554134Y9987267D01*
X162576118Y9954366D01*
X162598448Y9920948D01*
X162664769Y9876633D01*
X162709231Y9867789D01*
X162723241Y9865002D01*
X162723246Y9865002D01*
X162723252Y9865000D01*
X162723253Y9865000D01*
X163162747Y9865000D01*
X163162748Y9865000D01*
X163221231Y9876633D01*
X163287552Y9920948D01*
X163287553Y9920951D01*
X163287997Y9921247D01*
X163346885Y9937856D01*
X163398003Y9921247D01*
X163398446Y9920951D01*
X163398448Y9920948D01*
X163464769Y9876633D01*
X163509231Y9867789D01*
X163523241Y9865002D01*
X163523246Y9865002D01*
X163523252Y9865000D01*
X163523253Y9865000D01*
X163962747Y9865000D01*
X163962748Y9865000D01*
X164021231Y9876633D01*
X164087552Y9920948D01*
X164131867Y9987269D01*
X164143500Y10045752D01*
X164143500Y10045754D01*
X164942500Y10045754D01*
X164942501Y10045742D01*
X164954132Y9987273D01*
X164954134Y9987267D01*
X164976118Y9954366D01*
X164998448Y9920948D01*
X165064769Y9876633D01*
X165109231Y9867789D01*
X165123241Y9865002D01*
X165123246Y9865002D01*
X165123252Y9865000D01*
X165123253Y9865000D01*
X165562747Y9865000D01*
X165562748Y9865000D01*
X165621231Y9876633D01*
X165687552Y9920948D01*
X165687553Y9920951D01*
X165687997Y9921247D01*
X165746885Y9937856D01*
X165798003Y9921247D01*
X165798446Y9920951D01*
X165798448Y9920948D01*
X165864769Y9876633D01*
X165909231Y9867789D01*
X165923241Y9865002D01*
X165923246Y9865002D01*
X165923252Y9865000D01*
X165923253Y9865000D01*
X166362747Y9865000D01*
X166362748Y9865000D01*
X166421231Y9876633D01*
X166487552Y9920948D01*
X166487553Y9920951D01*
X166487997Y9921247D01*
X166546885Y9937856D01*
X166598003Y9921247D01*
X166598446Y9920951D01*
X166598448Y9920948D01*
X166664769Y9876633D01*
X166709231Y9867789D01*
X166723241Y9865002D01*
X166723246Y9865002D01*
X166723252Y9865000D01*
X166723253Y9865000D01*
X167162747Y9865000D01*
X167162748Y9865000D01*
X167221231Y9876633D01*
X167287552Y9920948D01*
X167287553Y9920951D01*
X167287997Y9921247D01*
X167346885Y9937856D01*
X167398003Y9921247D01*
X167398446Y9920951D01*
X167398448Y9920948D01*
X167464769Y9876633D01*
X167509231Y9867789D01*
X167523241Y9865002D01*
X167523246Y9865002D01*
X167523252Y9865000D01*
X167523253Y9865000D01*
X167962747Y9865000D01*
X167962748Y9865000D01*
X168021231Y9876633D01*
X168087552Y9920948D01*
X168087553Y9920951D01*
X168087997Y9921247D01*
X168146885Y9937856D01*
X168198003Y9921247D01*
X168198446Y9920951D01*
X168198448Y9920948D01*
X168264769Y9876633D01*
X168309231Y9867789D01*
X168323241Y9865002D01*
X168323246Y9865002D01*
X168323252Y9865000D01*
X168323253Y9865000D01*
X168762747Y9865000D01*
X168762748Y9865000D01*
X168821231Y9876633D01*
X168887552Y9920948D01*
X168887553Y9920951D01*
X168887997Y9921247D01*
X168946885Y9937856D01*
X168998003Y9921247D01*
X168998446Y9920951D01*
X168998448Y9920948D01*
X169064769Y9876633D01*
X169109231Y9867789D01*
X169123241Y9865002D01*
X169123246Y9865002D01*
X169123252Y9865000D01*
X169123253Y9865000D01*
X169562747Y9865000D01*
X169562748Y9865000D01*
X169621231Y9876633D01*
X169687552Y9920948D01*
X169687553Y9920951D01*
X169687997Y9921247D01*
X169746885Y9937856D01*
X169798003Y9921247D01*
X169798446Y9920951D01*
X169798448Y9920948D01*
X169864769Y9876633D01*
X169909231Y9867789D01*
X169923241Y9865002D01*
X169923246Y9865002D01*
X169923252Y9865000D01*
X169923253Y9865000D01*
X170362747Y9865000D01*
X170362748Y9865000D01*
X170421231Y9876633D01*
X170487552Y9920948D01*
X170487553Y9920951D01*
X170487997Y9921247D01*
X170546885Y9937856D01*
X170598003Y9921247D01*
X170598446Y9920951D01*
X170598448Y9920948D01*
X170664769Y9876633D01*
X170709231Y9867789D01*
X170723241Y9865002D01*
X170723246Y9865002D01*
X170723252Y9865000D01*
X170723253Y9865000D01*
X171162747Y9865000D01*
X171162748Y9865000D01*
X171221231Y9876633D01*
X171287552Y9920948D01*
X171287553Y9920951D01*
X171287997Y9921247D01*
X171346885Y9937856D01*
X171398003Y9921247D01*
X171398446Y9920951D01*
X171398448Y9920948D01*
X171464769Y9876633D01*
X171509231Y9867789D01*
X171523241Y9865002D01*
X171523246Y9865002D01*
X171523252Y9865000D01*
X171523253Y9865000D01*
X171962747Y9865000D01*
X171962748Y9865000D01*
X172021231Y9876633D01*
X172087552Y9920948D01*
X172087553Y9920951D01*
X172087997Y9921247D01*
X172146885Y9937856D01*
X172198003Y9921247D01*
X172198446Y9920951D01*
X172198448Y9920948D01*
X172264769Y9876633D01*
X172309231Y9867789D01*
X172323241Y9865002D01*
X172323246Y9865002D01*
X172323252Y9865000D01*
X172323253Y9865000D01*
X172762747Y9865000D01*
X172762748Y9865000D01*
X172821231Y9876633D01*
X172887552Y9920948D01*
X172887552Y9920949D01*
X172895659Y9926365D01*
X172897194Y9924068D01*
X172938399Y9945070D01*
X172943000Y9944342D01*
X172934319Y9999212D01*
X172935001Y10003026D01*
X172943499Y10045745D01*
X172943500Y10045754D01*
X172943500Y10885247D01*
X172943498Y10885259D01*
X172940711Y10899269D01*
X172931867Y10943731D01*
X172887552Y11010052D01*
X172887431Y11010133D01*
X172821233Y11054366D01*
X172821231Y11054367D01*
X172821228Y11054368D01*
X172821227Y11054368D01*
X172762758Y11065999D01*
X172762748Y11066000D01*
X172323252Y11066000D01*
X172323251Y11066000D01*
X172323241Y11065999D01*
X172264772Y11054368D01*
X172264766Y11054366D01*
X172198002Y11009754D01*
X172139114Y10993145D01*
X172087998Y11009754D01*
X172021233Y11054366D01*
X172021231Y11054367D01*
X172021228Y11054368D01*
X172021227Y11054368D01*
X171962758Y11065999D01*
X171962748Y11066000D01*
X171523252Y11066000D01*
X171523251Y11066000D01*
X171523241Y11065999D01*
X171464772Y11054368D01*
X171464766Y11054366D01*
X171398002Y11009754D01*
X171339114Y10993145D01*
X171287998Y11009754D01*
X171221233Y11054366D01*
X171221231Y11054367D01*
X171221228Y11054368D01*
X171221227Y11054368D01*
X171162758Y11065999D01*
X171162748Y11066000D01*
X170723252Y11066000D01*
X170723251Y11066000D01*
X170723241Y11065999D01*
X170664772Y11054368D01*
X170664766Y11054366D01*
X170598002Y11009754D01*
X170539114Y10993145D01*
X170487998Y11009754D01*
X170421233Y11054366D01*
X170421231Y11054367D01*
X170421228Y11054368D01*
X170421227Y11054368D01*
X170362758Y11065999D01*
X170362748Y11066000D01*
X169923252Y11066000D01*
X169923251Y11066000D01*
X169923241Y11065999D01*
X169864772Y11054368D01*
X169864766Y11054366D01*
X169822502Y11026125D01*
X169763614Y11009516D01*
X169706210Y11030693D01*
X169672217Y11081567D01*
X169668500Y11108440D01*
X169668500Y13916168D01*
X169687407Y13974359D01*
X169697490Y13986166D01*
X170318588Y14607263D01*
X170321760Y14610171D01*
X170353194Y14636545D01*
X170373714Y14672089D01*
X170376012Y14675697D01*
X170399554Y14709316D01*
X170399941Y14710764D01*
X170409838Y14734655D01*
X170410588Y14735955D01*
X170417709Y14776344D01*
X170418640Y14780548D01*
X170429264Y14820193D01*
X170425687Y14861080D01*
X170425500Y14865354D01*
X170425500Y16092121D01*
X170444407Y16150312D01*
X170493906Y16186275D01*
X170500299Y16188353D01*
X170500299Y16188354D01*
X170500304Y16188354D01*
X170613342Y16245950D01*
X170703050Y16335658D01*
X170760646Y16448696D01*
X170775500Y16542481D01*
X170775499Y17005518D01*
X170773261Y17019648D01*
X170760647Y17099300D01*
X170760646Y17099302D01*
X170760646Y17099304D01*
X170703050Y17212342D01*
X170613342Y17302050D01*
X170500304Y17359646D01*
X170500305Y17359646D01*
X170406522Y17374500D01*
X169793479Y17374500D01*
X169793476Y17374499D01*
X169699700Y17359648D01*
X169699695Y17359646D01*
X169586659Y17302051D01*
X169496949Y17212341D01*
X169439354Y17099305D01*
X169424500Y17005523D01*
X169424500Y16542480D01*
X169424501Y16542477D01*
X169439352Y16448701D01*
X169439354Y16448696D01*
X169496950Y16335658D01*
X169586658Y16245950D01*
X169699696Y16188354D01*
X169699700Y16188354D01*
X169706085Y16186279D01*
X169755588Y16150319D01*
X169774500Y16092130D01*
X169774500Y15024835D01*
X169755593Y14966644D01*
X169745504Y14954831D01*
X169124413Y14333741D01*
X169121228Y14330824D01*
X169089807Y14304458D01*
X169089805Y14304456D01*
X169069291Y14268925D01*
X169066971Y14265282D01*
X169048595Y14239039D01*
X168999730Y14202217D01*
X168938554Y14201149D01*
X168888434Y14236244D01*
X168868514Y14294096D01*
X168868499Y14295750D01*
X168868499Y16092125D01*
X168887406Y16150312D01*
X168936906Y16186276D01*
X168936907Y16186276D01*
X168943294Y16188353D01*
X168943304Y16188354D01*
X169056342Y16245950D01*
X169146050Y16335658D01*
X169203646Y16448696D01*
X169218500Y16542481D01*
X169218499Y17005518D01*
X169216261Y17019648D01*
X169203647Y17099300D01*
X169203646Y17099302D01*
X169203646Y17099304D01*
X169146050Y17212342D01*
X169056342Y17302050D01*
X168943304Y17359646D01*
X168943305Y17359646D01*
X168849522Y17374500D01*
X168236479Y17374500D01*
X168236476Y17374499D01*
X168142700Y17359648D01*
X168142695Y17359646D01*
X168029659Y17302051D01*
X167939949Y17212341D01*
X167882354Y17099306D01*
X167869280Y17016763D01*
X167841502Y16962247D01*
X167786985Y16934470D01*
X167726553Y16944042D01*
X167683289Y16987307D01*
X167673718Y17016766D01*
X167660647Y17099300D01*
X167660646Y17099302D01*
X167660646Y17099304D01*
X167603050Y17212342D01*
X167513342Y17302050D01*
X167400304Y17359646D01*
X167400305Y17359646D01*
X167306522Y17374500D01*
X166693479Y17374500D01*
X166693476Y17374499D01*
X166599700Y17359648D01*
X166599695Y17359646D01*
X166486659Y17302051D01*
X166396949Y17212341D01*
X166339354Y17099305D01*
X166324500Y17005523D01*
X166324500Y16542480D01*
X166324501Y16542477D01*
X166339352Y16448701D01*
X166339354Y16448696D01*
X166396950Y16335658D01*
X166486658Y16245950D01*
X166599696Y16188354D01*
X166599700Y16188354D01*
X166606085Y16186279D01*
X166655588Y16150319D01*
X166674500Y16092130D01*
X166674500Y14865375D01*
X166674312Y14861073D01*
X166670736Y14820193D01*
X166671463Y14817480D01*
X166681354Y14780564D01*
X166682289Y14776348D01*
X166689411Y14735955D01*
X166690164Y14734652D01*
X166700054Y14710776D01*
X166700443Y14709321D01*
X166700445Y14709318D01*
X166700446Y14709316D01*
X166723968Y14675722D01*
X166723971Y14675719D01*
X166726288Y14672082D01*
X166746804Y14636548D01*
X166746806Y14636545D01*
X166778224Y14610182D01*
X166781410Y14607263D01*
X167388503Y14000171D01*
X167416280Y13945654D01*
X167417499Y13930167D01*
X167417499Y11108441D01*
X167398592Y11050250D01*
X167349092Y11014286D01*
X167287906Y11014286D01*
X167263498Y11026125D01*
X167221232Y11054366D01*
X167221233Y11054366D01*
X167221231Y11054367D01*
X167221228Y11054368D01*
X167221227Y11054368D01*
X167162758Y11065999D01*
X167162748Y11066000D01*
X166723252Y11066000D01*
X166723251Y11066000D01*
X166723241Y11065999D01*
X166664772Y11054368D01*
X166664766Y11054366D01*
X166598002Y11009754D01*
X166539114Y10993145D01*
X166487998Y11009754D01*
X166421233Y11054366D01*
X166421231Y11054367D01*
X166421228Y11054368D01*
X166421227Y11054368D01*
X166362758Y11065999D01*
X166362748Y11066000D01*
X165923252Y11066000D01*
X165923251Y11066000D01*
X165923241Y11065999D01*
X165864772Y11054368D01*
X165864766Y11054366D01*
X165798002Y11009754D01*
X165739114Y10993145D01*
X165687998Y11009754D01*
X165621233Y11054366D01*
X165621231Y11054367D01*
X165621228Y11054368D01*
X165621227Y11054368D01*
X165562758Y11065999D01*
X165562748Y11066000D01*
X165123252Y11066000D01*
X165123251Y11066000D01*
X165123241Y11065999D01*
X165064772Y11054368D01*
X165064766Y11054366D01*
X164998451Y11010055D01*
X164998445Y11010049D01*
X164954134Y10943734D01*
X164954132Y10943728D01*
X164942501Y10885259D01*
X164942500Y10885247D01*
X164942500Y10045754D01*
X164143500Y10045754D01*
X164143500Y10885248D01*
X164131867Y10943731D01*
X164087552Y11010052D01*
X164087431Y11010133D01*
X164021233Y11054366D01*
X164021231Y11054367D01*
X164021228Y11054368D01*
X164021227Y11054368D01*
X163962758Y11065999D01*
X163962748Y11066000D01*
X163523252Y11066000D01*
X163523251Y11066000D01*
X163523241Y11065999D01*
X163464772Y11054368D01*
X163464766Y11054366D01*
X163398002Y11009754D01*
X163339114Y10993145D01*
X163287998Y11009754D01*
X163221233Y11054366D01*
X163221231Y11054367D01*
X163221228Y11054368D01*
X163221227Y11054368D01*
X163162758Y11065999D01*
X163162748Y11066000D01*
X162723252Y11066000D01*
X162723251Y11066000D01*
X162723241Y11065999D01*
X162664772Y11054368D01*
X162664766Y11054366D01*
X162598451Y11010055D01*
X162598445Y11010049D01*
X162554134Y10943734D01*
X162554132Y10943728D01*
X162542501Y10885259D01*
X162542500Y10885247D01*
X162542500Y10045754D01*
X300500Y10045754D01*
X300500Y20465000D01*
X3510318Y20465000D01*
X3530955Y20308242D01*
X3530957Y20308234D01*
X3591462Y20162162D01*
X3591462Y20162161D01*
X3661341Y20071093D01*
X3687718Y20036718D01*
X3813159Y19940464D01*
X3959238Y19879956D01*
X4076809Y19864478D01*
X4115999Y19859318D01*
X4116000Y19859318D01*
X4116001Y19859318D01*
X4147352Y19863446D01*
X4272762Y19879956D01*
X4418841Y19940464D01*
X4544282Y20036718D01*
X4593428Y20100768D01*
X4643852Y20135423D01*
X4671970Y20139500D01*
X48518030Y20139500D01*
X48576221Y20120593D01*
X48596570Y20100769D01*
X48645718Y20036718D01*
X48771159Y19940464D01*
X48917238Y19879956D01*
X49034809Y19864478D01*
X49073999Y19859318D01*
X49074000Y19859318D01*
X49074001Y19859318D01*
X49105352Y19863446D01*
X49230762Y19879956D01*
X49376841Y19940464D01*
X49502282Y20036718D01*
X49551428Y20100768D01*
X49601852Y20135423D01*
X49629970Y20139500D01*
X93730030Y20139500D01*
X93788221Y20120593D01*
X93808570Y20100769D01*
X93857718Y20036718D01*
X93983159Y19940464D01*
X94129238Y19879956D01*
X94246809Y19864478D01*
X94285999Y19859318D01*
X94286000Y19859318D01*
X94286001Y19859318D01*
X94317352Y19863446D01*
X94442762Y19879956D01*
X94588841Y19940464D01*
X94714282Y20036718D01*
X94763428Y20100768D01*
X94813852Y20135423D01*
X94841970Y20139500D01*
X131087525Y20139500D01*
X138688030Y20139500D01*
X138746221Y20120593D01*
X138766570Y20100769D01*
X138815718Y20036718D01*
X138941159Y19940464D01*
X139087238Y19879956D01*
X139204809Y19864478D01*
X139243999Y19859318D01*
X139244000Y19859318D01*
X139244001Y19859318D01*
X139275352Y19863446D01*
X139400762Y19879956D01*
X139546841Y19940464D01*
X139672282Y20036718D01*
X139721428Y20100768D01*
X139771852Y20135423D01*
X139799970Y20139500D01*
X160932525Y20139500D01*
X161971525Y20139500D01*
X164971525Y20139500D01*
X165508166Y20139500D01*
X165566357Y20120593D01*
X165578170Y20110504D01*
X166555898Y19132776D01*
X166583675Y19078259D01*
X166574104Y19017827D01*
X166530841Y18974563D01*
X166486658Y18952050D01*
X166396949Y18862341D01*
X166339354Y18749305D01*
X166324500Y18655523D01*
X166324500Y18192480D01*
X166324501Y18192477D01*
X166339352Y18098701D01*
X166339354Y18098696D01*
X166396950Y17985658D01*
X166486658Y17895950D01*
X166599696Y17838354D01*
X166693481Y17823500D01*
X167306518Y17823501D01*
X167306520Y17823501D01*
X167306521Y17823502D01*
X167353411Y17830928D01*
X167400299Y17838353D01*
X167400299Y17838354D01*
X167400304Y17838354D01*
X167513342Y17895950D01*
X167603050Y17985658D01*
X167660646Y18098696D01*
X167673719Y18181238D01*
X167701496Y18235753D01*
X167756013Y18263531D01*
X167816445Y18253960D01*
X167859710Y18210695D01*
X167869281Y18181236D01*
X167882352Y18098700D01*
X167882354Y18098696D01*
X167939950Y17985658D01*
X168029658Y17895950D01*
X168142696Y17838354D01*
X168236481Y17823500D01*
X168849518Y17823501D01*
X168849520Y17823501D01*
X168849521Y17823502D01*
X168896410Y17830928D01*
X168943299Y17838353D01*
X168943299Y17838354D01*
X168943304Y17838354D01*
X169056342Y17895950D01*
X169146050Y17985658D01*
X169203646Y18098696D01*
X169218500Y18192481D01*
X169218499Y18655518D01*
X169203646Y18749304D01*
X169146050Y18862342D01*
X169056342Y18952050D01*
X169054953Y18952758D01*
X168991780Y18984947D01*
X168948516Y19028212D01*
X168938945Y19088645D01*
X168966724Y19143161D01*
X168971277Y19147715D01*
X168971282Y19147718D01*
X169067536Y19273159D01*
X169128044Y19419238D01*
X169148682Y19576000D01*
X169128044Y19732762D01*
X169067537Y19878839D01*
X169067537Y19878840D01*
X168989736Y19980233D01*
X168969312Y20037909D01*
X168986690Y20096575D01*
X169035232Y20133822D01*
X169068278Y20139500D01*
X169574722Y20139500D01*
X169632913Y20120593D01*
X169668877Y20071093D01*
X169668877Y20009907D01*
X169653264Y19980233D01*
X169575462Y19878840D01*
X169575462Y19878839D01*
X169514957Y19732767D01*
X169514955Y19732759D01*
X169494318Y19576001D01*
X169494318Y19576000D01*
X169514955Y19419242D01*
X169514957Y19419234D01*
X169575462Y19273162D01*
X169575462Y19273161D01*
X169618224Y19217433D01*
X169671718Y19147718D01*
X169671722Y19147715D01*
X169676277Y19143160D01*
X169704054Y19088643D01*
X169694483Y19028211D01*
X169651220Y18984947D01*
X169586658Y18952050D01*
X169496949Y18862341D01*
X169439354Y18749305D01*
X169424500Y18655523D01*
X169424500Y18192480D01*
X169424501Y18192477D01*
X169439352Y18098701D01*
X169439354Y18098696D01*
X169496950Y17985658D01*
X169586658Y17895950D01*
X169699696Y17838354D01*
X169793481Y17823500D01*
X170406518Y17823501D01*
X170406520Y17823501D01*
X170406521Y17823502D01*
X170453411Y17830928D01*
X170500299Y17838353D01*
X170500299Y17838354D01*
X170500304Y17838354D01*
X170613342Y17895950D01*
X170703050Y17985658D01*
X170760646Y18098696D01*
X170775500Y18192481D01*
X170775499Y18655518D01*
X170760646Y18749304D01*
X170703050Y18862342D01*
X170613342Y18952050D01*
X170611953Y18952758D01*
X170548780Y18984947D01*
X170505516Y19028212D01*
X170495945Y19088645D01*
X170523724Y19143161D01*
X170528277Y19147715D01*
X170528282Y19147718D01*
X170624536Y19273159D01*
X170685044Y19419238D01*
X170705682Y19576000D01*
X170685044Y19732762D01*
X170624537Y19878839D01*
X170624537Y19878840D01*
X170546736Y19980233D01*
X170526312Y20037909D01*
X170543690Y20096575D01*
X170592232Y20133822D01*
X170625278Y20139500D01*
X183646030Y20139500D01*
X183704221Y20120593D01*
X183724570Y20100769D01*
X183773718Y20036718D01*
X183899159Y19940464D01*
X184045238Y19879956D01*
X184162809Y19864478D01*
X184201999Y19859318D01*
X184202000Y19859318D01*
X184202001Y19859318D01*
X184233352Y19863446D01*
X184358762Y19879956D01*
X184504841Y19940464D01*
X184630282Y20036718D01*
X184726536Y20162159D01*
X184787044Y20308238D01*
X184807682Y20465000D01*
X184787044Y20621762D01*
X184726537Y20767839D01*
X184726537Y20767840D01*
X184630286Y20893277D01*
X184630285Y20893278D01*
X184630282Y20893282D01*
X184630277Y20893286D01*
X184630276Y20893287D01*
X184519930Y20977958D01*
X184485274Y21028382D01*
X184486875Y21089547D01*
X184524123Y21138088D01*
X184580197Y21155500D01*
X185932030Y21155500D01*
X185990221Y21136593D01*
X186010570Y21116769D01*
X186059718Y21052718D01*
X186059722Y21052715D01*
X186059723Y21052714D01*
X186063203Y21050044D01*
X186185159Y20956464D01*
X186331238Y20895956D01*
X186448809Y20880478D01*
X186487999Y20875318D01*
X186488000Y20875318D01*
X186488001Y20875318D01*
X186519352Y20879446D01*
X186644762Y20895956D01*
X186790841Y20956464D01*
X186916282Y21052718D01*
X187012536Y21178159D01*
X187073044Y21324238D01*
X187093682Y21481000D01*
X187073044Y21637762D01*
X187012537Y21783839D01*
X187012537Y21783840D01*
X186916281Y21909284D01*
X186916278Y21909286D01*
X186914746Y21910462D01*
X186913962Y21911603D01*
X186911691Y21913874D01*
X186912111Y21914295D01*
X186880093Y21960888D01*
X186881697Y22022052D01*
X186912028Y22063795D01*
X186911693Y22064130D01*
X186913811Y22066249D01*
X186914753Y22067546D01*
X186916282Y22068718D01*
X187012536Y22194159D01*
X187073044Y22340238D01*
X187093682Y22497000D01*
X187073044Y22653762D01*
X187012537Y22799839D01*
X187012537Y22799840D01*
X186916286Y22925277D01*
X186916285Y22925278D01*
X186916282Y22925282D01*
X186916277Y22925286D01*
X186916276Y22925287D01*
X186790838Y23021538D01*
X186644766Y23082043D01*
X186644758Y23082045D01*
X186488001Y23102682D01*
X186487999Y23102682D01*
X186331241Y23082045D01*
X186331233Y23082043D01*
X186185161Y23021538D01*
X186185160Y23021538D01*
X186059723Y22925287D01*
X186059714Y22925278D01*
X186010572Y22861233D01*
X185960148Y22826577D01*
X185932030Y22822500D01*
X169098970Y22822500D01*
X169040779Y22841407D01*
X169020428Y22861233D01*
X168971285Y22925278D01*
X168971282Y22925282D01*
X168971277Y22925286D01*
X168971276Y22925287D01*
X168845838Y23021538D01*
X168699766Y23082043D01*
X168699758Y23082045D01*
X168543001Y23102682D01*
X168542999Y23102682D01*
X168386241Y23082045D01*
X168386233Y23082043D01*
X168240161Y23021538D01*
X168240160Y23021538D01*
X168114723Y22925287D01*
X168114714Y22925278D01*
X168065572Y22861233D01*
X168015148Y22826577D01*
X167987030Y22822500D01*
X142085970Y22822500D01*
X142027779Y22841407D01*
X142007428Y22861233D01*
X141958285Y22925278D01*
X141958282Y22925282D01*
X141958277Y22925286D01*
X141958276Y22925287D01*
X141832838Y23021538D01*
X141686766Y23082043D01*
X141686758Y23082045D01*
X141530001Y23102682D01*
X141529999Y23102682D01*
X141373241Y23082045D01*
X141373233Y23082043D01*
X141227161Y23021538D01*
X141227160Y23021538D01*
X141101723Y22925287D01*
X141101714Y22925278D01*
X141052572Y22861233D01*
X141002148Y22826577D01*
X140974030Y22822500D01*
X97127970Y22822500D01*
X97069779Y22841407D01*
X97049428Y22861233D01*
X97000285Y22925278D01*
X97000282Y22925282D01*
X97000277Y22925286D01*
X97000276Y22925287D01*
X96874838Y23021538D01*
X96728766Y23082043D01*
X96728758Y23082045D01*
X96572001Y23102682D01*
X96571999Y23102682D01*
X96415241Y23082045D01*
X96415233Y23082043D01*
X96269161Y23021538D01*
X96269160Y23021538D01*
X96143723Y22925287D01*
X96143714Y22925278D01*
X96094572Y22861233D01*
X96044148Y22826577D01*
X96016030Y22822500D01*
X52169970Y22822500D01*
X52111779Y22841407D01*
X52091428Y22861233D01*
X52042285Y22925278D01*
X52042282Y22925282D01*
X52042277Y22925286D01*
X52042276Y22925287D01*
X51916838Y23021538D01*
X51770766Y23082043D01*
X51770758Y23082045D01*
X51614001Y23102682D01*
X51613999Y23102682D01*
X51457241Y23082045D01*
X51457233Y23082043D01*
X51311161Y23021538D01*
X51311160Y23021538D01*
X51185723Y22925287D01*
X51185714Y22925278D01*
X51136572Y22861233D01*
X51086148Y22826577D01*
X51058030Y22822500D01*
X6957970Y22822500D01*
X6899779Y22841407D01*
X6879428Y22861233D01*
X6830285Y22925278D01*
X6830282Y22925282D01*
X6830277Y22925286D01*
X6830276Y22925287D01*
X6704838Y23021538D01*
X6558766Y23082043D01*
X6558758Y23082045D01*
X6402001Y23102682D01*
X6401999Y23102682D01*
X6245241Y23082045D01*
X6245233Y23082043D01*
X6099161Y23021538D01*
X6099160Y23021538D01*
X5973723Y22925287D01*
X5973713Y22925277D01*
X5877462Y22799840D01*
X5877462Y22799839D01*
X5816957Y22653767D01*
X5816955Y22653759D01*
X5796318Y22497001D01*
X5796318Y22497000D01*
X5816955Y22340242D01*
X5816957Y22340234D01*
X5877462Y22194162D01*
X5877462Y22194161D01*
X5973713Y22068724D01*
X5973718Y22068718D01*
X5973721Y22068716D01*
X5973723Y22068714D01*
X6099157Y21972465D01*
X6099158Y21972465D01*
X6099159Y21972464D01*
X6114301Y21966192D01*
X6160827Y21926458D01*
X6175112Y21866963D01*
X6154960Y21814462D01*
X6131462Y21783839D01*
X6070957Y21637767D01*
X6070955Y21637759D01*
X6050318Y21481001D01*
X6050318Y21481000D01*
X6070955Y21324242D01*
X6070957Y21324234D01*
X6131462Y21178162D01*
X6131462Y21178161D01*
X6227713Y21052724D01*
X6227718Y21052718D01*
X6227722Y21052715D01*
X6227723Y21052714D01*
X6338070Y20968042D01*
X6372726Y20917618D01*
X6371125Y20856453D01*
X6333877Y20807912D01*
X6277803Y20790500D01*
X4671970Y20790500D01*
X4613779Y20809407D01*
X4593428Y20829233D01*
X4564917Y20866389D01*
X4544282Y20893282D01*
X4544277Y20893286D01*
X4544276Y20893287D01*
X4461941Y20956464D01*
X4418841Y20989536D01*
X4418840Y20989537D01*
X4418838Y20989538D01*
X4272766Y21050043D01*
X4272758Y21050045D01*
X4116001Y21070682D01*
X4115999Y21070682D01*
X3959241Y21050045D01*
X3959233Y21050043D01*
X3813161Y20989538D01*
X3813160Y20989538D01*
X3687723Y20893287D01*
X3687713Y20893277D01*
X3591462Y20767840D01*
X3591462Y20767839D01*
X3530957Y20621767D01*
X3530955Y20621759D01*
X3510318Y20465001D01*
X3510318Y20465000D01*
X300500Y20465000D01*
X300500Y25815307D01*
X319407Y25873498D01*
X368907Y25909462D01*
X430093Y25909462D01*
X479593Y25873498D01*
X494341Y25843700D01*
X575674Y25572029D01*
X714111Y25251096D01*
X888870Y24948404D01*
X1097588Y24668047D01*
X1337442Y24413817D01*
X1605189Y24189151D01*
X1897207Y23997087D01*
X2209549Y23840223D01*
X2537989Y23720681D01*
X2537992Y23720681D01*
X2537993Y23720680D01*
X2878075Y23640079D01*
X2878080Y23640079D01*
X2878086Y23640077D01*
X3225241Y23599500D01*
X3225244Y23599500D01*
X3574756Y23599500D01*
X3574759Y23599500D01*
X3921914Y23640077D01*
X3921920Y23640079D01*
X3921924Y23640079D01*
X4148645Y23693813D01*
X4262011Y23720681D01*
X4590451Y23840223D01*
X4902793Y23997087D01*
X5194811Y24189151D01*
X5462558Y24413817D01*
X5702412Y24668047D01*
X5911130Y24948404D01*
X6085889Y25251096D01*
X6224326Y25572029D01*
X6324569Y25906864D01*
X6385262Y26251073D01*
X6405585Y26600000D01*
X6385262Y26948927D01*
X6324569Y27293136D01*
X6224326Y27627971D01*
X6085889Y27948904D01*
X5911130Y28251596D01*
X5702412Y28531953D01*
X5462558Y28786183D01*
X5194811Y29010849D01*
X5100157Y29073104D01*
X4902794Y29202913D01*
X4590453Y29359776D01*
X4590452Y29359777D01*
X4590451Y29359777D01*
X4262011Y29479319D01*
X4262012Y29479319D01*
X4262006Y29479321D01*
X4157162Y29504169D01*
X4104900Y29535986D01*
X4081321Y29592445D01*
X4095432Y29651982D01*
X4141841Y29691853D01*
X4179993Y29699500D01*
X185820007Y29699500D01*
X185878198Y29680593D01*
G37*
%TD.AperFunction*%
%TD*%
M02*
