%TF.GenerationSoftware,KiCad,Pcbnew,7.0.5*%
%TF.CreationDate,2023-07-03T12:40:55+01:00*%
%TF.ProjectId,Rapid Training Target,52617069-6420-4547-9261-696e696e6720,B*%
%TF.SameCoordinates,PX2160ec0PY6146198*%
%TF.FileFunction,Paste,Bot*%
%TF.FilePolarity,Positive*%
%FSLAX46Y46*%
G04 Gerber Fmt 4.6, Leading zero omitted, Abs format (unit mm)*
G04 Created by KiCad (PCBNEW 7.0.5) date 2023-07-03 12:40:55*
%MOMM*%
%LPD*%
G01*
G04 APERTURE LIST*
G04 Aperture macros list*
%AMRoundRect*
0 Rectangle with rounded corners*
0 $1 Rounding radius*
0 $2 $3 $4 $5 $6 $7 $8 $9 X,Y pos of 4 corners*
0 Add a 4 corners polygon primitive as box body*
4,1,4,$2,$3,$4,$5,$6,$7,$8,$9,$2,$3,0*
0 Add four circle primitives for the rounded corners*
1,1,$1+$1,$2,$3*
1,1,$1+$1,$4,$5*
1,1,$1+$1,$6,$7*
1,1,$1+$1,$8,$9*
0 Add four rect primitives between the rounded corners*
20,1,$1+$1,$2,$3,$4,$5,0*
20,1,$1+$1,$4,$5,$6,$7,0*
20,1,$1+$1,$6,$7,$8,$9,0*
20,1,$1+$1,$8,$9,$2,$3,0*%
G04 Aperture macros list end*
%ADD10RoundRect,0.200000X0.200000X0.275000X-0.200000X0.275000X-0.200000X-0.275000X0.200000X-0.275000X0*%
%ADD11RoundRect,0.225000X0.225000X0.250000X-0.225000X0.250000X-0.225000X-0.250000X0.225000X-0.250000X0*%
%ADD12RoundRect,0.150000X-0.587500X-0.150000X0.587500X-0.150000X0.587500X0.150000X-0.587500X0.150000X0*%
%ADD13RoundRect,0.150000X-0.512500X-0.150000X0.512500X-0.150000X0.512500X0.150000X-0.512500X0.150000X0*%
%ADD14RoundRect,0.225000X0.250000X-0.225000X0.250000X0.225000X-0.250000X0.225000X-0.250000X-0.225000X0*%
%ADD15R,0.800000X0.400000*%
%ADD16R,0.400000X0.800000*%
%ADD17R,1.450000X1.450000*%
%ADD18R,0.700000X0.700000*%
%ADD19R,1.130000X0.280000*%
%ADD20R,1.130000X0.230000*%
%ADD21RoundRect,0.200000X-0.275000X0.200000X-0.275000X-0.200000X0.275000X-0.200000X0.275000X0.200000X0*%
G04 APERTURE END LIST*
D10*
%TO.C,R1*%
X179947000Y12124000D03*
X178297000Y12124000D03*
%TD*%
D11*
%TO.C,C2*%
X155622000Y6759500D03*
X154072000Y6759500D03*
%TD*%
D12*
%TO.C,Q2*%
X166405500Y13254500D03*
X166405500Y15154500D03*
X168280500Y14204500D03*
%TD*%
D13*
%TO.C,U2*%
X155620000Y3165500D03*
X155620000Y4115500D03*
X155620000Y5065500D03*
X157895000Y5065500D03*
X157895000Y3165500D03*
%TD*%
D12*
%TO.C,Q1*%
X162468500Y13254500D03*
X162468500Y15154500D03*
X164343500Y14204500D03*
%TD*%
D14*
%TO.C,C1*%
X159927000Y3203500D03*
X159927000Y4753500D03*
%TD*%
D12*
%TO.C,Q3*%
X170421000Y13254500D03*
X170421000Y15154500D03*
X172296000Y14204500D03*
%TD*%
D15*
%TO.C,U3*%
X161843000Y1565500D03*
X161843000Y2365500D03*
X161843000Y3165500D03*
X161843000Y3965500D03*
X161843000Y4765500D03*
X161843000Y5565500D03*
X161843000Y6365500D03*
X161843000Y7165500D03*
X161843000Y7965500D03*
X161843000Y8765500D03*
X161843000Y9565500D03*
D16*
X162943000Y10465500D03*
X163743000Y10465500D03*
X164543000Y10465500D03*
X165343000Y10465500D03*
X166143000Y10465500D03*
X166943000Y10465500D03*
X167743000Y10465500D03*
X168543000Y10465500D03*
X169343000Y10465500D03*
X170143000Y10465500D03*
X170943000Y10465500D03*
X171743000Y10465500D03*
X172543000Y10465500D03*
D15*
X173643000Y9565500D03*
X173643000Y8765500D03*
X173643000Y7965500D03*
X173643000Y7165500D03*
X173643000Y6365500D03*
X173643000Y5565500D03*
X173643000Y4765500D03*
X173643000Y3965500D03*
X173643000Y3165500D03*
X173643000Y2365500D03*
X173643000Y1565500D03*
D16*
X172543000Y665500D03*
X171743000Y665500D03*
X170943000Y665500D03*
X170143000Y665500D03*
X169343000Y665500D03*
X168543000Y665500D03*
X167743000Y665500D03*
X166943000Y665500D03*
X166143000Y665500D03*
X165343000Y665500D03*
X164543000Y665500D03*
X163743000Y665500D03*
X162943000Y665500D03*
D17*
X165768000Y7540500D03*
X165768000Y5565500D03*
X165768000Y3590500D03*
X167743000Y7540500D03*
X167743000Y5565500D03*
X167743000Y3590500D03*
X169718000Y7540500D03*
X169718000Y5565500D03*
X169718000Y3590500D03*
D18*
X173693000Y615500D03*
X173693000Y10515500D03*
X161793000Y10515500D03*
X161793000Y615500D03*
%TD*%
D19*
%TO.C,USB-C1*%
X181660000Y17199000D03*
X181660000Y16399000D03*
D20*
X181660000Y15124000D03*
X181660000Y14124000D03*
X181660000Y13624000D03*
X181660000Y12624000D03*
D19*
X181660000Y11349000D03*
X181660000Y10549000D03*
X181660000Y10799000D03*
X181660000Y11599000D03*
D20*
X181660000Y12124000D03*
X181660000Y13124000D03*
X181660000Y14624000D03*
X181660000Y15624000D03*
D19*
X181660000Y16149000D03*
X181660000Y16949000D03*
%TD*%
D21*
%TO.C,R11*%
X166405500Y18397500D03*
X166405500Y16747500D03*
%TD*%
%TO.C,R12*%
X170421000Y18397500D03*
X170421000Y16747500D03*
%TD*%
%TO.C,R10*%
X162390000Y18331500D03*
X162390000Y16681500D03*
%TD*%
D10*
%TO.C,R2*%
X179947000Y15124000D03*
X178297000Y15124000D03*
%TD*%
M02*
