%TF.GenerationSoftware,KiCad,Pcbnew,7.0.6*%
%TF.CreationDate,2023-08-30T13:03:23+01:00*%
%TF.ProjectId,Rapid Training Target,52617069-6420-4547-9261-696e696e6720,C*%
%TF.SameCoordinates,PX2160ec0PY5f5dd18*%
%TF.FileFunction,Legend,Top*%
%TF.FilePolarity,Positive*%
%FSLAX46Y46*%
G04 Gerber Fmt 4.6, Leading zero omitted, Abs format (unit mm)*
G04 Created by KiCad (PCBNEW 7.0.6) date 2023-08-30 13:03:23*
%MOMM*%
%LPD*%
G01*
G04 APERTURE LIST*
%ADD10C,0.120000*%
%ADD11C,0.150000*%
%ADD12C,0.170000*%
G04 APERTURE END LIST*
D10*
X94162286Y16773098D02*
X94162286Y17973098D01*
X94162286Y17973098D02*
X94448000Y17973098D01*
X94448000Y17973098D02*
X94619429Y17915955D01*
X94619429Y17915955D02*
X94733714Y17801669D01*
X94733714Y17801669D02*
X94790857Y17687383D01*
X94790857Y17687383D02*
X94848000Y17458812D01*
X94848000Y17458812D02*
X94848000Y17287383D01*
X94848000Y17287383D02*
X94790857Y17058812D01*
X94790857Y17058812D02*
X94733714Y16944526D01*
X94733714Y16944526D02*
X94619429Y16830240D01*
X94619429Y16830240D02*
X94448000Y16773098D01*
X94448000Y16773098D02*
X94162286Y16773098D01*
X95248000Y17973098D02*
X95990857Y17973098D01*
X95990857Y17973098D02*
X95590857Y17515955D01*
X95590857Y17515955D02*
X95762286Y17515955D01*
X95762286Y17515955D02*
X95876572Y17458812D01*
X95876572Y17458812D02*
X95933714Y17401669D01*
X95933714Y17401669D02*
X95990857Y17287383D01*
X95990857Y17287383D02*
X95990857Y17001669D01*
X95990857Y17001669D02*
X95933714Y16887383D01*
X95933714Y16887383D02*
X95876572Y16830240D01*
X95876572Y16830240D02*
X95762286Y16773098D01*
X95762286Y16773098D02*
X95419429Y16773098D01*
X95419429Y16773098D02*
X95305143Y16830240D01*
X95305143Y16830240D02*
X95248000Y16887383D01*
X138993286Y16519098D02*
X138993286Y17719098D01*
X138993286Y17719098D02*
X139279000Y17719098D01*
X139279000Y17719098D02*
X139450429Y17661955D01*
X139450429Y17661955D02*
X139564714Y17547669D01*
X139564714Y17547669D02*
X139621857Y17433383D01*
X139621857Y17433383D02*
X139679000Y17204812D01*
X139679000Y17204812D02*
X139679000Y17033383D01*
X139679000Y17033383D02*
X139621857Y16804812D01*
X139621857Y16804812D02*
X139564714Y16690526D01*
X139564714Y16690526D02*
X139450429Y16576240D01*
X139450429Y16576240D02*
X139279000Y16519098D01*
X139279000Y16519098D02*
X138993286Y16519098D01*
X140707572Y17319098D02*
X140707572Y16519098D01*
X140421857Y17776240D02*
X140136143Y16919098D01*
X140136143Y16919098D02*
X140879000Y16919098D01*
X49204286Y16138098D02*
X49204286Y17338098D01*
X49204286Y17338098D02*
X49490000Y17338098D01*
X49490000Y17338098D02*
X49661429Y17280955D01*
X49661429Y17280955D02*
X49775714Y17166669D01*
X49775714Y17166669D02*
X49832857Y17052383D01*
X49832857Y17052383D02*
X49890000Y16823812D01*
X49890000Y16823812D02*
X49890000Y16652383D01*
X49890000Y16652383D02*
X49832857Y16423812D01*
X49832857Y16423812D02*
X49775714Y16309526D01*
X49775714Y16309526D02*
X49661429Y16195240D01*
X49661429Y16195240D02*
X49490000Y16138098D01*
X49490000Y16138098D02*
X49204286Y16138098D01*
X50347143Y17223812D02*
X50404286Y17280955D01*
X50404286Y17280955D02*
X50518572Y17338098D01*
X50518572Y17338098D02*
X50804286Y17338098D01*
X50804286Y17338098D02*
X50918572Y17280955D01*
X50918572Y17280955D02*
X50975714Y17223812D01*
X50975714Y17223812D02*
X51032857Y17109526D01*
X51032857Y17109526D02*
X51032857Y16995240D01*
X51032857Y16995240D02*
X50975714Y16823812D01*
X50975714Y16823812D02*
X50290000Y16138098D01*
X50290000Y16138098D02*
X51032857Y16138098D01*
X4119286Y16600098D02*
X4119286Y17800098D01*
X4119286Y17800098D02*
X4405000Y17800098D01*
X4405000Y17800098D02*
X4576429Y17742955D01*
X4576429Y17742955D02*
X4690714Y17628669D01*
X4690714Y17628669D02*
X4747857Y17514383D01*
X4747857Y17514383D02*
X4805000Y17285812D01*
X4805000Y17285812D02*
X4805000Y17114383D01*
X4805000Y17114383D02*
X4747857Y16885812D01*
X4747857Y16885812D02*
X4690714Y16771526D01*
X4690714Y16771526D02*
X4576429Y16657240D01*
X4576429Y16657240D02*
X4405000Y16600098D01*
X4405000Y16600098D02*
X4119286Y16600098D01*
X5947857Y16600098D02*
X5262143Y16600098D01*
X5605000Y16600098D02*
X5605000Y17800098D01*
X5605000Y17800098D02*
X5490714Y17628669D01*
X5490714Y17628669D02*
X5376429Y17514383D01*
X5376429Y17514383D02*
X5262143Y17457240D01*
D11*
X49238095Y10545181D02*
X49238095Y11545181D01*
X49238095Y11068991D02*
X49809523Y11068991D01*
X49809523Y10545181D02*
X49809523Y11545181D01*
X50809523Y10545181D02*
X50238095Y10545181D01*
X50523809Y10545181D02*
X50523809Y11545181D01*
X50523809Y11545181D02*
X50428571Y11402324D01*
X50428571Y11402324D02*
X50333333Y11307086D01*
X50333333Y11307086D02*
X50238095Y11259467D01*
D10*
X184014286Y16755098D02*
X184014286Y17955098D01*
X184014286Y17955098D02*
X184300000Y17955098D01*
X184300000Y17955098D02*
X184471429Y17897955D01*
X184471429Y17897955D02*
X184585714Y17783669D01*
X184585714Y17783669D02*
X184642857Y17669383D01*
X184642857Y17669383D02*
X184700000Y17440812D01*
X184700000Y17440812D02*
X184700000Y17269383D01*
X184700000Y17269383D02*
X184642857Y17040812D01*
X184642857Y17040812D02*
X184585714Y16926526D01*
X184585714Y16926526D02*
X184471429Y16812240D01*
X184471429Y16812240D02*
X184300000Y16755098D01*
X184300000Y16755098D02*
X184014286Y16755098D01*
X185785714Y17955098D02*
X185214286Y17955098D01*
X185214286Y17955098D02*
X185157143Y17383669D01*
X185157143Y17383669D02*
X185214286Y17440812D01*
X185214286Y17440812D02*
X185328572Y17497955D01*
X185328572Y17497955D02*
X185614286Y17497955D01*
X185614286Y17497955D02*
X185728572Y17440812D01*
X185728572Y17440812D02*
X185785714Y17383669D01*
X185785714Y17383669D02*
X185842857Y17269383D01*
X185842857Y17269383D02*
X185842857Y16983669D01*
X185842857Y16983669D02*
X185785714Y16869383D01*
X185785714Y16869383D02*
X185728572Y16812240D01*
X185728572Y16812240D02*
X185614286Y16755098D01*
X185614286Y16755098D02*
X185328572Y16755098D01*
X185328572Y16755098D02*
X185214286Y16812240D01*
X185214286Y16812240D02*
X185157143Y16869383D01*
D11*
X139238095Y10545181D02*
X139238095Y11545181D01*
X139238095Y11068991D02*
X139809523Y11068991D01*
X139809523Y10545181D02*
X139809523Y11545181D01*
X140238095Y11449943D02*
X140285714Y11497562D01*
X140285714Y11497562D02*
X140380952Y11545181D01*
X140380952Y11545181D02*
X140619047Y11545181D01*
X140619047Y11545181D02*
X140714285Y11497562D01*
X140714285Y11497562D02*
X140761904Y11449943D01*
X140761904Y11449943D02*
X140809523Y11354705D01*
X140809523Y11354705D02*
X140809523Y11259467D01*
X140809523Y11259467D02*
X140761904Y11116610D01*
X140761904Y11116610D02*
X140190476Y10545181D01*
X140190476Y10545181D02*
X140809523Y10545181D01*
D10*
%TO.C,D3*%
X94290000Y20693500D02*
X95710000Y20693500D01*
X94290000Y19304500D02*
X94290000Y20693500D01*
X95710000Y20693500D02*
X95710000Y19304500D01*
X95710000Y19304500D02*
X94290000Y19304500D01*
D12*
X94085000Y20344000D02*
G75*
G03*
X94085000Y20344000I-85000J0D01*
G01*
D10*
%TO.C,D4*%
X139290000Y20693500D02*
X140710000Y20693500D01*
X139290000Y19304500D02*
X139290000Y20693500D01*
X140710000Y20693500D02*
X140710000Y19304500D01*
X140710000Y19304500D02*
X139290000Y19304500D01*
D12*
X139085000Y20344000D02*
G75*
G03*
X139085000Y20344000I-85000J0D01*
G01*
D10*
%TO.C,D2*%
X49290000Y20693500D02*
X50710000Y20693500D01*
X49290000Y19304500D02*
X49290000Y20693500D01*
X50710000Y20693500D02*
X50710000Y19304500D01*
X50710000Y19304500D02*
X49290000Y19304500D01*
D12*
X49085000Y20344000D02*
G75*
G03*
X49085000Y20344000I-85000J0D01*
G01*
D10*
%TO.C,D1*%
X4290000Y20693500D02*
X5710000Y20693500D01*
X4290000Y19304500D02*
X4290000Y20693500D01*
X5710000Y20693500D02*
X5710000Y19304500D01*
X5710000Y19304500D02*
X4290000Y19304500D01*
D12*
X4085000Y20344000D02*
G75*
G03*
X4085000Y20344000I-85000J0D01*
G01*
D10*
%TO.C,D5*%
X184290000Y20693500D02*
X185710000Y20693500D01*
X184290000Y19304500D02*
X184290000Y20693500D01*
X185710000Y20693500D02*
X185710000Y19304500D01*
X185710000Y19304500D02*
X184290000Y19304500D01*
D12*
X184085000Y20344000D02*
G75*
G03*
X184085000Y20344000I-85000J0D01*
G01*
%TD*%
M02*
