M48
; DRILL file {KiCad 7.0.5} date Mon Jul  3 12:40:52 2023
; FORMAT={-:-/ absolute / inch / decimal}
; #@! TF.CreationDate,2023-07-03T12:40:52+01:00
; #@! TF.GenerationSoftware,Kicad,Pcbnew,7.0.5
; #@! TF.FileFunction,Plated,1,2,PTH
FMAT,2
INCH
; #@! TA.AperFunction,Plated,PTH,ViaDrill
T1C0.0157
; #@! TA.AperFunction,Plated,PTH,ComponentDrill
T2C0.0315
; #@! TA.AperFunction,Plated,PTH,ComponentDrill
T3C0.1260
%
G90
G05
T1
X0.162Y0.8057
X0.252Y0.8857
X0.262Y0.8457
X1.932Y0.8057
X2.032Y0.8857
X2.032Y0.8357
X3.712Y0.8057
X3.802Y0.8857
X3.812Y0.8457
X5.482Y0.8057
X5.572Y0.8857
X5.582Y0.8457
X6.1263Y0.0761
X6.1763Y0.2661
X6.552Y0.8857
X6.552Y0.7707
X6.712Y0.8457
X6.712Y0.7707
X7.092Y0.6557
X7.092Y0.4257
X7.252Y0.8057
X7.342Y0.8857
X7.342Y0.8457
T3
X0.1969Y1.1024
X7.2835Y1.1024
T2
G00X7.2052Y0.7163
M15
G01X7.1698Y0.7163
M16
G05
G00X7.2052Y0.3761
M15
G01X7.1698Y0.3761
M16
G05
G00X7.3639Y0.7163
M15
G01X7.3402Y0.7163
M16
G05
G00X7.3639Y0.3761
M15
G01X7.3402Y0.3761
M16
G05
T0
M30
