M48
; DRILL file {KiCad 7.0.5} date Tue Jul  4 18:58:12 2023
; FORMAT={-:-/ absolute / inch / decimal}
; #@! TF.CreationDate,2023-07-04T18:58:12+01:00
; #@! TF.GenerationSoftware,Kicad,Pcbnew,7.0.5
; #@! TF.FileFunction,Plated,1,2,PTH
FMAT,2
INCH
; #@! TA.AperFunction,Plated,PTH,ViaDrill
T1C0.0157
; #@! TA.AperFunction,Plated,PTH,ComponentDrill
T2C0.0315
; #@! TA.AperFunction,Plated,PTH,ComponentDrill
T3C0.1260
%
G90
G05
T1
X0.162Y0.727
X0.252Y0.807
X0.262Y0.767
X1.932Y0.727
X2.032Y0.807
X2.032Y0.757
X3.712Y0.727
X3.802Y0.807
X3.812Y0.767
X5.482Y0.727
X5.572Y0.807
X5.582Y0.767
X6.1366Y0.0775
X6.187Y0.267
X6.6356Y0.807
X6.6356Y0.692
X6.6969Y0.767
X6.6969Y0.692
X7.252Y0.727
X7.342Y0.807
X7.342Y0.767
X7.8023Y0.5763
X7.8023Y0.3463
T3
X1.9685Y0.4331
X7.2835Y0.4331
T2
G00X7.9155Y0.637
M15
G01X7.88Y0.637
M16
G05
G00X7.9155Y0.2969
M15
G01X7.88Y0.2969
M16
G05
G00X8.0741Y0.637
M15
G01X8.0505Y0.637
M16
G05
G00X8.0741Y0.2969
M15
G01X8.0505Y0.2969
M16
G05
T0
M30
