%TF.GenerationSoftware,KiCad,Pcbnew,7.0.6*%
%TF.CreationDate,2023-07-21T16:25:11+01:00*%
%TF.ProjectId,Rapid Training Target,52617069-6420-4547-9261-696e696e6720,B*%
%TF.SameCoordinates,PX2160ec0PY5f5dd18*%
%TF.FileFunction,Copper,L2,Bot*%
%TF.FilePolarity,Positive*%
%FSLAX46Y46*%
G04 Gerber Fmt 4.6, Leading zero omitted, Abs format (unit mm)*
G04 Created by KiCad (PCBNEW 7.0.6) date 2023-07-21 16:25:11*
%MOMM*%
%LPD*%
G01*
G04 APERTURE LIST*
G04 Aperture macros list*
%AMRoundRect*
0 Rectangle with rounded corners*
0 $1 Rounding radius*
0 $2 $3 $4 $5 $6 $7 $8 $9 X,Y pos of 4 corners*
0 Add a 4 corners polygon primitive as box body*
4,1,4,$2,$3,$4,$5,$6,$7,$8,$9,$2,$3,0*
0 Add four circle primitives for the rounded corners*
1,1,$1+$1,$2,$3*
1,1,$1+$1,$4,$5*
1,1,$1+$1,$6,$7*
1,1,$1+$1,$8,$9*
0 Add four rect primitives between the rounded corners*
20,1,$1+$1,$2,$3,$4,$5,0*
20,1,$1+$1,$4,$5,$6,$7,0*
20,1,$1+$1,$6,$7,$8,$9,0*
20,1,$1+$1,$8,$9,$2,$3,0*%
G04 Aperture macros list end*
%TA.AperFunction,ComponentPad*%
%ADD10C,5.600000*%
%TD*%
%TA.AperFunction,SMDPad,CuDef*%
%ADD11RoundRect,0.200000X0.200000X0.275000X-0.200000X0.275000X-0.200000X-0.275000X0.200000X-0.275000X0*%
%TD*%
%TA.AperFunction,SMDPad,CuDef*%
%ADD12RoundRect,0.225000X-0.225000X-0.250000X0.225000X-0.250000X0.225000X0.250000X-0.225000X0.250000X0*%
%TD*%
%TA.AperFunction,SMDPad,CuDef*%
%ADD13RoundRect,0.150000X0.512500X0.150000X-0.512500X0.150000X-0.512500X-0.150000X0.512500X-0.150000X0*%
%TD*%
%TA.AperFunction,SMDPad,CuDef*%
%ADD14RoundRect,0.225000X-0.250000X0.225000X-0.250000X-0.225000X0.250000X-0.225000X0.250000X0.225000X0*%
%TD*%
%TA.AperFunction,SMDPad,CuDef*%
%ADD15R,0.800000X0.400000*%
%TD*%
%TA.AperFunction,SMDPad,CuDef*%
%ADD16R,0.400000X0.800000*%
%TD*%
%TA.AperFunction,SMDPad,CuDef*%
%ADD17R,1.450000X1.450000*%
%TD*%
%TA.AperFunction,SMDPad,CuDef*%
%ADD18R,0.700000X0.700000*%
%TD*%
%TA.AperFunction,ConnectorPad*%
%ADD19R,2.200000X1.100000*%
%TD*%
%TA.AperFunction,ComponentPad*%
%ADD20O,2.200000X1.200000*%
%TD*%
%TA.AperFunction,ConnectorPad*%
%ADD21R,2.000000X1.100000*%
%TD*%
%TA.AperFunction,ComponentPad*%
%ADD22O,2.000000X1.300000*%
%TD*%
%TA.AperFunction,SMDPad,CuDef*%
%ADD23R,1.150000X0.300000*%
%TD*%
%TA.AperFunction,SMDPad,CuDef*%
%ADD24R,1.150000X0.250000*%
%TD*%
%TA.AperFunction,SMDPad,CuDef*%
%ADD25RoundRect,0.200000X-0.275000X0.200000X-0.275000X-0.200000X0.275000X-0.200000X0.275000X0.200000X0*%
%TD*%
%TA.AperFunction,ViaPad*%
%ADD26C,0.800000*%
%TD*%
%TA.AperFunction,Conductor*%
%ADD27C,0.600000*%
%TD*%
%TA.AperFunction,Conductor*%
%ADD28C,0.250000*%
%TD*%
%TA.AperFunction,Conductor*%
%ADD29C,0.200000*%
%TD*%
G04 APERTURE END LIST*
D10*
%TO.P,H1,1*%
%TO.N,N/C*%
X50000000Y11000000D03*
%TD*%
%TO.P,H2,1*%
%TO.N,N/C*%
X140000000Y11000000D03*
%TD*%
D11*
%TO.P,R5,1*%
%TO.N,Net-(USB-C1-CC2)*%
X197988000Y10106000D03*
%TO.P,R5,2*%
%TO.N,GND*%
X196338000Y10106000D03*
%TD*%
D12*
%TO.P,C1,1*%
%TO.N,+5V*%
X197907000Y2499000D03*
%TO.P,C1,2*%
%TO.N,GND*%
X199457000Y2499000D03*
%TD*%
D13*
%TO.P,U1,1,VIN*%
%TO.N,+5V*%
X197896000Y6055000D03*
%TO.P,U1,2,GND*%
%TO.N,GND*%
X197896000Y5105000D03*
%TO.P,U1,3,EN*%
%TO.N,+5V*%
X197896000Y4155000D03*
%TO.P,U1,4,NC*%
%TO.N,unconnected-(U1-NC-Pad4)*%
X195621000Y4155000D03*
%TO.P,U1,5,VOUT*%
%TO.N,+3V3*%
X195621000Y6055000D03*
%TD*%
D14*
%TO.P,C2,1*%
%TO.N,+3V3*%
X193843000Y6068000D03*
%TO.P,C2,2*%
%TO.N,GND*%
X193843000Y4518000D03*
%TD*%
D15*
%TO.P,U2,1,GND*%
%TO.N,GND*%
X161843000Y1565500D03*
%TO.P,U2,2,GND*%
X161843000Y2365500D03*
%TO.P,U2,3,3V3*%
%TO.N,+3V3*%
X161843000Y3165500D03*
%TO.P,U2,4,NC*%
%TO.N,unconnected-(U2-NC-Pad4)*%
X161843000Y3965500D03*
%TO.P,U2,5,IO2/GPIO2/ADC1_CH2/FSPIQ*%
%TO.N,unconnected-(U2-IO2{slash}GPIO2{slash}ADC1_CH2{slash}FSPIQ-Pad5)*%
X161843000Y4765500D03*
%TO.P,U2,6,IO3/GPIO3/ADC1_CH3*%
%TO.N,unconnected-(U2-IO3{slash}GPIO3{slash}ADC1_CH3-Pad6)*%
X161843000Y5565500D03*
%TO.P,U2,7,NC*%
%TO.N,unconnected-(U2-NC-Pad7)*%
X161843000Y6365500D03*
%TO.P,U2,8,EN*%
%TO.N,+3V3*%
X161843000Y7165500D03*
%TO.P,U2,9,NC*%
%TO.N,unconnected-(U2-NC-Pad9)*%
X161843000Y7965500D03*
%TO.P,U2,10,NC*%
%TO.N,unconnected-(U2-NC-Pad10)*%
X161843000Y8765500D03*
%TO.P,U2,11,GND*%
%TO.N,GND*%
X161843000Y9565500D03*
D16*
%TO.P,U2,12,IO0/GPIO0/ADC1_CH0/XTAL_32K_P*%
%TO.N,unconnected-(U2-IO0{slash}GPIO0{slash}ADC1_CH0{slash}XTAL_32K_P-Pad12)*%
X162943000Y10465500D03*
%TO.P,U2,13,IO1/GPIO1/ADC1_CH1/XTAL_32K_N*%
%TO.N,unconnected-(U2-IO1{slash}GPIO1{slash}ADC1_CH1{slash}XTAL_32K_N-Pad13)*%
X163743000Y10465500D03*
%TO.P,U2,14,GND*%
%TO.N,GND*%
X164543000Y10465500D03*
%TO.P,U2,15,NC*%
%TO.N,unconnected-(U2-NC-Pad15)*%
X165343000Y10465500D03*
%TO.P,U2,16,IO10/GPIO10/FSPICS0*%
%TO.N,unconnected-(U2-IO10{slash}GPIO10{slash}FSPICS0-Pad16)*%
X166143000Y10465500D03*
%TO.P,U2,17,NC*%
%TO.N,unconnected-(U2-NC-Pad17)*%
X166943000Y10465500D03*
%TO.P,U2,18,IO4/GPIO4/ADC1_CH4/FSPIHD/MTMS*%
%TO.N,Green*%
X167743000Y10465500D03*
%TO.P,U2,19,IO5/GPIO5/ADC2_CH0/FSPIWP/MTDI*%
%TO.N,Red*%
X168543000Y10465500D03*
%TO.P,U2,20,IO6/GPIO6/FSPICLK/MTCK*%
%TO.N,Blue*%
X169343000Y10465500D03*
%TO.P,U2,21,IO7/GPIO7/FSPID/MTDO*%
%TO.N,unconnected-(U2-IO7{slash}GPIO7{slash}FSPID{slash}MTDO-Pad21)*%
X170143000Y10465500D03*
%TO.P,U2,22,IO8/GPIO8*%
%TO.N,unconnected-(U2-IO8{slash}GPIO8-Pad22)*%
X170943000Y10465500D03*
%TO.P,U2,23,IO9/GPIO9*%
%TO.N,unconnected-(U2-IO9{slash}GPIO9-Pad23)*%
X171743000Y10465500D03*
%TO.P,U2,24,NC*%
%TO.N,unconnected-(U2-NC-Pad24)*%
X172543000Y10465500D03*
D15*
%TO.P,U2,25,NC*%
%TO.N,unconnected-(U2-NC-Pad25)*%
X173643000Y9565500D03*
%TO.P,U2,26,IO18/GPIO18/USB_D-*%
%TO.N,USB_D-*%
X173643000Y8765500D03*
%TO.P,U2,27,IO19/GPIO19/USB_D+*%
%TO.N,USB_D+*%
X173643000Y7965500D03*
%TO.P,U2,28,NC*%
%TO.N,unconnected-(U2-NC-Pad28)*%
X173643000Y7165500D03*
%TO.P,U2,29,NC*%
%TO.N,unconnected-(U2-NC-Pad29)*%
X173643000Y6365500D03*
%TO.P,U2,30,RXD0/GPIO20/U0RXD*%
%TO.N,unconnected-(U2-RXD0{slash}GPIO20{slash}U0RXD-Pad30)*%
X173643000Y5565500D03*
%TO.P,U2,31,TXD0/GPIO21/U0TXD*%
%TO.N,unconnected-(U2-TXD0{slash}GPIO21{slash}U0TXD-Pad31)*%
X173643000Y4765500D03*
%TO.P,U2,32,NC*%
%TO.N,unconnected-(U2-NC-Pad32)*%
X173643000Y3965500D03*
%TO.P,U2,33,NC*%
%TO.N,unconnected-(U2-NC-Pad33)*%
X173643000Y3165500D03*
%TO.P,U2,34,NC*%
%TO.N,unconnected-(U2-NC-Pad34)*%
X173643000Y2365500D03*
%TO.P,U2,35,NC*%
%TO.N,unconnected-(U2-NC-Pad35)*%
X173643000Y1565500D03*
D16*
%TO.P,U2,36,GND*%
%TO.N,GND*%
X172543000Y665500D03*
%TO.P,U2,37,GND*%
X171743000Y665500D03*
%TO.P,U2,38,GND*%
X170943000Y665500D03*
%TO.P,U2,39,GND*%
X170143000Y665500D03*
%TO.P,U2,40,GND*%
X169343000Y665500D03*
%TO.P,U2,41,GND*%
X168543000Y665500D03*
%TO.P,U2,42,GND*%
X167743000Y665500D03*
%TO.P,U2,43,GND*%
X166943000Y665500D03*
%TO.P,U2,44,GND*%
X166143000Y665500D03*
%TO.P,U2,45,GND*%
X165343000Y665500D03*
%TO.P,U2,46,GND*%
X164543000Y665500D03*
%TO.P,U2,47,GND*%
X163743000Y665500D03*
%TO.P,U2,48,GND*%
X162943000Y665500D03*
D17*
%TO.P,U2,49,GND*%
X165768000Y7540500D03*
X165768000Y5565500D03*
X165768000Y3590500D03*
X167743000Y7540500D03*
X167743000Y5565500D03*
X167743000Y3590500D03*
X169718000Y7540500D03*
X169718000Y5565500D03*
X169718000Y3590500D03*
D18*
%TO.P,U2,50,GND*%
X173693000Y615500D03*
%TO.P,U2,51,GND*%
X173693000Y10515500D03*
%TO.P,U2,52,GND*%
X161793000Y10515500D03*
%TO.P,U2,53,GND*%
X161793000Y615500D03*
%TD*%
D19*
%TO.P,USB-C1,0,SHELL*%
%TO.N,GND*%
X200603000Y16788600D03*
D20*
X200603000Y16181000D03*
X200603000Y7541000D03*
D19*
X200603000Y6933400D03*
D21*
X204783000Y16788600D03*
D22*
X204783000Y16181000D03*
X204783000Y7541000D03*
D21*
X204783000Y6933400D03*
D23*
%TO.P,USB-C1,A1,GND*%
X199701000Y15186000D03*
%TO.P,USB-C1,A4,VBUS*%
%TO.N,+5V*%
X199701000Y14386000D03*
D24*
%TO.P,USB-C1,A5,CC1*%
%TO.N,Net-(USB-C1-CC1)*%
X199701000Y13111000D03*
%TO.P,USB-C1,A6,DP1*%
%TO.N,USB_D+*%
X199701000Y12111000D03*
%TO.P,USB-C1,A7,DN1*%
%TO.N,USB_D-*%
X199701000Y11611000D03*
%TO.P,USB-C1,A8,SBU1*%
%TO.N,unconnected-(USB-C1-SBU1-PadA8)*%
X199701000Y10611000D03*
D23*
%TO.P,USB-C1,A9,VBUS*%
%TO.N,+5V*%
X199701000Y9336000D03*
%TO.P,USB-C1,A12,GND*%
%TO.N,GND*%
X199701000Y8536000D03*
%TO.P,USB-C1,B1,GND*%
X199701000Y8786000D03*
%TO.P,USB-C1,B4,VBUS*%
%TO.N,+5V*%
X199701000Y9586000D03*
D24*
%TO.P,USB-C1,B5,CC2*%
%TO.N,Net-(USB-C1-CC2)*%
X199701000Y10111000D03*
%TO.P,USB-C1,B6,DP2*%
%TO.N,USB_D+*%
X199701000Y11111000D03*
%TO.P,USB-C1,B7,DN2*%
%TO.N,USB_D-*%
X199701000Y12611000D03*
%TO.P,USB-C1,B8,SBU2*%
%TO.N,unconnected-(USB-C1-SBU2-PadB8)*%
X199701000Y13611000D03*
D23*
%TO.P,USB-C1,B9,VBUS*%
%TO.N,+5V*%
X199701000Y14136000D03*
%TO.P,USB-C1,B12,GND*%
%TO.N,GND*%
X199701000Y14936000D03*
%TD*%
D25*
%TO.P,R2,1*%
%TO.N,Net-(D1-GK)*%
X168543000Y16424000D03*
%TO.P,R2,2*%
%TO.N,Red*%
X168543000Y14774000D03*
%TD*%
%TO.P,R3,1*%
%TO.N,Net-(D1-BK)*%
X170100000Y16424000D03*
%TO.P,R3,2*%
%TO.N,Blue*%
X170100000Y14774000D03*
%TD*%
%TO.P,R4,1*%
%TO.N,Net-(D1-RK)*%
X167000000Y16424000D03*
%TO.P,R4,2*%
%TO.N,Green*%
X167000000Y14774000D03*
%TD*%
D11*
%TO.P,R1,1*%
%TO.N,Net-(USB-C1-CC1)*%
X197988000Y13106000D03*
%TO.P,R1,2*%
%TO.N,GND*%
X196338000Y13106000D03*
%TD*%
D26*
%TO.N,+5V*%
X198179000Y8795000D03*
X197918000Y7311500D03*
X196637000Y2499000D03*
X198179000Y14637000D03*
%TO.N,Net-(D1-RK)*%
X4116000Y18465000D03*
X184202000Y18465000D03*
X49074000Y18465000D03*
X94286000Y18465000D03*
X139244000Y18465000D03*
%TO.N,Net-(D1-BK)*%
X141784000Y19481000D03*
X51614000Y19227000D03*
X170100000Y19481000D03*
X96826000Y19481000D03*
X6656000Y19481000D03*
X170100000Y17576000D03*
X186488000Y19481000D03*
%TO.N,Net-(D1-GK)*%
X96572000Y20497000D03*
X51614000Y20497000D03*
X141530000Y20497000D03*
X6402000Y20497000D03*
X168543000Y20497000D03*
X186488000Y20497000D03*
X168543000Y17576000D03*
%TO.N,+3V3*%
X160750000Y3199000D03*
X160650000Y7199000D03*
X194700000Y7199000D03*
%TD*%
D27*
%TO.N,+5V*%
X197907000Y6079500D02*
X197907000Y7300500D01*
D28*
X196650000Y2499000D02*
X196637000Y2499000D01*
X199701000Y9331000D02*
X198715000Y9331000D01*
X198715000Y9331000D02*
X198179000Y8795000D01*
D27*
X197907000Y2499000D02*
X196650000Y2499000D01*
X197907000Y2499000D02*
X197907000Y4191000D01*
D28*
X198435000Y14381000D02*
X198179000Y14637000D01*
X199701000Y14381000D02*
X198435000Y14381000D01*
%TO.N,Net-(D1-RK)*%
X184202000Y18465000D02*
X165000000Y18465000D01*
X139244000Y18465000D02*
X131116000Y18465000D01*
X131116000Y18465000D02*
X94286000Y18465000D01*
X165000000Y18465000D02*
X162000000Y18465000D01*
X167000000Y17149000D02*
X165684000Y18465000D01*
X160961000Y18465000D02*
X139244000Y18465000D01*
X162000000Y18465000D02*
X160961000Y18465000D01*
X49074000Y18465000D02*
X4116000Y18465000D01*
X165684000Y18465000D02*
X165000000Y18465000D01*
X94286000Y18465000D02*
X49074000Y18465000D01*
X167000000Y16424000D02*
X167000000Y17149000D01*
%TO.N,Net-(D1-BK)*%
X186488000Y19481000D02*
X170486000Y19481000D01*
X170100000Y16424000D02*
X170100000Y17576000D01*
X96826000Y19481000D02*
X51868000Y19481000D01*
X6656000Y19481000D02*
X51360000Y19481000D01*
X51868000Y19481000D02*
X51614000Y19227000D01*
X170486000Y19481000D02*
X141784000Y19481000D01*
X141784000Y19481000D02*
X96826000Y19481000D01*
X51360000Y19481000D02*
X51614000Y19227000D01*
%TO.N,Net-(D1-GK)*%
X166422000Y20497000D02*
X186488000Y20497000D01*
X96572000Y20497000D02*
X141530000Y20497000D01*
X168543000Y17576000D02*
X168543000Y16424000D01*
X141657000Y20370000D02*
X141530000Y20497000D01*
X6402000Y20497000D02*
X51614000Y20497000D01*
X51614000Y20497000D02*
X96572000Y20497000D01*
X141530000Y20497000D02*
X166422000Y20497000D01*
%TO.N,Red*%
X168543000Y14774000D02*
X168543000Y10465500D01*
%TO.N,Green*%
X167743000Y12106000D02*
X167000000Y12849000D01*
X167000000Y12849000D02*
X167000000Y14774000D01*
X167743000Y12106000D02*
X167743000Y10465500D01*
%TO.N,Blue*%
X170100000Y12849000D02*
X169343000Y12092000D01*
X170100000Y12849000D02*
X170100000Y14774000D01*
X169343000Y12092000D02*
X169343000Y10465500D01*
%TO.N,Net-(USB-C1-CC1)*%
X197988000Y13106000D02*
X199701000Y13106000D01*
D29*
%TO.N,USB_D+*%
X177100000Y5965500D02*
X175100000Y7965500D01*
X200719000Y11888000D02*
X200719000Y11324000D01*
X200719000Y11324000D02*
X200501000Y11106000D01*
X195664000Y11106000D02*
X190523500Y5965500D01*
X200501000Y12106000D02*
X200719000Y11888000D01*
X199701000Y12106000D02*
X200501000Y12106000D01*
X190523500Y5965500D02*
X177100000Y5965500D01*
X175100000Y7965500D02*
X173643000Y7965500D01*
X200501000Y11106000D02*
X195664000Y11106000D01*
%TO.N,USB_D-*%
X198687000Y11845000D02*
X198687000Y12392000D01*
X195258000Y11606000D02*
X190417500Y6765500D01*
X198783000Y11606000D02*
X195258000Y11606000D01*
X198783000Y11606000D02*
X198926000Y11606000D01*
X198788000Y11611000D02*
X198783000Y11606000D01*
X198901000Y12606000D02*
X199701000Y12606000D01*
X198926000Y11606000D02*
X198687000Y11845000D01*
X198687000Y12392000D02*
X198901000Y12606000D01*
X175800000Y8765500D02*
X177800000Y6765500D01*
X173643000Y8765500D02*
X175800000Y8765500D01*
X190417500Y6765500D02*
X177800000Y6765500D01*
X199701000Y11611000D02*
X198788000Y11611000D01*
D28*
%TO.N,Net-(USB-C1-CC2)*%
X197988000Y10106000D02*
X199701000Y10106000D01*
D27*
%TO.N,+3V3*%
X194550000Y7049000D02*
X194700000Y7199000D01*
D28*
X160683500Y7165500D02*
X160650000Y7199000D01*
D27*
X194550000Y6055000D02*
X194550000Y7049000D01*
X194550000Y6055000D02*
X193856000Y6055000D01*
D28*
X193856000Y6055000D02*
X193843000Y6068000D01*
X161843000Y7165500D02*
X160683500Y7165500D01*
X161843000Y3165500D02*
X160783500Y3165500D01*
X160783500Y3165500D02*
X160750000Y3199000D01*
D27*
X195621000Y6055000D02*
X194550000Y6055000D01*
%TD*%
%TA.AperFunction,Conductor*%
%TO.N,Net-(D1-GK)*%
G36*
X168669729Y17220573D02*
G01*
X168671425Y17218425D01*
X168937850Y16784775D01*
X168939261Y16775932D01*
X168935628Y16769882D01*
X168550747Y16429845D01*
X168542278Y16426935D01*
X168535253Y16429845D01*
X168150371Y16769882D01*
X168146440Y16777928D01*
X168148149Y16784775D01*
X168414575Y17218425D01*
X168421826Y17223680D01*
X168424544Y17224000D01*
X168661456Y17224000D01*
X168669729Y17220573D01*
G37*
%TD.AperFunction*%
%TD*%
%TA.AperFunction,Conductor*%
%TO.N,USB_D-*%
G36*
X199128382Y12731396D02*
G01*
X199648353Y12622260D01*
X199655746Y12617206D01*
X199657401Y12608406D01*
X199652347Y12601013D01*
X199648431Y12599375D01*
X199128152Y12486468D01*
X199123823Y12486349D01*
X199010852Y12504424D01*
X199003224Y12509115D01*
X199001000Y12515977D01*
X199001000Y12696476D01*
X199004427Y12704749D01*
X199010324Y12707932D01*
X199123615Y12731401D01*
X199128382Y12731396D01*
G37*
%TD.AperFunction*%
%TD*%
%TA.AperFunction,Conductor*%
%TO.N,GND*%
G36*
X204094918Y21699339D02*
G01*
X204422780Y21672749D01*
X204427920Y21672060D01*
X204752111Y21611175D01*
X204757134Y21609957D01*
X205073198Y21515514D01*
X205078081Y21513771D01*
X205382528Y21386814D01*
X205387194Y21384574D01*
X205676701Y21226490D01*
X205681115Y21223770D01*
X205952509Y21036293D01*
X205956615Y21033127D01*
X206206935Y20818299D01*
X206210687Y20814722D01*
X206338592Y20679293D01*
X206437172Y20574915D01*
X206440530Y20570964D01*
X206640708Y20308795D01*
X206643634Y20304515D01*
X206815312Y20022857D01*
X206817775Y20018295D01*
X206826600Y19999680D01*
X206959073Y19720230D01*
X206961042Y19715443D01*
X207070411Y19404242D01*
X207071871Y19399267D01*
X207148112Y19078336D01*
X207149041Y19073252D01*
X207191317Y18746106D01*
X207191711Y18740936D01*
X207199500Y18413708D01*
X207199500Y18404281D01*
X207198263Y18361005D01*
X207199091Y18354603D01*
X207199500Y18348251D01*
X207199500Y3454996D01*
X207199001Y3448228D01*
X207199500Y3398425D01*
X207199500Y3398264D01*
X207199458Y3395700D01*
X207197739Y3355762D01*
X207185650Y3074902D01*
X207185148Y3069689D01*
X207137659Y2753487D01*
X207136605Y2748343D01*
X207055910Y2438942D01*
X207054317Y2433939D01*
X206941322Y2134811D01*
X206939208Y2130004D01*
X206795192Y1844536D01*
X206792582Y1839980D01*
X206619149Y1571349D01*
X206616071Y1567095D01*
X206415179Y1318335D01*
X206411668Y1314431D01*
X206185569Y1088332D01*
X206181665Y1084821D01*
X205932905Y883929D01*
X205928651Y880851D01*
X205660020Y707418D01*
X205655464Y704808D01*
X205369996Y560792D01*
X205365189Y558678D01*
X205066061Y445683D01*
X205061058Y444090D01*
X204751657Y363395D01*
X204746513Y362341D01*
X204430311Y314852D01*
X204425098Y314350D01*
X204211243Y305145D01*
X204104300Y300542D01*
X204101736Y300500D01*
X204101575Y300500D01*
X204051774Y300999D01*
X204045005Y300500D01*
X3401290Y300500D01*
X3398705Y300568D01*
X3078606Y317344D01*
X3073451Y317885D01*
X3037928Y323512D01*
X2758137Y367827D01*
X2753074Y368903D01*
X2444704Y451530D01*
X2439773Y453133D01*
X2141747Y567535D01*
X2137011Y569643D01*
X1852556Y714579D01*
X1848066Y717172D01*
X1580330Y891043D01*
X1576150Y894080D01*
X1328053Y1094985D01*
X1324200Y1098454D01*
X1098453Y1324201D01*
X1094984Y1328054D01*
X1093839Y1329467D01*
X1080650Y1345754D01*
X173042500Y1345754D01*
X173042501Y1345742D01*
X173048730Y1314431D01*
X173054133Y1287269D01*
X173098448Y1220948D01*
X173164769Y1176633D01*
X173209231Y1167789D01*
X173223241Y1165002D01*
X173223246Y1165002D01*
X173223252Y1165000D01*
X173223253Y1165000D01*
X174062747Y1165000D01*
X174062748Y1165000D01*
X174121231Y1176633D01*
X174187552Y1220948D01*
X174231867Y1287269D01*
X174243500Y1345752D01*
X174243500Y1785248D01*
X174231867Y1843731D01*
X174187552Y1910052D01*
X174187549Y1910054D01*
X174187253Y1910497D01*
X174170644Y1969385D01*
X174187253Y2020503D01*
X174187549Y2020947D01*
X174187552Y2020948D01*
X174231867Y2087269D01*
X174243500Y2145752D01*
X174243500Y2499000D01*
X196031318Y2499000D01*
X196051955Y2342242D01*
X196051957Y2342234D01*
X196112462Y2196162D01*
X196112462Y2196161D01*
X196174073Y2115868D01*
X196208718Y2070718D01*
X196334159Y1974464D01*
X196334160Y1974464D01*
X196334161Y1974463D01*
X196480233Y1913958D01*
X196480238Y1913956D01*
X196637000Y1893318D01*
X196657400Y1896005D01*
X196670749Y1896397D01*
X196670744Y1896600D01*
X196675596Y1896728D01*
X196675606Y1896727D01*
X197114232Y1951556D01*
X197151416Y1949137D01*
X197512192Y1855366D01*
X197532233Y1847760D01*
X197548874Y1839281D01*
X197621263Y1827816D01*
X197648510Y1823500D01*
X197648512Y1823500D01*
X198165490Y1823500D01*
X198186885Y1826889D01*
X198265126Y1839281D01*
X198273866Y1843734D01*
X198286654Y1850250D01*
X198385220Y1900472D01*
X198480528Y1995780D01*
X198541719Y2115874D01*
X198557500Y2215512D01*
X198557500Y2782488D01*
X198541719Y2882126D01*
X198539311Y2889536D01*
X198539702Y2889664D01*
X198535775Y2900534D01*
X198468433Y3199001D01*
X198409928Y3458300D01*
X198407500Y3480089D01*
X198407500Y3563888D01*
X198426407Y3622079D01*
X198475907Y3658043D01*
X198492221Y3661853D01*
X198509893Y3664427D01*
X198614983Y3715802D01*
X198697698Y3798517D01*
X198749073Y3903607D01*
X198759000Y3971740D01*
X198759000Y4338260D01*
X198749073Y4406393D01*
X198697698Y4511483D01*
X198614983Y4594198D01*
X198614981Y4594199D01*
X198509895Y4645573D01*
X198482639Y4649544D01*
X198441760Y4655500D01*
X198441757Y4655500D01*
X198115801Y4655500D01*
X198087911Y4659510D01*
X198032006Y4675925D01*
X197978962Y4691500D01*
X197978961Y4691500D01*
X197835039Y4691500D01*
X197835037Y4691500D01*
X197763687Y4670550D01*
X197726088Y4659510D01*
X197698199Y4655500D01*
X197350240Y4655500D01*
X197316173Y4650537D01*
X197282104Y4645573D01*
X197177018Y4594199D01*
X197094301Y4511482D01*
X197042927Y4406396D01*
X197042927Y4406393D01*
X197033000Y4338260D01*
X197033000Y3971740D01*
X197039617Y3926318D01*
X197042927Y3903605D01*
X197091288Y3804682D01*
X197094302Y3798517D01*
X197177017Y3715802D01*
X197230785Y3689517D01*
X197282104Y3664428D01*
X197282105Y3664428D01*
X197282107Y3664427D01*
X197321775Y3658648D01*
X197376629Y3631550D01*
X197405081Y3577383D01*
X197406500Y3560683D01*
X197406500Y3480088D01*
X197404072Y3458298D01*
X197334954Y3151968D01*
X197303703Y3099366D01*
X197263288Y3077943D01*
X197151414Y3048865D01*
X197114234Y3046446D01*
X196672471Y3101666D01*
X196668281Y3102060D01*
X196666189Y3102256D01*
X196665478Y3102301D01*
X196661626Y3102544D01*
X196655132Y3102939D01*
X196655143Y3103133D01*
X196646071Y3103489D01*
X196637003Y3104682D01*
X196636998Y3104682D01*
X196480241Y3084045D01*
X196480233Y3084043D01*
X196334161Y3023538D01*
X196334160Y3023538D01*
X196208723Y2927287D01*
X196208713Y2927277D01*
X196112462Y2801840D01*
X196112462Y2801839D01*
X196051957Y2655767D01*
X196051955Y2655759D01*
X196031318Y2499001D01*
X196031318Y2499000D01*
X174243500Y2499000D01*
X174243500Y2585248D01*
X174231867Y2643731D01*
X174187552Y2710052D01*
X174187549Y2710054D01*
X174187253Y2710497D01*
X174170644Y2769385D01*
X174187253Y2820503D01*
X174187549Y2820947D01*
X174187552Y2820948D01*
X174231867Y2887269D01*
X174243500Y2945752D01*
X174243500Y3385248D01*
X174231867Y3443731D01*
X174187552Y3510052D01*
X174187549Y3510054D01*
X174187253Y3510497D01*
X174170644Y3569385D01*
X174187253Y3620503D01*
X174187549Y3620947D01*
X174187552Y3620948D01*
X174231867Y3687269D01*
X174243500Y3745752D01*
X174243500Y3971740D01*
X194758000Y3971740D01*
X194764617Y3926318D01*
X194767927Y3903605D01*
X194816288Y3804682D01*
X194819302Y3798517D01*
X194902017Y3715802D01*
X194955785Y3689517D01*
X195007104Y3664428D01*
X195007105Y3664428D01*
X195007107Y3664427D01*
X195075240Y3654500D01*
X195075243Y3654500D01*
X196166757Y3654500D01*
X196166760Y3654500D01*
X196234893Y3664427D01*
X196339983Y3715802D01*
X196422698Y3798517D01*
X196474073Y3903607D01*
X196484000Y3971740D01*
X196484000Y4338260D01*
X196474073Y4406393D01*
X196422698Y4511483D01*
X196339983Y4594198D01*
X196339981Y4594199D01*
X196234895Y4645573D01*
X196207639Y4649544D01*
X196166760Y4655500D01*
X195075240Y4655500D01*
X195041173Y4650537D01*
X195007104Y4645573D01*
X194902018Y4594199D01*
X194819301Y4511482D01*
X194767927Y4406396D01*
X194767927Y4406393D01*
X194758000Y4338260D01*
X194758000Y3971740D01*
X174243500Y3971740D01*
X174243500Y4185248D01*
X174231867Y4243731D01*
X174187552Y4310052D01*
X174187549Y4310054D01*
X174187253Y4310497D01*
X174170644Y4369385D01*
X174187253Y4420503D01*
X174187549Y4420947D01*
X174187552Y4420948D01*
X174231867Y4487269D01*
X174243500Y4545752D01*
X174243500Y4985248D01*
X174231867Y5043731D01*
X174187552Y5110052D01*
X174187549Y5110054D01*
X174187253Y5110497D01*
X174170644Y5169385D01*
X174187253Y5220503D01*
X174187549Y5220947D01*
X174187552Y5220948D01*
X174231867Y5287269D01*
X174243500Y5345752D01*
X174243500Y5785248D01*
X174231867Y5843731D01*
X174187552Y5910052D01*
X174187549Y5910054D01*
X174187253Y5910497D01*
X174170644Y5969385D01*
X174187253Y6020503D01*
X174187549Y6020947D01*
X174187552Y6020948D01*
X174231867Y6087269D01*
X174243500Y6145752D01*
X174243500Y6585248D01*
X174231867Y6643731D01*
X174187552Y6710052D01*
X174187549Y6710054D01*
X174187253Y6710497D01*
X174170644Y6769385D01*
X174187253Y6820503D01*
X174187549Y6820947D01*
X174187552Y6820948D01*
X174231867Y6887269D01*
X174243500Y6945752D01*
X174243500Y7385248D01*
X174231867Y7443731D01*
X174200855Y7490143D01*
X174184246Y7549031D01*
X174205423Y7606435D01*
X174238895Y7633692D01*
X174280609Y7654549D01*
X174324882Y7665000D01*
X174934521Y7665000D01*
X174992712Y7646093D01*
X175004525Y7636004D01*
X176841436Y5799093D01*
X176849537Y5787853D01*
X176850516Y5788591D01*
X176856044Y5781270D01*
X176891569Y5748884D01*
X176893223Y5747305D01*
X176900947Y5739582D01*
X176907203Y5733326D01*
X176910128Y5731322D01*
X176915505Y5727063D01*
X176939064Y5705586D01*
X176939065Y5705586D01*
X176939067Y5705584D01*
X176948230Y5702034D01*
X176968416Y5691395D01*
X176976519Y5685844D01*
X177007553Y5678545D01*
X177014090Y5676521D01*
X177043827Y5665000D01*
X177053652Y5665000D01*
X177076316Y5662371D01*
X177085881Y5660121D01*
X177113645Y5663994D01*
X177117453Y5664525D01*
X177124299Y5665000D01*
X190458336Y5665000D01*
X190472011Y5662768D01*
X190472183Y5663994D01*
X190481264Y5662728D01*
X190481265Y5662727D01*
X190481265Y5662728D01*
X190481266Y5662727D01*
X190490007Y5663132D01*
X190529293Y5664948D01*
X190531570Y5665000D01*
X190551341Y5665000D01*
X190551344Y5665000D01*
X190554837Y5665654D01*
X190561641Y5666444D01*
X190593492Y5667915D01*
X190602476Y5671883D01*
X190624277Y5678635D01*
X190633933Y5680439D01*
X190661043Y5697226D01*
X190667089Y5700412D01*
X190696265Y5713294D01*
X190703209Y5720240D01*
X190721101Y5734411D01*
X190729452Y5739581D01*
X190748665Y5765026D01*
X190753162Y5770192D01*
X190792481Y5809511D01*
X193167500Y5809511D01*
X193170930Y5787853D01*
X193179394Y5734413D01*
X193183281Y5709875D01*
X193183283Y5709868D01*
X193208631Y5660121D01*
X193244472Y5589780D01*
X193339780Y5494472D01*
X193339782Y5494471D01*
X193459867Y5433284D01*
X193459869Y5433284D01*
X193459874Y5433281D01*
X193535541Y5421297D01*
X193559510Y5417500D01*
X193559512Y5417500D01*
X194126491Y5417500D01*
X194201216Y5429336D01*
X194226126Y5433281D01*
X194226127Y5433282D01*
X194233536Y5435689D01*
X194233785Y5434920D01*
X194244889Y5438805D01*
X194799624Y5551724D01*
X194799625Y5551725D01*
X194803170Y5552446D01*
X194803309Y5551762D01*
X194823148Y5554500D01*
X196166757Y5554500D01*
X196166760Y5554500D01*
X196234893Y5564427D01*
X196339983Y5615802D01*
X196422698Y5698517D01*
X196474073Y5803607D01*
X196484000Y5871740D01*
X197033000Y5871740D01*
X197039618Y5826319D01*
X197042927Y5803605D01*
X197087078Y5713294D01*
X197094302Y5698517D01*
X197177017Y5615802D01*
X197230240Y5589783D01*
X197282104Y5564428D01*
X197282105Y5564428D01*
X197282107Y5564427D01*
X197350240Y5554500D01*
X197350243Y5554500D01*
X198441757Y5554500D01*
X198441760Y5554500D01*
X198509893Y5564427D01*
X198614983Y5615802D01*
X198697698Y5698517D01*
X198749073Y5803607D01*
X198759000Y5871740D01*
X198759000Y6238260D01*
X198749073Y6306393D01*
X198739249Y6326488D01*
X198723983Y6357715D01*
X198697698Y6411483D01*
X198614983Y6494198D01*
X198598952Y6502035D01*
X198509892Y6545574D01*
X198503092Y6547675D01*
X198453078Y6582920D01*
X198433331Y6640831D01*
X198434264Y6655890D01*
X198520170Y7273344D01*
X198520894Y7280254D01*
X198521252Y7285302D01*
X198521411Y7287772D01*
X198521410Y7287773D01*
X198521777Y7293463D01*
X198522034Y7293447D01*
X198522351Y7301396D01*
X198522640Y7303591D01*
X198523682Y7311500D01*
X198503044Y7468262D01*
X198466649Y7556128D01*
X198442537Y7614339D01*
X198442537Y7614340D01*
X198346286Y7739777D01*
X198346285Y7739778D01*
X198346282Y7739782D01*
X198346277Y7739786D01*
X198346276Y7739787D01*
X198220838Y7836038D01*
X198074766Y7896543D01*
X198074758Y7896545D01*
X197918001Y7917182D01*
X197917999Y7917182D01*
X197761241Y7896545D01*
X197761233Y7896543D01*
X197615161Y7836038D01*
X197615160Y7836038D01*
X197489723Y7739787D01*
X197489713Y7739777D01*
X197393462Y7614340D01*
X197393462Y7614339D01*
X197332957Y7468267D01*
X197332955Y7468259D01*
X197312318Y7311501D01*
X197312318Y7311497D01*
X197314523Y7294745D01*
X197314846Y7280618D01*
X197315150Y7280621D01*
X197315213Y7275756D01*
X197315213Y7275753D01*
X197334536Y7102539D01*
X197384222Y6657138D01*
X197371882Y6597210D01*
X197326675Y6555980D01*
X197300110Y6548197D01*
X197282106Y6545574D01*
X197177018Y6494199D01*
X197094301Y6411482D01*
X197042927Y6306396D01*
X197042927Y6306393D01*
X197033000Y6238260D01*
X197033000Y5871740D01*
X196484000Y5871740D01*
X196484000Y6238260D01*
X196474073Y6306393D01*
X196464249Y6326488D01*
X196448983Y6357715D01*
X196422698Y6411483D01*
X196339983Y6494198D01*
X196323952Y6502035D01*
X196234895Y6545573D01*
X196207639Y6549544D01*
X196166760Y6555500D01*
X196166757Y6555500D01*
X195253485Y6555500D01*
X195195294Y6574407D01*
X195159330Y6623907D01*
X195159330Y6685093D01*
X195160213Y6687685D01*
X195234385Y6896159D01*
X195259444Y6966592D01*
X195261218Y6977675D01*
X195267510Y6999909D01*
X195272903Y7012927D01*
X195285044Y7042238D01*
X195305682Y7199000D01*
X195285044Y7355762D01*
X195272831Y7385247D01*
X195224537Y7501839D01*
X195224537Y7501840D01*
X195128286Y7627277D01*
X195128285Y7627278D01*
X195128282Y7627282D01*
X195128277Y7627286D01*
X195128276Y7627287D01*
X195002838Y7723538D01*
X194856766Y7784043D01*
X194856758Y7784045D01*
X194700001Y7804682D01*
X194699999Y7804682D01*
X194543241Y7784045D01*
X194543233Y7784043D01*
X194397161Y7723538D01*
X194397160Y7723538D01*
X194271723Y7627287D01*
X194271713Y7627277D01*
X194175462Y7501840D01*
X194175462Y7501839D01*
X194114957Y7355767D01*
X194114955Y7355761D01*
X194108087Y7303591D01*
X194102692Y7281918D01*
X194087917Y7242306D01*
X194086565Y7239042D01*
X194064836Y7191460D01*
X194064834Y7191453D01*
X194063764Y7184015D01*
X194058536Y7163529D01*
X194055908Y7156483D01*
X194052176Y7104300D01*
X194051798Y7100788D01*
X194049500Y7084800D01*
X194049500Y7068653D01*
X194049374Y7065120D01*
X194045641Y7012927D01*
X194047237Y7005592D01*
X194049500Y6984544D01*
X194049500Y6817500D01*
X194030593Y6759309D01*
X193981093Y6723345D01*
X193950500Y6718500D01*
X193559510Y6718500D01*
X193459874Y6702719D01*
X193459867Y6702717D01*
X193339782Y6641530D01*
X193244470Y6546218D01*
X193183283Y6426133D01*
X193183281Y6426126D01*
X193167500Y6326490D01*
X193167500Y5809511D01*
X190792481Y5809511D01*
X195759475Y10776504D01*
X195813992Y10804281D01*
X195829479Y10805500D01*
X197407101Y10805500D01*
X197465292Y10786593D01*
X197501256Y10737093D01*
X197501256Y10675907D01*
X197477106Y10636499D01*
X197462756Y10622148D01*
X197459949Y10619341D01*
X197402354Y10506305D01*
X197387500Y10412523D01*
X197387500Y9799480D01*
X197387501Y9799477D01*
X197402352Y9705701D01*
X197402354Y9705696D01*
X197459950Y9592658D01*
X197549658Y9502950D01*
X197662696Y9445354D01*
X197747959Y9431850D01*
X197802475Y9404073D01*
X197830253Y9349556D01*
X197820682Y9289124D01*
X197792740Y9255528D01*
X197750724Y9223288D01*
X197750713Y9223277D01*
X197654462Y9097840D01*
X197654462Y9097839D01*
X197593957Y8951767D01*
X197593955Y8951759D01*
X197573318Y8795001D01*
X197573318Y8795000D01*
X197593955Y8638242D01*
X197593957Y8638234D01*
X197654462Y8492162D01*
X197654462Y8492161D01*
X197750713Y8366724D01*
X197750718Y8366718D01*
X197750722Y8366715D01*
X197750723Y8366714D01*
X197757367Y8361616D01*
X197876159Y8270464D01*
X197876160Y8270464D01*
X197876161Y8270463D01*
X197949167Y8240223D01*
X198022238Y8209956D01*
X198115530Y8197674D01*
X198178999Y8189318D01*
X198179000Y8189318D01*
X198179001Y8189318D01*
X198210352Y8193446D01*
X198335762Y8209956D01*
X198481841Y8270464D01*
X198607282Y8366718D01*
X198703536Y8492159D01*
X198727959Y8551125D01*
X198735038Y8565008D01*
X198745524Y8582099D01*
X198875601Y8934128D01*
X198913504Y8982156D01*
X198972401Y8998734D01*
X198981521Y8997947D01*
X199096565Y8982607D01*
X199136274Y8981188D01*
X199140769Y8981463D01*
X199158382Y8984269D01*
X199173952Y8985500D01*
X200295747Y8985500D01*
X200295748Y8985500D01*
X200354231Y8997133D01*
X200395002Y9024376D01*
X200453887Y9040984D01*
X200511291Y9019807D01*
X200545285Y8968934D01*
X200548771Y8935307D01*
X200548618Y8933081D01*
X200548619Y8933079D01*
X200579406Y8784921D01*
X200579406Y8784919D01*
X200579407Y8784916D01*
X200579408Y8784915D01*
X200649029Y8650553D01*
X200752320Y8539956D01*
X200881618Y8461328D01*
X201027335Y8420500D01*
X201027336Y8420500D01*
X201140652Y8420500D01*
X201140658Y8420500D01*
X201252920Y8435930D01*
X201391720Y8496220D01*
X201509108Y8591722D01*
X201596377Y8715353D01*
X201647054Y8857944D01*
X201657381Y9008921D01*
X201653953Y9025416D01*
X201626593Y9157080D01*
X201626593Y9157082D01*
X201626592Y9157084D01*
X201626592Y9157085D01*
X201556971Y9291447D01*
X201453680Y9402044D01*
X201324382Y9480672D01*
X201324381Y9480673D01*
X201324380Y9480673D01*
X201178665Y9521500D01*
X201065342Y9521500D01*
X200953079Y9506071D01*
X200814281Y9445781D01*
X200696891Y9350278D01*
X200656380Y9292886D01*
X200607375Y9256250D01*
X200546196Y9255414D01*
X200496209Y9290699D01*
X200476509Y9348626D01*
X200476500Y9349978D01*
X200476500Y9521500D01*
X200476500Y9755748D01*
X200464867Y9814231D01*
X200464864Y9814235D01*
X200461187Y9823113D01*
X200456386Y9884110D01*
X200461187Y9898887D01*
X200464863Y9907764D01*
X200464867Y9907769D01*
X200476500Y9966252D01*
X200476500Y10255748D01*
X200464867Y10314231D01*
X200464865Y10314233D01*
X200461186Y10323118D01*
X200456387Y10384114D01*
X200461188Y10398890D01*
X200464863Y10407764D01*
X200464867Y10407769D01*
X200476500Y10466252D01*
X200476500Y10709519D01*
X200495407Y10767709D01*
X200544907Y10803673D01*
X200570928Y10808413D01*
X200570992Y10808415D01*
X200579976Y10812383D01*
X200601777Y10819135D01*
X200611433Y10820939D01*
X200638543Y10837726D01*
X200644589Y10840912D01*
X200673765Y10853794D01*
X200680711Y10860741D01*
X200698598Y10874910D01*
X200706952Y10880081D01*
X200726165Y10905526D01*
X200730662Y10910692D01*
X200763704Y10943734D01*
X200885403Y11065434D01*
X200896661Y11073503D01*
X200895901Y11074510D01*
X200903222Y11080040D01*
X200903228Y11080042D01*
X200935634Y11115592D01*
X200937165Y11117196D01*
X200951175Y11131203D01*
X200953184Y11134137D01*
X200957431Y11139501D01*
X200978916Y11163067D01*
X200982465Y11172231D01*
X200993111Y11192425D01*
X200998657Y11200520D01*
X201005954Y11231553D01*
X201007979Y11238092D01*
X201019500Y11267827D01*
X201019500Y11277653D01*
X201022130Y11300322D01*
X201024379Y11309882D01*
X201019973Y11341469D01*
X201019499Y11348288D01*
X201019499Y11822824D01*
X201021743Y11836500D01*
X201020505Y11836672D01*
X201021772Y11845759D01*
X201021774Y11845764D01*
X201019552Y11893803D01*
X201019500Y11896083D01*
X201019500Y11915839D01*
X201019500Y11915844D01*
X201018845Y11919346D01*
X201018057Y11926135D01*
X201016585Y11957991D01*
X201012615Y11966981D01*
X201005865Y11988780D01*
X201004061Y11998433D01*
X200987278Y12025538D01*
X200984085Y12031594D01*
X200975090Y12051969D01*
X200971207Y12060764D01*
X200964257Y12067714D01*
X200950088Y12085604D01*
X200944920Y12093951D01*
X200944919Y12093952D01*
X200919483Y12113161D01*
X200914306Y12117666D01*
X200759565Y12272406D01*
X200751479Y12283656D01*
X200750487Y12282906D01*
X200744958Y12290228D01*
X200729351Y12304456D01*
X200709423Y12322623D01*
X200707775Y12324196D01*
X200693797Y12338174D01*
X200690859Y12340187D01*
X200685496Y12344436D01*
X200661933Y12365916D01*
X200652762Y12369469D01*
X200632586Y12380105D01*
X200624484Y12385655D01*
X200624479Y12385657D01*
X200593457Y12392954D01*
X200586902Y12394984D01*
X200548620Y12409814D01*
X200549066Y12410967D01*
X200503579Y12435757D01*
X200477326Y12491024D01*
X200476500Y12503775D01*
X200476500Y12755748D01*
X200464867Y12814231D01*
X200464864Y12814235D01*
X200461187Y12823113D01*
X200456386Y12884110D01*
X200461187Y12898887D01*
X200464863Y12907764D01*
X200464867Y12907769D01*
X200476500Y12966252D01*
X200476500Y13255748D01*
X200464867Y13314231D01*
X200464864Y13314235D01*
X200461187Y13323113D01*
X200456386Y13384110D01*
X200461187Y13398887D01*
X200464863Y13407764D01*
X200464867Y13407769D01*
X200476500Y13466252D01*
X200476500Y13755748D01*
X200464867Y13814231D01*
X200464864Y13814235D01*
X200461187Y13823113D01*
X200456386Y13884110D01*
X200461187Y13898887D01*
X200464863Y13907764D01*
X200464867Y13907769D01*
X200476500Y13966252D01*
X200476500Y14305748D01*
X200476500Y14364240D01*
X200495407Y14422431D01*
X200544907Y14458395D01*
X200606093Y14458395D01*
X200647853Y14431813D01*
X200649028Y14430555D01*
X200649029Y14430553D01*
X200752320Y14319956D01*
X200881618Y14241328D01*
X201027335Y14200500D01*
X201027336Y14200500D01*
X201140652Y14200500D01*
X201140658Y14200500D01*
X201252920Y14215930D01*
X201391720Y14276220D01*
X201509108Y14371722D01*
X201596377Y14495353D01*
X201647054Y14637944D01*
X201657381Y14788921D01*
X201641767Y14864057D01*
X201626593Y14937080D01*
X201626593Y14937082D01*
X201626592Y14937084D01*
X201626592Y14937085D01*
X201556971Y15071447D01*
X201453680Y15182044D01*
X201324382Y15260672D01*
X201324381Y15260673D01*
X201324380Y15260673D01*
X201178665Y15301500D01*
X201065342Y15301500D01*
X200953079Y15286071D01*
X200814281Y15225781D01*
X200696889Y15130276D01*
X200609623Y15006648D01*
X200558945Y14864057D01*
X200558945Y14864056D01*
X200552557Y14770655D01*
X200529723Y14713890D01*
X200477884Y14681388D01*
X200416841Y14685564D01*
X200398786Y14695096D01*
X200354233Y14724866D01*
X200354231Y14724867D01*
X200354228Y14724868D01*
X200354227Y14724868D01*
X200295758Y14736499D01*
X200295748Y14736500D01*
X200295747Y14736500D01*
X199141533Y14736500D01*
X199137049Y14736703D01*
X199136255Y14736776D01*
X199131384Y14736962D01*
X199131383Y14736962D01*
X199126150Y14736611D01*
X199122841Y14736500D01*
X199106250Y14736500D01*
X199100143Y14735287D01*
X199093808Y14734448D01*
X199088410Y14734086D01*
X199013716Y14721121D01*
X198953149Y14729799D01*
X198927130Y14748315D01*
X198614694Y15057691D01*
X198610484Y15061860D01*
X198608858Y15063705D01*
X198607285Y15065278D01*
X198607282Y15065282D01*
X198481841Y15161536D01*
X198481840Y15161537D01*
X198481838Y15161538D01*
X198335766Y15222043D01*
X198335758Y15222045D01*
X198179001Y15242682D01*
X198178999Y15242682D01*
X198022241Y15222045D01*
X198022233Y15222043D01*
X197876161Y15161538D01*
X197876160Y15161538D01*
X197750723Y15065287D01*
X197750713Y15065277D01*
X197654462Y14939840D01*
X197654462Y14939839D01*
X197593957Y14793767D01*
X197593955Y14793759D01*
X197573318Y14637001D01*
X197573318Y14637000D01*
X197593955Y14480242D01*
X197593957Y14480234D01*
X197654462Y14334162D01*
X197654462Y14334161D01*
X197745184Y14215930D01*
X197750718Y14208718D01*
X197750722Y14208715D01*
X197750723Y14208714D01*
X197761428Y14200500D01*
X197876159Y14112464D01*
X198022238Y14051956D01*
X198179000Y14031318D01*
X198179000Y14031319D01*
X198179001Y14031318D01*
X198182129Y14031318D01*
X198191694Y14031604D01*
X198191690Y14031769D01*
X198221191Y14032569D01*
X198825117Y14048943D01*
X198883794Y14031620D01*
X198921087Y13983113D01*
X198924893Y13969296D01*
X198937132Y13907770D01*
X198940814Y13898881D01*
X198945611Y13837884D01*
X198940814Y13823119D01*
X198937132Y13814231D01*
X198925501Y13755759D01*
X198925499Y13755747D01*
X198925500Y13564725D01*
X198906593Y13506534D01*
X198857093Y13470570D01*
X198795907Y13470570D01*
X198774676Y13480373D01*
X198474319Y13664905D01*
X198456140Y13679252D01*
X198456139Y13679253D01*
X198426342Y13709050D01*
X198313304Y13766646D01*
X198313305Y13766646D01*
X198219522Y13781500D01*
X197756479Y13781500D01*
X197756476Y13781499D01*
X197662700Y13766648D01*
X197662695Y13766646D01*
X197549659Y13709051D01*
X197459949Y13619341D01*
X197402354Y13506305D01*
X197387500Y13412523D01*
X197387500Y12799480D01*
X197387501Y12799477D01*
X197402352Y12705701D01*
X197402354Y12705696D01*
X197459950Y12592658D01*
X197549658Y12502950D01*
X197662696Y12445354D01*
X197756481Y12430500D01*
X198219518Y12430501D01*
X198219520Y12430501D01*
X198246278Y12434740D01*
X198272013Y12438815D01*
X198332445Y12429244D01*
X198375710Y12385979D01*
X198386500Y12341034D01*
X198386500Y12005500D01*
X198367593Y11947309D01*
X198318093Y11911345D01*
X198287500Y11906500D01*
X195323165Y11906500D01*
X195309489Y11908733D01*
X195309318Y11907506D01*
X195300234Y11908774D01*
X195259887Y11906908D01*
X195252207Y11906553D01*
X195249931Y11906500D01*
X195230153Y11906500D01*
X195226658Y11905847D01*
X195219845Y11905057D01*
X195188011Y11903586D01*
X195188007Y11903585D01*
X195179013Y11899614D01*
X195157228Y11892868D01*
X195147571Y11891063D01*
X195147565Y11891060D01*
X195120465Y11874282D01*
X195114396Y11871083D01*
X195085238Y11858208D01*
X195085231Y11858204D01*
X195078286Y11851258D01*
X195060406Y11837095D01*
X195052048Y11831920D01*
X195032839Y11806485D01*
X195028335Y11801308D01*
X190322025Y7094996D01*
X190267508Y7067219D01*
X190252021Y7066000D01*
X177965479Y7066000D01*
X177907288Y7084907D01*
X177895475Y7094996D01*
X176058565Y8931906D01*
X176050479Y8943156D01*
X176049487Y8942406D01*
X176043958Y8949728D01*
X176009447Y8981189D01*
X176008423Y8982123D01*
X176006775Y8983696D01*
X175992797Y8997674D01*
X175992403Y8997944D01*
X175989859Y8999687D01*
X175984496Y9003936D01*
X175960933Y9025416D01*
X175951762Y9028969D01*
X175931586Y9039605D01*
X175923484Y9045155D01*
X175923479Y9045157D01*
X175892457Y9052454D01*
X175885902Y9054484D01*
X175856177Y9065999D01*
X175856174Y9066000D01*
X175856173Y9066000D01*
X175856172Y9066000D01*
X175846348Y9066000D01*
X175823683Y9068630D01*
X175814119Y9070879D01*
X175814118Y9070879D01*
X175782547Y9066475D01*
X175775701Y9066000D01*
X174324883Y9066000D01*
X174280609Y9076452D01*
X174238895Y9097309D01*
X174195304Y9140244D01*
X174185274Y9200602D01*
X174200854Y9240857D01*
X174231867Y9287269D01*
X174243500Y9345752D01*
X174243500Y9785248D01*
X174231867Y9843731D01*
X174187552Y9910052D01*
X174187548Y9910055D01*
X174121233Y9954366D01*
X174121231Y9954367D01*
X174121228Y9954368D01*
X174121227Y9954368D01*
X174062758Y9965999D01*
X174062748Y9966000D01*
X173223252Y9966000D01*
X173223251Y9966000D01*
X173223241Y9965999D01*
X173164772Y9954368D01*
X173164766Y9954366D01*
X173090341Y9904635D01*
X173088807Y9906931D01*
X173047570Y9885926D01*
X173042991Y9886652D01*
X173051685Y9831819D01*
X173050999Y9827977D01*
X173042500Y9785252D01*
X173042500Y9345754D01*
X173042501Y9345742D01*
X173053764Y9289124D01*
X173054133Y9287269D01*
X173098448Y9220948D01*
X173098450Y9220947D01*
X173098746Y9220504D01*
X173115355Y9161616D01*
X173098746Y9110499D01*
X173054134Y9043734D01*
X173054132Y9043728D01*
X173042501Y8985259D01*
X173042500Y8985247D01*
X173042500Y8545754D01*
X173042501Y8545742D01*
X173054132Y8487273D01*
X173054133Y8487269D01*
X173098448Y8420948D01*
X173098450Y8420947D01*
X173098746Y8420504D01*
X173115355Y8361616D01*
X173098746Y8310499D01*
X173054134Y8243734D01*
X173054132Y8243728D01*
X173042501Y8185259D01*
X173042500Y8185247D01*
X173042500Y7745754D01*
X173042501Y7745742D01*
X173052695Y7694496D01*
X173054133Y7687269D01*
X173098448Y7620948D01*
X173098450Y7620947D01*
X173098746Y7620504D01*
X173115355Y7561616D01*
X173098746Y7510499D01*
X173054134Y7443734D01*
X173054132Y7443728D01*
X173042501Y7385259D01*
X173042500Y7385247D01*
X173042500Y6945754D01*
X173042501Y6945742D01*
X173054132Y6887273D01*
X173054133Y6887269D01*
X173098448Y6820948D01*
X173098450Y6820947D01*
X173098746Y6820504D01*
X173115355Y6761616D01*
X173098746Y6710499D01*
X173054134Y6643734D01*
X173054132Y6643728D01*
X173042501Y6585259D01*
X173042500Y6585247D01*
X173042500Y6145754D01*
X173042501Y6145742D01*
X173054132Y6087273D01*
X173054133Y6087269D01*
X173098448Y6020948D01*
X173098450Y6020947D01*
X173098746Y6020504D01*
X173115355Y5961616D01*
X173098746Y5910499D01*
X173054134Y5843734D01*
X173054132Y5843728D01*
X173042501Y5785259D01*
X173042500Y5785247D01*
X173042500Y5345754D01*
X173042501Y5345742D01*
X173054132Y5287273D01*
X173054133Y5287269D01*
X173098448Y5220948D01*
X173098450Y5220947D01*
X173098746Y5220504D01*
X173115355Y5161616D01*
X173098746Y5110499D01*
X173054134Y5043734D01*
X173054132Y5043728D01*
X173042501Y4985259D01*
X173042500Y4985247D01*
X173042500Y4545754D01*
X173042501Y4545742D01*
X173054132Y4487273D01*
X173054133Y4487269D01*
X173098448Y4420948D01*
X173098450Y4420947D01*
X173098746Y4420504D01*
X173115355Y4361616D01*
X173098746Y4310499D01*
X173054134Y4243734D01*
X173054132Y4243728D01*
X173042501Y4185259D01*
X173042500Y4185247D01*
X173042500Y3745754D01*
X173042501Y3745742D01*
X173054132Y3687273D01*
X173054133Y3687269D01*
X173098448Y3620948D01*
X173098450Y3620947D01*
X173098746Y3620504D01*
X173115355Y3561616D01*
X173098746Y3510499D01*
X173054134Y3443734D01*
X173054132Y3443728D01*
X173042501Y3385259D01*
X173042500Y3385247D01*
X173042500Y2945754D01*
X173042501Y2945742D01*
X173053682Y2889536D01*
X173054133Y2887269D01*
X173098448Y2820948D01*
X173098450Y2820947D01*
X173098746Y2820504D01*
X173115355Y2761616D01*
X173098746Y2710499D01*
X173054134Y2643734D01*
X173054132Y2643728D01*
X173042501Y2585259D01*
X173042500Y2585247D01*
X173042500Y2145754D01*
X173042501Y2145742D01*
X173048443Y2115874D01*
X173054133Y2087269D01*
X173098448Y2020948D01*
X173098450Y2020947D01*
X173098746Y2020504D01*
X173115355Y1961616D01*
X173098746Y1910499D01*
X173054134Y1843734D01*
X173054132Y1843728D01*
X173042501Y1785259D01*
X173042500Y1785247D01*
X173042500Y1345754D01*
X1080650Y1345754D01*
X894076Y1576154D01*
X891044Y1580327D01*
X717165Y1848077D01*
X714582Y1852550D01*
X569642Y2137012D01*
X567534Y2141748D01*
X453132Y2439774D01*
X451529Y2444705D01*
X436981Y2499001D01*
X368899Y2753088D01*
X367828Y2758123D01*
X317882Y3073467D01*
X317344Y3078590D01*
X300567Y3398706D01*
X300500Y3401290D01*
X300500Y7199000D01*
X160044318Y7199000D01*
X160064955Y7042242D01*
X160064957Y7042234D01*
X160125462Y6896162D01*
X160125462Y6896161D01*
X160217179Y6776633D01*
X160221718Y6770718D01*
X160221722Y6770715D01*
X160221723Y6770714D01*
X160243027Y6754367D01*
X160347159Y6674464D01*
X160347160Y6674464D01*
X160347161Y6674463D01*
X160426673Y6641528D01*
X160493238Y6613956D01*
X160606134Y6599093D01*
X160649999Y6593318D01*
X160650000Y6593318D01*
X160650001Y6593318D01*
X160693866Y6599093D01*
X160806762Y6613956D01*
X160845805Y6630130D01*
X160871643Y6636929D01*
X160877698Y6637671D01*
X161118053Y6716901D01*
X161179237Y6717160D01*
X161228889Y6681407D01*
X161248044Y6623297D01*
X161246142Y6603561D01*
X161242501Y6585259D01*
X161242500Y6585247D01*
X161242500Y6145754D01*
X161242501Y6145742D01*
X161254132Y6087273D01*
X161254134Y6087267D01*
X161298746Y6020502D01*
X161315355Y5961614D01*
X161298746Y5910498D01*
X161254134Y5843734D01*
X161254132Y5843728D01*
X161242501Y5785259D01*
X161242500Y5785247D01*
X161242500Y5345754D01*
X161242501Y5345742D01*
X161254132Y5287273D01*
X161254134Y5287267D01*
X161298746Y5220502D01*
X161315355Y5161614D01*
X161298746Y5110498D01*
X161254134Y5043734D01*
X161254132Y5043728D01*
X161242501Y4985259D01*
X161242500Y4985247D01*
X161242500Y4545754D01*
X161242501Y4545742D01*
X161254132Y4487273D01*
X161254134Y4487267D01*
X161298746Y4420502D01*
X161315355Y4361614D01*
X161298746Y4310498D01*
X161254134Y4243734D01*
X161254132Y4243728D01*
X161242501Y4185259D01*
X161242500Y4185247D01*
X161242500Y3796115D01*
X161223593Y3737924D01*
X161174093Y3701960D01*
X161112907Y3701960D01*
X161104065Y3705308D01*
X161028961Y3737924D01*
X160994589Y3752851D01*
X160993238Y3753417D01*
X160993235Y3753418D01*
X160993232Y3753419D01*
X160978120Y3756477D01*
X160959876Y3762044D01*
X160906762Y3784044D01*
X160906759Y3784045D01*
X160906761Y3784045D01*
X160750001Y3804682D01*
X160749999Y3804682D01*
X160593241Y3784045D01*
X160593233Y3784043D01*
X160447161Y3723538D01*
X160447160Y3723538D01*
X160321723Y3627287D01*
X160321713Y3627277D01*
X160225462Y3501840D01*
X160225462Y3501839D01*
X160164957Y3355767D01*
X160164955Y3355759D01*
X160144318Y3199001D01*
X160144318Y3199000D01*
X160164955Y3042242D01*
X160164957Y3042234D01*
X160225462Y2896162D01*
X160225462Y2896161D01*
X160317179Y2776633D01*
X160321718Y2770718D01*
X160321722Y2770715D01*
X160321723Y2770714D01*
X160332067Y2762777D01*
X160447159Y2674464D01*
X160447160Y2674464D01*
X160447161Y2674463D01*
X160535985Y2637671D01*
X160593238Y2613956D01*
X160710809Y2598478D01*
X160749999Y2593318D01*
X160750000Y2593318D01*
X160750001Y2593318D01*
X160789190Y2598478D01*
X160906762Y2613956D01*
X160945805Y2630130D01*
X160971643Y2636929D01*
X160977698Y2637671D01*
X161361532Y2764197D01*
X161411842Y2767270D01*
X161414303Y2766781D01*
X161423252Y2765000D01*
X161428750Y2765000D01*
X161435450Y2764545D01*
X161438009Y2764196D01*
X161452992Y2762151D01*
X161461925Y2762777D01*
X161461929Y2762779D01*
X161466718Y2763591D01*
X161466851Y2762808D01*
X161483335Y2765000D01*
X162262747Y2765000D01*
X162262748Y2765000D01*
X162321231Y2776633D01*
X162387552Y2820948D01*
X162431867Y2887269D01*
X162443500Y2945752D01*
X162443500Y3385248D01*
X162431867Y3443731D01*
X162387552Y3510052D01*
X162387549Y3510054D01*
X162387253Y3510497D01*
X162370644Y3569385D01*
X162387253Y3620503D01*
X162387549Y3620947D01*
X162387552Y3620948D01*
X162431867Y3687269D01*
X162443500Y3745752D01*
X162443500Y4185248D01*
X162431867Y4243731D01*
X162387552Y4310052D01*
X162387549Y4310054D01*
X162387253Y4310497D01*
X162370644Y4369385D01*
X162387253Y4420503D01*
X162387549Y4420947D01*
X162387552Y4420948D01*
X162431867Y4487269D01*
X162443500Y4545752D01*
X162443500Y4985248D01*
X162431867Y5043731D01*
X162387552Y5110052D01*
X162387549Y5110054D01*
X162387253Y5110497D01*
X162370644Y5169385D01*
X162387253Y5220503D01*
X162387549Y5220947D01*
X162387552Y5220948D01*
X162431867Y5287269D01*
X162443500Y5345752D01*
X162443500Y5785248D01*
X162431867Y5843731D01*
X162387552Y5910052D01*
X162387549Y5910054D01*
X162387253Y5910497D01*
X162370644Y5969385D01*
X162387253Y6020503D01*
X162387549Y6020947D01*
X162387552Y6020948D01*
X162431867Y6087269D01*
X162443500Y6145752D01*
X162443500Y6585248D01*
X162431867Y6643731D01*
X162387552Y6710052D01*
X162387549Y6710054D01*
X162387253Y6710497D01*
X162370644Y6769385D01*
X162387253Y6820503D01*
X162387549Y6820947D01*
X162387552Y6820948D01*
X162431867Y6887269D01*
X162443500Y6945752D01*
X162443500Y7385248D01*
X162431867Y7443731D01*
X162387552Y7510052D01*
X162387549Y7510054D01*
X162387253Y7510497D01*
X162370644Y7569385D01*
X162387253Y7620503D01*
X162387549Y7620947D01*
X162387552Y7620948D01*
X162431867Y7687269D01*
X162443500Y7745752D01*
X162443500Y8185248D01*
X162442690Y8189318D01*
X162440243Y8201623D01*
X162431867Y8243731D01*
X162387552Y8310052D01*
X162387549Y8310054D01*
X162387253Y8310497D01*
X162370644Y8369385D01*
X162387253Y8420503D01*
X162387549Y8420947D01*
X162387552Y8420948D01*
X162431867Y8487269D01*
X162443500Y8545752D01*
X162443500Y8985248D01*
X162443449Y8985502D01*
X162440243Y9001623D01*
X162431867Y9043731D01*
X162430915Y9045155D01*
X162387554Y9110049D01*
X162387552Y9110052D01*
X162387548Y9110055D01*
X162321233Y9154366D01*
X162321231Y9154367D01*
X162321228Y9154368D01*
X162321227Y9154368D01*
X162262758Y9165999D01*
X162262748Y9166000D01*
X161423252Y9166000D01*
X161423251Y9166000D01*
X161423241Y9165999D01*
X161364772Y9154368D01*
X161364766Y9154366D01*
X161298451Y9110055D01*
X161298445Y9110049D01*
X161254134Y9043734D01*
X161254132Y9043728D01*
X161242501Y8985259D01*
X161242500Y8985247D01*
X161242500Y8545754D01*
X161242501Y8545742D01*
X161254132Y8487273D01*
X161254134Y8487267D01*
X161298746Y8420502D01*
X161315355Y8361614D01*
X161298746Y8310498D01*
X161254134Y8243734D01*
X161254132Y8243728D01*
X161242501Y8185259D01*
X161242500Y8185247D01*
X161242500Y7752687D01*
X161223593Y7694496D01*
X161174093Y7658532D01*
X161112907Y7658532D01*
X161104071Y7661878D01*
X160894589Y7752851D01*
X160893238Y7753417D01*
X160893235Y7753418D01*
X160893232Y7753419D01*
X160878120Y7756477D01*
X160859876Y7762044D01*
X160806762Y7784044D01*
X160806759Y7784045D01*
X160806761Y7784045D01*
X160650001Y7804682D01*
X160649999Y7804682D01*
X160493241Y7784045D01*
X160493233Y7784043D01*
X160347161Y7723538D01*
X160347160Y7723538D01*
X160221723Y7627287D01*
X160221713Y7627277D01*
X160125462Y7501840D01*
X160125462Y7501839D01*
X160064957Y7355767D01*
X160064955Y7355759D01*
X160044318Y7199001D01*
X160044318Y7199000D01*
X300500Y7199000D01*
X300500Y11000000D01*
X46994415Y11000000D01*
X47014738Y10651071D01*
X47075430Y10306867D01*
X47075430Y10306866D01*
X47175672Y9972035D01*
X47175674Y9972028D01*
X47268969Y9755747D01*
X47314111Y9651096D01*
X47488870Y9348404D01*
X47697588Y9068047D01*
X47937442Y8813817D01*
X48205189Y8589151D01*
X48497207Y8397087D01*
X48809549Y8240223D01*
X49137989Y8120681D01*
X49137992Y8120681D01*
X49137993Y8120680D01*
X49478075Y8040079D01*
X49478080Y8040079D01*
X49478086Y8040077D01*
X49825241Y7999500D01*
X49825244Y7999500D01*
X50174756Y7999500D01*
X50174759Y7999500D01*
X50521914Y8040077D01*
X50521920Y8040079D01*
X50521924Y8040079D01*
X50748645Y8093814D01*
X50862011Y8120681D01*
X51190451Y8240223D01*
X51502793Y8397087D01*
X51794811Y8589151D01*
X52062558Y8813817D01*
X52302412Y9068047D01*
X52511130Y9348404D01*
X52685889Y9651096D01*
X52824326Y9972029D01*
X52924569Y10306864D01*
X52985262Y10651073D01*
X53005585Y11000000D01*
X136994415Y11000000D01*
X137014738Y10651071D01*
X137075430Y10306867D01*
X137075430Y10306866D01*
X137175672Y9972035D01*
X137175674Y9972028D01*
X137268969Y9755747D01*
X137314111Y9651096D01*
X137488870Y9348404D01*
X137697588Y9068047D01*
X137937442Y8813817D01*
X138205189Y8589151D01*
X138497207Y8397087D01*
X138809549Y8240223D01*
X139137989Y8120681D01*
X139137992Y8120681D01*
X139137993Y8120680D01*
X139478075Y8040079D01*
X139478080Y8040079D01*
X139478086Y8040077D01*
X139825241Y7999500D01*
X139825244Y7999500D01*
X140174756Y7999500D01*
X140174759Y7999500D01*
X140521914Y8040077D01*
X140521920Y8040079D01*
X140521924Y8040079D01*
X140748645Y8093814D01*
X140862011Y8120681D01*
X141190451Y8240223D01*
X141502793Y8397087D01*
X141794811Y8589151D01*
X142062558Y8813817D01*
X142302412Y9068047D01*
X142511130Y9348404D01*
X142685889Y9651096D01*
X142824326Y9972029D01*
X142846398Y10045754D01*
X162542500Y10045754D01*
X162542501Y10045742D01*
X162554132Y9987273D01*
X162554134Y9987267D01*
X162576118Y9954366D01*
X162598448Y9920948D01*
X162664769Y9876633D01*
X162709231Y9867789D01*
X162723241Y9865002D01*
X162723246Y9865002D01*
X162723252Y9865000D01*
X162723253Y9865000D01*
X163162747Y9865000D01*
X163162748Y9865000D01*
X163221231Y9876633D01*
X163287552Y9920948D01*
X163287553Y9920951D01*
X163287996Y9921246D01*
X163346883Y9937856D01*
X163398001Y9921247D01*
X163398447Y9920949D01*
X163398448Y9920948D01*
X163464769Y9876633D01*
X163509231Y9867789D01*
X163523241Y9865002D01*
X163523246Y9865002D01*
X163523252Y9865000D01*
X163523253Y9865000D01*
X163962747Y9865000D01*
X163962748Y9865000D01*
X164021231Y9876633D01*
X164087552Y9920948D01*
X164131867Y9987269D01*
X164143500Y10045752D01*
X164143500Y10045754D01*
X164942500Y10045754D01*
X164942501Y10045742D01*
X164954132Y9987273D01*
X164954134Y9987267D01*
X164976118Y9954366D01*
X164998448Y9920948D01*
X165064769Y9876633D01*
X165109231Y9867789D01*
X165123241Y9865002D01*
X165123246Y9865002D01*
X165123252Y9865000D01*
X165123253Y9865000D01*
X165562747Y9865000D01*
X165562748Y9865000D01*
X165621231Y9876633D01*
X165687552Y9920948D01*
X165687553Y9920951D01*
X165687996Y9921246D01*
X165746883Y9937856D01*
X165798001Y9921247D01*
X165798447Y9920949D01*
X165798448Y9920948D01*
X165864769Y9876633D01*
X165909231Y9867789D01*
X165923241Y9865002D01*
X165923246Y9865002D01*
X165923252Y9865000D01*
X165923253Y9865000D01*
X166362747Y9865000D01*
X166362748Y9865000D01*
X166421231Y9876633D01*
X166487552Y9920948D01*
X166487553Y9920951D01*
X166487996Y9921246D01*
X166546883Y9937856D01*
X166598001Y9921247D01*
X166598447Y9920949D01*
X166598448Y9920948D01*
X166664769Y9876633D01*
X166709231Y9867789D01*
X166723241Y9865002D01*
X166723246Y9865002D01*
X166723252Y9865000D01*
X166723253Y9865000D01*
X167162747Y9865000D01*
X167162748Y9865000D01*
X167221231Y9876633D01*
X167287552Y9920948D01*
X167287553Y9920951D01*
X167287996Y9921246D01*
X167346883Y9937856D01*
X167398001Y9921247D01*
X167398447Y9920949D01*
X167398448Y9920948D01*
X167464769Y9876633D01*
X167509231Y9867789D01*
X167523241Y9865002D01*
X167523246Y9865002D01*
X167523252Y9865000D01*
X167523253Y9865000D01*
X167962747Y9865000D01*
X167962748Y9865000D01*
X168021231Y9876633D01*
X168087552Y9920948D01*
X168087553Y9920951D01*
X168087996Y9921246D01*
X168146883Y9937856D01*
X168198001Y9921247D01*
X168198447Y9920949D01*
X168198448Y9920948D01*
X168264769Y9876633D01*
X168309231Y9867789D01*
X168323241Y9865002D01*
X168323246Y9865002D01*
X168323252Y9865000D01*
X168323253Y9865000D01*
X168762747Y9865000D01*
X168762748Y9865000D01*
X168821231Y9876633D01*
X168887552Y9920948D01*
X168887553Y9920951D01*
X168887996Y9921246D01*
X168946883Y9937856D01*
X168998001Y9921247D01*
X168998447Y9920949D01*
X168998448Y9920948D01*
X169064769Y9876633D01*
X169109231Y9867789D01*
X169123241Y9865002D01*
X169123246Y9865002D01*
X169123252Y9865000D01*
X169123253Y9865000D01*
X169562747Y9865000D01*
X169562748Y9865000D01*
X169621231Y9876633D01*
X169687552Y9920948D01*
X169687553Y9920951D01*
X169687996Y9921246D01*
X169746883Y9937856D01*
X169798001Y9921247D01*
X169798447Y9920949D01*
X169798448Y9920948D01*
X169864769Y9876633D01*
X169909231Y9867789D01*
X169923241Y9865002D01*
X169923246Y9865002D01*
X169923252Y9865000D01*
X169923253Y9865000D01*
X170362747Y9865000D01*
X170362748Y9865000D01*
X170421231Y9876633D01*
X170487552Y9920948D01*
X170487553Y9920951D01*
X170487996Y9921246D01*
X170546883Y9937856D01*
X170598001Y9921247D01*
X170598447Y9920949D01*
X170598448Y9920948D01*
X170664769Y9876633D01*
X170709231Y9867789D01*
X170723241Y9865002D01*
X170723246Y9865002D01*
X170723252Y9865000D01*
X170723253Y9865000D01*
X171162747Y9865000D01*
X171162748Y9865000D01*
X171221231Y9876633D01*
X171287552Y9920948D01*
X171287553Y9920951D01*
X171287996Y9921246D01*
X171346883Y9937856D01*
X171398001Y9921247D01*
X171398447Y9920949D01*
X171398448Y9920948D01*
X171464769Y9876633D01*
X171509231Y9867789D01*
X171523241Y9865002D01*
X171523246Y9865002D01*
X171523252Y9865000D01*
X171523253Y9865000D01*
X171962747Y9865000D01*
X171962748Y9865000D01*
X172021231Y9876633D01*
X172087552Y9920948D01*
X172087553Y9920951D01*
X172087996Y9921246D01*
X172146883Y9937856D01*
X172198001Y9921247D01*
X172198447Y9920949D01*
X172198448Y9920948D01*
X172264769Y9876633D01*
X172309231Y9867789D01*
X172323241Y9865002D01*
X172323246Y9865002D01*
X172323252Y9865000D01*
X172323253Y9865000D01*
X172762747Y9865000D01*
X172762748Y9865000D01*
X172821231Y9876633D01*
X172887552Y9920948D01*
X172887552Y9920949D01*
X172895659Y9926365D01*
X172897194Y9924068D01*
X172938399Y9945070D01*
X172943000Y9944342D01*
X172934319Y9999212D01*
X172935001Y10003026D01*
X172943499Y10045745D01*
X172943500Y10045754D01*
X172943500Y10885247D01*
X172943498Y10885259D01*
X172932989Y10938090D01*
X172931867Y10943731D01*
X172887552Y11010052D01*
X172880674Y11014648D01*
X172821233Y11054366D01*
X172821231Y11054367D01*
X172821228Y11054368D01*
X172821227Y11054368D01*
X172762758Y11065999D01*
X172762748Y11066000D01*
X172323252Y11066000D01*
X172323251Y11066000D01*
X172323241Y11065999D01*
X172264772Y11054368D01*
X172264766Y11054366D01*
X172198001Y11009754D01*
X172139112Y10993145D01*
X172087996Y11009754D01*
X172087553Y11010050D01*
X172087552Y11010052D01*
X172021231Y11054367D01*
X172021228Y11054368D01*
X172021227Y11054368D01*
X171962758Y11065999D01*
X171962748Y11066000D01*
X171523252Y11066000D01*
X171523251Y11066000D01*
X171523241Y11065999D01*
X171464772Y11054368D01*
X171464766Y11054366D01*
X171398001Y11009754D01*
X171339112Y10993145D01*
X171287996Y11009754D01*
X171287553Y11010050D01*
X171287552Y11010052D01*
X171221231Y11054367D01*
X171221228Y11054368D01*
X171221227Y11054368D01*
X171162758Y11065999D01*
X171162748Y11066000D01*
X170723252Y11066000D01*
X170723251Y11066000D01*
X170723241Y11065999D01*
X170664772Y11054368D01*
X170664766Y11054366D01*
X170598001Y11009754D01*
X170539112Y10993145D01*
X170487996Y11009754D01*
X170487553Y11010050D01*
X170487552Y11010052D01*
X170421231Y11054367D01*
X170421228Y11054368D01*
X170421227Y11054368D01*
X170362758Y11065999D01*
X170362748Y11066000D01*
X169923252Y11066000D01*
X169923251Y11066000D01*
X169923241Y11065999D01*
X169864772Y11054368D01*
X169864767Y11054366D01*
X169830181Y11031256D01*
X169771293Y11014648D01*
X169713889Y11035826D01*
X169682483Y11078812D01*
X169674803Y11099293D01*
X169668500Y11134053D01*
X169668500Y11916167D01*
X169687407Y11974358D01*
X169697490Y11986165D01*
X170318588Y12607263D01*
X170321760Y12610171D01*
X170353194Y12636545D01*
X170373714Y12672089D01*
X170376012Y12675697D01*
X170399554Y12709316D01*
X170399941Y12710764D01*
X170409838Y12734655D01*
X170410588Y12735955D01*
X170417709Y12776344D01*
X170418640Y12780548D01*
X170429264Y12820193D01*
X170425687Y12861078D01*
X170425500Y12865377D01*
X170425500Y13879797D01*
X170440147Y13931620D01*
X170658902Y14287682D01*
X170673249Y14305858D01*
X170703050Y14335658D01*
X170760646Y14448696D01*
X170775500Y14542481D01*
X170775499Y15005518D01*
X170766034Y15065285D01*
X170760647Y15099300D01*
X170760646Y15099302D01*
X170760646Y15099304D01*
X170703050Y15212342D01*
X170613342Y15302050D01*
X170500304Y15359646D01*
X170500305Y15359646D01*
X170406522Y15374500D01*
X169793479Y15374500D01*
X169793476Y15374499D01*
X169699700Y15359648D01*
X169699695Y15359646D01*
X169586659Y15302051D01*
X169496949Y15212341D01*
X169439354Y15099305D01*
X169424500Y15005523D01*
X169424500Y14542480D01*
X169424501Y14542477D01*
X169439352Y14448701D01*
X169439354Y14448697D01*
X169439354Y14448696D01*
X169496950Y14335658D01*
X169512650Y14319958D01*
X169526750Y14305858D01*
X169541097Y14287679D01*
X169594658Y14200500D01*
X169759852Y13931620D01*
X169774500Y13879797D01*
X169774500Y13024835D01*
X169755593Y12966644D01*
X169745504Y12954831D01*
X169124413Y12333741D01*
X169121228Y12330824D01*
X169089807Y12304458D01*
X169089806Y12304456D01*
X169069292Y12268925D01*
X169066979Y12265295D01*
X169052771Y12245003D01*
X169048597Y12239041D01*
X168999734Y12202217D01*
X168938557Y12201148D01*
X168888437Y12236241D01*
X168868515Y12294093D01*
X168868500Y12295823D01*
X168868500Y13879797D01*
X168883147Y13931620D01*
X169101902Y14287682D01*
X169116249Y14305858D01*
X169146050Y14335658D01*
X169203646Y14448696D01*
X169218500Y14542481D01*
X169218499Y15005518D01*
X169209034Y15065285D01*
X169203647Y15099300D01*
X169203646Y15099302D01*
X169203646Y15099304D01*
X169146050Y15212342D01*
X169056342Y15302050D01*
X168943304Y15359646D01*
X168943305Y15359646D01*
X168849522Y15374500D01*
X168236479Y15374500D01*
X168236476Y15374499D01*
X168142700Y15359648D01*
X168142695Y15359646D01*
X168029659Y15302051D01*
X167939949Y15212341D01*
X167882354Y15099306D01*
X167869280Y15016763D01*
X167841502Y14962247D01*
X167786985Y14934470D01*
X167726553Y14944042D01*
X167683289Y14987307D01*
X167673718Y15016766D01*
X167660647Y15099300D01*
X167660646Y15099302D01*
X167660646Y15099304D01*
X167603050Y15212342D01*
X167513342Y15302050D01*
X167400304Y15359646D01*
X167400305Y15359646D01*
X167306522Y15374500D01*
X166693479Y15374500D01*
X166693476Y15374499D01*
X166599700Y15359648D01*
X166599695Y15359646D01*
X166486659Y15302051D01*
X166396949Y15212341D01*
X166339354Y15099305D01*
X166324500Y15005523D01*
X166324500Y14542480D01*
X166324501Y14542477D01*
X166339352Y14448701D01*
X166339354Y14448697D01*
X166339354Y14448696D01*
X166396950Y14335658D01*
X166412650Y14319958D01*
X166426750Y14305858D01*
X166441097Y14287679D01*
X166494658Y14200500D01*
X166659852Y13931620D01*
X166674500Y13879797D01*
X166674500Y12865375D01*
X166674312Y12861073D01*
X166670736Y12820193D01*
X166676030Y12800433D01*
X166681354Y12780564D01*
X166682289Y12776348D01*
X166689411Y12735955D01*
X166690164Y12734652D01*
X166700054Y12710776D01*
X166700443Y12709321D01*
X166700445Y12709318D01*
X166700446Y12709316D01*
X166723968Y12675722D01*
X166723971Y12675719D01*
X166726288Y12672082D01*
X166738115Y12651598D01*
X166746806Y12636545D01*
X166778224Y12610182D01*
X166781410Y12607263D01*
X167388504Y12000170D01*
X167416281Y11945653D01*
X167417500Y11930166D01*
X167417500Y11134053D01*
X167411196Y11099289D01*
X167403515Y11078808D01*
X167365378Y11030962D01*
X167306401Y11014671D01*
X167255817Y11031257D01*
X167221233Y11054366D01*
X167221231Y11054367D01*
X167221228Y11054368D01*
X167221227Y11054368D01*
X167162758Y11065999D01*
X167162748Y11066000D01*
X166723252Y11066000D01*
X166723251Y11066000D01*
X166723241Y11065999D01*
X166664772Y11054368D01*
X166664766Y11054366D01*
X166598001Y11009754D01*
X166539112Y10993145D01*
X166487996Y11009754D01*
X166487553Y11010050D01*
X166487552Y11010052D01*
X166421231Y11054367D01*
X166421228Y11054368D01*
X166421227Y11054368D01*
X166362758Y11065999D01*
X166362748Y11066000D01*
X165923252Y11066000D01*
X165923251Y11066000D01*
X165923241Y11065999D01*
X165864772Y11054368D01*
X165864766Y11054366D01*
X165798001Y11009754D01*
X165739112Y10993145D01*
X165687996Y11009754D01*
X165687553Y11010050D01*
X165687552Y11010052D01*
X165621231Y11054367D01*
X165621228Y11054368D01*
X165621227Y11054368D01*
X165562758Y11065999D01*
X165562748Y11066000D01*
X165123252Y11066000D01*
X165123251Y11066000D01*
X165123241Y11065999D01*
X165064772Y11054368D01*
X165064766Y11054366D01*
X164998451Y11010055D01*
X164998445Y11010049D01*
X164954134Y10943734D01*
X164954132Y10943728D01*
X164942501Y10885259D01*
X164942500Y10885247D01*
X164942500Y10045754D01*
X164143500Y10045754D01*
X164143500Y10885248D01*
X164131867Y10943731D01*
X164087552Y11010052D01*
X164080674Y11014648D01*
X164021233Y11054366D01*
X164021231Y11054367D01*
X164021228Y11054368D01*
X164021227Y11054368D01*
X163962758Y11065999D01*
X163962748Y11066000D01*
X163523252Y11066000D01*
X163523251Y11066000D01*
X163523241Y11065999D01*
X163464772Y11054368D01*
X163464766Y11054366D01*
X163398001Y11009754D01*
X163339112Y10993145D01*
X163287996Y11009754D01*
X163287553Y11010050D01*
X163287552Y11010052D01*
X163221231Y11054367D01*
X163221228Y11054368D01*
X163221227Y11054368D01*
X163162758Y11065999D01*
X163162748Y11066000D01*
X162723252Y11066000D01*
X162723251Y11066000D01*
X162723241Y11065999D01*
X162664772Y11054368D01*
X162664766Y11054366D01*
X162598451Y11010055D01*
X162598445Y11010049D01*
X162554134Y10943734D01*
X162554132Y10943728D01*
X162542501Y10885259D01*
X162542500Y10885247D01*
X162542500Y10045754D01*
X142846398Y10045754D01*
X142924569Y10306864D01*
X142985262Y10651073D01*
X143005585Y11000000D01*
X142985262Y11348927D01*
X142924569Y11693136D01*
X142824326Y12027971D01*
X142685889Y12348904D01*
X142511130Y12651596D01*
X142302412Y12931953D01*
X142062558Y13186183D01*
X141794811Y13410849D01*
X141689105Y13480373D01*
X141502794Y13602913D01*
X141190453Y13759776D01*
X141190452Y13759777D01*
X141190451Y13759777D01*
X140862011Y13879319D01*
X140862012Y13879319D01*
X140862006Y13879321D01*
X140521924Y13959922D01*
X140409089Y13973111D01*
X140174759Y14000500D01*
X139825241Y14000500D01*
X139633950Y13978142D01*
X139478075Y13959922D01*
X139137993Y13879321D01*
X138941191Y13807691D01*
X138809549Y13759777D01*
X138809548Y13759777D01*
X138809546Y13759776D01*
X138497205Y13602913D01*
X138205190Y13410850D01*
X137937443Y13186185D01*
X137697591Y12931957D01*
X137488871Y12651598D01*
X137488869Y12651595D01*
X137314111Y12348905D01*
X137314108Y12348898D01*
X137175674Y12027973D01*
X137175672Y12027966D01*
X137075430Y11693135D01*
X137075430Y11693134D01*
X137014738Y11348930D01*
X136994415Y11000000D01*
X53005585Y11000000D01*
X52985262Y11348927D01*
X52924569Y11693136D01*
X52824326Y12027971D01*
X52685889Y12348904D01*
X52511130Y12651596D01*
X52302412Y12931953D01*
X52062558Y13186183D01*
X51794811Y13410849D01*
X51689105Y13480373D01*
X51502794Y13602913D01*
X51190453Y13759776D01*
X51190452Y13759777D01*
X51190451Y13759777D01*
X50862011Y13879319D01*
X50862012Y13879319D01*
X50862006Y13879321D01*
X50521924Y13959922D01*
X50409089Y13973111D01*
X50174759Y14000500D01*
X49825241Y14000500D01*
X49633950Y13978142D01*
X49478075Y13959922D01*
X49137993Y13879321D01*
X48941191Y13807691D01*
X48809549Y13759777D01*
X48809548Y13759777D01*
X48809546Y13759776D01*
X48497205Y13602913D01*
X48205190Y13410850D01*
X47937443Y13186185D01*
X47697591Y12931957D01*
X47488871Y12651598D01*
X47488869Y12651595D01*
X47314111Y12348905D01*
X47314108Y12348898D01*
X47175674Y12027973D01*
X47175672Y12027966D01*
X47075430Y11693135D01*
X47075430Y11693134D01*
X47014738Y11348930D01*
X46994415Y11000000D01*
X300500Y11000000D01*
X300500Y18348251D01*
X300909Y18354603D01*
X301736Y18361005D01*
X301737Y18361007D01*
X300500Y18404280D01*
X300500Y18413708D01*
X301721Y18465000D01*
X3510318Y18465000D01*
X3530955Y18308242D01*
X3530957Y18308234D01*
X3591462Y18162162D01*
X3591462Y18162161D01*
X3661341Y18071093D01*
X3687718Y18036718D01*
X3813159Y17940464D01*
X3813160Y17940464D01*
X3813161Y17940463D01*
X3959233Y17879958D01*
X3959238Y17879956D01*
X4076809Y17864478D01*
X4115999Y17859318D01*
X4116000Y17859318D01*
X4116001Y17859318D01*
X4155190Y17864478D01*
X4272762Y17879956D01*
X4272765Y17879958D01*
X4272768Y17879958D01*
X4318904Y17899069D01*
X4340529Y17905261D01*
X4352315Y17907224D01*
X4352315Y17907225D01*
X4352320Y17907225D01*
X4949849Y18133105D01*
X4984855Y18139500D01*
X48205145Y18139500D01*
X48240150Y18133105D01*
X48837679Y17907225D01*
X48850739Y17904937D01*
X48871534Y17898888D01*
X48917238Y17879956D01*
X48917237Y17879956D01*
X49073999Y17859318D01*
X49074000Y17859318D01*
X49074001Y17859318D01*
X49113190Y17864478D01*
X49230762Y17879956D01*
X49230765Y17879958D01*
X49230768Y17879958D01*
X49276904Y17899069D01*
X49298529Y17905261D01*
X49310315Y17907224D01*
X49310315Y17907225D01*
X49310320Y17907225D01*
X49907849Y18133105D01*
X49942855Y18139500D01*
X93417145Y18139500D01*
X93452150Y18133105D01*
X94049679Y17907225D01*
X94062739Y17904937D01*
X94083534Y17898888D01*
X94129238Y17879956D01*
X94129237Y17879956D01*
X94285999Y17859318D01*
X94286000Y17859318D01*
X94286001Y17859318D01*
X94325190Y17864478D01*
X94442762Y17879956D01*
X94442765Y17879958D01*
X94442768Y17879958D01*
X94488904Y17899069D01*
X94510529Y17905261D01*
X94522315Y17907224D01*
X94522315Y17907225D01*
X94522320Y17907225D01*
X95119849Y18133105D01*
X95154855Y18139500D01*
X131087525Y18139500D01*
X138375145Y18139500D01*
X138410150Y18133105D01*
X139007679Y17907225D01*
X139020739Y17904937D01*
X139041534Y17898888D01*
X139087238Y17879956D01*
X139087237Y17879956D01*
X139243999Y17859318D01*
X139244000Y17859318D01*
X139244001Y17859318D01*
X139283190Y17864478D01*
X139400762Y17879956D01*
X139400765Y17879958D01*
X139400768Y17879958D01*
X139446904Y17899069D01*
X139468529Y17905261D01*
X139480315Y17907224D01*
X139480315Y17907225D01*
X139480320Y17907225D01*
X140077849Y18133105D01*
X140112855Y18139500D01*
X160932525Y18139500D01*
X161971525Y18139500D01*
X164971525Y18139500D01*
X165508166Y18139500D01*
X165566357Y18120593D01*
X165578170Y18110504D01*
X166524890Y17163784D01*
X166552667Y17109267D01*
X166543096Y17048835D01*
X166532581Y17032424D01*
X166429421Y16901795D01*
X166429417Y16901789D01*
X166429032Y16901041D01*
X166428219Y16899930D01*
X166426849Y16897803D01*
X166426724Y16897884D01*
X166411077Y16876470D01*
X166396949Y16862342D01*
X166339353Y16749304D01*
X166324500Y16655523D01*
X166324500Y16192480D01*
X166324501Y16192477D01*
X166339352Y16098701D01*
X166339354Y16098696D01*
X166396950Y15985658D01*
X166486658Y15895950D01*
X166599696Y15838354D01*
X166693481Y15823500D01*
X167306518Y15823501D01*
X167306520Y15823501D01*
X167306521Y15823502D01*
X167353411Y15830928D01*
X167400299Y15838353D01*
X167400299Y15838354D01*
X167400304Y15838354D01*
X167513342Y15895950D01*
X167603050Y15985658D01*
X167660646Y16098696D01*
X167673719Y16181238D01*
X167701496Y16235753D01*
X167756013Y16263531D01*
X167816445Y16253960D01*
X167859710Y16210695D01*
X167869281Y16181236D01*
X167882352Y16098700D01*
X167882354Y16098696D01*
X167939950Y15985658D01*
X168029658Y15895950D01*
X168142696Y15838354D01*
X168236481Y15823500D01*
X168849518Y15823501D01*
X168849520Y15823501D01*
X168849521Y15823502D01*
X168896410Y15830928D01*
X168943299Y15838353D01*
X168943299Y15838354D01*
X168943304Y15838354D01*
X169056342Y15895950D01*
X169146050Y15985658D01*
X169203646Y16098696D01*
X169218500Y16192481D01*
X169218499Y16655518D01*
X169203646Y16749304D01*
X169146050Y16862342D01*
X169116248Y16892144D01*
X169101901Y16910323D01*
X169026152Y17033618D01*
X169011800Y17093097D01*
X169017900Y17120447D01*
X169100775Y17339680D01*
X169103063Y17352738D01*
X169109113Y17373537D01*
X169128044Y17419238D01*
X169148682Y17576000D01*
X169128044Y17732762D01*
X169067537Y17878839D01*
X169067537Y17878840D01*
X168989736Y17980233D01*
X168969312Y18037909D01*
X168986690Y18096575D01*
X169035232Y18133822D01*
X169068278Y18139500D01*
X169574722Y18139500D01*
X169632913Y18120593D01*
X169668877Y18071093D01*
X169668877Y18009907D01*
X169653264Y17980233D01*
X169575462Y17878840D01*
X169575462Y17878839D01*
X169514957Y17732767D01*
X169514955Y17732759D01*
X169494318Y17576001D01*
X169494318Y17576000D01*
X169514956Y17419238D01*
X169527970Y17387820D01*
X169534067Y17373100D01*
X169540257Y17351485D01*
X169542224Y17339679D01*
X169542224Y17339677D01*
X169625098Y17120447D01*
X169627989Y17059330D01*
X169616846Y17033617D01*
X169541093Y16910318D01*
X169526747Y16892140D01*
X169496949Y16862342D01*
X169439354Y16749305D01*
X169424500Y16655523D01*
X169424500Y16192480D01*
X169424501Y16192477D01*
X169439352Y16098701D01*
X169439354Y16098696D01*
X169496950Y15985658D01*
X169586658Y15895950D01*
X169699696Y15838354D01*
X169793481Y15823500D01*
X170406518Y15823501D01*
X170406520Y15823501D01*
X170406521Y15823502D01*
X170453411Y15830928D01*
X170500299Y15838353D01*
X170500299Y15838354D01*
X170500304Y15838354D01*
X170613342Y15895950D01*
X170703050Y15985658D01*
X170760646Y16098696D01*
X170775500Y16192481D01*
X170775499Y16655518D01*
X170760646Y16749304D01*
X170703050Y16862342D01*
X170673248Y16892144D01*
X170658901Y16910323D01*
X170583152Y17033618D01*
X170568800Y17093097D01*
X170574900Y17120447D01*
X170657775Y17339680D01*
X170660063Y17352738D01*
X170666113Y17373537D01*
X170685044Y17419238D01*
X170705682Y17576000D01*
X170685044Y17732762D01*
X170624537Y17878839D01*
X170624537Y17878840D01*
X170546736Y17980233D01*
X170526312Y18037909D01*
X170543690Y18096575D01*
X170592232Y18133822D01*
X170625278Y18139500D01*
X183333145Y18139500D01*
X183368150Y18133105D01*
X183965679Y17907225D01*
X183978739Y17904937D01*
X183999534Y17898888D01*
X184045238Y17879956D01*
X184045237Y17879956D01*
X184201999Y17859318D01*
X184202000Y17859318D01*
X184202001Y17859318D01*
X184233352Y17863446D01*
X184358762Y17879956D01*
X184504841Y17940464D01*
X184630282Y18036718D01*
X184726536Y18162159D01*
X184787044Y18308238D01*
X184807682Y18465000D01*
X184787044Y18621762D01*
X184787042Y18621767D01*
X184726537Y18767839D01*
X184726537Y18767840D01*
X184630286Y18893277D01*
X184630285Y18893278D01*
X184630282Y18893282D01*
X184630277Y18893286D01*
X184630276Y18893287D01*
X184519930Y18977958D01*
X184485274Y19028382D01*
X184486875Y19089547D01*
X184524123Y19138088D01*
X184580197Y19155500D01*
X185619145Y19155500D01*
X185654150Y19149105D01*
X186251679Y18923225D01*
X186264739Y18920937D01*
X186285534Y18914888D01*
X186331238Y18895956D01*
X186331237Y18895956D01*
X186487999Y18875318D01*
X186488000Y18875318D01*
X186488001Y18875318D01*
X186519352Y18879446D01*
X186644762Y18895956D01*
X186790841Y18956464D01*
X186916282Y19052718D01*
X187012536Y19178159D01*
X187073044Y19324238D01*
X187093682Y19481000D01*
X187073044Y19637762D01*
X187055758Y19679494D01*
X187012537Y19783839D01*
X187012537Y19783840D01*
X186916281Y19909284D01*
X186916278Y19909286D01*
X186914746Y19910462D01*
X186913962Y19911603D01*
X186911691Y19913874D01*
X186912111Y19914295D01*
X186880093Y19960888D01*
X186881697Y20022052D01*
X186912028Y20063795D01*
X186911693Y20064130D01*
X186913811Y20066249D01*
X186914753Y20067546D01*
X186916282Y20068718D01*
X187012536Y20194159D01*
X187073044Y20340238D01*
X187093682Y20497000D01*
X187073044Y20653762D01*
X187012537Y20799839D01*
X187012537Y20799840D01*
X186916286Y20925277D01*
X186916285Y20925278D01*
X186916282Y20925282D01*
X186916277Y20925286D01*
X186916276Y20925287D01*
X186790838Y21021538D01*
X186644766Y21082043D01*
X186644758Y21082045D01*
X186488001Y21102682D01*
X186487999Y21102682D01*
X186331241Y21082045D01*
X186331232Y21082043D01*
X186285096Y21062932D01*
X186263481Y21056742D01*
X186251681Y21054777D01*
X186251674Y21054775D01*
X185654148Y20828896D01*
X185619142Y20822500D01*
X169098970Y20822500D01*
X169040779Y20841407D01*
X169020428Y20861233D01*
X168971285Y20925278D01*
X168971282Y20925282D01*
X168971277Y20925286D01*
X168971276Y20925287D01*
X168845838Y21021538D01*
X168699766Y21082043D01*
X168699758Y21082045D01*
X168543001Y21102682D01*
X168542999Y21102682D01*
X168386241Y21082045D01*
X168386233Y21082043D01*
X168240161Y21021538D01*
X168240160Y21021538D01*
X168114723Y20925287D01*
X168114714Y20925278D01*
X168065572Y20861233D01*
X168015148Y20826577D01*
X167987030Y20822500D01*
X142398858Y20822500D01*
X142363852Y20828896D01*
X142278309Y20861233D01*
X141783360Y21048334D01*
X141774838Y21051556D01*
X141766317Y21054777D01*
X141766312Y21054778D01*
X141753247Y21057068D01*
X141732463Y21063115D01*
X141686762Y21082044D01*
X141686759Y21082045D01*
X141686758Y21082045D01*
X141530001Y21102682D01*
X141529999Y21102682D01*
X141373241Y21082045D01*
X141373232Y21082043D01*
X141327096Y21062932D01*
X141305481Y21056742D01*
X141293681Y21054777D01*
X141293674Y21054775D01*
X140696148Y20828896D01*
X140661142Y20822500D01*
X97440858Y20822500D01*
X97405852Y20828896D01*
X97320309Y20861233D01*
X96825360Y21048334D01*
X96816838Y21051556D01*
X96808317Y21054777D01*
X96808312Y21054778D01*
X96795247Y21057068D01*
X96774463Y21063115D01*
X96728762Y21082044D01*
X96728759Y21082045D01*
X96728758Y21082045D01*
X96572001Y21102682D01*
X96571999Y21102682D01*
X96415241Y21082045D01*
X96415232Y21082043D01*
X96369096Y21062932D01*
X96347481Y21056742D01*
X96335681Y21054777D01*
X96335674Y21054775D01*
X95738148Y20828896D01*
X95703142Y20822500D01*
X52482858Y20822500D01*
X52447852Y20828896D01*
X52362309Y20861233D01*
X51867360Y21048334D01*
X51858838Y21051556D01*
X51850317Y21054777D01*
X51850312Y21054778D01*
X51837247Y21057068D01*
X51816463Y21063115D01*
X51770762Y21082044D01*
X51770759Y21082045D01*
X51770758Y21082045D01*
X51614001Y21102682D01*
X51613999Y21102682D01*
X51457241Y21082045D01*
X51457232Y21082043D01*
X51411096Y21062932D01*
X51389481Y21056742D01*
X51377681Y21054777D01*
X51377674Y21054775D01*
X50780148Y20828896D01*
X50745142Y20822500D01*
X7270858Y20822500D01*
X7235852Y20828896D01*
X7150309Y20861233D01*
X6655360Y21048334D01*
X6646838Y21051556D01*
X6638317Y21054777D01*
X6638312Y21054778D01*
X6625247Y21057068D01*
X6604463Y21063115D01*
X6558762Y21082044D01*
X6558759Y21082045D01*
X6558758Y21082045D01*
X6402001Y21102682D01*
X6401999Y21102682D01*
X6245241Y21082045D01*
X6245233Y21082043D01*
X6099161Y21021538D01*
X6099160Y21021538D01*
X5973723Y20925287D01*
X5973713Y20925277D01*
X5877462Y20799840D01*
X5877462Y20799839D01*
X5816957Y20653767D01*
X5816955Y20653759D01*
X5796318Y20497001D01*
X5796318Y20497000D01*
X5816955Y20340242D01*
X5816957Y20340234D01*
X5877462Y20194162D01*
X5877462Y20194161D01*
X5963829Y20081605D01*
X5973718Y20068718D01*
X5973722Y20068715D01*
X5973723Y20068714D01*
X6099157Y19972465D01*
X6099158Y19972465D01*
X6099159Y19972464D01*
X6114301Y19966192D01*
X6160827Y19926458D01*
X6175112Y19866963D01*
X6154960Y19814462D01*
X6131462Y19783839D01*
X6070957Y19637767D01*
X6070955Y19637759D01*
X6050318Y19481001D01*
X6050318Y19481000D01*
X6070955Y19324242D01*
X6070957Y19324234D01*
X6131462Y19178162D01*
X6131462Y19178161D01*
X6221227Y19061177D01*
X6227718Y19052718D01*
X6227722Y19052715D01*
X6227723Y19052714D01*
X6338070Y18968042D01*
X6372726Y18917618D01*
X6371125Y18856453D01*
X6333877Y18807912D01*
X6277803Y18790500D01*
X4984858Y18790500D01*
X4949852Y18796896D01*
X4945032Y18798718D01*
X4369360Y19016334D01*
X4360838Y19019556D01*
X4352317Y19022777D01*
X4352312Y19022778D01*
X4339247Y19025068D01*
X4318463Y19031115D01*
X4272762Y19050044D01*
X4272759Y19050045D01*
X4272758Y19050045D01*
X4116001Y19070682D01*
X4115999Y19070682D01*
X3959241Y19050045D01*
X3959233Y19050043D01*
X3813161Y18989538D01*
X3813160Y18989538D01*
X3687723Y18893287D01*
X3687713Y18893277D01*
X3591462Y18767840D01*
X3591462Y18767839D01*
X3530957Y18621767D01*
X3530955Y18621759D01*
X3510318Y18465001D01*
X3510318Y18465000D01*
X301721Y18465000D01*
X308288Y18740939D01*
X308682Y18746106D01*
X350958Y19073258D01*
X351883Y19078317D01*
X428131Y19399280D01*
X429581Y19404220D01*
X538959Y19715450D01*
X540918Y19720214D01*
X682231Y20018309D01*
X684681Y20022847D01*
X856371Y20304525D01*
X859280Y20308781D01*
X1059481Y20570979D01*
X1062815Y20574903D01*
X1289322Y20814732D01*
X1293064Y20818299D01*
X1543384Y21033127D01*
X1547485Y21036290D01*
X1818884Y21223770D01*
X1823290Y21226486D01*
X2112810Y21384577D01*
X2117463Y21386811D01*
X2421922Y21513773D01*
X2426794Y21515512D01*
X2742869Y21609958D01*
X2747884Y21611174D01*
X3072081Y21672061D01*
X3077216Y21672749D01*
X3405081Y21699339D01*
X3409082Y21699500D01*
X204090918Y21699500D01*
X204094918Y21699339D01*
G37*
%TD.AperFunction*%
%TD*%
%TA.AperFunction,Conductor*%
%TO.N,Net-(D1-RK)*%
G36*
X94131294Y18830272D02*
G01*
X94137280Y18824110D01*
X94285123Y18469503D01*
X94285144Y18460549D01*
X94285123Y18460499D01*
X94137280Y18105891D01*
X94130933Y18099573D01*
X94122344Y18099449D01*
X93493563Y18337142D01*
X93487036Y18343273D01*
X93486000Y18348086D01*
X93486000Y18581915D01*
X93489427Y18590188D01*
X93493563Y18592859D01*
X94122345Y18830552D01*
X94131294Y18830272D01*
G37*
%TD.AperFunction*%
%TD*%
%TA.AperFunction,Conductor*%
%TO.N,Net-(D1-GK)*%
G36*
X96752696Y20856110D02*
G01*
X97364437Y20624859D01*
X97370964Y20618728D01*
X97372000Y20613915D01*
X97372000Y20380086D01*
X97368573Y20371813D01*
X97364437Y20369142D01*
X96735655Y20131449D01*
X96726705Y20131729D01*
X96720719Y20137891D01*
X96624306Y20369142D01*
X96572875Y20492501D01*
X96572855Y20501450D01*
X96720719Y20856111D01*
X96727066Y20862428D01*
X96735654Y20862552D01*
X96752696Y20856110D01*
G37*
%TD.AperFunction*%
%TD*%
%TA.AperFunction,Conductor*%
%TO.N,Blue*%
G36*
X169468165Y11062073D02*
G01*
X169470847Y11057908D01*
X169541211Y10870271D01*
X169540907Y10861322D01*
X169540726Y10860941D01*
X169353470Y10485493D01*
X169346711Y10479619D01*
X169337778Y10480245D01*
X169332530Y10485493D01*
X169279262Y10592295D01*
X169145272Y10860943D01*
X169144647Y10869874D01*
X169144767Y10870215D01*
X169215153Y11057909D01*
X169221267Y11064451D01*
X169226108Y11065500D01*
X169459892Y11065500D01*
X169468165Y11062073D01*
G37*
%TD.AperFunction*%
%TD*%
%TA.AperFunction,Conductor*%
%TO.N,Net-(D1-RK)*%
G36*
X94466696Y18824110D02*
G01*
X95078437Y18592859D01*
X95084964Y18586728D01*
X95086000Y18581915D01*
X95086000Y18348086D01*
X95082573Y18339813D01*
X95078437Y18337142D01*
X94449655Y18099449D01*
X94440705Y18099729D01*
X94434719Y18105891D01*
X94338306Y18337142D01*
X94286875Y18460501D01*
X94286855Y18469450D01*
X94434719Y18824111D01*
X94441066Y18830428D01*
X94449654Y18830552D01*
X94466696Y18824110D01*
G37*
%TD.AperFunction*%
%TD*%
%TA.AperFunction,Conductor*%
%TO.N,Net-(D1-BK)*%
G36*
X170280696Y19840110D02*
G01*
X170892437Y19608859D01*
X170898964Y19602728D01*
X170900000Y19597915D01*
X170900000Y19364086D01*
X170896573Y19355813D01*
X170892437Y19353142D01*
X170263655Y19115449D01*
X170254705Y19115729D01*
X170248719Y19121891D01*
X170152306Y19353142D01*
X170100875Y19476501D01*
X170100855Y19485450D01*
X170248719Y19840111D01*
X170255066Y19846428D01*
X170263654Y19846552D01*
X170280696Y19840110D01*
G37*
%TD.AperFunction*%
%TD*%
%TA.AperFunction,Conductor*%
%TO.N,Net-(D1-BK)*%
G36*
X6836696Y19840110D02*
G01*
X7448437Y19608859D01*
X7454964Y19602728D01*
X7456000Y19597915D01*
X7456000Y19364086D01*
X7452573Y19355813D01*
X7448437Y19353142D01*
X6819655Y19115449D01*
X6810705Y19115729D01*
X6804719Y19121891D01*
X6708306Y19353142D01*
X6656875Y19476501D01*
X6656855Y19485450D01*
X6804719Y19840111D01*
X6811066Y19846428D01*
X6819654Y19846552D01*
X6836696Y19840110D01*
G37*
%TD.AperFunction*%
%TD*%
%TA.AperFunction,Conductor*%
%TO.N,Net-(D1-BK)*%
G36*
X141964696Y19840110D02*
G01*
X142576437Y19608859D01*
X142582964Y19602728D01*
X142584000Y19597915D01*
X142584000Y19364086D01*
X142580573Y19355813D01*
X142576437Y19353142D01*
X141947655Y19115449D01*
X141938705Y19115729D01*
X141932719Y19121891D01*
X141836306Y19353142D01*
X141784875Y19476501D01*
X141784855Y19485450D01*
X141932719Y19840111D01*
X141939066Y19846428D01*
X141947654Y19846552D01*
X141964696Y19840110D01*
G37*
%TD.AperFunction*%
%TD*%
%TA.AperFunction,Conductor*%
%TO.N,+5V*%
G36*
X199128417Y9481425D02*
G01*
X199657868Y9347189D01*
X199665045Y9341835D01*
X199666333Y9332974D01*
X199660978Y9325796D01*
X199657941Y9324527D01*
X199128220Y9186579D01*
X199123725Y9186304D01*
X198986154Y9204647D01*
X198978406Y9209137D01*
X198976000Y9216244D01*
X198976000Y9446156D01*
X198979427Y9454429D01*
X198985697Y9457684D01*
X199123545Y9481611D01*
X199128417Y9481425D01*
G37*
%TD.AperFunction*%
%TD*%
%TA.AperFunction,Conductor*%
%TO.N,+3V3*%
G36*
X161447178Y7363408D02*
G01*
X161447524Y7363244D01*
X161609632Y7282392D01*
X161823007Y7175970D01*
X161828881Y7169211D01*
X161828255Y7160278D01*
X161823007Y7155030D01*
X161447559Y6967774D01*
X161438626Y6967148D01*
X161438229Y6967289D01*
X161250592Y7037653D01*
X161244049Y7043767D01*
X161243000Y7048608D01*
X161243000Y7282392D01*
X161246427Y7290665D01*
X161250592Y7293347D01*
X161250592Y7293348D01*
X161438231Y7363712D01*
X161447178Y7363408D01*
G37*
%TD.AperFunction*%
%TD*%
%TA.AperFunction,Conductor*%
%TO.N,Green*%
G36*
X167007747Y14768156D02*
G01*
X167392628Y14428120D01*
X167396559Y14420074D01*
X167394850Y14413227D01*
X167128425Y13979575D01*
X167121174Y13974320D01*
X167118456Y13974000D01*
X166881544Y13974000D01*
X166873271Y13977427D01*
X166871575Y13979575D01*
X166605149Y14413227D01*
X166603738Y14422070D01*
X166607369Y14428119D01*
X166992253Y14768157D01*
X167000722Y14771066D01*
X167007747Y14768156D01*
G37*
%TD.AperFunction*%
%TD*%
%TA.AperFunction,Conductor*%
%TO.N,Blue*%
G36*
X170107747Y14768156D02*
G01*
X170492628Y14428120D01*
X170496559Y14420074D01*
X170494850Y14413227D01*
X170228425Y13979575D01*
X170221174Y13974320D01*
X170218456Y13974000D01*
X169981544Y13974000D01*
X169973271Y13977427D01*
X169971575Y13979575D01*
X169705149Y14413227D01*
X169703738Y14422070D01*
X169707369Y14428119D01*
X170092253Y14768157D01*
X170100722Y14771066D01*
X170107747Y14768156D01*
G37*
%TD.AperFunction*%
%TD*%
%TA.AperFunction,Conductor*%
%TO.N,+3V3*%
G36*
X161447178Y3363408D02*
G01*
X161447524Y3363244D01*
X161609632Y3282392D01*
X161823007Y3175970D01*
X161828881Y3169211D01*
X161828255Y3160278D01*
X161823007Y3155030D01*
X161447559Y2967774D01*
X161438626Y2967148D01*
X161438229Y2967289D01*
X161250592Y3037653D01*
X161244049Y3043767D01*
X161243000Y3048608D01*
X161243000Y3282392D01*
X161246427Y3290665D01*
X161250592Y3293347D01*
X161250592Y3293348D01*
X161438231Y3363712D01*
X161447178Y3363408D01*
G37*
%TD.AperFunction*%
%TD*%
%TA.AperFunction,Conductor*%
%TO.N,Net-(D1-GK)*%
G36*
X141375294Y20862272D02*
G01*
X141381280Y20856110D01*
X141529123Y20501502D01*
X141529144Y20492548D01*
X141529123Y20492498D01*
X141381280Y20137891D01*
X141374933Y20131573D01*
X141366344Y20131449D01*
X140737563Y20369142D01*
X140731036Y20375273D01*
X140730000Y20380086D01*
X140730000Y20613915D01*
X140733427Y20622188D01*
X140737563Y20624859D01*
X141366345Y20862552D01*
X141375294Y20862272D01*
G37*
%TD.AperFunction*%
%TD*%
%TA.AperFunction,Conductor*%
%TO.N,Net-(D1-BK)*%
G36*
X141629294Y19846272D02*
G01*
X141635280Y19840110D01*
X141783123Y19485502D01*
X141783144Y19476548D01*
X141783123Y19476498D01*
X141635280Y19121891D01*
X141628933Y19115573D01*
X141620344Y19115449D01*
X140991563Y19353142D01*
X140985036Y19359273D01*
X140984000Y19364086D01*
X140984000Y19597915D01*
X140987427Y19606188D01*
X140991563Y19608859D01*
X141620345Y19846552D01*
X141629294Y19846272D01*
G37*
%TD.AperFunction*%
%TD*%
%TA.AperFunction,Conductor*%
%TO.N,Net-(USB-C1-CC1)*%
G36*
X198348773Y13500851D02*
G01*
X198352390Y13498629D01*
X198782426Y13234425D01*
X198787680Y13227175D01*
X198788000Y13224457D01*
X198788000Y12987544D01*
X198784573Y12979271D01*
X198782425Y12977575D01*
X198348773Y12711150D01*
X198339930Y12709739D01*
X198333880Y12713372D01*
X197993844Y13098253D01*
X197990934Y13106722D01*
X197993844Y13113747D01*
X198333881Y13498630D01*
X198341926Y13502560D01*
X198348773Y13500851D01*
G37*
%TD.AperFunction*%
%TD*%
%TA.AperFunction,Conductor*%
%TO.N,Net-(D1-BK)*%
G36*
X186333294Y19846272D02*
G01*
X186339280Y19840110D01*
X186487123Y19485502D01*
X186487144Y19476548D01*
X186487123Y19476498D01*
X186339280Y19121891D01*
X186332933Y19115573D01*
X186324344Y19115449D01*
X185695563Y19353142D01*
X185689036Y19359273D01*
X185688000Y19364086D01*
X185688000Y19597915D01*
X185691427Y19606188D01*
X185695563Y19608859D01*
X186324345Y19846552D01*
X186333294Y19846272D01*
G37*
%TD.AperFunction*%
%TD*%
%TA.AperFunction,Conductor*%
%TO.N,USB_D-*%
G36*
X174048219Y8962891D02*
G01*
X174236532Y8868734D01*
X174242400Y8861969D01*
X174243000Y8858269D01*
X174243000Y8672731D01*
X174239573Y8664458D01*
X174236532Y8662266D01*
X174048225Y8568113D01*
X174039293Y8567478D01*
X174037771Y8568108D01*
X173662992Y8755030D01*
X173657118Y8761789D01*
X173657744Y8770722D01*
X173662992Y8775970D01*
X174037773Y8962894D01*
X174046704Y8963519D01*
X174048219Y8962891D01*
G37*
%TD.AperFunction*%
%TD*%
%TA.AperFunction,Conductor*%
%TO.N,Net-(D1-GK)*%
G36*
X51459294Y20862272D02*
G01*
X51465280Y20856110D01*
X51613123Y20501502D01*
X51613144Y20492548D01*
X51613123Y20492498D01*
X51465280Y20137891D01*
X51458933Y20131573D01*
X51450344Y20131449D01*
X50821563Y20369142D01*
X50815036Y20375273D01*
X50814000Y20380086D01*
X50814000Y20613915D01*
X50817427Y20622188D01*
X50821563Y20624859D01*
X51450345Y20862552D01*
X51459294Y20862272D01*
G37*
%TD.AperFunction*%
%TD*%
%TA.AperFunction,Conductor*%
%TO.N,USB_D-*%
G36*
X199128382Y11735484D02*
G01*
X199612102Y11630509D01*
X199649312Y11622434D01*
X199656671Y11617330D01*
X199658265Y11608519D01*
X199653161Y11601160D01*
X199649312Y11599566D01*
X199128384Y11486518D01*
X199123608Y11486479D01*
X199010405Y11509119D01*
X199002965Y11514102D01*
X199001000Y11520592D01*
X199001000Y11701408D01*
X199004427Y11709681D01*
X199010405Y11712881D01*
X199010404Y11712881D01*
X199123609Y11735522D01*
X199128382Y11735484D01*
G37*
%TD.AperFunction*%
%TD*%
%TA.AperFunction,Conductor*%
%TO.N,Net-(D1-RK)*%
G36*
X4296696Y18824110D02*
G01*
X4908437Y18592859D01*
X4914964Y18586728D01*
X4916000Y18581915D01*
X4916000Y18348086D01*
X4912573Y18339813D01*
X4908437Y18337142D01*
X4279655Y18099449D01*
X4270705Y18099729D01*
X4264719Y18105891D01*
X4168306Y18337142D01*
X4116875Y18460501D01*
X4116855Y18469450D01*
X4264719Y18824111D01*
X4271066Y18830428D01*
X4279654Y18830552D01*
X4296696Y18824110D01*
G37*
%TD.AperFunction*%
%TD*%
%TA.AperFunction,Conductor*%
%TO.N,Net-(D1-BK)*%
G36*
X51625985Y19626642D02*
G01*
X52304766Y19606340D01*
X52312932Y19602667D01*
X52316115Y19594645D01*
X52316115Y19360909D01*
X52312688Y19352636D01*
X52312614Y19352562D01*
X51905101Y18952269D01*
X51896797Y18948916D01*
X51888643Y18952328D01*
X51616453Y19223559D01*
X51613012Y19231826D01*
X51613012Y19231876D01*
X51613969Y19614978D01*
X51617417Y19623240D01*
X51625698Y19626646D01*
X51625985Y19626642D01*
G37*
%TD.AperFunction*%
%TD*%
%TA.AperFunction,Conductor*%
%TO.N,+5V*%
G36*
X197585225Y2945748D02*
G01*
X197588795Y2942495D01*
X197903080Y2505835D01*
X197905132Y2497118D01*
X197903080Y2492165D01*
X197588795Y2055506D01*
X197581181Y2050793D01*
X197576356Y2051017D01*
X197118439Y2170036D01*
X197015755Y2196725D01*
X197008611Y2202122D01*
X197007000Y2208045D01*
X197007000Y2789956D01*
X197010426Y2798226D01*
X197015752Y2801275D01*
X197576356Y2946984D01*
X197585225Y2945748D01*
G37*
%TD.AperFunction*%
%TD*%
%TA.AperFunction,Conductor*%
%TO.N,+3V3*%
G36*
X160813804Y7563890D02*
G01*
X160813940Y7563833D01*
X161436297Y7293557D01*
X161442520Y7287118D01*
X161443336Y7282825D01*
X161443336Y7048963D01*
X161439909Y7040690D01*
X161435299Y7037851D01*
X160813364Y6832841D01*
X160804434Y6833506D01*
X160798903Y6839450D01*
X160650875Y7194501D01*
X160650855Y7203450D01*
X160798504Y7557595D01*
X160804850Y7563911D01*
X160813804Y7563890D01*
G37*
%TD.AperFunction*%
%TD*%
%TA.AperFunction,Conductor*%
%TO.N,+5V*%
G36*
X198749902Y9449490D02*
G01*
X198756149Y9443074D01*
X198756981Y9438741D01*
X198756981Y9208093D01*
X198756256Y9204038D01*
X198552763Y8653326D01*
X198546681Y8646753D01*
X198537733Y8646406D01*
X198537321Y8646567D01*
X198182499Y8793142D01*
X198176161Y8799468D01*
X198030428Y9153615D01*
X198030449Y9162567D01*
X198036796Y9168885D01*
X198036821Y9168896D01*
X198740951Y9449609D01*
X198749902Y9449490D01*
G37*
%TD.AperFunction*%
%TD*%
%TA.AperFunction,Conductor*%
%TO.N,+5V*%
G36*
X198304594Y7311534D02*
G01*
X198312858Y7308086D01*
X198316264Y7299805D01*
X198316152Y7298222D01*
X198253586Y6848526D01*
X198208448Y6524091D01*
X198208404Y6523776D01*
X198203870Y6516054D01*
X198196816Y6513688D01*
X197617467Y6513688D01*
X197609194Y6517115D01*
X197605839Y6524091D01*
X197519446Y7298536D01*
X197521935Y7307138D01*
X197529777Y7311461D01*
X197531037Y7311533D01*
X197918000Y7312500D01*
X198304594Y7311534D01*
G37*
%TD.AperFunction*%
%TD*%
%TA.AperFunction,Conductor*%
%TO.N,Net-(D1-BK)*%
G36*
X170226729Y17220573D02*
G01*
X170228425Y17218425D01*
X170494850Y16784775D01*
X170496261Y16775932D01*
X170492628Y16769882D01*
X170107747Y16429845D01*
X170099278Y16426935D01*
X170092253Y16429845D01*
X169707371Y16769882D01*
X169703440Y16777928D01*
X169705149Y16784775D01*
X169971575Y17218425D01*
X169978826Y17223680D01*
X169981544Y17224000D01*
X170218456Y17224000D01*
X170226729Y17220573D01*
G37*
%TD.AperFunction*%
%TD*%
%TA.AperFunction,Conductor*%
%TO.N,Net-(D1-BK)*%
G36*
X169945294Y19846272D02*
G01*
X169951280Y19840110D01*
X170099123Y19485502D01*
X170099144Y19476548D01*
X170099123Y19476498D01*
X169951280Y19121891D01*
X169944933Y19115573D01*
X169936344Y19115449D01*
X169307563Y19353142D01*
X169301036Y19359273D01*
X169300000Y19364086D01*
X169300000Y19597915D01*
X169303427Y19606188D01*
X169307563Y19608859D01*
X169936345Y19846552D01*
X169945294Y19846272D01*
G37*
%TD.AperFunction*%
%TD*%
%TA.AperFunction,Conductor*%
%TO.N,Green*%
G36*
X167868165Y11062073D02*
G01*
X167870847Y11057908D01*
X167941211Y10870271D01*
X167940907Y10861322D01*
X167940726Y10860941D01*
X167753470Y10485493D01*
X167746711Y10479619D01*
X167737778Y10480245D01*
X167732530Y10485493D01*
X167679262Y10592295D01*
X167545272Y10860943D01*
X167544647Y10869874D01*
X167544767Y10870215D01*
X167615153Y11057909D01*
X167621267Y11064451D01*
X167626108Y11065500D01*
X167859892Y11065500D01*
X167868165Y11062073D01*
G37*
%TD.AperFunction*%
%TD*%
%TA.AperFunction,Conductor*%
%TO.N,Net-(D1-RK)*%
G36*
X139089294Y18830272D02*
G01*
X139095280Y18824110D01*
X139243123Y18469503D01*
X139243144Y18460549D01*
X139243123Y18460499D01*
X139095280Y18105891D01*
X139088933Y18099573D01*
X139080344Y18099449D01*
X138451563Y18337142D01*
X138445036Y18343273D01*
X138444000Y18348086D01*
X138444000Y18581915D01*
X138447427Y18590188D01*
X138451563Y18592859D01*
X139080345Y18830552D01*
X139089294Y18830272D01*
G37*
%TD.AperFunction*%
%TD*%
%TA.AperFunction,Conductor*%
%TO.N,Net-(D1-RK)*%
G36*
X139424696Y18824110D02*
G01*
X140036437Y18592859D01*
X140042964Y18586728D01*
X140044000Y18581915D01*
X140044000Y18348086D01*
X140040573Y18339813D01*
X140036437Y18337142D01*
X139407655Y18099449D01*
X139398705Y18099729D01*
X139392719Y18105891D01*
X139296306Y18337142D01*
X139244875Y18460501D01*
X139244855Y18469450D01*
X139392719Y18824111D01*
X139399066Y18830428D01*
X139407654Y18830552D01*
X139424696Y18824110D01*
G37*
%TD.AperFunction*%
%TD*%
%TA.AperFunction,Conductor*%
%TO.N,+3V3*%
G36*
X194702171Y7199095D02*
G01*
X195059313Y7050196D01*
X195065630Y7043850D01*
X195065833Y7035476D01*
X194852767Y6436615D01*
X194846765Y6429969D01*
X194841744Y6428837D01*
X194262484Y6428837D01*
X194254211Y6432264D01*
X194250784Y6440537D01*
X194250809Y6441295D01*
X194266274Y6679515D01*
X194299291Y7188088D01*
X194303246Y7196120D01*
X194310935Y7199028D01*
X194697648Y7199995D01*
X194702171Y7199095D01*
G37*
%TD.AperFunction*%
%TD*%
%TA.AperFunction,Conductor*%
%TO.N,Net-(D1-GK)*%
G36*
X51794696Y20856110D02*
G01*
X52406437Y20624859D01*
X52412964Y20618728D01*
X52414000Y20613915D01*
X52414000Y20380086D01*
X52410573Y20371813D01*
X52406437Y20369142D01*
X51777655Y20131449D01*
X51768705Y20131729D01*
X51762719Y20137891D01*
X51666306Y20369142D01*
X51614875Y20492501D01*
X51614855Y20501450D01*
X51762719Y20856111D01*
X51769066Y20862428D01*
X51777654Y20862552D01*
X51794696Y20856110D01*
G37*
%TD.AperFunction*%
%TD*%
%TA.AperFunction,Conductor*%
%TO.N,Net-(D1-RK)*%
G36*
X49254696Y18824110D02*
G01*
X49866437Y18592859D01*
X49872964Y18586728D01*
X49874000Y18581915D01*
X49874000Y18348086D01*
X49870573Y18339813D01*
X49866437Y18337142D01*
X49237655Y18099449D01*
X49228705Y18099729D01*
X49222719Y18105891D01*
X49126306Y18337142D01*
X49074875Y18460501D01*
X49074855Y18469450D01*
X49222719Y18824111D01*
X49229066Y18830428D01*
X49237654Y18830552D01*
X49254696Y18824110D01*
G37*
%TD.AperFunction*%
%TD*%
%TA.AperFunction,Conductor*%
%TO.N,Net-(D1-BK)*%
G36*
X170459109Y17427281D02*
G01*
X170465427Y17420934D01*
X170465551Y17412345D01*
X170227859Y16783563D01*
X170221728Y16777036D01*
X170216915Y16776000D01*
X169983085Y16776000D01*
X169974812Y16779427D01*
X169972141Y16783563D01*
X169734448Y17412345D01*
X169734728Y17421295D01*
X169740889Y17427281D01*
X170095500Y17575125D01*
X170104449Y17575145D01*
X170459109Y17427281D01*
G37*
%TD.AperFunction*%
%TD*%
%TA.AperFunction,Conductor*%
%TO.N,Net-(D1-RK)*%
G36*
X184047294Y18830272D02*
G01*
X184053280Y18824110D01*
X184201123Y18469503D01*
X184201144Y18460549D01*
X184201123Y18460499D01*
X184053280Y18105891D01*
X184046933Y18099573D01*
X184038344Y18099449D01*
X183409563Y18337142D01*
X183403036Y18343273D01*
X183402000Y18348086D01*
X183402000Y18581915D01*
X183405427Y18590188D01*
X183409563Y18592859D01*
X184038345Y18830552D01*
X184047294Y18830272D01*
G37*
%TD.AperFunction*%
%TD*%
%TA.AperFunction,Conductor*%
%TO.N,USB_D+*%
G36*
X174048219Y8162891D02*
G01*
X174236532Y8068734D01*
X174242400Y8061969D01*
X174243000Y8058269D01*
X174243000Y7872731D01*
X174239573Y7864458D01*
X174236532Y7862266D01*
X174048225Y7768113D01*
X174039293Y7767478D01*
X174037771Y7768108D01*
X173662992Y7955030D01*
X173657118Y7961789D01*
X173657744Y7970722D01*
X173662992Y7975970D01*
X174037773Y8162894D01*
X174046704Y8163519D01*
X174048219Y8162891D01*
G37*
%TD.AperFunction*%
%TD*%
%TA.AperFunction,Conductor*%
%TO.N,Net-(D1-RK)*%
G36*
X167041932Y17280453D02*
G01*
X167043315Y17278787D01*
X167370660Y16800387D01*
X167372504Y16791624D01*
X167369205Y16785435D01*
X167008202Y16430659D01*
X166999899Y16427304D01*
X166992581Y16429958D01*
X166592459Y16758138D01*
X166588236Y16766034D01*
X166590696Y16774434D01*
X166858377Y17113391D01*
X166858812Y17113879D01*
X167025387Y17280454D01*
X167033659Y17283880D01*
X167041932Y17280453D01*
G37*
%TD.AperFunction*%
%TD*%
%TA.AperFunction,Conductor*%
%TO.N,Net-(D1-RK)*%
G36*
X48919294Y18830272D02*
G01*
X48925280Y18824110D01*
X49073123Y18469502D01*
X49073144Y18460548D01*
X49073123Y18460498D01*
X48925280Y18105891D01*
X48918933Y18099573D01*
X48910344Y18099449D01*
X48281563Y18337142D01*
X48275036Y18343273D01*
X48274000Y18348086D01*
X48274000Y18581915D01*
X48277427Y18590188D01*
X48281563Y18592859D01*
X48910345Y18830552D01*
X48919294Y18830272D01*
G37*
%TD.AperFunction*%
%TD*%
%TA.AperFunction,Conductor*%
%TO.N,+3V3*%
G36*
X194186474Y6499048D02*
G01*
X194759114Y6357202D01*
X194766320Y6351886D01*
X194768000Y6345845D01*
X194768000Y5764559D01*
X194764573Y5756286D01*
X194758634Y5753094D01*
X194186212Y5636574D01*
X194177421Y5638282D01*
X194174647Y5640850D01*
X193847598Y6060812D01*
X193845218Y6069445D01*
X193847596Y6075187D01*
X194174436Y6494881D01*
X194182222Y6499301D01*
X194186474Y6499048D01*
G37*
%TD.AperFunction*%
%TD*%
%TA.AperFunction,Conductor*%
%TO.N,Net-(D1-BK)*%
G36*
X97006696Y19840110D02*
G01*
X97618437Y19608859D01*
X97624964Y19602728D01*
X97626000Y19597915D01*
X97626000Y19364086D01*
X97622573Y19355813D01*
X97618437Y19353142D01*
X96989655Y19115449D01*
X96980705Y19115729D01*
X96974719Y19121891D01*
X96878306Y19353142D01*
X96826875Y19476501D01*
X96826855Y19485450D01*
X96974719Y19840111D01*
X96981066Y19846428D01*
X96989654Y19846552D01*
X97006696Y19840110D01*
G37*
%TD.AperFunction*%
%TD*%
%TA.AperFunction,Conductor*%
%TO.N,Red*%
G36*
X168550747Y14768156D02*
G01*
X168935628Y14428120D01*
X168939559Y14420074D01*
X168937850Y14413227D01*
X168671425Y13979575D01*
X168664174Y13974320D01*
X168661456Y13974000D01*
X168424544Y13974000D01*
X168416271Y13977427D01*
X168414575Y13979575D01*
X168148149Y14413227D01*
X168146738Y14422070D01*
X168150369Y14428119D01*
X168535253Y14768157D01*
X168543722Y14771066D01*
X168550747Y14768156D01*
G37*
%TD.AperFunction*%
%TD*%
%TA.AperFunction,Conductor*%
%TO.N,Net-(D1-GK)*%
G36*
X186333294Y20862272D02*
G01*
X186339280Y20856110D01*
X186487123Y20501502D01*
X186487144Y20492548D01*
X186487123Y20492498D01*
X186339280Y20137891D01*
X186332933Y20131573D01*
X186324344Y20131449D01*
X185695563Y20369142D01*
X185689036Y20375273D01*
X185688000Y20380086D01*
X185688000Y20613915D01*
X185691427Y20622188D01*
X185695563Y20624859D01*
X186324345Y20862552D01*
X186333294Y20862272D01*
G37*
%TD.AperFunction*%
%TD*%
%TA.AperFunction,Conductor*%
%TO.N,+5V*%
G36*
X199128417Y14531425D02*
G01*
X199657868Y14397189D01*
X199665045Y14391835D01*
X199666333Y14382974D01*
X199660978Y14375796D01*
X199657941Y14374527D01*
X199128220Y14236579D01*
X199123725Y14236304D01*
X198986154Y14254647D01*
X198978406Y14259137D01*
X198976000Y14266244D01*
X198976000Y14496156D01*
X198979427Y14504429D01*
X198985697Y14507684D01*
X199123545Y14531611D01*
X199128417Y14531425D01*
G37*
%TD.AperFunction*%
%TD*%
%TA.AperFunction,Conductor*%
%TO.N,Red*%
G36*
X168668165Y11062073D02*
G01*
X168670847Y11057908D01*
X168741211Y10870271D01*
X168740907Y10861322D01*
X168740726Y10860941D01*
X168553470Y10485493D01*
X168546711Y10479619D01*
X168537778Y10480245D01*
X168532530Y10485493D01*
X168479262Y10592295D01*
X168345272Y10860943D01*
X168344647Y10869874D01*
X168344767Y10870215D01*
X168415153Y11057909D01*
X168421267Y11064451D01*
X168426108Y11065500D01*
X168659892Y11065500D01*
X168668165Y11062073D01*
G37*
%TD.AperFunction*%
%TD*%
%TA.AperFunction,Conductor*%
%TO.N,Net-(D1-BK)*%
G36*
X51610352Y19623463D02*
G01*
X51614025Y19615296D01*
X51614030Y19614975D01*
X51614987Y19231876D01*
X51611581Y19223595D01*
X51611546Y19223559D01*
X51339356Y18952328D01*
X51331076Y18948916D01*
X51322899Y18952269D01*
X51046715Y19223559D01*
X50915386Y19352562D01*
X50911885Y19360804D01*
X50911885Y19594645D01*
X50915312Y19602918D01*
X50923233Y19606340D01*
X51601981Y19626641D01*
X51610352Y19623463D01*
G37*
%TD.AperFunction*%
%TD*%
%TA.AperFunction,Conductor*%
%TO.N,Net-(D1-BK)*%
G36*
X96671294Y19846272D02*
G01*
X96677280Y19840110D01*
X96825123Y19485502D01*
X96825144Y19476548D01*
X96825123Y19476498D01*
X96677280Y19121891D01*
X96670933Y19115573D01*
X96662344Y19115449D01*
X96033563Y19353142D01*
X96027036Y19359273D01*
X96026000Y19364086D01*
X96026000Y19597915D01*
X96029427Y19606188D01*
X96033563Y19608859D01*
X96662345Y19846552D01*
X96671294Y19846272D01*
G37*
%TD.AperFunction*%
%TD*%
%TA.AperFunction,Conductor*%
%TO.N,Net-(D1-GK)*%
G36*
X168902109Y17427281D02*
G01*
X168908427Y17420934D01*
X168908551Y17412345D01*
X168670859Y16783563D01*
X168664728Y16777036D01*
X168659915Y16776000D01*
X168426085Y16776000D01*
X168417812Y16779427D01*
X168415141Y16783563D01*
X168177448Y17412345D01*
X168177728Y17421295D01*
X168183889Y17427281D01*
X168538500Y17575125D01*
X168547449Y17575145D01*
X168902109Y17427281D01*
G37*
%TD.AperFunction*%
%TD*%
%TA.AperFunction,Conductor*%
%TO.N,Net-(D1-GK)*%
G36*
X6582696Y20856110D02*
G01*
X7194437Y20624859D01*
X7200964Y20618728D01*
X7202000Y20613915D01*
X7202000Y20380086D01*
X7198573Y20371813D01*
X7194437Y20369142D01*
X6565655Y20131449D01*
X6556705Y20131729D01*
X6550719Y20137891D01*
X6454306Y20369142D01*
X6402875Y20492501D01*
X6402855Y20501450D01*
X6550719Y20856111D01*
X6557066Y20862428D01*
X6565654Y20862552D01*
X6582696Y20856110D01*
G37*
%TD.AperFunction*%
%TD*%
%TA.AperFunction,Conductor*%
%TO.N,Net-(D1-GK)*%
G36*
X141710696Y20856110D02*
G01*
X142322437Y20624859D01*
X142328964Y20618728D01*
X142330000Y20613915D01*
X142330000Y20380086D01*
X142326573Y20371813D01*
X142322437Y20369142D01*
X141693655Y20131449D01*
X141684705Y20131729D01*
X141678719Y20137891D01*
X141582306Y20369142D01*
X141530875Y20492501D01*
X141530855Y20501450D01*
X141678719Y20856111D01*
X141685066Y20862428D01*
X141693654Y20862552D01*
X141710696Y20856110D01*
G37*
%TD.AperFunction*%
%TD*%
%TA.AperFunction,Conductor*%
%TO.N,Net-(USB-C1-CC2)*%
G36*
X198348773Y10500851D02*
G01*
X198352390Y10498629D01*
X198782426Y10234425D01*
X198787680Y10227175D01*
X198788000Y10224457D01*
X198788000Y9987544D01*
X198784573Y9979271D01*
X198782425Y9977575D01*
X198348773Y9711150D01*
X198339930Y9709739D01*
X198333880Y9713372D01*
X197993844Y10098253D01*
X197990934Y10106722D01*
X197993844Y10113747D01*
X198333881Y10498630D01*
X198341926Y10502560D01*
X198348773Y10500851D01*
G37*
%TD.AperFunction*%
%TD*%
%TA.AperFunction,Conductor*%
%TO.N,+5V*%
G36*
X198205919Y3420573D02*
G01*
X198209059Y3414875D01*
X198338238Y2842348D01*
X198336716Y2833524D01*
X198334014Y2830542D01*
X197914189Y2503599D01*
X197905556Y2501219D01*
X197899811Y2503599D01*
X197479985Y2830542D01*
X197475563Y2838329D01*
X197475761Y2842348D01*
X197604941Y3414875D01*
X197610105Y3422191D01*
X197616354Y3424000D01*
X198197646Y3424000D01*
X198205919Y3420573D01*
G37*
%TD.AperFunction*%
%TD*%
%TA.AperFunction,Conductor*%
%TO.N,Net-(D1-GK)*%
G36*
X96417294Y20862272D02*
G01*
X96423280Y20856110D01*
X96571123Y20501502D01*
X96571144Y20492548D01*
X96571123Y20492498D01*
X96423280Y20137891D01*
X96416933Y20131573D01*
X96408344Y20131449D01*
X95779563Y20369142D01*
X95773036Y20375273D01*
X95772000Y20380086D01*
X95772000Y20613915D01*
X95775427Y20622188D01*
X95779563Y20624859D01*
X96408345Y20862552D01*
X96417294Y20862272D01*
G37*
%TD.AperFunction*%
%TD*%
%TA.AperFunction,Conductor*%
%TO.N,USB_D+*%
G36*
X200391674Y12207932D02*
G01*
X200399079Y12202899D01*
X200401000Y12196476D01*
X200401000Y12015977D01*
X200397573Y12007704D01*
X200391148Y12004424D01*
X200278176Y11986349D01*
X200273847Y11986468D01*
X199753568Y12099375D01*
X199746210Y12104479D01*
X199744615Y12113290D01*
X199749719Y12120648D01*
X199753644Y12122260D01*
X200273617Y12231396D01*
X200278384Y12231401D01*
X200391674Y12207932D01*
G37*
%TD.AperFunction*%
%TD*%
%TA.AperFunction,Conductor*%
%TO.N,+5V*%
G36*
X198470100Y14911667D02*
G01*
X198876311Y14509434D01*
X198879779Y14501179D01*
X198879779Y14267388D01*
X198876352Y14259115D01*
X198868396Y14255692D01*
X198190987Y14237326D01*
X198182624Y14240528D01*
X198178974Y14248705D01*
X198178970Y14248993D01*
X198178924Y14267388D01*
X198178012Y14632126D01*
X198181418Y14640406D01*
X198453611Y14911641D01*
X198461890Y14915052D01*
X198470100Y14911667D01*
G37*
%TD.AperFunction*%
%TD*%
%TA.AperFunction,Conductor*%
%TO.N,+5V*%
G36*
X196650106Y2897362D02*
G01*
X197426752Y2800281D01*
X197434535Y2795855D01*
X197437000Y2788672D01*
X197437000Y2209329D01*
X197433573Y2201056D01*
X197426751Y2197719D01*
X196650117Y2100640D01*
X196641483Y2103015D01*
X196637056Y2110799D01*
X196636966Y2112206D01*
X196636000Y2499000D01*
X196636966Y2885783D01*
X196640414Y2894045D01*
X196648695Y2897451D01*
X196650106Y2897362D01*
G37*
%TD.AperFunction*%
%TD*%
%TA.AperFunction,Conductor*%
%TO.N,+3V3*%
G36*
X160913804Y3563890D02*
G01*
X160913940Y3563833D01*
X161536297Y3293557D01*
X161542520Y3287118D01*
X161543336Y3282825D01*
X161543336Y3048963D01*
X161539909Y3040690D01*
X161535299Y3037851D01*
X160913364Y2832841D01*
X160904434Y2833506D01*
X160898903Y2839450D01*
X160750875Y3194501D01*
X160750855Y3203450D01*
X160898504Y3557595D01*
X160904850Y3563911D01*
X160913804Y3563890D01*
G37*
%TD.AperFunction*%
%TD*%
M02*
