%TF.GenerationSoftware,KiCad,Pcbnew,7.0.5*%
%TF.CreationDate,2023-07-03T12:40:55+01:00*%
%TF.ProjectId,Rapid Training Target,52617069-6420-4547-9261-696e696e6720,B*%
%TF.SameCoordinates,PX2160ec0PY6146198*%
%TF.FileFunction,Legend,Top*%
%TF.FilePolarity,Positive*%
%FSLAX46Y46*%
G04 Gerber Fmt 4.6, Leading zero omitted, Abs format (unit mm)*
G04 Created by KiCad (PCBNEW 7.0.5) date 2023-07-03 12:40:55*
%MOMM*%
%LPD*%
G01*
G04 APERTURE LIST*
%ADD10C,0.120000*%
%ADD11C,0.150000*%
%ADD12C,0.170000*%
G04 APERTURE END LIST*
D10*
%TO.C,D3*%
X94364286Y22950098D02*
X94364286Y24150098D01*
X94364286Y24150098D02*
X94650000Y24150098D01*
X94650000Y24150098D02*
X94821429Y24092955D01*
X94821429Y24092955D02*
X94935714Y23978669D01*
X94935714Y23978669D02*
X94992857Y23864383D01*
X94992857Y23864383D02*
X95050000Y23635812D01*
X95050000Y23635812D02*
X95050000Y23464383D01*
X95050000Y23464383D02*
X94992857Y23235812D01*
X94992857Y23235812D02*
X94935714Y23121526D01*
X94935714Y23121526D02*
X94821429Y23007240D01*
X94821429Y23007240D02*
X94650000Y22950098D01*
X94650000Y22950098D02*
X94364286Y22950098D01*
X95450000Y24150098D02*
X96192857Y24150098D01*
X96192857Y24150098D02*
X95792857Y23692955D01*
X95792857Y23692955D02*
X95964286Y23692955D01*
X95964286Y23692955D02*
X96078572Y23635812D01*
X96078572Y23635812D02*
X96135714Y23578669D01*
X96135714Y23578669D02*
X96192857Y23464383D01*
X96192857Y23464383D02*
X96192857Y23178669D01*
X96192857Y23178669D02*
X96135714Y23064383D01*
X96135714Y23064383D02*
X96078572Y23007240D01*
X96078572Y23007240D02*
X95964286Y22950098D01*
X95964286Y22950098D02*
X95621429Y22950098D01*
X95621429Y22950098D02*
X95507143Y23007240D01*
X95507143Y23007240D02*
X95450000Y23064383D01*
%TO.C,D4*%
X139120286Y23218098D02*
X139120286Y24418098D01*
X139120286Y24418098D02*
X139406000Y24418098D01*
X139406000Y24418098D02*
X139577429Y24360955D01*
X139577429Y24360955D02*
X139691714Y24246669D01*
X139691714Y24246669D02*
X139748857Y24132383D01*
X139748857Y24132383D02*
X139806000Y23903812D01*
X139806000Y23903812D02*
X139806000Y23732383D01*
X139806000Y23732383D02*
X139748857Y23503812D01*
X139748857Y23503812D02*
X139691714Y23389526D01*
X139691714Y23389526D02*
X139577429Y23275240D01*
X139577429Y23275240D02*
X139406000Y23218098D01*
X139406000Y23218098D02*
X139120286Y23218098D01*
X140834572Y24018098D02*
X140834572Y23218098D01*
X140548857Y24475240D02*
X140263143Y23618098D01*
X140263143Y23618098D02*
X141006000Y23618098D01*
%TO.C,D2*%
X49364286Y22950098D02*
X49364286Y24150098D01*
X49364286Y24150098D02*
X49650000Y24150098D01*
X49650000Y24150098D02*
X49821429Y24092955D01*
X49821429Y24092955D02*
X49935714Y23978669D01*
X49935714Y23978669D02*
X49992857Y23864383D01*
X49992857Y23864383D02*
X50050000Y23635812D01*
X50050000Y23635812D02*
X50050000Y23464383D01*
X50050000Y23464383D02*
X49992857Y23235812D01*
X49992857Y23235812D02*
X49935714Y23121526D01*
X49935714Y23121526D02*
X49821429Y23007240D01*
X49821429Y23007240D02*
X49650000Y22950098D01*
X49650000Y22950098D02*
X49364286Y22950098D01*
X50507143Y24035812D02*
X50564286Y24092955D01*
X50564286Y24092955D02*
X50678572Y24150098D01*
X50678572Y24150098D02*
X50964286Y24150098D01*
X50964286Y24150098D02*
X51078572Y24092955D01*
X51078572Y24092955D02*
X51135714Y24035812D01*
X51135714Y24035812D02*
X51192857Y23921526D01*
X51192857Y23921526D02*
X51192857Y23807240D01*
X51192857Y23807240D02*
X51135714Y23635812D01*
X51135714Y23635812D02*
X50450000Y22950098D01*
X50450000Y22950098D02*
X51192857Y22950098D01*
%TO.C,D1*%
X4364286Y22950098D02*
X4364286Y24150098D01*
X4364286Y24150098D02*
X4650000Y24150098D01*
X4650000Y24150098D02*
X4821429Y24092955D01*
X4821429Y24092955D02*
X4935714Y23978669D01*
X4935714Y23978669D02*
X4992857Y23864383D01*
X4992857Y23864383D02*
X5050000Y23635812D01*
X5050000Y23635812D02*
X5050000Y23464383D01*
X5050000Y23464383D02*
X4992857Y23235812D01*
X4992857Y23235812D02*
X4935714Y23121526D01*
X4935714Y23121526D02*
X4821429Y23007240D01*
X4821429Y23007240D02*
X4650000Y22950098D01*
X4650000Y22950098D02*
X4364286Y22950098D01*
X6192857Y22950098D02*
X5507143Y22950098D01*
X5850000Y22950098D02*
X5850000Y24150098D01*
X5850000Y24150098D02*
X5735714Y23978669D01*
X5735714Y23978669D02*
X5621429Y23864383D01*
X5621429Y23864383D02*
X5507143Y23807240D01*
D11*
%TO.C,H2*%
X4238095Y27545181D02*
X4238095Y28545181D01*
X4238095Y28068991D02*
X4809523Y28068991D01*
X4809523Y27545181D02*
X4809523Y28545181D01*
X5238095Y28449943D02*
X5285714Y28497562D01*
X5285714Y28497562D02*
X5380952Y28545181D01*
X5380952Y28545181D02*
X5619047Y28545181D01*
X5619047Y28545181D02*
X5714285Y28497562D01*
X5714285Y28497562D02*
X5761904Y28449943D01*
X5761904Y28449943D02*
X5809523Y28354705D01*
X5809523Y28354705D02*
X5809523Y28259467D01*
X5809523Y28259467D02*
X5761904Y28116610D01*
X5761904Y28116610D02*
X5190476Y27545181D01*
X5190476Y27545181D02*
X5809523Y27545181D01*
D10*
%TO.C,D5*%
X184364286Y22950098D02*
X184364286Y24150098D01*
X184364286Y24150098D02*
X184650000Y24150098D01*
X184650000Y24150098D02*
X184821429Y24092955D01*
X184821429Y24092955D02*
X184935714Y23978669D01*
X184935714Y23978669D02*
X184992857Y23864383D01*
X184992857Y23864383D02*
X185050000Y23635812D01*
X185050000Y23635812D02*
X185050000Y23464383D01*
X185050000Y23464383D02*
X184992857Y23235812D01*
X184992857Y23235812D02*
X184935714Y23121526D01*
X184935714Y23121526D02*
X184821429Y23007240D01*
X184821429Y23007240D02*
X184650000Y22950098D01*
X184650000Y22950098D02*
X184364286Y22950098D01*
X186135714Y24150098D02*
X185564286Y24150098D01*
X185564286Y24150098D02*
X185507143Y23578669D01*
X185507143Y23578669D02*
X185564286Y23635812D01*
X185564286Y23635812D02*
X185678572Y23692955D01*
X185678572Y23692955D02*
X185964286Y23692955D01*
X185964286Y23692955D02*
X186078572Y23635812D01*
X186078572Y23635812D02*
X186135714Y23578669D01*
X186135714Y23578669D02*
X186192857Y23464383D01*
X186192857Y23464383D02*
X186192857Y23178669D01*
X186192857Y23178669D02*
X186135714Y23064383D01*
X186135714Y23064383D02*
X186078572Y23007240D01*
X186078572Y23007240D02*
X185964286Y22950098D01*
X185964286Y22950098D02*
X185678572Y22950098D01*
X185678572Y22950098D02*
X185564286Y23007240D01*
X185564286Y23007240D02*
X185507143Y23064383D01*
D11*
%TO.C,H3*%
X184238095Y27545181D02*
X184238095Y28545181D01*
X184238095Y28068991D02*
X184809523Y28068991D01*
X184809523Y27545181D02*
X184809523Y28545181D01*
X185190476Y28545181D02*
X185809523Y28545181D01*
X185809523Y28545181D02*
X185476190Y28164229D01*
X185476190Y28164229D02*
X185619047Y28164229D01*
X185619047Y28164229D02*
X185714285Y28116610D01*
X185714285Y28116610D02*
X185761904Y28068991D01*
X185761904Y28068991D02*
X185809523Y27973753D01*
X185809523Y27973753D02*
X185809523Y27735658D01*
X185809523Y27735658D02*
X185761904Y27640420D01*
X185761904Y27640420D02*
X185714285Y27592800D01*
X185714285Y27592800D02*
X185619047Y27545181D01*
X185619047Y27545181D02*
X185333333Y27545181D01*
X185333333Y27545181D02*
X185238095Y27592800D01*
X185238095Y27592800D02*
X185190476Y27640420D01*
D10*
%TO.C,D3*%
X94290000Y22693500D02*
X95710000Y22693500D01*
X94290000Y21304500D02*
X94290000Y22693500D01*
X95710000Y22693500D02*
X95710000Y21304500D01*
X95710000Y21304500D02*
X94290000Y21304500D01*
D12*
X94085000Y22344000D02*
G75*
G03*
X94085000Y22344000I-85000J0D01*
G01*
D10*
%TO.C,D4*%
X139290000Y22693500D02*
X140710000Y22693500D01*
X139290000Y21304500D02*
X139290000Y22693500D01*
X140710000Y22693500D02*
X140710000Y21304500D01*
X140710000Y21304500D02*
X139290000Y21304500D01*
D12*
X139085000Y22344000D02*
G75*
G03*
X139085000Y22344000I-85000J0D01*
G01*
D10*
%TO.C,D2*%
X49290000Y22693500D02*
X50710000Y22693500D01*
X49290000Y21304500D02*
X49290000Y22693500D01*
X50710000Y22693500D02*
X50710000Y21304500D01*
X50710000Y21304500D02*
X49290000Y21304500D01*
D12*
X49085000Y22344000D02*
G75*
G03*
X49085000Y22344000I-85000J0D01*
G01*
D10*
%TO.C,D1*%
X4290000Y22693500D02*
X5710000Y22693500D01*
X4290000Y21304500D02*
X4290000Y22693500D01*
X5710000Y22693500D02*
X5710000Y21304500D01*
X5710000Y21304500D02*
X4290000Y21304500D01*
D12*
X4085000Y22344000D02*
G75*
G03*
X4085000Y22344000I-85000J0D01*
G01*
D10*
%TO.C,D5*%
X184290000Y22693500D02*
X185710000Y22693500D01*
X184290000Y21304500D02*
X184290000Y22693500D01*
X185710000Y22693500D02*
X185710000Y21304500D01*
X185710000Y21304500D02*
X184290000Y21304500D01*
D12*
X184085000Y22344000D02*
G75*
G03*
X184085000Y22344000I-85000J0D01*
G01*
%TD*%
M02*
