%TF.GenerationSoftware,KiCad,Pcbnew,7.0.5*%
%TF.CreationDate,2023-06-18T10:33:00+01:00*%
%TF.ProjectId,Rapid Training Target,52617069-6420-4547-9261-696e696e6720,A*%
%TF.SameCoordinates,Original*%
%TF.FileFunction,Copper,L1,Top*%
%TF.FilePolarity,Positive*%
%FSLAX46Y46*%
G04 Gerber Fmt 4.6, Leading zero omitted, Abs format (unit mm)*
G04 Created by KiCad (PCBNEW 7.0.5) date 2023-06-18 10:33:00*
%MOMM*%
%LPD*%
G01*
G04 APERTURE LIST*
%TA.AperFunction,ComponentPad*%
%ADD10C,5.600000*%
%TD*%
%TA.AperFunction,ComponentPad*%
%ADD11C,1.778000*%
%TD*%
%TA.AperFunction,ComponentPad*%
%ADD12R,1.778000X1.778000*%
%TD*%
%TA.AperFunction,SMDPad,CuDef*%
%ADD13R,0.370000X0.339000*%
%TD*%
%TA.AperFunction,ViaPad*%
%ADD14C,0.800000*%
%TD*%
%TA.AperFunction,Conductor*%
%ADD15C,0.250000*%
%TD*%
G04 APERTURE END LIST*
D10*
%TO.P,H3,1*%
%TO.N,N/C*%
X220000000Y-70000000D03*
%TD*%
D11*
%TO.P,U1,18,3V3*%
%TO.N,+3V3*%
X195834000Y-92710000D03*
%TO.P,U1,17,GND*%
%TO.N,GND*%
X198374000Y-92710000D03*
%TO.P,U1,16,ESP_EN*%
%TO.N,unconnected-(U1-ESP_EN-Pad16)*%
X200914000Y-92710000D03*
%TO.P,U1,15,GPIO21/U0TXD*%
%TO.N,unconnected-(U1-GPIO21{slash}U0TXD-Pad15)*%
X203454000Y-92710000D03*
%TO.P,U1,14,GPIO20/U0TXD*%
%TO.N,unconnected-(U1-GPIO20{slash}U0TXD-Pad14)*%
X205994000Y-92710000D03*
%TO.P,U1,13,GPIO10*%
%TO.N,unconnected-(U1-GPIO10-Pad13)*%
X208534000Y-92710000D03*
%TO.P,U1,12,GPIO9*%
%TO.N,unconnected-(U1-GPIO9-Pad12)*%
X211074000Y-92710000D03*
%TO.P,U1,11,GPIO8*%
%TO.N,unconnected-(U1-GPIO8-Pad11)*%
X213614000Y-92710000D03*
%TO.P,U1,10,GPIO7*%
%TO.N,unconnected-(U1-GPIO7-Pad10)*%
X216154000Y-92710000D03*
%TO.P,U1,9,GPIO6*%
%TO.N,Blue*%
X216154000Y-67310000D03*
%TO.P,U1,8,GPIO5*%
%TO.N,Green*%
X213614000Y-67310000D03*
%TO.P,U1,7,GPIO4*%
%TO.N,Red*%
X211074000Y-67310000D03*
%TO.P,U1,6,GPIO3*%
%TO.N,unconnected-(U1-GPIO3-Pad6)*%
X208534000Y-67310000D03*
%TO.P,U1,5,GPIO2*%
%TO.N,unconnected-(U1-GPIO2-Pad5)*%
X205994000Y-67310000D03*
%TO.P,U1,4,GPIO1*%
%TO.N,unconnected-(U1-GPIO1-Pad4)*%
X203454000Y-67310000D03*
%TO.P,U1,3,GPIO0*%
%TO.N,unconnected-(U1-GPIO0-Pad3)*%
X200914000Y-67310000D03*
%TO.P,U1,2,GND*%
%TO.N,GND*%
X198374000Y-67310000D03*
D12*
%TO.P,U1,1,5V*%
%TO.N,+5V*%
X195834000Y-67310000D03*
%TD*%
D10*
%TO.P,H2,1*%
%TO.N,N/C*%
X40000000Y-70000000D03*
%TD*%
%TO.P,H1,1*%
%TO.N,N/C*%
X130000000Y-70000000D03*
%TD*%
D13*
%TO.P,D5,1,A*%
%TO.N,+5V*%
X219655000Y-79655000D03*
%TO.P,D5,2,RK*%
%TO.N,Net-(D1-RK)*%
X219655000Y-80345000D03*
%TO.P,D5,3,BK*%
%TO.N,Net-(D1-BK)*%
X220345000Y-80345000D03*
%TO.P,D5,4,GK*%
%TO.N,Net-(D1-GK)*%
X220345000Y-79655000D03*
%TD*%
%TO.P,D4,1,A*%
%TO.N,+5V*%
X174655000Y-79655000D03*
%TO.P,D4,2,RK*%
%TO.N,Net-(D1-RK)*%
X174655000Y-80345000D03*
%TO.P,D4,3,BK*%
%TO.N,Net-(D1-BK)*%
X175345000Y-80345000D03*
%TO.P,D4,4,GK*%
%TO.N,Net-(D1-GK)*%
X175345000Y-79655000D03*
%TD*%
%TO.P,D3,4,GK*%
%TO.N,Net-(D1-GK)*%
X130345000Y-79655000D03*
%TO.P,D3,3,BK*%
%TO.N,Net-(D1-BK)*%
X130345000Y-80345000D03*
%TO.P,D3,2,RK*%
%TO.N,Net-(D1-RK)*%
X129655000Y-80345000D03*
%TO.P,D3,1,A*%
%TO.N,+5V*%
X129655000Y-79655000D03*
%TD*%
%TO.P,D2,1,A*%
%TO.N,+5V*%
X84655000Y-79655000D03*
%TO.P,D2,2,RK*%
%TO.N,Net-(D1-RK)*%
X84655000Y-80345000D03*
%TO.P,D2,3,BK*%
%TO.N,Net-(D1-BK)*%
X85345000Y-80345000D03*
%TO.P,D2,4,GK*%
%TO.N,Net-(D1-GK)*%
X85345000Y-79655000D03*
%TD*%
%TO.P,D1,1,A*%
%TO.N,+5V*%
X39655000Y-79655000D03*
%TO.P,D1,2,RK*%
%TO.N,Net-(D1-RK)*%
X39655000Y-80345000D03*
%TO.P,D1,3,BK*%
%TO.N,Net-(D1-BK)*%
X40345000Y-80345000D03*
%TO.P,D1,4,GK*%
%TO.N,Net-(D1-GK)*%
X40345000Y-79655000D03*
%TD*%
D14*
%TO.N,Net-(D1-BK)*%
X172974000Y-76962000D03*
X172720000Y-80518000D03*
%TO.N,Net-(D1-RK)*%
X166116000Y-81534000D03*
X166116000Y-69088000D03*
%TO.N,Net-(D1-GK)*%
X169418000Y-72898000D03*
X169418000Y-79502000D03*
%TO.N,Net-(D1-BK)*%
X221488000Y-80518000D03*
X176784000Y-80518000D03*
X131826000Y-80518000D03*
X86614000Y-80772000D03*
X41656000Y-80518000D03*
%TO.N,Net-(D1-GK)*%
X221488000Y-79502000D03*
%TO.N,Net-(D1-RK)*%
X219202000Y-81534000D03*
%TO.N,Net-(D1-GK)*%
X176530000Y-79502000D03*
%TO.N,Net-(D1-RK)*%
X174244000Y-81534000D03*
%TO.N,Net-(D1-GK)*%
X131572000Y-79502000D03*
%TO.N,Net-(D1-RK)*%
X129286000Y-81534000D03*
%TO.N,Net-(D1-GK)*%
X86614000Y-79502000D03*
%TO.N,Net-(D1-RK)*%
X84074000Y-81534000D03*
%TO.N,Net-(D1-GK)*%
X41402000Y-79502000D03*
%TO.N,Net-(D1-RK)*%
X39116000Y-81534000D03*
%TD*%
D15*
%TO.N,Net-(D1-BK)*%
X172720000Y-77216000D02*
X172720000Y-80518000D01*
X172974000Y-76962000D02*
X172720000Y-77216000D01*
%TO.N,Net-(D1-RK)*%
X166116000Y-69088000D02*
X166116000Y-81534000D01*
%TO.N,Net-(D1-GK)*%
X169418000Y-72898000D02*
X169418000Y-79502000D01*
%TO.N,Net-(D1-BK)*%
X221315000Y-80345000D02*
X221488000Y-80518000D01*
X220345000Y-80345000D02*
X221315000Y-80345000D01*
X176611000Y-80345000D02*
X176784000Y-80518000D01*
X175345000Y-80345000D02*
X176611000Y-80345000D01*
X131653000Y-80345000D02*
X131826000Y-80518000D01*
X130345000Y-80345000D02*
X131653000Y-80345000D01*
X86187000Y-80345000D02*
X86614000Y-80772000D01*
X85345000Y-80345000D02*
X86187000Y-80345000D01*
X41483000Y-80345000D02*
X41656000Y-80518000D01*
X40345000Y-80345000D02*
X41483000Y-80345000D01*
%TO.N,Net-(D1-GK)*%
X221335000Y-79655000D02*
X221488000Y-79502000D01*
X220345000Y-79655000D02*
X221335000Y-79655000D01*
%TO.N,Net-(D1-RK)*%
X219655000Y-81081000D02*
X219202000Y-81534000D01*
X219655000Y-80345000D02*
X219655000Y-81081000D01*
%TO.N,Net-(D1-GK)*%
X176377000Y-79655000D02*
X176530000Y-79502000D01*
X175345000Y-79655000D02*
X176377000Y-79655000D01*
%TO.N,Net-(D1-RK)*%
X174655000Y-81123000D02*
X174244000Y-81534000D01*
X174655000Y-80345000D02*
X174655000Y-81123000D01*
%TO.N,Net-(D1-GK)*%
X131419000Y-79655000D02*
X131572000Y-79502000D01*
X130345000Y-79655000D02*
X131419000Y-79655000D01*
%TO.N,Net-(D1-RK)*%
X129655000Y-81165000D02*
X129286000Y-81534000D01*
X129655000Y-80345000D02*
X129655000Y-81165000D01*
%TO.N,Net-(D1-GK)*%
X86461000Y-79655000D02*
X86614000Y-79502000D01*
X85345000Y-79655000D02*
X86461000Y-79655000D01*
%TO.N,Net-(D1-RK)*%
X84655000Y-80953000D02*
X84074000Y-81534000D01*
X84655000Y-80345000D02*
X84655000Y-80953000D01*
%TO.N,Net-(D1-GK)*%
X41249000Y-79655000D02*
X41402000Y-79502000D01*
X40345000Y-79655000D02*
X41249000Y-79655000D01*
%TO.N,Net-(D1-RK)*%
X39655000Y-80995000D02*
X39116000Y-81534000D01*
X39655000Y-80345000D02*
X39655000Y-80995000D01*
%TD*%
%TA.AperFunction,Conductor*%
%TO.N,+5V*%
G36*
X197314112Y-66195185D02*
G01*
X197359867Y-66247989D01*
X197369811Y-66317147D01*
X197340786Y-66380703D01*
X197338303Y-66383483D01*
X197273728Y-66453629D01*
X197147782Y-66646405D01*
X197055282Y-66857285D01*
X196998753Y-67080515D01*
X196979738Y-67309994D01*
X196979738Y-67310005D01*
X196998753Y-67539484D01*
X197055282Y-67762714D01*
X197147782Y-67973594D01*
X197273728Y-68166370D01*
X197273731Y-68166373D01*
X197429692Y-68335792D01*
X197611411Y-68477229D01*
X197813931Y-68586828D01*
X197927025Y-68625653D01*
X198031725Y-68661597D01*
X198031727Y-68661597D01*
X198031729Y-68661598D01*
X198258863Y-68699500D01*
X198258864Y-68699500D01*
X198489136Y-68699500D01*
X198489137Y-68699500D01*
X198716271Y-68661598D01*
X198934069Y-68586828D01*
X199136589Y-68477229D01*
X199318308Y-68335792D01*
X199474269Y-68166373D01*
X199540190Y-68065472D01*
X199593337Y-68020115D01*
X199662569Y-68010691D01*
X199725905Y-68040193D01*
X199747809Y-68065472D01*
X199813728Y-68166370D01*
X199813731Y-68166373D01*
X199969692Y-68335792D01*
X200151411Y-68477229D01*
X200353931Y-68586828D01*
X200467025Y-68625653D01*
X200571725Y-68661597D01*
X200571727Y-68661597D01*
X200571729Y-68661598D01*
X200798863Y-68699500D01*
X200798864Y-68699500D01*
X201029136Y-68699500D01*
X201029137Y-68699500D01*
X201256271Y-68661598D01*
X201474069Y-68586828D01*
X201676589Y-68477229D01*
X201858308Y-68335792D01*
X202014269Y-68166373D01*
X202080190Y-68065472D01*
X202133337Y-68020115D01*
X202202569Y-68010691D01*
X202265905Y-68040193D01*
X202287809Y-68065472D01*
X202353728Y-68166370D01*
X202353731Y-68166373D01*
X202509692Y-68335792D01*
X202691411Y-68477229D01*
X202893931Y-68586828D01*
X203007025Y-68625653D01*
X203111725Y-68661597D01*
X203111727Y-68661597D01*
X203111729Y-68661598D01*
X203338863Y-68699500D01*
X203338864Y-68699500D01*
X203569136Y-68699500D01*
X203569137Y-68699500D01*
X203796271Y-68661598D01*
X204014069Y-68586828D01*
X204216589Y-68477229D01*
X204398308Y-68335792D01*
X204554269Y-68166373D01*
X204620191Y-68065470D01*
X204673336Y-68020115D01*
X204742567Y-68010691D01*
X204805903Y-68040192D01*
X204827807Y-68065471D01*
X204893727Y-68166368D01*
X204893729Y-68166370D01*
X204893731Y-68166373D01*
X205049692Y-68335792D01*
X205231411Y-68477229D01*
X205433931Y-68586828D01*
X205547025Y-68625653D01*
X205651725Y-68661597D01*
X205651727Y-68661597D01*
X205651729Y-68661598D01*
X205878863Y-68699500D01*
X205878864Y-68699500D01*
X206109136Y-68699500D01*
X206109137Y-68699500D01*
X206336271Y-68661598D01*
X206554069Y-68586828D01*
X206756589Y-68477229D01*
X206938308Y-68335792D01*
X207094269Y-68166373D01*
X207160190Y-68065472D01*
X207213337Y-68020115D01*
X207282569Y-68010691D01*
X207345905Y-68040193D01*
X207367809Y-68065472D01*
X207433728Y-68166370D01*
X207433731Y-68166373D01*
X207589692Y-68335792D01*
X207771411Y-68477229D01*
X207973931Y-68586828D01*
X208087025Y-68625653D01*
X208191725Y-68661597D01*
X208191727Y-68661597D01*
X208191729Y-68661598D01*
X208418863Y-68699500D01*
X208418864Y-68699500D01*
X208649136Y-68699500D01*
X208649137Y-68699500D01*
X208876271Y-68661598D01*
X209094069Y-68586828D01*
X209296589Y-68477229D01*
X209478308Y-68335792D01*
X209634269Y-68166373D01*
X209700190Y-68065472D01*
X209753337Y-68020115D01*
X209822569Y-68010691D01*
X209885905Y-68040193D01*
X209907809Y-68065472D01*
X209973728Y-68166370D01*
X209973731Y-68166373D01*
X210129692Y-68335792D01*
X210311411Y-68477229D01*
X210513931Y-68586828D01*
X210627025Y-68625653D01*
X210731725Y-68661597D01*
X210731727Y-68661597D01*
X210731729Y-68661598D01*
X210958863Y-68699500D01*
X210958864Y-68699500D01*
X211189136Y-68699500D01*
X211189137Y-68699500D01*
X211416271Y-68661598D01*
X211634069Y-68586828D01*
X211836589Y-68477229D01*
X212018308Y-68335792D01*
X212174269Y-68166373D01*
X212240190Y-68065472D01*
X212293337Y-68020115D01*
X212362569Y-68010691D01*
X212425905Y-68040193D01*
X212447809Y-68065472D01*
X212513728Y-68166370D01*
X212513731Y-68166373D01*
X212669692Y-68335792D01*
X212851411Y-68477229D01*
X213053931Y-68586828D01*
X213167025Y-68625653D01*
X213271725Y-68661597D01*
X213271727Y-68661597D01*
X213271729Y-68661598D01*
X213498863Y-68699500D01*
X213498864Y-68699500D01*
X213729136Y-68699500D01*
X213729137Y-68699500D01*
X213956271Y-68661598D01*
X214174069Y-68586828D01*
X214376589Y-68477229D01*
X214558308Y-68335792D01*
X214714269Y-68166373D01*
X214780190Y-68065472D01*
X214833337Y-68020115D01*
X214902569Y-68010691D01*
X214965905Y-68040193D01*
X214987809Y-68065472D01*
X215053728Y-68166370D01*
X215053731Y-68166373D01*
X215209692Y-68335792D01*
X215391411Y-68477229D01*
X215593931Y-68586828D01*
X215707025Y-68625653D01*
X215811725Y-68661597D01*
X215811727Y-68661597D01*
X215811729Y-68661598D01*
X216038863Y-68699500D01*
X216038864Y-68699500D01*
X216269136Y-68699500D01*
X216269137Y-68699500D01*
X216496271Y-68661598D01*
X216714069Y-68586828D01*
X216790824Y-68545289D01*
X216859152Y-68530694D01*
X216924524Y-68555356D01*
X216966185Y-68611446D01*
X216970909Y-68681156D01*
X216965035Y-68700241D01*
X216867674Y-68944600D01*
X216867672Y-68944607D01*
X216771932Y-69289434D01*
X216771926Y-69289460D01*
X216714029Y-69642614D01*
X216714028Y-69642631D01*
X216694652Y-69999997D01*
X216694652Y-70000002D01*
X216714028Y-70357368D01*
X216714029Y-70357385D01*
X216771926Y-70710539D01*
X216771932Y-70710565D01*
X216867672Y-71055392D01*
X216867674Y-71055399D01*
X217000142Y-71387870D01*
X217000151Y-71387888D01*
X217167784Y-71704077D01*
X217167790Y-71704086D01*
X217368634Y-72000309D01*
X217368641Y-72000319D01*
X217600331Y-72273085D01*
X217600332Y-72273086D01*
X217860163Y-72519211D01*
X218145081Y-72735800D01*
X218451747Y-72920315D01*
X218451749Y-72920316D01*
X218451751Y-72920317D01*
X218451755Y-72920319D01*
X218776552Y-73070585D01*
X218776565Y-73070591D01*
X219115726Y-73184868D01*
X219465254Y-73261805D01*
X219821052Y-73300500D01*
X219821058Y-73300500D01*
X220178942Y-73300500D01*
X220178948Y-73300500D01*
X220534746Y-73261805D01*
X220884274Y-73184868D01*
X221223435Y-73070591D01*
X221548253Y-72920315D01*
X221854919Y-72735800D01*
X222139837Y-72519211D01*
X222399668Y-72273086D01*
X222631365Y-72000311D01*
X222832211Y-71704085D01*
X222999853Y-71387880D01*
X223132324Y-71055403D01*
X223228071Y-70710552D01*
X223285972Y-70357371D01*
X223305348Y-70000000D01*
X223285972Y-69642629D01*
X223282297Y-69620214D01*
X223228073Y-69289460D01*
X223228072Y-69289459D01*
X223228071Y-69289448D01*
X223195931Y-69173690D01*
X223132327Y-68944607D01*
X223132325Y-68944600D01*
X222999857Y-68612129D01*
X222999848Y-68612111D01*
X222999495Y-68611446D01*
X222853353Y-68335792D01*
X222832215Y-68295922D01*
X222832213Y-68295919D01*
X222832211Y-68295915D01*
X222631365Y-67999689D01*
X222631361Y-67999684D01*
X222631358Y-67999680D01*
X222399668Y-67726914D01*
X222238551Y-67574296D01*
X222139837Y-67480789D01*
X222139830Y-67480783D01*
X222139827Y-67480781D01*
X222072245Y-67429407D01*
X221854919Y-67264200D01*
X221548253Y-67079685D01*
X221548252Y-67079684D01*
X221548248Y-67079682D01*
X221548244Y-67079680D01*
X221223447Y-66929414D01*
X221223441Y-66929411D01*
X221223435Y-66929409D01*
X221053854Y-66872270D01*
X220884273Y-66815131D01*
X220534744Y-66738194D01*
X220178949Y-66699500D01*
X220178948Y-66699500D01*
X219821052Y-66699500D01*
X219821050Y-66699500D01*
X219465255Y-66738194D01*
X219115726Y-66815131D01*
X218859970Y-66901306D01*
X218776565Y-66929409D01*
X218776562Y-66929410D01*
X218776563Y-66929410D01*
X218776552Y-66929414D01*
X218451755Y-67079680D01*
X218451751Y-67079682D01*
X218223367Y-67217096D01*
X218145081Y-67264200D01*
X218084840Y-67309994D01*
X217860172Y-67480781D01*
X217860163Y-67480789D01*
X217741993Y-67592725D01*
X217679786Y-67624537D01*
X217610255Y-67617667D01*
X217555476Y-67574296D01*
X217532841Y-67508194D01*
X217533143Y-67492461D01*
X217548262Y-67310005D01*
X217548262Y-67310000D01*
X217529246Y-67080512D01*
X217472717Y-66857284D01*
X217380217Y-66646405D01*
X217355980Y-66609308D01*
X217254271Y-66453629D01*
X217189697Y-66383483D01*
X217158775Y-66320828D01*
X217166635Y-66251402D01*
X217210783Y-66197247D01*
X217277200Y-66175556D01*
X217280927Y-66175500D01*
X224575500Y-66175500D01*
X224642539Y-66195185D01*
X224688294Y-66247989D01*
X224699500Y-66299500D01*
X224699500Y-93700500D01*
X224679815Y-93767539D01*
X224627011Y-93813294D01*
X224575500Y-93824500D01*
X217299338Y-93824500D01*
X217232299Y-93804815D01*
X217186544Y-93752011D01*
X217176600Y-93682853D01*
X217205625Y-93619297D01*
X217208108Y-93616517D01*
X217254269Y-93566373D01*
X217380217Y-93373595D01*
X217472717Y-93162716D01*
X217529246Y-92939488D01*
X217548262Y-92710000D01*
X217529246Y-92480512D01*
X217472717Y-92257284D01*
X217380217Y-92046405D01*
X217355980Y-92009308D01*
X217254271Y-91853629D01*
X217227355Y-91824390D01*
X217098308Y-91684208D01*
X217030036Y-91631070D01*
X216916591Y-91542772D01*
X216714069Y-91433172D01*
X216714061Y-91433169D01*
X216496274Y-91358402D01*
X216325920Y-91329975D01*
X216269137Y-91320500D01*
X216038863Y-91320500D01*
X215993436Y-91328080D01*
X215811725Y-91358402D01*
X215593938Y-91433169D01*
X215593930Y-91433172D01*
X215391408Y-91542772D01*
X215209694Y-91684206D01*
X215209689Y-91684211D01*
X215053727Y-91853630D01*
X214987808Y-91954528D01*
X214934662Y-91999884D01*
X214865431Y-92009308D01*
X214802095Y-91979806D01*
X214780192Y-91954528D01*
X214714272Y-91853630D01*
X214677104Y-91813255D01*
X214558308Y-91684208D01*
X214490036Y-91631070D01*
X214376591Y-91542772D01*
X214174069Y-91433172D01*
X214174061Y-91433169D01*
X213956274Y-91358402D01*
X213785920Y-91329975D01*
X213729137Y-91320500D01*
X213498863Y-91320500D01*
X213453436Y-91328080D01*
X213271725Y-91358402D01*
X213053938Y-91433169D01*
X213053930Y-91433172D01*
X212851408Y-91542772D01*
X212669694Y-91684206D01*
X212669689Y-91684211D01*
X212513727Y-91853630D01*
X212447808Y-91954528D01*
X212394662Y-91999884D01*
X212325431Y-92009308D01*
X212262095Y-91979806D01*
X212240192Y-91954528D01*
X212174272Y-91853630D01*
X212137104Y-91813256D01*
X212018308Y-91684208D01*
X211950036Y-91631070D01*
X211836591Y-91542772D01*
X211634069Y-91433172D01*
X211634061Y-91433169D01*
X211416274Y-91358402D01*
X211245920Y-91329975D01*
X211189137Y-91320500D01*
X210958863Y-91320500D01*
X210913436Y-91328080D01*
X210731725Y-91358402D01*
X210513938Y-91433169D01*
X210513930Y-91433172D01*
X210311408Y-91542772D01*
X210129694Y-91684206D01*
X210129689Y-91684211D01*
X209973727Y-91853630D01*
X209907808Y-91954528D01*
X209854662Y-91999884D01*
X209785431Y-92009308D01*
X209722095Y-91979806D01*
X209700192Y-91954528D01*
X209634272Y-91853630D01*
X209597104Y-91813255D01*
X209478308Y-91684208D01*
X209410036Y-91631070D01*
X209296591Y-91542772D01*
X209094069Y-91433172D01*
X209094061Y-91433169D01*
X208876274Y-91358402D01*
X208705920Y-91329975D01*
X208649137Y-91320500D01*
X208418863Y-91320500D01*
X208373436Y-91328080D01*
X208191725Y-91358402D01*
X207973938Y-91433169D01*
X207973930Y-91433172D01*
X207771408Y-91542772D01*
X207589694Y-91684206D01*
X207589689Y-91684211D01*
X207433727Y-91853630D01*
X207367808Y-91954528D01*
X207314662Y-91999884D01*
X207245431Y-92009308D01*
X207182095Y-91979806D01*
X207160192Y-91954528D01*
X207094272Y-91853630D01*
X207057104Y-91813256D01*
X206938308Y-91684208D01*
X206870036Y-91631070D01*
X206756591Y-91542772D01*
X206554069Y-91433172D01*
X206554061Y-91433169D01*
X206336274Y-91358402D01*
X206165920Y-91329975D01*
X206109137Y-91320500D01*
X205878863Y-91320500D01*
X205833436Y-91328080D01*
X205651725Y-91358402D01*
X205433938Y-91433169D01*
X205433930Y-91433172D01*
X205231408Y-91542772D01*
X205049694Y-91684206D01*
X205049689Y-91684211D01*
X204893727Y-91853630D01*
X204827808Y-91954528D01*
X204774662Y-91999884D01*
X204705431Y-92009308D01*
X204642095Y-91979806D01*
X204620192Y-91954528D01*
X204554272Y-91853630D01*
X204517104Y-91813255D01*
X204398308Y-91684208D01*
X204330036Y-91631070D01*
X204216591Y-91542772D01*
X204014069Y-91433172D01*
X204014061Y-91433169D01*
X203796274Y-91358402D01*
X203625920Y-91329975D01*
X203569137Y-91320500D01*
X203338863Y-91320500D01*
X203293436Y-91328080D01*
X203111725Y-91358402D01*
X202893938Y-91433169D01*
X202893930Y-91433172D01*
X202691408Y-91542772D01*
X202509694Y-91684206D01*
X202509689Y-91684211D01*
X202353727Y-91853630D01*
X202287808Y-91954528D01*
X202234662Y-91999884D01*
X202165431Y-92009308D01*
X202102095Y-91979806D01*
X202080192Y-91954528D01*
X202014272Y-91853630D01*
X201977104Y-91813256D01*
X201858308Y-91684208D01*
X201790036Y-91631070D01*
X201676591Y-91542772D01*
X201474069Y-91433172D01*
X201474061Y-91433169D01*
X201256274Y-91358402D01*
X201085920Y-91329975D01*
X201029137Y-91320500D01*
X200798863Y-91320500D01*
X200753436Y-91328080D01*
X200571725Y-91358402D01*
X200353938Y-91433169D01*
X200353930Y-91433172D01*
X200151408Y-91542772D01*
X199969694Y-91684206D01*
X199969689Y-91684211D01*
X199813727Y-91853630D01*
X199747808Y-91954528D01*
X199694662Y-91999884D01*
X199625431Y-92009308D01*
X199562095Y-91979806D01*
X199540192Y-91954528D01*
X199474272Y-91853630D01*
X199437104Y-91813255D01*
X199318308Y-91684208D01*
X199250036Y-91631070D01*
X199136591Y-91542772D01*
X198934069Y-91433172D01*
X198934061Y-91433169D01*
X198716274Y-91358402D01*
X198545920Y-91329975D01*
X198489137Y-91320500D01*
X198258863Y-91320500D01*
X198213436Y-91328080D01*
X198031725Y-91358402D01*
X197813938Y-91433169D01*
X197813930Y-91433172D01*
X197611408Y-91542772D01*
X197429694Y-91684206D01*
X197429689Y-91684211D01*
X197273727Y-91853630D01*
X197207808Y-91954528D01*
X197154662Y-91999884D01*
X197085431Y-92009308D01*
X197022095Y-91979806D01*
X197000192Y-91954528D01*
X196934272Y-91853630D01*
X196897104Y-91813256D01*
X196778308Y-91684208D01*
X196710036Y-91631070D01*
X196596591Y-91542772D01*
X196394069Y-91433172D01*
X196394061Y-91433169D01*
X196176274Y-91358402D01*
X196005920Y-91329975D01*
X195949137Y-91320500D01*
X195718863Y-91320500D01*
X195673436Y-91328080D01*
X195491725Y-91358402D01*
X195273938Y-91433169D01*
X195273930Y-91433172D01*
X195071408Y-91542772D01*
X194889694Y-91684206D01*
X194889689Y-91684211D01*
X194733728Y-91853629D01*
X194607782Y-92046405D01*
X194515282Y-92257285D01*
X194458753Y-92480515D01*
X194439738Y-92709994D01*
X194439738Y-92710005D01*
X194458753Y-92939484D01*
X194515282Y-93162714D01*
X194607782Y-93373594D01*
X194733728Y-93566370D01*
X194779892Y-93616517D01*
X194810814Y-93679172D01*
X194802954Y-93748598D01*
X194758807Y-93802753D01*
X194692389Y-93824444D01*
X194688662Y-93824500D01*
X35424500Y-93824500D01*
X35357461Y-93804815D01*
X35311706Y-93752011D01*
X35300500Y-93700500D01*
X35300500Y-81534000D01*
X38210540Y-81534000D01*
X38230326Y-81722256D01*
X38230327Y-81722259D01*
X38288818Y-81902277D01*
X38288821Y-81902284D01*
X38383467Y-82066216D01*
X38510128Y-82206888D01*
X38510129Y-82206888D01*
X38663265Y-82318148D01*
X38663270Y-82318151D01*
X38836192Y-82395142D01*
X38836197Y-82395144D01*
X39021354Y-82434500D01*
X39021355Y-82434500D01*
X39210644Y-82434500D01*
X39210646Y-82434500D01*
X39395803Y-82395144D01*
X39568730Y-82318151D01*
X39721871Y-82206888D01*
X39848533Y-82066216D01*
X39943179Y-81902284D01*
X40001674Y-81722256D01*
X40018932Y-81558044D01*
X40028825Y-81534000D01*
X83168540Y-81534000D01*
X83188326Y-81722256D01*
X83188327Y-81722259D01*
X83246818Y-81902277D01*
X83246821Y-81902284D01*
X83341467Y-82066216D01*
X83468128Y-82206888D01*
X83468129Y-82206888D01*
X83621265Y-82318148D01*
X83621270Y-82318151D01*
X83794192Y-82395142D01*
X83794197Y-82395144D01*
X83979354Y-82434500D01*
X83979355Y-82434500D01*
X84168644Y-82434500D01*
X84168646Y-82434500D01*
X84353803Y-82395144D01*
X84526730Y-82318151D01*
X84679871Y-82206888D01*
X84806533Y-82066216D01*
X84901179Y-81902284D01*
X84959674Y-81722256D01*
X84977321Y-81554344D01*
X85003904Y-81489734D01*
X85012951Y-81479638D01*
X85038788Y-81453801D01*
X85051042Y-81443986D01*
X85050859Y-81443764D01*
X85056868Y-81438791D01*
X85056877Y-81438786D01*
X85103607Y-81389022D01*
X85104846Y-81387743D01*
X85125120Y-81367471D01*
X85129379Y-81361978D01*
X85133152Y-81357561D01*
X85165062Y-81323582D01*
X85174713Y-81306024D01*
X85185396Y-81289761D01*
X85197673Y-81273936D01*
X85216185Y-81231153D01*
X85218738Y-81225941D01*
X85241197Y-81185092D01*
X85246180Y-81165680D01*
X85252481Y-81147280D01*
X85260437Y-81128896D01*
X85261908Y-81119603D01*
X85291836Y-81056469D01*
X85351146Y-81019536D01*
X85384382Y-81014999D01*
X85577871Y-81014999D01*
X85577872Y-81014999D01*
X85637483Y-81008591D01*
X85637484Y-81008590D01*
X85640354Y-81008282D01*
X85709113Y-81020688D01*
X85760250Y-81068299D01*
X85771539Y-81093252D01*
X85786818Y-81140277D01*
X85786821Y-81140284D01*
X85881467Y-81304216D01*
X85995697Y-81431081D01*
X86008129Y-81444888D01*
X86161265Y-81556148D01*
X86161270Y-81556151D01*
X86334192Y-81633142D01*
X86334197Y-81633144D01*
X86519354Y-81672500D01*
X86519355Y-81672500D01*
X86708644Y-81672500D01*
X86708646Y-81672500D01*
X86893803Y-81633144D01*
X87066730Y-81556151D01*
X87097218Y-81534000D01*
X128380540Y-81534000D01*
X128400326Y-81722256D01*
X128400327Y-81722259D01*
X128458818Y-81902277D01*
X128458821Y-81902284D01*
X128553467Y-82066216D01*
X128680128Y-82206888D01*
X128680129Y-82206888D01*
X128833265Y-82318148D01*
X128833270Y-82318151D01*
X129006192Y-82395142D01*
X129006197Y-82395144D01*
X129191354Y-82434500D01*
X129191355Y-82434500D01*
X129380644Y-82434500D01*
X129380646Y-82434500D01*
X129565803Y-82395144D01*
X129738730Y-82318151D01*
X129891871Y-82206888D01*
X130018533Y-82066216D01*
X130113179Y-81902284D01*
X130171674Y-81722256D01*
X130191460Y-81534000D01*
X165210540Y-81534000D01*
X165230326Y-81722256D01*
X165230327Y-81722259D01*
X165288818Y-81902277D01*
X165288821Y-81902284D01*
X165383467Y-82066216D01*
X165510128Y-82206888D01*
X165510129Y-82206888D01*
X165663265Y-82318148D01*
X165663270Y-82318151D01*
X165836192Y-82395142D01*
X165836197Y-82395144D01*
X166021354Y-82434500D01*
X166021355Y-82434500D01*
X166210644Y-82434500D01*
X166210646Y-82434500D01*
X166395803Y-82395144D01*
X166568730Y-82318151D01*
X166721871Y-82206888D01*
X166848533Y-82066216D01*
X166943179Y-81902284D01*
X167001674Y-81722256D01*
X167021460Y-81534000D01*
X167001674Y-81345744D01*
X166943179Y-81165716D01*
X166848533Y-81001784D01*
X166811141Y-80960256D01*
X166773350Y-80918284D01*
X166743120Y-80855292D01*
X166741500Y-80835312D01*
X166741500Y-80518000D01*
X171814540Y-80518000D01*
X171834326Y-80706256D01*
X171834327Y-80706259D01*
X171892818Y-80886277D01*
X171892821Y-80886284D01*
X171987467Y-81050216D01*
X172096128Y-81170896D01*
X172114129Y-81190888D01*
X172267265Y-81302148D01*
X172267270Y-81302151D01*
X172440192Y-81379142D01*
X172440197Y-81379144D01*
X172625354Y-81418500D01*
X172625355Y-81418500D01*
X172814644Y-81418500D01*
X172814646Y-81418500D01*
X172999803Y-81379144D01*
X173172730Y-81302151D01*
X173172730Y-81302150D01*
X173176038Y-81300678D01*
X173245288Y-81291393D01*
X173308564Y-81321021D01*
X173345778Y-81380155D01*
X173349794Y-81426915D01*
X173338540Y-81534000D01*
X173358326Y-81722256D01*
X173358327Y-81722259D01*
X173416818Y-81902277D01*
X173416821Y-81902284D01*
X173511467Y-82066216D01*
X173638128Y-82206888D01*
X173638129Y-82206888D01*
X173791265Y-82318148D01*
X173791270Y-82318151D01*
X173964192Y-82395142D01*
X173964197Y-82395144D01*
X174149354Y-82434500D01*
X174149355Y-82434500D01*
X174338644Y-82434500D01*
X174338646Y-82434500D01*
X174523803Y-82395144D01*
X174696730Y-82318151D01*
X174849871Y-82206888D01*
X174976533Y-82066216D01*
X175071179Y-81902284D01*
X175129674Y-81722256D01*
X175148411Y-81543977D01*
X175151538Y-81534000D01*
X218296540Y-81534000D01*
X218316326Y-81722256D01*
X218316327Y-81722259D01*
X218374818Y-81902277D01*
X218374821Y-81902284D01*
X218469467Y-82066216D01*
X218596129Y-82206888D01*
X218749265Y-82318148D01*
X218749270Y-82318151D01*
X218922192Y-82395142D01*
X218922197Y-82395144D01*
X219107354Y-82434500D01*
X219107355Y-82434500D01*
X219296644Y-82434500D01*
X219296646Y-82434500D01*
X219481803Y-82395144D01*
X219654730Y-82318151D01*
X219807871Y-82206888D01*
X219934533Y-82066216D01*
X220029179Y-81902284D01*
X220087674Y-81722256D01*
X220105592Y-81551764D01*
X220132176Y-81487152D01*
X220138523Y-81479842D01*
X220141170Y-81477024D01*
X220165062Y-81451582D01*
X220174714Y-81434023D01*
X220185389Y-81417772D01*
X220197674Y-81401936D01*
X220216186Y-81359152D01*
X220218742Y-81353935D01*
X220239633Y-81315937D01*
X220241194Y-81313098D01*
X220241194Y-81313097D01*
X220241197Y-81313092D01*
X220246180Y-81293680D01*
X220252477Y-81275291D01*
X220260438Y-81256895D01*
X220267729Y-81210853D01*
X220268906Y-81205166D01*
X220280500Y-81160019D01*
X220280499Y-81139986D01*
X220282036Y-81120527D01*
X220282193Y-81119539D01*
X220312154Y-81056419D01*
X220371485Y-81019518D01*
X220404656Y-81014999D01*
X220577871Y-81014999D01*
X220577872Y-81014999D01*
X220637483Y-81008591D01*
X220637482Y-81008591D01*
X220645196Y-81007762D01*
X220645491Y-81010507D01*
X220702119Y-81013537D01*
X220753027Y-81047506D01*
X220755466Y-81050215D01*
X220755467Y-81050216D01*
X220820091Y-81121988D01*
X220882129Y-81190888D01*
X221035265Y-81302148D01*
X221035270Y-81302151D01*
X221208192Y-81379142D01*
X221208197Y-81379144D01*
X221393354Y-81418500D01*
X221393355Y-81418500D01*
X221582644Y-81418500D01*
X221582646Y-81418500D01*
X221767803Y-81379144D01*
X221940730Y-81302151D01*
X222093871Y-81190888D01*
X222220533Y-81050216D01*
X222315179Y-80886284D01*
X222373674Y-80706256D01*
X222393460Y-80518000D01*
X222373674Y-80329744D01*
X222315179Y-80149716D01*
X222270308Y-80071996D01*
X222253836Y-80004100D01*
X222270307Y-79948003D01*
X222315179Y-79870284D01*
X222373674Y-79690256D01*
X222393460Y-79502000D01*
X222373674Y-79313744D01*
X222315179Y-79133716D01*
X222220533Y-78969784D01*
X222093871Y-78829112D01*
X222093867Y-78829109D01*
X221940734Y-78717851D01*
X221940729Y-78717848D01*
X221767807Y-78640857D01*
X221767802Y-78640855D01*
X221622001Y-78609865D01*
X221582646Y-78601500D01*
X221393354Y-78601500D01*
X221360897Y-78608398D01*
X221208197Y-78640855D01*
X221208192Y-78640857D01*
X221035270Y-78717848D01*
X221035265Y-78717851D01*
X220882132Y-78829109D01*
X220767675Y-78956226D01*
X220708188Y-78992874D01*
X220645393Y-78991677D01*
X220645035Y-78993193D01*
X220637491Y-78991410D01*
X220637483Y-78991409D01*
X220577873Y-78985000D01*
X220577863Y-78985000D01*
X220112129Y-78985000D01*
X220112123Y-78985001D01*
X220052516Y-78991408D01*
X219917671Y-79041702D01*
X219917664Y-79041706D01*
X219802455Y-79127952D01*
X219802452Y-79127955D01*
X219716206Y-79243164D01*
X219716202Y-79243171D01*
X219665908Y-79378017D01*
X219659501Y-79437616D01*
X219659500Y-79437635D01*
X219659500Y-79551000D01*
X219639815Y-79618039D01*
X219587011Y-79663794D01*
X219535501Y-79675000D01*
X219422130Y-79675000D01*
X219422123Y-79675001D01*
X219362516Y-79681408D01*
X219227671Y-79731702D01*
X219227664Y-79731706D01*
X219112455Y-79817952D01*
X219112452Y-79817955D01*
X219026206Y-79933164D01*
X219026202Y-79933171D01*
X218975910Y-80068013D01*
X218975909Y-80068017D01*
X218969500Y-80127627D01*
X218969500Y-80127634D01*
X218969500Y-80127635D01*
X218969500Y-80562386D01*
X218969615Y-80564520D01*
X218969500Y-80565002D01*
X218969501Y-80565693D01*
X218969338Y-80565693D01*
X218953537Y-80632515D01*
X218903250Y-80681023D01*
X218896229Y-80684417D01*
X218749267Y-80749850D01*
X218749265Y-80749851D01*
X218596129Y-80861111D01*
X218469466Y-81001785D01*
X218374821Y-81165715D01*
X218374818Y-81165722D01*
X218320871Y-81331755D01*
X218316326Y-81345744D01*
X218296540Y-81534000D01*
X175151538Y-81534000D01*
X175163069Y-81497206D01*
X175165060Y-81493583D01*
X175165062Y-81493582D01*
X175174714Y-81476023D01*
X175185389Y-81459772D01*
X175197674Y-81443936D01*
X175216186Y-81401152D01*
X175218742Y-81395935D01*
X175241197Y-81355092D01*
X175246180Y-81335680D01*
X175252477Y-81317291D01*
X175260438Y-81298895D01*
X175267729Y-81252853D01*
X175268908Y-81247162D01*
X175280500Y-81202019D01*
X175280500Y-81181983D01*
X175282027Y-81162582D01*
X175283033Y-81156235D01*
X175285160Y-81142804D01*
X175285159Y-81142803D01*
X175285402Y-81135104D01*
X175307183Y-81068716D01*
X175361398Y-81024642D01*
X175409341Y-81014999D01*
X175577871Y-81014999D01*
X175577872Y-81014999D01*
X175637483Y-81008591D01*
X175718648Y-80978318D01*
X175761982Y-80970500D01*
X175933851Y-80970500D01*
X176000890Y-80990185D01*
X176041237Y-81032499D01*
X176051463Y-81050211D01*
X176051465Y-81050214D01*
X176178129Y-81190888D01*
X176331265Y-81302148D01*
X176331270Y-81302151D01*
X176504192Y-81379142D01*
X176504197Y-81379144D01*
X176689354Y-81418500D01*
X176689355Y-81418500D01*
X176878644Y-81418500D01*
X176878646Y-81418500D01*
X177063803Y-81379144D01*
X177236730Y-81302151D01*
X177389871Y-81190888D01*
X177516533Y-81050216D01*
X177611179Y-80886284D01*
X177669674Y-80706256D01*
X177689460Y-80518000D01*
X177669674Y-80329744D01*
X177611179Y-80149716D01*
X177516533Y-79985784D01*
X177516533Y-79985783D01*
X177419762Y-79878308D01*
X177389532Y-79815316D01*
X177393980Y-79757019D01*
X177415674Y-79690256D01*
X177435460Y-79502000D01*
X177415674Y-79313744D01*
X177357179Y-79133716D01*
X177262533Y-78969784D01*
X177135871Y-78829112D01*
X177135867Y-78829109D01*
X176982734Y-78717851D01*
X176982729Y-78717848D01*
X176809807Y-78640857D01*
X176809802Y-78640855D01*
X176664000Y-78609865D01*
X176624646Y-78601500D01*
X176435354Y-78601500D01*
X176402897Y-78608398D01*
X176250197Y-78640855D01*
X176250192Y-78640857D01*
X176077270Y-78717848D01*
X176077265Y-78717851D01*
X175924132Y-78829109D01*
X175799116Y-78967953D01*
X175739629Y-79004601D01*
X175669772Y-79003270D01*
X175663633Y-79001162D01*
X175637486Y-78991410D01*
X175637485Y-78991409D01*
X175637483Y-78991409D01*
X175577873Y-78985000D01*
X175577863Y-78985000D01*
X175112129Y-78985000D01*
X175112123Y-78985001D01*
X175052516Y-78991408D01*
X174917671Y-79041702D01*
X174917664Y-79041706D01*
X174802455Y-79127952D01*
X174802452Y-79127955D01*
X174716206Y-79243164D01*
X174716202Y-79243171D01*
X174665908Y-79378017D01*
X174659501Y-79437616D01*
X174659500Y-79437635D01*
X174659500Y-79551000D01*
X174639815Y-79618039D01*
X174587011Y-79663794D01*
X174535501Y-79675000D01*
X174422130Y-79675000D01*
X174422123Y-79675001D01*
X174362516Y-79681408D01*
X174227671Y-79731702D01*
X174227664Y-79731706D01*
X174112455Y-79817952D01*
X174112452Y-79817955D01*
X174026206Y-79933164D01*
X174026202Y-79933171D01*
X173975910Y-80068013D01*
X173975909Y-80068017D01*
X173969500Y-80127627D01*
X173969500Y-80127634D01*
X173969500Y-80127635D01*
X173969500Y-80562370D01*
X173969502Y-80562391D01*
X173970939Y-80575764D01*
X173958530Y-80644522D01*
X173910916Y-80695657D01*
X173898085Y-80702290D01*
X173787961Y-80751321D01*
X173718711Y-80760606D01*
X173655434Y-80730978D01*
X173618221Y-80671843D01*
X173614204Y-80625088D01*
X173625460Y-80518000D01*
X173605674Y-80329744D01*
X173547179Y-80149716D01*
X173452533Y-79985784D01*
X173377350Y-79902284D01*
X173347120Y-79839292D01*
X173345500Y-79819312D01*
X173345500Y-77862843D01*
X173365185Y-77795804D01*
X173417989Y-77750049D01*
X173418958Y-77749611D01*
X173426730Y-77746151D01*
X173579871Y-77634888D01*
X173706533Y-77494216D01*
X173801179Y-77330284D01*
X173859674Y-77150256D01*
X173879460Y-76962000D01*
X173859674Y-76773744D01*
X173801179Y-76593716D01*
X173706533Y-76429784D01*
X173579871Y-76289112D01*
X173579870Y-76289111D01*
X173426734Y-76177851D01*
X173426729Y-76177848D01*
X173253807Y-76100857D01*
X173253802Y-76100855D01*
X173108001Y-76069865D01*
X173068646Y-76061500D01*
X172879354Y-76061500D01*
X172846897Y-76068398D01*
X172694197Y-76100855D01*
X172694192Y-76100857D01*
X172521270Y-76177848D01*
X172521265Y-76177851D01*
X172368129Y-76289111D01*
X172241466Y-76429785D01*
X172146821Y-76593715D01*
X172146818Y-76593722D01*
X172088327Y-76773740D01*
X172088326Y-76773744D01*
X172068539Y-76961999D01*
X172068540Y-76962000D01*
X172088325Y-77150256D01*
X172088585Y-77151476D01*
X172088628Y-77153137D01*
X172089005Y-77156719D01*
X172088723Y-77156748D01*
X172089552Y-77188383D01*
X172090085Y-77188400D01*
X172089840Y-77196195D01*
X172094225Y-77242583D01*
X172094500Y-77248421D01*
X172094500Y-79819312D01*
X172074815Y-79886351D01*
X172062650Y-79902284D01*
X171987466Y-79985784D01*
X171892821Y-80149715D01*
X171892818Y-80149722D01*
X171848491Y-80286148D01*
X171834326Y-80329744D01*
X171814540Y-80518000D01*
X166741500Y-80518000D01*
X166741500Y-79502000D01*
X168512540Y-79502000D01*
X168532326Y-79690256D01*
X168532327Y-79690259D01*
X168590818Y-79870277D01*
X168590819Y-79870279D01*
X168590821Y-79870284D01*
X168685467Y-80034216D01*
X168812128Y-80174888D01*
X168812129Y-80174888D01*
X168965265Y-80286148D01*
X168965270Y-80286151D01*
X169138192Y-80363142D01*
X169138197Y-80363144D01*
X169323354Y-80402500D01*
X169323355Y-80402500D01*
X169512644Y-80402500D01*
X169512646Y-80402500D01*
X169697803Y-80363144D01*
X169870730Y-80286151D01*
X170023871Y-80174888D01*
X170150533Y-80034216D01*
X170245179Y-79870284D01*
X170303674Y-79690256D01*
X170323460Y-79502000D01*
X170303674Y-79313744D01*
X170245179Y-79133716D01*
X170150533Y-78969784D01*
X170128708Y-78945545D01*
X170075350Y-78886284D01*
X170045120Y-78823292D01*
X170043500Y-78803312D01*
X170043500Y-73596687D01*
X170063185Y-73529648D01*
X170075350Y-73513715D01*
X170093891Y-73493122D01*
X170150533Y-73430216D01*
X170245179Y-73266284D01*
X170303674Y-73086256D01*
X170323460Y-72898000D01*
X170303674Y-72709744D01*
X170245179Y-72529716D01*
X170150533Y-72365784D01*
X170023871Y-72225112D01*
X170023870Y-72225111D01*
X169870734Y-72113851D01*
X169870729Y-72113848D01*
X169697807Y-72036857D01*
X169697802Y-72036855D01*
X169525908Y-72000319D01*
X169512646Y-71997500D01*
X169323354Y-71997500D01*
X169310092Y-72000319D01*
X169138197Y-72036855D01*
X169138192Y-72036857D01*
X168965270Y-72113848D01*
X168965265Y-72113851D01*
X168812129Y-72225111D01*
X168685466Y-72365785D01*
X168590821Y-72529715D01*
X168590818Y-72529722D01*
X168532327Y-72709740D01*
X168532326Y-72709744D01*
X168512540Y-72898000D01*
X168532326Y-73086256D01*
X168532327Y-73086259D01*
X168590818Y-73266277D01*
X168590821Y-73266284D01*
X168685467Y-73430216D01*
X168728772Y-73478310D01*
X168760650Y-73513715D01*
X168790880Y-73576706D01*
X168792500Y-73596687D01*
X168792500Y-78803312D01*
X168772815Y-78870351D01*
X168760650Y-78886284D01*
X168685466Y-78969784D01*
X168590821Y-79133715D01*
X168590818Y-79133722D01*
X168532327Y-79313740D01*
X168532326Y-79313744D01*
X168512540Y-79502000D01*
X166741500Y-79502000D01*
X166741500Y-69786687D01*
X166761185Y-69719648D01*
X166773350Y-69703715D01*
X166791891Y-69683122D01*
X166848533Y-69620216D01*
X166943179Y-69456284D01*
X167001674Y-69276256D01*
X167021460Y-69088000D01*
X167001674Y-68899744D01*
X166943179Y-68719716D01*
X166848533Y-68555784D01*
X166721871Y-68415112D01*
X166721870Y-68415111D01*
X166568734Y-68303851D01*
X166568729Y-68303848D01*
X166395807Y-68226857D01*
X166395802Y-68226855D01*
X166250000Y-68195865D01*
X166210646Y-68187500D01*
X166021354Y-68187500D01*
X165988897Y-68194398D01*
X165836197Y-68226855D01*
X165836192Y-68226857D01*
X165663270Y-68303848D01*
X165663265Y-68303851D01*
X165510129Y-68415111D01*
X165383466Y-68555785D01*
X165288821Y-68719715D01*
X165288818Y-68719722D01*
X165230327Y-68899740D01*
X165230326Y-68899744D01*
X165210540Y-69088000D01*
X165230326Y-69276256D01*
X165230327Y-69276259D01*
X165288818Y-69456277D01*
X165288821Y-69456284D01*
X165383467Y-69620216D01*
X165403648Y-69642629D01*
X165458650Y-69703715D01*
X165488880Y-69766706D01*
X165490500Y-69786687D01*
X165490500Y-80835312D01*
X165470815Y-80902351D01*
X165458650Y-80918284D01*
X165383466Y-81001784D01*
X165288821Y-81165715D01*
X165288818Y-81165722D01*
X165234871Y-81331755D01*
X165230326Y-81345744D01*
X165210540Y-81534000D01*
X130191460Y-81534000D01*
X130191460Y-81533997D01*
X130191460Y-81527500D01*
X130193820Y-81527500D01*
X130201527Y-81477029D01*
X130216187Y-81443150D01*
X130218740Y-81437939D01*
X130241197Y-81397092D01*
X130246177Y-81377691D01*
X130252478Y-81359288D01*
X130260438Y-81340896D01*
X130267730Y-81294849D01*
X130268911Y-81289152D01*
X130280500Y-81244019D01*
X130280500Y-81223983D01*
X130282027Y-81204582D01*
X130282433Y-81202019D01*
X130285160Y-81184804D01*
X130281933Y-81150668D01*
X130295221Y-81082074D01*
X130343485Y-81031553D01*
X130405383Y-81014999D01*
X130577871Y-81014999D01*
X130577872Y-81014999D01*
X130637483Y-81008591D01*
X130718648Y-80978318D01*
X130761982Y-80970500D01*
X130975851Y-80970500D01*
X131042890Y-80990185D01*
X131083237Y-81032499D01*
X131093463Y-81050211D01*
X131093465Y-81050214D01*
X131220129Y-81190888D01*
X131373265Y-81302148D01*
X131373270Y-81302151D01*
X131546192Y-81379142D01*
X131546197Y-81379144D01*
X131731354Y-81418500D01*
X131731355Y-81418500D01*
X131920644Y-81418500D01*
X131920646Y-81418500D01*
X132105803Y-81379144D01*
X132278730Y-81302151D01*
X132431871Y-81190888D01*
X132558533Y-81050216D01*
X132653179Y-80886284D01*
X132711674Y-80706256D01*
X132731460Y-80518000D01*
X132711674Y-80329744D01*
X132653179Y-80149716D01*
X132558533Y-79985784D01*
X132558533Y-79985783D01*
X132461762Y-79878308D01*
X132431532Y-79815316D01*
X132435980Y-79757019D01*
X132457674Y-79690256D01*
X132477460Y-79502000D01*
X132457674Y-79313744D01*
X132399179Y-79133716D01*
X132304533Y-78969784D01*
X132177871Y-78829112D01*
X132177867Y-78829109D01*
X132024734Y-78717851D01*
X132024729Y-78717848D01*
X131851807Y-78640857D01*
X131851802Y-78640855D01*
X131706000Y-78609865D01*
X131666646Y-78601500D01*
X131477354Y-78601500D01*
X131444897Y-78608398D01*
X131292197Y-78640855D01*
X131292192Y-78640857D01*
X131119270Y-78717848D01*
X131119265Y-78717851D01*
X130966129Y-78829111D01*
X130839461Y-78969790D01*
X130839410Y-78969861D01*
X130839369Y-78969891D01*
X130835119Y-78974613D01*
X130834255Y-78973835D01*
X130784076Y-79012521D01*
X130714462Y-79018493D01*
X130695767Y-79013147D01*
X130637486Y-78991410D01*
X130637485Y-78991409D01*
X130637483Y-78991409D01*
X130577873Y-78985000D01*
X130577863Y-78985000D01*
X130112129Y-78985000D01*
X130112123Y-78985001D01*
X130052516Y-78991408D01*
X129917671Y-79041702D01*
X129917664Y-79041706D01*
X129802455Y-79127952D01*
X129802452Y-79127955D01*
X129716206Y-79243164D01*
X129716202Y-79243171D01*
X129665908Y-79378017D01*
X129659501Y-79437616D01*
X129659500Y-79437635D01*
X129659500Y-79551000D01*
X129639815Y-79618039D01*
X129587011Y-79663794D01*
X129535501Y-79675000D01*
X129422130Y-79675000D01*
X129422123Y-79675001D01*
X129362516Y-79681408D01*
X129227671Y-79731702D01*
X129227664Y-79731706D01*
X129112455Y-79817952D01*
X129112452Y-79817955D01*
X129026206Y-79933164D01*
X129026202Y-79933171D01*
X128975910Y-80068013D01*
X128975909Y-80068017D01*
X128969500Y-80127627D01*
X128969500Y-80127634D01*
X128969500Y-80127635D01*
X128969500Y-80562370D01*
X128969501Y-80562376D01*
X128972858Y-80593603D01*
X128960451Y-80662362D01*
X128912840Y-80713499D01*
X128900006Y-80720135D01*
X128833266Y-80749850D01*
X128680129Y-80861111D01*
X128553466Y-81001785D01*
X128458821Y-81165715D01*
X128458818Y-81165722D01*
X128404871Y-81331755D01*
X128400326Y-81345744D01*
X128380540Y-81534000D01*
X87097218Y-81534000D01*
X87219871Y-81444888D01*
X87346533Y-81304216D01*
X87441179Y-81140284D01*
X87499674Y-80960256D01*
X87519460Y-80772000D01*
X87499674Y-80583744D01*
X87441179Y-80403716D01*
X87346533Y-80239784D01*
X87328693Y-80219971D01*
X87298464Y-80156981D01*
X87307089Y-80087646D01*
X87328694Y-80054028D01*
X87346533Y-80034216D01*
X87441179Y-79870284D01*
X87499674Y-79690256D01*
X87519460Y-79502000D01*
X87499674Y-79313744D01*
X87441179Y-79133716D01*
X87346533Y-78969784D01*
X87219871Y-78829112D01*
X87219867Y-78829109D01*
X87066734Y-78717851D01*
X87066729Y-78717848D01*
X86893807Y-78640857D01*
X86893802Y-78640855D01*
X86748000Y-78609865D01*
X86708646Y-78601500D01*
X86519354Y-78601500D01*
X86486897Y-78608398D01*
X86334197Y-78640855D01*
X86334192Y-78640857D01*
X86161270Y-78717848D01*
X86161265Y-78717851D01*
X86008129Y-78829111D01*
X85881465Y-78969785D01*
X85877645Y-78975044D01*
X85876073Y-78973902D01*
X85832210Y-79015720D01*
X85775398Y-79029500D01*
X85761982Y-79029500D01*
X85718649Y-79021682D01*
X85637486Y-78991410D01*
X85637485Y-78991409D01*
X85637483Y-78991409D01*
X85577873Y-78985000D01*
X85577863Y-78985000D01*
X85112129Y-78985000D01*
X85112123Y-78985001D01*
X85052516Y-78991408D01*
X84917671Y-79041702D01*
X84917664Y-79041706D01*
X84802455Y-79127952D01*
X84802452Y-79127955D01*
X84716206Y-79243164D01*
X84716202Y-79243171D01*
X84665908Y-79378017D01*
X84659501Y-79437616D01*
X84659500Y-79437635D01*
X84659500Y-79551000D01*
X84639815Y-79618039D01*
X84587011Y-79663794D01*
X84535501Y-79675000D01*
X84422130Y-79675000D01*
X84422123Y-79675001D01*
X84362516Y-79681408D01*
X84227671Y-79731702D01*
X84227664Y-79731706D01*
X84112455Y-79817952D01*
X84112452Y-79817955D01*
X84026206Y-79933164D01*
X84026202Y-79933171D01*
X83975910Y-80068013D01*
X83975909Y-80068017D01*
X83969500Y-80127627D01*
X83969500Y-80127634D01*
X83969500Y-80127635D01*
X83969500Y-80535181D01*
X83949815Y-80602220D01*
X83897011Y-80647975D01*
X83871281Y-80656471D01*
X83794197Y-80672855D01*
X83794192Y-80672857D01*
X83621270Y-80749848D01*
X83621265Y-80749851D01*
X83468129Y-80861111D01*
X83341466Y-81001785D01*
X83246821Y-81165715D01*
X83246818Y-81165722D01*
X83192871Y-81331755D01*
X83188326Y-81345744D01*
X83168540Y-81534000D01*
X40028825Y-81534000D01*
X40045515Y-81493434D01*
X40051860Y-81486126D01*
X40056871Y-81480789D01*
X40056877Y-81480786D01*
X40103606Y-81431023D01*
X40104846Y-81429743D01*
X40125120Y-81409471D01*
X40129379Y-81403978D01*
X40133152Y-81399561D01*
X40165062Y-81365582D01*
X40174713Y-81348024D01*
X40185396Y-81331761D01*
X40197673Y-81315936D01*
X40216185Y-81273153D01*
X40218738Y-81267941D01*
X40241197Y-81227092D01*
X40246180Y-81207680D01*
X40252481Y-81189280D01*
X40260437Y-81170896D01*
X40267728Y-81124860D01*
X40268905Y-81119172D01*
X40271736Y-81108147D01*
X40307483Y-81048113D01*
X40370011Y-81016935D01*
X40391838Y-81014999D01*
X40577871Y-81014999D01*
X40577872Y-81014999D01*
X40637483Y-81008591D01*
X40718648Y-80978318D01*
X40761982Y-80970500D01*
X40805851Y-80970500D01*
X40872890Y-80990185D01*
X40913237Y-81032499D01*
X40923463Y-81050211D01*
X40923465Y-81050214D01*
X41050129Y-81190888D01*
X41203265Y-81302148D01*
X41203270Y-81302151D01*
X41376192Y-81379142D01*
X41376197Y-81379144D01*
X41561354Y-81418500D01*
X41561355Y-81418500D01*
X41750644Y-81418500D01*
X41750646Y-81418500D01*
X41935803Y-81379144D01*
X42108730Y-81302151D01*
X42261871Y-81190888D01*
X42388533Y-81050216D01*
X42483179Y-80886284D01*
X42541674Y-80706256D01*
X42561460Y-80518000D01*
X42541674Y-80329744D01*
X42483179Y-80149716D01*
X42388533Y-79985784D01*
X42291762Y-79878308D01*
X42261532Y-79815316D01*
X42265980Y-79757019D01*
X42287674Y-79690256D01*
X42307460Y-79502000D01*
X42287674Y-79313744D01*
X42229179Y-79133716D01*
X42134533Y-78969784D01*
X42007871Y-78829112D01*
X42007867Y-78829109D01*
X41854734Y-78717851D01*
X41854729Y-78717848D01*
X41681807Y-78640857D01*
X41681802Y-78640855D01*
X41536001Y-78609865D01*
X41496646Y-78601500D01*
X41307354Y-78601500D01*
X41274897Y-78608398D01*
X41122197Y-78640855D01*
X41122192Y-78640857D01*
X40949270Y-78717848D01*
X40949265Y-78717851D01*
X40796129Y-78829111D01*
X40796128Y-78829112D01*
X40691290Y-78945545D01*
X40631803Y-78982193D01*
X40585891Y-78985862D01*
X40584643Y-78985727D01*
X40577873Y-78985000D01*
X40577870Y-78985000D01*
X40112129Y-78985000D01*
X40112123Y-78985001D01*
X40052516Y-78991408D01*
X39917671Y-79041702D01*
X39917664Y-79041706D01*
X39802455Y-79127952D01*
X39802452Y-79127955D01*
X39716206Y-79243164D01*
X39716202Y-79243171D01*
X39665908Y-79378017D01*
X39659501Y-79437616D01*
X39659500Y-79437635D01*
X39659500Y-79551000D01*
X39639815Y-79618039D01*
X39587011Y-79663794D01*
X39535501Y-79675000D01*
X39422130Y-79675000D01*
X39422123Y-79675001D01*
X39362516Y-79681408D01*
X39227671Y-79731702D01*
X39227664Y-79731706D01*
X39112455Y-79817952D01*
X39112452Y-79817955D01*
X39026206Y-79933164D01*
X39026202Y-79933171D01*
X38975910Y-80068013D01*
X38975909Y-80068017D01*
X38969500Y-80127627D01*
X38969500Y-80127634D01*
X38969500Y-80127635D01*
X38969500Y-80544108D01*
X38949815Y-80611147D01*
X38897011Y-80656902D01*
X38871282Y-80665398D01*
X38836196Y-80672856D01*
X38836192Y-80672857D01*
X38663270Y-80749848D01*
X38663265Y-80749851D01*
X38510129Y-80861111D01*
X38383466Y-81001785D01*
X38288821Y-81165715D01*
X38288818Y-81165722D01*
X38234871Y-81331755D01*
X38230326Y-81345744D01*
X38210540Y-81534000D01*
X35300500Y-81534000D01*
X35300500Y-70000002D01*
X36694652Y-70000002D01*
X36714028Y-70357368D01*
X36714029Y-70357385D01*
X36771926Y-70710539D01*
X36771932Y-70710565D01*
X36867672Y-71055392D01*
X36867674Y-71055399D01*
X37000142Y-71387870D01*
X37000151Y-71387888D01*
X37167784Y-71704077D01*
X37167790Y-71704086D01*
X37368634Y-72000309D01*
X37368641Y-72000319D01*
X37600331Y-72273085D01*
X37600332Y-72273086D01*
X37860163Y-72519211D01*
X38145081Y-72735800D01*
X38451747Y-72920315D01*
X38451749Y-72920316D01*
X38451751Y-72920317D01*
X38451755Y-72920319D01*
X38776552Y-73070585D01*
X38776565Y-73070591D01*
X39115726Y-73184868D01*
X39465254Y-73261805D01*
X39821052Y-73300500D01*
X39821058Y-73300500D01*
X40178942Y-73300500D01*
X40178948Y-73300500D01*
X40534746Y-73261805D01*
X40884274Y-73184868D01*
X41223435Y-73070591D01*
X41548253Y-72920315D01*
X41854919Y-72735800D01*
X42139837Y-72519211D01*
X42399668Y-72273086D01*
X42631365Y-72000311D01*
X42832211Y-71704085D01*
X42999853Y-71387880D01*
X43132324Y-71055403D01*
X43228071Y-70710552D01*
X43285972Y-70357371D01*
X43305348Y-70000002D01*
X126694652Y-70000002D01*
X126714028Y-70357368D01*
X126714029Y-70357385D01*
X126771926Y-70710539D01*
X126771932Y-70710565D01*
X126867672Y-71055392D01*
X126867674Y-71055399D01*
X127000142Y-71387870D01*
X127000151Y-71387888D01*
X127167784Y-71704077D01*
X127167790Y-71704086D01*
X127368634Y-72000309D01*
X127368641Y-72000319D01*
X127600331Y-72273085D01*
X127600332Y-72273086D01*
X127860163Y-72519211D01*
X128145081Y-72735800D01*
X128451747Y-72920315D01*
X128451749Y-72920316D01*
X128451751Y-72920317D01*
X128451755Y-72920319D01*
X128776552Y-73070585D01*
X128776565Y-73070591D01*
X129115726Y-73184868D01*
X129465254Y-73261805D01*
X129821052Y-73300500D01*
X129821058Y-73300500D01*
X130178942Y-73300500D01*
X130178948Y-73300500D01*
X130534746Y-73261805D01*
X130884274Y-73184868D01*
X131223435Y-73070591D01*
X131548253Y-72920315D01*
X131854919Y-72735800D01*
X132139837Y-72519211D01*
X132399668Y-72273086D01*
X132631365Y-72000311D01*
X132832211Y-71704085D01*
X132999853Y-71387880D01*
X133132324Y-71055403D01*
X133228071Y-70710552D01*
X133285972Y-70357371D01*
X133305348Y-70000000D01*
X133285972Y-69642629D01*
X133282297Y-69620214D01*
X133228073Y-69289460D01*
X133228072Y-69289459D01*
X133228071Y-69289448D01*
X133195931Y-69173690D01*
X133132327Y-68944607D01*
X133132325Y-68944600D01*
X132999857Y-68612129D01*
X132999848Y-68612111D01*
X132999495Y-68611446D01*
X132853353Y-68335792D01*
X132832215Y-68295922D01*
X132832213Y-68295919D01*
X132832211Y-68295915D01*
X132631365Y-67999689D01*
X132631361Y-67999684D01*
X132631358Y-67999680D01*
X132399668Y-67726914D01*
X132238551Y-67574296D01*
X132139837Y-67480789D01*
X132139830Y-67480783D01*
X132139827Y-67480781D01*
X132072245Y-67429407D01*
X131854919Y-67264200D01*
X131548253Y-67079685D01*
X131548252Y-67079684D01*
X131548248Y-67079682D01*
X131548244Y-67079680D01*
X131223447Y-66929414D01*
X131223441Y-66929411D01*
X131223435Y-66929409D01*
X131053854Y-66872270D01*
X130884273Y-66815131D01*
X130534744Y-66738194D01*
X130178949Y-66699500D01*
X130178948Y-66699500D01*
X129821052Y-66699500D01*
X129821050Y-66699500D01*
X129465255Y-66738194D01*
X129115726Y-66815131D01*
X128859970Y-66901306D01*
X128776565Y-66929409D01*
X128776562Y-66929410D01*
X128776563Y-66929410D01*
X128776552Y-66929414D01*
X128451755Y-67079680D01*
X128451751Y-67079682D01*
X128223367Y-67217096D01*
X128145081Y-67264200D01*
X128084840Y-67309994D01*
X127860172Y-67480781D01*
X127860163Y-67480789D01*
X127600331Y-67726914D01*
X127368641Y-67999680D01*
X127368634Y-67999690D01*
X127167790Y-68295913D01*
X127167784Y-68295922D01*
X127000151Y-68612111D01*
X127000142Y-68612129D01*
X126867674Y-68944600D01*
X126867672Y-68944607D01*
X126771932Y-69289434D01*
X126771926Y-69289460D01*
X126714029Y-69642614D01*
X126714028Y-69642631D01*
X126694652Y-69999997D01*
X126694652Y-70000002D01*
X43305348Y-70000002D01*
X43305348Y-70000000D01*
X43285972Y-69642629D01*
X43282297Y-69620214D01*
X43228073Y-69289460D01*
X43228072Y-69289459D01*
X43228071Y-69289448D01*
X43195931Y-69173690D01*
X43132327Y-68944607D01*
X43132325Y-68944600D01*
X42999857Y-68612129D01*
X42999848Y-68612111D01*
X42999495Y-68611446D01*
X42853353Y-68335792D01*
X42832215Y-68295922D01*
X42832213Y-68295919D01*
X42832211Y-68295915D01*
X42631365Y-67999689D01*
X42631361Y-67999684D01*
X42631358Y-67999680D01*
X42399668Y-67726914D01*
X42238551Y-67574296D01*
X42139837Y-67480789D01*
X42139830Y-67480783D01*
X42139827Y-67480781D01*
X42072245Y-67429407D01*
X41854919Y-67264200D01*
X41548253Y-67079685D01*
X41548252Y-67079684D01*
X41548248Y-67079682D01*
X41548244Y-67079680D01*
X41223447Y-66929414D01*
X41223441Y-66929411D01*
X41223435Y-66929409D01*
X41053854Y-66872270D01*
X40884273Y-66815131D01*
X40534744Y-66738194D01*
X40178949Y-66699500D01*
X40178948Y-66699500D01*
X39821052Y-66699500D01*
X39821050Y-66699500D01*
X39465255Y-66738194D01*
X39115726Y-66815131D01*
X38859970Y-66901306D01*
X38776565Y-66929409D01*
X38776562Y-66929410D01*
X38776563Y-66929410D01*
X38776552Y-66929414D01*
X38451755Y-67079680D01*
X38451751Y-67079682D01*
X38223367Y-67217096D01*
X38145081Y-67264200D01*
X38084840Y-67309994D01*
X37860172Y-67480781D01*
X37860163Y-67480789D01*
X37600331Y-67726914D01*
X37368641Y-67999680D01*
X37368634Y-67999690D01*
X37167790Y-68295913D01*
X37167784Y-68295922D01*
X37000151Y-68612111D01*
X37000142Y-68612129D01*
X36867674Y-68944600D01*
X36867672Y-68944607D01*
X36771932Y-69289434D01*
X36771926Y-69289460D01*
X36714029Y-69642614D01*
X36714028Y-69642631D01*
X36694652Y-69999997D01*
X36694652Y-70000002D01*
X35300500Y-70000002D01*
X35300500Y-66299500D01*
X35320185Y-66232461D01*
X35372989Y-66186706D01*
X35424500Y-66175500D01*
X197247073Y-66175500D01*
X197314112Y-66195185D01*
G37*
%TD.AperFunction*%
%TD*%
M02*
