M48
; DRILL file {KiCad 7.0.5} date Sun Jun 18 10:32:52 2023
; FORMAT={-:-/ absolute / inch / decimal}
; #@! TF.CreationDate,2023-06-18T10:32:52+01:00
; #@! TF.GenerationSoftware,Kicad,Pcbnew,7.0.5
; #@! TF.FileFunction,Plated,1,2,PTH
FMAT,2
INCH
; #@! TA.AperFunction,Plated,PTH,ViaDrill
T1C0.0157
; #@! TA.AperFunction,Plated,PTH,ComponentDrill
T2C0.0394
; #@! TA.AperFunction,Plated,PTH,ComponentDrill
T3C0.1260
%
G90
G05
T1
X1.54Y-3.21
X1.63Y-3.13
X1.64Y-3.17
X3.31Y-3.21
X3.41Y-3.13
X3.41Y-3.18
X5.09Y-3.21
X5.18Y-3.13
X5.19Y-3.17
X6.54Y-2.72
X6.54Y-3.21
X6.67Y-2.87
X6.67Y-3.13
X6.8Y-3.17
X6.81Y-3.03
X6.86Y-3.21
X6.95Y-3.13
X6.96Y-3.17
X8.63Y-3.21
X8.72Y-3.13
X8.72Y-3.17
T2
X7.71Y-2.65
X7.71Y-3.65
X7.81Y-2.65
X7.81Y-3.65
X7.91Y-2.65
X7.91Y-3.65
X8.01Y-2.65
X8.01Y-3.65
X8.11Y-2.65
X8.11Y-3.65
X8.21Y-2.65
X8.21Y-3.65
X8.31Y-2.65
X8.31Y-3.65
X8.41Y-2.65
X8.41Y-3.65
X8.51Y-2.65
X8.51Y-3.65
T3
X1.5748Y-2.7559
X5.1181Y-2.7559
X8.6614Y-2.7559
T0
M30
