%TF.GenerationSoftware,KiCad,Pcbnew,7.0.6*%
%TF.CreationDate,2023-08-30T13:03:23+01:00*%
%TF.ProjectId,Rapid Training Target,52617069-6420-4547-9261-696e696e6720,C*%
%TF.SameCoordinates,PX2160ec0PY5f5dd18*%
%TF.FileFunction,Paste,Bot*%
%TF.FilePolarity,Positive*%
%FSLAX46Y46*%
G04 Gerber Fmt 4.6, Leading zero omitted, Abs format (unit mm)*
G04 Created by KiCad (PCBNEW 7.0.6) date 2023-08-30 13:03:23*
%MOMM*%
%LPD*%
G01*
G04 APERTURE LIST*
G04 Aperture macros list*
%AMRoundRect*
0 Rectangle with rounded corners*
0 $1 Rounding radius*
0 $2 $3 $4 $5 $6 $7 $8 $9 X,Y pos of 4 corners*
0 Add a 4 corners polygon primitive as box body*
4,1,4,$2,$3,$4,$5,$6,$7,$8,$9,$2,$3,0*
0 Add four circle primitives for the rounded corners*
1,1,$1+$1,$2,$3*
1,1,$1+$1,$4,$5*
1,1,$1+$1,$6,$7*
1,1,$1+$1,$8,$9*
0 Add four rect primitives between the rounded corners*
20,1,$1+$1,$2,$3,$4,$5,0*
20,1,$1+$1,$4,$5,$6,$7,0*
20,1,$1+$1,$6,$7,$8,$9,0*
20,1,$1+$1,$8,$9,$2,$3,0*%
G04 Aperture macros list end*
%ADD10RoundRect,0.200000X0.200000X0.275000X-0.200000X0.275000X-0.200000X-0.275000X0.200000X-0.275000X0*%
%ADD11RoundRect,0.225000X-0.225000X-0.250000X0.225000X-0.250000X0.225000X0.250000X-0.225000X0.250000X0*%
%ADD12RoundRect,0.150000X0.512500X0.150000X-0.512500X0.150000X-0.512500X-0.150000X0.512500X-0.150000X0*%
%ADD13RoundRect,0.225000X-0.250000X0.225000X-0.250000X-0.225000X0.250000X-0.225000X0.250000X0.225000X0*%
%ADD14R,0.800000X0.400000*%
%ADD15R,0.400000X0.800000*%
%ADD16R,1.450000X1.450000*%
%ADD17R,0.700000X0.700000*%
%ADD18R,1.130000X0.280000*%
%ADD19R,1.130000X0.230000*%
%ADD20RoundRect,0.200000X-0.275000X0.200000X-0.275000X-0.200000X0.275000X-0.200000X0.275000X0.200000X0*%
G04 APERTURE END LIST*
D10*
%TO.C,R5*%
X197988000Y10106000D03*
X196338000Y10106000D03*
%TD*%
D11*
%TO.C,C1*%
X197907000Y2499000D03*
X199457000Y2499000D03*
%TD*%
D12*
%TO.C,U1*%
X197896000Y6055000D03*
X197896000Y5105000D03*
X197896000Y4155000D03*
X195621000Y4155000D03*
X195621000Y6055000D03*
%TD*%
D13*
%TO.C,C2*%
X193843000Y6068000D03*
X193843000Y4518000D03*
%TD*%
D14*
%TO.C,U2*%
X161843000Y1565500D03*
X161843000Y2365500D03*
X161843000Y3165500D03*
X161843000Y3965500D03*
X161843000Y4765500D03*
X161843000Y5565500D03*
X161843000Y6365500D03*
X161843000Y7165500D03*
X161843000Y7965500D03*
X161843000Y8765500D03*
X161843000Y9565500D03*
D15*
X162943000Y10465500D03*
X163743000Y10465500D03*
X164543000Y10465500D03*
X165343000Y10465500D03*
X166143000Y10465500D03*
X166943000Y10465500D03*
X167743000Y10465500D03*
X168543000Y10465500D03*
X169343000Y10465500D03*
X170143000Y10465500D03*
X170943000Y10465500D03*
X171743000Y10465500D03*
X172543000Y10465500D03*
D14*
X173643000Y9565500D03*
X173643000Y8765500D03*
X173643000Y7965500D03*
X173643000Y7165500D03*
X173643000Y6365500D03*
X173643000Y5565500D03*
X173643000Y4765500D03*
X173643000Y3965500D03*
X173643000Y3165500D03*
X173643000Y2365500D03*
X173643000Y1565500D03*
D15*
X172543000Y665500D03*
X171743000Y665500D03*
X170943000Y665500D03*
X170143000Y665500D03*
X169343000Y665500D03*
X168543000Y665500D03*
X167743000Y665500D03*
X166943000Y665500D03*
X166143000Y665500D03*
X165343000Y665500D03*
X164543000Y665500D03*
X163743000Y665500D03*
X162943000Y665500D03*
D16*
X165768000Y7540500D03*
X165768000Y5565500D03*
X165768000Y3590500D03*
X167743000Y7540500D03*
X167743000Y5565500D03*
X167743000Y3590500D03*
X169718000Y7540500D03*
X169718000Y5565500D03*
X169718000Y3590500D03*
D17*
X173693000Y615500D03*
X173693000Y10515500D03*
X161793000Y10515500D03*
X161793000Y615500D03*
%TD*%
D18*
%TO.C,USB-C1*%
X199701000Y15186000D03*
X199701000Y14386000D03*
D19*
X199701000Y13111000D03*
X199701000Y12111000D03*
X199701000Y11611000D03*
X199701000Y10611000D03*
D18*
X199701000Y9336000D03*
X199701000Y8536000D03*
X199701000Y8786000D03*
X199701000Y9586000D03*
D19*
X199701000Y10111000D03*
X199701000Y11111000D03*
X199701000Y12611000D03*
X199701000Y13611000D03*
D18*
X199701000Y14136000D03*
X199701000Y14936000D03*
%TD*%
D20*
%TO.C,R2*%
X168543000Y16424000D03*
X168543000Y14774000D03*
%TD*%
%TO.C,R3*%
X170100000Y16424000D03*
X170100000Y14774000D03*
%TD*%
%TO.C,R4*%
X167000000Y16424000D03*
X167000000Y14774000D03*
%TD*%
D10*
%TO.C,R1*%
X197988000Y13106000D03*
X196338000Y13106000D03*
%TD*%
M02*
