%TF.GenerationSoftware,KiCad,Pcbnew,7.0.5*%
%TF.CreationDate,2023-06-18T10:33:00+01:00*%
%TF.ProjectId,Rapid Training Target,52617069-6420-4547-9261-696e696e6720,A*%
%TF.SameCoordinates,Original*%
%TF.FileFunction,Copper,L2,Bot*%
%TF.FilePolarity,Positive*%
%FSLAX46Y46*%
G04 Gerber Fmt 4.6, Leading zero omitted, Abs format (unit mm)*
G04 Created by KiCad (PCBNEW 7.0.5) date 2023-06-18 10:33:00*
%MOMM*%
%LPD*%
G01*
G04 APERTURE LIST*
G04 Aperture macros list*
%AMRoundRect*
0 Rectangle with rounded corners*
0 $1 Rounding radius*
0 $2 $3 $4 $5 $6 $7 $8 $9 X,Y pos of 4 corners*
0 Add a 4 corners polygon primitive as box body*
4,1,4,$2,$3,$4,$5,$6,$7,$8,$9,$2,$3,0*
0 Add four circle primitives for the rounded corners*
1,1,$1+$1,$2,$3*
1,1,$1+$1,$4,$5*
1,1,$1+$1,$6,$7*
1,1,$1+$1,$8,$9*
0 Add four rect primitives between the rounded corners*
20,1,$1+$1,$2,$3,$4,$5,0*
20,1,$1+$1,$4,$5,$6,$7,0*
20,1,$1+$1,$6,$7,$8,$9,0*
20,1,$1+$1,$8,$9,$2,$3,0*%
G04 Aperture macros list end*
%TA.AperFunction,ComponentPad*%
%ADD10C,5.600000*%
%TD*%
%TA.AperFunction,SMDPad,CuDef*%
%ADD11RoundRect,0.200000X-0.200000X-0.275000X0.200000X-0.275000X0.200000X0.275000X-0.200000X0.275000X0*%
%TD*%
%TA.AperFunction,ComponentPad*%
%ADD12C,1.778000*%
%TD*%
%TA.AperFunction,ComponentPad*%
%ADD13R,1.778000X1.778000*%
%TD*%
%TA.AperFunction,SMDPad,CuDef*%
%ADD14RoundRect,0.150000X0.150000X-0.587500X0.150000X0.587500X-0.150000X0.587500X-0.150000X-0.587500X0*%
%TD*%
%TA.AperFunction,ViaPad*%
%ADD15C,0.800000*%
%TD*%
%TA.AperFunction,Conductor*%
%ADD16C,0.250000*%
%TD*%
G04 APERTURE END LIST*
D10*
%TO.P,H3,1*%
%TO.N,N/C*%
X220000000Y-70000000D03*
%TD*%
D11*
%TO.P,R12,1*%
%TO.N,Net-(D1-BK)*%
X174435000Y-76962000D03*
%TO.P,R12,2*%
%TO.N,Net-(Q3-S)*%
X176085000Y-76962000D03*
%TD*%
%TO.P,R11,2*%
%TO.N,Net-(Q2-S)*%
X172529000Y-72898000D03*
%TO.P,R11,1*%
%TO.N,Net-(D1-GK)*%
X170879000Y-72898000D03*
%TD*%
%TO.P,R10,1*%
%TO.N,Net-(D1-RK)*%
X167323000Y-69088000D03*
%TO.P,R10,2*%
%TO.N,Net-(Q1-S)*%
X168973000Y-69088000D03*
%TD*%
D12*
%TO.P,U1,18,3V3*%
%TO.N,+3V3*%
X195834000Y-92710000D03*
%TO.P,U1,17,GND*%
%TO.N,GND*%
X198374000Y-92710000D03*
%TO.P,U1,16,ESP_EN*%
%TO.N,unconnected-(U1-ESP_EN-Pad16)*%
X200914000Y-92710000D03*
%TO.P,U1,15,GPIO21/U0TXD*%
%TO.N,unconnected-(U1-GPIO21{slash}U0TXD-Pad15)*%
X203454000Y-92710000D03*
%TO.P,U1,14,GPIO20/U0TXD*%
%TO.N,unconnected-(U1-GPIO20{slash}U0TXD-Pad14)*%
X205994000Y-92710000D03*
%TO.P,U1,13,GPIO10*%
%TO.N,unconnected-(U1-GPIO10-Pad13)*%
X208534000Y-92710000D03*
%TO.P,U1,12,GPIO9*%
%TO.N,unconnected-(U1-GPIO9-Pad12)*%
X211074000Y-92710000D03*
%TO.P,U1,11,GPIO8*%
%TO.N,unconnected-(U1-GPIO8-Pad11)*%
X213614000Y-92710000D03*
%TO.P,U1,10,GPIO7*%
%TO.N,unconnected-(U1-GPIO7-Pad10)*%
X216154000Y-92710000D03*
%TO.P,U1,9,GPIO6*%
%TO.N,Blue*%
X216154000Y-67310000D03*
%TO.P,U1,8,GPIO5*%
%TO.N,Green*%
X213614000Y-67310000D03*
%TO.P,U1,7,GPIO4*%
%TO.N,Red*%
X211074000Y-67310000D03*
%TO.P,U1,6,GPIO3*%
%TO.N,unconnected-(U1-GPIO3-Pad6)*%
X208534000Y-67310000D03*
%TO.P,U1,5,GPIO2*%
%TO.N,unconnected-(U1-GPIO2-Pad5)*%
X205994000Y-67310000D03*
%TO.P,U1,4,GPIO1*%
%TO.N,unconnected-(U1-GPIO1-Pad4)*%
X203454000Y-67310000D03*
%TO.P,U1,3,GPIO0*%
%TO.N,unconnected-(U1-GPIO0-Pad3)*%
X200914000Y-67310000D03*
%TO.P,U1,2,GND*%
%TO.N,GND*%
X198374000Y-67310000D03*
D13*
%TO.P,U1,1,5V*%
%TO.N,+5V*%
X195834000Y-67310000D03*
%TD*%
D14*
%TO.P,Q3,1,G*%
%TO.N,Blue*%
X179578000Y-76962000D03*
%TO.P,Q3,2,S*%
%TO.N,Net-(Q3-S)*%
X177678000Y-76962000D03*
%TO.P,Q3,3,D*%
%TO.N,GND*%
X178628000Y-75087000D03*
%TD*%
%TO.P,Q2,1,G*%
%TO.N,Green*%
X176022000Y-72898000D03*
%TO.P,Q2,2,S*%
%TO.N,Net-(Q2-S)*%
X174122000Y-72898000D03*
%TO.P,Q2,3,D*%
%TO.N,GND*%
X175072000Y-71023000D03*
%TD*%
%TO.P,Q1,3,D*%
%TO.N,GND*%
X171450000Y-67134500D03*
%TO.P,Q1,2,S*%
%TO.N,Net-(Q1-S)*%
X170500000Y-69009500D03*
%TO.P,Q1,1,G*%
%TO.N,Red*%
X172400000Y-69009500D03*
%TD*%
D10*
%TO.P,H2,1*%
%TO.N,N/C*%
X40000000Y-70000000D03*
%TD*%
%TO.P,H1,1*%
%TO.N,N/C*%
X130000000Y-70000000D03*
%TD*%
D15*
%TO.N,Net-(D1-BK)*%
X172974000Y-76962000D03*
X172720000Y-80518000D03*
%TO.N,Net-(D1-RK)*%
X166116000Y-81534000D03*
X166116000Y-69088000D03*
%TO.N,Net-(D1-GK)*%
X169418000Y-72898000D03*
X169418000Y-79502000D03*
%TO.N,Net-(D1-BK)*%
X221488000Y-80518000D03*
X176784000Y-80518000D03*
X131826000Y-80518000D03*
X86614000Y-80772000D03*
X41656000Y-80518000D03*
%TO.N,Net-(D1-GK)*%
X221488000Y-79502000D03*
%TO.N,Net-(D1-RK)*%
X219202000Y-81534000D03*
%TO.N,Net-(D1-GK)*%
X176530000Y-79502000D03*
%TO.N,Net-(D1-RK)*%
X174244000Y-81534000D03*
%TO.N,Net-(D1-GK)*%
X131572000Y-79502000D03*
%TO.N,Net-(D1-RK)*%
X129286000Y-81534000D03*
%TO.N,Net-(D1-GK)*%
X86614000Y-79502000D03*
%TO.N,Net-(D1-RK)*%
X84074000Y-81534000D03*
%TO.N,Net-(D1-GK)*%
X41402000Y-79502000D03*
%TO.N,Net-(D1-RK)*%
X39116000Y-81534000D03*
%TD*%
D16*
%TO.N,Blue*%
X206502000Y-76962000D02*
X216154000Y-67310000D01*
X179578000Y-76962000D02*
X206502000Y-76962000D01*
%TO.N,Green*%
X208026000Y-72898000D02*
X213614000Y-67310000D01*
X176022000Y-72898000D02*
X208026000Y-72898000D01*
%TO.N,Red*%
X173240500Y-69850000D02*
X208534000Y-69850000D01*
X208534000Y-69850000D02*
X211074000Y-67310000D01*
X172400000Y-69009500D02*
X173240500Y-69850000D01*
%TO.N,Net-(D1-BK)*%
X174435000Y-76962000D02*
X172974000Y-76962000D01*
%TO.N,Net-(D1-RK)*%
X166116000Y-81534000D02*
X129286000Y-81534000D01*
X174244000Y-81534000D02*
X166116000Y-81534000D01*
X167323000Y-69088000D02*
X166116000Y-69088000D01*
%TO.N,Net-(D1-GK)*%
X170879000Y-72898000D02*
X169418000Y-72898000D01*
%TO.N,Net-(D1-BK)*%
X176784000Y-80518000D02*
X131826000Y-80518000D01*
%TO.N,Net-(D1-RK)*%
X84074000Y-81534000D02*
X39116000Y-81534000D01*
X129286000Y-81534000D02*
X84074000Y-81534000D01*
X219202000Y-81534000D02*
X174244000Y-81534000D01*
%TO.N,Net-(D1-BK)*%
X221488000Y-80518000D02*
X176784000Y-80518000D01*
X86868000Y-80518000D02*
X86614000Y-80772000D01*
X131826000Y-80518000D02*
X86868000Y-80518000D01*
X86360000Y-80518000D02*
X86614000Y-80772000D01*
X41656000Y-80518000D02*
X86360000Y-80518000D01*
%TO.N,Net-(D1-GK)*%
X176530000Y-79502000D02*
X221488000Y-79502000D01*
X131572000Y-79502000D02*
X176530000Y-79502000D01*
X86614000Y-79502000D02*
X131572000Y-79502000D01*
X41402000Y-79502000D02*
X86614000Y-79502000D01*
%TO.N,Net-(Q3-S)*%
X177678000Y-76962000D02*
X176085000Y-76962000D01*
%TO.N,Net-(Q1-S)*%
X169051500Y-69009500D02*
X168973000Y-69088000D01*
X170500000Y-69009500D02*
X169051500Y-69009500D01*
%TO.N,Net-(Q2-S)*%
X174122000Y-72898000D02*
X172529000Y-72898000D01*
%TD*%
%TA.AperFunction,Conductor*%
%TO.N,GND*%
G36*
X194394741Y-66195185D02*
G01*
X194440496Y-66247989D01*
X194450991Y-66312756D01*
X194444500Y-66373118D01*
X194444500Y-68246870D01*
X194444501Y-68246876D01*
X194450908Y-68306483D01*
X194501202Y-68441328D01*
X194501206Y-68441335D01*
X194587452Y-68556544D01*
X194587455Y-68556547D01*
X194702664Y-68642793D01*
X194702671Y-68642797D01*
X194837517Y-68693091D01*
X194837516Y-68693091D01*
X194844444Y-68693835D01*
X194897127Y-68699500D01*
X196770872Y-68699499D01*
X196830483Y-68693091D01*
X196965331Y-68642796D01*
X197080546Y-68556546D01*
X197166796Y-68441331D01*
X197217091Y-68306483D01*
X197223500Y-68246873D01*
X197223499Y-66373128D01*
X197217091Y-66313517D01*
X197217009Y-66312753D01*
X197229416Y-66243994D01*
X197277027Y-66192857D01*
X197340299Y-66175500D01*
X199787073Y-66175500D01*
X199854112Y-66195185D01*
X199899867Y-66247989D01*
X199909811Y-66317147D01*
X199880786Y-66380703D01*
X199878303Y-66383483D01*
X199813728Y-66453629D01*
X199687782Y-66646405D01*
X199595282Y-66857285D01*
X199538753Y-67080515D01*
X199519738Y-67309994D01*
X199519738Y-67310005D01*
X199538753Y-67539484D01*
X199595282Y-67762714D01*
X199687782Y-67973594D01*
X199813728Y-68166370D01*
X199813731Y-68166373D01*
X199969692Y-68335792D01*
X200151411Y-68477229D01*
X200353931Y-68586828D01*
X200467025Y-68625653D01*
X200571725Y-68661597D01*
X200571727Y-68661597D01*
X200571729Y-68661598D01*
X200798863Y-68699500D01*
X200798864Y-68699500D01*
X201029136Y-68699500D01*
X201029137Y-68699500D01*
X201256271Y-68661598D01*
X201474069Y-68586828D01*
X201676589Y-68477229D01*
X201858308Y-68335792D01*
X202014269Y-68166373D01*
X202017386Y-68161602D01*
X202080191Y-68065472D01*
X202133337Y-68020115D01*
X202202569Y-68010691D01*
X202265905Y-68040193D01*
X202287809Y-68065472D01*
X202353728Y-68166370D01*
X202353731Y-68166373D01*
X202509692Y-68335792D01*
X202691411Y-68477229D01*
X202893931Y-68586828D01*
X203007025Y-68625653D01*
X203111725Y-68661597D01*
X203111727Y-68661597D01*
X203111729Y-68661598D01*
X203338863Y-68699500D01*
X203338864Y-68699500D01*
X203569136Y-68699500D01*
X203569137Y-68699500D01*
X203796271Y-68661598D01*
X204014069Y-68586828D01*
X204216589Y-68477229D01*
X204398308Y-68335792D01*
X204554269Y-68166373D01*
X204620191Y-68065470D01*
X204673336Y-68020115D01*
X204742567Y-68010691D01*
X204805903Y-68040192D01*
X204827807Y-68065471D01*
X204893727Y-68166368D01*
X204893729Y-68166370D01*
X204893731Y-68166373D01*
X205049692Y-68335792D01*
X205231411Y-68477229D01*
X205433931Y-68586828D01*
X205547025Y-68625653D01*
X205651725Y-68661597D01*
X205651727Y-68661597D01*
X205651729Y-68661598D01*
X205878863Y-68699500D01*
X205878864Y-68699500D01*
X206109136Y-68699500D01*
X206109137Y-68699500D01*
X206336271Y-68661598D01*
X206554069Y-68586828D01*
X206756589Y-68477229D01*
X206938308Y-68335792D01*
X207094269Y-68166373D01*
X207097386Y-68161602D01*
X207160191Y-68065472D01*
X207213337Y-68020115D01*
X207282569Y-68010691D01*
X207345905Y-68040193D01*
X207367809Y-68065472D01*
X207433728Y-68166370D01*
X207433731Y-68166373D01*
X207589692Y-68335792D01*
X207771411Y-68477229D01*
X207973931Y-68586828D01*
X208087025Y-68625653D01*
X208191725Y-68661597D01*
X208191727Y-68661597D01*
X208191729Y-68661598D01*
X208418863Y-68699500D01*
X208418864Y-68699500D01*
X208500546Y-68699500D01*
X208567585Y-68719185D01*
X208613340Y-68771989D01*
X208623284Y-68841147D01*
X208594259Y-68904703D01*
X208588227Y-68911181D01*
X208311228Y-69188181D01*
X208249905Y-69221666D01*
X208223547Y-69224500D01*
X173550953Y-69224500D01*
X173483914Y-69204815D01*
X173463272Y-69188181D01*
X173236819Y-68961728D01*
X173203334Y-68900405D01*
X173200500Y-68874047D01*
X173200500Y-68356313D01*
X173200499Y-68356298D01*
X173198885Y-68335793D01*
X173197598Y-68319431D01*
X173193836Y-68306483D01*
X173151745Y-68161606D01*
X173151744Y-68161603D01*
X173151744Y-68161602D01*
X173068081Y-68020135D01*
X173068079Y-68020133D01*
X173068076Y-68020129D01*
X172951870Y-67903923D01*
X172951862Y-67903917D01*
X172810396Y-67820255D01*
X172810393Y-67820254D01*
X172652573Y-67774402D01*
X172652567Y-67774401D01*
X172615701Y-67771500D01*
X172615694Y-67771500D01*
X172184306Y-67771500D01*
X172184298Y-67771500D01*
X172147432Y-67774401D01*
X172147426Y-67774402D01*
X171989606Y-67820254D01*
X171989603Y-67820255D01*
X171848137Y-67903917D01*
X171848129Y-67903923D01*
X171731923Y-68020129D01*
X171731917Y-68020137D01*
X171648255Y-68161603D01*
X171648254Y-68161606D01*
X171602402Y-68319426D01*
X171602401Y-68319432D01*
X171599500Y-68356298D01*
X171599500Y-69662701D01*
X171602401Y-69699567D01*
X171602402Y-69699573D01*
X171648254Y-69857393D01*
X171648255Y-69857396D01*
X171731917Y-69998862D01*
X171731923Y-69998870D01*
X171848129Y-70115076D01*
X171848133Y-70115079D01*
X171848135Y-70115081D01*
X171989602Y-70198744D01*
X172031224Y-70210836D01*
X172147426Y-70244597D01*
X172147429Y-70244597D01*
X172147431Y-70244598D01*
X172184306Y-70247500D01*
X172184314Y-70247500D01*
X172615686Y-70247500D01*
X172615694Y-70247500D01*
X172652569Y-70244598D01*
X172656733Y-70243388D01*
X172726602Y-70243584D01*
X172776215Y-70272069D01*
X172804431Y-70298565D01*
X172805800Y-70299891D01*
X172826029Y-70320120D01*
X172831511Y-70324373D01*
X172835943Y-70328157D01*
X172869918Y-70360062D01*
X172887476Y-70369714D01*
X172903735Y-70380395D01*
X172919564Y-70392673D01*
X172962338Y-70411182D01*
X172967556Y-70413738D01*
X173008408Y-70436197D01*
X173027816Y-70441180D01*
X173046217Y-70447480D01*
X173064604Y-70455437D01*
X173107988Y-70462308D01*
X173110619Y-70462725D01*
X173116339Y-70463909D01*
X173161481Y-70475500D01*
X173181516Y-70475500D01*
X173200915Y-70477027D01*
X173220696Y-70480160D01*
X173260934Y-70476356D01*
X173267082Y-70475775D01*
X173272920Y-70475500D01*
X208451257Y-70475500D01*
X208466877Y-70477224D01*
X208466904Y-70476939D01*
X208474666Y-70477673D01*
X208474666Y-70477672D01*
X208474667Y-70477673D01*
X208477999Y-70477568D01*
X208542847Y-70475531D01*
X208544794Y-70475500D01*
X208573347Y-70475500D01*
X208573350Y-70475500D01*
X208580228Y-70474630D01*
X208586041Y-70474172D01*
X208632627Y-70472709D01*
X208651869Y-70467117D01*
X208670912Y-70463174D01*
X208690792Y-70460664D01*
X208734122Y-70443507D01*
X208739646Y-70441617D01*
X208743396Y-70440527D01*
X208784390Y-70428618D01*
X208801629Y-70418422D01*
X208819103Y-70409862D01*
X208837727Y-70402488D01*
X208837727Y-70402487D01*
X208837732Y-70402486D01*
X208875449Y-70375082D01*
X208880305Y-70371892D01*
X208920420Y-70348170D01*
X208934589Y-70333999D01*
X208949379Y-70321368D01*
X208965587Y-70309594D01*
X208995299Y-70273676D01*
X208999212Y-70269376D01*
X210584138Y-68684450D01*
X210645459Y-68650967D01*
X210712081Y-68654852D01*
X210731729Y-68661598D01*
X210958863Y-68699500D01*
X210958864Y-68699500D01*
X211040546Y-68699500D01*
X211107585Y-68719185D01*
X211153340Y-68771989D01*
X211163284Y-68841147D01*
X211134259Y-68904703D01*
X211128227Y-68911181D01*
X207803228Y-72236181D01*
X207741905Y-72269666D01*
X207715547Y-72272500D01*
X176931459Y-72272500D01*
X176864420Y-72252815D01*
X176818665Y-72200011D01*
X176812383Y-72183095D01*
X176773745Y-72050106D01*
X176773744Y-72050103D01*
X176773744Y-72050102D01*
X176690081Y-71908635D01*
X176690079Y-71908633D01*
X176690076Y-71908629D01*
X176573870Y-71792423D01*
X176573862Y-71792417D01*
X176432396Y-71708755D01*
X176432393Y-71708754D01*
X176274573Y-71662902D01*
X176274567Y-71662901D01*
X176237701Y-71660000D01*
X176237694Y-71660000D01*
X175806306Y-71660000D01*
X175806298Y-71660000D01*
X175769432Y-71662901D01*
X175769426Y-71662902D01*
X175611606Y-71708754D01*
X175611603Y-71708755D01*
X175470137Y-71792417D01*
X175470129Y-71792423D01*
X175353923Y-71908629D01*
X175353917Y-71908637D01*
X175270255Y-72050103D01*
X175270254Y-72050106D01*
X175224402Y-72207926D01*
X175224401Y-72207932D01*
X175221500Y-72244798D01*
X175221500Y-73551201D01*
X175224401Y-73588067D01*
X175224402Y-73588073D01*
X175270254Y-73745893D01*
X175270255Y-73745896D01*
X175270256Y-73745898D01*
X175278090Y-73759144D01*
X175353917Y-73887362D01*
X175353923Y-73887370D01*
X175470129Y-74003576D01*
X175470133Y-74003579D01*
X175470135Y-74003581D01*
X175611602Y-74087244D01*
X175653224Y-74099336D01*
X175769426Y-74133097D01*
X175769429Y-74133097D01*
X175769431Y-74133098D01*
X175806306Y-74136000D01*
X175806314Y-74136000D01*
X176237686Y-74136000D01*
X176237694Y-74136000D01*
X176274569Y-74133098D01*
X176274571Y-74133097D01*
X176274573Y-74133097D01*
X176316191Y-74121005D01*
X176432398Y-74087244D01*
X176573865Y-74003581D01*
X176690081Y-73887365D01*
X176773744Y-73745898D01*
X176790459Y-73688364D01*
X176812383Y-73612905D01*
X176849989Y-73554019D01*
X176913462Y-73524813D01*
X176931459Y-73523500D01*
X207943257Y-73523500D01*
X207958877Y-73525224D01*
X207958904Y-73524939D01*
X207966666Y-73525673D01*
X207966666Y-73525672D01*
X207966667Y-73525673D01*
X207969999Y-73525568D01*
X208034847Y-73523531D01*
X208036794Y-73523500D01*
X208065347Y-73523500D01*
X208065350Y-73523500D01*
X208072228Y-73522630D01*
X208078041Y-73522172D01*
X208124627Y-73520709D01*
X208143869Y-73515117D01*
X208162912Y-73511174D01*
X208182792Y-73508664D01*
X208226122Y-73491507D01*
X208231646Y-73489617D01*
X208235396Y-73488527D01*
X208276390Y-73476618D01*
X208293629Y-73466422D01*
X208311103Y-73457862D01*
X208329727Y-73450488D01*
X208329727Y-73450487D01*
X208329732Y-73450486D01*
X208367449Y-73423082D01*
X208372305Y-73419892D01*
X208412420Y-73396170D01*
X208426589Y-73381999D01*
X208441379Y-73369368D01*
X208457587Y-73357594D01*
X208487299Y-73321676D01*
X208491212Y-73317376D01*
X213124138Y-68684450D01*
X213185459Y-68650967D01*
X213252081Y-68654852D01*
X213271729Y-68661598D01*
X213498863Y-68699500D01*
X213498864Y-68699500D01*
X213580546Y-68699500D01*
X213647585Y-68719185D01*
X213693340Y-68771989D01*
X213703284Y-68841147D01*
X213674259Y-68904703D01*
X213668227Y-68911181D01*
X206279228Y-76300181D01*
X206217905Y-76333666D01*
X206191547Y-76336500D01*
X180487459Y-76336500D01*
X180420420Y-76316815D01*
X180374665Y-76264011D01*
X180368383Y-76247095D01*
X180329745Y-76114106D01*
X180329744Y-76114103D01*
X180329744Y-76114102D01*
X180246081Y-75972635D01*
X180246079Y-75972633D01*
X180246076Y-75972629D01*
X180129870Y-75856423D01*
X180129862Y-75856417D01*
X179988396Y-75772755D01*
X179988393Y-75772754D01*
X179830573Y-75726902D01*
X179830567Y-75726901D01*
X179793701Y-75724000D01*
X179793694Y-75724000D01*
X179362306Y-75724000D01*
X179362298Y-75724000D01*
X179325432Y-75726901D01*
X179325426Y-75726902D01*
X179167606Y-75772754D01*
X179167603Y-75772755D01*
X179026137Y-75856417D01*
X179026129Y-75856423D01*
X178909923Y-75972629D01*
X178909917Y-75972637D01*
X178826255Y-76114103D01*
X178826254Y-76114106D01*
X178780402Y-76271926D01*
X178780401Y-76271932D01*
X178777500Y-76308798D01*
X178777500Y-77615201D01*
X178780401Y-77652067D01*
X178780402Y-77652073D01*
X178826254Y-77809893D01*
X178826255Y-77809896D01*
X178826256Y-77809898D01*
X178834090Y-77823144D01*
X178909917Y-77951362D01*
X178909923Y-77951370D01*
X179026129Y-78067576D01*
X179026133Y-78067579D01*
X179026135Y-78067581D01*
X179167602Y-78151244D01*
X179209224Y-78163336D01*
X179325426Y-78197097D01*
X179325429Y-78197097D01*
X179325431Y-78197098D01*
X179362306Y-78200000D01*
X179362314Y-78200000D01*
X179793686Y-78200000D01*
X179793694Y-78200000D01*
X179830569Y-78197098D01*
X179830571Y-78197097D01*
X179830573Y-78197097D01*
X179872191Y-78185005D01*
X179988398Y-78151244D01*
X180129865Y-78067581D01*
X180246081Y-77951365D01*
X180329744Y-77809898D01*
X180346459Y-77752364D01*
X180368383Y-77676905D01*
X180405989Y-77618019D01*
X180469462Y-77588813D01*
X180487459Y-77587500D01*
X206419257Y-77587500D01*
X206434877Y-77589224D01*
X206434904Y-77588939D01*
X206442666Y-77589673D01*
X206442666Y-77589672D01*
X206442667Y-77589673D01*
X206445999Y-77589568D01*
X206510847Y-77587531D01*
X206512794Y-77587500D01*
X206541347Y-77587500D01*
X206541350Y-77587500D01*
X206548228Y-77586630D01*
X206554041Y-77586172D01*
X206600627Y-77584709D01*
X206619869Y-77579117D01*
X206638912Y-77575174D01*
X206658792Y-77572664D01*
X206702122Y-77555507D01*
X206707646Y-77553617D01*
X206711396Y-77552527D01*
X206752390Y-77540618D01*
X206769629Y-77530422D01*
X206787103Y-77521862D01*
X206805727Y-77514488D01*
X206805727Y-77514487D01*
X206805732Y-77514486D01*
X206843449Y-77487082D01*
X206848305Y-77483892D01*
X206888420Y-77460170D01*
X206902589Y-77445999D01*
X206917379Y-77433368D01*
X206933587Y-77421594D01*
X206963299Y-77385676D01*
X206967212Y-77381376D01*
X215664139Y-68684450D01*
X215725460Y-68650967D01*
X215792081Y-68654852D01*
X215811729Y-68661598D01*
X216038863Y-68699500D01*
X216038864Y-68699500D01*
X216269136Y-68699500D01*
X216269137Y-68699500D01*
X216496271Y-68661598D01*
X216714069Y-68586828D01*
X216790824Y-68545289D01*
X216859152Y-68530694D01*
X216924524Y-68555356D01*
X216966185Y-68611446D01*
X216970909Y-68681156D01*
X216965035Y-68700241D01*
X216867674Y-68944600D01*
X216867672Y-68944607D01*
X216771932Y-69289434D01*
X216771926Y-69289460D01*
X216714029Y-69642614D01*
X216714028Y-69642631D01*
X216694714Y-69998865D01*
X216694652Y-70000000D01*
X216712238Y-70324364D01*
X216714028Y-70357368D01*
X216714029Y-70357385D01*
X216771926Y-70710539D01*
X216771932Y-70710565D01*
X216867672Y-71055392D01*
X216867674Y-71055399D01*
X217000142Y-71387870D01*
X217000151Y-71387888D01*
X217167784Y-71704077D01*
X217167787Y-71704082D01*
X217167789Y-71704085D01*
X217306479Y-71908638D01*
X217368634Y-72000309D01*
X217368641Y-72000319D01*
X217597427Y-72269666D01*
X217600332Y-72273086D01*
X217860163Y-72519211D01*
X218145081Y-72735800D01*
X218451747Y-72920315D01*
X218451749Y-72920316D01*
X218451751Y-72920317D01*
X218451755Y-72920319D01*
X218776552Y-73070585D01*
X218776565Y-73070591D01*
X219115726Y-73184868D01*
X219465254Y-73261805D01*
X219821052Y-73300500D01*
X219821058Y-73300500D01*
X220178942Y-73300500D01*
X220178948Y-73300500D01*
X220534746Y-73261805D01*
X220884274Y-73184868D01*
X221223435Y-73070591D01*
X221548253Y-72920315D01*
X221854919Y-72735800D01*
X222139837Y-72519211D01*
X222399668Y-72273086D01*
X222631365Y-72000311D01*
X222832211Y-71704085D01*
X222999853Y-71387880D01*
X223132324Y-71055403D01*
X223228071Y-70710552D01*
X223266323Y-70477224D01*
X223285970Y-70357385D01*
X223285970Y-70357382D01*
X223285972Y-70357371D01*
X223305348Y-70000000D01*
X223305286Y-69998865D01*
X223300928Y-69918472D01*
X223285972Y-69642629D01*
X223282297Y-69620214D01*
X223228073Y-69289460D01*
X223228072Y-69289459D01*
X223228071Y-69289448D01*
X223195931Y-69173690D01*
X223132327Y-68944607D01*
X223132325Y-68944600D01*
X222999857Y-68612129D01*
X222999848Y-68612111D01*
X222999495Y-68611446D01*
X222883760Y-68393146D01*
X222832215Y-68295922D01*
X222832213Y-68295919D01*
X222832211Y-68295915D01*
X222631365Y-67999689D01*
X222631361Y-67999684D01*
X222631358Y-67999680D01*
X222399668Y-67726914D01*
X222238551Y-67574296D01*
X222139837Y-67480789D01*
X222139830Y-67480783D01*
X222139827Y-67480781D01*
X222072245Y-67429407D01*
X221854919Y-67264200D01*
X221548253Y-67079685D01*
X221548252Y-67079684D01*
X221548248Y-67079682D01*
X221548244Y-67079680D01*
X221223447Y-66929414D01*
X221223441Y-66929411D01*
X221223435Y-66929409D01*
X221053854Y-66872270D01*
X220884273Y-66815131D01*
X220534744Y-66738194D01*
X220178949Y-66699500D01*
X220178948Y-66699500D01*
X219821052Y-66699500D01*
X219821050Y-66699500D01*
X219465255Y-66738194D01*
X219115726Y-66815131D01*
X218859970Y-66901306D01*
X218776565Y-66929409D01*
X218776562Y-66929410D01*
X218776563Y-66929410D01*
X218776552Y-66929414D01*
X218451755Y-67079680D01*
X218451751Y-67079682D01*
X218223367Y-67217096D01*
X218145081Y-67264200D01*
X218084840Y-67309994D01*
X217860172Y-67480781D01*
X217860163Y-67480789D01*
X217741993Y-67592725D01*
X217679786Y-67624537D01*
X217610255Y-67617667D01*
X217555476Y-67574296D01*
X217532841Y-67508194D01*
X217533143Y-67492461D01*
X217548262Y-67310005D01*
X217548262Y-67310000D01*
X217529246Y-67080512D01*
X217472717Y-66857284D01*
X217380217Y-66646405D01*
X217355980Y-66609308D01*
X217254271Y-66453629D01*
X217189697Y-66383483D01*
X217158775Y-66320828D01*
X217166635Y-66251402D01*
X217210783Y-66197247D01*
X217277200Y-66175556D01*
X217280927Y-66175500D01*
X224575500Y-66175500D01*
X224642539Y-66195185D01*
X224688294Y-66247989D01*
X224699500Y-66299500D01*
X224699500Y-93700500D01*
X224679815Y-93767539D01*
X224627011Y-93813294D01*
X224575500Y-93824500D01*
X217299338Y-93824500D01*
X217232299Y-93804815D01*
X217186544Y-93752011D01*
X217176600Y-93682853D01*
X217205625Y-93619297D01*
X217208108Y-93616517D01*
X217254269Y-93566373D01*
X217380217Y-93373595D01*
X217472717Y-93162716D01*
X217529246Y-92939488D01*
X217548262Y-92710000D01*
X217529246Y-92480512D01*
X217472717Y-92257284D01*
X217380217Y-92046405D01*
X217355980Y-92009308D01*
X217254271Y-91853629D01*
X217227355Y-91824390D01*
X217098308Y-91684208D01*
X217030036Y-91631070D01*
X216916591Y-91542772D01*
X216714069Y-91433172D01*
X216714061Y-91433169D01*
X216496274Y-91358402D01*
X216325920Y-91329975D01*
X216269137Y-91320500D01*
X216038863Y-91320500D01*
X215993436Y-91328080D01*
X215811725Y-91358402D01*
X215593938Y-91433169D01*
X215593930Y-91433172D01*
X215391408Y-91542772D01*
X215209694Y-91684206D01*
X215209689Y-91684211D01*
X215053727Y-91853630D01*
X214987808Y-91954528D01*
X214934662Y-91999884D01*
X214865431Y-92009308D01*
X214802095Y-91979806D01*
X214780192Y-91954528D01*
X214714272Y-91853630D01*
X214677104Y-91813255D01*
X214558308Y-91684208D01*
X214490036Y-91631070D01*
X214376591Y-91542772D01*
X214174069Y-91433172D01*
X214174061Y-91433169D01*
X213956274Y-91358402D01*
X213785920Y-91329975D01*
X213729137Y-91320500D01*
X213498863Y-91320500D01*
X213453436Y-91328080D01*
X213271725Y-91358402D01*
X213053938Y-91433169D01*
X213053930Y-91433172D01*
X212851408Y-91542772D01*
X212669694Y-91684206D01*
X212669689Y-91684211D01*
X212513727Y-91853630D01*
X212447808Y-91954528D01*
X212394662Y-91999884D01*
X212325431Y-92009308D01*
X212262095Y-91979806D01*
X212240192Y-91954528D01*
X212174272Y-91853630D01*
X212137104Y-91813256D01*
X212018308Y-91684208D01*
X211950036Y-91631070D01*
X211836591Y-91542772D01*
X211634069Y-91433172D01*
X211634061Y-91433169D01*
X211416274Y-91358402D01*
X211245920Y-91329975D01*
X211189137Y-91320500D01*
X210958863Y-91320500D01*
X210913436Y-91328080D01*
X210731725Y-91358402D01*
X210513938Y-91433169D01*
X210513930Y-91433172D01*
X210311408Y-91542772D01*
X210129694Y-91684206D01*
X210129689Y-91684211D01*
X209973727Y-91853630D01*
X209907808Y-91954528D01*
X209854662Y-91999884D01*
X209785431Y-92009308D01*
X209722095Y-91979806D01*
X209700192Y-91954528D01*
X209634272Y-91853630D01*
X209597104Y-91813255D01*
X209478308Y-91684208D01*
X209410036Y-91631070D01*
X209296591Y-91542772D01*
X209094069Y-91433172D01*
X209094061Y-91433169D01*
X208876274Y-91358402D01*
X208705920Y-91329975D01*
X208649137Y-91320500D01*
X208418863Y-91320500D01*
X208373436Y-91328080D01*
X208191725Y-91358402D01*
X207973938Y-91433169D01*
X207973930Y-91433172D01*
X207771408Y-91542772D01*
X207589694Y-91684206D01*
X207589689Y-91684211D01*
X207433727Y-91853630D01*
X207367808Y-91954528D01*
X207314662Y-91999884D01*
X207245431Y-92009308D01*
X207182095Y-91979806D01*
X207160192Y-91954528D01*
X207094272Y-91853630D01*
X207057104Y-91813256D01*
X206938308Y-91684208D01*
X206870036Y-91631070D01*
X206756591Y-91542772D01*
X206554069Y-91433172D01*
X206554061Y-91433169D01*
X206336274Y-91358402D01*
X206165920Y-91329975D01*
X206109137Y-91320500D01*
X205878863Y-91320500D01*
X205833436Y-91328080D01*
X205651725Y-91358402D01*
X205433938Y-91433169D01*
X205433930Y-91433172D01*
X205231408Y-91542772D01*
X205049694Y-91684206D01*
X205049689Y-91684211D01*
X204893727Y-91853630D01*
X204827808Y-91954528D01*
X204774662Y-91999884D01*
X204705431Y-92009308D01*
X204642095Y-91979806D01*
X204620192Y-91954528D01*
X204554272Y-91853630D01*
X204517104Y-91813255D01*
X204398308Y-91684208D01*
X204330036Y-91631070D01*
X204216591Y-91542772D01*
X204014069Y-91433172D01*
X204014061Y-91433169D01*
X203796274Y-91358402D01*
X203625920Y-91329975D01*
X203569137Y-91320500D01*
X203338863Y-91320500D01*
X203293436Y-91328080D01*
X203111725Y-91358402D01*
X202893938Y-91433169D01*
X202893930Y-91433172D01*
X202691408Y-91542772D01*
X202509694Y-91684206D01*
X202509689Y-91684211D01*
X202353727Y-91853630D01*
X202287808Y-91954528D01*
X202234662Y-91999884D01*
X202165431Y-92009308D01*
X202102095Y-91979806D01*
X202080192Y-91954528D01*
X202014272Y-91853630D01*
X201977104Y-91813256D01*
X201858308Y-91684208D01*
X201790036Y-91631070D01*
X201676591Y-91542772D01*
X201474069Y-91433172D01*
X201474061Y-91433169D01*
X201256274Y-91358402D01*
X201085920Y-91329975D01*
X201029137Y-91320500D01*
X200798863Y-91320500D01*
X200753436Y-91328080D01*
X200571725Y-91358402D01*
X200353938Y-91433169D01*
X200353930Y-91433172D01*
X200151408Y-91542772D01*
X199969694Y-91684206D01*
X199969689Y-91684211D01*
X199813728Y-91853629D01*
X199687782Y-92046405D01*
X199595282Y-92257285D01*
X199538753Y-92480515D01*
X199519738Y-92709994D01*
X199519738Y-92710005D01*
X199538753Y-92939484D01*
X199595282Y-93162714D01*
X199687782Y-93373594D01*
X199813728Y-93566370D01*
X199859892Y-93616517D01*
X199890814Y-93679172D01*
X199882954Y-93748598D01*
X199838807Y-93802753D01*
X199772389Y-93824444D01*
X199768662Y-93824500D01*
X196979338Y-93824500D01*
X196912299Y-93804815D01*
X196866544Y-93752011D01*
X196856600Y-93682853D01*
X196885625Y-93619297D01*
X196888108Y-93616517D01*
X196934269Y-93566373D01*
X197060217Y-93373595D01*
X197152717Y-93162716D01*
X197209246Y-92939488D01*
X197228262Y-92710000D01*
X197209246Y-92480512D01*
X197152717Y-92257284D01*
X197060217Y-92046405D01*
X197035980Y-92009308D01*
X196934271Y-91853629D01*
X196907354Y-91824390D01*
X196778308Y-91684208D01*
X196710036Y-91631070D01*
X196596591Y-91542772D01*
X196394069Y-91433172D01*
X196394061Y-91433169D01*
X196176274Y-91358402D01*
X196005920Y-91329975D01*
X195949137Y-91320500D01*
X195718863Y-91320500D01*
X195673436Y-91328080D01*
X195491725Y-91358402D01*
X195273938Y-91433169D01*
X195273930Y-91433172D01*
X195071408Y-91542772D01*
X194889694Y-91684206D01*
X194889689Y-91684211D01*
X194733728Y-91853629D01*
X194607782Y-92046405D01*
X194515282Y-92257285D01*
X194458753Y-92480515D01*
X194439738Y-92709994D01*
X194439738Y-92710005D01*
X194458753Y-92939484D01*
X194515282Y-93162714D01*
X194607782Y-93373594D01*
X194733728Y-93566370D01*
X194779892Y-93616517D01*
X194810814Y-93679172D01*
X194802954Y-93748598D01*
X194758807Y-93802753D01*
X194692389Y-93824444D01*
X194688662Y-93824500D01*
X35424500Y-93824500D01*
X35357461Y-93804815D01*
X35311706Y-93752011D01*
X35300500Y-93700500D01*
X35300500Y-81534000D01*
X38210540Y-81534000D01*
X38230326Y-81722256D01*
X38230327Y-81722259D01*
X38288818Y-81902277D01*
X38288821Y-81902284D01*
X38383467Y-82066216D01*
X38485185Y-82179185D01*
X38510129Y-82206888D01*
X38663265Y-82318148D01*
X38663270Y-82318151D01*
X38836192Y-82395142D01*
X38836197Y-82395144D01*
X39021354Y-82434500D01*
X39021355Y-82434500D01*
X39210644Y-82434500D01*
X39210646Y-82434500D01*
X39395803Y-82395144D01*
X39568730Y-82318151D01*
X39721871Y-82206888D01*
X39724788Y-82203647D01*
X39727600Y-82200526D01*
X39787087Y-82163879D01*
X39819748Y-82159500D01*
X83370252Y-82159500D01*
X83437291Y-82179185D01*
X83462400Y-82200526D01*
X83468126Y-82206885D01*
X83468130Y-82206889D01*
X83621265Y-82318148D01*
X83621270Y-82318151D01*
X83794192Y-82395142D01*
X83794197Y-82395144D01*
X83979354Y-82434500D01*
X83979355Y-82434500D01*
X84168644Y-82434500D01*
X84168646Y-82434500D01*
X84353803Y-82395144D01*
X84526730Y-82318151D01*
X84679871Y-82206888D01*
X84682788Y-82203647D01*
X84685600Y-82200526D01*
X84745087Y-82163879D01*
X84777748Y-82159500D01*
X128582252Y-82159500D01*
X128649291Y-82179185D01*
X128674400Y-82200526D01*
X128680126Y-82206885D01*
X128680130Y-82206889D01*
X128833265Y-82318148D01*
X128833270Y-82318151D01*
X129006192Y-82395142D01*
X129006197Y-82395144D01*
X129191354Y-82434500D01*
X129191355Y-82434500D01*
X129380644Y-82434500D01*
X129380646Y-82434500D01*
X129565803Y-82395144D01*
X129738730Y-82318151D01*
X129891871Y-82206888D01*
X129894788Y-82203647D01*
X129897600Y-82200526D01*
X129957087Y-82163879D01*
X129989748Y-82159500D01*
X165412252Y-82159500D01*
X165479291Y-82179185D01*
X165504400Y-82200526D01*
X165510126Y-82206885D01*
X165510130Y-82206889D01*
X165663265Y-82318148D01*
X165663270Y-82318151D01*
X165836192Y-82395142D01*
X165836197Y-82395144D01*
X166021354Y-82434500D01*
X166021355Y-82434500D01*
X166210644Y-82434500D01*
X166210646Y-82434500D01*
X166395803Y-82395144D01*
X166568730Y-82318151D01*
X166721871Y-82206888D01*
X166724788Y-82203647D01*
X166727600Y-82200526D01*
X166787087Y-82163879D01*
X166819748Y-82159500D01*
X173540252Y-82159500D01*
X173607291Y-82179185D01*
X173632400Y-82200526D01*
X173638126Y-82206885D01*
X173638130Y-82206889D01*
X173791265Y-82318148D01*
X173791270Y-82318151D01*
X173964192Y-82395142D01*
X173964197Y-82395144D01*
X174149354Y-82434500D01*
X174149355Y-82434500D01*
X174338644Y-82434500D01*
X174338646Y-82434500D01*
X174523803Y-82395144D01*
X174696730Y-82318151D01*
X174849871Y-82206888D01*
X174852788Y-82203647D01*
X174855600Y-82200526D01*
X174915087Y-82163879D01*
X174947748Y-82159500D01*
X218498252Y-82159500D01*
X218565291Y-82179185D01*
X218590400Y-82200526D01*
X218596126Y-82206885D01*
X218596130Y-82206889D01*
X218749265Y-82318148D01*
X218749270Y-82318151D01*
X218922192Y-82395142D01*
X218922197Y-82395144D01*
X219107354Y-82434500D01*
X219107355Y-82434500D01*
X219296644Y-82434500D01*
X219296646Y-82434500D01*
X219481803Y-82395144D01*
X219654730Y-82318151D01*
X219807871Y-82206888D01*
X219934533Y-82066216D01*
X220029179Y-81902284D01*
X220087674Y-81722256D01*
X220107460Y-81534000D01*
X220087674Y-81345744D01*
X220074700Y-81305817D01*
X220072706Y-81235978D01*
X220108786Y-81176145D01*
X220171487Y-81145316D01*
X220192632Y-81143500D01*
X220784252Y-81143500D01*
X220851291Y-81163185D01*
X220876400Y-81184526D01*
X220882126Y-81190885D01*
X220882130Y-81190889D01*
X221035265Y-81302148D01*
X221035270Y-81302151D01*
X221208192Y-81379142D01*
X221208197Y-81379144D01*
X221393354Y-81418500D01*
X221393355Y-81418500D01*
X221582644Y-81418500D01*
X221582646Y-81418500D01*
X221767803Y-81379144D01*
X221940730Y-81302151D01*
X222093871Y-81190888D01*
X222220533Y-81050216D01*
X222315179Y-80886284D01*
X222373674Y-80706256D01*
X222393460Y-80518000D01*
X222373674Y-80329744D01*
X222315179Y-80149716D01*
X222270308Y-80071996D01*
X222253836Y-80004100D01*
X222270307Y-79948003D01*
X222315179Y-79870284D01*
X222373674Y-79690256D01*
X222393460Y-79502000D01*
X222373674Y-79313744D01*
X222315179Y-79133716D01*
X222220533Y-78969784D01*
X222093871Y-78829112D01*
X222093870Y-78829111D01*
X221940734Y-78717851D01*
X221940729Y-78717848D01*
X221767807Y-78640857D01*
X221767802Y-78640855D01*
X221622001Y-78609865D01*
X221582646Y-78601500D01*
X221393354Y-78601500D01*
X221360897Y-78608398D01*
X221208197Y-78640855D01*
X221208192Y-78640857D01*
X221035270Y-78717848D01*
X221035265Y-78717851D01*
X220882130Y-78829110D01*
X220882126Y-78829114D01*
X220876400Y-78835474D01*
X220816913Y-78872121D01*
X220784252Y-78876500D01*
X177233748Y-78876500D01*
X177166709Y-78856815D01*
X177141600Y-78835474D01*
X177135873Y-78829114D01*
X177135869Y-78829110D01*
X176982734Y-78717851D01*
X176982729Y-78717848D01*
X176809807Y-78640857D01*
X176809802Y-78640855D01*
X176664000Y-78609865D01*
X176624646Y-78601500D01*
X176435354Y-78601500D01*
X176402897Y-78608398D01*
X176250197Y-78640855D01*
X176250192Y-78640857D01*
X176077270Y-78717848D01*
X176077265Y-78717851D01*
X175924130Y-78829110D01*
X175924126Y-78829114D01*
X175918400Y-78835474D01*
X175858913Y-78872121D01*
X175826252Y-78876500D01*
X170121748Y-78876500D01*
X170054709Y-78856815D01*
X170029600Y-78835474D01*
X170023873Y-78829114D01*
X170023869Y-78829110D01*
X169870734Y-78717851D01*
X169870729Y-78717848D01*
X169697807Y-78640857D01*
X169697802Y-78640855D01*
X169552000Y-78609865D01*
X169512646Y-78601500D01*
X169323354Y-78601500D01*
X169290897Y-78608398D01*
X169138197Y-78640855D01*
X169138192Y-78640857D01*
X168965270Y-78717848D01*
X168965265Y-78717851D01*
X168812130Y-78829110D01*
X168812126Y-78829114D01*
X168806400Y-78835474D01*
X168746913Y-78872121D01*
X168714252Y-78876500D01*
X132275748Y-78876500D01*
X132208709Y-78856815D01*
X132183600Y-78835474D01*
X132177873Y-78829114D01*
X132177869Y-78829110D01*
X132024734Y-78717851D01*
X132024729Y-78717848D01*
X131851807Y-78640857D01*
X131851802Y-78640855D01*
X131706000Y-78609865D01*
X131666646Y-78601500D01*
X131477354Y-78601500D01*
X131444897Y-78608398D01*
X131292197Y-78640855D01*
X131292192Y-78640857D01*
X131119270Y-78717848D01*
X131119265Y-78717851D01*
X130966130Y-78829110D01*
X130966126Y-78829114D01*
X130960400Y-78835474D01*
X130900913Y-78872121D01*
X130868252Y-78876500D01*
X87317748Y-78876500D01*
X87250709Y-78856815D01*
X87225600Y-78835474D01*
X87219873Y-78829114D01*
X87219869Y-78829110D01*
X87066734Y-78717851D01*
X87066729Y-78717848D01*
X86893807Y-78640857D01*
X86893802Y-78640855D01*
X86748000Y-78609865D01*
X86708646Y-78601500D01*
X86519354Y-78601500D01*
X86486897Y-78608398D01*
X86334197Y-78640855D01*
X86334192Y-78640857D01*
X86161270Y-78717848D01*
X86161265Y-78717851D01*
X86008130Y-78829110D01*
X86008126Y-78829114D01*
X86002400Y-78835474D01*
X85942913Y-78872121D01*
X85910252Y-78876500D01*
X42105748Y-78876500D01*
X42038709Y-78856815D01*
X42013600Y-78835474D01*
X42007873Y-78829114D01*
X42007869Y-78829110D01*
X41854734Y-78717851D01*
X41854729Y-78717848D01*
X41681807Y-78640857D01*
X41681802Y-78640855D01*
X41536001Y-78609865D01*
X41496646Y-78601500D01*
X41307354Y-78601500D01*
X41274897Y-78608398D01*
X41122197Y-78640855D01*
X41122192Y-78640857D01*
X40949270Y-78717848D01*
X40949265Y-78717851D01*
X40796129Y-78829111D01*
X40669466Y-78969785D01*
X40574821Y-79133715D01*
X40574818Y-79133722D01*
X40516327Y-79313740D01*
X40516326Y-79313744D01*
X40496540Y-79502000D01*
X40516326Y-79690256D01*
X40516327Y-79690259D01*
X40574818Y-79870277D01*
X40574819Y-79870279D01*
X40574821Y-79870284D01*
X40669467Y-80034216D01*
X40703488Y-80072000D01*
X40766237Y-80141690D01*
X40796467Y-80204681D01*
X40792019Y-80262978D01*
X40770326Y-80329743D01*
X40750540Y-80517999D01*
X40766815Y-80672855D01*
X40770326Y-80706256D01*
X40783299Y-80746182D01*
X40785294Y-80816022D01*
X40749214Y-80875855D01*
X40686513Y-80906684D01*
X40665368Y-80908500D01*
X39819748Y-80908500D01*
X39752709Y-80888815D01*
X39727600Y-80867474D01*
X39721873Y-80861114D01*
X39721869Y-80861110D01*
X39568734Y-80749851D01*
X39568729Y-80749848D01*
X39395807Y-80672857D01*
X39395802Y-80672855D01*
X39250001Y-80641865D01*
X39210646Y-80633500D01*
X39021354Y-80633500D01*
X38988897Y-80640398D01*
X38836197Y-80672855D01*
X38836192Y-80672857D01*
X38663270Y-80749848D01*
X38663265Y-80749851D01*
X38510129Y-80861111D01*
X38383466Y-81001785D01*
X38288821Y-81165715D01*
X38288818Y-81165722D01*
X38265991Y-81235978D01*
X38230326Y-81345744D01*
X38210540Y-81534000D01*
X35300500Y-81534000D01*
X35300500Y-76962000D01*
X172068540Y-76962000D01*
X172088326Y-77150256D01*
X172088327Y-77150259D01*
X172146818Y-77330277D01*
X172146821Y-77330284D01*
X172241467Y-77494216D01*
X172350403Y-77615201D01*
X172368129Y-77634888D01*
X172521265Y-77746148D01*
X172521270Y-77746151D01*
X172694192Y-77823142D01*
X172694197Y-77823144D01*
X172879354Y-77862500D01*
X172879355Y-77862500D01*
X173068644Y-77862500D01*
X173068646Y-77862500D01*
X173253803Y-77823144D01*
X173426730Y-77746151D01*
X173530312Y-77670894D01*
X173596114Y-77647416D01*
X173664168Y-77663241D01*
X173690875Y-77683533D01*
X173799811Y-77792469D01*
X173799813Y-77792470D01*
X173799815Y-77792472D01*
X173945394Y-77880478D01*
X174107804Y-77931086D01*
X174178384Y-77937500D01*
X174178387Y-77937500D01*
X174691613Y-77937500D01*
X174691616Y-77937500D01*
X174762196Y-77931086D01*
X174924606Y-77880478D01*
X175070185Y-77792472D01*
X175172320Y-77690336D01*
X175233641Y-77656853D01*
X175303333Y-77661837D01*
X175347679Y-77690336D01*
X175449815Y-77792472D01*
X175595394Y-77880478D01*
X175757804Y-77931086D01*
X175828384Y-77937500D01*
X175828387Y-77937500D01*
X176341613Y-77937500D01*
X176341616Y-77937500D01*
X176412196Y-77931086D01*
X176574606Y-77880478D01*
X176720185Y-77792472D01*
X176730159Y-77782498D01*
X176791481Y-77749011D01*
X176861173Y-77753993D01*
X176917108Y-77795862D01*
X176924575Y-77807055D01*
X176926255Y-77809896D01*
X176926256Y-77809898D01*
X176934090Y-77823144D01*
X177009917Y-77951362D01*
X177009923Y-77951370D01*
X177126129Y-78067576D01*
X177126133Y-78067579D01*
X177126135Y-78067581D01*
X177267602Y-78151244D01*
X177309224Y-78163336D01*
X177425426Y-78197097D01*
X177425429Y-78197097D01*
X177425431Y-78197098D01*
X177462306Y-78200000D01*
X177462314Y-78200000D01*
X177893686Y-78200000D01*
X177893694Y-78200000D01*
X177930569Y-78197098D01*
X177930571Y-78197097D01*
X177930573Y-78197097D01*
X177972191Y-78185005D01*
X178088398Y-78151244D01*
X178229865Y-78067581D01*
X178346081Y-77951365D01*
X178429744Y-77809898D01*
X178475598Y-77652069D01*
X178478500Y-77615194D01*
X178478500Y-76308806D01*
X178475598Y-76271931D01*
X178468382Y-76247095D01*
X178429745Y-76114106D01*
X178429744Y-76114103D01*
X178429744Y-76114102D01*
X178346081Y-75972635D01*
X178346079Y-75972633D01*
X178346076Y-75972629D01*
X178229870Y-75856423D01*
X178229862Y-75856417D01*
X178088396Y-75772755D01*
X178088393Y-75772754D01*
X177930573Y-75726902D01*
X177930567Y-75726901D01*
X177893701Y-75724000D01*
X177893694Y-75724000D01*
X177462306Y-75724000D01*
X177462298Y-75724000D01*
X177425432Y-75726901D01*
X177425426Y-75726902D01*
X177267606Y-75772754D01*
X177267603Y-75772755D01*
X177126137Y-75856417D01*
X177126129Y-75856423D01*
X177009923Y-75972629D01*
X177009916Y-75972638D01*
X176924575Y-76116944D01*
X176873506Y-76164627D01*
X176804764Y-76177131D01*
X176740175Y-76150486D01*
X176730162Y-76141504D01*
X176720188Y-76131530D01*
X176691365Y-76114106D01*
X176574606Y-76043522D01*
X176412196Y-75992914D01*
X176412194Y-75992913D01*
X176412192Y-75992913D01*
X176362778Y-75988423D01*
X176341616Y-75986500D01*
X175828384Y-75986500D01*
X175809144Y-75988248D01*
X175757807Y-75992913D01*
X175595393Y-76043522D01*
X175449813Y-76131529D01*
X175347680Y-76233662D01*
X175286357Y-76267146D01*
X175216665Y-76262162D01*
X175172319Y-76233662D01*
X175070185Y-76131528D01*
X174924606Y-76043522D01*
X174762196Y-75992914D01*
X174762194Y-75992913D01*
X174762192Y-75992913D01*
X174712778Y-75988423D01*
X174691616Y-75986500D01*
X174178384Y-75986500D01*
X174159144Y-75988248D01*
X174107807Y-75992913D01*
X173945393Y-76043522D01*
X173799813Y-76131529D01*
X173690875Y-76240467D01*
X173629552Y-76273951D01*
X173559860Y-76268967D01*
X173530309Y-76253103D01*
X173426734Y-76177851D01*
X173426729Y-76177848D01*
X173253807Y-76100857D01*
X173253802Y-76100855D01*
X173108001Y-76069865D01*
X173068646Y-76061500D01*
X172879354Y-76061500D01*
X172846897Y-76068398D01*
X172694197Y-76100855D01*
X172694192Y-76100857D01*
X172521270Y-76177848D01*
X172521265Y-76177851D01*
X172368129Y-76289111D01*
X172241466Y-76429785D01*
X172146821Y-76593715D01*
X172146818Y-76593722D01*
X172088327Y-76773740D01*
X172088326Y-76773744D01*
X172068540Y-76962000D01*
X35300500Y-76962000D01*
X35300500Y-70000000D01*
X36694652Y-70000000D01*
X36712238Y-70324364D01*
X36714028Y-70357368D01*
X36714029Y-70357385D01*
X36771926Y-70710539D01*
X36771932Y-70710565D01*
X36867672Y-71055392D01*
X36867674Y-71055399D01*
X37000142Y-71387870D01*
X37000151Y-71387888D01*
X37167784Y-71704077D01*
X37167787Y-71704082D01*
X37167789Y-71704085D01*
X37306479Y-71908638D01*
X37368634Y-72000309D01*
X37368641Y-72000319D01*
X37597427Y-72269666D01*
X37600332Y-72273086D01*
X37860163Y-72519211D01*
X38145081Y-72735800D01*
X38451747Y-72920315D01*
X38451749Y-72920316D01*
X38451751Y-72920317D01*
X38451755Y-72920319D01*
X38776552Y-73070585D01*
X38776565Y-73070591D01*
X39115726Y-73184868D01*
X39465254Y-73261805D01*
X39821052Y-73300500D01*
X39821058Y-73300500D01*
X40178942Y-73300500D01*
X40178948Y-73300500D01*
X40534746Y-73261805D01*
X40884274Y-73184868D01*
X41223435Y-73070591D01*
X41548253Y-72920315D01*
X41854919Y-72735800D01*
X42139837Y-72519211D01*
X42399668Y-72273086D01*
X42631365Y-72000311D01*
X42832211Y-71704085D01*
X42999853Y-71387880D01*
X43132324Y-71055403D01*
X43228071Y-70710552D01*
X43266323Y-70477224D01*
X43285970Y-70357385D01*
X43285970Y-70357382D01*
X43285972Y-70357371D01*
X43305348Y-70000000D01*
X126694652Y-70000000D01*
X126712238Y-70324364D01*
X126714028Y-70357368D01*
X126714029Y-70357385D01*
X126771926Y-70710539D01*
X126771932Y-70710565D01*
X126867672Y-71055392D01*
X126867674Y-71055399D01*
X127000142Y-71387870D01*
X127000151Y-71387888D01*
X127167784Y-71704077D01*
X127167787Y-71704082D01*
X127167789Y-71704085D01*
X127306479Y-71908638D01*
X127368634Y-72000309D01*
X127368641Y-72000319D01*
X127597427Y-72269666D01*
X127600332Y-72273086D01*
X127860163Y-72519211D01*
X128145081Y-72735800D01*
X128451747Y-72920315D01*
X128451749Y-72920316D01*
X128451751Y-72920317D01*
X128451755Y-72920319D01*
X128776552Y-73070585D01*
X128776565Y-73070591D01*
X129115726Y-73184868D01*
X129465254Y-73261805D01*
X129821052Y-73300500D01*
X129821058Y-73300500D01*
X130178942Y-73300500D01*
X130178948Y-73300500D01*
X130534746Y-73261805D01*
X130884274Y-73184868D01*
X131223435Y-73070591D01*
X131548253Y-72920315D01*
X131585341Y-72898000D01*
X168512540Y-72898000D01*
X168532326Y-73086256D01*
X168532327Y-73086259D01*
X168590818Y-73266277D01*
X168590821Y-73266284D01*
X168685467Y-73430216D01*
X168794403Y-73551201D01*
X168812129Y-73570888D01*
X168965265Y-73682148D01*
X168965270Y-73682151D01*
X169138192Y-73759142D01*
X169138197Y-73759144D01*
X169323354Y-73798500D01*
X169323355Y-73798500D01*
X169512644Y-73798500D01*
X169512646Y-73798500D01*
X169697803Y-73759144D01*
X169870730Y-73682151D01*
X169974312Y-73606894D01*
X170040114Y-73583416D01*
X170108168Y-73599241D01*
X170134875Y-73619533D01*
X170243811Y-73728469D01*
X170243813Y-73728470D01*
X170243815Y-73728472D01*
X170389394Y-73816478D01*
X170551804Y-73867086D01*
X170622384Y-73873500D01*
X170622387Y-73873500D01*
X171135613Y-73873500D01*
X171135616Y-73873500D01*
X171206196Y-73867086D01*
X171368606Y-73816478D01*
X171514185Y-73728472D01*
X171560509Y-73682148D01*
X171616319Y-73626339D01*
X171677642Y-73592854D01*
X171747334Y-73597838D01*
X171791681Y-73626339D01*
X171893811Y-73728469D01*
X171893813Y-73728470D01*
X171893815Y-73728472D01*
X172039394Y-73816478D01*
X172201804Y-73867086D01*
X172272384Y-73873500D01*
X172272387Y-73873500D01*
X172785613Y-73873500D01*
X172785616Y-73873500D01*
X172856196Y-73867086D01*
X173018606Y-73816478D01*
X173164185Y-73728472D01*
X173174159Y-73718497D01*
X173235481Y-73685011D01*
X173305173Y-73689993D01*
X173361108Y-73731862D01*
X173368575Y-73743055D01*
X173370255Y-73745896D01*
X173370256Y-73745898D01*
X173378090Y-73759144D01*
X173453917Y-73887362D01*
X173453923Y-73887370D01*
X173570129Y-74003576D01*
X173570133Y-74003579D01*
X173570135Y-74003581D01*
X173711602Y-74087244D01*
X173753224Y-74099336D01*
X173869426Y-74133097D01*
X173869429Y-74133097D01*
X173869431Y-74133098D01*
X173906306Y-74136000D01*
X173906314Y-74136000D01*
X174337686Y-74136000D01*
X174337694Y-74136000D01*
X174374569Y-74133098D01*
X174374571Y-74133097D01*
X174374573Y-74133097D01*
X174416191Y-74121005D01*
X174532398Y-74087244D01*
X174673865Y-74003581D01*
X174790081Y-73887365D01*
X174873744Y-73745898D01*
X174919598Y-73588069D01*
X174922500Y-73551194D01*
X174922500Y-72244806D01*
X174919598Y-72207931D01*
X174912382Y-72183095D01*
X174873745Y-72050106D01*
X174873744Y-72050103D01*
X174873744Y-72050102D01*
X174790081Y-71908635D01*
X174790079Y-71908633D01*
X174790076Y-71908629D01*
X174673870Y-71792423D01*
X174673862Y-71792417D01*
X174532396Y-71708755D01*
X174532393Y-71708754D01*
X174374573Y-71662902D01*
X174374567Y-71662901D01*
X174337701Y-71660000D01*
X174337694Y-71660000D01*
X173906306Y-71660000D01*
X173906298Y-71660000D01*
X173869432Y-71662901D01*
X173869426Y-71662902D01*
X173711606Y-71708754D01*
X173711603Y-71708755D01*
X173570137Y-71792417D01*
X173570129Y-71792423D01*
X173453923Y-71908629D01*
X173453916Y-71908638D01*
X173368575Y-72052944D01*
X173317506Y-72100627D01*
X173248764Y-72113131D01*
X173184175Y-72086486D01*
X173174162Y-72077504D01*
X173164188Y-72067530D01*
X173135365Y-72050106D01*
X173018606Y-71979522D01*
X172856196Y-71928914D01*
X172856194Y-71928913D01*
X172856192Y-71928913D01*
X172806778Y-71924423D01*
X172785616Y-71922500D01*
X172272384Y-71922500D01*
X172253144Y-71924248D01*
X172201807Y-71928913D01*
X172039393Y-71979522D01*
X171893813Y-72067529D01*
X171791680Y-72169662D01*
X171730357Y-72203146D01*
X171660665Y-72198162D01*
X171616319Y-72169662D01*
X171514185Y-72067528D01*
X171368606Y-71979522D01*
X171206196Y-71928914D01*
X171206194Y-71928913D01*
X171206192Y-71928913D01*
X171156778Y-71924423D01*
X171135616Y-71922500D01*
X170622384Y-71922500D01*
X170603144Y-71924248D01*
X170551807Y-71928913D01*
X170389393Y-71979522D01*
X170243813Y-72067529D01*
X170134875Y-72176467D01*
X170073552Y-72209951D01*
X170003860Y-72204967D01*
X169974309Y-72189103D01*
X169870734Y-72113851D01*
X169870729Y-72113848D01*
X169697807Y-72036857D01*
X169697802Y-72036855D01*
X169525908Y-72000319D01*
X169512646Y-71997500D01*
X169323354Y-71997500D01*
X169310092Y-72000319D01*
X169138197Y-72036855D01*
X169138192Y-72036857D01*
X168965270Y-72113848D01*
X168965265Y-72113851D01*
X168812129Y-72225111D01*
X168685466Y-72365785D01*
X168590821Y-72529715D01*
X168590818Y-72529722D01*
X168532327Y-72709740D01*
X168532326Y-72709744D01*
X168512540Y-72898000D01*
X131585341Y-72898000D01*
X131854919Y-72735800D01*
X132139837Y-72519211D01*
X132399668Y-72273086D01*
X132631365Y-72000311D01*
X132832211Y-71704085D01*
X132999853Y-71387880D01*
X133132324Y-71055403D01*
X133228071Y-70710552D01*
X133266323Y-70477224D01*
X133285970Y-70357385D01*
X133285970Y-70357382D01*
X133285972Y-70357371D01*
X133305348Y-70000000D01*
X133305286Y-69998865D01*
X133300928Y-69918472D01*
X133285972Y-69642629D01*
X133282297Y-69620214D01*
X133228073Y-69289460D01*
X133228072Y-69289459D01*
X133228071Y-69289448D01*
X133195931Y-69173690D01*
X133172140Y-69088000D01*
X165210540Y-69088000D01*
X165230326Y-69276256D01*
X165230327Y-69276259D01*
X165288818Y-69456277D01*
X165288821Y-69456284D01*
X165383467Y-69620216D01*
X165454917Y-69699569D01*
X165510129Y-69760888D01*
X165663265Y-69872148D01*
X165663270Y-69872151D01*
X165836192Y-69949142D01*
X165836197Y-69949144D01*
X166021354Y-69988500D01*
X166021355Y-69988500D01*
X166210644Y-69988500D01*
X166210646Y-69988500D01*
X166395803Y-69949144D01*
X166541224Y-69884397D01*
X166610471Y-69875112D01*
X166673748Y-69904740D01*
X166679342Y-69909999D01*
X166687812Y-69918469D01*
X166687811Y-69918469D01*
X166687813Y-69918470D01*
X166687815Y-69918472D01*
X166833394Y-70006478D01*
X166995804Y-70057086D01*
X167066384Y-70063500D01*
X167066387Y-70063500D01*
X167579613Y-70063500D01*
X167579616Y-70063500D01*
X167650196Y-70057086D01*
X167812606Y-70006478D01*
X167958185Y-69918472D01*
X168004509Y-69872148D01*
X168060319Y-69816339D01*
X168121642Y-69782854D01*
X168191334Y-69787838D01*
X168235681Y-69816339D01*
X168337811Y-69918469D01*
X168337813Y-69918470D01*
X168337815Y-69918472D01*
X168483394Y-70006478D01*
X168645804Y-70057086D01*
X168716384Y-70063500D01*
X168716387Y-70063500D01*
X169229613Y-70063500D01*
X169229616Y-70063500D01*
X169300196Y-70057086D01*
X169462606Y-70006478D01*
X169608185Y-69918472D01*
X169608189Y-69918468D01*
X169614094Y-69913843D01*
X169615444Y-69915566D01*
X169667164Y-69887315D01*
X169736856Y-69892288D01*
X169792797Y-69934150D01*
X169800274Y-69945356D01*
X169831917Y-69998862D01*
X169831923Y-69998870D01*
X169948129Y-70115076D01*
X169948133Y-70115079D01*
X169948135Y-70115081D01*
X170089602Y-70198744D01*
X170131224Y-70210836D01*
X170247426Y-70244597D01*
X170247429Y-70244597D01*
X170247431Y-70244598D01*
X170284306Y-70247500D01*
X170284314Y-70247500D01*
X170715686Y-70247500D01*
X170715694Y-70247500D01*
X170752569Y-70244598D01*
X170752571Y-70244597D01*
X170752573Y-70244597D01*
X170828461Y-70222549D01*
X170910398Y-70198744D01*
X171051865Y-70115081D01*
X171168081Y-69998865D01*
X171251744Y-69857398D01*
X171297598Y-69699569D01*
X171300500Y-69662694D01*
X171300500Y-68356306D01*
X171297598Y-68319431D01*
X171293836Y-68306483D01*
X171251745Y-68161606D01*
X171251744Y-68161603D01*
X171251744Y-68161602D01*
X171168081Y-68020135D01*
X171168079Y-68020133D01*
X171168076Y-68020129D01*
X171051870Y-67903923D01*
X171051862Y-67903917D01*
X170910396Y-67820255D01*
X170910393Y-67820254D01*
X170752573Y-67774402D01*
X170752567Y-67774401D01*
X170715701Y-67771500D01*
X170715694Y-67771500D01*
X170284306Y-67771500D01*
X170284298Y-67771500D01*
X170247432Y-67774401D01*
X170247426Y-67774402D01*
X170089606Y-67820254D01*
X170089603Y-67820255D01*
X169948137Y-67903917D01*
X169948129Y-67903923D01*
X169831923Y-68020129D01*
X169831917Y-68020137D01*
X169748255Y-68161603D01*
X169745156Y-68168765D01*
X169743612Y-68168096D01*
X169711055Y-68219063D01*
X169647579Y-68248263D01*
X169578394Y-68238510D01*
X169565449Y-68231693D01*
X169462606Y-68169522D01*
X169300196Y-68118914D01*
X169300194Y-68118913D01*
X169300192Y-68118913D01*
X169250778Y-68114423D01*
X169229616Y-68112500D01*
X168716384Y-68112500D01*
X168697144Y-68114248D01*
X168645807Y-68118913D01*
X168483393Y-68169522D01*
X168337811Y-68257530D01*
X168337810Y-68257531D01*
X168235681Y-68359661D01*
X168174358Y-68393146D01*
X168104666Y-68388162D01*
X168060319Y-68359661D01*
X167958188Y-68257530D01*
X167958181Y-68257526D01*
X167812606Y-68169522D01*
X167650196Y-68118914D01*
X167650194Y-68118913D01*
X167650192Y-68118913D01*
X167600778Y-68114423D01*
X167579616Y-68112500D01*
X167066384Y-68112500D01*
X167047144Y-68114248D01*
X166995807Y-68118913D01*
X166833393Y-68169522D01*
X166687816Y-68257526D01*
X166679336Y-68266006D01*
X166618012Y-68299489D01*
X166548320Y-68294502D01*
X166541222Y-68291601D01*
X166395807Y-68226857D01*
X166395802Y-68226855D01*
X166250000Y-68195865D01*
X166210646Y-68187500D01*
X166021354Y-68187500D01*
X165988897Y-68194398D01*
X165836197Y-68226855D01*
X165836192Y-68226857D01*
X165663270Y-68303848D01*
X165663265Y-68303851D01*
X165510129Y-68415111D01*
X165383466Y-68555785D01*
X165288821Y-68719715D01*
X165288818Y-68719722D01*
X165230327Y-68899740D01*
X165230326Y-68899744D01*
X165210540Y-69088000D01*
X133172140Y-69088000D01*
X133132327Y-68944607D01*
X133132325Y-68944600D01*
X132999857Y-68612129D01*
X132999848Y-68612111D01*
X132999495Y-68611446D01*
X132883760Y-68393146D01*
X132832215Y-68295922D01*
X132832213Y-68295919D01*
X132832211Y-68295915D01*
X132631365Y-67999689D01*
X132631361Y-67999684D01*
X132631358Y-67999680D01*
X132399668Y-67726914D01*
X132238551Y-67574296D01*
X132139837Y-67480789D01*
X132139830Y-67480783D01*
X132139827Y-67480781D01*
X132072245Y-67429407D01*
X131854919Y-67264200D01*
X131548253Y-67079685D01*
X131548252Y-67079684D01*
X131548248Y-67079682D01*
X131548244Y-67079680D01*
X131223447Y-66929414D01*
X131223441Y-66929411D01*
X131223435Y-66929409D01*
X131053854Y-66872270D01*
X130884273Y-66815131D01*
X130534744Y-66738194D01*
X130178949Y-66699500D01*
X130178948Y-66699500D01*
X129821052Y-66699500D01*
X129821050Y-66699500D01*
X129465255Y-66738194D01*
X129115726Y-66815131D01*
X128859970Y-66901306D01*
X128776565Y-66929409D01*
X128776562Y-66929410D01*
X128776563Y-66929410D01*
X128776552Y-66929414D01*
X128451755Y-67079680D01*
X128451751Y-67079682D01*
X128223367Y-67217096D01*
X128145081Y-67264200D01*
X128084840Y-67309994D01*
X127860172Y-67480781D01*
X127860163Y-67480789D01*
X127600331Y-67726914D01*
X127368641Y-67999680D01*
X127368634Y-67999690D01*
X127167790Y-68295913D01*
X127167784Y-68295922D01*
X127000151Y-68612111D01*
X127000142Y-68612129D01*
X126867674Y-68944600D01*
X126867672Y-68944607D01*
X126771932Y-69289434D01*
X126771926Y-69289460D01*
X126714029Y-69642614D01*
X126714028Y-69642631D01*
X126694714Y-69998865D01*
X126694652Y-70000000D01*
X43305348Y-70000000D01*
X43305286Y-69998865D01*
X43300928Y-69918472D01*
X43285972Y-69642629D01*
X43282297Y-69620214D01*
X43228073Y-69289460D01*
X43228072Y-69289459D01*
X43228071Y-69289448D01*
X43195931Y-69173690D01*
X43132327Y-68944607D01*
X43132325Y-68944600D01*
X42999857Y-68612129D01*
X42999848Y-68612111D01*
X42999495Y-68611446D01*
X42883760Y-68393146D01*
X42832215Y-68295922D01*
X42832213Y-68295919D01*
X42832211Y-68295915D01*
X42631365Y-67999689D01*
X42631361Y-67999684D01*
X42631358Y-67999680D01*
X42399668Y-67726914D01*
X42238551Y-67574296D01*
X42139837Y-67480789D01*
X42139830Y-67480783D01*
X42139827Y-67480781D01*
X42072245Y-67429407D01*
X41854919Y-67264200D01*
X41548253Y-67079685D01*
X41548252Y-67079684D01*
X41548248Y-67079682D01*
X41548244Y-67079680D01*
X41223447Y-66929414D01*
X41223441Y-66929411D01*
X41223435Y-66929409D01*
X41053854Y-66872270D01*
X40884273Y-66815131D01*
X40534744Y-66738194D01*
X40178949Y-66699500D01*
X40178948Y-66699500D01*
X39821052Y-66699500D01*
X39821050Y-66699500D01*
X39465255Y-66738194D01*
X39115726Y-66815131D01*
X38859970Y-66901306D01*
X38776565Y-66929409D01*
X38776562Y-66929410D01*
X38776563Y-66929410D01*
X38776552Y-66929414D01*
X38451755Y-67079680D01*
X38451751Y-67079682D01*
X38223367Y-67217096D01*
X38145081Y-67264200D01*
X38084840Y-67309994D01*
X37860172Y-67480781D01*
X37860163Y-67480789D01*
X37600331Y-67726914D01*
X37368641Y-67999680D01*
X37368634Y-67999690D01*
X37167790Y-68295913D01*
X37167784Y-68295922D01*
X37000151Y-68612111D01*
X37000142Y-68612129D01*
X36867674Y-68944600D01*
X36867672Y-68944607D01*
X36771932Y-69289434D01*
X36771926Y-69289460D01*
X36714029Y-69642614D01*
X36714028Y-69642631D01*
X36694714Y-69998865D01*
X36694652Y-70000000D01*
X35300500Y-70000000D01*
X35300500Y-66299500D01*
X35320185Y-66232461D01*
X35372989Y-66186706D01*
X35424500Y-66175500D01*
X194327702Y-66175500D01*
X194394741Y-66195185D01*
G37*
%TD.AperFunction*%
%TD*%
M02*
