%TF.GenerationSoftware,KiCad,Pcbnew,7.0.5*%
%TF.CreationDate,2023-06-18T10:33:00+01:00*%
%TF.ProjectId,Rapid Training Target,52617069-6420-4547-9261-696e696e6720,A*%
%TF.SameCoordinates,Original*%
%TF.FileFunction,Soldermask,Top*%
%TF.FilePolarity,Negative*%
%FSLAX46Y46*%
G04 Gerber Fmt 4.6, Leading zero omitted, Abs format (unit mm)*
G04 Created by KiCad (PCBNEW 7.0.5) date 2023-06-18 10:33:00*
%MOMM*%
%LPD*%
G01*
G04 APERTURE LIST*
%ADD10C,5.600000*%
%ADD11C,1.778000*%
%ADD12R,1.778000X1.778000*%
%ADD13R,0.370000X0.339000*%
G04 APERTURE END LIST*
D10*
%TO.C,H3*%
X220000000Y-70000000D03*
%TD*%
D11*
%TO.C,U1*%
X195834000Y-92710000D03*
X198374000Y-92710000D03*
X200914000Y-92710000D03*
X203454000Y-92710000D03*
X205994000Y-92710000D03*
X208534000Y-92710000D03*
X211074000Y-92710000D03*
X213614000Y-92710000D03*
X216154000Y-92710000D03*
X216154000Y-67310000D03*
X213614000Y-67310000D03*
X211074000Y-67310000D03*
X208534000Y-67310000D03*
X205994000Y-67310000D03*
X203454000Y-67310000D03*
X200914000Y-67310000D03*
X198374000Y-67310000D03*
D12*
X195834000Y-67310000D03*
%TD*%
D10*
%TO.C,H2*%
X40000000Y-70000000D03*
%TD*%
%TO.C,H1*%
X130000000Y-70000000D03*
%TD*%
D13*
%TO.C,D5*%
X219655000Y-79655000D03*
X219655000Y-80345000D03*
X220345000Y-80345000D03*
X220345000Y-79655000D03*
%TD*%
%TO.C,D4*%
X174655000Y-79655000D03*
X174655000Y-80345000D03*
X175345000Y-80345000D03*
X175345000Y-79655000D03*
%TD*%
%TO.C,D3*%
X130345000Y-79655000D03*
X130345000Y-80345000D03*
X129655000Y-80345000D03*
X129655000Y-79655000D03*
%TD*%
%TO.C,D2*%
X84655000Y-79655000D03*
X84655000Y-80345000D03*
X85345000Y-80345000D03*
X85345000Y-79655000D03*
%TD*%
%TO.C,D1*%
X39655000Y-79655000D03*
X39655000Y-80345000D03*
X40345000Y-80345000D03*
X40345000Y-79655000D03*
%TD*%
M02*
