G04 #@! TF.GenerationSoftware,KiCad,Pcbnew,7.0.8*
G04 #@! TF.CreationDate,2023-11-01T20:17:53+00:00*
G04 #@! TF.ProjectId,stencil,7374656e-6369-46c2-9e6b-696361645f70,C*
G04 #@! TF.SameCoordinates,PX2160ec0PY5f5dd18*
G04 #@! TF.FileFunction,Paste,Top*
G04 #@! TF.FilePolarity,Positive*
%FSLAX46Y46*%
G04 Gerber Fmt 4.6, Leading zero omitted, Abs format (unit mm)*
G04 Created by KiCad (PCBNEW 7.0.8) date 2023-11-01 20:17:53*
%MOMM*%
%LPD*%
G01*
G04 APERTURE LIST*
%ADD10C,0.500000*%
%ADD11C,1.000000*%
%ADD12C,1.050000*%
%ADD13R,0.370000X0.339000*%
G04 APERTURE END LIST*
D10*
X20211538Y47999862D02*
G75*
G03*
X19711538Y47499916I-38J-499962D01*
G01*
X-53250000Y46999916D02*
X-53250000Y36666583D01*
X225519230Y47999870D02*
G75*
G03*
X225019230Y47499916I-30J-499970D01*
G01*
X189288461Y47999916D02*
X199365384Y47999916D01*
X-40173076Y47999916D02*
G75*
G03*
X-40673076Y47499916I1J-500001D01*
G01*
X116326916Y-25500084D02*
G75*
G03*
X116826923Y-26000084I499984J-16D01*
G01*
X68519230Y47999916D02*
X78596153Y47999916D01*
X199365384Y-26000084D02*
G75*
G03*
X199865384Y-25500084I16J499984D01*
G01*
X32288461Y47999939D02*
G75*
G03*
X31788461Y47499916I39J-500039D01*
G01*
X140980769Y-26000084D02*
X151057692Y-26000084D01*
X260250000Y11499900D02*
G75*
G03*
X260750000Y11999916I0J500000D01*
G01*
X19711516Y-25500084D02*
G75*
G03*
X20211538Y-26000084I499984J-16D01*
G01*
X260750000Y-2333417D02*
X260750000Y-12666750D01*
X237596153Y47999947D02*
G75*
G03*
X237096153Y47499916I47J-500047D01*
G01*
X-52250000Y47999916D02*
X-42173076Y47999916D01*
X7634616Y-25500084D02*
G75*
G03*
X8134615Y-26000084I499984J-16D01*
G01*
X237596153Y-26000084D02*
X247673076Y-26000084D01*
X80596153Y-26000084D02*
X90673076Y-26000084D01*
D11*
X104250000Y-22750084D02*
G75*
G03*
X104250000Y-22750084I-500000J0D01*
G01*
D10*
X213442307Y47999916D02*
X223519230Y47999916D01*
X139480816Y47499916D02*
G75*
G03*
X138980769Y47999916I-500016J-16D01*
G01*
X189288461Y47999939D02*
G75*
G03*
X188788461Y47499916I39J-500039D01*
G01*
X212942316Y-25500084D02*
G75*
G03*
X213442307Y-26000084I499984J-16D01*
G01*
X-16519184Y-25500084D02*
G75*
G03*
X-16019231Y-26000084I499984J-16D01*
G01*
X-53250000Y24333250D02*
G75*
G03*
X-52750000Y23833250I500001J1D01*
G01*
X-52750000Y35166583D02*
G75*
G03*
X-53250000Y34666583I1J-500001D01*
G01*
X-40173076Y47999916D02*
X-30096154Y47999916D01*
D12*
X-49475000Y-22750084D02*
G75*
G03*
X-49475000Y-22750084I-525000J0D01*
G01*
D10*
X260250000Y36166600D02*
G75*
G03*
X260750000Y36666583I0J500000D01*
G01*
X44365384Y-26000084D02*
X54442307Y-26000084D01*
X116826923Y47999916D02*
X126903846Y47999916D01*
X260250000Y-13166700D02*
G75*
G03*
X260750000Y-12666750I0J500000D01*
G01*
X104750000Y-26000084D02*
X114826923Y-26000084D01*
X163634616Y47499916D02*
G75*
G03*
X163134615Y47999916I-500016J-16D01*
G01*
X260250000Y23833300D02*
G75*
G03*
X260750000Y24333250I0J500000D01*
G01*
X175711516Y47499916D02*
G75*
G03*
X175211538Y47999916I-500016J-16D01*
G01*
X-53250000Y-14666750D02*
X-53250000Y-25000084D01*
D11*
X27375000Y44749916D02*
G75*
G03*
X27375000Y44749916I-500000J0D01*
G01*
D10*
X6134615Y-26000115D02*
G75*
G03*
X6634615Y-25500084I-15J500015D01*
G01*
D12*
X258025000Y44749916D02*
G75*
G03*
X258025000Y44749916I-525000J0D01*
G01*
D10*
X42865416Y47499916D02*
G75*
G03*
X42365384Y47999916I-500016J-16D01*
G01*
X163134615Y-26000115D02*
G75*
G03*
X163634615Y-25500084I-15J500015D01*
G01*
X44365384Y47999916D02*
G75*
G03*
X43865384Y47499916I16J-500016D01*
G01*
D11*
X-49500000Y-5875084D02*
G75*
G03*
X-49500000Y-5875084I-500000J0D01*
G01*
D10*
X-52750000Y-14166750D02*
G75*
G03*
X-53250000Y-14666750I1J-500001D01*
G01*
X56442307Y47999916D02*
X66519230Y47999916D01*
X153057692Y47999908D02*
G75*
G03*
X152557692Y47499916I8J-500008D01*
G01*
X249173116Y-25500084D02*
G75*
G03*
X249673076Y-26000084I499984J-16D01*
G01*
X-53250000Y11999916D02*
G75*
G03*
X-52750000Y11499916I500001J1D01*
G01*
X92673076Y-26000084D02*
X102750000Y-26000084D01*
X-51250000Y46999916D02*
G75*
G03*
X-52250000Y47999916I-999999J1D01*
G01*
X-18019231Y-26000069D02*
G75*
G03*
X-17519231Y-25500084I31J499969D01*
G01*
X165134615Y47999916D02*
X175211538Y47999916D01*
X-5442284Y47499916D02*
G75*
G03*
X-5942308Y47999916I-500016J-16D01*
G01*
X80596153Y47999947D02*
G75*
G03*
X80096153Y47499916I47J-500047D01*
G01*
X54442307Y-26000107D02*
G75*
G03*
X54942307Y-25500084I-7J500007D01*
G01*
X211442307Y-26000107D02*
G75*
G03*
X211942307Y-25500084I-7J500007D01*
G01*
X-40673076Y-25500084D02*
G75*
G03*
X-40173076Y-26000084I500001J1D01*
G01*
X201365384Y47999916D02*
X211442307Y47999916D01*
X247673076Y-26000076D02*
G75*
G03*
X248173076Y-25500084I24J499976D01*
G01*
X164634616Y-25500084D02*
G75*
G03*
X165134615Y-26000084I499984J-16D01*
G01*
X31788516Y-25500084D02*
G75*
G03*
X32288461Y-26000084I499984J-16D01*
G01*
X-42173076Y-26000084D02*
G75*
G03*
X-41673076Y-25500084I-1J500001D01*
G01*
X248173116Y47499916D02*
G75*
G03*
X247673076Y47999916I-500016J-16D01*
G01*
X32288461Y-26000084D02*
X42365384Y-26000084D01*
X56442307Y47999893D02*
G75*
G03*
X55942307Y47499916I-7J-499993D01*
G01*
X116826923Y-26000084D02*
X126903846Y-26000084D01*
X-30096154Y-26000086D02*
G75*
G03*
X-29596154Y-25500084I-6J500006D01*
G01*
X-17519184Y47499916D02*
G75*
G03*
X-18019231Y47999916I-500016J-16D01*
G01*
X-52750000Y10499916D02*
G75*
G03*
X-53250000Y9999916I1J-500001D01*
G01*
X18711516Y47499916D02*
G75*
G03*
X18211538Y47999916I-500016J-16D01*
G01*
X175211538Y-26000138D02*
G75*
G03*
X175711538Y-25500084I-38J500038D01*
G01*
X-53250000Y-12666750D02*
G75*
G03*
X-52750000Y-13166750I500001J1D01*
G01*
X128403816Y-25500084D02*
G75*
G03*
X128903846Y-26000084I499984J-16D01*
G01*
X91173116Y47499916D02*
G75*
G03*
X90673076Y47999916I-500016J-16D01*
G01*
X-5942308Y-26000092D02*
G75*
G03*
X-5442308Y-25500084I8J499992D01*
G01*
X249673076Y-26000084D02*
X259749999Y-26000084D01*
X8134615Y-26000084D02*
X18211538Y-26000084D01*
X-53250000Y34666583D02*
X-53250000Y24333250D01*
X201365384Y47999916D02*
G75*
G03*
X200865384Y47499916I16J-500016D01*
G01*
X260749983Y-2333417D02*
G75*
G03*
X260250000Y-1833417I-499983J17D01*
G01*
X43865416Y-25500084D02*
G75*
G03*
X44365384Y-26000084I499984J-16D01*
G01*
X260750000Y34666583D02*
X260750000Y24333250D01*
X225019216Y-25500084D02*
G75*
G03*
X225519230Y-26000084I499984J-16D01*
G01*
X177211538Y-26000084D02*
X187288461Y-26000084D01*
X-3942308Y-26000084D02*
X6134615Y-26000084D01*
X225519230Y-26000084D02*
X235596153Y-26000084D01*
X213442307Y47999893D02*
G75*
G03*
X212942307Y47499916I-7J-499993D01*
G01*
D11*
X258000000Y-5875084D02*
G75*
G03*
X258000000Y-5875084I-500000J0D01*
G01*
D10*
X115326916Y47499916D02*
G75*
G03*
X114826923Y47999916I-500016J-16D01*
G01*
X249673076Y47999924D02*
G75*
G03*
X249173076Y47499916I24J-500024D01*
G01*
X80596153Y47999916D02*
X90673076Y47999916D01*
X127403816Y47499916D02*
G75*
G03*
X126903846Y47999916I-500016J-16D01*
G01*
X-53250000Y36666583D02*
G75*
G03*
X-52750000Y36166583I500001J1D01*
G01*
X-16019231Y47999931D02*
G75*
G03*
X-16519231Y47499916I31J-500031D01*
G01*
X79096216Y47499916D02*
G75*
G03*
X78596153Y47999916I-500016J-16D01*
G01*
X103250016Y47499916D02*
G75*
G03*
X102750000Y47999916I-500016J-16D01*
G01*
X189288461Y-26000084D02*
X199365384Y-26000084D01*
D11*
X104250000Y44749916D02*
G75*
G03*
X104250000Y44749916I-500000J0D01*
G01*
D10*
X188788516Y-25500084D02*
G75*
G03*
X189288461Y-26000084I499984J-16D01*
G01*
X151557716Y47499916D02*
G75*
G03*
X151057692Y47999916I-500016J-16D01*
G01*
X260750000Y9999916D02*
X260750000Y-333417D01*
X-53250000Y-333417D02*
G75*
G03*
X-52750000Y-833417I500001J1D01*
G01*
X102750000Y-26000100D02*
G75*
G03*
X103250000Y-25500084I0J500000D01*
G01*
X104250016Y-25500084D02*
G75*
G03*
X104750000Y-26000084I499984J-16D01*
G01*
X-3942308Y47999916D02*
X6134615Y47999916D01*
X55942316Y-25500084D02*
G75*
G03*
X56442307Y-26000084I499984J-16D01*
G01*
X128903846Y47999854D02*
G75*
G03*
X128403846Y47499916I-46J-499954D01*
G01*
X-52750000Y-1833417D02*
G75*
G03*
X-53250000Y-2333417I1J-500001D01*
G01*
X224019216Y47499916D02*
G75*
G03*
X223519230Y47999916I-500016J-16D01*
G01*
X-3942308Y47999908D02*
G75*
G03*
X-4442308Y47499916I8J-500008D01*
G01*
X151057692Y-26000092D02*
G75*
G03*
X151557692Y-25500084I8J499992D01*
G01*
X177211538Y47999916D02*
X187288461Y47999916D01*
X140980769Y47999931D02*
G75*
G03*
X140480769Y47499916I31J-500031D01*
G01*
X104750000Y47999916D02*
X114826923Y47999916D01*
X236096216Y47499916D02*
G75*
G03*
X235596153Y47999916I-500016J-16D01*
G01*
X152557716Y-25500084D02*
G75*
G03*
X153057692Y-26000084I499984J-16D01*
G01*
D11*
X27375000Y-22750084D02*
G75*
G03*
X27375000Y-22750084I-500000J0D01*
G01*
D10*
X32288461Y47999916D02*
X42365384Y47999916D01*
X187288461Y-26000061D02*
G75*
G03*
X187788461Y-25500084I39J499961D01*
G01*
X68019216Y-25500084D02*
G75*
G03*
X68519230Y-26000084I499984J-16D01*
G01*
X260750000Y-14666750D02*
X260750000Y-25000084D01*
X177211538Y47999862D02*
G75*
G03*
X176711538Y47499916I-38J-499962D01*
G01*
X249673076Y47999916D02*
X259749999Y47999916D01*
X128903846Y-26000084D02*
X138980769Y-26000084D01*
X-52250000Y-26000084D02*
X-42173076Y-26000084D01*
X223519230Y-26000130D02*
G75*
G03*
X224019230Y-25500084I-30J500030D01*
G01*
X67019216Y47499916D02*
G75*
G03*
X66519230Y47999916I-500016J-16D01*
G01*
X187788516Y47499916D02*
G75*
G03*
X187288461Y47999916I-500016J-16D01*
G01*
X-52750000Y22833250D02*
G75*
G03*
X-53250000Y22333250I1J-500001D01*
G01*
X200865416Y-25500084D02*
G75*
G03*
X201365384Y-26000084I499984J-16D01*
G01*
X165134615Y47999885D02*
G75*
G03*
X164634615Y47499916I-15J-499985D01*
G01*
X6634616Y47499916D02*
G75*
G03*
X6134615Y47999916I-500016J-16D01*
G01*
X258750016Y-25000084D02*
G75*
G03*
X259750000Y-26000084I999984J-16D01*
G01*
X8134615Y47999885D02*
G75*
G03*
X7634615Y47499916I-15J-499985D01*
G01*
X260750000Y46999916D02*
X260750000Y36666583D01*
D11*
X-49500000Y27874916D02*
G75*
G03*
X-49500000Y27874916I-500000J0D01*
G01*
D10*
X201365384Y-26000084D02*
X211442307Y-26000084D01*
X260750000Y22333250D02*
X260750000Y11999916D01*
X153057692Y-26000084D02*
X163134615Y-26000084D01*
X-28596154Y-25500084D02*
G75*
G03*
X-28096154Y-26000084I500004J4D01*
G01*
X213442307Y-26000084D02*
X223519230Y-26000084D01*
X-28096154Y47999916D02*
X-18019231Y47999916D01*
X66519230Y-26000130D02*
G75*
G03*
X67019230Y-25500084I-30J500030D01*
G01*
X54942316Y47499916D02*
G75*
G03*
X54442307Y47999916I-500016J-16D01*
G01*
X20211538Y-26000084D02*
X30288461Y-26000084D01*
X-53250000Y9999916D02*
X-53250000Y-333417D01*
X260250000Y-833400D02*
G75*
G03*
X260750000Y-333417I0J500000D01*
G01*
X128903846Y47999916D02*
X138980769Y47999916D01*
X176711516Y-25500084D02*
G75*
G03*
X177211538Y-26000084I499984J-16D01*
G01*
X-29596154Y47499916D02*
G75*
G03*
X-30096154Y47999916I-500006J-6D01*
G01*
X44365384Y47999916D02*
X54442307Y47999916D01*
X140980769Y47999916D02*
X151057692Y47999916D01*
X116826923Y47999877D02*
G75*
G03*
X116326923Y47499916I-23J-499977D01*
G01*
X260750050Y-14666750D02*
G75*
G03*
X260250000Y-14166750I-500050J-50D01*
G01*
X104750000Y47999900D02*
G75*
G03*
X104250000Y47499916I0J-500000D01*
G01*
X78596153Y-26000053D02*
G75*
G03*
X79096153Y-25500084I47J499953D01*
G01*
X235596153Y-26000053D02*
G75*
G03*
X236096153Y-25500084I47J499953D01*
G01*
X260750050Y22333250D02*
G75*
G03*
X260250000Y22833250I-500050J-50D01*
G01*
D11*
X258000000Y10999916D02*
G75*
G03*
X258000000Y10999916I-500000J0D01*
G01*
D10*
X92673076Y47999916D02*
X102750000Y47999916D01*
X211942316Y47499916D02*
G75*
G03*
X211442307Y47999916I-500016J-16D01*
G01*
D12*
X-49475000Y44749916D02*
G75*
G03*
X-49475000Y44749916I-525000J0D01*
G01*
D10*
X-16019231Y-26000084D02*
X-5942308Y-26000084D01*
X225519230Y47999916D02*
X235596153Y47999916D01*
X68519230Y47999870D02*
G75*
G03*
X68019230Y47499916I-30J-499970D01*
G01*
X-41673076Y47499916D02*
G75*
G03*
X-42173076Y47999916I-500001J-1D01*
G01*
X-40173076Y-26000084D02*
X-30096154Y-26000084D01*
X-52250000Y-24000084D02*
G75*
G03*
X-53250000Y-25000084I-1J-999999D01*
G01*
X-28096154Y47999914D02*
G75*
G03*
X-28596154Y47499916I4J-500004D01*
G01*
X-16019231Y47999916D02*
X-5942308Y47999916D01*
X20211538Y47999916D02*
X30288461Y47999916D01*
X30788516Y47499916D02*
G75*
G03*
X30288461Y47999916I-500016J-16D01*
G01*
X92673076Y47999924D02*
G75*
G03*
X92173076Y47499916I24J-500024D01*
G01*
D12*
X258025000Y-22750084D02*
G75*
G03*
X258025000Y-22750084I-525000J0D01*
G01*
D10*
X259750000Y45999900D02*
G75*
G03*
X260750000Y46999916I0J1000000D01*
G01*
X42365384Y-26000084D02*
G75*
G03*
X42865384Y-25500084I16J499984D01*
G01*
X126903846Y-26000146D02*
G75*
G03*
X127403846Y-25500084I-46J500046D01*
G01*
X138980769Y-26000069D02*
G75*
G03*
X139480769Y-25500084I31J499969D01*
G01*
X68519230Y-26000084D02*
X78596153Y-26000084D01*
X237596153Y47999916D02*
X247673076Y47999916D01*
D11*
X258000000Y27874916D02*
G75*
G03*
X258000000Y27874916I-500000J0D01*
G01*
D10*
X30288461Y-26000061D02*
G75*
G03*
X30788461Y-25500084I39J499961D01*
G01*
X114826923Y-26000123D02*
G75*
G03*
X115326923Y-25500084I-23J500023D01*
G01*
X56442307Y-26000084D02*
X66519230Y-26000084D01*
X-28096154Y-26000084D02*
X-18019231Y-26000084D01*
X-53250000Y-2333417D02*
X-53250000Y-12666750D01*
X237096216Y-25500084D02*
G75*
G03*
X237596153Y-26000084I499984J-16D01*
G01*
X140480816Y-25500084D02*
G75*
G03*
X140980769Y-26000084I499984J-16D01*
G01*
X-53250000Y22333250D02*
X-53250000Y11999916D01*
X199865416Y47499916D02*
G75*
G03*
X199365384Y47999916I-500016J-16D01*
G01*
D11*
X181125000Y44749916D02*
G75*
G03*
X181125000Y44749916I-500000J0D01*
G01*
D10*
X153057692Y47999916D02*
X163134615Y47999916D01*
X165134615Y-26000084D02*
X175211538Y-26000084D01*
X-4442284Y-25500084D02*
G75*
G03*
X-3942308Y-26000084I499984J-16D01*
G01*
D11*
X181125000Y-22750084D02*
G75*
G03*
X181125000Y-22750084I-500000J0D01*
G01*
D10*
X18211538Y-26000138D02*
G75*
G03*
X18711538Y-25500084I-38J500038D01*
G01*
X90673076Y-26000076D02*
G75*
G03*
X91173076Y-25500084I24J499976D01*
G01*
X260750016Y9999916D02*
G75*
G03*
X260250000Y10499916I-500016J-16D01*
G01*
X92173116Y-25500084D02*
G75*
G03*
X92673076Y-26000084I499984J-16D01*
G01*
X80096216Y-25500084D02*
G75*
G03*
X80596153Y-26000084I499984J-16D01*
G01*
X260749983Y34666583D02*
G75*
G03*
X260250000Y35166583I-499983J17D01*
G01*
X8134615Y47999916D02*
X18211538Y47999916D01*
D11*
X-49500000Y10999916D02*
G75*
G03*
X-49500000Y10999916I-500000J0D01*
G01*
D13*
G04 #@! TO.C,D3*
X94655000Y20344000D03*
X94655000Y19654000D03*
X95345000Y19654000D03*
X95345000Y20344000D03*
G04 #@! TD*
G04 #@! TO.C,D4*
X139655000Y20344000D03*
X139655000Y19654000D03*
X140345000Y19654000D03*
X140345000Y20344000D03*
G04 #@! TD*
G04 #@! TO.C,D2*
X49655000Y20344000D03*
X49655000Y19654000D03*
X50345000Y19654000D03*
X50345000Y20344000D03*
G04 #@! TD*
G04 #@! TO.C,D1*
X4655000Y20344000D03*
X4655000Y19654000D03*
X5345000Y19654000D03*
X5345000Y20344000D03*
G04 #@! TD*
G04 #@! TO.C,D5*
X184655000Y20344000D03*
X184655000Y19654000D03*
X185345000Y19654000D03*
X185345000Y20344000D03*
G04 #@! TD*
M02*
